<svg width="50" height="49" viewBox="0 0 50 49" fill="none" xmlns="http://www.w3.org/2000/svg">
<path d="M0 20C0 8.9543 8.95431 0 20 0H50V49H20C8.9543 49 0 40.0457 0 29V20Z" fill="#C68448"/>
<path d="M14.125 21.5494C14.125 20.1414 15.2664 19 16.6744 19V19C17.64 19 18.5228 18.4544 18.9546 17.5907L20.0833 15.3333C20.4358 14.6284 20.612 14.276 20.8834 14.0268C21.0698 13.8557 21.2869 13.7215 21.5233 13.6313C21.8676 13.5 22.2616 13.5 23.0497 13.5H29.9503C30.7384 13.5 31.1324 13.5 31.4767 13.6313C31.7131 13.7215 31.9302 13.8557 32.1166 14.0268C32.388 14.276 32.5642 14.6284 32.9167 15.3333L34.0454 17.5907C34.4772 18.4544 35.36 19 36.3256 19V19C37.7336 19 38.875 20.1414 38.875 21.5494V29.5C38.875 32.3284 38.875 33.7426 37.9963 34.6213C37.1176 35.5 35.7034 35.5 32.875 35.5H20.125C17.2966 35.5 15.8824 35.5 15.0037 34.6213C14.125 33.7426 14.125 32.3284 14.125 29.5V21.5494Z" stroke="#141414" stroke-width="2"/>
<circle cx="26.5" cy="25.875" r="4.5" stroke="#141414" stroke-width="2"/>
</svg>
