<svg width="50" height="49" viewBox="0 0 50 49" fill="none" xmlns="http://www.w3.org/2000/svg">
<path d="M0 20C0 8.9543 8.95431 0 20 0H50V49H20C8.9543 49 0 40.0457 0 29V20Z" fill="#EAEAEA"/>
<path d="M23.75 28.625L23.75 24.5" stroke="#141414" stroke-width="2" stroke-linecap="round"/>
<path d="M29.25 28.625L29.25 24.5" stroke="#141414" stroke-width="2" stroke-linecap="round"/>
<path d="M14.125 17.625H38.875H38.75C36.8644 17.625 35.9216 17.625 35.3358 18.2108C34.75 18.7966 34.75 19.7394 34.75 21.625V31.5C34.75 33.3856 34.75 34.3284 34.1642 34.9142C33.5784 35.5 32.6356 35.5 30.75 35.5H22.25C20.3644 35.5 19.4216 35.5 18.8358 34.9142C18.25 34.3284 18.25 33.3856 18.25 31.5V21.625C18.25 19.7394 18.25 18.7966 17.6642 18.2108C17.0784 17.625 16.1356 17.625 14.25 17.625H14.125Z" stroke="#141414" stroke-width="2" stroke-linecap="round"/>
<path d="M23.8437 12.6346C24.0004 12.4884 24.3456 12.3592 24.8259 12.2671C25.3062 12.1749 25.8946 12.125 26.5 12.125C27.1054 12.125 27.6938 12.1749 28.1741 12.2671C28.6544 12.3592 28.9996 12.4884 29.1563 12.6346" stroke="#141414" stroke-width="2" stroke-linecap="round"/>
</svg>
