<svg width="50" height="49" viewBox="0 0 50 49" fill="none" xmlns="http://www.w3.org/2000/svg">
<path d="M0 20C0 8.9543 8.95431 0 20 0H50V49H20C8.9543 49 0 40.0457 0 29V20Z" fill="#EAEAEA"/>
<path fill-rule="evenodd" clip-rule="evenodd" d="M19.4608 14.0858C18.875 14.6716 18.875 15.6144 18.875 17.5V32.875C18.875 34.7606 18.875 35.7034 19.4608 36.2892C20.0466 36.875 20.9894 36.875 22.875 36.875H34.125C36.0106 36.875 36.9534 36.875 37.5392 36.2892C38.125 35.7034 38.125 34.7606 38.125 32.875V17.5C38.125 15.6144 38.125 14.6716 37.5392 14.0858C36.9534 13.5 36.0106 13.5 34.125 13.5H22.875C20.9894 13.5 20.0466 13.5 19.4608 14.0858ZM24.375 19.375C23.8227 19.375 23.375 19.8227 23.375 20.375C23.375 20.9273 23.8227 21.375 24.375 21.375H32.625C33.1773 21.375 33.625 20.9273 33.625 20.375C33.625 19.8227 33.1773 19.375 32.625 19.375H24.375ZM24.375 24.875C23.8227 24.875 23.375 25.3227 23.375 25.875C23.375 26.4273 23.8227 26.875 24.375 26.875H32.625C33.1773 26.875 33.625 26.4273 33.625 25.875C33.625 25.3227 33.1773 24.875 32.625 24.875H24.375ZM24.375 30.375C23.8227 30.375 23.375 30.8227 23.375 31.375C23.375 31.9273 23.8227 32.375 24.375 32.375H29.875C30.4273 32.375 30.875 31.9273 30.875 31.375C30.875 30.8227 30.4273 30.375 29.875 30.375H24.375Z" fill="#141414"/>
</svg>
