<svg width="50" height="49" viewBox="0 0 50 49" fill="none" xmlns="http://www.w3.org/2000/svg">
<path d="M0 20C0 8.9543 8.95431 0 20 0H50V49H20C8.9543 49 0 40.0457 0 29V20Z" fill="#EAEAEA"/>
<path d="M17.4126 28.1509L18.2706 28.6367L17.4126 28.1509C17.2757 28.3926 17.2106 28.6563 17.1592 28.8646C17.1545 28.8835 17.15 28.902 17.1455 28.9199L16.107 33.074C16.1042 33.0852 16.1012 33.0968 16.0982 33.1089C16.0614 33.2553 16.0104 33.4583 15.9928 33.6379C15.9726 33.8446 15.9659 34.2965 16.3347 34.6653C16.7035 35.0341 17.1554 35.0274 17.3621 35.0072C17.5417 34.9896 17.7446 34.9386 17.8911 34.9018C17.9031 34.8988 17.9148 34.8958 17.926 34.893L22.0801 33.8545C22.098 33.85 22.1165 33.8455 22.1354 33.8408C22.3437 33.7894 22.6074 33.7243 22.8492 33.5874C23.0909 33.4505 23.2824 33.2579 23.4336 33.1058C23.4474 33.0919 23.4608 33.0785 23.4738 33.0654L34.0429 22.4963C34.0557 22.4835 34.0686 22.4707 34.0814 22.4579C34.3813 22.1581 34.6728 21.8667 34.8808 21.594C35.1153 21.2866 35.3358 20.8887 35.3358 20.375C35.3358 19.8613 35.1153 19.4634 34.8808 19.156C34.6728 18.8833 34.3813 18.5919 34.0814 18.2921C34.0686 18.2793 34.0557 18.2665 34.0429 18.2537L32.7463 16.9571C32.7335 16.9443 32.7207 16.9314 32.7079 16.9186C32.408 16.6187 32.1167 16.3272 31.844 16.1192C31.5366 15.8847 31.1387 15.6642 30.625 15.6642C30.1113 15.6642 29.7134 15.8847 29.406 16.1192C29.1333 16.3272 28.8419 16.6187 28.5421 16.9186C28.5293 16.9314 28.5165 16.9443 28.5037 16.9571L17.9346 27.5262C17.9215 27.5393 17.9081 27.5527 17.8942 27.5664C17.7421 27.7176 17.5494 27.9091 17.4126 28.1509Z" stroke="#141414" stroke-width="2"/>
<path d="M27.1875 18.3125L31.3125 15.5625L35.4375 19.6875L32.6875 23.8125L27.1875 18.3125Z" fill="#141414"/>
<rect x="14.95" y="36.875" width="21.45" height="1.65" rx="0.825" fill="#141414"/>
</svg>
