<svg width="33" height="33" viewBox="0 0 33 33" fill="none" xmlns="http://www.w3.org/2000/svg">
<path d="M8.2015 4.31241C7.26894 4.56229 6.41859 5.05324 5.73591 5.73591C5.05324 6.41859 4.56229 7.26894 4.31241 8.2015" stroke="white" stroke-width="2" stroke-linecap="round"/>
<path d="M24.7985 4.31241C25.7311 4.56229 26.5814 5.05324 27.2641 5.73591C27.9468 6.41859 28.4377 7.26894 28.6876 8.2015" stroke="white" stroke-width="2" stroke-linecap="round"/>
<path fill-rule="evenodd" clip-rule="evenodd" d="M16.5 27.5C22.5751 27.5 27.5 22.5751 27.5 16.5C27.5 10.4249 22.5751 5.5 16.5 5.5C10.4249 5.5 5.5 10.4249 5.5 16.5C5.5 22.5751 10.4249 27.5 16.5 27.5ZM17.5 11C17.5 10.4477 17.0523 10 16.5 10C15.9477 10 15.5 10.4477 15.5 11V16.25C15.5 16.9404 16.0596 17.5 16.75 17.5H20.625C21.1773 17.5 21.625 17.0523 21.625 16.5C21.625 15.9477 21.1773 15.5 20.625 15.5H17.5V11Z" fill="white"/>
</svg>
