<svg width="28" height="28" viewBox="0 0 28 28" fill="none" xmlns="http://www.w3.org/2000/svg">
<path d="M6.68464 16.4012L6.68465 16.4012L15.3787 7.70711C15.3916 7.69427 15.4044 7.68145 15.4172 7.66863C15.717 7.36871 16.0084 7.07723 16.281 6.86919C16.5884 6.63466 16.9864 6.41421 17.5 6.41421C18.0137 6.41421 18.4117 6.63466 18.7191 6.86919C18.9917 7.07723 19.2831 7.3687 19.5829 7.66861C19.5957 7.68143 19.6085 7.69426 19.6214 7.70711L20.2929 8.37868C20.3058 8.39152 20.3186 8.40434 20.3314 8.41715C20.6313 8.71695 20.9228 9.00831 21.1308 9.28098C21.3654 9.58838 21.5858 9.98634 21.5858 10.5C21.5858 11.0137 21.3654 11.4116 21.1308 11.719C20.9228 11.9917 20.6313 12.2831 20.3314 12.5829C20.3186 12.5957 20.3058 12.6085 20.2929 12.6213L11.5989 21.3154C11.5858 21.3285 11.5724 21.3419 11.5587 21.3558C11.4074 21.5079 11.216 21.7005 10.9742 21.8374L6.68464 16.4012ZM6.68464 16.4012C6.67157 16.4143 6.65809 16.4277 6.64427 16.4414C6.4921 16.5926 6.29949 16.7841 6.1626 17.0259C6.02572 17.2676 5.96065 17.5313 5.90925 17.7396C5.90458 17.7585 5.90003 17.777 5.89554 17.7949L5.06534 21.1157C5.06254 21.1269 5.05962 21.1385 5.0566 21.1505C5.01978 21.297 4.96878 21.4999 4.95121 21.6795C4.93099 21.8862 4.9243 22.3382 5.29308 22.707C5.66186 23.0757 6.11382 23.0691 6.32051 23.0488C6.50012 23.0313 6.70303 22.9803 6.84952 22.9434C6.86153 22.9404 6.87316 22.9375 6.88436 22.9347L10.2051 22.1045C10.2231 22.1 10.2415 22.0955 10.2605 22.0908C10.4688 22.0394 10.7324 21.9743 10.9742 21.8374L6.68464 16.4012Z" stroke="white" stroke-width="2"/>
<path d="M14.5834 8.75002L18.0834 6.41669L21.5834 9.91669L19.25 13.4167L14.5834 8.75002Z" fill="white"/>
</svg>
