<svg width="33" height="33" viewBox="0 0 33 33" fill="none" xmlns="http://www.w3.org/2000/svg">
<path d="M7.41256 20.1509L8.2706 20.6367L7.41256 20.1509C7.27568 20.3926 7.21061 20.6563 7.15921 20.8646C7.15454 20.8835 7.14999 20.902 7.1455 20.9199L6.10697 25.074C6.10417 25.0852 6.10125 25.0968 6.09823 25.1089C6.06141 25.2553 6.01041 25.4583 5.99283 25.6379C5.97262 25.8446 5.96593 26.2965 6.33471 26.6653C6.70348 27.0341 7.15544 27.0274 7.36214 27.0072C7.54173 26.9896 7.74462 26.9386 7.8911 26.9018C7.90313 26.8988 7.91477 26.8958 7.92599 26.893L12.0801 25.8545C12.098 25.85 12.1165 25.8455 12.1354 25.8408C12.3437 25.7894 12.6074 25.7243 12.8492 25.5874C13.0909 25.4505 13.2824 25.2579 13.4336 25.1058C13.4474 25.0919 13.4608 25.0785 13.4738 25.0654L24.0429 14.4963C24.0557 14.4835 24.0686 14.4707 24.0814 14.4579C24.3813 14.1581 24.6728 13.8667 24.8808 13.594C25.1153 13.2866 25.3358 12.8887 25.3358 12.375C25.3358 11.8613 25.1153 11.4634 24.8808 11.156C24.6728 10.8833 24.3813 10.5919 24.0814 10.2921C24.0686 10.2793 24.0557 10.2665 24.0429 10.2537L22.7463 8.95711C22.7335 8.94427 22.7207 8.93144 22.7079 8.91863C22.408 8.61871 22.1167 8.32723 21.844 8.11919C21.5366 7.88466 21.1387 7.66421 20.625 7.66421C20.1113 7.66421 19.7134 7.88466 19.406 8.11919C19.1333 8.32723 18.8419 8.61871 18.5421 8.91863C18.5293 8.93144 18.5165 8.94427 18.5037 8.95711L7.93461 19.5262C7.92153 19.5393 7.90805 19.5527 7.89424 19.5664C7.74207 19.7176 7.54945 19.9091 7.41256 20.1509Z" stroke="#141414" stroke-width="2"/>
<path d="M17.1875 10.3125L21.3125 7.5625L25.4375 11.6875L22.6875 15.8125L17.1875 10.3125Z" fill="#141414"/>
<rect x="4.94995" y="28.875" width="21.45" height="1.65" rx="0.825" fill="#141414"/>
</svg>
