<svg width="68" height="68" viewBox="0 0 68 68" fill="none" xmlns="http://www.w3.org/2000/svg">
<rect width="68" height="68" rx="12" fill="#1C1C1C"/>
<path d="M20.1596 37.4984L33.3154 49.8568C33.6398 50.1616 33.802 50.314 34 50.314C34.1981 50.314 34.3603 50.1616 34.6847 49.8568L47.8405 37.4984L47.8406 37.4982C48.1758 37.1833 48.3435 37.0258 48.4825 36.8832C51.5107 33.775 51.8899 28.9485 49.3841 25.4056C49.2691 25.243 49.1281 25.0613 48.8461 24.6979L48.846 24.6978L48.2789 23.9668C44.6706 19.316 37.4277 20.096 34.8923 25.4083C34.5341 26.1587 33.466 26.1587 33.1078 25.4083C30.5724 20.096 23.3295 19.316 19.7212 23.9668L19.1541 24.6978C18.872 25.0613 18.731 25.243 18.616 25.4056C16.1102 28.9485 16.4893 33.775 19.5176 36.8832C19.6566 37.0259 19.8243 37.1833 20.1595 37.4983L20.1596 37.4984Z" fill="white" stroke="white" stroke-width="2"/>
</svg>
