<svg width="50" height="49" viewBox="0 0 50 49" fill="none" xmlns="http://www.w3.org/2000/svg">
<path d="M0 20C0 8.9543 8.95431 0 20 0H50V49H20C8.9543 49 0 40.0457 0 29V20Z" fill="#EAEAEA"/>
<path fill-rule="evenodd" clip-rule="evenodd" d="M17.2524 21.9235C16.875 22.744 16.875 23.6775 16.875 25.5444V31.3749C16.875 33.9676 16.875 35.264 17.6805 36.0695C18.4529 36.8419 19.6768 36.8736 22.0625 36.8749V30C22.0625 28.6883 23.1258 27.625 24.4375 27.625H28.5625C29.8742 27.625 30.9375 28.6883 30.9375 30V36.8749C33.3232 36.8736 34.5471 36.8419 35.3195 36.0695C36.125 35.264 36.125 33.9676 36.125 31.3749V25.5444C36.125 23.6775 36.125 22.744 35.7476 21.9235C35.3702 21.103 34.6615 20.4955 33.244 19.2805L31.869 18.1019C29.307 15.9059 28.0259 14.8079 26.5 14.8079C24.9741 14.8079 23.693 15.9059 21.131 18.1019L19.756 19.2805C18.3385 20.4955 17.6298 21.103 17.2524 21.9235ZM28.9375 36.8749V30C28.9375 29.7929 28.7696 29.625 28.5625 29.625H24.4375C24.2304 29.625 24.0625 29.7929 24.0625 30V36.8749H28.9375Z" fill="#141414"/>
</svg>
