<svg width="66" height="66" viewBox="0 0 66 66" fill="none" xmlns="http://www.w3.org/2000/svg">
<g clip-path="url(#clip0_107_4639)">
<path d="M0 0H66V66H0V0Z" fill="#1C1C1C"/>
<path d="M43.8491 7.25208C44.0097 7.25575 44.1342 7.28823 44.2856 7.33677C44.639 7.6977 44.9066 8.17285 45.2366 8.56196C46.477 10.0248 48.0131 11.257 49.8543 11.8669C50.7142 12.1518 51.7165 12.1382 52.4683 12.6161C53.6432 13.363 53.9408 13.9944 54.7776 14.9847C54.987 15.2342 55.2098 15.471 55.4461 15.6952C55.6824 15.9194 55.9305 16.1295 56.1906 16.3256C56.9489 16.8922 57.8141 17.2588 58.7069 17.5559C59.4159 17.7918 60.0837 17.9855 60.7299 18.374C61.236 18.6784 61.4903 19.0725 61.6259 19.641C61.8684 20.6579 61.5451 21.4474 61.0169 22.2992C61.7253 23.0355 62.4323 23.7902 63.1587 24.5076C63.5279 24.8722 63.9759 25.191 64.3013 25.5934C64.4328 25.756 64.4776 25.9051 64.4506 26.1136C64.4424 26.1756 64.4305 26.2598 64.3964 26.3134C64.1893 26.639 61.9771 28.1876 61.5101 28.5439L22.1617 58.2581C21.9045 58.456 21.5991 58.7446 21.2881 58.8413C21.1402 58.8873 20.9783 58.8828 20.8389 58.8112C20.5045 58.6394 20.0011 57.9366 19.7296 57.6204C17.6526 55.202 16.0141 53.2676 13.1006 51.8038C12.6266 51.5655 12.1435 51.3475 11.6512 51.1498C11.2514 50.9857 10.5994 50.8097 10.2684 50.5525C9.96388 50.3159 9.50948 49.4843 9.24774 49.1274C8.94786 48.723 8.63002 48.3333 8.29422 47.9582C7.01173 46.5293 5.53047 45.4948 3.7707 44.7327C3.22659 44.497 2.36911 44.2189 1.8876 43.9454C1.75196 43.8683 1.66044 43.7299 1.62201 43.5806C1.58393 43.4327 1.5986 43.279 1.65253 43.1371C1.80441 42.7376 2.08745 42.3351 2.30094 41.9612C2.8735 40.9585 3.47576 39.974 4.03617 38.9642C3.85215 38.4382 3.79411 37.9439 3.97566 37.4066C4.13126 36.946 4.41781 36.6101 4.79367 36.3108C5.50528 35.7444 6.26302 35.2265 6.98962 34.6778L13.7507 29.6244C20.0022 24.9158 26.2794 20.2416 32.5822 15.6019L39.9147 10.1452L42.4391 8.24046C42.8848 7.90731 43.3497 7.49816 43.8491 7.25208Z" fill="white"/>
<path d="M21.1002 50.7977L21.4398 50.9376C21.0089 51.8995 21.0188 54.1474 20.9808 55.2766L20.9611 55.3441C20.8993 55.3101 20.8892 55.2952 20.8525 55.2373L20.7696 55.1065C20.7008 54.0588 20.8208 51.7785 21.1002 50.7977Z" fill="#1C1C1C"/>
<path d="M51.6434 13.4678C51.7462 13.5016 51.8337 13.5439 51.8894 13.6368C51.71 13.8195 51.456 13.9714 51.2499 14.1255L50.1044 14.9899C48.5695 16.1358 47.041 17.29 45.5187 18.4526L45.2313 18.2961C47.4021 16.7353 49.4773 15.0362 51.6434 13.4678Z" fill="#1C1C1C"/>
<path d="M19.1758 37.8017L19.3646 37.986C17.2561 39.5989 15.1359 41.1965 13.0043 42.7788C12.9328 42.8236 12.9716 42.8115 12.888 42.8153C12.8659 42.6963 12.9446 42.5342 12.9825 42.4199C13.2364 42.1647 13.5602 41.9526 13.8505 41.74L15.2186 40.739C16.5353 39.7622 17.8269 38.7323 19.1758 37.8017Z" fill="#1C1C1C"/>
<path d="M36.1917 25.0426C36.2747 25.0951 36.3524 25.1593 36.4308 25.2187C36.0626 25.5362 35.6525 25.8238 35.2637 26.1165C34.5409 26.662 33.8145 27.2026 33.0843 27.7382C31.5892 28.8497 30.1005 29.9697 28.6183 31.0983L28.3802 30.9233C29.3154 30.1403 30.3303 29.4273 31.3086 28.6974C32.9467 27.4931 34.5744 26.2748 36.1917 25.0426Z" fill="#1C1C1C"/>
<path d="M44.679 18.7182C44.7534 18.7393 44.8527 18.8183 44.9208 18.8605C44.5456 19.1894 44.1289 19.4878 43.733 19.7918C42.8016 20.5019 41.8624 21.2015 40.9153 21.8907C39.615 22.8517 38.3501 23.8749 37.0171 24.7898C37.0076 24.7869 36.9975 24.7853 36.9885 24.7811C36.9217 24.7498 36.843 24.6927 36.8161 24.6232C37.0306 24.3954 37.3284 24.2099 37.5801 24.0229L39.0309 22.9435L42.4364 20.4038C43.1827 19.8433 43.9142 19.2527 44.679 18.7182Z" fill="#1C1C1C"/>
<path d="M27.7784 31.356L28.015 31.5294C27.6666 31.8474 27.2643 32.1187 26.8851 32.3981L24.9862 33.8045C23.3197 35.0553 21.6889 36.3766 19.9681 37.5519C19.8846 37.5328 19.8261 37.4826 19.7752 37.417C19.8034 37.3295 19.8933 37.2718 19.9644 37.2137C20.9123 36.4391 21.9344 35.7375 22.9165 35.0064L27.7784 31.356Z" fill="#1C1C1C"/>
<path d="M12.8222 43.5305C13.5088 44.0376 13.9292 45.0496 14.6255 45.6112C15.6291 46.4206 17.1201 46.9387 18.3103 47.4389L21.3894 48.7467C21.5771 49.2348 21.7446 49.7721 21.8129 50.2902C21.6899 50.2444 21.572 50.1894 21.4532 50.1342C20.8822 49.8295 20.3309 49.4772 19.7694 49.1544C18.6082 48.4869 17.4186 47.8312 16.2112 47.251C15.6555 46.984 13.8576 46.3407 13.5266 46.0412C13.1414 45.6928 12.5703 44.4777 12.2963 43.9705C12.4823 43.8413 12.6513 43.6793 12.8222 43.5305Z" fill="#1C1C1C"/>
<path d="M5.94688 39.9405C6.52963 40.2412 7.10088 40.6956 7.64305 41.0702C8.32349 41.5403 9.03157 41.9907 9.69041 42.4897C9.89357 42.6435 10.095 42.813 10.227 43.0339C10.7585 43.9236 11.2166 46.6662 11.3696 47.7736C11.211 47.5207 11.0316 47.2815 10.8562 47.0402C9.29189 44.9948 7.31144 43.2441 4.83276 42.4215C5.11943 41.5753 5.5962 40.7652 5.94688 39.9405Z" fill="#1C1C1C"/>
<path d="M5.07706 37.6314C5.45719 37.8342 5.82404 38.0777 6.19067 38.304C6.9609 38.7774 7.72586 39.2592 8.48555 39.7494C9.77996 40.5694 11.0998 41.3473 12.3685 42.2073C12.272 42.4979 12.1785 42.9209 11.9897 43.1616C11.8805 43.3009 11.7221 43.3979 11.6217 43.5454C11.5422 43.6623 11.4971 43.8389 11.5337 43.978C11.5945 44.2099 12.5123 45.84 12.7081 46.1355C12.8154 46.2973 12.9555 46.491 13.1099 46.6091C13.589 46.9756 14.24 47.1651 14.796 47.3912C15.2154 47.5612 15.6297 47.7429 16.0389 47.9362C17.5558 48.6545 19.082 49.4998 20.5 50.3973C20.1859 51.2323 20.1665 52.2808 20.1133 53.1658C20.0932 53.5813 20.0801 53.9971 20.0741 54.4131C19.55 53.7394 18.941 53.1056 18.3357 52.5049C16.669 50.8509 14.5836 49.1442 12.2417 48.5895C11.9473 47.2315 11.5147 43.3893 10.6256 42.4093C10.2384 41.9824 9.69469 41.6495 9.22308 41.3207L7.57669 40.1799C7.05793 39.8272 6.53705 39.4777 6.01404 39.1314C5.68133 38.9093 5.32541 38.6931 5.02306 38.431C5.01286 38.4221 5.00285 38.413 4.99275 38.404C4.98268 38.1285 4.99783 37.8969 5.07706 37.6314Z" fill="#1C1C1C"/>
<path d="M62.6548 25.6162C62.7881 25.6516 62.9541 25.8835 63.0464 25.9874C62.5138 26.4606 61.9166 26.8565 61.3482 27.2842L57.8629 29.8905L47.9904 37.3421C41.9225 41.9736 35.8188 46.5575 29.6793 51.0937C27.8276 52.5109 25.9668 53.9161 24.0968 55.3092C23.1355 56.0378 22.1986 56.7994 21.2117 57.4936C17.8308 53.5509 16.0462 51.5147 11.0755 49.6191C9.32966 47.2097 7.80747 45.4124 5.09169 44.0612C4.39926 43.7166 3.67282 43.4294 2.9577 43.1349C3.43064 42.3036 3.91761 41.4807 4.41861 40.666C4.65879 40.2552 4.8941 39.8404 5.14393 39.4354C5.22986 39.4257 5.25977 39.4759 5.32547 39.5272C5.34751 39.6191 5.31558 39.6798 5.28035 39.7678C4.86365 40.807 4.28073 41.7873 3.94477 42.8613C6.77416 43.8372 8.20122 44.9328 10.0921 47.2552C10.4392 47.6815 11.0754 48.6599 11.4281 48.9666C11.7004 49.2034 12.801 49.4876 13.2173 49.6712C13.9725 50.0041 14.688 50.3876 15.3649 50.861C16.7307 51.8162 17.9657 53.0026 19.0551 54.2607C19.7502 55.0633 20.4135 55.9479 21.1818 56.6789L21.2151 56.7104C21.2232 56.7069 21.2314 56.7037 21.2394 56.7001C21.2527 56.6942 21.2659 56.6879 21.2793 56.6819C21.6751 56.5038 22.0354 56.195 22.3822 55.9356C22.9937 55.4784 23.5933 55.0058 24.2016 54.5443L30.2724 49.9664L50.7365 34.5364L58.6051 28.5989C59.95 27.593 61.2472 26.5364 62.6548 25.6162Z" fill="#1C1C1C"/>
<path d="M43.8219 8.72278C43.9504 8.7978 44.6424 9.72986 44.8558 9.95183C46.0514 11.1948 47.5074 12.3096 49.1584 12.8621C49.6731 13.0344 50.213 13.1055 50.7268 13.2734L50.7685 13.2872L44.8271 17.7478C44.7709 17.7916 44.7397 17.8135 44.6687 17.8243C44.3789 17.7236 43.954 17.3354 43.6848 17.1467L39.7986 14.3814C39.1997 13.9536 38.5642 13.5559 37.9916 13.0944C38.8134 12.4999 39.613 11.8718 40.4222 11.2602C41.5499 10.407 42.6831 9.56123 43.8219 8.72278Z" fill="#1C1C1C"/>
<path d="M11.8047 32.5769C12.0222 32.6761 12.2458 32.8763 12.4424 33.0176L13.73 33.9439L18.5575 37.4113C16.6392 38.7943 14.7758 40.2532 12.8626 41.6432L12.586 41.4666L7.79824 38.4866C7.08674 38.0391 6.34223 37.6113 5.66071 37.1204C6.14925 36.6521 6.99921 36.1373 7.57239 35.7106C8.97947 34.6632 10.3683 33.5844 11.8047 32.5769Z" fill="#1C1C1C"/>
<path d="M52.5137 14.0406C52.8384 14.1346 53.703 15.5034 53.9836 15.8386C54.2244 16.1263 54.496 16.3987 54.7748 16.6493C55.8087 17.5788 57.0582 18.2239 58.3691 18.667C58.8767 18.8386 59.3949 18.9755 59.9005 19.1539C59.6844 19.3521 59.4176 19.5185 59.1809 19.6933L57.51 20.9179L55.1627 22.6758C54.5801 23.1167 54.0021 23.5762 53.3928 23.9792L53.3085 24.0245C53.2768 24.0225 53.2556 24.0235 53.2243 24.0085C53.066 23.9325 52.8882 23.7644 52.7414 23.6585L51.4128 22.7039L46.0816 18.8534C48.2399 17.2682 50.3839 15.6639 52.5137 14.0406Z" fill="#1C1C1C"/>
<path d="M60.4249 19.6866L60.4742 19.7328C60.5971 20.0571 60.5933 20.4517 60.515 20.7882C60.4477 21.0774 60.325 21.338 60.09 21.5269C59.4466 22.0444 58.7581 22.5229 58.0929 23.0128C56.9624 23.8474 55.8367 24.6884 54.7158 25.5358L38.1167 38.0576L27.6332 45.9529C26.5085 46.8044 25.3773 47.6472 24.2395 48.481C23.6735 48.904 23.108 49.3921 22.5113 49.7681L22.4508 49.7461L22.3975 49.613C22.2762 49.2369 22.1497 48.8626 22.0178 48.4901C22.5271 48.0194 23.1248 47.6093 23.6764 47.1873C24.7093 46.3964 25.7462 45.6109 26.7873 44.8307L35.7295 38.129L50.0349 27.3995C53.4782 24.809 56.8935 22.1563 60.4249 19.6866Z" fill="#1C1C1C"/>
<path d="M19.9568 38.4084C20.2181 38.52 20.4976 38.7758 20.7339 38.9457L22.4522 40.1848C23.3276 40.8225 24.2068 41.4553 25.0895 42.0831C25.8038 42.59 26.5467 43.0888 27.2201 43.6493L21.4752 47.9891L21.0671 47.7927C19.8941 47.2033 18.6296 46.7359 17.4204 46.222C16.6509 45.8951 15.5456 45.4852 14.9199 44.9342C14.6546 44.7006 14.4606 44.3758 14.2469 44.0954C14.0146 43.7898 13.7718 43.4928 13.5184 43.2044C15.6918 41.6457 17.7832 39.9662 19.9568 38.4084Z" fill="#1C1C1C"/>
<path d="M28.8299 19.8745C28.9166 19.8859 28.9603 19.9145 29.0325 19.962C30.0549 20.6349 31.044 21.3869 32.0423 22.0963C33.2269 22.9381 34.4381 23.7577 35.599 24.6305C34.2391 25.7371 32.7851 26.7516 31.3789 27.7996C30.1906 28.6853 29.0243 29.628 27.7986 30.4607C27.4739 30.3465 25.5569 28.9012 25.0819 28.5631L22.7079 26.8815C22.146 26.4861 21.5674 26.0977 21.0313 25.6678C21.7305 25.1122 22.4737 24.5958 23.1903 24.0618L28.8299 19.8745Z" fill="#1C1C1C"/>
<path d="M37.3873 13.5339C37.8738 13.7818 38.572 14.3667 39.0454 14.6978L44.0818 18.2912C41.5006 20.3069 38.8502 22.2589 36.2068 24.1913C35.3881 23.7063 34.6379 23.1035 33.8625 22.5532L29.4353 19.4172C30.2942 18.8159 31.1278 18.1722 31.9715 17.5494L37.3873 13.5339Z" fill="#1C1C1C"/>
<path d="M20.4062 26.1289C20.6995 26.1993 26.403 30.3987 27.1812 30.9193C26.2274 31.7174 25.1916 32.4374 24.195 33.1811L19.1579 36.9719C18.8178 36.8414 17.1624 35.5668 16.714 35.2426L12.3663 32.15C13.3173 31.4844 14.2283 30.7334 15.1564 30.0335L20.4062 26.1289Z" fill="#1C1C1C"/>
<path d="M37.0138 25.6765C37.0949 25.6793 37.1535 25.7305 37.2188 25.7742C37.9496 26.2628 38.6529 26.805 39.3719 27.313L44.3038 30.8018C42.7318 32.0355 41.1132 33.2133 39.5106 34.4069C38.5015 35.1584 37.5148 35.9497 36.4838 36.6707C35.4341 36.0024 34.4241 35.2384 33.4133 34.5121L29.1904 31.4922C30.0807 30.8672 30.9374 30.1846 31.81 29.5345L37.0138 25.6765Z" fill="#1C1C1C"/>
<path d="M45.4876 19.3265C45.6782 19.3612 52.0035 23.9594 52.709 24.4925L44.8805 30.3692C43.6463 29.5382 42.44 28.658 41.2292 27.7935C40.0146 26.9397 38.8065 26.0765 37.6051 25.2042C38.3754 24.5436 39.2633 23.9815 40.0778 23.3737L45.4876 19.3265Z" fill="#1C1C1C"/>
<path d="M28.6044 31.9455C28.9582 32.108 29.7846 32.7871 30.1785 33.0628C31.3654 33.8894 32.5453 34.7259 33.7183 35.5721C34.4426 36.0917 35.157 36.631 35.9002 37.1231C34.265 38.3769 32.6179 39.6149 30.9591 40.8372C29.9136 41.6193 28.8875 42.4369 27.8197 43.1877C27.5876 43.0659 27.3665 42.8802 27.1537 42.7255C26.7503 42.4299 26.3453 42.1365 25.9387 41.8454C24.8979 41.1054 23.861 40.3599 22.8279 39.6091C22.0678 39.0615 21.3018 38.528 20.5576 37.9583C22.0032 36.9338 23.4023 35.8399 24.8215 34.7792C26.0822 33.8368 27.3724 32.9249 28.6044 31.9455Z" fill="#1C1C1C"/>
<path d="M59.8824 22.7524C60.0995 22.9163 60.2998 23.1663 60.4902 23.3638C61.0521 23.9465 61.5784 24.5582 62.1745 25.1071C61.5936 25.4306 61.0668 25.858 60.5352 26.2554L58.3414 27.9003L50.8107 33.5836L22.9937 54.6027L21.6838 55.6314C21.6634 54.5256 21.7192 52.8865 21.8976 51.8102C21.9559 51.4584 22.056 51.2644 22.3274 51.0276C22.9266 50.5047 23.6077 50.0448 24.247 49.5712L27.0469 47.4724L36.1872 40.6157L52.6782 28.1852C55.0808 26.3787 57.4493 24.517 59.8824 22.7524Z" fill="#1C1C1C"/>
</g>
<defs>
<clipPath id="clip0_107_4639">
<rect width="66" height="66" rx="10" fill="white"/>
</clipPath>
</defs>
</svg>
