<svg width="32" height="32" viewBox="0 0 32 32" fill="none" xmlns="http://www.w3.org/2000/svg">
<rect width="32" height="32" rx="12" fill="#1C1C1C"/>
<path d="M16.1599 8.9316C17.2746 8.90412 18.4069 8.96451 19.5166 9.07193C21.5883 9.27245 24.0404 9.66625 25.893 10.6599C26.3077 10.8823 26.7261 11.139 27.0265 11.5081C27.2451 11.7767 27.3884 12.1046 27.3505 12.4562C27.3127 12.8065 27.2214 13.1599 27.1403 13.5025C26.6754 15.4672 25.7068 17.2513 24.2034 18.6147C23.9164 18.876 23.6138 19.1178 23.2955 19.3399C23.1246 19.4572 22.9134 19.5553 22.7611 19.6944C22.5697 19.8691 22.351 20.2152 22.1693 20.4313C21.8492 20.8117 21.4744 21.1243 21.0899 21.4364L23.446 26.4257C23.8104 27.1865 24.167 27.9509 24.5159 28.7189C24.6338 28.9794 24.8003 29.2711 24.8941 29.5348C24.9463 29.6818 24.967 29.8343 24.9292 29.9881C24.9265 29.999 24.9235 30.0099 24.9202 30.0207C24.9169 30.0316 24.9134 30.0424 24.9095 30.0531C24.9057 30.0636 24.9016 30.0741 24.8972 30.0846C24.8928 30.0949 24.8882 30.1053 24.8833 30.1156C24.8784 30.1257 24.8733 30.1357 24.8679 30.1456C24.8625 30.1556 24.8568 30.1654 24.8509 30.1751C24.845 30.1847 24.8389 30.1941 24.8325 30.2035C24.8261 30.2129 24.8195 30.222 24.8126 30.231C24.8058 30.24 24.7987 30.2489 24.7914 30.2576C24.7841 30.2662 24.7766 30.2746 24.7688 30.2829C24.7611 30.2911 24.7532 30.2991 24.745 30.3069C24.7369 30.3147 24.7286 30.3224 24.72 30.3298C24.7115 30.3373 24.7028 30.3445 24.6939 30.3516C24.685 30.3585 24.6759 30.3652 24.6667 30.3717C24.6574 30.3783 24.648 30.3846 24.6385 30.3906C24.6289 30.3967 24.6192 30.4025 24.6094 30.408C24.5996 30.4138 24.5896 30.4192 24.5795 30.4244C24.5695 30.4295 24.5592 30.4344 24.5489 30.439C24.5386 30.4436 24.5282 30.448 24.5176 30.4522C24.5071 30.4562 24.4964 30.46 24.4857 30.4636C24.4749 30.467 24.4641 30.4703 24.4532 30.4734C24.4423 30.4764 24.4313 30.4792 24.4203 30.4817C24.4092 30.4841 24.3981 30.4863 24.387 30.4882C24.3758 30.4902 24.3646 30.4918 24.3534 30.4931C24.3421 30.4945 24.3309 30.4955 24.3196 30.4963C24.3083 30.497 24.297 30.4975 24.2857 30.4977C24.2744 30.4979 24.263 30.4978 24.2517 30.4974C24.2404 30.4968 24.2291 30.4961 24.2178 30.4951C24.2066 30.4942 24.1953 30.4929 24.1841 30.4914C24.1729 30.4899 24.1617 30.4882 24.1506 30.4862C24.1395 30.4841 24.1284 30.4818 24.1174 30.4791C24.1064 30.4764 24.0955 30.4734 24.0846 30.4702C23.9591 30.4324 23.8362 30.3568 23.7584 30.2502C23.6385 30.0861 23.5576 29.8798 23.4708 29.6961L23.0089 28.6961L21.8012 26.1195C21.5649 25.6135 21.3481 25.0834 21.0803 24.5939C20.8445 24.6907 20.6162 24.7975 20.3747 24.8812C19.3608 25.2325 18.2849 25.368 17.2183 25.4263L17.2186 27.0337C17.2193 27.2987 17.253 27.751 17.1957 27.9882C17.1706 28.092 17.0946 28.2046 17.0219 28.2802C16.8965 28.4104 16.7232 28.4932 16.5411 28.4935C16.5297 28.4934 16.5184 28.4931 16.5071 28.4925C16.4958 28.4919 16.4845 28.491 16.4732 28.4898C16.4619 28.4886 16.4507 28.4872 16.4395 28.4854C16.4283 28.4837 16.4172 28.4817 16.4061 28.4793C16.395 28.4771 16.3839 28.4745 16.373 28.4716C16.362 28.4687 16.3511 28.4656 16.3403 28.4622C16.3295 28.4588 16.3188 28.4551 16.3082 28.4512C16.2976 28.4472 16.287 28.443 16.2766 28.4385C16.2662 28.434 16.2559 28.4293 16.2458 28.4243C16.2356 28.4193 16.2256 28.414 16.2157 28.4085C16.2058 28.403 16.196 28.3973 16.1864 28.3913C16.1768 28.3853 16.1673 28.379 16.158 28.3726C16.1487 28.3661 16.1396 28.3594 16.1306 28.3524C16.1217 28.3455 16.1129 28.3383 16.1043 28.331C16.0957 28.3236 16.0873 28.316 16.0791 28.3082C16.0708 28.3004 16.0628 28.2924 16.055 28.2842C15.8575 28.0806 15.8746 27.8302 15.8767 27.5694L15.875 25.4233C14.6175 25.3428 13.1289 25.2418 12.0216 24.5713C11.4508 25.8501 10.8326 27.1113 10.2352 28.378C10.0592 28.7493 9.88518 29.1216 9.71321 29.4948C9.60702 29.7267 9.51152 29.9798 9.37849 30.1969C9.29315 30.3361 9.19255 30.4427 9.03921 30.5092C8.87412 30.5808 8.68477 30.5885 8.51808 30.5178C8.33589 30.4404 8.19547 30.2797 8.12727 30.0955C8.07487 29.954 8.05992 29.7939 8.10601 29.6489C8.19493 29.3693 8.36397 29.0865 8.49158 28.8207L9.25353 27.2181L10.8827 23.723C11.2374 22.9631 11.6034 22.2077 11.9504 21.4444C11.5814 21.146 11.2294 20.8189 10.9276 20.4517C10.7919 20.2867 10.681 20.0725 10.5281 19.9269C10.4157 19.8198 10.2811 19.7328 10.1553 19.6423C9.94882 19.4937 9.74209 19.3462 9.5436 19.1869C8.78669 18.5794 8.16611 17.8827 7.5891 17.1058C7.37142 17.0566 7.14457 17.0337 6.92457 16.9928C6.71198 16.9547 6.5016 16.907 6.29344 16.8495C6.08527 16.792 5.88018 16.725 5.67819 16.6486C5.03125 16.4066 4.32359 16.0216 4.02824 15.3608C4.01952 15.3414 4.01129 15.3218 4.00355 15.3021C3.99581 15.2823 3.98857 15.2623 3.98184 15.2422C3.97511 15.222 3.96889 15.2017 3.96318 15.1813C3.95747 15.1608 3.95228 15.1402 3.94761 15.1195C3.94294 15.0988 3.9388 15.078 3.93518 15.057C3.93156 15.0361 3.92847 15.0151 3.9259 14.994C3.92334 14.9729 3.92132 14.9518 3.91982 14.9306C3.91833 14.9094 3.91737 14.8882 3.91694 14.867C3.91652 14.8458 3.91662 14.8245 3.91727 14.8033C3.91792 14.7821 3.9191 14.7609 3.92081 14.7397C3.92253 14.7186 3.92477 14.6974 3.92755 14.6764C3.93033 14.6553 3.93364 14.6343 3.93747 14.6135C3.94131 14.5926 3.94567 14.5718 3.95056 14.5511C3.95544 14.5305 3.96084 14.5099 3.96676 14.4895C3.97268 14.4691 3.97911 14.4489 3.98605 14.4288C3.99299 14.4087 4.00044 14.3889 4.00838 14.3692C4.29586 13.642 5.14028 13.1948 5.82325 12.8979C5.79859 12.7338 5.77464 12.5703 5.77163 12.404C5.7635 11.9544 5.9517 11.5937 6.25973 11.2753C6.6824 10.8385 7.22108 10.5671 7.76994 10.326C10.2041 9.2569 13.5125 8.96852 16.1599 8.9316Z" fill="#1C1C1C"/>
<path d="M13.3834 9.97721C13.4496 9.96876 13.5184 9.96836 13.5852 9.96466C13.5012 10.0066 13.4282 10.0645 13.3506 10.1168C13.3104 10.1439 13.293 10.1638 13.2444 10.1544L12.9944 10.0185C13.1237 10.0024 13.2538 9.99093 13.3834 9.97721Z" fill="white"/>
<path d="M12.3844 10.1046C12.3889 10.1034 12.3933 10.1017 12.3979 10.101C12.4995 10.085 12.8742 10.3349 12.9716 10.4023C12.8192 10.5461 12.6671 10.6895 12.5213 10.84C12.4024 10.7858 12.2867 10.7227 12.1702 10.6633C11.9084 10.5177 11.6252 10.4078 11.3675 10.2568C11.704 10.1924 12.0449 10.1493 12.3844 10.1046Z" fill="white"/>
<path d="M17.1073 14.2155C17.1252 14.215 17.9889 14.8018 18.088 14.8658C17.698 14.8663 17.3087 14.8972 16.9186 14.8981L16.7598 14.8968C16.488 14.6867 16.1964 14.5033 15.9248 14.2933C16.3264 14.3 16.7097 14.2719 17.1073 14.2155Z" fill="white"/>
<path d="M19.9872 13.7684C20.0129 13.7638 20.034 13.7674 20.0578 13.7777C20.2164 13.8462 20.3713 13.9491 20.5221 14.0348L21.3559 14.5046C21.0989 14.5523 20.8402 14.5885 20.5799 14.6133C20.5238 14.6198 20.4513 14.6351 20.3962 14.6208C20.104 14.545 19.4688 14.119 19.1839 13.947C19.4523 13.8904 19.7201 13.8309 19.9872 13.7684Z" fill="white"/>
<path d="M22.3156 13.0496C22.5793 13.1514 22.8379 13.2892 23.0927 13.4125C23.3975 13.5599 23.7078 13.7007 24.004 13.8646L23.4089 14.0604C23.3821 14.0685 23.339 14.0823 23.3111 14.0817C23.2678 14.0808 21.8933 13.3481 21.736 13.2685C21.9323 13.2038 22.1255 13.1308 22.3156 13.0496Z" fill="white"/>
<path d="M18.604 14.0433C18.6357 14.0386 18.6639 14.0345 18.6955 14.0431C18.8469 14.0847 19.6151 14.6165 19.8142 14.7328C19.4893 14.7737 19.1563 14.7991 18.8292 14.8134C18.7553 14.8215 18.6802 14.8235 18.6059 14.8276C18.4623 14.7475 18.3265 14.6449 18.1908 14.5517C18.01 14.4275 17.8253 14.3065 17.653 14.1706C17.9705 14.1322 18.2875 14.0897 18.604 14.0433Z" fill="white"/>
<path d="M21.2475 13.4227C21.3867 13.4487 22.5998 14.1197 22.7832 14.2288C22.5403 14.2906 22.2919 14.3377 22.0458 14.385C21.9957 14.3906 21.9455 14.4021 21.8959 14.4114C21.462 14.1286 20.985 13.8927 20.5303 13.6438C20.7637 13.5571 21.0086 13.4931 21.2475 13.4227Z" fill="white"/>
<path d="M10.8272 10.3626C10.9142 10.387 11.0843 10.4963 11.1725 10.5414C11.5407 10.7299 11.9065 10.9285 12.2831 11.0994C12.1725 11.2421 12.0759 11.3928 11.9802 11.5457C11.8607 11.4922 11.7433 11.4336 11.6253 11.3767C11.0783 11.092 10.5144 10.84 9.96747 10.5556C10.245 10.4703 10.5402 10.4068 10.8272 10.3626Z" fill="white"/>
<path d="M16.2412 22.9887C16.445 22.9955 16.6458 22.9963 16.8495 22.9885L16.845 24.8249C16.6446 24.8305 16.4442 24.8331 16.2437 24.8327L16.2412 22.9887Z" fill="white"/>
<path d="M12.1281 24.3483C12.271 24.3791 12.4235 24.4602 12.5628 24.5095C12.8071 24.5944 13.0552 24.6662 13.3071 24.7248C14.8132 25.0768 16.4411 25.1234 17.9773 24.9863C18.715 24.9204 19.4881 24.8086 20.197 24.5906C20.3064 24.5569 20.8761 24.3443 20.9483 24.3657L20.944 24.3959L20.9546 24.3847C20.9402 24.4066 20.9207 24.4191 20.9003 24.4355C19.8348 24.985 17.9736 25.1949 16.7884 25.2065C15.4247 25.2198 13.8381 25.1379 12.5629 24.6108C12.434 24.5575 12.2231 24.4883 12.1257 24.3926L12.1281 24.3483Z" fill="white"/>
<path d="M5.99709 13.9637C6.05109 14.0063 6.17704 14.4879 6.21216 14.5884C6.34189 14.9512 6.48781 15.3073 6.64993 15.6568C6.44296 15.6077 6.24109 15.5385 6.04158 15.4656C5.77282 15.3629 5.38622 15.1936 5.22225 14.9425C5.17346 14.8678 5.15149 14.7826 5.17134 14.6945C5.24333 14.3748 5.74449 14.1224 5.99709 13.9637Z" fill="white"/>
<path d="M22.5983 12.2078C23.0433 12.4025 23.487 12.6002 23.9294 12.8009C24.3517 12.9953 24.7703 13.1992 25.2013 13.3739C25.1045 13.4199 25.0064 13.4634 24.9089 13.5081C24.7603 13.5693 24.6146 13.6367 24.4685 13.7037C24.2536 13.5658 24.0066 13.4581 23.7768 13.3463L22.5667 12.7672C22.6384 12.581 22.6517 12.4001 22.5983 12.2078Z" fill="white"/>
<path d="M6.92959 12.1914C7.89564 12.6806 8.86668 13.1597 9.8427 13.6287L10.8448 14.1042C11.0499 14.1991 11.2921 14.2848 11.4767 14.4107C11.3336 14.3967 11.1711 14.3373 11.0292 14.3031C10.5956 14.1983 10.1447 14.1073 9.72508 13.9552C9.38617 13.8323 9.05754 13.6441 8.73015 13.4916C8.21814 13.2531 7.68824 13.0323 7.18866 12.7694C7.1359 12.7416 7.08519 12.7161 7.04572 12.6702C6.92939 12.535 6.91733 12.361 6.92959 12.1914Z" fill="white"/>
<path d="M9.42766 10.7022C9.45862 10.6957 9.47741 10.701 9.50572 10.7137C9.71096 10.8054 9.91125 10.9156 10.1124 11.0165C10.6778 11.3002 11.24 11.5969 11.8157 11.8592C11.7408 12.0216 11.6828 12.1941 11.6205 12.3618C11.5178 12.326 11.4213 12.2721 11.3246 12.2226C10.4835 11.7592 9.59532 11.3774 8.74969 10.9216C8.97445 10.845 9.19872 10.7655 9.42766 10.7022Z" fill="white"/>
<path d="M16.2449 25.4383L16.8479 25.4414L16.8476 27.0992C16.8478 27.3279 16.8755 27.6432 16.838 27.8616C16.826 27.932 16.786 27.9833 16.7451 28.0396C16.6893 28.0879 16.6385 28.1232 16.5627 28.1288C16.4805 28.1349 16.3949 28.1075 16.3354 28.0495C16.288 28.0032 16.2551 27.9404 16.2462 27.8745C16.2161 27.6519 16.2413 27.3389 16.2417 27.105L16.2449 25.4383Z" fill="white"/>
<path d="M21.4007 10.9087C21.5142 10.9279 21.6444 10.9995 21.7522 11.0443C22.0562 11.1707 22.3564 11.3033 22.658 11.4351C23.4187 11.7625 24.1737 12.1022 24.9232 12.4545C25.2463 12.6044 25.5901 12.7343 25.897 12.9143L25.7746 13.0081C25.6982 13.0605 25.6202 13.1103 25.5407 13.1578C24.8237 12.8066 24.0848 12.4902 23.3562 12.1638C23.0989 12.0486 22.6991 11.9051 22.4723 11.7647C22.2887 11.651 22.1684 11.4559 21.986 11.3335C21.7196 11.1547 21.6088 11.1863 21.4007 10.9087Z" fill="white"/>
<path d="M12.6006 13.7485C12.8653 13.7466 13.1303 13.7683 13.3946 13.7824C13.5967 13.7931 13.8061 13.7944 14.0064 13.8221C14.3084 13.8639 14.6304 13.9366 14.9252 14.0153C15.2585 14.3571 15.7651 14.5972 16.1657 14.8653C15.9292 14.8716 14.6148 14.8057 14.4546 14.7571C14.3262 14.7182 14.2005 14.6301 14.0832 14.5644L13.4132 14.1896C13.1451 14.0419 12.856 13.9164 12.6006 13.7485Z" fill="white"/>
<path d="M8.3502 11.1011C8.77886 11.343 9.22347 11.5561 9.66298 11.7776C10.2908 12.0986 10.9214 12.4139 11.5549 12.7235C11.5386 12.9043 11.5256 13.0853 11.5158 13.2665L11.1528 13.0816C10.3515 12.6661 9.53494 12.2704 8.7238 11.874C8.39231 11.712 8.05776 11.558 7.73016 11.388C7.92146 11.266 8.13905 11.1821 8.3502 11.1011Z" fill="white"/>
<path d="M17.8493 9.34275C18.2081 9.3182 18.7344 9.43107 19.0687 9.53901C19.1091 9.55243 19.1493 9.5665 19.1892 9.5812C19.2292 9.59593 19.2689 9.61128 19.3084 9.62726C19.3478 9.64325 19.387 9.65987 19.4259 9.67714C19.4649 9.69438 19.5035 9.71226 19.5418 9.73076C19.5802 9.74925 19.6182 9.76835 19.656 9.78808C19.6937 9.80781 19.7311 9.82813 19.7682 9.84904C19.8053 9.86997 19.842 9.89149 19.8784 9.91361C19.9148 9.9357 19.9508 9.95839 19.9865 9.98167C20.0221 10.0049 20.0574 10.0288 20.0923 10.0532C20.1272 10.0776 20.1616 10.1025 20.1957 10.1281C20.2298 10.1536 20.2635 10.1796 20.2967 10.2062C20.33 10.2328 20.3628 10.26 20.3951 10.2876C20.4275 10.3153 20.4594 10.3434 20.4909 10.3721C20.5224 10.4008 20.5534 10.43 20.5839 10.4597C20.6144 10.4893 20.6445 10.5195 20.674 10.5501C20.7036 10.5808 20.7326 10.6119 20.7612 10.6435C20.8471 10.7377 20.951 10.8391 21.0093 10.9525L20.9952 10.9685C20.3987 10.8514 19.815 10.8135 19.2106 10.8908C18.9057 10.2418 18.4693 9.71343 17.8493 9.34275Z" fill="white"/>
<path d="M7.37643 11.6141C7.511 11.6518 7.66392 11.7476 7.79248 11.81C8.23065 12.0224 8.6605 12.2505 9.09764 12.4647L11.2608 13.527C11.495 13.6392 11.7372 13.7313 11.9717 13.8416C12.5198 14.0996 13.0613 14.3916 13.5869 14.6925L13.3183 14.6644C13.0988 14.6489 12.7411 14.6453 12.5416 14.5771C12.3248 14.5029 12.1167 14.3092 11.9003 14.2098C10.9241 13.755 9.95338 13.2887 8.98813 12.8111C8.35795 12.5039 7.70605 12.2152 7.10028 11.863C7.18338 11.7717 7.28009 11.6909 7.37643 11.6141Z" fill="white"/>
<path d="M17.0184 9.3037C17.1604 9.30021 17.2858 9.30385 17.4211 9.35421C18.0768 9.59841 18.6899 10.2905 18.9781 10.9129C18.7868 10.9456 18.594 10.9673 18.403 11.0032C18.1115 11.058 17.8225 11.1296 17.5337 11.1975C17.5062 11.1494 17.4776 11.1019 17.4481 11.055C17.4186 11.008 17.3882 10.9617 17.3568 10.916C17.3255 10.8703 17.2932 10.8252 17.26 10.7808C17.2268 10.7363 17.1928 10.6926 17.1579 10.6495C17.1229 10.6065 17.0872 10.5642 17.0505 10.5226C17.0139 10.4809 16.9764 10.4401 16.9382 10.4C16.8999 10.3599 16.8608 10.3206 16.8209 10.282C16.7811 10.2435 16.7405 10.2058 16.6991 10.1689C16.6577 10.132 16.6156 10.0959 16.5728 10.0607C16.53 10.0255 16.4864 9.99115 16.4422 9.95769C16.398 9.92423 16.3532 9.89168 16.3077 9.86003C16.2621 9.82837 16.216 9.79764 16.1692 9.76785C16.1225 9.73804 16.0752 9.7092 16.0272 9.68131C15.9793 9.65341 15.9309 9.6265 15.8819 9.60056C15.8329 9.57461 15.7834 9.54966 15.7334 9.52571C15.6834 9.50174 15.6329 9.4788 15.582 9.45687C16.0606 9.36395 16.5312 9.31579 17.0184 9.3037Z" fill="white"/>
<path d="M13.4133 10.4578C13.5855 10.4574 13.7532 10.4667 13.9223 10.5012C14.7085 10.6617 15.4227 11.2165 15.8605 11.8788C15.4923 12.1023 15.1667 12.3579 14.9275 12.7205C14.8681 12.8179 14.8201 12.9175 14.7754 13.0223C14.7401 12.7239 14.608 12.4209 14.4448 12.1709C14.0818 11.6148 13.3705 11.158 12.7246 11.0208C12.9304 10.8168 13.156 10.5937 13.4133 10.4578Z" fill="white"/>
<path d="M20.6758 10.1111C20.8812 10.1116 21.1062 10.1676 21.309 10.2026C21.7436 10.275 22.1749 10.3636 22.6028 10.4684C23.0308 10.5732 23.4542 10.6938 23.8731 10.8303C24.5161 11.039 25.841 11.4938 26.1498 12.1273C26.2283 12.2881 26.2157 12.4095 26.1619 12.5727L26.1364 12.5979C25.9818 12.556 25.8292 12.4721 25.6843 12.4034C25.4706 12.3013 25.2563 12.2006 25.0413 12.1012C24.2798 11.7508 23.5149 11.4079 22.7467 11.0726C22.3687 10.9085 21.9847 10.7308 21.5953 10.596C21.4435 10.5435 21.2713 10.5449 21.1248 10.4803C20.9693 10.4119 20.8079 10.2225 20.6758 10.1111Z" fill="white"/>
<path d="M15.174 9.57111C15.1922 9.57059 15.2081 9.57033 15.2261 9.57374C15.3464 9.59654 15.4712 9.65673 15.5844 9.70293C16.3456 10.0135 16.8779 10.6098 17.3368 11.2685C16.9039 11.41 16.4925 11.5657 16.0782 11.7549C16.038 11.7468 16.0319 11.7264 16.0071 11.6957C15.4095 10.8871 14.7208 10.4096 13.7197 10.2371C14.1881 9.95396 14.6361 9.70396 15.174 9.57111Z" fill="white"/>
<path d="M5.83754 13.2752C5.84748 13.2742 5.85725 13.2789 5.86699 13.2813C5.89887 13.3825 5.91523 13.4903 5.93568 13.5945C5.62573 13.7568 5.32762 13.9317 5.08384 14.1872C4.93121 14.3473 4.80245 14.5423 4.81173 14.7729C4.86181 16.0171 8.0777 16.2875 8.98812 16.3259C9.28211 16.3383 9.58 16.3369 9.87417 16.3304C10.0379 16.3268 10.2088 16.3101 10.3719 16.3225C10.4593 16.3292 10.5393 16.3493 10.6036 16.4121C10.6094 16.4178 10.6149 16.4237 10.62 16.43C10.6252 16.4362 10.6301 16.4427 10.6347 16.4494C10.6392 16.4562 10.6435 16.4631 10.6474 16.4702C10.6513 16.4773 10.6548 16.4846 10.658 16.4921C10.6612 16.4996 10.664 16.5072 10.6664 16.5149C10.6689 16.5227 10.6709 16.5305 10.6726 16.5385C10.6743 16.5464 10.6756 16.5544 10.6765 16.5625C10.6774 16.5706 10.6779 16.5787 10.678 16.5868C10.6788 16.6536 10.651 16.716 10.6032 16.7623C10.5035 16.8588 10.3742 16.8466 10.2457 16.8471C8.89499 16.9022 7.30295 16.8382 6.01194 16.404C5.4112 16.2019 4.65243 15.8524 4.36168 15.2548C4.25073 15.0268 4.23601 14.7755 4.32212 14.5367C4.54684 13.9138 5.27127 13.5388 5.83754 13.2752Z" fill="white"/>
<path d="M12.572 11.196C13.0465 11.2859 13.7294 11.6931 14.0536 12.0438C14.4224 12.4426 14.6104 12.9434 14.5871 13.4862C14.3506 13.5034 14.1059 13.4828 13.8694 13.4692C13.1913 13.452 12.5137 13.4024 11.8358 13.3753L11.831 13.3068C11.7806 12.5586 12.0802 11.7581 12.572 11.196Z" fill="white"/>
<path d="M20.7688 21.658C20.7816 21.67 20.7951 21.6941 20.8038 21.7095C21.0466 22.1363 21.2357 22.6074 21.4483 23.0509C21.9227 24.0392 22.3902 25.0308 22.8507 26.0257L24.0645 28.6065C24.2123 28.9268 24.3804 29.2434 24.5105 29.5712C24.5541 29.6808 24.6044 29.8057 24.5658 29.9237C24.5408 29.9998 24.4849 30.0611 24.4138 30.0972C24.3191 30.1453 24.2406 30.1373 24.1431 30.1046C24.0887 30.0706 24.0383 30.023 24.0083 29.9657C23.8859 29.7318 23.7848 29.4827 23.6727 29.2432C23.4134 28.6955 23.1578 28.146 22.906 27.5948L21.4319 24.4793L20.7117 22.9595C20.5614 22.6362 20.4211 22.3089 20.2637 21.9887C20.4354 21.8835 20.6037 21.7733 20.7688 21.658Z" fill="white"/>
<path d="M12.2518 21.6813C12.4365 21.7995 12.6227 21.9152 12.8104 22.0285C12.6966 22.241 12.604 22.4643 12.5025 22.6829L11.9183 23.9374L10.3505 27.2611C10.0644 27.8864 9.77312 28.5093 9.47654 29.1297C9.34174 29.4171 9.22116 29.74 9.05743 30.0113C9.02878 30.0586 8.99524 30.0936 8.95353 30.1296C8.93657 30.1388 8.91952 30.1477 8.90194 30.1554C8.81027 30.1955 8.72548 30.1826 8.6363 30.1423C8.554 30.105 8.47165 30.0314 8.44506 29.9427C8.41751 29.8508 8.46002 29.7636 8.49485 29.6799C8.70273 29.1807 8.95943 28.6941 9.19258 28.2056L10.2079 26.0462C10.8965 24.595 11.546 23.1245 12.2518 21.6813Z" fill="white"/>
<path d="M14.6497 9.34598C14.6827 9.34133 14.7146 9.34443 14.7476 9.34672L14.7411 9.35657C14.5799 9.40453 14.4306 9.49072 14.2665 9.52848C14.0735 9.57282 13.8561 9.57213 13.6585 9.59204C13.2682 9.63077 12.8787 9.6762 12.4899 9.72834C11.4915 9.86355 10.5032 10.0344 9.52985 10.2977C8.70477 10.5209 7.14572 11.0248 6.70678 11.803C6.57111 12.0434 6.52178 12.3068 6.59872 12.5747C6.73055 13.0338 7.12145 13.3213 7.51957 13.5444C8.20704 13.9297 8.99082 14.1605 9.74785 14.3636C10.446 14.5508 11.1473 14.7198 11.8616 14.8337C12.3545 14.9123 12.855 14.9575 13.3517 15.0066C13.8219 15.0549 14.293 15.0931 14.7649 15.1214C15.2368 15.1497 15.709 15.168 16.1817 15.1763C16.6544 15.1846 17.127 15.1829 17.5996 15.1712C18.0722 15.1596 18.5443 15.1379 19.0159 15.1062C20.4886 15.0139 21.994 14.8314 23.4175 14.4308C24.2707 14.1907 25.9968 13.587 26.4317 12.7989C26.5528 12.5795 26.6025 12.3386 26.5278 12.0933C26.1592 10.8827 22.8728 10.1394 21.7715 9.92035C21.4221 9.85342 21.0712 9.79609 20.7186 9.74836C20.4988 9.71751 20.2375 9.70817 20.0288 9.63504C19.8913 9.58686 19.7524 9.49806 19.6222 9.43045L20.4577 9.52639C22.1374 9.7477 23.8482 10.0663 25.39 10.7957C25.7503 10.9661 26.1093 11.1543 26.4234 11.4019C26.682 11.6058 26.9597 11.9148 26.9941 12.2578C27.0186 12.5021 26.9038 12.7469 26.7533 12.9326C26.5339 13.2032 26.2336 13.405 25.9384 13.5845C24.3984 14.5209 22.158 14.9637 20.3741 15.154C19.585 15.2376 18.794 15.2942 18.001 15.3236C17.2081 15.3531 16.415 15.3555 15.6219 15.3307C13.4224 15.2689 11.2194 15.0333 9.11615 14.3579C8.29187 14.0932 7.36646 13.7274 6.6891 13.1764C6.4422 12.9755 6.15967 12.6909 6.13205 12.3554C6.10782 12.0612 6.24114 11.8148 6.43117 11.6004C6.78968 11.1962 7.29794 10.9225 7.78354 10.6986C9.83143 9.75435 12.408 9.47353 14.6497 9.34598Z" fill="white"/>
<path d="M21.9574 20.0984L21.9661 20.1057C21.9569 20.1367 21.9639 20.1245 21.9414 20.1506C21.7379 20.3878 21.4974 20.6113 21.2625 20.8175C21.2263 20.8498 21.1897 20.8817 21.1529 20.9133C21.116 20.9448 21.0788 20.976 21.0413 21.0068C21.0038 21.0376 20.966 21.0681 20.9279 21.0981C20.8898 21.1282 20.8514 21.1578 20.8127 21.1871C20.774 21.2164 20.7349 21.2452 20.6956 21.2737C20.6563 21.3022 20.6168 21.3302 20.5769 21.3579C20.537 21.3856 20.4969 21.4128 20.4565 21.4397C20.416 21.4665 20.3753 21.493 20.3344 21.519C20.2934 21.545 20.2522 21.5706 20.2107 21.5959C20.1692 21.621 20.1275 21.6458 20.0855 21.6701C20.0435 21.6945 20.0013 21.7184 19.9588 21.7419C19.9164 21.7654 19.8737 21.7884 19.8307 21.8111C19.7878 21.8337 19.7446 21.8559 19.7013 21.8776C19.6579 21.8993 19.6143 21.9207 19.5705 21.9415C19.5266 21.9624 19.4826 21.9828 19.4384 22.0027C19.3941 22.0227 19.3497 22.0422 19.3051 22.0613C19.2605 22.0803 19.2156 22.099 19.1706 22.1171C19.1256 22.1353 19.0804 22.153 19.0351 22.1702C18.9897 22.1874 18.9442 22.2042 18.8985 22.2205C18.8528 22.2368 18.8069 22.2527 18.7609 22.2681C18.7149 22.2835 18.6687 22.2984 18.6223 22.3128C18.576 22.3273 18.5295 22.3412 18.4829 22.3547C18.4363 22.3682 18.3896 22.3813 18.3427 22.3938C18.2958 22.4064 18.2488 22.4184 18.2017 22.43C18.1545 22.4416 18.1073 22.4528 18.06 22.4634C18.0126 22.474 17.9652 22.4842 17.9176 22.4939C17.87 22.5036 17.8224 22.5127 17.7747 22.5215C17.7269 22.5302 17.6791 22.5384 17.6312 22.5461C17.5833 22.5539 17.5353 22.5611 17.4872 22.5679C17.4392 22.5747 17.3911 22.5809 17.3429 22.5867C17.2947 22.5925 17.2465 22.5978 17.1982 22.6026C17.1499 22.6074 17.1015 22.6117 17.0532 22.6156C16.9972 22.6203 16.9412 22.6243 16.8851 22.6276C16.8291 22.631 16.773 22.6337 16.7169 22.6356C16.6607 22.6376 16.6046 22.6389 16.5484 22.6396C16.4923 22.6402 16.4361 22.6401 16.38 22.6394C16.3238 22.6386 16.2677 22.6372 16.2116 22.6351C16.1554 22.633 16.0994 22.6302 16.0433 22.6267C15.9873 22.6233 15.9312 22.6191 15.8753 22.6143C15.8193 22.6095 15.7635 22.604 15.7077 22.5978C15.6518 22.5916 15.5961 22.5847 15.5405 22.5772C15.4848 22.5696 15.4292 22.5614 15.3738 22.5525C15.3184 22.5436 15.263 22.5341 15.2078 22.5239C15.1526 22.5136 15.0975 22.5027 15.0425 22.4911C14.9876 22.4796 14.9328 22.4673 14.8781 22.4544C14.8235 22.4415 14.769 22.4279 14.7147 22.4137C14.6603 22.3995 14.6062 22.3846 14.5522 22.3691C14.4983 22.3535 14.4445 22.3373 14.3909 22.3205C14.3373 22.3036 14.284 22.2861 14.2308 22.268C14.1777 22.2499 14.1248 22.2311 14.0721 22.2116C14.0194 22.1922 13.9669 22.1721 13.9147 22.1514C13.8625 22.1307 13.8106 22.1094 13.7589 22.0874C13.7072 22.0655 13.6558 22.0429 13.6047 22.0196C13.5535 21.9964 13.5027 21.9726 13.4521 21.9481C13.4016 21.9237 13.3513 21.8986 13.3014 21.873C13.2514 21.8473 13.2018 21.821 13.1525 21.7941C13.1032 21.7673 13.0542 21.7398 13.0056 21.7117C12.9569 21.6837 12.9086 21.655 12.8607 21.6258C12.8127 21.5965 12.7652 21.5667 12.7179 21.5363C12.6707 21.5059 12.6239 21.4749 12.5774 21.4434C12.5309 21.4119 12.4848 21.3798 12.4392 21.3471C12.3935 21.3145 12.3482 21.2813 12.3033 21.2475C12.2584 21.2138 12.214 21.1795 12.1699 21.1446C12.1259 21.1098 12.0822 21.0745 12.039 21.0385C11.7246 20.7699 11.4265 20.4924 11.1686 20.1676C11.2774 20.203 11.3864 20.2373 11.4959 20.2705C11.6053 20.3037 11.715 20.3358 11.8251 20.3668C11.9351 20.3978 12.0455 20.4278 12.1561 20.4566C12.2668 20.4853 12.3777 20.513 12.489 20.5396C12.6002 20.5662 12.7116 20.5916 12.8234 20.6159C12.9351 20.6402 13.0471 20.6635 13.1592 20.6855C13.2714 20.7076 13.3838 20.7286 13.4965 20.7484C13.6091 20.7682 13.7219 20.7869 13.8349 20.8045C13.9478 20.822 14.061 20.8384 14.1743 20.8537C14.2876 20.869 14.4011 20.8832 14.5147 20.8962C14.6283 20.9092 14.742 20.9211 14.8559 20.9318C14.9697 20.9425 15.0836 20.9521 15.1977 20.9605C15.3117 20.969 15.4258 20.9763 15.54 20.9824C15.6542 20.9886 15.7684 20.9936 15.8827 20.9974C15.997 21.0013 16.1113 21.004 16.2256 21.0056C16.3399 21.0071 16.4543 21.0075 16.5686 21.0068C16.6829 21.0061 16.7973 21.0042 16.9116 21.0012C17.0259 20.9981 17.1401 20.994 17.2544 20.9886C17.3686 20.9833 17.4827 20.9769 17.5968 20.9693C17.7109 20.9616 17.8249 20.9529 17.9389 20.943C18.0528 20.9331 18.1666 20.922 18.2803 20.9098C18.3939 20.8977 18.5075 20.8843 18.6209 20.8699C18.7344 20.8554 18.8476 20.8398 18.9607 20.823C19.0738 20.8063 19.1868 20.7885 19.2995 20.7695C19.4123 20.7504 19.5249 20.7303 19.6372 20.709C19.7496 20.6878 19.8617 20.6654 19.9736 20.6419C20.0855 20.6183 20.1971 20.5937 20.3085 20.568C20.4199 20.5422 20.5311 20.5153 20.6419 20.4873C20.7528 20.4593 20.8634 20.4302 20.9736 20.4C21.0839 20.3698 21.1939 20.3385 21.3036 20.3061C21.4132 20.2737 21.5225 20.2402 21.6315 20.2056C21.7405 20.171 21.8491 20.1353 21.9574 20.0984Z" fill="white"/>
<path d="M19.6472 11.1508C20.2414 11.1288 21.2393 11.2299 21.7482 11.54C22.0191 11.705 22.2393 11.9973 22.3081 12.3093C22.335 12.4312 22.3379 12.5874 22.2614 12.6934C22.2272 12.7408 22.1733 12.7661 22.1216 12.7897C21.9227 12.8805 21.6919 12.9383 21.4831 13.0053C21.0373 13.1524 20.5877 13.2867 20.1342 13.4082C19.793 13.4967 19.4494 13.5745 19.1033 13.6417C18.6108 13.7354 18.1107 13.7836 17.6149 13.8576C17.492 13.8749 17.369 13.8912 17.2458 13.9064C16.7374 13.9673 15.5894 14.1232 15.1749 13.7813C15.0681 13.6932 15.0067 13.5723 14.9993 13.434C14.9841 13.1466 15.1478 12.866 15.333 12.6593C16.2117 11.6787 18.3765 11.2225 19.6472 11.1508Z" fill="white"/>
<path d="M15.7367 13.1491C15.7671 13.1505 15.7987 13.1537 15.828 13.1624C15.8876 13.18 15.9429 13.2288 15.9672 13.2861C15.9968 13.3562 15.9893 13.4379 15.9573 13.5059C15.9144 13.5972 15.8484 13.6344 15.7564 13.6661C15.7071 13.6675 15.6549 13.6704 15.6087 13.65C15.5568 13.627 15.5138 13.5859 15.4945 13.5319C15.4719 13.4688 15.4822 13.3984 15.5098 13.3386C15.5582 13.2334 15.633 13.1908 15.7367 13.1491Z" fill="#1C1C1C"/>
<path d="M21.1703 11.6623C21.3317 11.6428 21.4664 11.6683 21.5993 11.7659C21.695 11.8361 21.836 11.9808 21.8434 12.1041C21.8458 12.1432 21.8382 12.1695 21.8108 12.1981C21.7771 12.2334 21.7316 12.2362 21.6859 12.2379C21.6075 12.1562 21.5558 12.0505 21.4747 11.9702C21.37 11.8667 21.2783 11.9059 21.1455 11.9067C21.09 11.907 21.0595 11.9017 21.0193 11.8624C21.0128 11.8322 21.0125 11.812 21.0225 11.783C21.0477 11.7098 21.106 11.6917 21.1703 11.6623Z" fill="#1C1C1C"/>
<path d="M19.0995 11.6367C19.5575 11.5972 19.8554 11.8836 20.2635 12.0087C20.4148 12.055 20.5734 12.0569 20.7292 12.0763C20.8051 12.0858 20.8872 12.115 20.9331 12.1796C20.985 12.2525 20.9795 12.3527 20.9637 12.4362C20.9319 12.6039 20.8545 12.8838 20.7067 12.9798C20.5015 13.1131 20.2783 12.9666 20.0732 12.9226C19.7649 12.8565 19.3833 13.2283 19.1421 13.388C18.8862 13.5576 18.573 13.6066 18.2719 13.551C18.1303 13.5249 17.9918 13.4865 17.8463 13.4958C17.5883 13.5123 17.3646 13.6725 17.0973 13.612C17.0181 13.5941 16.505 13.378 16.473 13.3264C16.4648 13.2889 16.4618 13.2585 16.4793 13.2225C16.4936 13.1933 16.5252 13.1774 16.5547 13.1676C16.7283 13.1098 16.9207 13.3083 17.0694 13.3711C17.321 13.4773 17.5507 13.2946 17.7972 13.2666C18.0642 13.2363 18.3178 13.3716 18.5913 13.3496C19.0592 13.312 19.3644 12.8813 19.7861 12.716C20.0476 12.6478 20.1765 12.7441 20.4169 12.7829C20.4834 12.7937 20.5562 12.7863 20.6099 12.7423C20.7188 12.653 20.7329 12.4532 20.748 12.3222C20.5454 12.3006 20.3553 12.2757 20.1624 12.2053C19.7959 12.0714 19.4703 11.8134 19.0581 11.8698C18.8528 11.8979 18.5703 11.9906 18.481 12.1929C18.4377 12.2909 18.4161 12.4011 18.3475 12.4863C18.1947 12.6759 17.1746 12.975 16.9258 13.0013C16.7088 13.0242 16.4169 12.9829 16.2435 12.8409C16.1967 12.8025 16.1547 12.7583 16.095 12.7424C16.0408 12.7843 16.0413 12.858 15.9984 12.9089C15.9772 12.934 15.9529 12.9501 15.9186 12.9478C15.8783 12.945 15.8518 12.9228 15.8252 12.895C15.8092 12.8552 15.8024 12.8259 15.8112 12.7826C15.8298 12.6918 15.8919 12.593 15.9707 12.5425C16.1555 12.424 16.4392 12.7254 16.6293 12.7629C16.7375 12.7843 16.8564 12.7777 16.9645 12.7586C17.2132 12.7148 17.9973 12.4668 18.1929 12.3305C18.1972 12.3275 18.2014 12.3244 18.2056 12.3213C18.2477 12.1917 18.2829 12.0688 18.3701 11.961C18.5441 11.746 18.8376 11.6696 19.0995 11.6367Z" fill="#1C1C1C"/>
<path d="M6.23407 13.2731C6.45888 13.4481 6.66788 13.6235 6.91243 13.7726C9.09178 15.1016 12.3945 15.5455 14.9048 15.6863C18.1052 15.8658 24.3796 15.5497 26.8134 13.3754C26.8004 13.4355 26.7867 13.4955 26.7725 13.5554C26.7583 13.6152 26.7435 13.6749 26.7281 13.7345C26.7127 13.7941 26.6967 13.8535 26.6802 13.9127C26.6636 13.972 26.6465 14.0311 26.6288 14.09C26.6111 14.1489 26.5929 14.2076 26.574 14.2662C26.5552 14.3247 26.5358 14.3831 26.5158 14.4413C26.4959 14.4995 26.4753 14.5575 26.4542 14.6153C26.4331 14.6731 26.4115 14.7306 26.3892 14.788C26.367 14.8454 26.3442 14.9025 26.3209 14.9594C26.2976 15.0164 26.2737 15.073 26.2493 15.1295C26.2248 15.1859 26.1998 15.2422 26.1743 15.2981C26.1488 15.3541 26.1227 15.4098 26.0961 15.4653C26.0695 15.5207 26.0423 15.5759 26.0147 15.6309C25.987 15.6858 25.9587 15.7405 25.93 15.7949C25.9012 15.8492 25.872 15.9033 25.8421 15.9572C25.8123 16.011 25.782 16.0645 25.7512 16.1177C25.7203 16.1709 25.689 16.2239 25.6571 16.2765C25.6252 16.3291 25.5928 16.3814 25.5599 16.4334C25.527 16.4854 25.4936 16.537 25.4598 16.5884C25.4259 16.6397 25.3915 16.6907 25.3566 16.7414C25.3217 16.7921 25.2863 16.8424 25.2504 16.8924C25.2146 16.9423 25.1782 16.992 25.1414 17.0412C25.1045 17.0905 25.0672 17.1394 25.0294 17.188C24.9916 17.2365 24.9534 17.2847 24.9147 17.3325C24.8759 17.3803 24.8368 17.4277 24.7971 17.4747C24.7575 17.5218 24.7174 17.5684 24.6768 17.6147C24.6363 17.6609 24.5953 17.7068 24.5538 17.7523C24.5124 17.7977 24.4705 17.8428 24.4282 17.8874C24.3858 17.9321 24.3431 17.9763 24.2999 18.0201C24.2567 18.0639 24.2131 18.1073 24.1691 18.1503C24.125 18.1932 24.0806 18.2358 24.0357 18.2778C23.9909 18.32 23.9456 18.3616 23.9 18.4028C23.6375 18.6302 23.366 18.8461 23.0855 19.0507C22.828 19.2375 22.5184 19.4568 22.2343 19.5962C21.7887 19.8148 21.2732 19.9557 20.7952 20.0844C18.404 20.7282 15.8637 20.7738 13.4258 20.3786C12.6743 20.2568 11.7204 20.0308 11.0304 19.716C9.94442 19.2205 8.77006 18.1168 8.07783 17.1569C8.51394 17.1964 10.4304 17.3117 10.7457 17.1162C10.8843 17.0303 10.9831 16.8816 11.0131 16.7218C11.0461 16.5463 11.0013 16.3553 10.8965 16.211C10.8096 16.0914 10.6867 16.0071 10.5417 15.9762C10.3189 15.9287 9.73419 15.9859 9.46214 15.982C8.69117 15.9708 7.90756 15.9193 7.14696 15.7872C6.68874 15.0098 6.40847 14.1547 6.23407 13.2731Z" fill="white"/>
<path d="M11.474 4.66669C11.4772 4.66929 11.4806 4.67167 11.4835 4.67451C11.6096 4.79402 11.6936 5.06123 11.7465 5.22207C11.9392 5.80748 11.8916 6.39856 11.6001 6.94223C11.4349 7.25048 11.2403 7.53342 11.1039 7.85841C10.9452 8.23659 10.8868 8.61193 10.8862 9.01916L10.8828 9.02627L10.8683 9.02569C10.8301 8.92272 10.7956 8.81853 10.7649 8.71311C10.5853 8.10167 10.6489 7.44874 10.9815 6.90035C11.107 6.69364 11.2666 6.50893 11.3816 6.29546C11.6681 5.76336 11.6397 5.22895 11.474 4.66669Z" fill="white"/>
<path d="M22.7566 4.36298C22.8662 4.45665 22.9517 4.69512 22.9997 4.82844C23.4358 6.0385 22.533 6.93841 22.2765 8.04637C22.1936 8.40416 22.2168 8.73886 22.2715 9.09739C22.1764 8.96375 22.1231 8.7559 22.0734 8.59895C21.7543 7.59067 22.0552 7.10347 22.5059 6.23575C22.8217 5.62769 22.9681 5.03017 22.7566 4.36298Z" fill="white"/>
<path d="M19.5902 2.66669C19.7307 2.82926 19.8418 3.09824 19.9164 3.29847C20.1942 4.04378 19.9794 4.89955 19.6322 5.58355C19.4262 5.98929 19.1818 6.35284 19.0455 6.79375C18.8981 7.27068 18.8831 7.74783 18.9715 8.23745L18.9701 8.26778C18.8888 8.15856 18.7611 7.62669 18.7342 7.4877C18.3575 5.53626 19.6776 5.0864 19.7338 3.62312C19.7464 3.29575 19.6748 2.9803 19.5902 2.66669Z" fill="white"/>
<path d="M16.0834 2C16.199 2.10622 16.2936 2.38947 16.3502 2.54131C16.8975 4.0113 15.7547 4.8167 15.4327 6.09465C15.3441 6.44611 15.3368 6.81776 15.3816 7.17626C15.3985 7.3115 15.4323 7.44862 15.4395 7.58429L15.4212 7.57186C15.2872 7.32473 15.1871 7.04346 15.1098 6.77313C14.8801 5.96938 14.9592 5.27604 15.3963 4.56427C15.5506 4.31291 15.7339 4.0779 15.8755 3.81891C16.1953 3.2342 16.2688 2.63829 16.0834 2Z" fill="white"/>
</svg>
