<svg width="66" height="66" viewBox="0 0 66 66" fill="none" xmlns="http://www.w3.org/2000/svg">
<g clip-path="url(#clip0_107_4621)">
<path d="M0 0H66V66H0V0Z" fill="#1C1C1C"/>
<path d="M32.1185 1.07779C33.3415 0.998937 37.1639 1.11171 38.1523 1.61122C38.6421 1.85874 38.8978 2.35085 39.0603 2.85008C39.3991 3.8904 39.4504 5.30206 38.9537 6.30346C38.8035 6.60619 38.5385 6.86143 38.4089 7.16867C38.3445 7.32123 38.4228 7.5133 38.4744 7.6611C38.537 7.84028 38.6171 8.06045 38.7488 8.19947C39.006 8.47114 40.0804 8.83807 40.4821 9.03595C40.9032 9.24342 41.4649 9.53836 41.612 10.0189C41.6203 10.0459 41.6272 10.0733 41.6328 10.101C41.6383 10.1286 41.6425 10.1565 41.6452 10.1846C41.6479 10.2127 41.6492 10.2409 41.6492 10.2692C41.649 10.2974 41.6475 10.3256 41.6446 10.3536C41.6416 10.3817 41.6373 10.4096 41.6316 10.4372C41.6258 10.4649 41.6187 10.4922 41.6102 10.5191C41.6018 10.5461 41.5919 10.5725 41.5808 10.5984C41.5696 10.6244 41.5572 10.6497 41.5435 10.6744C41.2821 11.1369 40.6058 11.3372 40.1288 11.4755C40.1083 11.8331 40.0362 12.1893 40.0117 12.5479C39.9682 13.1807 40.0318 13.7968 40.1035 14.4243C40.5742 14.4789 41.0583 14.6425 41.5126 14.7728C42.9597 15.1881 44.4324 15.6623 45.7791 16.3431C47.6192 17.2734 49.56 18.6105 50.2244 20.6617C50.5149 21.5583 50.5385 22.5241 50.3481 23.4441C49.6339 26.8933 46.983 27.4299 45.6568 29.9998C46.5585 30.5685 47.432 31.1524 48.2821 31.7972C51.6184 34.3276 53.6769 37.3469 54.2449 41.5397C54.6646 44.6386 54.1616 47.937 53.2057 50.8935C52.9608 51.6509 52.6593 52.3892 52.3676 53.1295C52.0476 53.9415 51.7487 54.8171 51.3187 55.5769C50.8603 56.387 50.2563 57.1095 49.6939 57.8479C49.3224 58.3358 48.9766 58.8418 48.6056 59.3299C48.7148 59.4097 48.8261 59.4893 48.9265 59.5801C49.4111 60.0174 49.688 60.5981 49.7133 61.2508C49.7411 61.9681 49.431 62.6845 48.9435 63.2029C48.3836 63.7983 47.5654 64.1088 46.7872 64.2982C45.5952 64.5885 44.2882 64.6117 43.0678 64.6562C41.307 64.7206 39.5453 64.7303 37.7848 64.7934C37.196 64.8244 36.5995 64.816 36.0095 64.8289C32.1998 64.886 28.3914 64.8379 24.5844 64.6845C22.8 64.6149 20.918 64.6581 19.1696 64.2754C18.3649 64.0992 17.5739 63.7948 16.9739 63.2125C16.4353 62.6899 16.0774 62.0107 16.0749 61.249C16.0723 60.4534 16.4693 59.8387 17.0136 59.2914C16.3794 58.3236 15.7496 57.349 15.1861 56.3377C13.1158 52.6227 11.6077 48.3507 11.5355 44.0647C11.5275 43.6898 11.5331 43.3151 11.5522 42.9405C11.5713 42.566 11.6038 42.1927 11.6499 41.8205C11.6959 41.4483 11.7553 41.0783 11.828 40.7105C11.9008 40.3426 11.9867 39.9778 12.0858 39.6161C13.0976 35.8276 15.4539 33.2864 18.5716 31.029C19.4197 30.4149 20.303 29.854 21.1759 29.2767C22.5369 28.3764 24.618 27.1407 25.7189 25.9903C26.1328 25.5579 26.4056 25.1329 26.5695 24.5559C26.9778 23.1186 26.8426 21.0175 26.8427 19.5049C26.8427 18.1861 26.8682 16.8636 26.8396 15.5453C26.6023 15.4372 26.262 15.3233 26.0994 15.1096C25.7127 14.6012 26.4046 12.3943 25.7245 11.4026C25.3573 11.2759 24.9019 11.148 24.6007 10.8966C24.4318 10.7556 24.3084 10.5621 24.2944 10.3388C24.2462 9.57052 25.294 8.90214 25.8913 8.62828C26.2935 8.44388 26.9696 8.3133 27.2571 7.97846C27.866 7.26929 27.1507 6.5264 26.8736 5.85294C26.7085 5.45182 26.6126 4.9935 26.589 4.56079C26.5451 3.75607 26.7805 2.54414 27.3482 1.93944C28.145 1.09084 30.972 1.12249 32.1185 1.07779Z" fill="white"/>
<path d="M36.4789 16.1613L36.8727 16.1411C36.8838 16.9797 36.8824 17.8184 36.8686 18.657C36.8623 19.0265 36.8903 19.4561 36.8078 19.8168C36.7151 19.8511 36.6198 19.8035 36.5299 19.775L36.1246 19.6721C36.1345 19.2351 36.2742 16.4899 36.3902 16.1975L36.4789 16.1613Z" fill="#1C1C1C"/>
<path d="M29.0523 16.1264L29.5848 16.1883C29.6379 16.6768 29.8458 19.3905 29.7533 19.6987L29.6716 19.7296L29.0433 19.8925C29.0357 19.0804 29.0325 18.2684 29.0338 17.4564C29.0333 17.0226 28.9966 16.555 29.0523 16.1264Z" fill="#1C1C1C"/>
<path d="M31.3694 1.95191C33.3943 1.84582 35.4426 1.97633 37.453 2.22223C36.4916 2.39581 35.5151 2.44868 34.5417 2.50836C34.0395 2.53419 33.537 2.54758 33.0343 2.54854C32.5314 2.54949 32.0289 2.53801 31.5266 2.51409C31.0244 2.49016 30.523 2.45383 30.0226 2.40508C29.5221 2.35634 29.0232 2.29524 28.5258 2.2218C29.4717 2.09536 30.4156 1.99038 31.3694 1.95191Z" fill="#1C1C1C"/>
<path d="M31.893 19.8972C32.3471 19.8399 32.8455 19.8619 33.3041 19.8712C33.9281 19.8838 36.3963 20.0669 36.741 20.4813C36.7745 20.5217 36.7584 20.5398 36.7514 20.5871C36.4096 20.9798 34.7013 21.1095 34.12 21.1507C33.1209 21.2435 29.8953 21.2424 29.121 20.6631C29.0951 20.6019 29.0855 20.6133 29.1117 20.5464C29.5412 20.1393 31.2364 19.9507 31.893 19.8972Z" fill="#1C1C1C"/>
<path d="M37.5485 8.29617L37.5869 8.29327C37.7465 8.43043 37.8474 8.84589 37.9189 9.04448C37.3302 9.21663 36.6719 9.25865 36.0618 9.30951C35.4253 9.35896 34.7879 9.39274 34.1498 9.41083C33.5116 9.42892 32.8734 9.43128 32.2351 9.41792C31.5969 9.40455 30.9593 9.37551 30.3225 9.33078C29.6856 9.286 29.0503 9.22559 28.4164 9.14953L27.9636 9.0776C28.0871 8.82404 28.2009 8.57339 28.2977 8.30848C28.6176 8.30913 28.9441 8.36366 29.2622 8.39698C29.7814 8.45288 30.3017 8.49529 30.8231 8.52421C31.3838 8.55631 31.945 8.57562 32.5066 8.58215C33.0682 8.58868 33.6297 8.58243 34.191 8.5634C34.7523 8.54436 35.3129 8.51256 35.8728 8.46801C36.4327 8.42345 36.9913 8.36617 37.5485 8.29617Z" fill="#1C1C1C"/>
<path d="M30.1284 16.2386C32.0322 16.3337 33.9358 16.3296 35.8392 16.2263C35.7628 17.3562 35.7768 18.5011 35.7478 19.6338C33.9218 19.3241 32.0068 19.4031 30.179 19.6393C30.1062 18.5154 30.1367 17.3655 30.1284 16.2386Z" fill="#1C1C1C"/>
<path d="M27.0731 9.05524L27.1055 9.09114L27.0926 9.13148C27.0478 9.27406 26.9988 9.39162 27.0729 9.53309C27.2359 9.67702 27.5139 9.74302 27.7201 9.80044C28.5466 10.0306 29.4233 10.1261 30.2766 10.1923C31.9562 10.3228 37.4159 10.4158 38.722 9.64163C38.9209 9.52368 38.9548 9.40148 39.0075 9.18943C39.465 9.35359 40.4965 9.81263 40.7975 10.1808C40.844 10.2376 40.8436 10.2476 40.8339 10.3157C40.5792 10.5592 39.92 10.7097 39.5663 10.8109C38.7274 11.0088 37.8796 11.1543 37.0227 11.2475C34.1786 11.5556 29.0129 11.5794 26.3017 10.75C26.0187 10.6634 25.3053 10.4835 25.1711 10.2318C25.1777 10.1924 25.1832 10.1532 25.199 10.1161C25.3843 9.67985 26.6262 9.22694 27.0731 9.05524Z" fill="#1C1C1C"/>
<path d="M39.2564 11.6732L39.2699 11.6839C39.2777 11.8124 39.1459 12.0068 39.0877 12.1267C38.3151 12.613 37.3407 12.7795 36.4553 12.9495C36.1668 13.0048 35.856 13.041 35.5811 13.1437C35.9534 13.1762 36.3263 13.1923 36.7 13.1919C37.0736 13.1916 37.4466 13.1748 37.8187 13.1416C38.1925 13.1053 38.6879 12.9958 39.049 13.0044C39.0646 13.1112 39.0619 13.1932 39.0455 13.2998C38.6012 13.7252 36.7579 14.1754 36.0756 14.3303C36.6888 14.326 37.3035 14.3398 37.9147 14.2828C38.2147 14.2549 38.8038 14.1127 39.0338 14.1231C39.1265 14.1273 39.1389 14.1437 39.1985 14.206C39.2024 14.2383 39.2072 14.2624 39.2013 14.296C39.1829 14.4029 39.0915 14.5215 39.0105 14.5892C37.6757 15.7063 32.1912 15.5438 30.3287 15.4365C29.4065 15.3834 27.6911 15.2196 27.0722 14.5024C26.996 14.4141 26.9022 14.3102 26.9097 14.1893C27.0147 14.1449 27.6817 14.3302 27.8522 14.359C28.7375 14.5159 29.629 14.6209 30.5265 14.674C31.5194 14.7647 32.5721 14.6788 33.5476 14.4895C32.0719 14.4364 30.4021 14.291 28.9514 14.0229C28.5129 13.9419 27.199 13.6894 26.9924 13.2895C26.9535 13.2142 26.9636 13.1752 26.9806 13.0985C27.3709 13.0604 27.9928 13.2508 28.4151 13.288C29.478 13.3814 30.7585 13.3627 31.8144 13.2151C29.8994 13.0477 28.7821 12.916 26.9342 12.3199C26.9121 12.143 26.9107 11.9629 26.9036 11.7849C29.874 12.3233 34.7132 12.4554 37.7026 12.0111C38.2291 11.9329 38.7413 11.8057 39.2564 11.6732Z" fill="#1C1C1C"/>
<path d="M27.9126 2.66437C30.9582 3.42088 34.9627 3.3986 38.0314 2.76944C38.2298 3.20478 38.3722 3.68726 38.4262 4.16302C38.5396 5.16154 38.3162 5.73014 37.7129 6.5018C37.4177 6.87936 37.3601 7.1859 37.4175 7.65428C35.6999 7.87652 33.9779 7.91448 32.2481 7.90185C30.9857 7.8927 29.7035 7.8606 28.4471 7.73201C28.4519 7.49773 28.4854 7.26202 28.5105 7.02896L28.4932 6.99287C28.3517 6.69226 28.1607 6.41606 27.9822 6.13646C27.8547 5.92957 27.7534 5.71898 27.6684 5.49157C28.9711 5.96826 30.2033 6.11091 31.5798 6.04062C30.8826 5.87484 27.7733 4.97753 27.4888 4.46197C27.4504 4.3925 27.4617 4.36387 27.4855 4.2963C27.631 4.26852 28.6489 4.65676 28.8975 4.72471C30.6604 5.20637 32.8872 5.37549 34.6253 4.76765C32.2704 4.99979 29.7179 4.63714 27.5677 3.63085C27.6412 3.29273 27.7759 2.9805 27.9126 2.66437Z" fill="#1C1C1C"/>
<path d="M39.6909 15.1185C41.0519 15.4462 42.5498 15.861 43.8644 16.3362C45.9665 17.0962 48.3981 18.1901 49.3916 20.3354C49.9002 21.4335 49.9139 22.6385 49.4938 23.7677C49.4357 23.9207 49.3721 24.0715 49.303 24.22C49.234 24.3684 49.1596 24.5142 49.0801 24.6573C49.0005 24.8005 48.9159 24.9405 48.8263 25.0776C48.7367 25.2146 48.6422 25.3482 48.543 25.4785C47.7211 26.5648 46.6387 27.3924 45.74 28.406C45.5612 28.6062 45.3913 28.8138 45.2303 29.0286C45.1438 29.146 45.0322 29.3937 44.9299 29.4793C44.9108 29.4953 44.8845 29.4998 44.8618 29.5101L44.7794 29.4665C44.148 29.0486 43.4973 28.6607 42.8674 28.2404C44 26.3278 47.1304 24.8992 47.365 22.6073C47.4333 21.9398 47.2224 21.3488 46.8013 20.8337C45.3485 19.0566 41.2832 17.5901 39.0154 17.3552C39.0217 16.7382 39.0027 16.1114 39.0526 15.4964C39.2705 15.382 39.48 15.2454 39.6909 15.1185Z" fill="#1C1C1C"/>
<path d="M39.0303 18.2232C39.5269 18.3286 40.0248 18.4954 40.5132 18.6354C41.8929 19.0308 45.008 19.8833 45.9544 20.9387C46.2787 21.3003 46.4111 21.745 46.3891 22.224C46.3311 23.4855 45.1562 24.8627 44.2667 25.6783C43.5322 26.3623 42.7705 26.8864 42.2515 27.7748C41.5075 27.2963 40.7304 26.743 40.1037 26.1186C39.7779 25.7941 39.497 25.4635 39.3367 25.0278C38.9177 23.8882 39.025 22.1967 39.0263 20.9808L39.0303 18.2232Z" fill="#1C1C1C"/>
<path d="M27.7695 15.8427L28.4831 15.9944C28.5019 17.0127 28.5709 18.0291 28.593 19.0473C28.6035 19.5257 28.6316 20.0128 28.5705 20.4885L28.5792 20.508C28.6268 20.6179 28.6726 20.7165 28.7549 20.8055C29.4236 21.5279 31.6016 21.5807 32.5744 21.594C33.7206 21.6097 36.3866 21.5773 37.1999 20.7471C37.2107 20.7362 37.2211 20.7249 37.2313 20.7134C37.5311 20.376 37.157 20.3269 37.175 20.1162C37.2253 19.5275 37.2364 18.9323 37.2637 18.342C37.2989 17.5795 37.3465 16.8156 37.3523 16.0523C37.5885 15.9964 37.8242 15.9387 38.0596 15.8792C38.0665 16.3539 38.008 16.8401 37.986 17.3158C37.9385 18.3754 37.898 19.4353 37.8646 20.4955C37.8089 22.1663 37.6761 23.9679 38.172 25.5874C38.3494 26.1668 38.6453 26.657 39.0854 27.0761C39.8866 27.8387 41.3997 28.6323 42.3879 29.2272C46.5486 31.7318 50.9057 34.2596 52.5361 39.1389C53.828 43.0047 53.1584 47.7055 51.7411 51.4443C51.5339 51.9777 51.3085 52.5033 51.065 53.0211C50.8215 53.5389 50.5604 54.0477 50.2816 54.5474C49.4648 56.0441 48.4651 57.4341 47.5867 58.8945C47.1426 59.6329 46.7642 60.4117 46.3796 61.1821C47.0007 60.8092 47.4937 60.351 48.0132 59.8538C48.3634 60.1912 48.6793 60.5206 48.7433 61.0289C48.7977 61.4611 48.6543 61.8896 48.3799 62.2238C47.4725 63.3289 45.2786 63.4941 43.9326 63.6027C42.21 63.7304 40.4732 63.7358 38.7469 63.7777C36.6164 63.8421 34.4854 63.8762 32.354 63.8803C30.6193 63.8694 28.8851 63.8338 27.1514 63.7736C25.7932 63.7459 24.4354 63.7043 23.078 63.6487C22.0579 63.6059 21.0239 63.5631 20.0142 63.4037C19.3229 63.2946 18.6231 63.1353 18.0384 62.7325C17.5971 62.4285 17.2119 61.9834 17.1224 61.4403C17.0261 60.8569 17.2631 60.3189 17.5875 59.8509C18.3001 60.2885 18.9778 60.5932 19.7713 60.8574C18.8943 59.7914 18.0165 58.3507 17.2795 57.1695C14.6981 53.0326 12.7656 49.2445 12.7251 44.2467C12.7189 43.4736 12.724 42.7038 12.8107 41.9347C13.0087 40.1776 13.5193 38.4309 14.4211 36.9037C16.2822 33.7521 19.9218 31.4314 22.9435 29.5295L25.1472 28.1466C25.7623 27.7549 26.4505 27.3644 26.9611 26.8394C27.3798 26.4088 27.6024 25.877 27.7362 25.2977C27.9974 24.1668 27.9598 22.972 27.9492 21.8188C27.931 19.8253 27.7942 17.8365 27.7695 15.8427Z" fill="#1C1C1C"/>
<path d="M27.1682 30.01L27.1796 30.0245C27.1064 30.2385 25.6924 31.1862 25.4199 31.3803C24.1541 32.282 22.9469 33.2191 21.8611 34.3342C21.6746 34.5257 21.4844 34.7205 21.3174 34.9295C21.0992 35.2024 20.8864 35.6364 20.609 35.8393C20.5437 35.7037 20.5374 35.6442 20.588 35.5024C20.6815 35.2399 20.8697 34.9793 21.016 34.7422C22.3132 32.6402 24.9681 31.0331 27.1682 30.01Z" fill="white"/>
<path d="M38.3683 30.0561C38.871 30.1416 41.4009 31.5361 41.9274 31.8784C42.4381 32.2106 42.937 32.5685 43.3777 32.9906C43.8797 33.4713 45.2935 35.2795 45.3109 35.9825L45.2405 35.9904C45.0498 35.9244 44.8845 35.5853 44.764 35.4298C44.2974 34.8315 43.7897 34.2702 43.241 33.746C42.3419 32.8789 41.318 32.1267 40.2898 31.4211C39.6459 30.9793 38.9668 30.5585 38.3683 30.0561Z" fill="white"/>
<path d="M48.0792 60.3907C48.2287 60.6 48.2758 60.841 48.258 61.0958C48.2314 61.4786 48.0134 61.8143 47.7269 62.0586C47.2801 62.4396 46.6461 62.6462 46.08 62.7606C45.0337 62.9719 43.9484 62.9955 42.8847 63.0168C41.7484 63.0385 40.6122 63.0403 39.4758 63.0221C38.2639 63.0063 37.0368 63.0255 35.8279 62.938L35.5151 62.9192C36.2565 62.8174 37.0358 62.8161 37.7845 62.7755C40.3598 62.636 44.7921 62.496 46.9857 61.256C47.4042 61.0195 47.7378 60.7239 48.0792 60.3907Z" fill="white"/>
<path d="M17.6009 60.1472C17.7799 60.2468 17.9636 60.5013 18.1106 60.6512C18.4533 61.0009 18.8288 61.2772 19.269 61.4919C20.8409 62.2587 23.572 62.4242 25.336 62.5679C26.3069 62.6487 27.2784 62.722 28.2504 62.7878C28.9546 62.8303 29.6925 62.8125 30.3889 62.9181L30.3591 62.9257C28.567 63.0241 26.7602 63.0013 24.9659 62.9997C23.3123 62.9982 20.9267 63.0974 19.3506 62.6872C18.7147 62.5217 18.1692 62.2245 17.8319 61.6407C17.5685 61.1847 17.4676 60.66 17.6009 60.1472Z" fill="white"/>
<path d="M28.7508 21.418C28.761 21.433 28.773 21.4468 28.7813 21.463C28.9431 21.7798 28.9359 23.4107 28.9636 23.8489C29.0274 24.8563 29.1894 25.9233 28.7611 26.8738C27.998 28.5672 25.203 29.9583 23.6341 30.9202C21.2318 32.393 18.4504 34.3176 16.9152 36.7327C16.5804 37.2594 16.3326 37.8053 16.1011 38.3822C16.5118 38.1805 16.9244 37.9733 17.3534 37.8128C19.7058 36.9331 22.4163 36.792 24.8809 37.2108C26.4147 37.4715 27.9278 37.9278 29.4091 38.3972C32.0724 39.2411 34.3605 40.0179 37.2003 39.8179C38.802 39.7051 40.4978 39.3289 41.9668 38.6766C42.7405 38.333 43.4569 37.8991 44.272 37.6486C45.7088 37.2069 47.1988 37.1666 48.6095 37.7289C49.0402 37.9006 49.452 38.1347 49.8623 38.3504C49.5506 37.5371 49.1711 36.751 48.6432 36.0537C48.0123 35.2205 47.1978 34.5148 46.3903 33.8586C44.7129 32.4952 42.9384 31.3524 41.0835 30.2501C39.7877 29.4801 38.2444 28.6662 37.3794 27.3923C37.1324 27.0284 36.9507 26.6447 36.8651 26.212C36.7167 25.4628 36.8508 22.2988 37.0009 21.521C37.5294 22.6606 37.2533 24.4534 37.4634 25.7264C37.5612 26.3184 37.79 26.8554 38.1896 27.3074C39.2278 28.4813 41.7752 29.7854 43.1809 30.6332C44.0094 31.1328 44.7988 31.6808 45.586 32.242C47.796 33.9252 49.9839 35.9875 50.7744 38.744C51.1695 40.1219 51.2154 41.5871 51.2133 43.0111C51.2079 46.6795 50.7774 49.6756 49.399 53.0984C49.0479 53.97 48.6736 54.8352 48.2185 55.6584C47.6605 56.6679 46.8134 58.1581 45.6455 58.4839C45.2135 58.6045 44.7455 58.6242 44.3001 58.666C43.5292 58.7389 42.7573 58.7986 41.9844 58.8451C39.0458 59.0389 36.0889 59.2292 33.1428 59.2409C31.0582 59.2352 28.9762 59.1601 26.8967 59.0156C25.8402 58.9597 24.7843 58.8928 23.7292 58.8149C22.5968 58.7234 20.5683 58.6882 19.5963 58.1368C17.646 57.0305 16.2986 52.8786 15.7099 50.7817C15.5508 50.1953 15.4105 49.6044 15.2887 49.0091C15.167 48.4139 15.0642 47.8153 14.9803 47.2135C14.8964 46.6117 14.8316 46.0079 14.7859 45.4021C14.7401 44.7962 14.7135 44.1894 14.7061 43.5819C14.6758 41.9064 14.7217 40.0075 15.239 38.3971C16.3448 34.9538 20.2262 32.1965 23.1566 30.3828C24.4636 29.5737 27.0378 28.169 27.8835 27.0216C28.4777 26.2156 28.464 25.3597 28.4657 24.4027C28.4668 23.81 28.4569 23.2147 28.4911 22.6228C28.5145 22.2187 28.5487 21.7781 28.7508 21.418Z" fill="white"/>
<path d="M31.1207 56.5086C32.8524 56.462 34.5834 56.4778 36.3139 56.5557C38.0444 56.6337 39.7698 56.7738 41.4903 56.9759C42.7715 57.1321 44.1229 57.2879 45.3422 57.7297C43.604 57.9101 41.8625 58.0479 40.1177 58.1431C38.3728 58.2382 36.6267 58.2906 34.8792 58.3002C31.8699 58.3556 28.8621 58.3102 25.8559 58.164C24.1127 58.0832 22.3149 58.034 20.6002 57.6986C21.7631 57.3144 22.9527 57.1348 24.1627 56.9763C26.48 56.6728 28.7873 56.5668 31.1207 56.5086Z" fill="#1C1C1C"/>
<path d="M21.8683 37.7839C23.0946 37.7317 24.356 37.9201 25.5497 38.1845C29.162 38.9843 32.5929 40.6793 36.3483 40.6734C38.0609 40.6707 39.7369 40.3236 41.3532 39.7712C43.2504 39.1227 45.0133 37.8084 47.1135 38.1323C47.0712 39.334 47.0909 40.5365 47.0762 41.7387C47.0486 43.9872 46.9743 46.2419 46.7281 48.4782C46.6561 49.1318 46.5633 49.7912 46.4193 50.4331C46.1775 51.5107 45.8523 52.5692 45.7485 53.6748C46.061 53.0572 46.2694 52.3456 46.4717 51.6855C47.5318 48.2262 47.7472 44.7112 47.4921 41.1182C47.4215 40.1234 47.3534 39.1166 47.165 38.1357C47.6403 38.2463 48.0856 38.3885 48.5376 38.5701C48.5243 39.5682 48.6467 40.5787 48.6672 41.5783C48.7416 45.2114 48.4861 48.8253 47.2745 52.2798C46.7723 53.7117 46.0568 55.0527 45.4956 56.4598C45.5284 56.4241 45.5606 56.3879 45.5924 56.3513C46.134 55.7261 46.5864 54.9925 46.9787 54.2662C48.9305 50.6521 49.2605 46.4198 49.0007 42.3867C48.9485 41.5748 48.8529 40.7594 48.7455 39.953C48.6876 39.5179 48.6032 39.0844 48.5763 38.6461L48.5728 38.5853C48.8451 38.7044 49.1107 38.8367 49.3697 38.9824C49.6287 39.128 49.8798 39.2862 50.123 39.4569C50.4037 40.3811 50.4173 41.48 50.4316 42.4427C50.4605 44.3867 50.3459 46.4063 49.9992 48.3216C49.4699 51.2465 47.9695 55.3068 45.8746 57.4615C45.7839 57.5422 45.6932 57.6291 45.582 57.6809C45.5551 57.6935 45.4851 57.7171 45.4574 57.705C45.3544 57.6603 45.2289 57.4619 45.1333 57.3854C44.9352 57.2267 44.603 57.1183 44.362 57.0382C43.0963 56.6173 41.6796 56.4539 40.3602 56.3024C39.1839 56.1722 38.005 56.0727 36.8235 56.0038C35.6421 55.9349 34.4596 55.8967 33.2762 55.8892C32.0927 55.8817 30.9098 55.905 29.7276 55.9589C28.5453 56.0129 27.3653 56.0975 26.1874 56.2127C24.5771 56.3781 22.895 56.5835 21.3498 57.0846C20.9567 57.212 20.6453 57.4187 20.2797 57.5997C19.9442 57.4189 19.705 57.18 19.4669 56.8858C16.4074 53.1054 15.4551 47.8074 15.5242 43.0644C15.5416 41.875 15.6428 40.702 15.7699 39.5206C16.2131 39.2846 16.6678 39.0733 17.1341 38.8869C16.6967 41.1207 16.6638 43.5074 16.7334 45.7777C16.8438 49.3777 17.7217 53.5023 20.447 56.0601C20.0353 55.4503 19.6314 54.8448 19.2982 54.1873C17.8692 51.3681 17.3827 48.23 17.2364 45.1024C17.1892 44.2463 17.1715 43.3895 17.1832 42.5321C17.211 41.2827 17.3156 40.0346 17.3739 38.7864C17.8197 38.5902 18.2856 38.4342 18.7472 38.28C18.7373 38.3208 18.7277 38.3617 18.7183 38.4027C18.5099 39.3126 18.431 40.2512 18.3676 41.1806C18.1368 44.5618 18.3578 48.344 19.3556 51.5962C19.5627 52.2709 19.7984 52.9875 20.1749 53.5867C19.5126 51.401 19.2256 49.1467 19.0378 46.877C18.9105 45.4394 18.8371 43.9991 18.8177 42.5561C18.7983 41.113 18.8329 39.6712 18.9215 38.2307C19.8671 37.9468 20.8845 37.8227 21.8683 37.7839Z" fill="#1C1C1C"/>
</g>
<defs>
<clipPath id="clip0_107_4621">
<rect width="66" height="66" rx="10" fill="white"/>
</clipPath>
</defs>
</svg>
