<svg width="66" height="66" viewBox="0 0 66 66" fill="none" xmlns="http://www.w3.org/2000/svg">
<g clip-path="url(#clip0_107_4628)">
<path d="M0 0H66V66H0V0Z" fill="#1C1C1C"/>
<path d="M41.9549 4.52599C44.2968 4.43858 46.358 4.95683 48.6346 5.34995C49.8952 5.56761 51.1729 5.70079 52.4032 6.06379C52.8177 6.18781 53.2239 6.33504 53.6216 6.50549C54.0193 6.67595 54.406 6.86852 54.7817 7.08319C57.3483 8.53628 59.1517 10.8872 60.7745 13.2847C61.982 15.0687 63.0841 16.8897 63.6583 18.9821C65.2459 24.7668 64.1194 33.3077 61.1657 38.4949C60.9261 38.9162 60.6701 39.3272 60.3978 39.728C60.1255 40.1288 59.8377 40.5182 59.5344 40.8961C56.516 44.6007 51.2055 48.3498 46.7989 50.1717C45.5729 50.6785 44.3148 51.1537 43.0583 51.5794C41.9987 51.9383 40.9252 52.2518 39.8835 52.6621C39.0238 53.0007 38.1933 53.4258 37.3626 53.8298C36.0733 54.458 34.8022 55.1211 33.5493 55.8192C32.3743 56.4862 31.2162 57.2104 30.0176 57.8324C29.4896 58.1076 28.9549 58.369 28.4136 58.6167C27.8722 58.8644 27.3248 59.098 26.7714 59.3176C26.218 59.5372 25.6594 59.7425 25.0955 59.9334C24.5316 60.1243 23.9632 60.3006 23.3902 60.4623C22.7982 60.6121 22.2003 60.7324 21.5964 60.8232C20.9925 60.9141 20.3857 60.9751 19.7758 61.0061C15.4932 61.1842 11.9659 59.2271 8.89337 56.3934C6.05093 53.772 4.27344 50.9454 2.86144 47.3643C2.11858 45.4803 1.57432 43.5796 1.49332 41.5472C1.35182 37.9972 2.50597 34.0542 4.36222 31.0402C4.96522 30.0611 5.68256 29.1461 6.45091 28.292C7.16377 27.4996 7.89441 26.7114 8.65431 25.9637C9.12127 25.5042 9.62923 25.0812 10.0779 24.604C10.6268 24.0202 11.1445 23.3862 11.6411 22.7578C12.4329 21.7559 13.1058 20.6762 13.8115 19.614C15.0108 17.8088 16.229 16.0565 17.7062 14.4622C19.2684 12.7762 21.101 11.2416 23.1033 10.1049C25.0768 8.98443 27.1678 8.18282 29.3359 7.53094C30.2308 7.26192 31.1383 7.03601 32.0329 6.76595C34.2437 6.09873 36.645 5.26749 38.9054 4.85039C39.409 4.75858 39.9152 4.6856 40.4242 4.63146C40.9331 4.57732 41.4433 4.54216 41.9549 4.52599Z" fill="white"/>
<path d="M42.3048 5.33158C44.0457 5.217 45.7721 5.57314 47.4774 5.86073C48.4899 6.03147 49.5182 6.13265 50.5254 6.32548C52.0891 6.62483 53.7401 7.22662 55.0928 8.07186C57.3513 9.48313 58.7181 11.4088 60.1437 13.5889C61.5068 15.6732 62.7151 17.7945 63.2769 20.2405C64.5208 25.6558 62.942 34.189 59.9851 38.8917C57.7111 42.5084 54.4376 44.9698 50.7794 47.0611C49.8802 47.5754 48.966 48.0614 48.0369 48.5192C47.1078 48.977 46.1654 49.4058 45.2098 49.8055C43.5842 50.4829 41.9184 51.0493 40.2856 51.7056C39.0899 52.1962 37.9144 52.7311 36.759 53.3103C35.1668 54.0939 33.5974 54.9208 32.0509 55.7911C31.2701 56.2278 30.5118 56.7048 29.7271 57.1346C27.6945 58.248 25.5812 59.1383 23.3186 59.6538C22.4778 59.8091 21.6304 59.9091 20.7765 59.9537C16.1864 60.2089 13.3751 59.3858 9.95502 56.3175C6.59205 53.3005 4.49443 49.9347 3.068 45.6609C2.62743 44.3409 2.25076 43.0713 2.17856 41.6724C2.0743 39.6522 2.44979 37.7318 3.02683 35.8049C4.32802 31.4596 5.942 29.5673 9.20479 26.511C10.3085 25.477 11.4353 24.4374 12.3779 23.2508C13.1951 22.2221 13.824 21.0585 14.5004 19.9368C15.4584 18.3481 16.4585 16.8773 17.707 15.4973C19.2415 13.8012 20.8692 12.313 22.8388 11.1362C25.8728 9.32316 29.2998 8.41694 32.651 7.39511C34.5359 6.82038 36.4415 6.17643 38.3754 5.78936C39.6768 5.52888 40.9804 5.39792 42.3048 5.33158Z" fill="#1C1C1C"/>
<path d="M17.119 21.0974L17.1617 21.1187C17.1618 21.1318 17.1631 21.145 17.1619 21.1581C17.1192 21.6393 16.0348 22.8509 15.6551 23.1955L15.6308 23.1909L15.606 23.1405C15.7193 22.4986 16.6365 21.52 17.119 21.0974Z" fill="white"/>
<path d="M20.3281 55.08C21.1293 55.276 21.9046 55.4511 22.736 55.443C23.002 55.4404 24.3532 55.2999 24.4457 55.3331C24.3915 55.4172 24.3111 55.4377 24.223 55.4815C23.2972 55.8656 22.0947 55.9412 21.1333 55.6434C20.8142 55.5446 20.4886 55.3877 20.3281 55.08Z" fill="white"/>
<path d="M53.9559 38.4965C53.9841 38.5209 53.9921 38.523 54.0092 38.5575C54.1716 38.8843 53.952 39.8048 53.8396 40.1536C53.5549 41.0363 52.9738 41.9664 52.1217 42.3999C52.1001 42.3856 52.0813 42.3622 52.063 42.3437C52.0783 42.2687 52.1072 42.223 52.1506 42.1617C52.2615 42.005 52.4016 41.8705 52.5249 41.7238C52.7877 41.411 53.0404 41.0621 53.233 40.702C53.6044 40.0076 53.6496 39.2493 53.9387 38.5382L53.9559 38.4965Z" fill="white"/>
<path d="M48.9401 40.6928C49.0509 41.2918 48.3115 43.0811 47.9936 43.5866C47.6449 44.1412 47.0361 44.9913 46.3575 45.1461C46.3485 45.0016 46.6508 44.7588 46.7499 44.6536C48.1133 43.2056 48.1488 42.3348 48.9401 40.6928Z" fill="white"/>
<path d="M5.9239 46.2922C6.12613 46.4434 6.29895 47.5058 6.39465 47.8022C6.68452 48.7 7.15928 49.5362 7.68374 50.317C7.93085 50.6849 8.23494 51.0448 8.41695 51.4497C7.94013 51.2106 7.63018 50.8202 7.33111 50.3909C6.61175 49.358 5.69378 47.5821 5.9239 46.2922Z" fill="white"/>
<path d="M9.59456 35.9922C9.61493 36.1645 9.36227 36.6666 9.30574 36.871C8.9751 38.0664 8.97774 39.4803 9.53436 40.6077C9.68711 40.9169 9.90484 41.174 10.07 41.4715C9.98888 41.5031 9.92475 41.4561 9.84515 41.4265C9.74183 41.3582 9.65083 41.2817 9.56543 41.1917C8.88132 40.4706 8.69634 39.2875 8.73772 38.3358C8.77252 37.5349 8.97626 36.5567 9.59456 35.9922Z" fill="white"/>
<path d="M55.2045 36.4969C55.2445 36.5238 55.2754 36.5505 55.3035 36.5902C55.5797 36.9805 55.5544 37.5863 55.4888 38.0389C55.2954 39.3739 54.4865 40.8262 53.4005 41.635C53.3498 41.6632 53.3032 41.6803 53.2477 41.6968C53.1872 41.4725 54.0434 40.5467 54.2143 40.2968C54.7496 39.5145 55.1472 38.4425 55.2195 37.4962C55.245 37.1622 55.2163 36.8308 55.2045 36.4969Z" fill="white"/>
<path d="M17.1649 18.7117C17.2276 18.7361 17.2185 18.7435 17.2494 18.7993C17.2453 19.2208 15.9018 20.7263 15.5868 21.171C15.4682 21.3358 15.3577 21.5058 15.2552 21.681C15.1526 21.8561 15.0586 22.0358 14.9731 22.2198C14.8929 22.3928 14.8228 22.5698 14.7629 22.7508C14.703 22.9318 14.6536 23.1156 14.6148 23.3023C14.5742 23.4903 14.5687 23.9678 14.4798 24.0885C14.3787 23.909 14.343 23.716 14.3348 23.5119C14.2703 21.9045 16.1115 19.8562 17.1649 18.7117Z" fill="white"/>
<path d="M17.3383 30.1315C17.3953 30.1289 17.452 30.1271 17.509 30.1294C17.7815 30.1401 18.0275 30.2797 18.2076 30.4808C18.3982 30.6936 18.5363 30.9967 18.5078 31.2874C18.4844 31.5252 18.3654 31.6791 18.1855 31.8263C18.1401 31.8307 18.0999 31.8329 18.0544 31.8312C18.0195 31.8298 17.9848 31.8266 17.9503 31.8217C17.9157 31.8169 17.8815 31.8103 17.8476 31.8019C17.8137 31.7936 17.7803 31.7835 17.7474 31.7719C17.7146 31.7601 17.6824 31.7468 17.6508 31.7318C17.6193 31.7168 17.5886 31.7003 17.5587 31.6822C17.5289 31.6642 17.5 31.6446 17.4721 31.6236C17.4442 31.6026 17.4174 31.5803 17.3918 31.5566C17.3662 31.5329 17.3418 31.508 17.3187 31.4818C17.1228 31.2609 17.0163 30.9383 17.0484 30.6439C17.0748 30.4014 17.1513 30.2812 17.3383 30.1315Z" fill="white"/>
<path d="M17.4886 30.4981C17.6918 30.53 17.8522 30.6268 17.9745 30.7956C18.1196 30.9961 18.1446 31.193 18.1043 31.4305C18.0162 31.4341 17.9275 31.4367 17.842 31.411C17.7049 31.3698 17.5821 31.2587 17.5167 31.1327C17.4118 30.9305 17.4237 30.7091 17.4886 30.4981Z" fill="#1C1C1C"/>
<path d="M8.69639 31.8629C8.75904 31.8645 8.76433 31.8667 8.82259 31.9007C8.75253 32.12 8.3615 32.5082 8.21068 32.7227C7.98219 33.0478 7.79334 33.3698 7.63685 33.734C7.46923 34.1163 7.3197 34.5055 7.18826 34.9017C7.05682 35.2979 6.94402 35.6993 6.84988 36.106C6.72948 36.6163 6.65471 37.1517 6.48578 37.6482L6.46902 37.6967L6.44061 37.7209C6.40308 37.7092 6.36753 37.6906 6.33173 37.6745L6.39695 37.6587C6.26658 36.9347 6.67457 35.4038 6.90531 34.6667C7.21707 33.6708 7.71722 32.3765 8.69639 31.8629Z" fill="white"/>
<path d="M47.3765 41.7751C47.4244 41.8039 47.4651 41.817 47.4936 41.8674C47.624 42.0983 47.5642 42.4177 47.4976 42.6613C47.0794 44.1912 44.5686 45.5278 43.2308 46.2847L43.1505 46.322L43.1296 46.2918C43.2755 45.9996 43.5905 45.7575 43.8507 45.5709C44.9661 44.7713 46.4741 44.1684 47.0654 42.8391C47.2165 42.4995 47.293 42.1354 47.3765 41.7751Z" fill="white"/>
<path d="M49.885 7.83163C50.0325 7.82666 50.1489 7.85451 50.2887 7.89621C51.1088 8.14087 51.8858 8.70181 52.2919 9.46545C52.4829 9.82465 52.7191 10.6243 52.5832 11.0119C52.5579 11.0841 52.5469 11.0857 52.4815 11.1158C52.2005 11.0333 51.8969 10.4512 51.6767 10.227C51.5177 10.0649 51.3514 9.9513 51.1532 9.8434C50.9007 9.72758 50.6337 9.73222 50.3641 9.69335L50.4045 9.58958C50.4147 9.58868 50.4257 9.59081 50.4352 9.58701C50.609 9.51695 50.6844 9.47325 50.8837 9.50135C51.5262 9.59197 51.9113 9.9464 52.2962 10.4355C52.0346 9.47737 51.5191 8.84167 50.6588 8.33887C50.4071 8.19173 50.0815 8.04993 49.885 7.83163Z" fill="white"/>
<path d="M8.21585 34.6017C8.3445 34.7319 8.09468 35.2958 8.0301 35.4742C7.90248 35.8266 7.74831 36.1683 7.63603 36.5264C7.32072 37.532 7.18602 38.7585 7.42598 39.7953C7.50725 40.1466 7.6727 40.4696 7.76042 40.8153C7.77731 40.8817 7.79201 40.8993 7.75488 40.9603L7.65614 40.9073C7.62808 40.8801 7.6009 40.852 7.57461 40.8231C6.96404 40.149 6.90101 38.94 6.9565 38.083C7.01167 37.2304 7.53883 35.1941 8.21585 34.6017Z" fill="white"/>
<path d="M59.4296 34.5757C59.5239 34.575 59.6074 34.5808 59.6947 34.6205C59.8511 34.6919 59.9683 34.8319 60.0225 34.9933C60.1251 35.2986 60.0732 35.7155 59.9273 35.999C59.7533 36.3374 59.4843 36.4848 59.1381 36.596C59.0728 36.6089 59.0072 36.6201 58.9414 36.6295C58.7958 36.6513 58.6689 36.6814 58.543 36.5884C58.481 36.4718 58.4748 36.378 58.4951 36.2484C58.5874 35.6598 58.9381 34.927 59.4296 34.5757Z" fill="white"/>
<path d="M59.4802 34.987C59.5493 35.03 59.595 35.0676 59.6353 35.138C59.7181 35.2833 59.7361 35.4633 59.6897 35.6232C59.5994 35.9343 59.4063 36.0982 59.1299 36.2398C59.0648 36.2579 59.0191 36.2739 58.952 36.2595C58.9365 36.2336 58.9247 36.2181 58.9194 36.1858C58.8669 35.8623 59.2911 35.238 59.4802 34.987Z" fill="#1C1C1C"/>
<path d="M13.4683 48.6288C13.5117 48.6311 13.5548 48.6327 13.5977 48.6395C13.8796 48.6838 14.1788 49.0061 14.3434 49.2259C14.568 49.5258 14.7458 49.9204 14.6801 50.3011C14.6371 50.5503 14.5219 50.675 14.3187 50.8138C14.1791 50.8583 14.0492 50.8854 13.903 50.8559C13.6729 50.8094 13.4865 50.6631 13.36 50.4683C13.1013 50.0699 13.0987 49.4283 13.2133 48.9778C13.26 48.7946 13.3032 48.7239 13.4683 48.6288Z" fill="white"/>
<path d="M13.59 49.0901C13.6126 49.0994 13.6352 49.1089 13.6571 49.1195C13.9421 49.2561 14.1907 49.5931 14.2901 49.8878C14.3612 50.0986 14.3416 50.2256 14.2405 50.4196C14.1371 50.4555 14.0598 50.4805 13.9501 50.4593C13.8216 50.4345 13.7204 50.3642 13.6524 50.2527C13.4452 49.9132 13.5114 49.4583 13.59 49.0901Z" fill="#1C1C1C"/>
<path d="M58.1642 17.1985C58.2319 17.235 58.2908 17.2837 58.3459 17.3373C58.874 17.8502 59.0612 18.7936 59.0884 19.4985C59.1031 19.8796 59.0862 20.2685 58.9727 20.6347C58.9044 20.8556 58.8136 21.0766 58.7664 21.3029C58.7244 21.504 58.7497 21.713 58.7432 21.9168C58.7267 22.4368 58.5395 23.0526 58.172 23.4336C58.0827 23.5262 58.0047 23.6002 57.8745 23.6005L57.833 23.543C57.8736 23.2945 58.2021 22.7775 58.3074 22.4631C58.588 21.3148 58.1338 20.3004 57.7189 19.257C58.2516 19.6471 58.4344 20.1125 58.6277 20.7234C58.9381 19.5151 58.6602 18.3135 58.1642 17.1985Z" fill="white"/>
<path d="M32.6803 28.1692C33.0006 28.1115 33.4296 28.28 33.6896 28.4575C34.0009 28.6701 34.2294 28.9766 34.2912 29.3536C34.3477 29.6992 34.268 30.015 34.0629 30.2954C33.9959 30.3401 33.9381 30.3755 33.8557 30.3743C33.5677 30.3701 33.3081 30.1862 33.1156 29.9874C32.7569 29.6167 32.5138 28.9953 32.5373 28.4779C32.5442 28.3255 32.5691 28.2685 32.6803 28.1692Z" fill="white"/>
<path d="M32.9208 28.5735L32.9658 28.5826C33.2997 28.6524 33.6203 28.8092 33.8062 29.1081C33.9707 29.3726 33.966 29.6613 33.8911 29.954C33.8726 29.9586 33.8548 29.9671 33.8358 29.9678C33.7043 29.9725 33.5065 29.8653 33.4107 29.7815C33.0762 29.4889 32.9487 28.9996 32.9208 28.5735Z" fill="#1C1C1C"/>
<path d="M21.2213 41.6721C21.2855 41.6659 21.3526 41.6584 21.417 41.6646C21.7896 41.7006 22.2467 42.1248 22.4774 42.4019C22.6969 42.6657 22.8982 43.01 22.8546 43.365C22.8274 43.5869 22.7161 43.7035 22.547 43.8372C22.4327 43.8822 22.3327 43.9141 22.2084 43.9057C21.9069 43.8854 21.6516 43.6927 21.4665 43.4657C21.182 43.1168 20.9441 42.5507 20.997 42.095C21.0192 41.9044 21.0685 41.7881 21.2213 41.6721Z" fill="white"/>
<path d="M21.3859 42.0378C21.7732 42.1664 22.1916 42.5484 22.3759 42.9111C22.4752 43.1067 22.5019 43.2693 22.4358 43.4784C22.3526 43.5048 22.2807 43.5259 22.1926 43.5159C21.9976 43.4939 21.8257 43.339 21.7129 43.1887C21.4714 42.8666 21.3316 42.4379 21.3859 42.0378Z" fill="#1C1C1C"/>
<path d="M37.6143 8.32782C38.0481 8.33878 38.4111 8.42089 38.7387 8.72582C38.9641 8.93555 39.159 9.24234 39.163 9.55933C39.1648 9.70647 39.1178 9.84221 39.0096 9.94476C38.8247 10.12 38.5398 10.142 38.2997 10.1335C38.1755 10.1082 38.054 10.0777 37.9354 10.0324C37.3664 9.81495 36.9224 9.32201 36.67 8.77944C36.707 8.72504 36.7444 8.66949 36.7875 8.61973C37.0019 8.37255 37.3115 8.35354 37.6143 8.32782Z" fill="white"/>
<path d="M37.3268 8.74012C37.4368 8.73535 37.5475 8.72987 37.6577 8.73187C38.0414 8.7387 38.4977 8.8861 38.7608 9.17299C38.8338 9.25271 38.8839 9.35384 38.8751 9.46425C38.8631 9.61481 38.8036 9.71749 38.6924 9.81507C38.3963 9.86386 38.1958 9.78929 37.9403 9.64085C37.673 9.48558 37.294 9.19522 37.2113 8.89197C37.233 8.79278 37.2421 8.79916 37.3268 8.74012Z" fill="#1C1C1C"/>
<path d="M33.2035 14.9631C33.4118 14.9475 33.6245 14.9593 33.8262 15.0175C34.2303 15.1339 34.5855 15.404 34.7859 15.7761C34.915 16.0159 35.0064 16.3474 34.9195 16.6158C34.8574 16.8076 34.7482 16.9538 34.5705 17.0486C34.2589 17.07 34.031 17.0213 33.7559 16.8669C33.7277 16.8511 33.6998 16.8346 33.6724 16.8175C33.645 16.8004 33.618 16.7825 33.5915 16.764C33.5649 16.7455 33.5389 16.7264 33.5133 16.7066C33.4877 16.6868 33.4627 16.6664 33.4381 16.6453C33.4135 16.6243 33.3895 16.6026 33.366 16.5804C33.3426 16.5581 33.3196 16.5353 33.2973 16.5119C33.275 16.4886 33.2532 16.4646 33.2321 16.4401C33.2109 16.4157 33.1904 16.3907 33.1705 16.3652C33.1506 16.3397 33.1314 16.3137 33.1128 16.2872C33.0942 16.2608 33.0762 16.2339 33.059 16.2065C33.0417 16.1792 33.0252 16.1514 33.0093 16.1232C32.9934 16.0951 32.9783 16.0665 32.9638 16.0376C32.9494 16.0086 32.9357 15.9794 32.9226 15.9497C32.9097 15.9201 32.8974 15.8902 32.886 15.8599C32.8745 15.8297 32.8637 15.7992 32.8537 15.7685C32.8438 15.7377 32.8346 15.7067 32.8262 15.6755C32.7801 15.5037 32.7583 15.3134 32.859 15.1555C32.9426 15.0245 33.0599 14.997 33.2035 14.9631Z" fill="white"/>
<path d="M33.2606 15.3521C33.4769 15.3524 33.6686 15.3687 33.8727 15.4496C34.1355 15.5537 34.3811 15.7439 34.4924 16.0108C34.5838 16.2301 34.5711 16.4453 34.4884 16.663C34.1484 16.6667 33.9001 16.5484 33.6515 16.3191C33.4488 16.1322 33.204 15.817 33.2003 15.5314C33.1991 15.4367 33.1936 15.4168 33.2606 15.3521Z" fill="#1C1C1C"/>
<path d="M51.9722 19.9437C52.0957 19.9391 52.2169 19.9411 52.3378 19.9702C52.7662 20.0733 53.1645 20.3664 53.3883 20.7454C53.6431 21.1768 53.7548 21.8563 53.6334 22.3361C53.5615 22.4099 53.5328 22.3981 53.433 22.4085C53.0017 22.3748 52.6502 22.2014 52.3493 21.8917C52.0183 21.5511 51.7028 20.9576 51.7253 20.4745C51.7357 20.2499 51.8101 20.0964 51.9722 19.9437Z" fill="white"/>
<path d="M52.0975 20.3251C52.3727 20.333 52.6726 20.4874 52.868 20.6762C53.2581 21.0531 53.2956 21.5456 53.3059 22.0531C53.0065 21.9516 52.7676 21.8103 52.5574 21.5698C52.2552 21.2241 52.0739 20.7868 52.0975 20.3251Z" fill="#1C1C1C"/>
<path d="M14.8623 56.6356C15.2731 56.8216 15.8018 57.3772 16.2461 57.6544C17.8969 58.6845 20.0908 58.5028 21.8983 58.0307C22.5767 57.8535 23.2344 57.6053 23.9179 57.4468L23.5884 57.6784C22.3766 58.4323 20.7269 58.8074 19.3095 58.8046C17.857 58.8018 16.1615 58.3002 15.1293 57.2257C14.9613 57.0507 14.853 56.8822 14.8623 56.6356Z" fill="white"/>
<path d="M31.5526 51.304C31.5745 51.3243 31.5616 51.3089 31.5746 51.3602C31.4853 51.4671 31.3946 51.5725 31.2963 51.6713C29.7976 53.1788 27.2426 54.2609 25.137 54.2509C24.0549 54.2459 22.6765 54.1093 21.8734 53.301C21.8669 53.2924 21.86 53.2841 21.8539 53.2752C21.7994 53.196 21.7516 53.122 21.7686 53.0269C22.2574 53.319 22.7304 53.5325 23.285 53.6732C25.7563 54.3001 27.8005 53.6384 29.8952 52.3692C30.457 52.0287 30.9887 51.6412 31.5526 51.304Z" fill="white"/>
<path d="M4.38036 43.7818C4.62191 44.0377 4.79968 45.3411 4.8916 45.7516C4.96618 46.0755 5.0499 46.3969 5.14275 46.716C5.42237 47.6813 5.8063 48.6075 6.15457 49.5488C6.43503 50.3068 6.66891 51.0878 7.04074 51.808C7.31112 52.3316 7.69165 52.7745 7.97511 53.2829L7.95861 53.3216C6.72266 52.6304 6.00458 50.2693 5.52461 48.9867C5.15421 47.997 3.97411 44.674 4.38036 43.7818Z" fill="white"/>
<path d="M43.5295 16.5406C43.6165 16.5307 43.709 16.5293 43.7958 16.5426C44.2474 16.6118 44.6657 17.0071 44.918 17.3721C45.155 17.7148 45.3287 18.1467 45.2431 18.5686C45.1971 18.7952 45.0855 18.9888 44.8931 19.1178C44.7883 19.1153 44.7087 19.1028 44.6152 19.0524C44.0209 18.732 43.3737 17.9092 43.1849 17.2626C43.1331 17.085 43.1055 16.882 43.2063 16.7157C43.2839 16.5879 43.394 16.5707 43.5295 16.5406Z" fill="white"/>
<path d="M43.5156 16.953C43.6331 16.9491 43.7482 16.9446 43.862 16.9792C44.2619 17.1007 44.6189 17.4528 44.8041 17.823C44.9531 18.1209 44.9664 18.3556 44.8687 18.6674L44.8167 18.7098C44.6639 18.7066 44.5538 18.6248 44.4396 18.53C43.9996 18.1648 43.5711 17.527 43.5156 16.953Z" fill="#1C1C1C"/>
<path d="M24.5528 12.7355C24.8941 12.7138 25.1725 12.7317 25.4857 12.8919C25.8051 13.0553 26.1033 13.3548 26.2101 13.7038C26.2536 13.8459 26.2573 13.9934 26.1837 14.1262C26.0534 14.3612 25.7646 14.4672 25.5198 14.5364C25.0666 14.5883 24.6377 14.5451 24.2401 14.2951C24.0044 14.1468 23.8016 13.9265 23.7416 13.6476C23.7047 13.4762 23.7256 13.3097 23.8223 13.1616C23.9832 12.9147 24.2786 12.7996 24.5528 12.7355Z" fill="white"/>
<path d="M24.5597 13.1206C24.8424 13.1037 25.1309 13.1328 25.3832 13.2718C25.6703 13.4299 25.7743 13.6507 25.8583 13.9501C25.7025 14.0466 25.564 14.1028 25.3854 14.1462C25.212 14.1517 25.0506 14.1538 24.8802 14.1118C24.6344 14.0513 24.2537 13.9086 24.1357 13.6694C24.1006 13.5984 24.0905 13.511 24.1278 13.4383C24.2105 13.2777 24.4039 13.1912 24.5597 13.1206Z" fill="#1C1C1C"/>
<path d="M26.4399 22.5292C26.4838 22.5228 26.5274 22.5181 26.5719 22.518C26.9834 22.5178 27.4436 22.7991 27.7311 23.0804C28.1321 23.4728 28.2667 23.9237 28.2711 24.469C28.1327 24.6175 27.9963 24.7087 27.8108 24.7917C27.5349 24.8608 27.2938 24.8682 27.0285 24.7515C26.6335 24.5777 26.3371 24.2188 26.1829 23.822C26.0625 23.5121 25.9482 23.0595 26.1041 22.7482C26.1752 22.606 26.3 22.5767 26.4399 22.5292Z" fill="white"/>
<path d="M26.4303 22.9162C26.6837 22.9025 26.86 22.9485 27.0817 23.0743C27.4128 23.2621 27.768 23.596 27.8618 23.9742C27.8964 24.1138 27.9015 24.2711 27.8288 24.3986C27.7055 24.4374 27.5865 24.4624 27.4563 24.4568C27.2014 24.4459 26.9627 24.3143 26.7931 24.128C26.4828 23.7871 26.4007 23.3613 26.4303 22.9162Z" fill="#1C1C1C"/>
<path d="M31.9094 43.2185C32.0126 43.213 32.125 43.2104 32.226 43.2346C32.5941 43.3231 32.8947 43.6343 33.0938 43.9437C33.3199 44.295 33.4586 44.7346 33.3566 45.1508C33.2874 45.4336 33.127 45.625 32.8806 45.7718C32.6623 45.8082 32.479 45.8161 32.2697 45.7325C31.9423 45.6019 31.7029 45.3204 31.5686 45.0006C31.3967 44.5914 31.3392 43.9469 31.5222 43.537C31.6043 43.3532 31.7293 43.2904 31.9094 43.2185Z" fill="white"/>
<path d="M31.936 43.5989C32.1548 43.5792 32.3075 43.6429 32.476 43.7831C32.7727 44.0298 33.0104 44.4568 33.0311 44.8435C33.0429 45.0622 32.9906 45.2107 32.8454 45.3724C32.8337 45.3755 32.8221 45.379 32.8104 45.3818C32.6069 45.4309 32.4225 45.4092 32.2454 45.2927C32.0045 45.1342 31.8685 44.853 31.8095 44.5784C31.7394 44.2529 31.75 43.884 31.936 43.5989Z" fill="#1C1C1C"/>
<path d="M43.4912 32.5259C43.7868 32.5652 44.0072 32.6961 44.215 32.9091C44.7015 33.4075 44.9756 34.1406 44.9659 34.8336C44.9627 35.0564 44.9305 35.3238 44.7547 35.4821C44.6444 35.5815 44.5403 35.5813 44.3989 35.5708C44.3144 35.5374 44.2325 35.4984 44.1533 35.4539C43.555 35.1138 43.0697 34.3273 42.9011 33.6742C42.8336 33.4126 42.7966 33.0943 42.9497 32.8545C43.0782 32.6532 43.2662 32.5716 43.4912 32.5259Z" fill="white"/>
<path d="M43.3664 32.8986C43.3866 32.8987 43.4069 32.8985 43.427 32.899C43.6795 32.9053 43.8801 33.0674 44.0427 33.2469C44.3894 33.6299 44.6726 34.3179 44.6321 34.8363C44.6207 34.9831 44.608 35.0903 44.4924 35.1871C44.3102 35.1185 44.1648 35.0351 44.0213 34.9013C43.6315 34.5377 43.2084 33.8424 43.2076 33.2976C43.2073 33.1185 43.2426 33.0268 43.3664 32.8986Z" fill="#1C1C1C"/>
</g>
<defs>
<clipPath id="clip0_107_4628">
<rect width="66" height="66" rx="10" fill="white"/>
</clipPath>
</defs>
</svg>
