<svg width="68" height="68" viewBox="0 0 68 68" fill="none" xmlns="http://www.w3.org/2000/svg">
<rect width="68" height="68" rx="12" fill="#1C1C1C"/>
<path d="M21.4126 46.4996C22.4493 47.0086 23.4944 47.4704 24.5776 47.8707C24.7555 47.9365 24.9341 48.0004 25.1134 48.0625C25.2926 48.1246 25.4725 48.1848 25.653 48.2432C25.8335 48.3016 26.0146 48.3581 26.1963 48.4127C26.3779 48.4673 26.5601 48.52 26.7429 48.5709C26.9257 48.6217 27.1089 48.6707 27.2927 48.7177C27.4765 48.7648 27.6607 48.8099 27.8454 48.8531C28.0301 48.8964 28.2153 48.9377 28.4008 48.9771C28.5864 49.0165 28.7724 49.054 28.9587 49.0895C29.145 49.1251 29.3317 49.1587 29.5187 49.1904C29.7058 49.2221 29.8931 49.2518 30.0808 49.2796C30.2684 49.3075 30.4563 49.3333 30.6445 49.3572C30.8327 49.3811 31.0211 49.4031 31.2098 49.4231C31.3984 49.4432 31.5873 49.4612 31.7762 49.4773C31.9653 49.4934 32.1544 49.5076 32.3438 49.5198C32.5331 49.532 32.7225 49.5422 32.912 49.5505C33.1015 49.5587 33.2911 49.565 33.4807 49.5694C33.6704 49.5738 33.8601 49.5761 34.0498 49.5765C34.2395 49.577 34.4292 49.5754 34.6188 49.5719C34.8085 49.5684 34.9981 49.5629 35.1877 49.5555C35.3772 49.5481 35.5667 49.5387 35.756 49.5273C35.9454 49.5159 36.1346 49.5026 36.3237 49.4874C36.5128 49.4721 36.7017 49.4549 36.8904 49.4357C37.0791 49.4165 37.2676 49.3954 37.4559 49.3723C37.6442 49.3492 37.8323 49.3242 38.02 49.2972C38.2078 49.2702 38.3953 49.2413 38.5824 49.2104C38.7697 49.1796 38.9565 49.1468 39.143 49.112C39.3295 49.0773 39.5156 49.0406 39.7013 49.0021C39.887 48.9635 40.0723 48.923 40.2572 48.8806C40.4422 48.8381 40.6266 48.7938 40.8106 48.7476C40.9946 48.7014 41.178 48.6532 41.361 48.6032C41.544 48.5532 41.7264 48.5012 41.9083 48.4474C42.0903 48.3936 42.2716 48.3379 42.4523 48.2803C43.4455 47.9636 44.4186 47.5941 45.3717 47.1718C45.8372 46.9625 46.2844 46.7183 46.7474 46.505C46.7013 47.2297 46.4537 47.814 45.999 48.3766C45.9208 48.4756 45.8333 48.5682 45.7472 48.6603C43.3345 51.2408 38.3285 52.123 34.9557 52.2389C31.2393 52.3668 25.5015 51.7096 22.677 49.0484C21.9474 48.361 21.4453 47.518 21.4126 46.4996Z" fill="white"/>
<path d="M10.3699 36.6154C10.4234 36.6522 10.4517 36.7061 10.4878 36.7592C10.4899 36.7836 10.5027 36.8096 10.4941 36.8326C10.4676 36.9023 9.85897 37.204 9.75676 37.2627C7.88712 38.3353 5.91197 39.7099 4.82774 41.6256C4.1109 42.8922 3.80033 44.4071 4.20069 45.826C4.92199 48.3825 7.97884 50.4939 10.1689 51.7292C11.4928 52.4761 12.8975 53.0715 14.3173 53.6093C23.6386 57.1404 35.7372 57.6223 45.5285 55.8633C47.0018 55.5987 48.4863 55.3009 49.9283 54.8992C54.0675 53.746 59.0997 51.9076 62.1197 48.7505C62.602 48.2463 63.0865 47.6749 63.4264 47.0652C64.0604 45.9286 64.0561 44.3605 63.7073 43.1306C62.8516 40.116 60.0072 38.3711 57.448 36.9376C57.4991 36.8562 57.5627 36.7868 57.6257 36.7148C58.0633 36.8865 58.4764 37.1375 58.884 37.3699C60.6117 38.4068 62.7494 39.9607 63.7128 41.761C64.3866 43.0192 64.5102 44.6708 64.092 46.0323C63.0491 49.4283 59.4644 51.8755 56.487 53.47C54.5352 54.5153 52.4351 55.3211 50.3226 55.9759C48.9301 56.4092 47.5217 56.7821 46.0972 57.0945C37.3427 58.9448 26.7192 58.7213 18.1609 56.1242C13.4904 54.707 6.81135 51.8034 4.3991 47.2428C3.66945 45.8633 3.45757 44.1754 3.93225 42.6745C4.84455 39.7899 7.84194 37.9353 10.3699 36.6154Z" fill="white"/>
<path d="M10.7637 37.1923C10.9013 37.241 11.5348 38.1805 11.6836 38.3702C12.5129 39.428 13.3804 40.4338 14.3334 41.3827C16.3661 43.4067 18.4499 44.8152 20.9099 46.2554C20.9089 46.3146 20.9085 46.3738 20.9089 46.4331C20.9171 47.5952 21.4544 48.5559 22.2718 49.3547C25.1218 52.1404 30.7745 52.8197 34.5597 52.7761C38.0964 52.7354 43.4602 51.7671 46.0267 49.1136C46.8225 48.2909 47.262 47.4008 47.2388 46.2489C51.0536 44.2221 54.7759 40.9194 57.174 37.3141C59.6934 38.6951 62.4392 40.3444 63.347 43.2673C63.6917 44.377 63.6768 45.7891 63.1251 46.8265C61.9354 48.7841 59.842 50.2423 57.8837 51.3416C49.2247 56.2021 35.9106 57.0907 26.1833 55.9369C24.7848 55.7709 23.3946 55.5518 22.0128 55.2798C20.631 55.0077 19.2616 54.6834 17.9045 54.307C13.9065 53.1794 7.08969 50.4847 4.97444 46.6559C4.38074 45.5811 4.2764 44.2725 4.62464 43.1011C5.46187 40.2851 8.33935 38.5156 10.7637 37.1923Z" fill="white"/>
<path d="M6.69458 23.7668C7.00345 24.136 7.22899 24.5847 7.53596 24.9629C8.59735 26.2705 9.97578 27.2978 11.4096 28.1617C18.9159 32.6843 31.1961 33.7464 39.8046 32.9472C41.1001 32.8256 42.389 32.6541 43.6712 32.4327C44.9534 32.2114 46.2252 31.9408 47.4865 31.621C51.6094 30.599 57.1567 28.5391 60.0899 25.3552C60.5213 24.887 60.8843 24.3773 61.2119 23.8331C61.099 24.8451 60.969 25.83 60.7583 26.829C60.7248 26.9854 60.6899 27.1415 60.6537 27.2973C60.6175 27.4531 60.58 27.6085 60.5411 27.7637C60.5022 27.9188 60.4619 28.0736 60.4204 28.228C60.3788 28.3825 60.3359 28.5365 60.2916 28.6902C60.2474 28.8439 60.2018 28.9972 60.1549 29.1501C60.108 29.303 60.0598 29.4555 60.0103 29.6076C59.9607 29.7596 59.9099 29.9112 59.8577 30.0625C59.8055 30.2136 59.7521 30.3643 59.6973 30.5146C59.6426 30.6649 59.5865 30.8147 59.5291 30.964C59.4717 31.1133 59.4131 31.262 59.3532 31.4103C59.2932 31.5586 59.232 31.7063 59.1695 31.8536C59.107 32.0008 59.0432 32.1475 58.9782 32.2935C58.9131 32.4397 58.8468 32.5852 58.7793 32.7302C58.7117 32.8751 58.6429 33.0195 58.5728 33.1633C58.5028 33.3071 58.4315 33.4502 58.3589 33.5927C58.2864 33.7353 58.2127 33.8772 58.1377 34.0184C58.0627 34.1597 57.9865 34.3003 57.909 34.4403C57.8316 34.5802 57.753 34.7195 57.6731 34.858C57.5933 34.9966 57.5122 35.1345 57.43 35.2717C57.3478 35.4088 57.2644 35.5453 57.1798 35.681C57.0952 35.8168 57.0095 35.9518 56.9225 36.086C56.8356 36.2203 56.7475 36.3538 56.6583 36.4865C56.569 36.6192 56.4787 36.7511 56.3872 36.8823C56.2956 37.0134 56.203 37.1438 56.1092 37.2734C56.0154 37.4029 55.9205 37.5317 55.8245 37.6596C55.7285 37.7875 55.6314 37.9146 55.5332 38.0408C55.435 38.1671 55.3357 38.2924 55.2353 38.4169C55.135 38.5414 55.0335 38.6651 54.931 38.7878C54.8285 38.9106 54.7249 39.0325 54.6203 39.1534C54.5157 39.2744 54.41 39.3944 54.3033 39.5136C54.1966 39.6327 54.0888 39.7509 53.9801 39.8681C53.8714 39.9854 53.7616 40.1017 53.6508 40.2171C53.4995 40.3779 53.3461 40.5368 53.1909 40.6939C53.0356 40.8509 52.8784 41.0061 52.7193 41.1592C52.5602 41.3124 52.3993 41.4636 52.2365 41.6129C52.0737 41.7621 51.9091 41.9093 51.7427 42.0545C51.5763 42.1997 51.4082 42.3428 51.2383 42.4839C51.0683 42.625 50.8967 42.7639 50.7234 42.9008C50.5501 43.0376 50.3751 43.1724 50.1984 43.3049C50.0218 43.4375 49.8436 43.5678 49.6637 43.696C49.4839 43.8242 49.3026 43.9502 49.1197 44.0739C48.9367 44.1977 48.7523 44.3192 48.5664 44.4384C48.3805 44.5576 48.1932 44.6745 48.0044 44.7891C47.8156 44.9038 47.6255 45.0161 47.4339 45.126C47.2424 45.236 47.0496 45.3436 46.8554 45.4487C46.6613 45.554 46.4658 45.6568 46.2691 45.7572C46.0724 45.8577 45.8745 45.9557 45.6754 46.0513C45.4763 46.1468 45.2761 46.2399 45.0748 46.3306C44.8734 46.4213 44.6709 46.5094 44.4674 46.5952C44.2638 46.6808 44.0593 46.764 43.8537 46.8447C43.6481 46.9253 43.4416 47.0035 43.2341 47.0791C43.0266 47.1547 42.8182 47.2277 42.6089 47.2982C42.3996 47.3687 42.1895 47.4366 41.9785 47.502C41.7676 47.5673 41.5558 47.63 41.3433 47.6902C41.1308 47.7503 40.9176 47.8078 40.7037 47.8628C40.4898 47.9177 40.2752 47.9699 40.0601 48.0196C39.8449 48.0692 39.6291 48.1162 39.4128 48.1605C39.1964 48.2049 38.9796 48.2466 38.7622 48.2856C38.5448 48.3247 38.327 48.361 38.1088 48.3947C37.8905 48.4284 37.6719 48.4594 37.4529 48.4877C37.2338 48.516 37.0145 48.5416 36.7948 48.5646C36.5752 48.5875 36.3553 48.6078 36.1352 48.6253C35.915 48.6428 35.6947 48.6577 35.4741 48.6698C35.2536 48.6819 35.033 48.6914 34.8123 48.6981C34.587 48.7027 34.3617 48.7045 34.1365 48.7035C33.9112 48.7026 33.6859 48.6989 33.4607 48.6923C33.2355 48.6858 33.0104 48.6765 32.7855 48.6644C32.5605 48.6524 32.3357 48.6376 32.1111 48.62C31.8864 48.6023 31.6621 48.582 31.438 48.5588C31.2139 48.5357 30.9901 48.5098 30.7666 48.4811C30.5431 48.4524 30.3201 48.421 30.0974 48.3869C29.8747 48.3527 29.6524 48.3158 29.4307 48.2762C29.2089 48.2366 28.9876 48.1942 28.7669 48.149C28.5462 48.104 28.326 48.0561 28.1064 48.0056C27.8869 47.9551 27.668 47.9019 27.4498 47.846C27.2315 47.79 27.014 47.7314 26.7972 47.6702C26.5804 47.6089 26.3644 47.5449 26.1492 47.4783C25.9339 47.4117 25.7195 47.3424 25.506 47.2705C25.2925 47.1986 25.0799 47.1241 24.8682 47.0469C24.6565 46.9698 24.4459 46.8901 24.2362 46.8077C24.0265 46.7254 23.8178 46.6405 23.6102 46.553C23.4026 46.4655 23.196 46.3755 22.9906 46.2829C22.7852 46.1903 22.581 46.0952 22.3779 45.9976C22.1749 45.9 21.9731 45.7999 21.7725 45.6973C21.5719 45.5948 21.3726 45.4897 21.1746 45.3822C20.9766 45.2747 20.78 45.1648 20.5847 45.0524C20.3894 44.9401 20.1956 44.8253 20.0031 44.7082C19.8106 44.591 19.6196 44.4716 19.4301 44.3498C19.2406 44.2279 19.0527 44.1037 18.8662 43.9773C18.6798 43.8508 18.4949 43.722 18.3117 43.591C18.1284 43.4599 17.9467 43.3267 17.7667 43.1912C17.5867 43.0557 17.4085 42.9179 17.2319 42.778C17.0553 42.6381 16.8804 42.496 16.7074 42.3519C16.5343 42.2076 16.363 42.0613 16.1935 41.9128C16.024 41.7644 15.8564 41.6139 15.6907 41.4613C15.5249 41.3087 15.361 41.1541 15.1991 40.9975C14.8994 40.7117 14.6063 40.4192 14.3198 40.1201C14.0332 39.821 13.7536 39.5156 13.4809 39.2039C13.2082 38.8922 12.9426 38.5745 12.6842 38.2508C12.4258 37.9271 12.1748 37.5978 11.9313 37.2628C11.6878 36.9278 11.452 36.5874 11.2238 36.2418C10.9956 35.8961 10.7754 35.5455 10.563 35.1899C10.3507 34.8343 10.1465 34.4741 9.9504 34.1092C9.75431 33.7445 9.56656 33.3754 9.38715 33.0021C9.12333 32.4546 8.83234 31.8857 8.63032 31.3129C16.638 37.9166 28.354 39.4265 38.4091 38.6433C44.1853 38.1934 50.5454 36.7015 55.5699 33.7469C56.2734 33.3332 57.4487 32.6468 57.9645 32.0436C57.3491 32.2679 56.7863 32.6786 56.2195 33.0059C55.4042 33.478 54.57 33.9138 53.7168 34.3133C49.4918 36.2656 44.8916 37.4363 40.2759 37.9811C31.1876 39.0539 20.3402 38.025 12.319 33.3909C10.9012 32.5717 9.59984 31.5424 8.31749 30.5302C7.69138 28.9354 7.29588 27.2318 6.97769 25.5519C6.86676 24.9663 6.74276 24.3607 6.69458 23.7668Z" fill="white"/>
<path d="M33.2691 9.84821C33.3539 9.84651 33.4387 9.84525 33.5235 9.84444C40.1893 9.77486 47.7574 10.736 53.8621 13.4861C55.8532 14.3831 57.8015 15.5102 59.3681 17.0483C60.5005 18.16 61.4441 19.6124 61.4513 21.2494C61.4584 22.8516 60.556 24.2927 59.453 25.3942C55.1695 29.6717 46.2218 31.8071 40.3246 32.4667C38.4514 32.6599 36.5734 32.7554 34.6903 32.7534C33.5315 32.7593 32.3678 32.693 31.2112 32.6274C29.1808 32.5122 27.135 32.3449 25.1228 32.0446C20.3297 31.329 15.0648 29.9986 10.9656 27.3417C10.2187 26.8576 9.48418 26.3282 8.84006 25.7115C7.66349 24.585 6.51769 22.9946 6.49034 21.3087C6.46502 19.7483 7.34215 18.3949 8.39437 17.3127C9.8779 15.787 11.8122 14.682 13.7286 13.7986C19.758 11.0193 26.6676 9.9565 33.2691 9.84821Z" fill="white"/>
<path d="M33.0675 10.3041C33.1005 10.3029 33.1334 10.3019 33.1663 10.3012C40.7605 10.1481 52.8117 11.6735 58.4749 17.0721C59.614 18.158 60.6037 19.6031 60.6326 21.231C60.6603 22.7915 59.8132 24.1581 58.7568 25.2447C54.891 29.2215 46.0383 31.247 40.6753 31.8947C39.7269 32.0049 38.7761 32.0889 37.823 32.1465C36.8699 32.2041 35.9159 32.2352 34.9611 32.24C27.6274 32.2678 15.0044 30.4731 9.48436 25.3374C8.34805 24.2803 7.38713 22.9539 7.33713 21.3464C7.29213 19.8995 8.01599 18.651 8.98466 17.625C10.154 16.3865 11.5994 15.4569 13.0959 14.6628C19.0252 11.5165 26.4239 10.5021 33.0675 10.3041Z" fill="#1C1C1C"/>
<path d="M30.246 21.0211C30.6055 21.0889 30.9868 21.3099 31.318 21.4647L31.2786 21.9582L31.2622 21.9626C31.0686 21.8787 30.45 21.2155 30.246 21.0211Z" fill="white"/>
<path d="M36.4749 16.4601C36.5478 16.6134 36.5867 16.7928 36.6412 16.9545C36.7381 17.2424 36.8453 17.5173 36.9741 17.7927L36.7145 17.955L36.4574 18.1431C36.456 18.138 36.4546 18.1329 36.4531 18.1278C36.2979 17.5997 36.4208 16.998 36.4749 16.4601Z" fill="white"/>
<path d="M41.7512 25.528C42.3331 25.6347 42.8255 25.7517 43.3609 26.015C43.2376 26.0379 43.1128 26.0543 42.9886 26.0728C42.5106 26.1415 42.0313 26.2006 41.5509 26.2501C41.6003 26.0058 41.6798 25.7667 41.7512 25.528Z" fill="white"/>
<path d="M36.9209 18.0808L37.0224 18.0915C37.2373 18.2804 37.6542 19.6445 37.7676 19.9755C37.7629 19.9728 37.7584 19.9698 37.7535 19.9674C37.6916 19.9371 37.6554 19.9057 37.6059 19.8574C37.1776 19.3966 36.7756 18.8494 36.5034 18.2824C36.6422 18.1953 36.764 18.1321 36.9209 18.0808Z" fill="white"/>
<path d="M40.4156 25.372C40.752 25.4001 41.0874 25.4377 41.4217 25.4849C41.3898 25.7517 41.3427 26.0177 41.3011 26.2832C40.9815 26.3077 40.6594 26.3035 40.339 26.3062C40.3429 25.9926 40.352 25.6799 40.4156 25.372Z" fill="white"/>
<path d="M35.682 20.0728C36.2604 20.0391 36.8113 20.1021 37.3079 20.4141C36.9109 20.4875 36.6024 20.5818 36.2352 20.7566C36.222 20.7632 36.1646 20.7769 36.1508 20.7751C36.0021 20.7547 35.6751 20.5698 35.5163 20.5109C35.2367 20.4074 34.9526 20.3387 34.662 20.2754C34.9967 20.1447 35.325 20.0935 35.682 20.0728Z" fill="white"/>
<path d="M41.2595 19.1091C41.4507 19.2174 41.6231 19.3448 41.7914 19.4853C41.3821 19.7947 40.8559 20.177 40.353 20.3109C40.1314 20.3699 39.8822 20.3795 39.6539 20.4027C39.4995 20.4081 39.3419 20.4472 39.1901 20.475C39.8876 20.0259 40.5859 19.5948 41.2595 19.1091Z" fill="white"/>
<path d="M37.0994 20.5815C37.2315 20.5689 37.3657 20.5702 37.495 20.6042C37.6271 20.6389 37.7121 20.6861 37.7793 20.8097C37.7857 20.87 37.7863 20.9049 37.7625 20.9626C37.6233 21.3001 36.8293 21.6518 36.5023 21.7708C36.3382 21.8258 36.137 21.8817 35.963 21.8694L35.9212 21.8107C35.917 21.7103 35.9513 21.6387 36.0012 21.5547C36.2663 21.1092 36.5783 20.7174 37.0994 20.5815Z" fill="white"/>
<path d="M31.5584 21.6229C32.1006 21.9022 32.5244 22.203 32.8069 22.756C32.6873 22.9562 32.5872 23.1573 32.5018 23.3741L32.4344 23.6386L32.391 23.6494C32.2729 23.5697 32.1858 23.4468 32.1062 23.3301C31.9307 23.073 31.5149 22.3997 31.4948 22.1066C31.484 21.9504 31.5298 21.7764 31.5584 21.6229Z" fill="white"/>
<path d="M39.0151 24.6078C40.2546 24.4528 41.7738 24.7741 42.8395 25.4188C42.4785 25.3397 42.1166 25.2651 41.7537 25.195C40.3913 24.9404 39.0079 24.8932 37.6261 24.8913C38.083 24.7377 38.5364 24.6569 39.0151 24.6078Z" fill="white"/>
<path d="M39.8528 18.2278L39.8726 18.2316L39.892 18.2622C39.7809 18.4937 39.6477 18.7168 39.5441 18.9511C39.3909 19.2976 39.2953 19.8682 39.0278 20.1353C38.8622 20.3007 38.5969 20.3979 38.397 20.524C38.3032 20.3494 38.317 20.006 38.3686 19.8214C38.566 19.1151 39.2434 18.5717 39.8528 18.2278Z" fill="white"/>
<path d="M43.4322 16.8637C43.4431 16.8935 43.4492 16.9037 43.4492 16.9396C43.4491 17.1098 43.3529 17.3529 43.2877 17.5093C42.9763 18.2573 42.5451 18.8335 41.9408 19.3702L41.6854 19.1531L41.4154 18.9452C41.838 18.5713 42.236 18.1729 42.6094 17.7499C42.8731 17.4565 43.1249 17.1101 43.4322 16.8637Z" fill="white"/>
<path d="M36.7745 22.1334L36.836 22.1475C36.8797 22.2463 36.8704 22.3367 36.8476 22.44C36.7896 22.7028 36.6521 22.8841 36.4249 23.0273C36.003 23.2932 35.4095 23.3865 34.9274 23.2708L34.8771 23.2185C34.9297 23.0364 35.484 22.4536 35.639 22.2099C36.0701 22.2983 36.3568 22.2546 36.7745 22.1334Z" fill="white"/>
<path d="M52.1322 26.7579L52.1467 26.7679C52.1507 26.843 52.1057 26.8963 52.0636 26.9549C51.6031 27.5956 50.7439 27.9147 49.9938 28.0398C48.8751 28.2265 47.5584 28.0314 46.6212 27.3681C46.5345 27.2827 46.4544 27.1898 46.3723 27.1C47.2287 27.5489 48.1127 27.7752 49.0832 27.7838C50.1726 27.7934 51.3351 27.5478 52.1322 26.7579Z" fill="white"/>
<path d="M40.9029 20.7439C41.5448 20.7391 42.2943 20.8091 42.9114 20.9952C42.3022 21.2002 41.7087 21.3958 41.0688 21.4834C41.0232 21.4897 40.9776 21.4949 40.9318 21.499C40.886 21.5031 40.8402 21.5062 40.7942 21.5082C40.7483 21.5101 40.7024 21.511 40.6564 21.5107C40.6105 21.5105 40.5645 21.5092 40.5186 21.5068C40.4727 21.5044 40.4269 21.5008 40.3811 21.4962C40.3354 21.4916 40.2898 21.4859 40.2444 21.4792C40.1989 21.4724 40.1536 21.4645 40.1085 21.4556C40.0635 21.4467 40.0186 21.4367 39.974 21.4256C39.9294 21.4145 39.885 21.4024 39.841 21.3892C39.797 21.3761 39.7533 21.3618 39.7099 21.3466C39.6666 21.3313 39.6236 21.315 39.581 21.2978C39.5384 21.2805 39.4963 21.2622 39.4545 21.2428C39.4129 21.2235 39.3717 21.2032 39.3309 21.182C39.2901 21.1607 39.2499 21.1384 39.2102 21.1153C39.1705 21.092 39.1314 21.0679 39.0929 21.0429C39.0543 21.0178 39.0164 20.9919 38.9791 20.965C39.5995 20.8038 40.2643 20.7716 40.9029 20.7439Z" fill="white"/>
<path d="M29.5916 20.8433C30.0717 21.099 30.8562 21.9233 31.1423 22.3844C31.3486 22.7167 31.5054 23.087 31.703 23.4272C31.2816 23.3174 30.8718 23.1906 30.5143 22.9331C29.7929 22.4135 29.7182 21.6563 29.5916 20.8433Z" fill="white"/>
<path d="M36.7053 15.9786C37.5135 16.7876 38.2501 17.5189 38.4841 18.6813L38.2013 19.0934L38.008 19.417C37.5298 18.3816 37.0242 17.0676 36.7053 15.9786Z" fill="white"/>
<path d="M37.1156 25.1758C37.9965 25.1364 39.2371 25.211 40.1223 25.3307C40.0559 25.6367 40.0539 25.9484 40.0496 26.2599C40.0366 26.2735 39.999 26.2887 39.9818 26.2978C38.8234 26.2835 38.0115 25.882 37.1156 25.1758Z" fill="white"/>
<path d="M35.1969 24.4255C35.3148 24.4137 35.4443 24.4177 35.5623 24.4266C35.8706 24.4499 36.6112 24.5396 36.818 24.7763C36.8188 24.8523 36.8161 24.8664 36.7587 24.9246C36.4704 25.2177 35.223 25.2628 34.815 25.2565C34.3011 25.2212 33.7227 25.2118 33.2425 25.0039C33.1833 24.9783 33.1766 24.9811 33.1541 24.9182C33.1601 24.9094 33.1651 24.8996 33.1723 24.8916C33.3954 24.6436 34.8462 24.4537 35.1969 24.4255Z" fill="white"/>
<path d="M42.4718 17.3227L42.4996 17.3304C42.4562 17.4772 42.2188 17.6701 42.1047 17.7842C41.3448 18.5435 40.5792 19.1693 39.662 19.7329C39.6138 19.7207 39.6364 19.734 39.6023 19.6816C39.6447 19.1452 39.995 18.5078 40.2663 18.0524C40.9878 17.7707 41.7443 17.59 42.4718 17.3227Z" fill="white"/>
<path d="M35.5472 21.46L35.6014 21.4747C35.5516 21.9359 33.4842 24.0042 33.0515 24.3897C33.0251 24.3446 32.9988 24.2984 32.9795 24.2497C32.8697 23.9713 32.9155 23.6227 33.0285 23.3533C33.4325 22.3902 34.6433 21.8354 35.5472 21.46Z" fill="white"/>
<path d="M29.3226 24.2425C30.3048 24.1314 31.6843 24.2191 32.5855 24.6008C32.578 24.6115 32.5707 24.6222 32.5631 24.6327C32.2887 25.012 31.9465 25.1077 31.5062 25.1713C30.3422 25.2263 29.2586 24.8238 28.2074 24.369C28.5794 24.3171 28.9482 24.273 29.3226 24.2425Z" fill="white"/>
<path d="M37.238 15.8427C38.7072 15.9411 40.1755 16.0301 41.6366 16.22C42.1691 16.2892 42.7251 16.3382 43.2421 16.4856C42.8435 16.7257 42.4288 16.8988 41.9814 17.024C40.8973 17.2826 39.892 17.6153 38.9403 18.2154C38.6866 17.5494 38.2636 16.9805 37.7843 16.4583C37.6242 16.2838 37.3331 16.0542 37.238 15.8427Z" fill="white"/>
<path d="M49.3044 24.8823C50.0542 24.8757 50.8954 24.975 51.5432 25.3865C51.7335 25.5075 51.9208 25.6716 51.9636 25.9046C51.9939 26.0702 51.9352 26.2261 51.8369 26.358C51.4088 26.9325 50.4962 27.1604 49.8254 27.2411C48.9461 27.3836 47.8658 27.2443 47.0579 26.868C47.1894 26.7929 47.3175 26.7123 47.4422 26.6263C48.0604 26.2068 48.5785 25.6628 48.7211 24.91L49.3044 24.8823Z" fill="white"/>
<path d="M46.5884 23.9047C46.9993 23.8629 47.4297 23.9157 47.81 24.0823C48.0012 24.1662 48.176 24.2924 48.25 24.4957C48.337 24.7344 48.2502 25.0268 48.1383 25.2424C47.6845 26.1176 46.6016 26.6446 45.7031 26.9141L45.6587 26.9238C45.2656 27.0094 44.653 27.1267 44.2994 26.8823C44.1824 26.8016 44.1101 26.6852 44.0854 26.5458C44.0052 26.0936 44.3306 25.4905 44.5952 25.1402C45.09 24.4851 45.7723 24.0232 46.5884 23.9047Z" fill="white"/>
<path d="M33.5126 10.7302C40.4912 10.6305 50.308 11.9552 56.2 15.8405C57.822 16.91 59.6762 18.5002 60.0743 20.4884C60.3476 21.8534 59.889 23.0465 59.1422 24.1708C58.7452 23.4025 58.3155 22.6853 57.7318 22.0402C54.301 18.2483 46.9606 16.4127 42.0386 15.7493C40.2536 15.5087 38.4576 15.3986 36.66 15.3095C36.5706 15.22 36.4339 15.0516 36.3177 15.0057C36.2327 14.9721 36.2178 14.9865 36.1408 15.0233C36.0659 15.113 36.0563 15.192 36.0373 15.3053C35.5632 15.292 35.0889 15.2865 34.6146 15.2887C29.8312 15.3221 25.0894 15.8283 20.4748 17.1195C17.5666 17.9332 13.8657 19.3986 11.5447 21.3663C10.5468 22.2122 9.74278 23.1677 9.10088 24.3082C8.4071 23.4166 7.80626 22.4693 7.76486 21.3039C7.71891 20.0109 8.39146 18.8659 9.25172 17.9512C12.7585 14.2225 20.1436 12.1696 25.0944 11.4156C27.8852 10.9906 30.693 10.8137 33.5126 10.7302Z" fill="white"/>
<path d="M17.6485 18.5582C19.0108 18.027 20.4485 17.6211 21.867 17.2724C26.5834 16.1129 31.2176 15.7433 36.0641 15.8312C36.0261 16.3085 35.9624 16.7737 35.8978 17.2477C35.7474 18.3501 36.2189 18.8948 36.8474 19.7229C36.8247 19.7173 36.8019 19.7115 36.779 19.7068C35.9426 19.5346 34.6757 19.6353 33.9532 20.1261C33.86 20.1895 33.7898 20.2537 33.7653 20.3682C33.7988 20.4541 33.8301 20.4897 33.9162 20.527C34.0864 20.6006 34.2966 20.6171 34.4792 20.6509C34.8315 20.7161 35.1611 20.8105 35.4799 20.9748C35.2627 21.111 35.0074 21.2124 34.775 21.3227C34.159 21.6153 33.6435 21.9237 33.1502 22.4017C32.9937 22.1567 32.8122 21.9445 32.5933 21.7528C32.3542 21.5434 32.0957 21.3871 31.8181 21.2343C31.4465 21.0297 29.1497 19.9244 28.8829 19.9416L28.8562 20.0057C28.8911 20.2451 29.0489 20.4464 29.1073 20.6813C29.2535 21.2693 29.2112 21.8984 29.4786 22.4537C29.8573 23.2397 30.5837 23.5334 31.3561 23.8089C30.39 23.7011 29.4349 23.7526 28.4737 23.8773C28.2 23.9128 27.2237 24.0239 27.0777 24.2139L27.0932 24.2781C27.3804 24.6372 29.2113 25.273 29.7363 25.4189C30.0647 25.5114 30.3984 25.5776 30.7373 25.6174C31.4904 25.7011 32.1339 25.6437 32.737 25.1566C32.8949 25.3012 33.0825 25.3928 33.2753 25.4804C33.3732 25.705 33.5247 25.9435 33.562 26.1852C33.5876 26.3505 33.5733 26.5184 33.5988 26.6848L33.6418 26.7027C33.7577 26.6185 33.8749 26.4622 33.9029 26.3181C33.9604 26.0227 33.7264 25.7609 33.5659 25.5412C34.676 25.8326 35.8139 25.7604 36.8791 25.3549C37.0286 25.5191 37.1855 25.6719 37.3575 25.8125C37.7287 26.1162 38.1702 26.4431 38.6273 26.6035C39.8444 27.0305 42.2322 26.5421 43.5759 26.4101C43.6455 26.7641 43.7242 27.0958 44.0483 27.306C44.5366 27.6229 45.3025 27.5119 45.8396 27.4102C46.8421 28.2381 47.8793 28.5732 49.1824 28.5775C50.1837 28.5807 51.4728 28.2854 52.202 27.5505C52.5169 27.2331 52.6671 26.8636 52.6649 26.4168C52.6629 25.9908 52.5149 25.6297 52.2092 25.3307C51.2954 24.4367 49.9149 24.4105 48.7239 24.4144C48.4952 24.0304 48.193 23.7709 47.7712 23.6222C47.0664 23.3738 46.2253 23.4831 45.5606 23.801C44.8017 24.1639 44.0232 24.914 43.7382 25.7162C43.3442 25.4105 42.949 25.0888 42.5164 24.8393C40.7971 23.8473 39.134 24.0878 37.3153 24.567C36.6823 23.9999 36.0571 24.0841 35.3179 23.8561C35.3097 23.8535 35.3014 23.8508 35.2932 23.8481C35.5505 23.8024 35.8113 23.7568 36.0619 23.6816C36.6006 23.52 36.9376 23.2218 37.2017 22.7273C37.2673 22.4543 37.2595 22.2204 37.2109 21.9484C37.6055 21.6908 37.9815 21.422 38.1984 20.9908C39.152 21.5737 39.7966 22.099 40.9825 21.9563C41.4635 21.8984 43.4917 21.3841 43.7608 20.9869C43.7904 20.9431 43.7802 20.9533 43.7686 20.8964C43.3645 20.5062 41.9589 20.3783 41.3614 20.291C41.4474 20.2479 41.5322 20.2024 41.6157 20.1545C43.0151 19.3494 43.5908 18.1147 43.9914 16.6127C45.6175 16.928 47.2282 17.2439 48.8166 17.7233C51.9256 18.6614 55.7053 20.3066 57.7893 22.9092C58.1954 23.4163 58.5098 23.9883 58.816 24.5588C57.7316 25.8074 56.1642 26.8889 54.6552 27.5539C54.4378 27.5119 54.2086 27.4583 53.9884 27.5119C53.4453 27.6441 52.8278 27.9843 52.2978 28.1966C51.3294 28.5862 50.3441 28.9263 49.3417 29.2172C48.1155 29.5876 46.8791 29.92 45.6325 30.2146C44.8622 30.3847 44.0883 30.5371 43.311 30.6718C42.5336 30.8065 41.7536 30.9233 40.9709 31.0222C40.1883 31.1212 39.4037 31.2022 38.6173 31.2652C37.8309 31.3282 37.0435 31.3731 36.255 31.4C34.3876 31.4525 32.5205 31.4423 30.6537 31.3695C28.921 31.3094 27.1736 31.2307 25.4539 31.0057C24.2693 30.8506 23.0971 30.6073 21.9319 30.3459C18.1679 29.5012 14.1627 28.2567 10.988 26.002C10.4309 25.6063 9.9358 25.1403 9.43591 24.6763C10.5168 22.5989 12.4237 21.2062 14.4139 20.0824C14.9318 19.7855 15.4607 19.5099 16.0007 19.2554C16.5406 19.001 17.0899 18.7686 17.6485 18.5582Z" fill="white"/>
<path d="M18.1114 23.0478L18.1237 23.0552C18.1029 23.1173 18.0311 23.1454 17.9749 23.1765C17.1938 23.6074 16.258 23.6822 15.4102 23.4415L15.3184 23.3976C15.4853 23.3385 15.9326 23.4475 16.1398 23.4487C16.2242 23.4484 16.3085 23.446 16.3928 23.4416C16.477 23.4372 16.5612 23.4306 16.6451 23.422C16.7291 23.4134 16.8128 23.4028 16.8962 23.3901C16.9796 23.3773 17.0627 23.3626 17.1454 23.3458C17.2281 23.329 17.3103 23.3101 17.3921 23.2892C17.4739 23.2684 17.5551 23.2455 17.6357 23.2206C17.7164 23.1957 17.7964 23.1689 17.8757 23.1401C17.955 23.1113 18.0336 23.0805 18.1114 23.0478Z" fill="#1C1C1C"/>
<path d="M13.2968 22.7435C13.3081 22.7514 13.3112 22.7673 13.3171 22.7799C12.858 23.1351 11.7511 23.6783 11.2033 23.9681L11.1888 23.9455C11.6585 23.4344 12.6335 22.9428 13.2968 22.7435Z" fill="#1C1C1C"/>
<path d="M37.202 22.7271L37.2328 22.7238C37.6717 22.6805 38.0955 22.7149 38.526 22.5911C38.7356 22.5308 38.9245 22.4473 39.1015 22.3182C39.157 22.2777 39.1776 22.2465 39.2504 22.243C39.2587 22.3161 39.2414 22.3586 39.2151 22.4265C38.9572 22.749 38.6507 22.9268 38.2336 22.9708C37.9422 23.0016 37.5265 22.998 37.2843 22.8154C37.2505 22.7899 37.2264 22.7613 37.202 22.7271Z" fill="#1C1C1C"/>
<path d="M41.3296 23.0225C41.8174 22.9607 43.286 23.1855 43.8979 23.235C44.2501 23.2635 44.9415 23.2653 45.2297 23.3328C45.2621 23.3404 45.2735 23.35 45.2987 23.3661C44.4349 23.4695 42.07 23.4232 41.3296 23.0225Z" fill="#1C1C1C"/>
<path d="M51.5227 19.942C51.9009 19.972 52.2888 20.2117 52.5999 20.4172C53.0536 20.7167 54.0049 21.4515 54.1205 22.0119C53.8374 21.6522 53.4863 21.3569 53.1216 21.0828C52.8568 20.8838 51.6002 20.1319 51.5146 19.9757L51.5519 19.9759L51.5227 19.942Z" fill="#1C1C1C"/>
<path d="M31.5981 16.4224L31.6983 16.4357C31.6454 16.4967 31.4283 16.5023 31.3448 16.5105C29.677 16.674 27.782 16.7372 26.3108 17.6194L26.2609 17.639L26.245 17.6131C26.2687 17.5694 26.2919 17.5315 26.3267 17.4955C27.3044 16.4875 30.2326 16.4515 31.5981 16.4224Z" fill="#1C1C1C"/>
<path d="M47.1241 17.6074C47.914 17.6045 48.8121 17.8826 49.5508 18.1554C48.9175 18.1397 48.3313 17.9539 47.7107 17.8619C47.0729 17.7673 46.446 17.8852 45.8246 18.0238C45.5112 18.1073 45.1899 18.1919 44.8836 18.2979C44.5675 18.4072 44.191 18.6537 43.8613 18.6739L43.8814 18.6429C44.0861 18.5552 44.2688 18.4317 44.4703 18.3388C45.321 17.9466 46.1841 17.6636 47.1241 17.6074Z" fill="#1C1C1C"/>
<path d="M50.2363 23.3193C50.8245 23.3513 52.1055 24.126 52.717 24.3999C53.163 24.5974 53.6201 24.7644 54.0885 24.9008C54.4139 24.9927 54.7787 25.0515 55.0851 25.194C53.7582 25.3752 51.3737 24.0331 50.2363 23.3193Z" fill="#1C1C1C"/>
<path d="M29.1212 30.0668C30.1356 30.4103 31.1727 30.5779 32.2432 30.4683C32.5207 30.4405 32.7953 30.3958 33.0671 30.334C33.2247 30.2989 33.9445 30.0564 34.0552 30.0954L33.9283 30.174C33.0141 30.6908 31.85 30.9058 30.8104 30.774C30.2859 30.7075 29.462 30.5019 29.1212 30.0668Z" fill="#1C1C1C"/>
<path d="M28.0263 21.196C28.0777 21.1862 28.1338 21.19 28.1863 21.1893C28.1735 21.2005 28.1625 21.2142 28.1479 21.2229C27.9184 21.3587 27.1013 21.4783 26.7358 21.6287C26.2559 21.826 25.829 22.1346 25.3579 22.3549C24.1097 22.9388 22.4196 23.3255 21.0555 23.0175C20.9168 22.9675 20.7972 22.8983 20.671 22.8238C20.7637 22.8339 20.8564 22.8426 20.9493 22.8499C21.0422 22.8571 21.1352 22.863 21.2283 22.8674C21.3214 22.8717 21.4145 22.8747 21.5077 22.8761C21.6009 22.8776 21.6941 22.8777 21.7872 22.8762C21.8804 22.8748 21.9735 22.872 22.0666 22.8677C22.1597 22.8633 22.2527 22.8576 22.3456 22.8504C22.4385 22.8431 22.5313 22.8345 22.6239 22.8244C22.7166 22.8143 22.809 22.8028 22.9013 22.7899C22.9936 22.7769 23.0857 22.7625 23.1775 22.7467C23.2693 22.7309 23.3609 22.7136 23.4522 22.695C23.5435 22.6763 23.6345 22.6562 23.7252 22.6347C23.8158 22.6132 23.9061 22.5903 23.9961 22.566C24.0861 22.5417 24.1756 22.516 24.2648 22.4889C24.354 22.4618 24.4427 22.4333 24.5309 22.4035C24.6192 22.3737 24.707 22.3425 24.7943 22.3099C24.8817 22.2773 24.9685 22.2434 25.0547 22.2081C25.5012 22.0257 25.927 21.794 26.3751 21.6159C26.9058 21.405 27.4654 21.2914 28.0263 21.196Z" fill="#1C1C1C"/>
<path d="M53.8924 22.0497C54.4674 21.9701 55.3481 22.0427 55.8501 22.3566C56.0211 22.4636 56.177 22.6255 56.2153 22.8304C56.2417 22.972 56.2098 23.1096 56.1285 23.2279C55.8553 23.6256 55.2122 23.7491 54.7736 23.8413C54.1553 23.9115 53.3197 23.9747 52.7724 23.6086C52.5977 23.4917 52.4588 23.3158 52.4208 23.1055C52.3874 22.9206 52.4425 22.748 52.5552 22.6005C52.8628 22.1976 53.4226 22.1063 53.8924 22.0497Z" fill="#1C1C1C"/>
<path d="M54.0546 22.537C54.187 22.5143 54.3339 22.5169 54.468 22.518C54.7626 22.5203 55.4734 22.5779 55.6591 22.833C55.7061 22.8976 55.693 22.9316 55.677 23.0018C55.4457 23.2868 54.8352 23.3517 54.491 23.3941C54.08 23.4525 53.5303 23.4665 53.1488 23.2783C53.0281 23.2187 52.9456 23.1572 52.903 23.0245C52.9137 22.9649 52.9117 22.9351 52.9493 22.8854C53.1469 22.6234 53.753 22.5775 54.0546 22.537Z" fill="white"/>
<path d="M32.1079 17.1509C32.6977 17.0953 33.7113 17.1114 34.2332 17.3879C34.3824 17.467 34.5118 17.5881 34.5573 17.7554C34.5905 17.8776 34.569 17.9979 34.5054 18.1065C34.2275 18.5806 33.5185 18.7674 33.0249 18.8848C32.4009 18.989 31.621 19.0899 31.0566 18.7335C30.8609 18.6099 30.6986 18.4249 30.6591 18.1907C30.628 18.0061 30.6842 17.8339 30.798 17.6881C31.1046 17.2954 31.6428 17.1955 32.1079 17.1509Z" fill="#1C1C1C"/>
<path d="M32.1639 17.5763C32.4306 17.5506 32.7075 17.5631 32.9744 17.5814C33.2733 17.6019 33.8825 17.6153 34.0927 17.856C34.0997 17.8967 34.1136 17.919 34.0911 17.9572C33.9394 18.2152 33.2566 18.3384 32.9907 18.3983C32.4808 18.484 31.7228 18.6131 31.2655 18.3026C31.1651 18.2345 31.1107 18.1694 31.0906 18.0461C31.1053 17.9895 31.1174 17.9517 31.1555 17.9054C31.3575 17.6602 31.8679 17.606 32.1639 17.5763Z" fill="white"/>
<path d="M16.064 20.8347C16.5566 20.8214 17.3262 20.875 17.7134 21.2209C17.8192 21.3154 17.8927 21.444 17.8991 21.5876C17.9063 21.7501 17.8267 21.9017 17.7203 22.0195C17.2521 22.5374 16.4385 22.6917 15.7764 22.7227C15.248 22.7358 14.6365 22.6767 14.2019 22.3433C14.0546 22.2303 13.9321 22.0734 13.9155 21.8828C13.9016 21.7237 13.9619 21.5785 14.0677 21.4615C14.4943 20.9893 15.4689 20.8758 16.064 20.8347Z" fill="#1C1C1C"/>
<path d="M16.0641 21.2604C16.3252 21.2437 17.1165 21.2834 17.299 21.4501C17.3635 21.5089 17.3659 21.5293 17.3754 21.6108C17.3587 21.6529 17.3421 21.6894 17.3102 21.7226C16.9738 22.0727 16.2104 22.1295 15.7577 22.1433C15.5766 22.139 15.3955 22.1333 15.2144 22.1263C14.8219 22.1092 14.5637 22.0563 14.2905 21.7571C14.8152 21.4382 15.4587 21.3016 16.0641 21.2604Z" fill="white"/>
<path d="M42.7372 28.0764C43.1909 28.0109 43.8982 28.0314 44.3039 28.2697C44.4461 28.3531 44.5574 28.4776 44.5973 28.6402C44.6459 28.8385 44.59 29.0366 44.4763 29.2018C44.0768 29.7823 43.1048 30.0179 42.4562 30.1328C41.9576 30.2142 41.249 30.2798 40.8102 29.9751C40.671 29.8784 40.5786 29.7448 40.5537 29.5755C40.5225 29.3642 40.6084 29.1535 40.7326 28.9863C41.1768 28.3878 42.0383 28.1656 42.7372 28.0764Z" fill="#1C1C1C"/>
<path d="M42.8192 28.5336C43.0298 28.5112 43.2479 28.514 43.4588 28.5323C43.6769 28.5512 43.9657 28.5696 44.1163 28.7483C44.1231 28.8301 44.118 28.8741 44.0721 28.9448C43.8166 29.3381 42.8288 29.5881 42.3932 29.6672C42.0312 29.7124 41.6035 29.7704 41.2468 29.6736C41.1354 29.6434 41.0679 29.6157 41.0091 29.5108C40.9995 29.4099 41.027 29.3465 41.0891 29.2698C41.4596 28.8119 42.2563 28.5888 42.8192 28.5336Z" fill="white"/>
<path d="M36.2057 28.0152C36.8901 27.9039 37.8855 28.0206 38.4642 28.4295C38.6542 28.5638 38.8196 28.7574 38.8504 28.9954C38.8742 29.1792 38.819 29.3471 38.6981 29.4865C38.3701 29.8646 37.754 29.9439 37.2862 29.9834C36.4995 29.9959 35.6448 29.8773 34.9567 29.4675C34.7643 29.353 34.5548 29.1812 34.5072 28.9499C34.4842 28.8385 34.5089 28.7313 34.5766 28.6405C34.887 28.224 35.7264 28.074 36.2057 28.0152Z" fill="#1C1C1C"/>
<path d="M36.2979 28.4401C36.7581 28.37 37.3257 28.4502 37.767 28.5878C37.961 28.6483 38.302 28.7806 38.3762 28.9885C38.4011 29.0584 38.4044 29.1176 38.3639 29.1832C38.2037 29.4424 37.432 29.5015 37.1541 29.5251C36.4043 29.5142 35.5347 29.3697 34.9172 28.9157C35.3343 28.6373 35.806 28.5097 36.2979 28.4401Z" fill="white"/>
<path d="M14.1657 24.1798C14.7322 24.1011 15.5236 24.1616 16.0175 24.4803C16.1907 24.5922 16.3371 24.7572 16.3733 24.9658C16.4025 25.1335 16.354 25.2943 16.2492 25.4265C15.8607 25.9166 14.9202 26.1058 14.3356 26.1755C13.7096 26.1925 12.8533 26.2357 12.3178 25.8572C12.1867 25.7646 12.0753 25.6333 12.0505 25.4702C12.0275 25.3195 12.0802 25.1804 12.168 25.0598C12.5696 24.5079 13.5294 24.2644 14.1657 24.1798Z" fill="#1C1C1C"/>
<path d="M14.355 24.6074C14.4251 24.6017 14.4954 24.5987 14.5658 24.5983C14.9087 24.5984 15.4846 24.6387 15.7385 24.8922C15.7595 24.96 15.7752 24.984 15.7296 25.0482C15.4741 25.4074 14.3914 25.61 13.9804 25.6559C13.5885 25.6738 13.1677 25.7062 12.7829 25.6176C12.6469 25.5863 12.5524 25.5552 12.4788 25.4325C12.4911 25.3713 12.489 25.3515 12.5295 25.3002C12.8417 24.9047 13.8637 24.6531 14.355 24.6074Z" fill="white"/>
<path d="M46.9714 18.7635C46.974 18.7632 46.9766 18.7627 46.9793 18.7624C48.1111 18.6651 49.853 18.8619 50.7526 19.6249C51.0586 19.8845 51.2241 20.2259 51.2593 20.6237C51.2983 21.0666 51.1868 21.4834 50.8952 21.8251C50.2907 22.5338 49.2185 22.8175 48.3282 22.8954C47.2424 23.0446 45.7738 22.8759 44.87 22.2067C44.4436 21.891 44.0845 21.433 44.0181 20.8925C43.9689 20.4922 44.0895 20.1056 44.3449 19.7955C44.9451 19.0669 46.0873 18.855 46.9714 18.7635Z" fill="#1C1C1C"/>
<path d="M44.5261 21.0307C45.1283 21.6845 46.0503 21.9805 46.9117 22.0904C47.9649 22.2248 49.2019 22.0916 50.1413 21.5679C50.356 21.4482 50.5295 21.2991 50.7228 21.1503C50.7364 21.2291 50.6856 21.2926 50.6512 21.3637C50.3297 21.7914 49.8435 22.0431 49.3437 22.2058C48.14 22.5979 46.5583 22.5778 45.4195 21.9864C45.0249 21.7815 44.6619 21.4676 44.5261 21.0307Z" fill="white"/>
<path d="M46.9958 19.2509C47.9445 19.1208 49.3943 19.2926 50.2103 19.8222C50.3762 19.9297 50.5869 20.0851 50.6227 20.2926C50.6473 20.4341 50.5783 20.5683 50.4936 20.6771C50.0196 21.2853 49.0645 21.5147 48.3426 21.6069C47.4733 21.6867 46.5706 21.6144 45.7551 21.286C45.2324 21.0755 44.8457 20.7936 44.6208 20.2628C44.6604 20.1842 44.7013 20.1083 44.7568 20.0396C45.2291 19.4543 46.3038 19.32 46.9958 19.2509Z" fill="white"/>
<path d="M23.859 17.1768C24.104 17.1482 24.3481 17.1522 24.5849 17.2289C24.9557 17.3491 25.2596 17.6098 25.61 17.7743C25.9285 17.9237 26.2848 17.9817 26.6087 18.1184C27.1128 18.3311 28.1248 19.0729 28.367 19.5686C28.4402 19.7184 28.4205 19.926 28.3661 20.0789C28.0584 20.9427 26.7158 20.5449 26.123 20.6822C25.7777 20.7623 25.4324 20.9995 25.1107 21.1493C24.2297 21.5597 23.52 21.5318 22.617 21.2041C22.5444 21.2689 22.4643 21.3281 22.3886 21.3895C22.2831 21.4653 22.1636 21.5338 22.0471 21.5917C21.2836 21.9713 20.1708 22.04 19.3655 21.7629C19.0153 21.6424 18.6808 21.4403 18.519 21.0928C18.3454 20.7202 18.4273 20.2838 18.5694 19.9149C18.8887 19.0865 19.5941 18.2853 20.4177 17.9331C21.1786 17.6077 21.6358 17.7957 22.3595 18.0819C22.7785 17.5985 23.2279 17.3043 23.859 17.1768Z" fill="#1C1C1C"/>
<path d="M21.1645 18.2143C21.6276 18.1984 22.1287 18.4513 22.4778 18.7414C22.7416 18.9605 22.9547 19.2495 22.9791 19.6017C23.0086 20.0268 22.7692 20.4534 22.5018 20.768C22.0173 21.3382 21.464 21.4848 20.7417 21.5427C20.2557 21.5389 19.6073 21.4615 19.2089 21.1571C19.036 21.0249 18.9245 20.845 18.9011 20.6271C18.8486 20.1367 19.1617 19.5946 19.4549 19.224C19.8809 18.6855 20.4768 18.2938 21.1645 18.2143Z" fill="white"/>
<path d="M24.0522 17.6042C24.6638 17.5843 25.0367 18.0078 25.5526 18.2388C25.786 18.3433 26.0715 18.361 26.318 18.4327C26.7262 18.5515 27.6808 19.3165 27.8796 19.7102C27.9246 19.7993 27.9233 19.8526 27.8948 19.9462C27.4618 20.3552 26.6533 20.0713 26.1039 20.1673C25.9264 20.1982 25.7774 20.2682 25.6188 20.3487C25.4681 20.4355 25.3168 20.5212 25.1648 20.6058C24.4114 21.0207 23.8121 21.0774 22.9911 20.8407C23.2691 20.4749 23.5189 20.0947 23.5108 19.614C23.5014 19.0568 23.0975 18.7136 22.7227 18.3652C23.1183 17.9367 23.4647 17.6938 24.0522 17.6042Z" fill="white"/>
<path d="M18.7754 22.077C18.8248 22.0913 18.8728 22.1047 18.9191 22.1275C19.5314 22.4286 20.8712 23.9383 21.2613 24.5214C21.4662 24.8277 21.6149 25.1456 21.7488 25.488C21.9063 25.3663 22.0685 25.2512 22.2354 25.1427C22.4023 25.0341 22.5733 24.9325 22.7485 24.8379C22.9236 24.7432 23.1023 24.6558 23.2845 24.5757C23.4667 24.4955 23.6519 24.4229 23.84 24.3577C24.2557 24.2145 26.6649 23.5907 26.9314 23.7209C26.9691 23.7905 26.9752 23.8255 26.958 23.904C26.9216 24.0702 26.7682 24.2665 26.6755 24.4115C25.9138 25.6019 24.8042 26.4932 23.6471 27.2726C24.0141 27.3525 24.4389 27.4624 24.6585 27.7946C25.557 27.4902 26.4457 27.2978 27.3948 27.258C28.7474 27.2012 30.0538 27.4478 31.3673 27.7376C31.6934 27.8094 32.1782 27.8117 32.4296 28.042C32.4275 28.0475 32.4253 28.0529 32.4233 28.0583C32.4096 28.0957 32.4045 28.1155 32.3874 28.1486C32.2093 28.4923 30.807 29.0182 30.4491 29.1391C29.0387 29.6156 27.2864 29.9663 25.8315 29.5617C25.1754 29.3793 24.5695 29.065 23.9618 28.7646C23.3476 28.9138 22.7407 29.0496 22.1091 28.9259C21.5459 28.8156 20.9828 28.4977 20.6583 28.0175C20.1944 28.1637 19.6971 28.1763 19.2171 28.1145C18.4153 28.0113 16.7753 27.3416 16.3043 26.6733C16.2498 26.5961 16.2425 26.5446 16.26 26.4539C16.6302 26.3235 18.2132 26.341 18.7293 26.3143C18.4916 26.0556 17.8665 25.1757 17.859 24.8464C17.8835 24.8033 17.8865 24.7725 17.9369 24.7562C18.0855 24.7081 18.2701 24.8378 18.3989 24.9045C18.4983 23.9706 18.5799 22.9951 18.7754 22.077Z" fill="#1C1C1C"/>
<path d="M18.6851 25.4374C18.9318 25.4916 19.5249 25.9784 19.7722 26.1516L19.9575 26.6786C19.4132 26.4113 19.008 25.9387 18.6851 25.4374Z" fill="white"/>
<path d="M27.8283 27.7119C28.1969 27.7104 29.4434 27.7227 29.7341 27.8909L29.6546 27.9063C29.0416 27.9636 28.4283 28.0168 27.8146 28.066L27.8283 27.7119Z" fill="white"/>
<path d="M19.4107 23.1256C19.723 23.3279 20.1765 23.8596 20.396 24.1661L20.1886 24.3981L19.9677 24.6876C19.8011 24.1602 19.6154 23.6395 19.4107 23.1256Z" fill="white"/>
<path d="M24.7948 25.7633C24.8168 25.7584 24.8541 25.7631 24.8771 25.7636C24.8337 25.9217 24.3737 26.187 24.227 26.2899C23.8183 26.2827 23.3967 26.3446 22.9874 26.3678L22.915 26.3706C22.9264 26.3541 22.9354 26.3357 22.9492 26.3211C22.9984 26.2689 23.1009 26.2194 23.1649 26.1807C23.6789 25.8699 24.2114 25.841 24.7948 25.7633Z" fill="white"/>
<path d="M26.1055 24.3493L26.134 24.3689L26.1348 24.4096C25.9159 24.7694 25.6005 25.1086 25.2841 25.3841C24.9315 25.422 24.5804 25.4697 24.2306 25.5274L24.2162 25.5008C24.7956 25.0715 25.4618 24.6781 26.1055 24.3493Z" fill="white"/>
<path d="M23.2941 26.6773C23.4473 26.6587 23.6093 26.667 23.7638 26.6652C22.778 27.1773 22.5753 27.2038 21.5007 27.3429C21.3117 27.3722 21.1231 27.4187 20.9359 27.4586C21.7017 26.9669 22.3939 26.749 23.2941 26.6773Z" fill="white"/>
<path d="M27.2913 27.7126L27.4335 27.7063C27.4918 27.7362 27.5203 27.7712 27.5333 27.8372C27.548 27.9116 27.5398 27.9604 27.5044 28.0256C27.2819 28.1607 26.7018 28.0552 26.4323 28.0637C26.1903 28.0713 26.0431 28.2185 25.8158 28.2566C25.4696 28.3145 25.0889 28.308 24.7375 28.337C24.7124 28.3385 24.6872 28.3403 24.662 28.341C24.599 28.3428 24.4988 28.3532 24.4534 28.3094C25.0411 28.0163 26.6146 27.7592 27.2913 27.7126Z" fill="white"/>
<path d="M28.6264 28.3206C28.6919 28.3093 28.7508 28.3098 28.8172 28.3123L28.8542 28.3545C28.8707 28.6205 28.6923 28.9116 28.584 29.1506C28.2918 29.1927 28.0036 29.2198 27.7093 29.2388C27.6353 29.2483 27.5615 29.2454 27.487 29.2442C27.432 29.1298 27.7044 28.5267 27.7537 28.3755C28.046 28.371 28.3354 28.3458 28.6264 28.3206Z" fill="white"/>
<path d="M30.0942 28.1685C30.5276 28.0973 31.0624 28.215 31.4884 28.2976C31.0348 28.4814 30.5751 28.6481 30.1092 28.7977C29.7203 28.9139 29.3268 29.02 28.9269 29.0908C29.0229 28.8232 29.0977 28.5462 29.1794 28.2739L30.0942 28.1685Z" fill="white"/>
<path d="M19.0765 23.0554C19.2688 23.2344 19.4269 23.8592 19.4984 24.1142C19.5691 24.3664 19.8164 25.4012 19.7054 25.597L19.5904 25.5293C19.3366 25.3642 19.077 25.2124 18.8144 25.062C18.9432 24.4076 19.0039 23.7181 19.0765 23.0554Z" fill="white"/>
<path d="M26.4399 28.4124C26.7859 28.3927 27.1359 28.3943 27.4825 28.3873C27.3914 28.6912 27.2656 28.9712 27.1325 29.2581C26.7329 29.2451 26.34 29.203 25.9499 29.1155C25.5446 29.0387 25.1394 28.8429 24.7723 28.6611C25.1521 28.6451 25.5323 28.6297 25.9055 28.5519C26.0773 28.5161 26.2375 28.4484 26.4105 28.4174L26.4399 28.4124Z" fill="white"/>
<path d="M18.4368 26.7703C18.5752 26.7638 18.7154 26.7615 18.8538 26.7681C19.4256 26.7953 19.97 27.2653 20.3355 27.6693C19.9205 27.7317 19.5027 27.6994 19.0912 27.6299C18.3803 27.4932 17.7207 27.1831 17.1107 26.8023L18.4368 26.7703Z" fill="white"/>
<path d="M25.3741 24.3866C25.394 24.3846 25.4241 24.3924 25.4442 24.3954C24.9955 24.7197 24.4559 24.9789 23.9761 25.2588C23.0806 25.7811 22.2013 26.3161 21.2874 26.8071C21.2583 26.82 21.2759 26.8165 21.2334 26.8063C21.2469 26.7729 21.259 26.7432 21.2781 26.7126C21.8609 25.7768 22.9837 25.1161 24 24.762C24.447 24.6063 24.9152 24.5019 25.3741 24.3866Z" fill="white"/>
<path d="M20.548 24.4572C20.5899 24.4589 20.5998 24.4542 20.6358 24.4723C21.0057 24.6584 21.254 25.4598 21.359 25.8274C21.1121 26.1414 20.8814 26.4585 20.6663 26.795L20.5367 26.9887C20.264 26.4879 20.062 25.8745 20.0581 25.2997C20.0556 24.9309 20.3068 24.7034 20.548 24.4572Z" fill="white"/>
<path d="M22.9437 27.6518C23.0834 27.6375 23.2233 27.6361 23.3633 27.6476C23.6154 27.6703 23.9654 27.7244 24.1344 27.9293L24.1282 27.9875C23.9194 28.1401 23.6116 28.107 23.3933 28.2575C23.3793 28.2912 23.36 28.3098 23.376 28.3464C23.4319 28.4743 23.6263 28.542 23.7461 28.5971C23.3866 28.6218 23.0302 28.6409 22.6702 28.6153C22.0529 28.6023 21.5053 28.3296 21.0687 27.908C21.6608 27.7293 22.3298 27.7017 22.9437 27.6518Z" fill="white"/>
</svg>
