<svg width="66" height="66" viewBox="0 0 66 66" fill="none" xmlns="http://www.w3.org/2000/svg">
<g clip-path="url(#clip0_107_4624)">
<path d="M0 0H66V66H0V0Z" fill="#1C1C1C"/>
<path d="M45.0105 5.58908C46.1906 5.46464 47.7621 5.68945 48.921 5.94654C52.8527 6.81874 57.1439 9.66725 59.7742 12.6733C60.3459 13.3268 60.859 14.0425 61.3236 14.7752C61.4671 15.0053 61.6065 15.2378 61.7418 15.4728C61.8772 15.7078 62.0084 15.9451 62.1355 16.1846C62.2626 16.4242 62.3855 16.6659 62.5042 16.9097C62.6229 17.1535 62.7373 17.3993 62.8475 17.6471C62.9576 17.8949 63.0634 18.1446 63.1648 18.3961C63.2663 18.6476 63.3633 18.9008 63.456 19.1557C63.5486 19.4105 63.6367 19.6669 63.7205 19.9248C63.8042 20.1828 63.8834 20.4421 63.9581 20.7028C65.0461 24.4068 65.5179 29.4548 64.6607 33.247C63.6641 37.6549 61.0167 40.2577 57.5818 42.9578C55.5206 44.5781 53.3101 46.0455 51.0936 47.4445C47.0722 49.9633 42.9668 52.3369 38.7775 54.5654C36.4493 55.8069 34.1035 57.0181 31.6729 58.0487C30.1839 58.68 28.6838 59.2731 27.0904 59.585C25.2625 59.9428 23.3006 59.8202 21.4915 59.4114C19.2598 58.9439 17.1606 58.028 14.9909 57.3545C13.874 57.0102 12.7524 56.6821 11.626 56.3702C10.5052 56.059 9.36763 55.767 8.29293 55.3153C8.08862 55.2308 7.88795 55.1385 7.69094 55.0382C7.49389 54.9379 7.30109 54.8301 7.11254 54.7146C6.92399 54.5992 6.7403 54.4765 6.56146 54.3465C6.38257 54.2166 6.20908 54.0799 6.04097 53.9363C2.53938 50.8881 1.318 45.1152 1.03124 40.7041C0.743629 36.2801 1.34263 32.4146 3.31006 28.4272C3.50964 28.0174 3.72237 27.6144 3.94825 27.2185C4.17412 26.8225 4.41267 26.4343 4.66387 26.0539C4.91509 25.6735 5.17843 25.3017 5.45391 24.9385C5.72939 24.5752 6.01641 24.2214 6.31498 23.8769C7.74412 22.252 9.39276 20.8148 11.0712 19.4547C11.6089 19.0189 12.1528 18.5909 12.7029 18.1707C13.2529 17.7506 13.8089 17.3384 14.3708 16.9341C14.9327 16.5299 15.5002 16.1338 16.0735 15.7459C16.6467 15.358 17.2254 14.9783 17.8095 14.607C18.3936 14.2357 18.983 13.8728 19.5775 13.5184C20.1721 13.164 20.7716 12.8182 21.3761 12.481C21.9805 12.1438 22.5897 11.8153 23.2036 11.4956C23.8175 11.1759 24.4358 10.865 25.0587 10.563C27.4628 9.3756 29.9594 8.26449 32.5347 7.50562C33.0177 7.36052 33.5041 7.22828 33.9941 7.10891C34.484 6.98954 34.9768 6.88322 35.4724 6.78993C35.968 6.69665 36.4657 6.61656 36.9655 6.54965C37.4653 6.48275 37.9666 6.42911 38.4692 6.38872C39.2436 6.33179 40.1551 6.41486 40.8846 6.31778C41.3366 6.25765 41.7851 6.0633 42.2316 5.9606C43.1463 5.75019 44.0751 5.64871 45.0105 5.58908Z" fill="white"/>
<path d="M23.5682 13.9366C28.9123 13.7577 34.1825 16.166 38.1619 19.6255C37.7497 19.4246 37.3565 19.1652 36.9501 18.9483C31.7713 16.1473 27.6837 14.547 21.7419 14.083C22.3542 13.9959 22.9501 13.9537 23.5682 13.9366Z" fill="#1C1C1C"/>
<path d="M34.983 10.3553C35.7972 10.4226 36.6192 10.5069 37.4203 10.6712C41.6394 11.5364 44.5253 15.3807 46.7434 18.7623C46.3849 18.4996 45.8301 17.7965 45.4928 17.4451C44.9231 16.8517 44.3124 16.287 43.7027 15.7353C41.9079 14.1108 39.9909 12.6318 37.7983 11.5812C36.8749 11.1387 35.8999 10.8028 34.983 10.3553Z" fill="#1C1C1C"/>
<path d="M42.3559 7.10512C42.3915 7.10199 42.4271 7.0995 42.4628 7.09765C43.1193 7.06014 43.7848 7.17686 44.4277 7.30068C47.2272 7.83963 49.7022 9.2284 51.8108 11.1196C52.8844 12.0826 53.8724 13.1457 54.8452 14.2093C55.9357 15.4015 57.0052 16.6205 57.6975 18.0951C57.7813 18.2725 57.859 18.4525 57.9307 18.6352C58.0023 18.8179 58.0677 19.0027 58.127 19.1898C58.1862 19.3769 58.2392 19.5657 58.2857 19.7563C58.3323 19.9469 58.3724 20.1388 58.4061 20.3321C58.6652 21.7957 58.6465 23.3329 58.6817 24.8165C58.7238 26.5369 58.7852 28.2566 58.866 29.9755C58.7413 29.8212 58.6533 29.0234 58.6133 28.7993C58.4088 27.6534 58.1692 26.5187 58.0169 25.3632C57.8226 23.8892 57.7243 22.4083 57.3753 20.9577C57.2791 20.5731 57.1707 20.1919 57.0502 19.8141C56.9296 19.4363 56.7971 19.0628 56.6528 18.6935C56.5084 18.3242 56.3524 17.9599 56.1848 17.6005C56.0172 17.2412 55.8383 16.8875 55.6482 16.5396C53.5384 12.612 50.3133 9.55718 46.057 8.08269C45.3099 7.82384 44.528 7.60135 43.7577 7.42172C43.3168 7.31892 42.849 7.25962 42.418 7.12504L42.3559 7.10512Z" fill="#1C1C1C"/>
<path d="M45.4296 6.68488C46.6737 6.59471 48.0249 6.78091 49.231 7.09254C52.7174 7.99328 56.4244 10.5367 58.8216 13.1903C59.0206 13.4088 59.2136 13.6325 59.4006 13.8615C59.5875 14.0905 59.7682 14.3243 59.9426 14.5629C60.117 14.8016 60.2849 15.0447 60.4462 15.2925C60.6075 15.5402 60.762 15.792 60.9098 16.048C63.0448 19.6779 63.9801 23.9945 64.0647 28.1754C64.1018 30.0041 63.986 31.7831 63.5224 33.5578C63.4618 33.7817 63.3951 34.0037 63.3224 34.224C63.2497 34.4442 63.171 34.6623 63.0865 34.8783C63.002 35.0942 62.9117 35.3078 62.8156 35.5188C62.7194 35.7299 62.6176 35.9382 62.5102 36.1438C62.4028 36.3493 62.2898 36.5518 62.1714 36.7512C62.053 36.9506 61.9293 37.1467 61.8002 37.3394C61.6712 37.5321 61.537 37.7212 61.3977 37.9066C61.2584 38.092 61.1141 38.2735 60.965 38.4511C58.8932 40.9505 55.5745 43.2221 52.8553 45.022C50.4434 46.6146 47.9878 48.1367 45.4885 49.5884C43.1614 50.9529 40.8079 52.2701 38.428 53.54C34.9318 55.4096 29.6566 58.1932 25.7649 58.6586C24.1375 58.8532 22.478 58.5985 20.904 58.1839C19.0648 57.6996 17.2986 56.9743 15.484 56.4138C14.2958 56.0531 13.1032 55.7074 11.9062 55.3767C10.5377 54.9967 9.00585 54.6946 7.78201 53.9536C6.46117 53.154 5.45559 51.9365 4.68651 50.6157C1.97942 45.9665 1.30155 38.1274 2.66386 32.9698C2.82225 32.3725 3.00828 31.784 3.22193 31.2043C3.39688 30.7231 3.57858 30.2229 3.83435 29.7784C4.32967 28.9175 5.24719 28.1572 6.09736 27.6665C6.23825 27.5834 6.38257 27.5067 6.53033 27.4365C6.6781 27.3663 6.82873 27.3029 6.98221 27.2463C7.1357 27.1896 7.29139 27.1399 7.4493 27.0972C7.60721 27.0546 7.76673 27.0191 7.92787 26.9908C9.33965 26.7548 11.1441 27.1067 12.515 27.4815C17.0019 28.7084 19.3524 30.2387 21.9282 34.1221C22.4874 34.9652 23.021 35.8085 23.5232 36.6868C25.8657 40.7835 28.1155 46.1935 27.8603 51.0065C27.787 52.3894 27.4957 53.6894 27.1335 55.0196C27.553 54.2704 27.8414 53.4683 28.0369 52.6338C29.0703 48.2238 27.5613 41.897 25.8206 37.7927C25.5379 37.1227 25.2283 36.4653 24.8918 35.8206C24.5553 35.1759 24.193 34.546 23.805 33.931C22.7263 32.1995 21.446 30.4157 19.8119 29.163C18.6433 28.2672 17.2638 27.5584 15.945 26.9118C14.5587 26.2322 13.1354 25.6085 11.6257 25.2605C9.22118 24.7062 7.74508 25.2494 5.73268 26.5081C6.06667 26.4105 6.39053 26.2344 6.71409 26.103C6.90143 26.0252 7.09133 25.9543 7.28379 25.8903C7.47629 25.8263 7.67083 25.7693 7.86741 25.7193C8.06399 25.6693 8.26214 25.6265 8.46186 25.5909C8.66154 25.5553 8.86224 25.5269 9.06398 25.5058C9.84683 25.4266 10.6183 25.4942 11.3859 25.6593C13.7889 26.1761 17.866 28.1477 19.7481 29.6932C22.3358 31.818 24.6112 35.8096 25.8121 38.9006C26.2127 39.9318 26.5269 41.0003 26.8102 42.0691C26.9901 42.7477 27.2383 43.4545 27.3049 44.1539C27.004 43.2343 26.6718 42.3261 26.3083 41.4294C25.9449 40.5327 25.551 39.6496 25.1269 38.78C24.1176 36.6114 22.4377 33.8543 20.9363 32.0084C20.2876 31.211 19.5812 30.4554 18.7648 29.8272C16.5366 28.1124 12.8132 26.8196 10.0328 26.5362C7.6861 26.2969 6.42542 26.7003 4.59563 28.1952C6.57932 24.1582 10.6192 20.995 14.1672 18.3659C16.0648 16.9597 18.0168 15.5989 20.0508 14.3953C21.0445 14.4177 22.0637 14.525 23.0499 14.6425C23.7822 14.723 24.5109 14.8279 25.2362 14.9572C25.9614 15.0865 26.6815 15.2399 27.3965 15.4174C31.8257 16.5566 36.3362 18.9182 40.1839 21.3781C40.997 21.8979 41.7473 22.5179 42.5536 23.0492C42.1185 22.514 41.5137 22.0741 41.0067 21.6051C40.0284 20.7003 39.0825 19.7471 38.0336 18.9222C33.0567 15.0087 27.7862 12.8788 21.3939 13.6485C21.814 13.3118 22.3751 13.0585 22.8478 12.7916C23.813 12.2468 24.7814 11.7112 25.7869 11.2429C27.2077 10.5812 28.6959 10.0195 30.1515 9.43773C31.4625 9.77328 32.771 10.0721 34.0595 10.495C38.3207 11.8935 41.6193 14.1831 44.7588 17.3477C45.5457 18.141 46.2885 18.9624 47.0178 19.8084C47.3735 20.2209 47.7492 20.6351 48.068 21.0771C48.3393 21.4532 48.5522 21.8714 48.7779 22.2759L49.7663 24.0135C50.0591 24.5351 50.3374 25.0776 50.6905 25.5614L50.7164 25.5961C50.3786 24.6561 49.9053 23.7282 49.4653 22.8328C48.1971 20.2526 46.7995 17.7529 44.9975 15.4999C43.1543 13.1954 40.7286 10.9783 37.7757 10.289C36.2818 9.94034 34.7147 9.87924 33.1916 9.73667C32.2163 9.64534 31.2441 9.50444 30.2703 9.395C31.1755 9.02246 32.1116 8.74809 33.0502 8.47487C37.2183 7.26167 41.0838 7.03647 45.2616 8.33365C45.3605 8.36416 45.4591 8.39559 45.5575 8.42795C45.6558 8.4603 45.7539 8.49356 45.8516 8.52772C45.9494 8.56192 46.0468 8.59701 46.1439 8.63297C46.241 8.66894 46.3377 8.7058 46.4341 8.74357C46.5305 8.7813 46.6266 8.81993 46.7223 8.85946C46.818 8.89903 46.9133 8.93947 47.0082 8.98076C47.1031 9.02205 47.1977 9.06423 47.2918 9.10728C47.386 9.15034 47.4798 9.19425 47.5731 9.23903C47.6665 9.2838 47.7594 9.32943 47.8519 9.37592C47.9444 9.42246 48.0365 9.46983 48.1281 9.51804C48.2197 9.56625 48.3109 9.6153 48.4017 9.66519C48.4924 9.71508 48.5826 9.7658 48.6724 9.81736C48.7622 9.86893 48.8515 9.9213 48.9403 9.9745C49.0291 10.0277 49.1174 10.0818 49.2052 10.1367C49.293 10.1915 49.3803 10.2471 49.4671 10.3036C49.5539 10.3601 49.6401 10.4173 49.7258 10.4754C49.8116 10.5335 49.8968 10.5923 49.9814 10.652C50.0661 10.7116 50.1501 10.772 50.2337 10.8332C50.3172 10.8944 50.4001 10.9564 50.4825 11.0191C50.5648 11.0818 50.6466 11.1453 50.7278 11.2096C50.809 11.2738 50.8896 11.3388 50.9696 11.4045C51.0496 11.4703 51.129 11.5367 51.2078 11.6039C51.2865 11.6711 51.3647 11.7391 51.4422 11.8077C51.5196 11.8763 51.5965 11.9457 51.6727 12.0157C51.7489 12.0858 51.8245 12.1566 51.8995 12.228C51.9744 12.2995 52.0486 12.3717 52.1222 12.4445C52.1958 12.5174 52.2687 12.5909 52.3409 12.6651C52.4131 12.7393 52.4846 12.8142 52.5555 12.8897C52.6263 12.9651 52.6964 13.0413 52.7658 13.1181C52.8353 13.195 52.904 13.2724 52.972 13.3505C53.0399 13.4286 53.1072 13.5073 53.1738 13.5866C53.2403 13.6659 53.3061 13.7458 53.3711 13.8264C54.1418 14.8003 54.7903 15.8805 55.3658 16.9789C56.0114 18.2113 56.5122 19.4621 56.8685 20.8071C57.3694 22.6978 57.4701 24.6181 57.7802 26.54C57.9566 27.6212 58.1507 28.6992 58.3626 29.774C58.6303 31.1615 58.9276 32.5286 58.8804 33.9505C58.833 35.3783 58.3463 36.7388 57.9249 38.0895C58.5974 37.0964 59.0516 35.8502 59.2405 34.6747C59.6109 32.3694 59.3001 29.72 59.2286 27.3752C59.2018 26.4969 59.1612 25.6177 59.1452 24.7393C59.1154 23.1158 59.1319 21.4093 58.7655 19.8202C58.4567 18.4808 57.8623 17.2637 57.0603 16.1527C56.2993 15.0985 55.4299 14.1309 54.5433 13.1823C52.2148 10.6912 49.9134 8.75021 46.666 7.56028C45.7468 7.22345 44.8047 6.94933 43.8373 6.79213C44.3627 6.72355 44.9005 6.71304 45.4296 6.68488Z" fill="#1C1C1C"/>
<path d="M24.2317 48.4965C24.2986 48.5749 24.291 48.7383 24.2835 48.8396C24.2481 49.3146 23.9211 49.7293 23.5685 50.0209C23.561 50.0137 23.5517 50.0081 23.5458 49.9995C23.4668 49.8844 23.5045 49.5985 23.5334 49.4698C23.6261 49.0575 23.8824 48.722 24.2317 48.4965Z" fill="white"/>
<path d="M36.1153 25.5978C36.272 25.6889 36.3784 25.8121 36.4761 25.9631C36.704 26.3151 36.9624 27.0085 36.8756 27.4266C36.7774 27.3538 36.6862 27.2731 36.6021 27.1845C36.5179 27.0959 36.442 27.0007 36.3744 26.8988C36.107 26.4964 36.0189 26.0709 36.1153 25.5978Z" fill="white"/>
<path d="M16.6474 46.4014C16.6829 46.5317 16.6423 46.7236 16.6265 46.8577C16.5628 47.4026 16.2698 47.889 15.844 48.2279C15.8151 48.0661 15.801 47.8953 15.8139 47.7308C15.8575 47.1697 16.2486 46.7539 16.6474 46.4014Z" fill="white"/>
<path d="M38.3629 36.47C38.466 36.5783 38.4935 36.7612 38.5037 36.9055C38.5394 37.4052 38.3509 38.0062 38.0276 38.3855C37.9092 38.2469 37.8865 37.9116 37.8922 37.7352C37.9061 37.3024 38.0428 36.7745 38.3629 36.47Z" fill="white"/>
<path d="M17.0233 36.2477L17.0652 36.2579C17.0698 36.2775 17.0774 36.2967 17.079 36.3168C17.0851 36.3868 17.0437 36.5048 17.0284 36.5751C16.9002 37.1638 16.5835 37.5115 16.1423 37.8932L16.0984 37.8501C16.0584 37.6612 16.0723 37.4892 16.1285 37.3043C16.2778 36.8136 16.5857 36.493 17.0233 36.2477Z" fill="white"/>
<path d="M49.3905 28.9518C49.5135 29.0324 49.6136 29.138 49.7032 29.254C50.0598 29.7155 50.1086 30.2963 50.0343 30.8538C49.933 30.8212 49.8734 30.7402 49.8086 30.6603C49.4346 30.1993 49.3265 29.5268 49.3905 28.9518Z" fill="white"/>
<path d="M41.9985 28.3047C42.0979 28.3403 42.1638 28.414 42.2305 28.493C42.7045 29.054 42.8219 29.7936 42.754 30.5005L42.7087 30.5045C42.6853 30.4831 42.673 30.473 42.6529 30.4504C42.191 29.9304 41.9678 28.9801 41.9985 28.3047Z" fill="white"/>
<path d="M8.72844 39.2488C8.71665 39.5747 8.18485 40.5068 8.03183 40.8673C7.86071 41.2705 7.69881 41.6854 7.57525 42.1057C7.38717 42.7454 7.24422 43.4079 7.00387 44.0308C7.00123 44.0168 6.99768 44.0028 6.99582 43.9887C6.95257 43.6534 6.99594 43.2685 7.04074 42.9358C7.2292 41.5361 7.80999 40.3137 8.72844 39.2488Z" fill="white"/>
<path d="M55.1192 34.377C55.1611 34.6252 55.1482 34.9076 55.1384 35.1583C55.0485 37.449 54.0019 39.0938 52.3749 40.608C52.3721 40.541 52.3918 40.504 52.4221 40.4465C52.7412 39.8426 53.2235 39.3245 53.592 38.751C54.1591 37.8683 54.598 36.8984 54.825 35.8719C54.9297 35.3981 54.9885 34.9106 55.1034 34.4406L55.1192 34.377Z" fill="white"/>
<path d="M7.89229 29.9047L7.91762 29.935C7.79813 30.1532 7.59136 30.3599 7.43287 30.5566C7.04905 31.033 6.65615 31.4981 6.32857 32.0163C5.78443 32.877 5.51328 33.8455 5.01839 34.7207L4.99675 34.7581L4.95762 34.7244C4.94255 34.5133 4.98537 34.2984 5.02555 34.0919C5.36305 32.3574 6.43918 30.8818 7.89229 29.9047Z" fill="white"/>
<path d="M34.8783 44.6548C34.893 44.7124 34.9003 44.758 34.8975 44.8179C34.8116 46.6436 34.1621 48.5973 33.0173 50.0246C32.6165 50.5242 32.1504 50.9481 31.6748 51.3738C31.6244 51.1943 32.347 50.345 32.4842 50.1642C33.3462 49.0284 33.9756 47.8076 34.3658 46.4348C34.5284 45.863 34.6434 45.2498 34.8614 44.6969L34.8783 44.6548Z" fill="white"/>
<path d="M42.2271 41.7243C42.2334 41.7301 42.2409 41.7349 42.246 41.7418C42.3447 41.8731 42.2247 42.6141 42.2007 42.793C41.8612 45.3218 40.6584 47.3764 38.6346 48.9207L38.6255 48.9113C38.6133 48.8293 38.6942 48.7462 38.7433 48.6807C39.2085 48.0593 39.7438 47.4947 40.2037 46.8662C41.5164 45.0728 41.6911 43.7623 42.2271 41.7243Z" fill="white"/>
<path d="M49.6657 38.0828C49.6747 38.1313 49.6738 38.186 49.6709 38.2352C49.6487 38.6215 49.5435 39.0171 49.4541 39.3937C48.8445 41.9578 47.2252 44.1974 45.2338 45.8883C45.2192 45.7091 46.2772 44.4121 46.476 44.1609C47.6085 42.729 48.3458 41.6569 49.0138 39.9324C49.2498 39.3231 49.4188 38.6873 49.6657 38.0828Z" fill="white"/>
<path d="M13.274 19.1077C17.2584 19.1018 20.3091 19.7832 23.6655 21.9978C27.2637 24.3722 29.3678 27.6685 30.9562 31.601C31.4344 32.785 31.9178 34.0457 32.1739 35.2995C32.0402 35.1544 30.9894 32.7794 30.7806 32.3775C30.2882 31.4315 29.7454 30.5153 29.1523 29.6288C25.9032 24.7446 22.1819 22.3376 16.7817 20.256C16.0932 19.9906 15.3986 19.7279 14.6909 19.5178C14.2444 19.3852 13.7295 19.3203 13.3096 19.125C13.2976 19.1194 13.2858 19.1134 13.274 19.1077Z" fill="white"/>
<path d="M16.7773 19.7816C17.3905 19.8349 18.0067 19.9742 18.5994 20.1382C18.9109 20.226 19.2195 20.323 19.5253 20.4292C19.8311 20.5355 20.1334 20.6507 20.4323 20.7749C20.7312 20.8991 21.0261 21.0321 21.3171 21.1739C21.608 21.3157 21.8945 21.466 22.1766 21.6248C25.3729 23.3927 27.4681 25.7696 29.2545 28.9209C29.0894 28.827 28.7539 28.2857 28.6264 28.1141C28.1355 27.4395 27.6051 26.7977 27.035 26.1885C24.8832 23.8767 22.2583 22.1575 19.391 20.864C18.5293 20.4753 17.6469 20.1487 16.7773 19.7816Z" fill="#1C1C1C"/>
</g>
<defs>
<clipPath id="clip0_107_4624">
<rect width="66" height="66" rx="10" fill="white"/>
</clipPath>
</defs>
</svg>
