<svg width="66" height="66" viewBox="0 0 66 66" fill="none" xmlns="http://www.w3.org/2000/svg">
<g clip-path="url(#clip0_107_4646)">
<path d="M0 0H66V32.5319V34.2482V66.0645H0V34.3463V32.208V0Z" fill="white"/>
<path d="M0 34.3463C0.0903517 34.7687 0.0818722 35.2624 0.12193 35.6952C0.179101 36.313 0.277215 36.9215 0.386535 37.532C0.429228 37.7714 0.475414 38.01 0.525091 38.2481C0.574768 38.4861 0.627915 38.7233 0.684531 38.9598C0.741151 39.1963 0.801217 39.4319 0.864729 39.6666C0.928237 39.9013 0.995165 40.135 1.06551 40.3677C1.13586 40.6005 1.2096 40.8321 1.28672 41.0627C1.36385 41.2933 1.44433 41.5227 1.52817 41.7509C1.61201 41.9791 1.69916 42.206 1.78964 42.4317C1.88012 42.6574 1.97388 42.8817 2.07092 43.1046C2.16795 43.3275 2.26823 43.549 2.37175 43.7689C2.47527 43.9889 2.58198 44.2073 2.69189 44.4241C2.8018 44.641 2.91485 44.8562 3.03106 45.0697C3.14726 45.2832 3.26656 45.495 3.38896 45.705C3.51136 45.9151 3.63681 46.1233 3.7653 46.3297C3.89379 46.536 4.02527 46.7404 4.15974 46.943C4.29422 47.1455 4.43162 47.3459 4.57196 47.5444C4.71229 47.7429 4.8555 47.9393 5.00159 48.1336C10.4567 55.4087 18.796 59.6452 27.684 60.9101C37.2529 62.2718 47.3196 59.9038 55.0639 54.0661C59.9531 50.3807 63.8511 45.2085 65.2794 39.1822C65.5082 38.2174 65.7042 37.2231 65.8157 36.237C65.8904 35.5767 65.9072 34.9055 66 34.2482V66.0645H0V34.3463Z" fill="#1C1C1C"/>
<path d="M0 0H66V32.5319C65.9336 32.1425 65.9272 31.7279 65.8956 31.3333C65.8483 30.6808 65.774 30.0315 65.6726 29.3852C65.6322 29.1274 65.5879 28.8702 65.5398 28.6137C65.4921 28.3572 65.4403 28.1015 65.3845 27.8465C65.3286 27.5916 65.2691 27.3375 65.2059 27.0843C65.1428 26.8312 65.0757 26.579 65.0048 26.3279C64.9339 26.0767 64.8594 25.8267 64.7812 25.5777C64.7026 25.3288 64.6205 25.0812 64.535 24.8347C64.4493 24.5882 64.3599 24.3431 64.2668 24.0993C64.1737 23.8556 64.077 23.6132 63.9767 23.3723C63.8764 23.1315 63.7725 22.8921 63.665 22.6543C63.5575 22.4166 63.4465 22.1805 63.332 21.9461C63.2174 21.7116 63.0994 21.4789 62.9779 21.2481C62.8564 21.0171 62.7315 20.7881 62.6031 20.561C62.4747 20.3338 62.343 20.1086 62.2079 19.8854C62.0728 19.6622 61.9344 19.4411 61.7927 19.222C61.651 19.0029 61.506 18.7861 61.3578 18.5714C61.2096 18.3566 61.0583 18.1442 60.9037 17.9341C56.5396 12.0655 50.0814 8.00536 43.0847 6.05282C41.7268 5.67386 40.3622 5.35106 38.9662 5.14717C29.3238 3.73879 19.3469 5.74557 11.4675 11.6379C6.14664 15.6169 2.17845 21.1585 0.659768 27.6813C0.440892 28.6107 0.276853 29.5497 0.167653 30.4983C0.102621 31.0662 0.08149 31.6429 0 32.208V0Z" fill="#1C1C1C"/>
<path d="M31.8632 5.40131C31.8865 5.39993 31.9097 5.39872 31.933 5.39769C32.9448 5.35138 33.9704 5.3977 34.9812 5.44964C35.9511 5.49934 36.9178 5.58576 37.8813 5.70891C38.8447 5.83207 39.8021 5.9916 40.7535 6.1875C46.4242 7.40264 52.1563 10.1456 56.4491 14.0776C61.8599 19.0336 64.9262 25.0929 65.2459 32.4807C65.2523 32.676 65.2566 32.8713 65.2588 33.0666C65.2605 33.262 65.2599 33.4574 65.2569 33.6528C65.2543 33.8481 65.2491 34.0434 65.2414 34.2386C65.2337 34.4339 65.2236 34.629 65.2111 34.8239C65.1986 35.0189 65.184 35.2137 65.1673 35.4083C65.1501 35.6029 65.1305 35.7973 65.1086 35.9915C65.0867 36.1856 65.0624 36.3795 65.0358 36.5731C65.0096 36.7666 64.9808 36.9598 64.9494 37.1527C64.918 37.3456 64.8843 37.538 64.8482 37.7301C64.8126 37.9221 64.7743 38.1137 64.7335 38.3048C64.6931 38.4959 64.6503 38.6864 64.6052 38.8765C64.5597 39.0666 64.512 39.2561 64.4621 39.445C64.4125 39.6339 64.3604 39.8221 64.306 40.0097C64.2516 40.1974 64.195 40.3843 64.136 40.5706C64.0771 40.7568 64.0158 40.9423 63.9523 41.1271C63.8889 41.3119 63.8232 41.4958 63.7552 41.679C63.6873 41.8621 63.6171 42.0444 63.5448 42.2259C63.4724 42.4073 63.3978 42.5879 63.3211 42.7675C63.2443 42.9471 63.1654 43.1258 63.0843 43.3035C63.0031 43.4812 62.9199 43.6579 62.8345 43.8336C62.7491 44.0093 62.6616 44.1839 62.5719 44.3575C62.4823 44.531 62.3905 44.7035 62.2966 44.8748C62.2028 45.0461 62.1069 45.2162 62.0089 45.3852C61.911 45.5542 61.811 45.7219 61.7089 45.8884C61.6068 46.055 61.5027 46.2203 61.3967 46.3843C61.2906 46.5483 61.1825 46.711 61.0725 46.8724C60.9624 47.0338 60.8505 47.1938 60.7366 47.3524C60.6227 47.511 60.5068 47.6683 60.389 47.8241C60.2713 47.9799 60.1517 48.1343 60.0302 48.2872C59.9087 48.4401 59.7853 48.5915 59.6601 48.7414C59.535 48.8913 59.408 49.0397 59.2792 49.1864C59.1504 49.3333 59.0198 49.4785 58.8875 49.6221C58.7293 49.7922 58.5694 49.9606 58.4077 50.1273C58.246 50.2941 58.0827 50.4593 57.9176 50.6227C57.7526 50.7861 57.586 50.9479 57.4176 51.1079C57.2493 51.2679 57.0793 51.4262 56.9078 51.5828C56.7362 51.7393 56.5631 51.8941 56.3884 52.0471C56.2136 52.2001 56.0373 52.3514 55.8595 52.5008C55.6817 52.6502 55.5024 52.7978 55.3216 52.9435C55.1408 53.0892 54.9585 53.2331 54.7748 53.3752C54.591 53.5171 54.4058 53.6572 54.2192 53.7955C54.0326 53.9337 53.8446 54.07 53.6552 54.2044C53.4658 54.3388 53.275 54.4712 53.083 54.6017C52.8908 54.7322 52.6974 54.8607 52.5027 54.9872C52.3079 55.1138 52.1119 55.2383 51.9147 55.3608C51.7174 55.4833 51.5189 55.6038 51.3192 55.7223C51.1195 55.8407 50.9186 55.9572 50.7165 56.0715C50.5144 56.1858 50.3112 56.2981 50.1068 56.4083C49.9024 56.5185 49.6969 56.6266 49.4903 56.7326C49.2837 56.8386 49.076 56.9425 48.8673 57.0443C48.6586 57.146 48.4488 57.2456 48.2381 57.343C48.0274 57.4405 47.8156 57.5358 47.603 57.6289C47.3903 57.7221 47.1766 57.813 46.962 57.9017C46.7475 57.9905 46.5321 58.0771 46.3158 58.1614C46.0995 58.2458 45.8823 58.328 45.6643 58.4079C45.4463 58.4878 45.2275 58.5655 45.0079 58.6409C44.7884 58.7163 44.568 58.7895 44.347 58.8604C44.1259 58.9314 43.9041 59.0001 43.6816 59.0664C43.4592 59.1329 43.2361 59.197 43.0123 59.2588C42.7885 59.3207 42.5641 59.3802 42.3391 59.4375C42.1141 59.4947 41.8885 59.5497 41.6624 59.6023C41.4363 59.655 41.2096 59.7053 40.9825 59.7533C40.7553 59.8013 40.5277 59.847 40.2996 59.8903C40.0716 59.9337 39.8431 59.9747 39.6142 60.0133C37.7841 60.3372 35.9621 60.4922 34.1066 60.5723C26.512 60.8174 18.79 58.7497 12.5247 54.3972C11.4902 53.6784 10.4627 52.8989 9.5292 52.0508C4.15832 47.1713 1.03442 41.3536 0.6889 34.0347C0.612145 32.4088 0.784658 30.7143 1.07293 29.1152C1.99518 23.9993 4.22954 19.7572 7.7104 15.9275C11.8396 11.3845 17.8038 8.06484 23.7247 6.55303C26.3951 5.87115 29.1141 5.53182 31.8632 5.40131Z" fill="#1C1C1C"/>
<path d="M32.0171 6.07909C32.0477 6.07751 32.0783 6.07624 32.1088 6.07527C33.3781 6.03845 34.6565 6.1256 35.9189 6.24933C41.712 6.81709 47.6045 8.91071 52.3824 12.2565C53.6685 13.1571 54.892 14.1875 56.0273 15.272C60.5187 19.5621 63.6447 25.5563 63.7901 31.8446C63.9148 37.2367 62.0117 42.0283 58.7829 46.2774C58.1004 47.1935 57.366 48.0659 56.5797 48.8944C50.7571 54.9733 42.1434 58.1248 33.8225 58.3003C33.7095 58.3067 33.5964 58.3112 33.4833 58.3137C32.5614 58.3372 31.6292 58.2973 30.709 58.2428C23.0293 57.7879 15.3441 54.8266 9.72859 49.485C5.06525 45.049 2.12231 38.922 1.97147 32.4515C1.82794 26.2946 4.36962 20.3698 8.59422 15.9439C13.8139 10.4755 20.8819 7.18451 28.3593 6.30875C29.5687 6.1671 30.7999 6.10622 32.0171 6.07909Z" fill="white"/>
<path d="M31.5972 6.56252L31.638 6.56065C33.1463 6.49665 34.684 6.59381 36.1835 6.75749C43.1895 7.522 50.013 10.3716 55.2132 15.1721C59.8633 19.4648 63.0869 25.2324 63.3372 31.6493C63.5778 37.8207 60.8608 43.6127 56.7274 48.0786C56.2173 48.6398 55.6845 49.1785 55.1291 49.6947C54.5737 50.2109 53.9975 50.7029 53.4007 51.1705C47.9905 55.3841 40.9472 57.6144 34.1366 57.877C34.0822 57.8812 34.0277 57.8843 33.9731 57.8865C32.559 57.9446 31.1213 57.8776 29.7128 57.7479C22.6506 57.0981 15.6566 54.3372 10.4052 49.4995C5.81328 45.2694 2.67533 39.3566 2.42325 33.0485C2.17329 26.7934 4.50556 20.983 8.74261 16.4073C13.2835 11.5034 19.5783 8.28697 26.1232 7.10891C27.9392 6.782 29.7559 6.63536 31.5972 6.56252Z" fill="#1C1C1C"/>
<path d="M24.954 9.57181C25.0693 9.57058 25.1292 9.59471 25.2133 9.67381C25.236 9.75058 25.2371 9.80639 25.214 9.88219C25.168 10.0328 25.0802 10.1754 25.0217 10.3223C24.8648 10.7174 24.7391 11.1258 24.6905 11.5493C24.5826 12.4879 24.8628 13.1416 25.4337 13.8674C26.7494 13.4794 28.1274 13.2065 29.4801 12.9846C30.1435 12.8757 30.8637 12.8412 31.5097 12.6649C31.9195 12.5532 32.307 12.305 32.6836 12.1089C33.2483 11.8148 33.8186 11.5403 34.4291 11.3531C34.9899 11.1811 35.6015 11.0558 36.1905 11.0679C38.0483 11.1064 39.7256 12.3115 41.0493 13.5101C41.4099 13.8367 41.8143 14.3995 42.187 14.6481C42.4962 14.8543 42.9947 15.0106 43.3439 15.169C43.931 15.4354 44.5015 15.7294 45.0704 16.0323C46.3021 15.6946 47.766 15.6947 48.9245 16.2832C50.5232 17.0954 51.3482 18.8812 51.8706 20.5023C52.8932 21.4285 53.7724 22.6403 54.4982 23.8075C56.0911 26.3696 57.126 29.803 56.9111 32.8337C56.8429 33.7955 56.622 34.7139 56.4047 35.6499C57.3519 35.6711 58.0979 35.8459 58.8978 36.3663C57.7483 36.6095 56.7737 37.0718 55.795 37.7065C55.6257 38.1484 55.4855 38.6013 55.3124 39.0419C54.8912 40.1138 54.3039 41.1414 53.6515 42.0881C51.2952 45.5072 47.8926 47.9737 44.1158 49.6136C43.8989 49.7034 43.681 49.7906 43.4621 49.8752C43.2432 49.9598 43.0232 50.0418 42.8024 50.1212C42.5815 50.2006 42.3597 50.2773 42.137 50.3514C41.9143 50.4255 41.6907 50.4969 41.4663 50.5656C41.2418 50.6344 41.0166 50.7005 40.7907 50.7638C40.5647 50.8272 40.338 50.8879 40.1106 50.9459C39.8831 51.0038 39.655 51.0591 39.4263 51.1117C39.1975 51.1642 38.9682 51.214 38.7383 51.2611C38.5084 51.3082 38.2779 51.3525 38.0469 51.3941C37.8159 51.4357 37.5845 51.4746 37.3526 51.5106C37.1207 51.5467 36.8884 51.58 36.6557 51.6105C36.423 51.6411 36.19 51.6688 35.9566 51.6938C35.7233 51.7188 35.4896 51.741 35.2558 51.7604C35.0219 51.7798 34.7878 51.7965 34.5535 51.8103C34.3192 51.8241 34.0848 51.8352 33.8502 51.8434C33.6157 51.8517 33.3811 51.8571 33.1464 51.8598C32.9118 51.8625 32.6771 51.8623 32.4424 51.8594C32.2077 51.8564 31.9731 51.8507 31.7386 51.8422C31.5041 51.8337 31.2696 51.8224 31.0354 51.8083C30.8011 51.7942 30.5671 51.7772 30.3332 51.7575C30.0993 51.7379 29.8657 51.7154 29.6324 51.6901C29.3991 51.6649 29.1661 51.6369 28.9334 51.6061C28.7007 51.5752 28.4685 51.5416 28.2366 51.5053C28.0048 51.4689 27.7734 51.4298 27.5425 51.388C27.3115 51.3461 27.0811 51.3015 26.8513 51.2542C26.6214 51.2068 26.3921 51.1568 26.1634 51.1039C25.9347 51.0511 25.7067 50.9956 25.4793 50.9374C25.252 50.8791 25.0254 50.8181 24.7995 50.7545C24.5735 50.6909 24.3484 50.6245 24.1241 50.5555C23.8997 50.4865 23.6762 50.4148 23.4536 50.3405C23.231 50.2661 23.0093 50.1891 22.7885 50.1095C22.5677 50.0299 22.3479 49.9476 22.129 49.8628C16.8936 47.7845 12.391 43.8318 10.1433 38.6095C10.0926 38.4902 10.0434 38.3703 9.99561 38.2499C9.94788 38.1294 9.9016 38.0083 9.85678 37.8867C9.81201 37.7651 9.76874 37.6429 9.72697 37.5203C9.68516 37.3975 9.64488 37.2744 9.60612 37.1507C9.56737 37.0271 9.53013 36.9029 9.49443 36.7783C9.45872 36.6537 9.42454 36.5287 9.39188 36.4033C9.35923 36.2779 9.32812 36.1521 9.29855 36.0259C9.26899 35.8997 9.24098 35.7731 9.21451 35.6463C9.18804 35.5194 9.16314 35.3922 9.13981 35.2646C9.11647 35.1372 9.09471 35.0094 9.07452 34.8814C9.05432 34.7534 9.03569 34.6251 9.01863 34.4966C9.00158 34.3681 8.98611 34.2394 8.97223 34.1106C8.95831 33.9817 8.94597 33.8527 8.93523 33.7235C8.92453 33.5943 8.9154 33.4651 8.90784 33.3357C8.90028 33.2063 8.8943 33.0768 8.88992 32.9472C8.88554 32.8177 8.88275 32.6881 8.88154 32.5585C8.88034 32.4289 8.88073 32.2993 8.8827 32.1697C8.88468 32.0401 8.88824 31.9105 8.8934 31.781C8.89856 31.6515 8.9053 31.522 8.91364 31.3927C8.92198 31.2634 8.93188 31.1341 8.94335 31.005C8.95487 30.8759 8.96795 30.747 8.9826 30.6182C8.9973 30.4894 9.01356 30.3608 9.0314 30.2324C9.04918 30.1041 9.06856 29.9759 9.08953 29.848C9.1105 29.7201 9.13304 29.5925 9.15714 29.4651C9.18125 29.3377 9.2069 29.2107 9.2341 29.084C9.26134 28.9573 9.29011 28.8309 9.3204 28.7049C9.35074 28.5789 9.3826 28.4532 9.41599 28.328C9.44937 28.2028 9.48431 28.078 9.52079 27.9536C9.55723 27.8292 9.59519 27.7053 9.63468 27.5819C9.67421 27.4584 9.71522 27.3355 9.75772 27.2131C9.80026 27.0906 9.84428 26.9688 9.88978 26.8474C9.93529 26.7261 9.98227 26.6053 10.0307 26.4851C11.6196 22.5119 14.6883 19.0834 18.2857 16.8065C19.7083 15.906 21.1994 15.1965 22.7428 14.5328C22.4404 14.0468 22.0861 13.3839 22.1776 12.7892C22.3581 11.6157 24.0191 10.2614 24.954 9.57181Z" fill="white"/>
<path d="M44.5563 19.5018C44.668 19.5259 44.8089 19.538 44.891 19.6213C44.9035 19.7289 44.8702 19.7781 44.8291 19.8768L44.7748 19.9104C44.6724 19.8023 44.6174 19.6368 44.5563 19.5018Z" fill="#1C1C1C"/>
<path d="M36.7537 27.6436C36.766 27.796 36.6289 28.1122 36.5421 28.2381L36.496 28.2106C36.4174 28.1099 36.3729 28.0688 36.3814 27.9394C36.4572 27.8051 36.6263 27.7254 36.7537 27.6436Z" fill="#1C1C1C"/>
<path d="M34.6838 29.4171C34.8342 29.5543 35.0405 29.7343 35.1286 29.9175L35.0481 29.9043C34.8633 29.8166 34.6752 29.7449 34.4835 29.6741L34.6838 29.4171Z" fill="#1C1C1C"/>
<path d="M31.0496 27.1248C31.2628 27.1406 31.6142 27.2223 31.7915 27.3407L31.759 27.3884C31.7 27.4234 31.6399 27.4557 31.5796 27.4883C31.3633 27.491 31.1931 27.2648 31.0496 27.1248Z" fill="#1C1C1C"/>
<path d="M46.8913 23.1076C47.1379 23.2304 47.3774 23.4293 47.6061 23.5859C47.4341 23.5737 47.0632 23.5287 46.941 23.4066C46.8593 23.325 46.8898 23.2143 46.8913 23.1076Z" fill="#1C1C1C"/>
<path d="M40.915 23.4546C41.002 23.5606 41.0407 23.6988 41.0889 23.8259L40.6969 24.0026L40.6255 24.0181C40.6012 23.8638 40.8285 23.5871 40.915 23.4546Z" fill="#1C1C1C"/>
<path d="M38.2773 35.1461C38.3905 35.221 38.4822 35.3446 38.5739 35.4451L38.2072 35.6361C38.1363 35.6734 38.0804 35.7237 38 35.7098C38.003 35.5458 38.1942 35.2938 38.2773 35.1461Z" fill="#1C1C1C"/>
<path d="M28.4802 21.4047C28.6773 21.4347 29.2513 21.4915 29.3756 21.627L29.3205 21.6699C29.0399 21.7117 28.7628 21.7635 28.4846 21.8189L28.4802 21.4047Z" fill="#1C1C1C"/>
<path d="M34.3774 38.7855C34.4331 38.7752 34.453 38.7757 34.5066 38.7848C34.5221 38.8056 34.549 38.8392 34.558 38.8627C34.585 38.9328 34.5649 38.9641 34.5343 39.0245C34.3092 39.1526 33.9733 39.0574 33.7267 39.021C33.6364 39.0094 33.4913 39.0101 33.4244 38.953C33.6642 38.8347 34.1024 38.827 34.3774 38.7855Z" fill="#1C1C1C"/>
<path d="M38.2839 41.9765L38.3105 42.0091C38.1929 42.1847 37.9582 42.4765 37.7488 42.5283L37.6792 42.4679C37.5988 42.3673 37.5344 42.257 37.4673 42.1474L38.2839 41.9765Z" fill="#1C1C1C"/>
<path d="M42.0408 25.7552C42.0836 25.7467 42.1081 25.7526 42.1504 25.7603C42.1577 25.9203 42.0647 26.1341 41.9529 26.2476C41.8789 26.3228 41.8202 26.3048 41.7231 26.3064L41.4596 25.8763C41.6548 25.8068 41.8363 25.7765 42.0408 25.7552Z" fill="#1C1C1C"/>
<path d="M40.306 28.4692L40.862 28.4523C40.6814 28.6326 40.4914 28.7972 40.2963 28.9615C40.1929 29.0459 40.0855 29.1257 39.9796 29.207C40.0414 29.001 40.0679 28.69 40.1858 28.5137C40.2153 28.4696 40.2573 28.4778 40.306 28.4692Z" fill="#1C1C1C"/>
<path d="M46.2194 36.048C46.256 36.0534 46.293 36.0609 46.3249 36.081C46.4789 36.1778 46.6208 36.4749 46.6659 36.6475C46.6127 36.6999 46.4385 36.6793 46.3582 36.6799L45.8697 36.6785C45.9789 36.4626 46.0885 36.2516 46.2194 36.048Z" fill="#1C1C1C"/>
<path d="M42.2112 19.1403C42.2539 19.1655 42.2525 19.1897 42.2707 19.2344C42.1875 19.3619 41.8276 19.4705 41.6777 19.5195C41.4617 19.5903 41.2847 19.6681 41.0733 19.561L40.7971 19.3801C41.2716 19.3143 41.7406 19.23 42.2112 19.1403Z" fill="#1C1C1C"/>
<path d="M42.3364 19.6448C42.4725 19.7557 42.5162 20.4069 42.5433 20.5959C42.4219 20.483 42.2946 20.3758 42.1699 20.2666C42.0129 20.1391 41.8468 20.0205 41.6854 19.8985C41.9146 19.8339 42.1222 19.7481 42.3364 19.6448Z" fill="#1C1C1C"/>
<path d="M37.477 15.4062C37.6255 15.5831 38.3194 16.4396 38.3348 16.6114L38.2706 16.5859C37.9684 16.3592 37.6235 16.1804 37.2955 15.9936C37.3501 15.7967 37.4164 15.6015 37.477 15.4062Z" fill="#1C1C1C"/>
<path d="M35.0098 25.4255C35.2771 25.5481 35.7711 25.8143 35.9478 26.0373L35.9128 26.0627L35.7447 26.0343C35.4143 26.0223 35.0966 26.0529 34.7691 26.0946C34.8383 25.869 34.9284 25.647 35.0098 25.4255Z" fill="#1C1C1C"/>
<path d="M30.3975 24.2291L30.958 24.2221C30.7554 24.5227 30.6096 24.8405 30.4437 25.1607C30.2959 25.2252 30.1431 25.2755 29.9908 25.328C30.0887 24.9392 30.2226 24.5897 30.3975 24.2291Z" fill="#1C1C1C"/>
<path d="M37.6301 28.7217C37.6962 28.7104 37.7495 28.7107 37.8163 28.711L37.8273 28.7594C37.7401 28.9818 37.5287 29.6332 37.3711 29.7613L37.3203 29.6732C37.183 29.387 37.0416 29.1028 36.8962 28.8207C37.141 28.789 37.3857 28.756 37.6301 28.7217Z" fill="#1C1C1C"/>
<path d="M25.9834 26.4924C26.4483 26.487 26.8966 26.5308 27.3558 26.596C27.3319 26.7279 27.3071 26.8596 27.2814 26.9911C27.1281 27.033 26.9796 27.0856 26.8298 27.1383C26.5394 26.9349 26.2624 26.7112 25.9834 26.4924Z" fill="#1C1C1C"/>
<path d="M31.3009 19.6302L31.3033 19.6393C31.2632 19.7008 31.287 19.6784 31.228 19.7165C30.9568 19.8914 30.7042 20.1302 30.4532 20.3346L30.0501 20.1039L29.698 19.8739C30.2292 19.7015 30.7479 19.6652 31.3009 19.6302Z" fill="#1C1C1C"/>
<path d="M42.3319 36.763C42.4507 36.8599 42.5488 37.0185 42.6438 37.14C42.2465 37.4848 41.8391 37.7845 41.3994 38.0723C41.324 38.1197 41.2515 38.1551 41.1698 38.1907C41.2264 37.9498 42.1103 37.0151 42.3319 36.763Z" fill="#1C1C1C"/>
<path d="M38.4866 37.8405L38.5261 37.8572C38.2621 38.1891 37.2922 38.6328 36.8753 38.8152L36.8138 38.7864C36.7845 38.623 36.8262 38.4374 36.8453 38.2733C37.4008 38.1504 37.9446 38.0145 38.4866 37.8405Z" fill="#1C1C1C"/>
<path d="M33.6264 17.8508C34.472 17.9479 35.295 18.1963 36.1008 18.4644L36.085 18.4875C35.5282 18.4801 34.9784 18.5258 34.4238 18.5697C34.2264 18.2001 33.9632 18.0629 33.6264 17.8508Z" fill="#1C1C1C"/>
<path d="M47.296 32.57C47.6698 32.8639 48.0727 33.31 48.2577 33.7504L48.2138 33.781C47.8647 33.7815 47.5137 33.7181 47.1717 33.6541C47.2358 33.3007 47.2576 32.9279 47.296 32.57Z" fill="#1C1C1C"/>
<path d="M52.147 33.6466L52.1694 33.669C52.0598 34.0477 51.3407 34.8148 50.9976 35.0071L50.9554 34.9609C50.8901 34.729 50.8147 34.4992 50.7437 34.2688C51.2099 34.0579 51.6777 33.8506 52.147 33.6466Z" fill="#1C1C1C"/>
<path d="M31.4879 24.2607C31.7552 24.2523 32.0248 24.2889 32.2888 24.326C32.1879 24.5491 32.1047 24.9437 31.9078 25.0944C31.8607 25.1306 31.7611 25.1048 31.7028 25.1002C31.4513 25.0854 31.1981 25.1047 30.9467 25.1173C31.0692 24.7899 31.2425 24.5086 31.4879 24.2607Z" fill="#1C1C1C"/>
<path d="M40.4266 22.7962C40.4408 22.7971 40.4554 22.7957 40.4693 22.7989C40.5625 22.8202 40.6637 22.9747 40.7245 23.0494C40.4699 23.3991 40.2463 23.7152 40.0818 24.1194L39.8572 23.9173C39.6837 23.7667 39.5111 23.615 39.3395 23.4622C39.6809 23.2083 40.0544 23.0004 40.4266 22.7962Z" fill="#1C1C1C"/>
<path d="M42.5854 15.3056C42.9949 15.3987 44.0842 15.9637 44.4788 16.2089C44.4083 16.273 44.3276 16.2823 44.2373 16.3065C43.9515 16.3839 43.6699 16.4841 43.3883 16.5756C43.1453 16.1385 42.8602 15.723 42.5854 15.3056Z" fill="#1C1C1C"/>
<path d="M46.7474 35.1468C46.9051 35.2655 47.0571 35.4695 47.1955 35.6143C47.4696 35.901 47.7468 36.1601 48.0609 36.4034L47.8097 36.475C47.5923 36.528 47.3698 36.5672 47.1505 36.6119C46.9272 36.2852 46.7251 35.9458 46.544 35.5939L46.7474 35.1468Z" fill="#1C1C1C"/>
<path d="M26.3476 21.9604C26.3836 22.221 26.3254 22.8528 26.328 23.169C26.1363 23.3717 25.9721 23.6005 25.803 23.8221L25.2408 23.7564L25.1952 23.7288C25.1936 23.4054 26.1173 22.2612 26.3476 21.9604Z" fill="#1C1C1C"/>
<path d="M43.4212 25.6309C43.6305 25.6179 43.8418 25.6181 44.0515 25.6132C43.9572 25.8808 43.8852 26.1561 43.8089 26.4293L43.1271 26.3585C42.8894 26.3416 42.6516 26.3276 42.4136 26.3164L42.6441 25.6671C42.8992 25.6371 43.1643 25.6404 43.4212 25.6309Z" fill="#1C1C1C"/>
<path d="M35.8215 42.2721C35.9927 42.2886 36.229 42.5528 36.4048 42.6432C35.7737 42.8426 35.1221 42.8562 34.4663 42.8662L34.1459 42.8695L33.8027 42.4204C34.4783 42.4105 35.1499 42.3417 35.8215 42.2721Z" fill="#1C1C1C"/>
<path d="M33.9255 31.8394C34.8669 32.1351 35.9789 32.8895 36.6912 33.5541C36.6177 33.5533 36.5463 33.5461 36.4744 33.5306C35.4884 33.3172 34.4711 32.7037 33.9255 31.8394Z" fill="#1C1C1C"/>
<path d="M45.0841 29.3761C45.2942 29.4279 45.5004 29.6051 45.6735 29.7304C45.3323 30.2563 44.9129 30.7048 44.4711 31.1457C44.3593 31.2505 44.2337 31.339 44.1113 31.4308C44.252 30.9654 44.5716 30.0513 44.8178 29.6532C44.8833 29.5474 44.9923 29.459 45.0841 29.3761Z" fill="#1C1C1C"/>
<path d="M26.3035 34.2106C26.5662 34.3576 26.8191 34.6581 27.0471 34.8606C27.271 35.0595 27.5092 35.2306 27.7576 35.3972C27.7442 35.7966 27.747 36.1959 27.7298 36.5955C27.7221 36.5947 27.7141 36.5955 27.7067 36.5932C27.3217 36.4738 26.4945 34.6833 26.3035 34.2106Z" fill="#1C1C1C"/>
<path d="M45.3775 19.6699C46.0605 19.8145 46.9656 19.9892 47.4705 20.5144C47.6118 20.6614 47.93 20.9966 47.9267 21.2058L47.8696 21.1983C47.0139 20.655 46.1396 20.3455 45.1963 20.0052L45.3775 19.6699Z" fill="#1C1C1C"/>
<path d="M21.9349 33.4108C21.9936 33.7384 21.7445 34.3087 21.6251 34.6121C21.4644 35.0206 20.9948 35.963 20.579 36.1432L20.4901 36.1057C20.4327 36.0614 20.3893 36.0187 20.3433 35.9626C20.3766 35.5512 21.6225 33.8118 21.9349 33.4108Z" fill="#1C1C1C"/>
<path d="M27.6375 21.3006C27.766 21.2948 27.8982 21.3086 28.0267 21.3154C28.0505 21.5386 28.0669 21.7624 28.0759 21.9868C27.6783 22.1648 27.303 22.3428 26.947 22.5959L26.6603 22.8514C26.7078 22.4008 26.7552 21.952 26.8322 21.5052C27.0976 21.4264 27.3626 21.3383 27.6375 21.3006Z" fill="#1C1C1C"/>
<path d="M22.9937 35.6999C23.0793 35.7852 23.8939 37.1721 24.0298 37.3815L23.4443 37.2841C23.0308 37.214 22.6434 37.1146 22.2488 36.9718C22.5654 36.5741 22.7932 36.1667 22.9937 35.6999Z" fill="#1C1C1C"/>
<path d="M52.1041 24.3402C52.4554 24.7178 53.0944 26.2619 53.2847 26.7723L53.2394 26.7841C53.2789 26.8267 53.2754 26.8053 53.2754 26.8382L53.1664 26.8272L52.7245 26.7663C52.5031 26.2532 52.2065 25.7722 51.9205 25.2936C51.9957 24.9791 52.0485 24.6586 52.1041 24.3402Z" fill="#1C1C1C"/>
<path d="M33.4164 32.0171C33.6366 32.1561 33.8264 32.4681 34.0077 32.662C34.6596 33.3593 35.533 33.7169 36.4352 33.9575L36.0958 34.3673L35.8506 34.6617C34.9484 34.0015 33.9041 33.0357 33.4164 32.0171Z" fill="#1C1C1C"/>
<path d="M29.4786 41.839C29.7376 41.9779 29.9862 42.1344 30.2362 42.2886C29.8136 42.6994 29.2198 42.9632 28.6881 43.203C28.4219 43.1292 28.1657 43.0452 27.9097 42.941C28.4836 42.6269 28.9831 42.2627 29.4786 41.839Z" fill="#1C1C1C"/>
<path d="M34.9462 26.4696C35.9013 26.409 36.4186 26.4523 37.198 27.026C37.0187 27.0826 36.8469 27.1563 36.6736 27.2287C36.4602 27.3434 36.2662 27.4832 36.0687 27.6228C35.6818 27.2242 35.2769 26.8572 34.8516 26.5001L34.9462 26.4696Z" fill="#1C1C1C"/>
<path d="M44.9512 20.4113C45.3942 20.5114 45.8208 20.6949 46.2246 20.8994C46.1098 20.8668 45.9907 20.829 45.8706 20.8243C45.2608 20.8007 44.6654 21.289 44.2356 21.6668C44.0586 21.8275 43.8991 22.0084 43.7365 22.1835L43.44 21.732C43.8283 21.1787 44.3796 20.7588 44.9512 20.4113Z" fill="#1C1C1C"/>
<path d="M25.7125 17.0467C26.0758 17.1386 26.4803 17.3953 26.8171 17.5672C26.4637 17.8061 26.1328 18.077 25.7979 18.3411C25.6233 18.4553 24.9677 18.2901 24.726 18.2537C25.0649 17.8596 25.3937 17.4573 25.7125 17.0467Z" fill="#1C1C1C"/>
<path d="M43.589 40.4964C43.8185 40.471 44.0573 40.4838 44.2883 40.4848C43.5447 41.0644 42.5699 41.298 41.6803 41.559C41.4802 41.6128 41.2774 41.6554 41.0751 41.7001C41.1591 41.4917 41.2551 41.2868 41.3459 41.0812C42.1136 40.8735 42.7869 40.585 43.589 40.4964Z" fill="#1C1C1C"/>
<path d="M42.025 32.1326H42.0473C41.9927 32.4855 41.1292 33.9595 40.8999 34.3754L40.5439 33.9894L40.0771 33.4963C40.6887 33.0084 41.3721 32.5648 42.025 32.1326Z" fill="#1C1C1C"/>
<path d="M35.4683 13.4826C35.5057 13.4816 35.4825 13.479 35.5347 13.5056C35.4928 13.7415 34.9429 14.6535 34.8065 14.991C34.3839 14.8857 33.9561 14.8086 33.5233 14.7596C33.4131 14.732 33.2768 14.7393 33.1625 14.7328C33.8872 14.2075 34.6064 13.7514 35.4683 13.4826Z" fill="#1C1C1C"/>
<path d="M36.5278 42.737C36.7014 42.7462 37.0581 42.9282 37.2456 42.9908C36.561 43.4207 35.7577 43.663 34.9736 43.8324L34.5908 43.899C34.4843 43.6714 34.3962 43.431 34.3003 43.1984C35.0695 43.1722 35.8316 43.0859 36.5278 42.737Z" fill="#1C1C1C"/>
<path d="M19.3303 28.681C19.3452 28.7128 19.338 28.6934 19.3477 28.7405L19.2961 28.7896L19.3179 28.7493C18.4746 29.8854 18.0606 31.3427 17.8689 32.7259L17.7232 32.4244C17.6093 32.2189 17.4909 32.0156 17.3744 31.8115C17.7123 30.6304 18.2985 29.4053 19.3303 28.681Z" fill="#1C1C1C"/>
<path d="M30.2498 42.8502C30.5616 42.9155 30.8874 42.9383 31.1945 43.0223C31.6953 43.1595 32.1404 43.6094 32.5337 43.9329L31.7474 43.8814C30.9373 43.8275 30.1376 43.6164 29.3597 43.3942C29.6651 43.221 29.9657 43.0581 30.2498 42.8502Z" fill="#1C1C1C"/>
<path d="M22.3226 34.1227C22.4776 34.3041 22.6123 34.8438 22.698 35.0919C22.6039 35.5929 22.1835 36.4494 21.7812 36.7532C21.6821 36.7748 21.5703 36.7142 21.4785 36.6788C21.322 36.6181 21.1793 36.5392 21.0328 36.4583C21.6776 35.6669 22.0193 35.0999 22.3226 34.1227Z" fill="#1C1C1C"/>
<path d="M47.5434 26.3475C47.9435 26.4426 48.5228 26.9837 48.7875 27.2934C48.7531 27.4714 48.7027 27.6469 48.6575 27.8224L48.1225 27.6516C47.6271 27.5185 47.0795 27.4979 46.6042 27.3119C46.7856 26.9036 47.1917 26.605 47.5434 26.3475Z" fill="#1C1C1C"/>
<path d="M30.3018 13.2688L30.405 13.2671C30.1869 13.4931 28.4977 13.9466 28.1508 14.0768C27.5831 14.2899 27.0335 14.549 26.4631 14.7552L26.2526 14.587C26.1068 14.4786 25.9701 14.357 25.8314 14.2396C27.0635 13.7515 28.9843 13.475 30.3018 13.2688Z" fill="#1C1C1C"/>
<path d="M32.7476 24.4177C33.4146 24.6048 34.0378 24.865 34.6285 25.2286C34.5094 25.5278 34.409 25.8358 34.3023 26.1397C33.7278 25.7137 33.0929 25.4334 32.4199 25.2074C32.4998 24.9324 32.625 24.6754 32.7476 24.4177Z" fill="#1C1C1C"/>
<path d="M26.6433 30.6834L26.6747 30.7253C26.4203 31.5597 26.1343 32.3564 25.8962 33.2059C25.8027 33.0406 25.7197 32.8675 25.6334 32.6984C25.4145 32.268 25.2043 31.8335 25.0028 31.3947C25.5257 31.0852 26.0604 30.8532 26.6433 30.6834Z" fill="#1C1C1C"/>
<path d="M35.9195 13.8257C36.354 14.1423 36.7216 14.5174 37.0623 14.9315L36.8011 15.7479L36.5041 15.6236C36.0646 15.4197 35.6005 15.2618 35.1443 15.1003C35.3753 14.6616 35.6139 14.2172 35.9195 13.8257Z" fill="#1C1C1C"/>
<path d="M32.8211 40.8632C33.5255 40.9344 34.205 40.9509 34.9118 40.9366C34.9954 41.1405 35.3767 41.7845 35.3935 41.9001C34.7057 41.983 34.0203 41.9717 33.3305 41.9304C33.1108 41.6043 32.9674 41.2265 32.8211 40.8632Z" fill="#1C1C1C"/>
<path d="M31.2657 17.95C31.2617 18.0924 30.6964 19.0519 30.5815 19.2462C30.1077 19.2928 29.6653 19.4126 29.2212 19.581C29.0842 19.5168 28.9507 19.441 28.8165 19.371L28.5262 19.2137C29.1944 18.5262 30.3249 18.063 31.2657 17.95Z" fill="#1C1C1C"/>
<path d="M31.7751 17.8989C32.5896 17.9563 33.3055 18.0803 33.9474 18.6174C33.6122 18.6934 33.286 18.7821 32.9574 18.8828C32.1013 19.2214 31.9004 19.1808 31.0112 19.2059C31.221 18.7574 31.5224 18.3264 31.7751 17.8989Z" fill="#1C1C1C"/>
<path d="M32.4155 39.1528C33.1518 39.3656 33.8298 39.5023 34.5975 39.5192C34.6352 39.8504 34.7026 40.182 34.7574 40.5111C34.0519 40.5499 33.3777 40.489 32.6784 40.4092C32.569 39.9927 32.4839 39.5775 32.4155 39.1528Z" fill="#1C1C1C"/>
<path d="M44.4232 25.6108C45.1449 25.6403 45.9007 25.721 46.6014 25.8989C46.52 26.2754 46.3937 26.6317 46.2581 26.9911C46.2309 27.0567 46.2411 27.0546 46.1764 27.097C45.5316 26.8756 44.9117 26.6823 44.2459 26.5286C44.3189 26.2252 44.3699 25.9181 44.4232 25.6108Z" fill="#1C1C1C"/>
<path d="M47.0943 34.123C47.5507 34.1631 48.0074 34.2083 48.465 34.2306C48.5882 34.6576 48.8746 35.7017 48.7367 36.1115L48.654 36.144C48.5727 36.1486 48.4904 36.1537 48.41 36.1375C47.9004 36.0343 47.2431 35.0012 46.9569 34.5675C46.9989 34.4183 47.0478 34.2708 47.0943 34.123Z" fill="#1C1C1C"/>
<path d="M23.261 15.2443C23.4758 15.3801 23.6713 15.5954 23.8572 15.77C23.5091 16.2247 23.0959 16.6321 22.707 17.0519C22.3412 17.4483 21.9874 17.855 21.6456 18.2722L21.1967 18.3637L20.6086 18.4894C21.4715 17.3739 22.5659 16.497 23.261 15.2443Z" fill="#1C1C1C"/>
<path d="M39.1936 14.1138C39.8794 14.4455 41.2729 16.4495 41.8756 17.099L41.5603 17.205C41.1759 17.346 40.7862 17.4753 40.3995 17.6102C40.2979 16.2201 39.8793 15.2901 39.1936 14.1138Z" fill="#1C1C1C"/>
<path d="M38.811 35.8301C39.0239 35.9031 39.3387 36.4208 39.4844 36.6115C39.3919 36.8013 39.2869 36.9819 39.1796 37.1636C38.6619 37.308 38.1449 37.4549 37.6287 37.6045C37.4334 37.6687 37.2296 37.7112 37.0297 37.7594C37.1455 37.2898 37.3313 36.8713 37.558 36.4453C37.9827 36.2547 38.4004 36.0497 38.811 35.8301Z" fill="#1C1C1C"/>
<path d="M43.7557 18.7506C43.8447 18.8259 44.3442 20.0208 44.439 20.2249C44.0256 20.5465 43.6458 20.8954 43.271 21.2606C43.2135 21.3059 43.2259 21.2943 43.1597 21.2865C43.094 21.2295 43.0545 21.1777 43.0273 21.095C42.9301 20.7997 42.9187 20.4573 42.8684 20.1495C42.8082 19.7814 42.7263 19.4177 42.6454 19.0537L43.7557 18.7506Z" fill="#1C1C1C"/>
<path d="M45.987 29.9535C46.2477 30.088 46.499 30.4317 46.6744 30.6628C46.3892 30.8861 46.1268 31.1422 45.8543 31.381C45.2346 31.9291 44.606 32.4669 43.9687 32.9943C43.819 33.1192 43.6618 33.2345 43.5061 33.3518C43.6384 32.9814 43.7011 32.5279 43.8906 32.1869C44.0428 31.9129 44.3901 31.7367 44.6169 31.5222C45.1125 31.0532 45.623 30.5317 45.987 29.9535Z" fill="#1C1C1C"/>
<path d="M29.0732 22.1043L29.1044 22.1445C28.9852 22.4398 28.8227 22.724 28.6842 23.0113C28.482 23.4311 28.2976 23.8607 28.1051 24.2852C27.6648 24.1695 27.2182 24.0818 26.7724 23.9902C26.6103 23.9668 26.4531 23.9243 26.2944 23.8843C26.9962 22.9427 27.9399 22.3745 29.0732 22.1043Z" fill="#1C1C1C"/>
<path d="M39.7074 28.4979L39.7393 28.5042L39.7557 28.5453C39.6105 28.981 39.45 29.4971 39.1718 29.8657C38.9845 30.1138 38.1838 30.9823 37.8987 31.022L37.839 30.9606C37.7445 30.7315 37.6625 30.4999 37.5827 30.2653C37.8747 29.7319 38.1254 29.1942 38.3224 28.6179C38.7839 28.5752 39.2455 28.5352 39.7074 28.4979Z" fill="#1C1C1C"/>
<path d="M47.3849 27.9296C48.0088 27.9307 49.2065 28.4354 49.7652 28.7621C50.1763 29.6388 49.9734 30.7418 49.7356 31.6376C49.7122 31.7183 49.6838 31.7883 49.6487 31.8642C49.5567 31.6142 49.538 31.2366 49.4551 30.9526C49.4331 30.8782 49.4096 30.8043 49.3846 30.7308C49.3596 30.6573 49.3333 30.5843 49.3055 30.5119C49.2777 30.4394 49.2485 30.3675 49.2179 30.2962C49.1873 30.2248 49.1553 30.1541 49.1219 30.0841C49.0886 30.014 49.0539 29.9446 49.0178 29.8759C48.9817 29.8072 48.9443 29.7392 48.9056 29.6719C48.8669 29.6047 48.8269 29.5382 48.7856 29.4725C48.7442 29.4068 48.7017 29.342 48.6578 29.2779C48.614 29.2139 48.5689 29.1508 48.5226 29.0885C48.4763 29.0262 48.4288 28.9649 48.3801 28.9045C48.3314 28.8441 48.2815 28.7847 48.2305 28.7262C48.1795 28.6677 48.1274 28.6103 48.0741 28.5539C48.0208 28.4975 47.9665 28.4421 47.9111 28.3878C47.8557 28.3335 47.7992 28.2803 47.7417 28.2283C47.6842 28.1762 47.6257 28.1252 47.5663 28.0754C47.5067 28.0256 47.4463 27.977 47.3849 27.9296Z" fill="#1C1C1C"/>
<path d="M15.2276 29.1677L15.2498 29.1776C15.2132 29.3986 14.7891 29.9899 14.6618 30.2575C14.3735 30.8634 14.1286 31.5003 13.9855 32.1565C13.7409 31.8681 13.4915 31.5997 13.1995 31.3588C12.9565 31.1552 12.684 31.0083 12.4052 30.8604C13.193 30.1125 14.1955 29.5021 15.2276 29.1677Z" fill="#1C1C1C"/>
<path d="M29.0538 14.2322C29.8197 14.1782 30.6873 14.3434 31.3569 14.7239C30.5112 14.8482 29.7303 15.0263 28.9312 15.3377C28.6297 15.4632 28.337 15.6217 28.0436 15.7659C27.6609 15.528 27.2768 15.3 26.9076 15.0409C27.571 14.7056 28.3239 14.3754 29.0538 14.2322Z" fill="#1C1C1C"/>
<path d="M24.192 16.0893L25.3311 16.8361C25.0148 17.329 24.6041 17.7714 24.2043 18.1967C23.9234 18.1636 23.6387 18.1605 23.3562 18.1508C22.9787 18.1433 22.5992 18.1504 22.2252 18.2054C22.7862 17.4197 23.5705 16.8258 24.192 16.0893Z" fill="#1C1C1C"/>
<path d="M32.4435 33.9561C32.6064 34.0959 33.0187 34.8348 33.1965 35.0657C33.6154 35.6095 34.1652 36.039 34.6954 36.468L34.1664 36.5516C33.4632 36.6412 32.7708 36.6792 32.0624 36.6799C32.064 35.7471 32.2128 34.8562 32.4435 33.9561Z" fill="#1C1C1C"/>
<path d="M34.722 36.9496L34.7645 36.9651C34.7218 37.3914 34.6405 37.8199 34.5793 38.2446C34.2681 38.3312 32.4302 38.6554 32.2506 38.5686C32.1442 38.1033 32.0714 37.6133 32.0596 37.1365C32.9608 37.1272 33.8287 37.0723 34.722 36.9496Z" fill="#1C1C1C"/>
<path d="M45.6594 21.2641C45.7514 21.2582 45.8727 21.2339 45.9477 21.2987C46.2981 21.601 46.4259 22.8877 46.4682 23.3543C45.951 23.266 45.4224 23.2397 44.8996 23.2053C44.6559 23.1929 44.4096 23.1956 44.1655 23.1917C44.0779 22.9874 43.9922 22.7823 43.9083 22.5764C44.2905 21.9719 44.9845 21.4786 45.6594 21.2641Z" fill="#1C1C1C"/>
<path d="M45.027 40.5156L45.3672 40.4999C43.9483 42.1175 42.7681 42.7437 40.7264 43.3088L40.352 43.3981C40.5537 42.9701 40.7365 42.535 40.9195 42.0988C42.444 41.8804 43.7615 41.4023 45.027 40.5156Z" fill="#1C1C1C"/>
<path d="M23.1723 20.4848C23.6579 20.494 24.1414 20.5301 24.623 20.593C24.0129 21.5298 23.5477 22.4427 23.1962 23.5088L23.1631 23.6299C23.0211 23.8073 22.3745 23.8243 22.1324 23.853C22.2179 22.6214 22.6217 21.5724 23.1723 20.4848Z" fill="#1C1C1C"/>
<path d="M43.9199 30.5781C43.9017 31.0963 42.3726 35.1336 42.052 35.6755C41.9285 35.5416 41.8071 35.4059 41.6879 35.2682C41.535 35.1008 41.3926 34.9217 41.2469 34.7478C41.5166 34.1761 41.8469 33.629 42.131 33.0632C42.3773 32.5728 42.5876 31.9505 42.9129 31.5155C43.1792 31.1594 43.583 30.8652 43.9199 30.5781Z" fill="#1C1C1C"/>
<path d="M32.9823 32.3057C33.1841 32.4506 33.3921 32.8755 33.5612 33.0855C34.1426 33.8075 34.8596 34.4991 35.6394 34.9973C35.4603 35.3249 35.286 35.6551 35.1166 35.9879C35.101 36.0252 35.0761 36.0617 35.0557 36.0967L34.9888 36.0945C33.999 35.3186 33.1876 34.4668 32.6143 33.3353C32.7114 32.9849 32.8434 32.6412 32.9823 32.3057Z" fill="#1C1C1C"/>
<path d="M25.077 20.639C25.5736 20.7139 26.0622 20.7583 26.5524 20.8797C26.3567 21.2326 26.0702 21.5617 25.8295 21.8869C25.4677 22.3757 25.1426 22.8734 24.8569 23.4109L24.7112 23.6816C24.3407 23.6681 23.9701 23.6659 23.5995 23.6749C23.6364 23.5383 23.6766 23.4025 23.72 23.2677C23.7633 23.133 23.8098 22.9993 23.8594 22.8668C23.9091 22.7342 23.9619 22.6029 24.0177 22.4728C24.0736 22.3428 24.1325 22.2141 24.1945 22.0868C24.2564 21.9596 24.3213 21.8338 24.3892 21.7096C24.4571 21.5854 24.5278 21.4629 24.6015 21.342C24.6752 21.2211 24.7517 21.1021 24.831 20.9848C24.9103 20.8676 24.9923 20.7523 25.077 20.639Z" fill="#1C1C1C"/>
<path d="M29.3709 27.0148C29.5437 27.0179 29.7162 27.0265 29.8884 27.0406C30.5442 27.0907 30.7901 27.2849 31.2053 27.7699L30.9288 28.0332C29.4995 28.0157 28.2971 28.1089 26.8913 28.3712C26.382 28.4884 25.8806 28.6109 25.3883 28.789C25.4378 28.7307 25.4883 28.6733 25.5397 28.6168C26.5038 27.5608 27.9791 27.0776 29.3709 27.0148Z" fill="#1C1C1C"/>
<path d="M36.7946 21.079C38.0642 21.0122 39.191 21.6156 40.1227 22.4231C39.7434 22.6752 39.3747 22.9452 39.0031 23.2086L38.5471 22.8975C37.3821 22.1319 36.257 21.6758 34.9047 21.3617C35.5362 21.2169 36.1473 21.117 36.7946 21.079Z" fill="#1C1C1C"/>
<path d="M39.7698 36.9634C40.1065 37.3663 40.4084 37.8077 40.7177 38.2319C39.9099 39.0964 38.6444 39.5986 37.5506 40.001L36.7799 40.2603C36.763 39.947 36.767 39.6329 36.767 39.3192C38.0723 38.8752 39.0771 38.1766 39.7698 36.9634Z" fill="#1C1C1C"/>
<path d="M22.9535 28.481L22.9889 28.486C22.9855 28.6004 22.7679 28.85 22.7047 28.9628C22.5514 29.2361 22.4872 29.5732 22.2869 29.8182C22.016 30.1496 21.5866 30.4081 21.2817 30.7217C20.2178 31.8159 19.4681 32.9116 18.779 34.2697L18.7527 34.2708L18.663 34.143C18.5549 33.9828 18.4608 33.8139 18.3644 33.6465C18.6394 33.1388 18.9864 32.6719 19.2765 32.1727C20.3926 30.252 20.8298 29.425 22.9535 28.481Z" fill="#1C1C1C"/>
<path d="M19.8022 22.4421L19.8532 22.4501C19.9215 22.5843 19.8283 23.3666 19.829 23.5553C19.8304 23.9459 19.8765 24.3257 19.956 24.7077C19.109 25.2266 18.3238 25.7712 17.5843 26.4385C17.5301 26.4791 17.5303 26.4988 17.46 26.4896C17.3274 26.2135 17.5597 25.3234 17.6399 25.0319C17.9689 23.8369 18.7489 23.0428 19.8022 22.4421Z" fill="#1C1C1C"/>
<path d="M48.6556 36.6819L48.6917 36.7399C48.6701 37.1539 48.5784 37.7603 48.4092 38.1345C47.1208 38.5432 45.7491 38.5223 44.4161 38.4319C44.3741 38.4266 44.3379 38.4133 44.2979 38.4001L44.3739 38.3268L44.3437 38.3418C44.7252 37.9391 45.1025 37.5324 45.4757 37.1219C46.5859 37.1195 47.5949 37.0369 48.6556 36.6819Z" fill="#1C1C1C"/>
<path d="M24.0879 30.351C24.1204 30.3843 24.1112 30.3668 24.1239 30.4138C24.4194 31.5074 25.0333 32.4728 25.4973 33.4962C25.881 34.3424 26.1702 35.2615 26.6529 36.0568C26.961 36.5646 27.3512 36.9818 27.7666 37.4004C27.7851 37.6557 27.7923 37.9123 27.8032 38.168C27.4601 37.9664 27.1241 37.6603 26.8456 37.3778C25.0711 35.5777 24.0648 32.8623 24.0879 30.351Z" fill="#1C1C1C"/>
<path d="M36.238 13.3701C36.9548 13.3351 37.6296 13.3935 38.3203 13.5912C38.6489 14.0373 38.9406 14.5064 39.1955 14.9985C39.4621 15.5109 40.139 17.167 39.923 17.7313C39.9023 17.7854 39.8115 17.8123 39.7609 17.8381L39.728 17.8286C39.462 17.5926 39.1682 17.0713 38.9473 16.7563C38.3786 15.9451 37.817 15.1113 37.1303 14.3939C36.9639 14.2201 36.1663 13.5557 36.1445 13.4055L36.238 13.3701Z" fill="#1C1C1C"/>
<path d="M20.1626 20.8794L20.1898 20.9175C20.1289 21.2093 20.0517 21.4975 19.9778 21.7863C19.0961 22.122 18.4118 22.7463 17.8929 23.5271C17.2627 24.4756 16.8184 25.7775 17.0489 26.9223C16.9371 27.0494 16.6856 27.3919 16.5255 27.4083C16.4968 27.3267 16.4691 27.2445 16.4476 27.1607C16.1121 25.8492 16.4362 24.2424 17.1132 23.089C17.7881 21.939 18.8912 21.2136 20.1626 20.8794Z" fill="#1C1C1C"/>
<path d="M22.1316 30.5417C22.0527 31.2209 22.0308 31.8718 22.0809 32.5547C21.2328 33.3807 20.4609 34.6372 19.9192 35.6929C19.7854 35.5777 19.6625 35.4522 19.5381 35.3272C19.3638 35.1395 19.1626 34.9403 19.0529 34.7063C19.896 32.9241 20.7477 31.9045 22.1316 30.5417Z" fill="#1C1C1C"/>
<path d="M22.5756 20.4976L22.6597 20.5023C22.6925 20.7023 22.3715 21.1886 22.2881 21.3977C22.2103 21.5931 22.1471 21.7965 22.0829 21.9967C21.8742 22.6463 21.7753 23.3012 21.682 23.9743C21.225 24.1003 20.7944 24.2774 20.3611 24.4668C20.3379 24.4567 20.3222 24.4259 20.3069 24.4057C20.1274 23.2575 20.2326 21.7815 20.7288 20.7193C21.321 20.565 21.9668 20.5395 22.5756 20.4976Z" fill="#1C1C1C"/>
<path d="M41.46 28.4444C41.9966 28.4574 42.5545 28.5629 43.0812 28.6634C41.9298 29.8546 40.7131 30.8583 39.3297 31.7714C39.1065 31.9141 38.8839 32.0474 38.6483 32.1686C38.4284 31.9837 38.2186 31.8007 38.0275 31.5853C38.7076 30.959 39.3718 30.3117 40.0565 29.692C40.5212 29.2714 41.0062 28.8778 41.46 28.4444Z" fill="#1C1C1C"/>
<path d="M48.2414 38.657C48.259 39.0071 47.895 39.6579 47.7357 39.9868C46.7843 40.1202 45.8264 40.1122 44.8679 40.1003C44.1764 40.0918 43.4667 40.0467 42.7844 40.179C42.3384 40.2654 41.979 40.4786 41.5536 40.605L41.5331 40.5785C41.8426 40.2742 42.2452 40.0263 42.5966 39.7719C43.0246 39.4592 43.4448 39.1365 43.8573 38.8036C45.4615 38.96 46.6557 38.9612 48.2414 38.657Z" fill="#1C1C1C"/>
<path d="M43.4818 28.7734C43.8876 28.8841 44.2752 29.0179 44.6583 29.1925C44.2537 29.7283 43.6606 30.2103 43.1467 30.6392C42.1325 31.4923 41.0725 32.2841 39.9668 33.0145L39.7024 33.1721L38.9583 32.4468C39.3571 32.1752 39.772 31.9285 40.1688 31.6539C41.37 30.8228 42.5166 29.8719 43.4818 28.7734Z" fill="#1C1C1C"/>
<path d="M47.1305 40.4704C47.2281 40.461 47.337 40.4377 47.4306 40.4674C47.3061 40.6693 47.1535 40.8618 47.0008 41.0428C45.8859 42.3637 43.8561 43.479 42.1984 43.9788C41.4988 44.1897 40.7982 44.311 40.0711 44.3737L39.9351 44.3878L39.8996 44.3581C39.9287 44.1884 40.0692 44.0243 40.1628 43.8816C40.618 43.7106 41.0925 43.5916 41.5501 43.4262C43.1925 42.8324 44.85 41.95 45.8743 40.4934C46.2932 40.4933 46.7119 40.4856 47.1305 40.4704Z" fill="#1C1C1C"/>
<path d="M45.9529 31.8405C45.99 31.9254 45.9786 32.0157 45.9715 32.1059C45.819 34.0552 44.4151 35.6503 42.9882 36.8538L42.7245 36.5157C42.6133 36.3648 42.4975 36.2175 42.3771 36.0739C42.668 35.4936 43.0139 34.8153 43.1643 34.1843C43.6024 33.775 44.0905 33.4065 44.5527 33.0245C45.0238 32.635 45.4794 32.227 45.9529 31.8405Z" fill="#1C1C1C"/>
<path d="M29.4955 30.145L29.5297 30.1752C28.9508 31.1297 28.2934 32.4141 27.9866 33.485C27.8613 33.9223 27.7944 34.363 27.73 34.8121C27.4684 34.6014 27.2162 34.3804 26.9632 34.1593C26.7273 33.9423 26.5152 33.7108 26.3155 33.4602C26.463 32.9859 26.5787 32.5017 26.727 32.0273C26.8886 31.5104 27.0858 31.0063 27.2845 30.5028C27.979 30.2684 28.7657 30.1969 29.4955 30.145Z" fill="#1C1C1C"/>
<path d="M29.5749 28.4332C29.9131 28.4088 30.2546 28.4173 30.5935 28.4171C30.3042 28.8345 30.0388 29.2552 29.8024 29.7054C28.2207 29.803 26.6891 30.0754 25.2551 30.7756L24.7886 31.0299C24.6142 30.5712 24.5162 30.1343 24.4518 29.649C26.1024 28.9059 27.7752 28.5597 29.5749 28.4332Z" fill="#1C1C1C"/>
<path d="M36.1955 19.8516C37.1826 19.7093 38.4159 19.9405 39.3247 20.3348C40.7508 20.9537 41.8409 21.9701 42.4118 23.4263C42.1012 23.5043 41.7929 23.5906 41.4869 23.6851C41.2021 22.9768 40.88 22.502 40.3324 21.9697C38.7934 20.6385 37.2183 20.4173 35.274 20.8371C34.8492 20.9288 34.4307 21.134 34.0017 21.1859C33.669 21.2263 33.2954 21.1773 32.9584 21.1705C33.8154 20.3577 35.0439 19.9685 36.1955 19.8516Z" fill="#1C1C1C"/>
<path d="M52.8578 27.2099C53.1262 27.2725 53.3988 27.3319 53.6579 27.4274C54.0351 27.5665 54.3098 27.8087 54.4735 28.1799C54.8032 28.9277 54.6058 29.926 54.3218 30.6561C53.6884 32.2847 52.6214 32.9522 51.0871 33.6275C50.9079 33.701 50.7244 33.7663 50.5434 33.8354C50.3918 33.5723 50.194 33.3323 50.0076 33.0935C50.0921 33.0768 50.1748 33.0566 50.2571 33.0308C51.3137 32.6993 52.4021 32.0515 52.918 31.0369C53.5442 29.8056 53.2575 28.4613 52.8578 27.2099Z" fill="#1C1C1C"/>
<path d="M16.8381 34.1388C16.9616 34.5829 16.9882 35.0696 17.0944 35.5229C17.1165 35.6169 17.1403 35.7105 17.1659 35.8036C17.1914 35.8968 17.2186 35.9894 17.2477 36.0816C17.2766 36.1737 17.3073 36.2652 17.3396 36.3562C17.372 36.4472 17.406 36.5376 17.4417 36.6273C17.4774 36.717 17.5148 36.806 17.5538 36.8944C17.5928 36.9827 17.6334 37.0703 17.6756 37.1572C17.7179 37.244 17.7617 37.33 17.8071 37.4153C17.8525 37.5005 17.8995 37.5848 17.948 37.6683C17.9966 37.7518 18.0466 37.8343 18.0982 37.9159C18.1498 37.9976 18.2029 38.0782 18.2574 38.1579C18.312 38.2375 18.368 38.3162 18.4255 38.3937C18.483 38.4713 18.5419 38.5478 18.6022 38.6232C18.6625 38.6986 18.7241 38.7728 18.7872 38.8459C18.8503 38.9191 18.9146 38.991 18.9803 39.0617C19.046 39.1324 19.113 39.2019 19.1813 39.2702C19.2496 39.3384 19.3191 39.4054 19.3899 39.471C21.3008 41.2112 23.8694 41.6777 26.369 41.4777C26.6916 41.4519 27.0173 41.4243 27.3365 41.3701C27.617 41.3226 27.9255 41.2319 28.2097 41.2307C28.2941 41.2304 28.3355 41.2343 28.3945 41.2945C28.2922 41.3746 28.1422 41.4159 28.0213 41.4633C26.4524 42.0265 24.879 42.2633 23.221 41.9901C21.2385 41.6633 19.0365 40.6127 17.8525 38.9514C16.8944 37.607 16.5661 35.7588 16.8381 34.1388Z" fill="#1C1C1C"/>
<path d="M56.5905 36.0772C56.9902 36.0801 57.3625 36.145 57.7534 36.2199C57.0709 36.5036 56.4418 36.8215 55.8162 37.2147C54.9234 37.7756 54.0714 38.4217 53.12 38.8827C52.5033 39.1815 51.8638 39.3764 51.2008 39.5382C50.8532 39.6175 50.4996 39.6668 50.1475 39.7215C50.3842 39.1106 50.6113 38.4961 50.8291 37.8782C51.6254 37.6993 52.4042 37.4628 53.1655 37.1686C54.259 36.752 55.4144 36.1814 56.5905 36.0772Z" fill="#1C1C1C"/>
<path d="M31.9574 16.4336C32.0305 16.4321 32.1039 16.4332 32.1771 16.4338C34.1382 16.4508 36.0036 17.1337 37.3899 18.5446C35.999 17.8502 34.2779 17.3527 32.7199 17.3217C32.2015 17.3114 31.6992 17.3668 31.1884 17.4447C30.0437 17.6896 28.8618 18.1637 28.0737 19.0665C27.471 18.8445 26.868 18.6835 26.2561 18.496C27.319 17.5624 29.0079 16.8595 30.3768 16.5957C30.9013 16.4947 31.4252 16.4577 31.9574 16.4336Z" fill="#1C1C1C"/>
<path d="M17.9767 36.7377C19.6784 38.7383 22.1241 39.623 24.6728 39.855C25.1198 39.8956 26.3261 39.9252 26.6741 40.054C26.9516 40.1566 27.548 40.6453 27.795 40.8557L27.6438 40.891C25.4928 41.2828 23.1251 41.1876 21.1583 40.1677C19.8449 39.4868 18.4358 38.1852 17.9767 36.7377Z" fill="#1C1C1C"/>
<path d="M25.0928 43.8195C25.3191 43.8055 25.4787 43.9638 25.6579 44.0874C26.4456 44.6302 27.2223 45.0376 28.1271 45.3517C30.5466 46.1915 33.215 46.4261 35.7577 46.2139C35.2498 46.4563 34.6826 46.5935 34.1355 46.7149C33.2469 46.8899 32.3495 46.9492 31.4452 46.9386C28.5481 46.9048 25.7131 46.0622 23.6492 43.9426C24.1324 43.9129 24.6122 43.8789 25.0928 43.8195Z" fill="#1C1C1C"/>
<path d="M25.1783 26.4648C25.188 26.4634 25.1977 26.4614 25.2074 26.4604C25.2461 26.4563 25.3022 26.4561 25.3394 26.4688C25.49 26.5202 26.2293 27.1895 26.419 27.3403C26.1868 27.4693 25.9747 27.657 25.7666 27.8209C25.1488 27.6346 24.4868 27.6526 23.8629 27.7965C23.5744 27.8646 23.2911 27.9499 23.0129 28.0524C22.7347 28.1549 22.4638 28.2739 22.2001 28.4094C20.5188 29.2656 19.8161 30.517 18.8659 32.0492C18.654 32.3564 18.4497 32.6686 18.253 32.9859C18.3558 31.463 18.9461 29.8307 19.9191 28.6529C20.2238 28.2841 20.5709 27.9486 20.9748 27.6903C22.0834 26.9811 23.8646 26.5844 25.1783 26.4648Z" fill="#1C1C1C"/>
<path d="M40.8818 40.9664L40.9094 40.9999C40.5719 42.1117 39.6156 44.1 38.8948 45.0133C38.7958 45.1375 38.6925 45.2581 38.585 45.375C38.4775 45.492 38.3661 45.605 38.2507 45.7141C38.1352 45.8232 38.0162 45.9282 37.8934 46.029C37.7706 46.1297 37.6445 46.2261 37.515 46.318C35.1354 48.0143 31.7028 48.2507 28.9016 47.7692C27.2685 47.4884 25.4756 46.8995 24.2604 45.7272C23.8079 45.2905 23.452 44.7849 23.0908 44.2737C23.0129 44.1686 22.907 44.057 22.8858 43.9252L22.9229 43.8959C23.1799 43.9999 24.0391 44.91 24.3533 45.1707C25.3837 46.0257 26.7407 46.5837 28.027 46.9326C29.4034 47.3057 30.8432 47.4169 32.2649 47.3677C35.8838 47.2424 37.9473 46.2484 39.7398 43.0032C39.9076 42.6995 40.0702 42.3883 40.2141 42.0726C40.3538 41.7661 40.4696 41.3905 40.67 41.1203C40.7158 41.0585 40.7843 41.0204 40.8501 40.9835C40.8606 40.9777 40.8713 40.9721 40.8818 40.9664Z" fill="#1C1C1C"/>
<path d="M46.2632 18.2056C46.6249 18.172 46.985 18.1741 47.3435 18.2385C48.2831 18.4072 49.0531 18.9832 49.5844 19.7636C50.2743 20.777 50.6103 22.0961 50.3786 23.3106C50.0565 22.9896 49.7251 22.6784 49.3844 22.3772C49.12 22.1499 48.8541 21.9348 48.5719 21.7297C48.5126 21.3319 48.3721 20.9573 48.141 20.6277C47.3286 19.4688 45.6819 19.27 44.3927 19.0524C44.3212 18.917 44.2633 18.7743 44.2021 18.634C44.8727 18.4432 45.5706 18.2868 46.2632 18.2056Z" fill="#1C1C1C"/>
<path d="M32.8815 21.5945C33.5775 21.5618 34.2832 21.6572 34.9641 21.7991C36.8527 22.193 38.7689 23.3126 40.0726 24.743C40.5234 25.2378 40.8952 25.7894 41.2618 26.3474C40.9154 26.3617 40.5664 26.4063 40.2234 26.4542C40.0389 26.4629 39.8445 26.5061 39.661 26.533C39.5254 26.2988 39.3674 26.0756 39.204 25.8601C37.3042 23.3546 34.8459 22.5563 31.8828 22.147L32.3172 21.6313C32.5047 21.6151 32.6936 21.6065 32.8815 21.5945Z" fill="#1C1C1C"/>
<path d="M37.0492 33.8661C37.3891 34.1624 37.7006 34.4948 38.0172 34.8159C37.4925 35.5093 36.773 36.9967 36.544 37.8219C36.2131 39.0142 36.1643 40.3315 36.6459 41.4902C36.792 41.8418 36.992 42.1742 37.1791 42.5052C37.0662 42.4792 36.9558 42.4317 36.8472 42.3917C36.598 42.2839 36.3538 42.1377 36.1473 41.9606C35.3976 41.3175 35.0568 40.2081 34.9912 39.2532C34.8891 37.7684 35.3344 36.2071 36.1608 34.9756C36.4249 34.5821 36.739 34.2233 37.0492 33.8661Z" fill="#1C1C1C"/>
<path d="M30.9376 25.5602C31.6098 25.4842 32.2603 25.5873 32.8866 25.8374C34.6954 26.5597 36.02 27.9688 36.8267 29.7175C37.0696 30.244 37.2387 30.8002 37.4685 31.3325C37.0939 31.0025 36.6183 30.7489 36.194 30.4882C35.7259 30.2169 35.4952 29.6282 35.156 29.2166C34.871 28.8735 34.561 28.5546 34.226 28.2601C32.6605 26.8926 30.7929 26.4533 28.7587 26.5841C29.4348 26.0459 30.0693 25.6687 30.9376 25.5602Z" fill="#1C1C1C"/>
<path d="M31.438 22.5454C32.1713 22.5584 32.9196 22.6733 33.6353 22.8305C35.9282 23.3343 37.9364 24.5997 39.2142 26.5982C38.908 26.6665 38.5969 26.7182 38.2897 26.7832L37.7741 26.889C36.4605 25.744 34.413 24.3582 32.7269 23.9418C32.0166 23.7665 31.3113 23.7382 30.5844 23.7515C30.8151 23.3007 31.0826 22.9072 31.438 22.5454Z" fill="#1C1C1C"/>
<path d="M17.3781 32.7661C17.5087 32.8914 17.8574 33.6721 17.9772 33.8852C18.1644 34.2183 18.3628 34.5383 18.5846 34.8496C20.0472 36.9017 22.0571 37.5254 24.4231 37.9194C24.6829 38.2505 24.965 38.5613 25.2696 38.8517C25.5099 39.0772 25.7755 39.2865 25.9953 39.532C24.0341 39.4072 22.2457 39.1624 20.4888 38.2042C19.7877 37.8218 19.1465 37.3594 18.5948 36.7792C18.2615 36.4288 17.826 35.9886 17.6132 35.5561C17.2434 34.8044 17.3556 33.5976 17.3781 32.7661Z" fill="#1C1C1C"/>
<path d="M46.2892 20.9471C47.4887 21.3113 48.7697 22.3161 49.6515 23.2054C51.3006 24.8688 52.8728 27.0645 52.8543 29.5025C52.8475 30.4062 52.4906 31.095 51.8539 31.7187C51.6316 31.9134 51.3964 32.0757 51.1385 32.2193C51.6943 30.9342 51.9141 29.6208 51.5904 28.2414C51.2865 26.9464 50.5096 25.4915 49.4846 24.6238C49.1862 24.3712 48.8052 24.2225 48.5138 23.9686C48.3514 23.827 48.2393 23.6145 48.089 23.4566C47.7039 23.0517 47.2529 22.7473 46.7807 22.4563C46.7113 21.9972 46.6002 21.3049 46.2892 20.9471Z" fill="#1C1C1C"/>
<path d="M34.2197 30.0174C34.8219 30.2092 35.4164 30.5619 35.962 30.8754C36.1661 30.9935 36.3677 31.1154 36.5671 31.2411C36.7665 31.3669 36.9634 31.4964 37.1578 31.6297C37.3523 31.7629 37.5442 31.8998 37.7334 32.0404C37.9226 32.181 38.1091 32.3251 38.2928 32.4728C38.4766 32.6205 38.6574 32.7717 38.8354 32.9263C39.0134 33.0809 39.1884 33.2388 39.3603 33.4001C39.5323 33.5614 39.7011 33.7259 39.8669 33.8936C40.0325 34.0613 40.195 34.2321 40.3542 34.4061C40.952 35.0502 41.5039 35.7399 42.116 36.3697C41.8107 36.7703 41.4598 37.1468 41.1317 37.5296L40.8846 37.8272C38.8903 34.8632 36.8735 32.5421 33.5301 31.0981C33.7248 30.7069 33.9502 30.3613 34.2197 30.0174Z" fill="#1C1C1C"/>
<path d="M35.8994 11.4968C36.404 11.4323 36.9012 11.5562 37.3766 11.7166C39.7708 12.5249 41.8176 14.4799 42.9357 16.7203C42.7335 16.8134 42.5152 16.8833 42.3063 16.9609C42.0106 16.5168 41.6909 16.0855 41.3833 15.6494C40.6455 14.6031 40.1989 13.9455 39.0025 13.3717C38.9044 13.3314 38.8055 13.2932 38.7058 13.257C37.0479 12.6581 35.1057 12.9197 33.5635 13.717C33.0275 13.9941 32.5383 14.3673 31.9913 14.6197L31.9412 14.6424C31.3193 14.1999 30.8165 14 30.0763 13.852C30.6648 13.5094 31.3098 13.2479 31.925 12.9566C33.2301 12.3387 34.4293 11.6417 35.8994 11.4968Z" fill="#1C1C1C"/>
<path d="M46.6967 31.2177L46.7338 31.2428C46.8453 31.4557 46.9178 31.6528 46.9493 31.8925C47.1729 33.59 46.2617 35.4357 45.2545 36.7454C43.6237 38.8661 39.9356 41.3869 37.2562 41.741C37.0705 41.3957 36.9766 41.0305 36.8774 40.6541C37.4418 40.4948 37.9956 40.3245 38.5372 40.0979C40.8397 39.1348 43.7549 37.2047 45.2141 35.1497C45.9003 34.1833 46.5477 32.7686 46.3437 31.5529L46.6967 31.2177Z" fill="#1C1C1C"/>
<path d="M32.2727 27.5444C32.6085 27.6982 32.9311 27.8758 33.2406 28.0774C32.8355 28.4683 32.4558 28.8659 32.1236 29.3228C30.8464 31.0795 29.8684 33.7797 29.6502 35.9357C29.5313 37.1101 29.5852 38.2384 29.7684 39.4025L29.5391 39.2772C29.1432 39.0435 28.7369 38.8099 28.3716 38.5301C28.1367 37.3592 28.1891 35.2654 28.419 34.0805C28.5116 33.6034 28.6267 33.1227 28.7945 32.6664C29.2068 31.5447 30.3628 29.3172 31.1503 28.4469C31.4811 28.0814 31.8673 27.8179 32.2727 27.5444Z" fill="#1C1C1C"/>
<path d="M23.4705 24.1423C24.8015 23.9756 26.6531 24.3623 27.9393 24.7032L27.7596 25.0794C27.3287 25.0292 26.9014 24.953 26.4677 24.9291C25.1008 24.8538 23.7099 25.1251 22.4131 25.548C20.4726 26.1808 18.5078 27.3623 17.1919 28.9374C16.7057 29.5193 16.3206 30.1504 15.9783 30.8252C15.5101 31.7845 15.2406 32.8216 15.0306 33.8632C14.784 33.4316 14.5617 32.9853 14.3335 32.5437C14.7386 30.7325 15.6169 29.1816 16.8303 27.7908C17.9527 26.5042 19.5275 25.2141 21.1412 24.6136C21.8937 24.3337 22.6724 24.197 23.4705 24.1423Z" fill="#1C1C1C"/>
<path d="M41.3664 26.7554C41.6744 26.7159 42.017 26.7308 42.3281 26.7396C43.9095 26.7841 45.6037 27.148 46.8882 28.1145C48.45 29.2897 49.0262 30.5401 49.2904 32.4314C48.8057 32.0468 48.0359 31.6481 47.6442 31.2621C47.3443 30.9664 47.1258 30.5039 46.8406 30.1686C46.5915 29.9081 46.3348 29.6661 46.0437 29.4527C43.5184 27.6022 39.8887 27.879 36.9655 28.3368C37.0761 28.0125 37.1829 27.7335 37.3799 27.4519C37.7578 27.3366 38.1553 27.2661 38.5424 27.1849C39.4834 26.9874 40.4075 26.8274 41.3664 26.7554Z" fill="#1C1C1C"/>
<path d="M40.0531 41.3932C39.9657 41.805 39.4456 42.697 39.2129 43.0908C38.5091 44.2814 37.3186 45.2188 35.9723 45.5524C33.1256 46.2579 28.8657 45.5354 26.3611 44.0278L25.813 43.6814C26.3026 43.5786 26.7604 43.4279 27.2264 43.2497C29.6448 44.2266 32.3432 44.7944 34.9386 44.2618C36.5306 43.9352 38.1343 43.1544 39.0503 41.763C39.3766 41.6251 39.7227 41.5241 40.0531 41.3932Z" fill="#1C1C1C"/>
<path d="M33.614 28.3897C33.9021 28.5891 34.1557 28.83 34.404 29.0761C33.8227 29.7197 33.3342 30.3909 32.9454 31.1697C31.3102 34.4453 31.2467 37.6163 32.3977 41.0647C32.2115 40.9447 32.0286 40.8186 31.8444 40.6956C31.3135 40.3486 30.7754 40.0132 30.23 39.6895C30.1903 39.5221 30.1547 39.3538 30.1232 39.1847C30.0917 39.0156 30.0642 38.8459 30.0408 38.6754C30.0174 38.505 29.9981 38.3341 29.9829 38.1628C29.9678 37.9914 29.9568 37.8197 29.9499 37.6479C29.943 37.476 29.9402 37.304 29.9416 37.132C29.9429 36.96 29.9484 36.7881 29.9581 36.6163C29.9677 36.4446 29.9814 36.2731 29.9993 36.102C30.0172 35.9309 30.0392 35.7603 30.0653 35.5903C30.4287 33.2135 31.638 29.8436 33.614 28.3897Z" fill="#1C1C1C"/>
<path d="M34.6741 18.9481C36.2991 18.8115 38.9643 19.033 40.4505 19.6979C41.9981 20.3904 43.1234 21.6483 43.7298 23.2194C43.4376 23.2679 43.1458 23.3194 42.8546 23.3737C42.7985 23.2349 42.74 23.0972 42.6788 22.9605C42.0012 21.4836 40.5984 20.4108 39.1026 19.8563C37.4464 19.2423 35.5263 19.2626 33.9169 20.0004C32.7138 20.5956 31.0007 22.179 30.3564 23.3426C29.9639 24.0517 29.7374 24.8312 29.4593 25.5877C28.9633 25.8964 28.428 26.1992 28.1375 26.7259L27.7307 26.8379C28.1641 24.9386 28.9173 22.8803 30.1337 21.3397C31.2925 19.872 32.8356 19.1564 34.6741 18.9481Z" fill="#1C1C1C"/>
<path d="M43.8182 23.6586L43.8639 23.6535C45.5116 23.4782 47.8351 23.8552 49.1202 24.9226C50.2991 25.902 51.1178 27.5735 51.251 29.0928C51.3435 30.1475 51.1074 31.7281 50.4061 32.5593C50.1703 32.6359 49.933 32.6719 49.6875 32.6997C50.0197 32.0859 50.2454 31.4934 50.3608 30.8037C50.3961 30.3641 50.4235 29.9413 50.3617 29.5023C50.1862 28.2569 49.3895 27.0811 48.3918 26.3409C46.3919 24.8572 43.5043 25.096 41.177 25.4499C40.9391 25.1432 40.7064 24.8326 40.4792 24.5179C41.5356 24.0291 42.6609 23.7545 43.8182 23.6586Z" fill="#1C1C1C"/>
<path d="M46.3638 16.2709C46.6182 16.2275 46.9212 16.2385 47.1794 16.2548C48.2891 16.3248 49.2275 16.8227 49.9559 17.6575C51.25 19.141 51.7885 21.1442 51.7316 23.0808C51.7152 23.6375 51.621 24.1867 51.5835 24.7419C51.295 24.391 51.0103 24.0361 50.7028 23.7016C50.9025 23.1886 50.9006 22.5783 50.839 22.0386C50.6762 20.616 50.0057 19.3375 48.8877 18.4437C48.3861 18.0987 47.8751 17.8754 47.2679 17.796C45.71 17.5923 42.9136 18.5816 41.2492 18.8819C40.8958 18.9457 40.509 19.0396 40.1502 19.0434C39.8172 19.0469 39.4787 18.9341 39.1538 18.8678C38.8375 18.8033 38.5187 18.7542 38.2032 18.6849C39.5253 18.3593 40.8507 17.9052 42.135 17.4512C43.5213 16.9611 44.89 16.4243 46.3638 16.2709Z" fill="#1C1C1C"/>
<path d="M24.4868 10.451C24.4801 10.6345 24.3876 10.8561 24.3396 11.0382C24.1604 11.7188 24.1557 12.3348 24.4045 13.0008C24.9092 14.3526 26.8386 15.685 28.1407 16.2756C28.4034 16.1305 28.6529 15.9684 28.924 15.8372C29.9048 15.3627 31.0236 15.1639 32.1071 15.1608C34.6069 15.1537 37.4703 16.2011 39.2407 17.9661C38.7768 18.0925 38.3119 18.2148 37.846 18.3332L37.6245 18.1259C36.8079 17.3465 35.8947 16.7456 34.8133 16.4049C33.0428 15.8472 30.9174 15.8835 29.1557 16.4652C28.5098 16.6784 27.9037 16.9757 27.3021 17.2898C26.5939 17.0305 25.7923 16.6075 25.1522 16.2056C23.8707 15.4009 22.8823 14.4352 22.5346 12.9281C22.924 11.9472 23.6517 11.0868 24.4868 10.451Z" fill="#1C1C1C"/>
<path d="M47.3303 31.6601C47.8481 31.8054 48.5975 32.3967 49.014 32.7429C50.023 33.5815 50.5325 34.5559 50.6511 35.8664C50.6948 36.3499 50.6948 36.8441 50.6059 37.3227C50.3659 38.6141 49.3465 40.4946 48.5209 41.4869C46.8606 43.4826 43.9628 45.2492 41.4247 45.8311C41.0412 45.919 40.657 45.9596 40.2663 45.9954C39.742 46.0192 39.2271 45.9892 38.7042 45.9545C39.0349 45.6013 39.3553 45.2487 39.6329 44.8508C40.3801 44.804 41.1081 44.737 41.8375 44.5537C44.1981 43.9603 46.7856 42.4092 48.0446 40.2833C49.0815 38.5326 49.6483 35.2241 48.5445 33.4132C48.2916 32.9983 47.4251 32.0537 47.3377 31.6935C47.3349 31.6824 47.3328 31.6713 47.3303 31.6601Z" fill="#1C1C1C"/>
<path d="M22.3837 18.6261C24.8916 18.3588 28.0564 19.2285 30.1285 20.6408L29.703 21.2123C27.3733 20.6914 25.3541 20.0309 22.9304 20.0734C20.7736 20.1113 18.8367 20.501 17.2761 22.1185C17.1939 22.2124 17.115 22.3091 17.0396 22.4085C16.9642 22.508 16.8924 22.61 16.8242 22.7145C16.756 22.8191 16.6916 22.9259 16.6309 23.035C16.5702 23.1441 16.5135 23.2552 16.4607 23.3683C15.8093 24.7524 15.7043 26.4134 16.2261 27.8534C16.0267 28.0743 15.8535 28.3227 15.6742 28.5603C15.3096 27.885 15.1161 27.1585 15.0472 26.3958C14.8802 24.5498 15.4886 22.8871 16.6687 21.4789C18.1494 19.712 20.1188 18.8323 22.3837 18.6261Z" fill="#1C1C1C"/>
<path d="M24.3496 28.2031C24.6026 28.1854 24.8545 28.1932 25.1077 28.1992C24.6523 28.3919 24.2539 28.6579 24.0101 29.1021C23.4968 30.0375 23.6608 31.4403 23.8762 32.435C24.2932 34.3613 25.2981 36.5314 26.7351 37.9065C28.7502 39.8347 33.287 41.1335 34.0937 43.9425L33.6115 43.9994C33.181 43.8712 31.3717 42.4686 30.8327 42.121C29.8038 41.4577 28.7296 40.8636 27.7006 40.1968C27.4697 40.0497 27.2438 39.8953 27.0228 39.7337C26.8018 39.5721 26.5862 39.4037 26.3759 39.2283C26.1656 39.0529 25.9612 38.871 25.7625 38.6826C25.5639 38.4942 25.3714 38.2996 25.1851 38.0988C24.1386 36.9531 23.0229 35.0345 22.7057 33.5198C22.4087 32.1014 22.3751 30.3002 23.2057 29.041C23.4758 28.6314 23.8615 28.3066 24.3496 28.2031Z" fill="#1C1C1C"/>
<path d="M25.9533 25.2727C26.2427 25.2718 26.5313 25.286 26.8191 25.3152C27.107 25.3445 27.3925 25.3887 27.6758 25.4477L27.467 26.1451C25.6988 25.7594 23.5967 26.1415 21.9184 26.7717C19.9994 27.4925 18.2511 28.6226 17.3858 30.5536C16.3766 32.8059 15.9493 35.6403 16.8597 37.9828C17.5448 39.7459 19.0708 40.9653 20.7657 41.7047C20.8318 41.734 20.8982 41.7626 20.9649 41.7905C21.0316 41.8184 21.0986 41.8455 21.1659 41.8718C21.2332 41.8982 21.3008 41.9238 21.3687 41.9486C21.4366 41.9735 21.5047 41.9976 21.5732 42.0209C21.6416 42.0442 21.7102 42.0668 21.7792 42.0885C21.8481 42.1103 21.9172 42.1313 21.9866 42.1516C22.056 42.1718 22.1257 42.1912 22.1955 42.2099C22.2654 42.2285 22.3354 42.2464 22.4056 42.2636C22.4758 42.2806 22.5463 42.2969 22.6169 42.3125C22.6875 42.328 22.7582 42.3427 22.8291 42.3567C22.9 42.3706 22.9711 42.3837 23.0423 42.3961C23.1136 42.4084 23.1849 42.42 23.2564 42.4307C23.3279 42.4415 23.3995 42.4514 23.4711 42.4606C23.5428 42.4697 23.6146 42.478 23.6865 42.4856C23.7584 42.4931 23.8304 42.4999 23.9024 42.5058C23.9744 42.5117 24.0465 42.5168 24.1187 42.5212C24.1908 42.5255 24.263 42.5289 24.3352 42.5316C24.4075 42.5343 24.4797 42.5362 24.552 42.5373C24.6243 42.5384 24.6966 42.5386 24.7688 42.5381C24.8411 42.5375 24.9134 42.5362 24.9856 42.534C25.0579 42.5319 25.1301 42.5289 25.2023 42.5251C25.2745 42.5213 25.3466 42.5167 25.4186 42.5114C25.4907 42.5059 25.5628 42.4997 25.6347 42.4927C25.7066 42.4857 25.7785 42.4779 25.8502 42.4693C25.922 42.4606 25.9936 42.4512 26.0652 42.441C26.1368 42.4308 26.2082 42.4198 26.2795 42.4079C26.3508 42.3961 26.422 42.3835 26.493 42.3701C26.564 42.3567 26.6349 42.3424 26.7056 42.3274C26.7763 42.3124 26.8468 42.2966 26.9172 42.2801C26.9876 42.2635 27.0577 42.2461 27.1277 42.2279C27.1976 42.2098 27.2674 42.1908 27.337 42.1711C27.4065 42.1514 27.4758 42.1309 27.5449 42.1096C27.9977 41.9748 28.4236 41.7989 28.8617 41.6257L28.9137 41.6541C27.6296 42.8261 25.811 43.381 24.0972 43.4848C21.8994 43.6179 19.7182 42.4036 18.1136 40.9854C16.4434 39.5092 15.5072 37.9792 15.3775 35.7109C15.2455 33.4036 16.0668 30.7494 17.6284 29.0216C19.7247 26.7022 22.8668 25.4331 25.9533 25.2727Z" fill="#1C1C1C"/>
<path d="M52.0367 21.2778C52.784 21.7984 54.1374 24.0362 54.5927 24.8614C54.6504 24.9639 54.7068 25.0671 54.762 25.171C54.8171 25.2748 54.871 25.3794 54.9235 25.4846C54.9761 25.5898 55.0273 25.6957 55.0773 25.8021C55.1272 25.9086 55.1759 26.0157 55.2232 26.1234C55.2705 26.2311 55.3165 26.3393 55.3611 26.4481C55.4058 26.5569 55.4491 26.6663 55.491 26.7762C55.533 26.886 55.5736 26.9964 55.6128 27.1073C55.6521 27.2182 55.6899 27.3295 55.7264 27.4413C55.7629 27.5532 55.7981 27.6654 55.8318 27.7781C55.8655 27.8908 55.8978 28.0039 55.9288 28.1173C55.9597 28.2309 55.9893 28.3447 56.0174 28.4589C56.0456 28.5731 56.0723 28.6876 56.0976 28.8025C56.1229 28.9174 56.1468 29.0326 56.1693 29.148C56.1917 29.2635 56.2128 29.3792 56.2324 29.4952C56.2521 29.6112 56.2703 29.7274 56.287 29.8438C56.3038 29.9602 56.3192 30.0769 56.333 30.1937C56.3469 30.3105 56.3594 30.4275 56.3704 30.5446C56.3814 30.6617 56.391 30.7789 56.3991 30.8963C56.4072 31.0136 56.4139 31.131 56.4191 31.2486C56.4244 31.3661 56.4282 31.4836 56.4305 31.6012C56.4328 31.7189 56.4337 31.8365 56.4331 31.9541C56.4326 32.0718 56.4306 32.1894 56.4271 32.307C56.4237 32.4245 56.4187 32.542 56.4124 32.6595C56.406 32.7769 56.3982 32.8943 56.389 33.0116C56.3797 33.1289 56.3691 33.246 56.3569 33.363C56.3448 33.48 56.3312 33.5969 56.3162 33.7135C56.3012 33.8302 56.2848 33.9466 56.2669 34.0629C56.249 34.1792 56.2297 34.2952 56.209 34.411C56.1882 34.5268 56.1661 34.6423 56.1425 34.7575C56.1189 34.8728 56.0939 34.9877 56.0675 35.1023C56.0411 35.2169 56.0133 35.3312 55.9841 35.4452C55.9548 35.5591 55.9242 35.6727 55.8922 35.7859C54.5688 36.0754 53.3044 36.7069 52.0216 37.1391C51.6693 37.2507 51.3132 37.3358 50.9519 37.4117C51.0557 36.8055 51.0421 36.2252 51.0087 35.6148C51.5854 35.1936 52.1322 34.6406 52.4369 33.9855C52.5462 33.7504 52.6209 33.4728 52.7869 33.2719C52.9501 33.0744 53.2048 32.9179 53.406 32.7601C53.8616 32.4024 54.1784 31.8921 54.4457 31.3839C54.9234 30.4753 55.2455 29.2176 54.9207 28.2081C54.7497 27.6765 54.398 27.2959 53.9097 27.0424C53.5301 25.8408 52.8877 24.6508 52.1568 23.6323C52.1707 23.4358 52.1786 23.239 52.1805 23.0421C52.1825 22.845 52.1784 22.6481 52.1684 22.4514C52.1583 22.2546 52.1423 22.0584 52.1204 21.8626C52.0984 21.6668 52.0705 21.4719 52.0367 21.2778Z" fill="#1C1C1C"/>
<path d="M22.8106 14.9661L22.8473 15.0156C22.6784 15.7669 21.228 17.2126 20.6667 17.8188C20.4144 18.0912 20.1156 18.3784 19.9236 18.6972C19.7677 18.7509 19.614 18.8103 19.4625 18.8754C17.5358 19.6939 15.8501 21.352 15.0724 23.3005C14.3634 25.0769 14.4929 26.966 15.243 28.7019C13.9438 29.1105 12.3855 30.0346 11.5687 31.1357C11.7403 31.1829 11.9129 31.2293 12.0816 31.2863C13.2935 31.6954 13.8106 32.6588 14.383 33.7258C14.5685 34.0716 14.8026 34.4368 14.895 34.8208C14.9788 35.1686 14.9524 35.5576 14.9778 35.9144C15.0455 36.8662 15.2759 37.7797 15.7051 38.6341C16.9903 41.1928 19.5655 42.8986 22.215 43.7736C22.5059 44.1079 22.7328 44.5255 22.9933 44.8868C23.336 45.3619 23.7003 45.8115 24.142 46.199C25.4785 47.3716 27.3726 47.9654 29.1014 48.2443C31.402 48.6154 34.2747 48.4712 36.4095 47.5045C37.0923 47.1953 37.6872 46.7795 38.2915 46.3427C39.3497 46.5207 40.4338 46.5435 41.4821 46.2909C44.2823 45.6161 47.135 43.8299 48.9741 41.6133C49.3511 41.159 49.6637 40.6724 49.9692 40.1692C50.4587 40.0816 50.9499 40.0139 51.4339 39.8966C52.8351 39.5572 53.9798 38.9052 55.1774 38.1411C54.8209 39.2265 54.2993 40.214 53.7193 41.194C51.6137 44.6549 48.1098 47.3307 44.4462 48.9575C44.2321 49.0512 44.0169 49.1424 43.8005 49.2309C43.5842 49.3195 43.3669 49.4054 43.1485 49.4886C42.9302 49.572 42.7108 49.6526 42.4905 49.7306C42.2701 49.8086 42.0489 49.8839 41.8268 49.9565C41.6046 50.0292 41.3817 50.0991 41.1578 50.1663C40.934 50.2335 40.7094 50.2981 40.484 50.3599C40.2586 50.4217 40.0325 50.4807 39.8057 50.5371C39.5788 50.5934 39.3514 50.647 39.1233 50.6979C38.8952 50.7487 38.6665 50.7968 38.4372 50.8421C38.208 50.8874 37.9782 50.9299 37.7479 50.9697C37.5176 51.0094 37.2868 51.0464 37.0557 51.0806C36.8245 51.1147 36.5929 51.1461 36.361 51.1747C36.129 51.2033 35.8968 51.229 35.6642 51.252C35.4316 51.2749 35.1988 51.295 34.9658 51.3124C34.7327 51.3297 34.4995 51.3442 34.2661 51.3559C34.0327 51.3676 33.7992 51.3764 33.5656 51.3825C33.332 51.3885 33.0983 51.3917 32.8646 51.3921C32.6309 51.3925 32.3973 51.3901 32.1636 51.3848C31.93 51.3795 31.6964 51.3714 31.463 51.3605C31.2295 51.3496 30.9963 51.3359 30.7632 51.3193C30.5301 51.3028 30.2972 51.2834 30.0646 51.2612C29.8319 51.239 29.5996 51.214 29.3676 51.1863C29.1355 51.1584 28.9039 51.1278 28.6726 51.0944C28.4413 51.061 28.2104 51.0248 27.9799 50.9858C27.7495 50.9468 27.5196 50.9051 27.2902 50.8605C27.0608 50.816 26.8319 50.7686 26.6037 50.7186C26.3754 50.6685 26.1477 50.6156 25.9207 50.5601C25.6937 50.5045 25.4674 50.4461 25.2419 50.385C25.0163 50.324 24.7915 50.2602 24.5674 50.1937C24.3434 50.1272 24.1202 50.058 23.8977 49.9861C23.6754 49.9142 23.4539 49.8396 23.2333 49.7624C23.0127 49.6851 22.7931 49.6052 22.5745 49.5226C17.4507 47.537 12.9338 43.7773 10.6898 38.6841C10.6374 38.568 10.5863 38.4512 10.5368 38.3338C10.4872 38.2164 10.4391 38.0984 10.3925 37.9798C10.3459 37.8612 10.3007 37.742 10.2571 37.6223C10.2134 37.5026 10.1713 37.3823 10.1306 37.2615C10.09 37.1407 10.0508 37.0194 10.0132 36.8977C9.97555 36.7759 9.93943 36.6537 9.90484 36.5311C9.87025 36.4084 9.83719 36.2853 9.80565 36.1618C9.77411 36.0383 9.74412 35.9145 9.71567 35.7903C9.68723 35.666 9.66033 35.5414 9.63498 35.4165C9.60967 35.2916 9.58589 35.1664 9.56363 35.0409C9.54141 34.9154 9.52077 34.7896 9.50169 34.6637C9.48257 34.5377 9.46504 34.4114 9.44909 34.285C9.43315 34.1585 9.41878 34.0319 9.40598 33.905C9.39321 33.7782 9.382 33.6513 9.37233 33.5242C9.36271 33.3971 9.35467 33.2699 9.34823 33.1426C9.34174 33.0153 9.33686 32.888 9.33359 32.7606C9.33029 32.6331 9.32857 32.5057 9.32844 32.3783C9.32831 32.2508 9.32977 32.1234 9.33282 31.9959C9.33587 31.8685 9.34051 31.7412 9.34674 31.6139C9.35297 31.4866 9.36079 31.3594 9.3702 31.2323C9.37957 31.1051 9.39055 30.9781 9.40314 30.8513C9.41569 30.7245 9.4298 30.5978 9.44549 30.4714C9.46121 30.3449 9.47851 30.2186 9.49737 30.0925C9.51623 29.9665 9.53664 29.8407 9.5586 29.7152C9.5806 29.5896 9.60415 29.4644 9.62924 29.3394C9.65438 29.2145 9.68104 29.0898 9.70923 28.9655C9.73746 28.8412 9.76721 28.7173 9.79849 28.5938C9.82978 28.4702 9.8626 28.3471 9.89698 28.2244C9.93135 28.1016 9.96723 27.9794 10.0046 27.8575C10.042 27.7357 10.081 27.6143 10.1214 27.4935C10.1618 27.3726 10.2038 27.2523 10.2472 27.1324C10.2906 27.0127 10.3355 26.8934 10.3819 26.7747C11.8722 22.9459 14.7809 19.6213 18.2011 17.3838C19.6638 16.4269 21.2125 15.667 22.8106 14.9661Z" fill="#1C1C1C"/>
</g>
<defs>
<clipPath id="clip0_107_4646">
<rect width="66" height="66" rx="12" fill="white"/>
</clipPath>
</defs>
</svg>
