<svg width="66" height="66" viewBox="0 0 66 66" fill="none" xmlns="http://www.w3.org/2000/svg">
<g clip-path="url(#clip0_107_4644)">
<path d="M0 0H66V66H0V0Z" fill="#1C1C1C"/>
<path d="M27.6493 2.68925L28.2326 2.68227C30.4203 2.66814 32.6346 2.87772 34.7247 3.55174C35.047 3.65567 35.3675 3.79105 35.6721 3.93878C35.9473 4.07215 36.2698 4.29476 36.5677 4.35566C36.9123 4.42612 37.3002 4.41072 37.6521 4.43897C38.2556 4.48943 38.8577 4.5546 39.4581 4.6345C42.4153 5.02062 47.1861 6.08147 49.3395 8.22906C49.7743 8.6625 50.2089 9.23021 50.3203 9.84941C50.4379 10.5038 50.3714 11.251 50.3703 11.9162L50.3678 15.6078L50.3779 30.627C50.5473 30.7517 50.7143 30.8888 50.8673 31.0332C51.4287 31.5628 51.8972 32.2678 51.9436 33.0579C51.9635 33.3959 51.9238 33.7465 51.9177 34.0857C51.9075 34.656 51.9311 35.2294 51.9475 35.7995C52.4872 35.6263 53.054 35.4994 53.6174 35.4402C55.9649 35.1935 58.0291 35.9844 59.83 37.4498C63.1582 40.1581 65.1189 44.7815 65.5418 48.9767C65.8898 52.431 65.3529 56.3903 63.0862 59.1486C62.3214 60.0793 61.349 60.8867 60.2278 61.3471C59.8848 61.4879 59.5231 61.5765 59.1792 61.7135C58.1683 62.1162 57.4929 62.4178 56.3826 62.5253C53.8956 62.7659 51.9219 61.7419 50.0668 60.2011C47.2624 62.4437 43.1435 63.0374 39.6629 63.2395C39.6172 63.2435 39.5718 63.2471 39.5258 63.2492C35.0792 63.4517 28.2637 62.7552 24.8418 59.567C22.8184 60.382 20.6513 60.7959 18.4856 61.0024C14.2374 61.4074 9.56171 61.0519 5.56244 59.5094C4.3985 59.0605 3.23541 58.4941 2.27213 57.6908C1.50847 57.054 0.766281 56.1924 0.56659 55.1884C0.445397 54.5792 0.517902 53.4794 0.518464 52.8061L0.518162 48.1759L0.515768 30.9528L0.503692 25.3889C0.502941 25.1477 0.482968 24.8917 0.508736 24.6527C0.530059 24.4549 0.587282 24.2549 0.594237 24.0567C0.601069 23.862 0.558757 23.6587 0.542804 23.4643C0.478467 22.6802 0.851797 21.9739 1.35003 21.3907C3.42807 18.9585 8.8787 17.9068 11.8983 17.6689C11.9163 15.8876 11.9219 14.1063 11.9153 12.3249C11.9155 11.5444 11.8316 9.89801 12.0105 9.20823C12.1935 8.50253 12.6245 7.85619 13.1177 7.32955C15.4721 4.81517 20.2888 3.53841 23.5834 3.04492C24.9318 2.8485 26.2871 2.72995 27.6493 2.68925Z" fill="white"/>
<path d="M19.1301 17.6866C19.4966 17.78 19.8914 17.8103 20.2472 17.9355L20.2784 18.0023C20.2543 18.0157 20.2476 18.0207 20.2187 18.0305C20.0166 18.0994 19.4129 18.0287 19.227 17.9141C19.1367 17.8585 19.1463 17.781 19.1301 17.6866Z" fill="#1C1C1C"/>
<path d="M28.5244 31.2907C28.5454 31.3102 28.5543 31.3425 28.5659 31.3685C28.557 31.4503 28.5525 31.4873 28.4848 31.5404C28.3255 31.6653 28.111 31.7595 27.9379 31.8683C27.3002 32.2695 26.7783 32.7146 26.42 33.3853L26.4169 33.3855L26.388 33.3557C26.3901 33.2855 26.3944 33.2161 26.4133 33.1481C26.6518 32.2924 27.8076 31.6861 28.5244 31.2907Z" fill="#1C1C1C"/>
<path d="M30.6369 27.3481C30.9109 27.4171 31.0962 27.6463 31.2728 27.8502C30.9775 27.9841 30.6855 28.1169 30.4034 28.2777C30.2411 28.3695 30.084 28.4748 29.9259 28.574C30.1086 28.1312 30.3072 27.7021 30.6369 27.3481Z" fill="#1C1C1C"/>
<path d="M44.9326 30.6435C45.0176 30.6545 45.0963 30.6787 45.1782 30.7029C46.4966 31.0928 48.3725 31.9057 49.049 33.1445C48.8258 33.003 48.6141 32.723 48.4146 32.5388C48.0978 32.2463 47.7067 32.0116 47.3307 31.8041C46.7588 31.4885 46.1509 31.2654 45.5467 31.0219C45.3933 30.9601 45.1465 30.9075 45.0162 30.8213C44.9456 30.7746 44.95 30.7201 44.9326 30.6435Z" fill="#1C1C1C"/>
<path d="M34.4529 36.2199C34.9576 36.359 35.4457 36.4147 35.9658 36.4406C36.0313 36.5736 36.1637 36.7648 36.1387 36.9084C36.0405 36.9683 35.9066 36.9375 35.7957 36.9272C35.2184 36.8786 34.6367 36.8169 34.0647 36.7249C34.2071 36.5652 34.329 36.3938 34.4529 36.2199Z" fill="#1C1C1C"/>
<path d="M46.9491 32.2786C47.7069 32.5716 48.5753 33.4502 48.9448 34.1717C48.6838 34.4167 48.3919 34.6242 48.1018 34.8328C47.7883 35.0492 47.4577 35.2353 47.11 35.3913C47.1793 35.2073 47.2514 35.022 47.3078 34.8336C47.5976 33.866 47.4116 33.1496 46.9491 32.2786Z" fill="#1C1C1C"/>
<path d="M28.6113 32.4016C28.7971 32.6862 28.8234 33.1136 29.0239 33.4285C28.6199 33.9435 28.3186 34.4243 28.1126 35.0481C27.9221 34.9645 27.7437 34.8526 27.564 34.7482C27.2832 34.577 27.0287 34.3975 26.791 34.1692C26.8202 34.0786 26.8493 33.9868 26.8844 33.8983C27.1627 33.197 27.9454 32.6792 28.6113 32.4016Z" fill="#1C1C1C"/>
<path d="M12.791 14.9403C14.1149 16.0345 15.7273 16.6138 17.3274 17.1668L17.0839 17.4109C17.0634 17.4418 17.0335 17.4958 17.0048 17.5222C16.9279 17.5932 16.8114 17.5757 16.7126 17.5768C16.2855 17.5815 15.8555 17.536 15.4277 17.5304C14.5487 17.5224 13.6707 17.5476 12.7937 17.6058L12.791 14.9403Z" fill="#1C1C1C"/>
<path d="M39.5002 33.6728C39.7959 33.8144 40.1 33.9137 40.4143 34.0055C40.3807 34.1405 40.3731 34.288 40.3749 34.427C40.3885 35.4574 40.8383 36.134 41.5483 36.8223C40.5409 36.9146 39.5542 37.0201 38.5405 37.0352C38.0415 37.0529 37.5442 37.0397 37.0452 37.0272C36.8348 36.8275 36.6657 36.6291 36.524 36.3748C36.9158 36.2669 37.3093 36.1588 37.6701 35.9673C38.5742 35.4872 39.199 34.6365 39.5002 33.6728Z" fill="#1C1C1C"/>
<path d="M38.1678 26.0207C39.1486 26.0337 39.9851 26.3893 40.7514 26.9896C40.4989 27.058 40.251 27.1315 40.0082 27.2298C38.8769 27.6875 38.1738 28.4487 37.7031 29.5627C36.8763 29.1781 36.3723 29.0167 35.4483 29.0679L35.1575 28.6947C35.263 28.0847 35.4525 27.5394 35.8638 27.0646C36.4547 26.3825 37.2889 26.0882 38.1678 26.0207Z" fill="#1C1C1C"/>
<path d="M31.8193 32.7215C31.9218 32.7059 32.0111 32.6988 32.1019 32.749C32.1252 32.9421 32.1479 33.1359 32.1812 33.3276C32.3898 34.5315 33.0438 35.2915 34.0135 35.9744C33.8088 36.1783 33.6177 36.3994 33.4242 36.6139C32.7168 36.5 32.0144 36.3609 31.3169 36.1968C30.435 35.9549 29.4138 35.7106 28.6103 35.2612C28.7083 34.8312 28.9172 34.4307 29.188 34.0841C29.824 33.2703 30.8159 32.8462 31.8193 32.7215Z" fill="#1C1C1C"/>
<path d="M35.3368 23.8291C36.3205 23.8588 37.0901 24.1244 37.8289 24.7822C37.6439 25.038 37.4798 25.2975 37.3452 25.5833C36.2467 25.9189 35.3186 26.5716 34.8873 27.6694C34.8263 27.8247 34.7855 28.0997 34.6586 28.2001C33.8768 27.7591 33.1896 27.5934 32.2913 27.6448C32.2309 27.4206 32.1766 27.1936 32.1593 26.9615C32.1563 26.916 32.1544 26.8704 32.1535 26.8248C32.1528 26.7791 32.1531 26.7335 32.1546 26.6879C32.156 26.6422 32.1586 26.5967 32.1623 26.5512C32.166 26.5056 32.1708 26.4603 32.1768 26.415C32.1827 26.3698 32.1898 26.3247 32.198 26.2798C32.2062 26.2349 32.2155 26.1902 32.2259 26.1457C32.2363 26.1013 32.2477 26.0571 32.2603 26.0132C32.2729 25.9694 32.2865 25.9258 32.3013 25.8826C32.316 25.8394 32.3318 25.7966 32.3486 25.7542C32.3655 25.7117 32.3834 25.6697 32.4023 25.6282C32.4212 25.5867 32.4411 25.5456 32.4621 25.5051C32.483 25.4645 32.5049 25.4245 32.5279 25.385C32.5508 25.3456 32.5747 25.3067 32.5996 25.2683C32.6244 25.2301 32.6502 25.1924 32.6769 25.1554C32.7036 25.1184 32.7312 25.082 32.7597 25.0464C32.7882 25.0108 32.8176 24.9758 32.8478 24.9416C33.5067 24.1927 34.364 23.8953 35.3368 23.8291Z" fill="#1C1C1C"/>
<path d="M32.3833 28.2098C32.6853 28.1707 33.0159 28.1817 33.3163 28.234C33.9398 28.3426 34.5269 28.67 34.8942 29.1912C34.6491 29.2735 34.4112 29.3729 34.1803 29.4893C33.0623 30.0618 32.5186 30.9543 32.1472 32.1173C31.7342 32.1498 31.3557 32.2365 30.9578 32.3455C30.4024 32.5242 29.9634 32.7293 29.4819 33.0601C29.3238 32.7241 29.2082 32.3431 29.1541 31.9755C29.0359 31.1729 29.286 30.293 29.7711 29.6477C30.3894 28.8252 31.3817 28.3513 32.3833 28.2098Z" fill="#1C1C1C"/>
<path d="M1.41236 29.4448C1.87698 30.095 2.61899 30.645 3.30146 31.0466C7.51685 33.5273 14.119 33.9853 18.8774 33.4893C20.5316 33.3168 22.1133 33.0017 23.7205 32.584C23.6821 32.8594 23.6624 33.1334 23.6525 33.4111C23.6415 33.4218 23.6319 33.4343 23.6195 33.4432C23.4566 33.5609 22.6051 33.7168 22.376 33.7671C18.9385 34.523 15.2404 34.68 11.743 34.2971C8.43711 33.9351 3.59902 32.9707 1.40271 30.2326C1.39518 29.97 1.40513 29.7073 1.41236 29.4448Z" fill="#1C1C1C"/>
<path d="M44.861 31.3867C45.1818 31.5053 45.4917 31.635 45.7703 31.837C46.3257 32.2398 46.7658 32.9105 46.8717 33.5922C46.8781 33.6318 46.8835 33.6716 46.888 33.7115C46.8924 33.7514 46.8957 33.7914 46.8981 33.8315C46.9005 33.8715 46.9018 33.9116 46.9021 33.9517C46.9025 33.9919 46.9018 34.032 46.9002 34.0721C46.8985 34.1122 46.8958 34.1522 46.892 34.1922C46.8883 34.2322 46.8836 34.2721 46.8779 34.3118C46.8721 34.3515 46.8653 34.3911 46.8576 34.4304C46.8499 34.4698 46.8412 34.509 46.8314 34.5479C46.8217 34.5869 46.811 34.6256 46.7993 34.6639C46.7876 34.7023 46.7749 34.7404 46.7613 34.7782C46.7477 34.816 46.7331 34.8534 46.7176 34.8904C46.7021 34.9274 46.6857 34.964 46.6683 35.0002C46.651 35.0364 46.6327 35.0721 46.6135 35.1074C46.5943 35.1426 46.5743 35.1774 46.5533 35.2117C46.5324 35.2459 46.5106 35.2796 46.4879 35.3127C46.4653 35.3458 46.4418 35.3784 46.4175 35.4104C46.3096 35.5539 46.183 35.6917 46.027 35.7834C45.3688 36.1707 43.6514 36.5214 42.8689 36.6326L42.4606 36.6837C42.1746 36.5571 41.8976 36.3773 41.6704 36.162C41.0783 35.6009 40.9166 34.8815 40.8967 34.0934C41.6895 34.1203 42.3808 34.0351 43.0809 33.6353C43.9273 33.152 44.603 32.331 44.861 31.3867Z" fill="#1C1C1C"/>
<path d="M1.39874 50.8452C1.58697 51.0083 1.75265 51.2271 1.93403 51.4025C2.38248 51.8363 2.87643 52.1894 3.41515 52.5008C7.85318 55.0663 14.7834 55.4702 19.7618 54.8137C21.0773 54.6402 22.3525 54.3557 23.6328 54.0142C23.654 54.3069 23.6528 54.6025 23.6587 54.8961C21.7348 55.4176 19.8251 55.7679 17.8348 55.9009C13.6502 56.1806 8.75513 55.8197 4.87161 54.1295C3.95125 53.7289 3.03749 53.2425 2.28162 52.5748C1.94861 52.2807 1.5701 51.8661 1.4559 51.4233C1.40902 51.2416 1.41092 51.0323 1.39874 50.8452Z" fill="#1C1C1C"/>
<path d="M24.5876 53.8058C25.4686 54.7069 26.1107 55.1752 27.2304 55.7358C31.8782 58.0631 38.8619 58.3004 43.9019 57.3286C44.9879 57.1192 46.0142 56.8174 47.0611 56.4678C47.1658 56.5975 47.2752 56.7272 47.3692 56.8649C47.4242 56.9457 47.4895 57.0469 47.4683 57.1479L47.3639 57.2034C45.7006 57.867 43.961 58.2274 42.1901 58.4567C41.9553 58.4885 41.72 58.5176 41.4845 58.5441C41.2489 58.5706 41.0131 58.5944 40.777 58.6155C40.5409 58.6366 40.3046 58.6551 40.0681 58.6708C39.8316 58.6866 39.595 58.6997 39.3582 58.7101C39.1213 58.7205 38.8844 58.7282 38.6475 58.7332C38.4105 58.7382 38.1735 58.7406 37.9365 58.7402C37.6994 58.7399 37.4624 58.7369 37.2255 58.7312C36.9885 58.7255 36.7517 58.7171 36.5149 58.706C36.2781 58.6949 36.0415 58.6812 35.805 58.6647C35.5686 58.6483 35.3323 58.6292 35.0963 58.6074C34.8603 58.5856 34.6245 58.5611 34.389 58.534C34.1536 58.5068 33.9184 58.477 33.6837 58.4446C33.4488 58.4121 33.2144 58.377 32.9804 58.3392C32.7464 58.3015 32.5129 58.261 32.2798 58.2179C32.0467 58.1749 31.8141 58.1292 31.5821 58.0808C31.3501 58.0325 31.1186 57.9815 30.8877 57.9279C28.9461 57.4719 25.685 56.3503 24.5967 54.5944L24.5876 53.8058Z" fill="#1C1C1C"/>
<path d="M1.40826 25.2242C1.6125 25.3685 1.79547 25.594 1.98379 25.7633C2.25522 26.0072 2.56409 26.2075 2.87435 26.3982C5.88618 28.2497 10.0917 28.8265 13.5562 28.9835C17.6693 29.1698 23.9 28.7108 27.4147 26.4058C27.7723 26.1713 28.0859 25.898 28.4005 25.6106L28.414 26.217L28.272 26.4014C27.2088 27.4815 25.8013 28.1268 24.3976 28.637C18.8108 30.6681 10.0594 30.53 4.64302 27.9926C3.4096 27.4148 1.89637 26.5754 1.40826 25.2242Z" fill="#1C1C1C"/>
<path d="M44.7217 29.2248C46.426 29.7587 49.8355 30.7982 50.7401 32.4355C50.9695 32.8505 51.0124 33.308 50.8765 33.7599C50.6038 34.6671 49.7397 35.2581 48.9468 35.6816C43.7448 38.4602 35.2875 38.6155 29.744 36.9206C28.1159 36.4227 25.6018 35.4589 24.7801 33.8877C24.5678 33.4818 24.4991 33.0713 24.6444 32.6282C25.0011 31.5411 26.2158 30.8448 27.1725 30.359C27.8249 30.0524 28.4959 29.7868 29.1637 29.5161C28.9756 29.8045 28.8416 30.0911 28.7617 30.4264C27.7467 30.9462 26.2815 31.6832 25.8702 32.8178C25.721 33.2292 25.7642 33.6471 25.9538 34.0361C26.524 35.2051 28.3987 35.9095 29.5787 36.3052C34.5818 37.9831 42.7683 38.1765 47.535 35.7808C48.2915 35.4005 49.4485 34.7124 49.7144 33.8434C49.8269 33.4756 49.7291 33.1156 49.5443 32.7905C48.7503 31.3941 46.4635 30.4478 44.9538 30.0421C44.8901 29.7643 44.8172 29.4933 44.7217 29.2248Z" fill="#1C1C1C"/>
<path d="M50.6122 36.963L50.6302 36.9641L50.6359 36.9923C50.4849 37.1073 50.335 37.2236 50.1861 37.3412C48.0432 39.0648 47.0313 42.1187 46.744 44.7709C46.2743 49.1078 47.5167 54.1507 50.294 57.5689C51.9158 59.5649 54.193 61.2466 56.8119 61.5237C56.4769 61.586 56.1355 61.6088 55.7956 61.6226C55.6465 61.6234 55.4975 61.619 55.3486 61.6096C55.1998 61.6001 55.0515 61.5856 54.9036 61.566C54.7558 61.5464 54.6088 61.5218 54.4626 61.4921C54.3165 61.4624 54.1715 61.4278 54.0277 61.3882C51.2782 60.6208 49.1708 58.1818 47.8183 55.7786C45.7327 52.0728 44.9512 47.0105 46.1118 42.8856C46.8367 40.309 48.2407 38.2935 50.6122 36.963Z" fill="#1C1C1C"/>
<path d="M40.8605 27.5647C41.6513 27.473 42.4786 27.6308 43.1392 28.0878C43.7671 28.5222 44.2416 29.2257 44.3739 29.9813C44.5058 30.7341 44.313 31.5556 43.8712 32.1778C43.3739 32.8782 42.6436 33.3627 41.7972 33.5099C40.985 33.6606 40.3277 33.4458 39.5962 33.1217C39.552 31.678 39.2372 30.8489 38.1775 29.8428C38.3155 29.4879 38.4653 29.1604 38.6934 28.8534C38.7253 28.8099 38.7583 28.7672 38.7924 28.7254C38.8265 28.6835 38.8616 28.6426 38.8978 28.6025C38.9339 28.5624 38.971 28.5232 39.0091 28.485C39.0472 28.4467 39.0862 28.4095 39.1262 28.3732C39.1662 28.337 39.207 28.3017 39.2488 28.2675C39.2905 28.2333 39.333 28.2001 39.3764 28.168C39.4198 28.1359 39.464 28.105 39.509 28.0751C39.5539 28.0452 39.5996 28.0165 39.646 27.9889C39.6924 27.9613 39.7394 27.9349 39.7871 27.9097C39.8349 27.8845 39.8832 27.8604 39.9321 27.8376C39.981 27.8148 40.0305 27.7932 40.0805 27.7729C40.1305 27.7526 40.181 27.7335 40.2319 27.7157C40.2829 27.6979 40.3342 27.6814 40.386 27.6662C40.4378 27.651 40.4899 27.6371 40.5424 27.6245C40.5949 27.6118 40.6476 27.6006 40.7007 27.5906C40.7537 27.5807 40.807 27.572 40.8605 27.5647Z" fill="#1C1C1C"/>
<path d="M37.5038 5.34515C38.2167 5.44189 38.9384 5.47454 39.6523 5.57416C42.0183 5.90437 44.5035 6.49758 46.6569 7.54823C47.6038 8.01016 48.9383 8.73996 49.2834 9.81227C49.4314 10.272 49.2994 10.6609 49.0831 11.0664C49.0251 11.1643 48.955 11.2571 48.8903 11.3506C48.4135 11.095 47.9299 10.8529 47.4395 10.6244C46.9491 10.396 46.4526 10.1814 45.9502 9.98082C45.4477 9.78024 44.94 9.59393 44.4271 9.42188C43.9141 9.24983 43.3968 9.09231 42.875 8.94931C41.4563 8.5488 40.013 8.23362 38.582 7.88093C38.4958 6.88255 38.1725 6.09592 37.5038 5.34515Z" fill="#1C1C1C"/>
<path d="M35.4684 29.6258C36.2331 29.5078 37.073 29.7272 37.6992 30.1716C37.7424 30.2017 37.7849 30.2329 37.8265 30.2652C37.8682 30.2975 37.909 30.3307 37.9491 30.365C37.9891 30.3993 38.0282 30.4345 38.0665 30.4707C38.1048 30.507 38.1422 30.5441 38.1786 30.5821C38.2151 30.6202 38.2506 30.6591 38.2851 30.699C38.3196 30.7388 38.3531 30.7794 38.3856 30.8209C38.4182 30.8624 38.4496 30.9046 38.4801 30.9476C38.5105 30.9907 38.5398 31.0344 38.5681 31.0789C38.5963 31.1234 38.6235 31.1685 38.6495 31.2143C38.6755 31.2601 38.7004 31.3066 38.7241 31.3536C38.7479 31.4007 38.7705 31.4483 38.7919 31.4964C38.8132 31.5446 38.8334 31.5933 38.8524 31.6424C38.8714 31.6916 38.8891 31.7412 38.9056 31.7913C38.9222 31.8413 38.9375 31.8917 38.9515 31.9425C38.9655 31.9933 38.9783 32.0444 38.9898 32.0959C39.0013 32.1473 39.0116 32.1989 39.0205 32.2509C39.0293 32.3012 39.0369 32.3517 39.0432 32.4023C39.0495 32.453 39.0545 32.5039 39.0583 32.5548C39.0621 32.6057 39.0646 32.6567 39.0659 32.7078C39.0672 32.7588 39.0672 32.8099 39.0659 32.8609C39.0647 32.912 39.0621 32.963 39.0583 33.0139C39.0546 33.0649 39.0495 33.1157 39.0433 33.1664C39.0369 33.217 39.0294 33.2675 39.0206 33.3178C39.0118 33.3681 39.0018 33.4182 38.9905 33.468C38.9792 33.5178 38.9667 33.5674 38.953 33.6166C38.9393 33.6658 38.9243 33.7146 38.9082 33.763C38.8921 33.8115 38.8747 33.8595 38.8562 33.9071C38.8377 33.9547 38.818 34.0018 38.7972 34.0484C38.7763 34.0951 38.7543 34.1412 38.7312 34.1867C38.7081 34.2322 38.6838 34.2771 38.6585 34.3215C38.6331 34.3658 38.6067 34.4095 38.5791 34.4525C38.5516 34.4955 38.5231 34.5379 38.4935 34.5795C37.9551 35.3225 37.2045 35.7165 36.3121 35.8628C35.465 35.9306 34.6764 35.8075 33.9706 35.3029C33.3216 34.8389 32.8543 34.1422 32.7285 33.3494C32.5932 32.4977 32.7767 31.6069 33.2884 30.9078C33.8122 30.192 34.6026 29.7656 35.4684 29.6258Z" fill="#1C1C1C"/>
<path d="M46.0726 21.2055L46.0814 21.213C46.1038 21.3051 46.0468 21.4203 46.0201 21.5126C45.4547 23.4704 46.1629 24.3108 47.0555 25.935C47.6312 26.9827 47.7672 28.0343 47.4341 29.1864C46.8709 28.9725 46.3045 28.7606 45.7283 28.5841C45.2529 28.4385 44.6721 28.3529 44.2367 28.1234C43.9495 27.972 43.5906 27.6916 43.3485 27.4767C43.1285 27.2814 42.9452 27.0791 42.68 26.9432L42.642 26.9241C42.177 26.7586 41.7661 26.7695 41.2815 26.7897C40.4602 26.0184 39.6402 25.68 38.5466 25.4796C39.7771 23.87 41.5457 22.9986 43.4302 22.4091C44.3922 22.1083 45.2794 21.8592 46.0726 21.2055Z" fill="#1C1C1C"/>
<path d="M24.5818 35.1781C24.6065 35.2069 24.6311 35.2359 24.6567 35.2638C27.0738 37.8886 33.0583 38.7619 36.4466 38.9102C37.1661 38.9417 37.8903 38.9671 38.6104 38.947C42.2274 38.8458 48.1825 38.0188 50.9491 35.4817L50.9749 36.0854C50.6996 36.2118 50.4355 36.3672 50.1698 36.5124C49.3385 36.9626 48.5156 37.6292 47.8799 38.3285C47.6366 38.5962 47.4328 38.9107 47.1721 39.1604C46.8774 39.4425 46.3777 39.539 45.9953 39.6604C43.2331 40.5381 40.1816 40.8144 37.2942 40.754C33.889 40.6829 27.5813 39.8322 25.1058 37.2168C24.4495 36.5234 24.5588 36.0676 24.5818 35.1781Z" fill="#1C1C1C"/>
<path d="M1.39162 26.6416C1.57342 26.8363 1.71963 27.0621 1.902 27.2561C2.59547 27.9942 3.54384 28.5164 4.45903 28.9332C7.65951 30.3905 11.2583 30.8761 14.7464 30.9561C18.812 31.0493 25.3422 30.2665 28.4199 27.3297C28.4157 27.8237 28.4143 28.3177 28.4157 28.8116L27.9969 28.9869C26.3955 29.6968 24.903 30.3735 23.9234 31.911C21.8113 32.6875 18.4886 33.022 16.2406 33.0814C12.2863 33.1859 5.3081 32.4784 2.29884 29.5934C1.14761 28.4896 1.41826 28.1187 1.39162 26.6416Z" fill="#1C1C1C"/>
<path d="M38.4068 8.78748C38.9779 8.82808 39.6006 9.02614 40.1609 9.15673C43.0618 9.83265 45.5942 10.6921 48.2657 12.0199C45.841 14.148 39.9964 14.9553 36.8429 15.2057C36.0318 15.2698 35.2198 15.3176 34.4067 15.3491C33.5937 15.3807 32.7804 15.3959 31.9668 15.3948C31.1532 15.3936 30.3399 15.3762 29.527 15.3424C28.7141 15.3086 27.9022 15.2586 27.0912 15.1922C29.6014 14.7654 32.0151 14.1591 34.2793 12.958C35.6776 12.2162 37.2175 11.1952 38.0062 9.78341C38.1834 9.46623 38.3009 9.13391 38.4068 8.78748Z" fill="#1C1C1C"/>
<path d="M49.3992 12.2106C49.4192 12.2318 49.4302 12.2635 49.4343 12.292C49.4573 12.4541 49.4439 12.6416 49.4466 12.8063C49.4562 13.4064 49.3962 13.7785 48.9833 14.2359C48.2356 15.0642 47.0337 15.5904 46.0047 15.9867C42.4388 17.3604 38.5716 17.8966 34.7707 18.0956C29.1824 18.3882 17.3238 17.7495 13.1631 14.0037C13.0518 13.8884 12.9597 13.7681 12.8668 13.6385C12.8192 13.2238 12.8269 12.7994 12.8193 12.3823C12.9816 12.5519 13.1451 12.7196 13.3191 12.8774C15.2141 14.5972 18.6777 15.3241 21.1671 15.4948C21.6914 15.5266 22.2162 15.5446 22.7414 15.549C23.0633 15.5535 23.3957 15.5398 23.7153 15.5773C24.6926 15.6921 25.6581 15.9003 26.6397 16.008C28.04 16.1496 29.4437 16.2389 30.8507 16.276C32.2576 16.3131 33.6641 16.2979 35.0699 16.2304C38.9279 16.0263 46.7268 15.1873 49.3992 12.2106Z" fill="#1C1C1C"/>
<path d="M24.5934 55.5746C24.8943 55.7727 25.1652 56.0599 25.4605 56.2762C26.1606 56.789 26.947 57.185 27.7442 57.5228C33.3597 59.902 42.2262 59.917 47.8694 57.6323C48.3393 58.2893 48.8589 58.8822 49.3646 59.5098C49.1523 59.7015 48.9221 59.8606 48.6869 60.022C46.0641 61.7147 41.8025 62.2442 38.7426 62.3347C35.1359 62.4414 31.1416 61.9616 27.8446 60.424C27.0281 60.0432 26.223 59.5977 25.5659 58.9729C24.3891 57.8544 24.628 57.0647 24.5934 55.5746Z" fill="#1C1C1C"/>
<path d="M1.38993 52.4908C1.8891 52.9689 2.34749 53.421 2.9416 53.7919C7.25218 56.4829 14.6356 56.9489 19.5928 56.3168C20.4579 56.2089 21.3156 56.0584 22.1658 55.8653C22.6725 55.7483 23.1708 55.5995 23.6779 55.4834C23.699 56.2114 23.5649 57.2714 23.7836 57.9576C23.8739 58.2412 24.0435 58.5252 24.1768 58.792C24.1205 58.8693 24.0634 58.8772 23.9757 58.9121C21.2096 59.925 18.0929 60.2452 15.1636 60.2288C11.3999 60.2077 5.15043 59.3433 2.38227 56.5175C1.51524 55.6324 1.37934 55.1255 1.38301 53.9318L1.38993 52.4908Z" fill="#1C1C1C"/>
<path d="M49.3987 14.9485L49.4199 14.9693C49.4606 15.0717 49.4766 29.0762 49.4046 30.031C49.0347 29.8527 48.6625 29.679 48.2882 29.51C48.8764 27.4953 48.4522 26.465 47.4195 24.7363C47.1208 24.2364 46.8335 23.7087 46.7465 23.124C46.6335 22.3658 47.0502 21.6853 47.0655 20.9446C47.0739 20.5364 46.9866 20.0254 46.6894 19.7276C46.5653 19.6033 46.4036 19.4966 46.222 19.5053C45.6489 19.5329 45.6041 20.2457 45.2952 20.5949C45.0736 20.8454 44.7198 21.006 44.4155 21.1301C43.7114 21.4172 42.9675 21.5794 42.249 21.8233C40.7894 22.3188 39.2948 23.2207 38.2495 24.3644C37.8103 24.057 37.357 23.7131 36.8437 23.5395C35.7927 23.184 34.5823 23.2253 33.583 23.7198C32.6997 24.1569 32.0529 24.8757 31.7325 25.8056C31.6396 26.1035 31.6156 26.4151 31.5833 26.7239C31.4668 26.6306 31.3458 26.5321 31.2169 26.4567C30.9826 26.3196 30.7015 26.2569 30.438 26.3412C29.9538 26.4962 29.628 27.0586 29.42 27.4894C29.4002 26.6174 29.3911 25.7454 29.3928 24.8732C29.3924 24.2394 29.4587 23.5233 29.3245 22.9023C28.9321 21.0869 26.3642 19.8505 24.7605 19.251C23.8664 18.9167 23.1187 18.7834 22.2899 18.2551C23.1461 18.3354 24.0006 18.5046 24.8524 18.6249C25.9738 18.7815 27.0998 18.8921 28.2302 18.9566C34.1234 19.3017 44.865 18.9837 49.3987 14.9485Z" fill="#1C1C1C"/>
<path d="M14.7516 18.4818C18.3562 18.491 24.9248 19.3238 27.6331 21.96C28.0547 22.3705 28.4295 22.8968 28.429 23.509C28.4286 24.0672 28.1371 24.5361 27.76 24.9224C27.0547 25.6451 26.091 26.1462 25.1636 26.529C22.0327 27.8214 18.6136 28.1014 15.2608 28.1591C11.5948 28.1306 5.15644 27.5339 2.36304 24.8538C1.9273 24.4358 1.53148 23.8934 1.53003 23.2629C1.52876 22.7061 1.87774 22.1936 2.25379 21.8106C4.289 19.7378 9.04911 18.8732 11.8272 18.6095C12.8 18.5226 13.7748 18.48 14.7516 18.4818Z" fill="#1C1C1C"/>
<path d="M14.2358 19.2863C17.6035 19.1852 23.5892 19.683 26.245 22.0057C26.67 22.3774 27.1194 22.9123 27.1433 23.5049C27.1649 24.04 26.8132 24.5579 26.4566 24.9277C24.3809 27.0795 18.8523 27.7027 16.0086 27.7494C12.5973 27.8506 6.68865 27.3856 3.98085 25.0504C3.54626 24.6757 3.13742 24.1697 3.10746 23.5723C3.08093 23.0434 3.35029 22.5629 3.70337 22.1899C5.77641 20.0003 11.3735 19.3713 14.2358 19.2863Z" fill="white"/>
<path d="M14.1302 19.9985C17.4084 19.8163 21.7166 20.3642 24.6879 21.8016C25.4495 22.1701 26.2821 22.7012 26.5746 23.5369C24.2075 21.0917 20.1933 20.5789 16.9614 20.3407C15.9857 20.2972 15.0097 20.2895 14.0334 20.3176C10.8981 20.4329 6.5424 21.0295 4.0141 23.045C4.08305 22.9516 4.15348 22.8602 4.23327 22.7758C5.67818 21.2471 9.17492 20.477 11.2053 20.2082C12.1724 20.0801 13.1555 20.0269 14.1302 19.9985Z" fill="#1C1C1C"/>
<path d="M14.5177 20.8649C17.0512 20.7691 19.8996 21.0834 22.329 21.801C23.7639 22.2249 25.5425 22.9366 26.2912 24.3101C26.2297 24.3774 26.1668 24.4435 26.1025 24.5082C24.0518 26.5575 18.5379 27.158 15.7711 27.1698C14.6827 27.1752 13.602 27.1591 12.5163 27.0753C9.80788 26.8665 5.76328 26.2523 3.90924 24.0869C3.98644 23.9717 4.07808 23.8579 4.17197 23.7558C4.78473 23.0891 5.62349 22.6668 6.44949 22.3268C9.00647 21.2744 11.7785 20.9849 14.5177 20.8649Z" fill="#1C1C1C"/>
<path d="M13.4943 21.3782C14.6721 21.1989 16.0524 21.9791 17.0774 22.4785C17.3908 22.6312 17.75 22.8459 18.0963 22.8988C18.5198 22.9634 19.6967 22.7026 20.1972 22.6667C20.3291 22.6572 20.5472 22.6624 20.644 22.7683C20.7121 22.8428 20.7212 22.9459 20.7106 23.0415C20.6852 23.2696 20.5648 23.4806 20.4616 23.6818C20.117 24.354 19.76 24.8307 19.1537 25.2875C18.5417 25.7485 17.3696 26.6583 16.6148 26.7504C16.2211 26.7984 15.8185 26.7286 15.4288 26.6739C14.6865 26.5465 13.9676 26.3478 13.2488 26.1248C12.0754 25.7609 11.0061 25.2006 9.87905 24.7247C9.23671 24.4534 8.57 24.2698 7.92528 24.0152C7.84884 23.985 7.76228 23.9376 7.73282 23.8554C7.70936 23.7901 7.70949 23.7307 7.7343 23.6673C8.02041 23.4696 8.47364 23.4226 8.80835 23.3231C9.08975 23.2373 9.3674 23.1408 9.64128 23.0333C10.9319 22.5242 12.0944 21.5496 13.4943 21.3782Z" fill="white"/>
<path d="M13.4457 21.9554C14.6361 21.7926 15.9116 22.5737 16.9535 23.0635C17.3162 23.2341 17.6947 23.4282 18.0976 23.4761C18.639 23.5406 19.4611 23.3532 20.0185 23.2761C19.7815 23.7637 19.5108 24.2041 19.1076 24.5731C18.6491 24.9926 17.2661 25.9833 16.6977 26.1539C16.4946 26.2148 16.3142 26.2051 16.1055 26.1954C13.4557 25.8701 11.6073 24.7936 9.18958 23.8192C10.6467 23.414 12.0831 22.1946 13.4457 21.9554Z" fill="#1C1C1C"/>
<path d="M27.5833 3.627C30.2065 3.54562 34.5898 3.78228 36.6003 5.64911C37.1973 6.20341 37.6303 6.93882 37.6524 7.76807C37.6775 8.71037 37.2126 9.50334 36.5836 10.1698C34.1965 12.6991 29.6808 13.9315 26.3518 14.3771C25.2051 14.5306 24.0577 14.5896 22.9025 14.6241C20.1244 14.6949 16.0104 14.0593 13.8986 12.1031C13.3443 11.5898 12.8817 10.9007 12.856 10.1227C12.8283 9.27988 13.3185 8.50644 13.8784 7.91702C16.7464 4.89782 23.6034 3.72161 27.5833 3.627Z" fill="#1C1C1C"/>
<path d="M34.2827 6.11166C34.3678 6.11712 34.4523 6.13006 34.522 6.18362C34.5892 6.23521 34.6182 6.29942 34.6235 6.38272C34.6542 6.86954 34.015 7.65181 33.6821 7.9608C32.9892 8.60404 32.0696 9.04877 31.222 9.45347C27.8777 11.0501 24.0651 11.9994 20.3436 11.849C18.7801 11.7858 17.0548 11.5885 15.937 10.3765C15.854 10.2576 15.7776 10.1498 15.7393 10.0075C15.7131 9.91044 15.71 9.83748 15.763 9.74795C15.8028 9.71508 15.9326 9.65894 15.9861 9.68015C16.1629 9.75002 16.4894 10.1489 16.6598 10.288C16.806 10.4073 16.9675 10.5099 17.128 10.6089C17.9627 11.1236 19.1572 11.2293 20.1229 11.2884C23.6178 11.5023 27.4245 10.5521 30.5918 9.11747C31.4457 8.73069 32.3513 8.29183 33.0913 7.71091C33.368 7.49364 33.6256 7.22075 33.803 6.91543C33.9445 6.6718 34.0499 6.31074 34.2616 6.12901C34.2685 6.12307 34.2757 6.11745 34.2827 6.11166Z" fill="white"/>
<path d="M24.2974 4.87901C25.2988 4.75945 26.6737 4.96655 27.5189 5.5408C27.8436 5.76144 28.1201 6.07268 28.1856 6.47167C28.2387 6.7951 28.1448 7.12162 27.9449 7.37872C27.4442 8.02255 26.4603 8.27411 25.6923 8.36872C24.6245 8.47004 23.2727 8.32715 22.3865 7.66722C22.087 7.44414 21.865 7.157 21.8182 6.77783C21.772 6.40244 21.8918 6.03336 22.1235 5.7385C22.6196 5.10716 23.5498 4.95819 24.2974 4.87901Z" fill="white"/>
<path d="M24.2923 5.81362C25.1041 5.70814 26.1531 5.85608 26.8945 6.20914C27.0474 6.28192 27.2877 6.39454 27.3293 6.57435C27.3494 6.6611 27.3106 6.74321 27.2589 6.81024C26.9244 7.24337 26.1686 7.39593 25.6602 7.46219C24.8979 7.61507 23.7252 7.34991 23.0378 7.0105C22.8995 6.94218 22.7152 6.83699 22.6799 6.67251C22.6588 6.57389 22.7098 6.47954 22.771 6.40645C23.1148 5.99692 23.7895 5.86748 24.2923 5.81362Z" fill="#1C1C1C"/>
<path d="M24.6189 37.6022C25.1625 38.1138 25.7433 38.5464 26.3933 38.9144C30.9638 41.5015 38.2964 41.7451 43.3905 40.9066C44.447 40.7328 45.4853 40.461 46.5166 40.1765C46.2165 40.6633 45.9533 41.1554 45.7351 41.6849C43.9723 45.963 44.5127 50.61 46.2611 54.7932C46.4293 55.1845 46.6253 55.561 46.8199 55.9396C43.9126 56.9064 40.8531 57.2968 37.7953 57.2803C34.2566 57.2612 30.271 56.7098 27.1164 55.0114C26.4537 54.6547 25.792 54.241 25.2637 53.7005C25.039 53.4705 24.7096 53.1069 24.6347 52.7866C24.5518 52.4318 24.6071 51.9536 24.6057 51.5857L24.5979 49.0127L24.6189 37.6022Z" fill="#1C1C1C"/>
<path d="M53.9477 36.3971L53.9898 36.3921C55.841 36.1887 57.7926 36.9801 59.2072 38.1306C62.4548 40.7718 64.2489 45.1169 64.6626 49.2045C64.9836 52.3769 64.4725 56.0172 62.3861 58.549C61.2852 59.885 59.8197 60.7767 58.0803 60.9397C56.0725 61.0642 54.1397 60.3069 52.6002 59.0391C49.3671 56.3765 47.6796 52.2168 47.2954 48.1194C46.9975 44.9419 47.5557 41.2345 49.6584 38.7189C50.7514 37.4111 52.2431 36.5482 53.9477 36.3971Z" fill="#1C1C1C"/>
<path d="M54.7778 38.9105C56.2204 38.8075 57.6068 39.4553 58.6885 40.3651C61.2088 42.4853 62.6247 46.0771 62.8918 49.3007C63.102 51.8363 62.6808 54.6248 60.9808 56.6099C60.1194 57.6157 59.0303 58.1879 57.7098 58.2849C56.2085 58.3265 54.9247 57.7361 53.7782 56.799C51.2588 54.7396 49.9331 51.2895 49.6216 48.1236C49.3716 45.5822 49.8185 42.6785 51.486 40.668C52.3338 39.6457 53.4533 39.0294 54.7778 38.9105Z" fill="white"/>
<path d="M54.794 39.4904C56.0993 39.3865 57.3682 40.029 58.3419 40.8487C60.7508 42.8764 62.0516 46.3194 62.32 49.3886C62.5185 51.6594 62.1234 54.3722 60.6118 56.156C59.8551 57.049 58.8599 57.6002 57.6925 57.6986C56.4608 57.8303 55.1346 57.1425 54.2034 56.3994C51.8818 54.5466 50.5549 51.3463 50.2379 48.4495C49.9657 45.9628 50.2187 43.1701 51.8465 41.1582C52.6133 40.2106 53.5745 39.6166 54.794 39.4904Z" fill="#1C1C1C"/>
<path d="M1.40798 31.084C1.9738 31.6867 2.66427 32.1635 3.38366 32.5653C8.63552 35.4989 17.9582 35.6561 23.6562 34.0551C23.6761 34.4679 23.6768 34.8807 23.6783 35.2938L23.6815 47.1956L23.6724 51.373C23.6688 51.9949 23.6976 52.6357 23.6602 53.2554C23.6556 53.3325 23.6652 53.3515 23.6097 53.4075C20.9861 54.2351 18.1585 54.5079 15.4174 54.5227C11.6741 54.543 5.00824 53.6815 2.22838 50.9074C1.91436 50.594 1.55688 50.146 1.47286 49.7006C1.35438 49.0724 1.40965 48.3618 1.40803 47.7236L1.41048 44.1509L1.40798 31.084Z" fill="#1C1C1C"/>
</g>
<defs>
<clipPath id="clip0_107_4644">
<rect width="66" height="66" rx="10" fill="white"/>
</clipPath>
</defs>
</svg>
