<svg width="32" height="32" viewBox="0 0 32 32" fill="none" xmlns="http://www.w3.org/2000/svg">
<rect width="32" height="32" rx="12" fill="#1C1C1C"/>
<path d="M10.0765 21.8821C10.5643 22.1217 11.0562 22.339 11.5659 22.5274C11.6496 22.5583 11.7337 22.5884 11.818 22.6177C11.9024 22.6469 11.987 22.6752 12.0719 22.7027C12.1569 22.7302 12.2421 22.7567 12.3276 22.7824C12.4131 22.8081 12.4989 22.8329 12.5848 22.8569C12.6709 22.8808 12.7571 22.9038 12.8436 22.926C12.9301 22.9481 13.0168 22.9694 13.1037 22.9897C13.1906 23.0101 13.2777 23.0295 13.365 23.048C13.4524 23.0666 13.5399 23.0842 13.6276 23.1009C13.7153 23.1177 13.8031 23.1335 13.8911 23.1484C13.9791 23.1633 14.0673 23.1773 14.1556 23.1904C14.2439 23.2035 14.3323 23.2157 14.4209 23.2269C14.5095 23.2382 14.5981 23.2485 14.6869 23.2579C14.7757 23.2674 14.8646 23.2759 14.9535 23.2834C15.0424 23.291 15.1315 23.2977 15.2206 23.3034C15.3096 23.3092 15.3988 23.314 15.488 23.3179C15.5771 23.3217 15.6664 23.3247 15.7556 23.3268C15.8449 23.3288 15.9341 23.3299 16.0234 23.3301C16.1127 23.3303 16.2019 23.3296 16.2912 23.328C16.3804 23.3263 16.4697 23.3237 16.5589 23.3202C16.6481 23.3167 16.7372 23.3123 16.8263 23.307C16.9154 23.3016 17.0045 23.2953 17.0935 23.2882C17.1824 23.281 17.2713 23.2729 17.3602 23.2638C17.449 23.2548 17.5377 23.2449 17.6263 23.234C17.7149 23.2231 17.8034 23.2114 17.8917 23.1987C17.9801 23.186 18.0683 23.1724 18.1564 23.1578C18.2445 23.1433 18.3324 23.1279 18.4202 23.1115C18.5079 23.0952 18.5955 23.0779 18.6829 23.0598C18.7703 23.0416 18.8575 23.0226 18.9445 23.0026C19.0316 22.9826 19.1184 22.9618 19.2049 22.94C19.2915 22.9183 19.3779 22.8956 19.464 22.8721C19.5501 22.8485 19.6359 22.8241 19.7215 22.7988C19.8071 22.7735 19.8925 22.7472 19.9775 22.7201C20.4449 22.5711 20.9028 22.3972 21.3514 22.1985C21.5704 22.1 21.7808 21.9851 21.9987 21.8847C21.977 22.2257 21.8605 22.5007 21.6466 22.7655C21.6097 22.812 21.5686 22.8556 21.528 22.899C20.3927 24.1133 18.0369 24.5284 16.4497 24.583C14.7008 24.6432 12.0007 24.3339 10.6715 23.0816C10.3281 22.7581 10.0919 22.3614 10.0765 21.8821Z" fill="white"/>
<path d="M4.87995 17.2308C4.90513 17.2481 4.91845 17.2734 4.93544 17.2984C4.93641 17.3099 4.94246 17.3222 4.93839 17.333C4.92593 17.3658 4.63953 17.5078 4.59143 17.5354C3.7116 18.0401 2.78211 18.687 2.27189 19.5885C1.93455 20.1845 1.7884 20.8975 1.9768 21.5652C2.31624 22.7682 3.75476 23.7618 4.78536 24.3432C5.40841 24.6946 6.06944 24.9748 6.73758 25.2279C11.1241 26.8896 16.8175 27.1164 21.4252 26.2886C22.1185 26.1641 22.8171 26.024 23.4957 25.8349C25.4436 25.2922 27.8117 24.4271 29.2328 22.9414C29.4598 22.7041 29.6878 22.4352 29.8477 22.1483C30.1461 21.6134 30.1441 20.8755 29.9799 20.2967C29.5772 18.8781 28.2387 18.057 27.0344 17.3824C27.0584 17.3441 27.0883 17.3114 27.118 17.2775C27.3239 17.3584 27.5183 17.4765 27.7101 17.5858C28.5232 18.0738 29.5291 18.805 29.9825 19.6522C30.2996 20.2443 30.3578 21.0216 30.161 21.6622C29.6702 23.2603 27.9833 24.412 26.5821 25.1623C25.6636 25.6543 24.6754 26.0334 23.6812 26.3416C23.0259 26.5455 22.3632 26.721 21.6928 26.868C17.5731 27.7387 12.5738 27.6335 8.5463 26.4114C6.34842 25.7445 3.20535 24.3781 2.07018 22.2319C1.72681 21.5827 1.6271 20.7884 1.85048 20.0821C2.2798 18.7246 3.69034 17.8519 4.87995 17.2308Z" fill="white"/>
<path d="M5.0653 17.5023C5.13004 17.5252 5.42816 17.9673 5.49817 18.0566C5.88844 18.5543 6.29667 19.0276 6.74515 19.4742C7.70172 20.4267 8.68232 21.0895 9.83996 21.7672C9.83948 21.7951 9.83933 21.823 9.8395 21.8508C9.84337 22.3977 10.0962 22.8498 10.4809 23.2258C11.822 24.5366 14.4821 24.8563 16.2634 24.8358C17.9277 24.8167 20.4519 24.361 21.6597 23.1123C22.0341 22.7251 22.241 22.3063 22.23 21.7642C24.0252 20.8104 25.7769 19.2562 26.9054 17.5596C28.091 18.2094 29.3832 18.9856 29.8104 20.3611C29.9726 20.8833 29.9656 21.5478 29.7059 22.036C29.1461 22.9572 28.1609 23.6434 27.2394 24.1607C23.1646 26.448 16.8991 26.8662 12.3216 26.3233C11.6634 26.2451 11.0093 26.142 10.359 26.014C9.70873 25.886 9.06429 25.7334 8.42566 25.5562C6.54425 25.0256 3.33633 23.7575 2.34093 21.9557C2.06153 21.4499 2.01243 20.8341 2.17631 20.2829C2.5703 18.9577 3.92441 18.125 5.0653 17.5023Z" fill="white"/>
<path d="M3.15039 11.1844C3.29574 11.3581 3.40188 11.5693 3.54633 11.7472C4.04581 12.3626 4.69449 12.846 5.36924 13.2526C8.90161 15.3808 14.6805 15.8806 18.7316 15.5046C19.3412 15.4473 19.9477 15.3666 20.5512 15.2624C21.1546 15.1583 21.753 15.031 22.3466 14.8805C24.2868 14.3995 26.8973 13.4302 28.2776 11.9319C28.4806 11.7115 28.6515 11.4717 28.8056 11.2156C28.7525 11.6918 28.6913 12.1553 28.5921 12.6254C28.5764 12.699 28.56 12.7725 28.5429 12.8458C28.5259 12.9191 28.5082 12.9922 28.4899 13.0652C28.4716 13.1383 28.4527 13.2111 28.4331 13.2838C28.4135 13.3564 28.3933 13.4289 28.3725 13.5013C28.3517 13.5736 28.3303 13.6457 28.3082 13.7177C28.2861 13.7896 28.2634 13.8614 28.2401 13.933C28.2168 14.0045 28.1929 14.0759 28.1683 14.147C28.1438 14.2182 28.1186 14.2891 28.0929 14.3598C28.0671 14.4305 28.0407 14.501 28.0137 14.5713C27.9867 14.6415 27.9591 14.7115 27.9309 14.7813C27.9027 14.8511 27.8739 14.9206 27.8444 14.9899C27.815 15.0592 27.785 15.1282 27.7544 15.197C27.7238 15.2657 27.6926 15.3342 27.6608 15.4024C27.6291 15.4706 27.5967 15.5386 27.5637 15.6062C27.5307 15.6739 27.4972 15.7413 27.463 15.8083C27.4289 15.8754 27.3942 15.9422 27.3589 16.0087C27.3236 16.0751 27.2877 16.1413 27.2513 16.2072C27.2149 16.273 27.1779 16.3386 27.1403 16.4038C27.1027 16.469 27.0646 16.5339 27.0259 16.5984C26.9872 16.663 26.948 16.7272 26.9082 16.7911C26.8683 16.8549 26.828 16.9185 26.7871 16.9816C26.7462 17.0448 26.7047 17.1076 26.6627 17.1701C26.6207 17.2326 26.5782 17.2946 26.5351 17.3564C26.4921 17.4181 26.4485 17.4794 26.4043 17.5404C26.3602 17.6014 26.3155 17.662 26.2704 17.7222C26.2252 17.7823 26.1795 17.8421 26.1333 17.9015C26.0871 17.961 26.0403 18.02 25.9931 18.0786C25.9459 18.1371 25.8981 18.1953 25.8499 18.2531C25.8016 18.3109 25.7529 18.3682 25.7037 18.4251C25.6544 18.482 25.6047 18.5385 25.5545 18.5946C25.5043 18.6507 25.4536 18.7063 25.4024 18.7615C25.3512 18.8167 25.2996 18.8714 25.2474 18.9257C25.1762 19.0014 25.1041 19.0761 25.031 19.15C24.9579 19.224 24.8839 19.297 24.8091 19.369C24.7342 19.4411 24.6585 19.5123 24.5819 19.5825C24.5053 19.6527 24.4278 19.722 24.3495 19.7903C24.2712 19.8587 24.1921 19.926 24.1121 19.9924C24.0322 20.0588 23.9514 20.1242 23.8698 20.1886C23.7883 20.253 23.7059 20.3164 23.6228 20.3788C23.5397 20.4412 23.4558 20.5025 23.3712 20.5628C23.2866 20.6232 23.2012 20.6824 23.1151 20.7407C23.029 20.7989 22.9423 20.8561 22.8548 20.9122C22.7673 20.9683 22.6791 21.0233 22.5903 21.0772C22.5015 21.1312 22.412 21.184 22.3218 21.2358C22.2317 21.2875 22.141 21.3381 22.0496 21.3876C21.9582 21.4372 21.8663 21.4855 21.7737 21.5328C21.6811 21.5801 21.588 21.6262 21.4943 21.6712C21.4006 21.7161 21.3064 21.76 21.2116 21.8026C21.1169 21.8453 21.0216 21.8868 20.9258 21.9271C20.83 21.9674 20.7338 22.0066 20.637 22.0445C20.5403 22.0825 20.4431 22.1193 20.3455 22.1549C20.2478 22.1904 20.1497 22.2248 20.0512 22.258C19.9527 22.2912 19.8539 22.3231 19.7546 22.3539C19.6553 22.3846 19.5557 22.4141 19.4557 22.4424C19.3557 22.4707 19.2554 22.4978 19.1547 22.5236C19.054 22.5495 18.9531 22.5741 18.8518 22.5974C18.7505 22.6208 18.649 22.6429 18.5472 22.6638C18.4454 22.6846 18.3433 22.7043 18.241 22.7226C18.1387 22.741 18.0362 22.7581 17.9335 22.774C17.8308 22.7898 17.7279 22.8044 17.6249 22.8177C17.5218 22.831 17.4186 22.8431 17.3152 22.8539C17.2118 22.8647 17.1084 22.8742 17.0048 22.8825C16.9012 22.8907 16.7975 22.8977 16.6937 22.9034C16.5899 22.9091 16.4861 22.9136 16.3822 22.9167C16.2762 22.9189 16.1702 22.9198 16.0642 22.9193C15.9582 22.9189 15.8522 22.9171 15.7462 22.914C15.6402 22.911 15.5343 22.9066 15.4285 22.9009C15.3226 22.8952 15.2168 22.8883 15.1111 22.88C15.0054 22.8717 14.8998 22.8621 14.7944 22.8512C14.6889 22.8403 14.5836 22.8281 14.4784 22.8146C14.3732 22.8011 14.2683 22.7864 14.1635 22.7703C14.0587 22.7542 13.9541 22.7368 13.8497 22.7182C13.7454 22.6995 13.6412 22.6796 13.5374 22.6584C13.4335 22.6371 13.3299 22.6146 13.2266 22.5909C13.1232 22.5671 13.0202 22.5421 12.9175 22.5157C12.8148 22.4894 12.7125 22.4618 12.6104 22.433C12.5084 22.4042 12.4068 22.3741 12.3055 22.3427C12.2042 22.3114 12.1033 22.2788 12.0028 22.2449C11.9024 22.2111 11.8023 22.176 11.7027 22.1397C11.6031 22.1034 11.5039 22.0659 11.4053 22.0272C11.3066 21.9884 11.2084 21.9485 11.1107 21.9073C11.013 21.8661 10.9158 21.8238 10.8191 21.7802C10.7225 21.7366 10.6264 21.6919 10.5308 21.6459C10.4352 21.6 10.3403 21.5529 10.2459 21.5046C10.1515 21.4563 10.0577 21.4069 9.96452 21.3563C9.87134 21.3057 9.77881 21.254 9.68691 21.2011C9.59502 21.1483 9.50379 21.0943 9.41323 21.0391C9.32265 20.984 9.23277 20.9278 9.14359 20.8705C9.05442 20.8131 8.96596 20.7547 8.87821 20.6952C8.79048 20.6357 8.70349 20.5751 8.61725 20.5134C8.531 20.4517 8.44553 20.389 8.36081 20.3252C8.27611 20.2615 8.19222 20.1967 8.10913 20.1308C8.02602 20.065 7.94374 19.9981 7.86229 19.9303C7.78084 19.8624 7.70024 19.7935 7.62049 19.7237C7.54072 19.6538 7.46184 19.583 7.38384 19.5112C7.30583 19.4394 7.22872 19.3666 7.1525 19.2929C7.01147 19.1584 6.87354 19.0208 6.73871 18.88C6.60387 18.7393 6.47228 18.5956 6.34394 18.4489C6.21561 18.3022 6.09064 18.1527 5.96903 18.0004C5.84743 17.8481 5.72934 17.6931 5.61473 17.5354C5.50015 17.3778 5.38917 17.2176 5.28178 17.055C5.17442 16.8923 5.07077 16.7273 4.97083 16.5599C4.87092 16.3926 4.77482 16.2231 4.68254 16.0514C4.59026 15.8797 4.50191 15.7061 4.41748 15.5304C4.29333 15.2727 4.1564 15.005 4.06133 14.7355C7.82963 17.8431 13.3431 18.5536 18.0749 18.1851C20.7931 17.9734 23.786 17.2713 26.1505 15.8809C26.4816 15.6862 27.0347 15.3632 27.2774 15.0793C26.9878 15.1849 26.723 15.3782 26.4562 15.5322C26.0726 15.7543 25.68 15.9594 25.2785 16.1474C23.2903 17.0662 21.1255 17.6171 18.9534 17.8734C14.6765 18.3783 9.57187 17.8941 5.79718 15.7134C5.12996 15.3279 4.51757 14.8435 3.91411 14.3671C3.61947 13.6166 3.43335 12.815 3.28362 12.0244C3.23142 11.7489 3.17306 11.4639 3.15039 11.1844Z" fill="white"/>
<path d="M15.656 4.63446C15.6959 4.63366 15.7359 4.63307 15.7758 4.63269C18.9126 4.59994 22.4741 5.05226 25.3469 6.34642C26.2838 6.76852 27.2007 7.29893 27.9379 8.02275C28.4708 8.54591 28.9148 9.22937 28.9183 9.99974C28.9216 10.7537 28.4969 11.4319 27.9779 11.9502C25.9621 13.9632 21.7514 14.968 18.9763 15.2785C18.0948 15.3694 17.211 15.4143 16.3248 15.4134C15.7795 15.4162 15.2319 15.385 14.6876 15.3541C13.7322 15.2999 12.7694 15.2212 11.8225 15.0798C9.5669 14.7431 7.0893 14.117 5.16029 12.8667C4.80877 12.6389 4.46313 12.3897 4.16002 12.0995C3.60634 11.5694 3.06714 10.821 3.05427 10.0276C3.04235 9.29331 3.45512 8.65642 3.95028 8.14719C4.64841 7.42918 5.55866 6.90917 6.46052 6.49346C9.29789 5.18555 12.5495 4.68542 15.656 4.63446Z" fill="white"/>
<path d="M15.5612 4.84898C15.5767 4.84843 15.5922 4.84797 15.6077 4.8476C19.1814 4.77559 24.8526 5.49342 27.5176 8.03391C28.0537 8.54492 28.5194 9.22497 28.533 9.99108C28.546 10.7254 28.1474 11.3685 27.6503 11.8799C25.8311 13.7513 21.6651 14.7045 19.1413 15.0093C18.695 15.0612 18.2476 15.1006 17.7991 15.1278C17.3506 15.1549 16.9016 15.1695 16.4523 15.1718C13.0012 15.1849 7.06093 14.3403 4.46324 11.9235C3.92851 11.426 3.47631 10.8018 3.45278 10.0454C3.4316 9.36448 3.77224 8.77695 4.22808 8.29413C4.77834 7.7113 5.45857 7.27382 6.16277 6.90016C8.95304 5.41952 12.4348 4.94216 15.5612 4.84898Z" fill="#1C1C1C"/>
<path d="M14.2334 9.89227C14.4026 9.92418 14.582 10.0282 14.7379 10.101L14.7193 10.3333L14.7116 10.3353C14.6205 10.2959 14.3294 9.98377 14.2334 9.89227Z" fill="white"/>
<path d="M17.1647 7.74591C17.199 7.81804 17.2173 7.90246 17.2429 7.9786C17.2886 8.11404 17.339 8.2434 17.3996 8.37303L17.2775 8.44942L17.1565 8.53791C17.1558 8.5355 17.1552 8.5331 17.1544 8.53072C17.0814 8.28219 17.1393 7.99903 17.1647 7.74591Z" fill="white"/>
<path d="M19.6476 12.0132C19.9215 12.0634 20.1532 12.1184 20.4052 12.2424C20.3471 12.2531 20.2884 12.2609 20.23 12.2696C20.005 12.3019 19.7795 12.3297 19.5534 12.353C19.5767 12.238 19.614 12.1255 19.6476 12.0132Z" fill="white"/>
<path d="M17.3745 8.50861L17.4222 8.51365C17.5234 8.60251 17.7196 9.24446 17.773 9.40021C17.7708 9.39895 17.7686 9.39754 17.7663 9.39643C17.7372 9.38213 17.7201 9.36738 17.6968 9.34463C17.4953 9.12781 17.3061 8.87032 17.178 8.60345C17.2434 8.56249 17.3007 8.53273 17.3745 8.50861Z" fill="white"/>
<path d="M19.0192 11.9398C19.1775 11.953 19.3353 11.9707 19.4926 11.9929C19.4776 12.1185 19.4554 12.2436 19.4359 12.3686C19.2854 12.3801 19.1339 12.3781 18.9831 12.3794C18.985 12.2318 18.9892 12.0846 19.0192 11.9398Z" fill="white"/>
<path d="M16.7915 9.44603C17.0637 9.43016 17.323 9.45978 17.5567 9.60662C17.3698 9.64117 17.2247 9.68554 17.0518 9.76781C17.0457 9.77091 17.0186 9.77735 17.0121 9.77649C16.9422 9.76692 16.7883 9.6799 16.7136 9.6522C16.582 9.60347 16.4483 9.57116 16.3115 9.54134C16.469 9.47984 16.6235 9.45574 16.7915 9.44603Z" fill="white"/>
<path d="M19.4163 8.99249C19.5062 9.04348 19.5874 9.10341 19.6666 9.16952C19.4739 9.31516 19.2263 9.49506 18.9897 9.55805C18.8854 9.58581 18.7681 9.59033 18.6606 9.60125C18.588 9.60382 18.5139 9.62221 18.4424 9.63528C18.7706 9.42396 19.0992 9.22106 19.4163 8.99249Z" fill="white"/>
<path d="M17.4586 9.68541C17.5207 9.67945 17.5839 9.68008 17.6447 9.69609C17.7069 9.71242 17.7469 9.73462 17.7785 9.7928C17.7815 9.82116 17.7818 9.8376 17.7706 9.86473C17.7051 10.0235 17.3315 10.1891 17.1776 10.2451C17.1003 10.271 17.0057 10.2973 16.9238 10.2915L16.9042 10.2639C16.9022 10.2166 16.9183 10.1829 16.9418 10.1434C17.0665 9.93374 17.2134 9.74935 17.4586 9.68541Z" fill="white"/>
<path d="M14.851 10.1755C15.1061 10.3069 15.3056 10.4485 15.4385 10.7087C15.3823 10.8029 15.3352 10.8976 15.295 10.9996L15.2633 11.1241L15.2428 11.1292C15.1872 11.0916 15.1463 11.0338 15.1088 10.9789C15.0262 10.8579 14.8305 10.5411 14.8211 10.4031C14.816 10.3296 14.8375 10.2477 14.851 10.1755Z" fill="white"/>
<path d="M18.36 11.5801C18.9433 11.5072 19.6582 11.6584 20.1597 11.9618C19.9898 11.9245 19.8195 11.8894 19.6487 11.8565C19.0077 11.7367 18.3566 11.7145 17.7064 11.7135C17.9214 11.6413 18.1348 11.6033 18.36 11.5801Z" fill="white"/>
<path d="M18.7543 8.57782L18.7636 8.57957L18.7727 8.59398C18.7205 8.70295 18.6578 8.8079 18.609 8.91816C18.5369 9.08121 18.492 9.34977 18.3661 9.47547C18.2881 9.55327 18.1633 9.59904 18.0692 9.65837C18.0251 9.57621 18.0316 9.41459 18.0559 9.32774C18.1488 8.99536 18.4675 8.73964 18.7543 8.57782Z" fill="white"/>
<path d="M20.4387 7.93585C20.4438 7.94986 20.4466 7.95467 20.4466 7.97154C20.4466 8.05164 20.4013 8.16608 20.3707 8.23964C20.2241 8.59167 20.0212 8.86283 19.7368 9.11537L19.6166 9.01319L19.4896 8.91537C19.6884 8.73944 19.8757 8.55195 20.0514 8.35288C20.1755 8.21483 20.294 8.05178 20.4387 7.93585Z" fill="white"/>
<path d="M17.3057 10.4157L17.3346 10.4224C17.3552 10.4688 17.3508 10.5114 17.3401 10.56C17.3128 10.6837 17.2481 10.769 17.1412 10.8364C16.9426 10.9615 16.6633 11.0054 16.4364 10.951L16.4128 10.9264C16.4375 10.8407 16.6984 10.5664 16.7713 10.4517C16.9742 10.4933 17.1091 10.4728 17.3057 10.4157Z" fill="white"/>
<path d="M24.5328 12.592L24.5396 12.5966C24.5415 12.632 24.5203 12.6571 24.5005 12.6847C24.2838 12.9862 23.8795 13.1363 23.5265 13.1952C23 13.2831 22.3804 13.1913 21.9394 12.8791C21.8986 12.8389 21.8609 12.7952 21.8223 12.7529C22.2253 12.9642 22.6412 13.0707 23.098 13.0747C23.6107 13.0792 24.1577 12.9637 24.5328 12.592Z" fill="white"/>
<path d="M19.2484 9.76182C19.5505 9.75959 19.9032 9.7925 20.1935 9.88008C19.9069 9.97658 19.6276 10.0686 19.3264 10.1098C19.305 10.1128 19.2835 10.1152 19.262 10.1172C19.2404 10.1191 19.2189 10.1206 19.1972 10.1215C19.1756 10.1224 19.154 10.1228 19.1324 10.1227C19.1108 10.1226 19.0891 10.122 19.0675 10.1208C19.0459 10.1197 19.0244 10.118 19.0028 10.1159C18.9813 10.1137 18.9599 10.111 18.9385 10.1078C18.9171 10.1046 18.8958 10.101 18.8746 10.0968C18.8534 10.0926 18.8322 10.0878 18.8112 10.0826C18.7902 10.0774 18.7694 10.0717 18.7487 10.0655C18.728 10.0593 18.7074 10.0526 18.687 10.0454C18.6666 10.0383 18.6464 10.0306 18.6263 10.0225C18.6063 10.0143 18.5864 10.0057 18.5668 9.99664C18.5472 9.98754 18.5278 9.978 18.5086 9.96799C18.4894 9.95796 18.4705 9.9475 18.4518 9.93659C18.4331 9.92567 18.4147 9.91432 18.3966 9.90253C18.3785 9.89075 18.3606 9.87854 18.3431 9.8659C18.635 9.79004 18.9478 9.77489 19.2484 9.76182Z" fill="white"/>
<path d="M13.9255 9.80859C14.1514 9.92896 14.5206 10.3169 14.6553 10.5338C14.7523 10.6902 14.8261 10.8645 14.9191 11.0246C14.7208 10.9729 14.528 10.9132 14.3597 10.7921C14.0202 10.5475 13.9851 10.1912 13.9255 9.80859Z" fill="white"/>
<path d="M17.2731 7.51935C17.6535 7.90005 18.0001 8.24417 18.1102 8.79119L17.9771 8.9851L17.8862 9.13738C17.6611 8.65014 17.4232 8.03182 17.2731 7.51935Z" fill="white"/>
<path d="M17.4661 11.8475C17.8807 11.8289 18.4645 11.864 18.881 11.9204C18.8498 12.0643 18.8488 12.211 18.8468 12.3576C18.8407 12.364 18.823 12.3712 18.8149 12.3754C18.2698 12.3687 17.8877 12.1798 17.4661 11.8475Z" fill="white"/>
<path d="M16.5632 11.4944C16.6187 11.4888 16.6796 11.4907 16.7352 11.4949C16.8802 11.5058 17.2287 11.548 17.3261 11.6594C17.3264 11.6952 17.3252 11.7019 17.2982 11.7293C17.1625 11.8672 16.5755 11.8884 16.3835 11.8854C16.1417 11.8688 15.8694 11.8644 15.6435 11.7665C15.6156 11.7545 15.6125 11.7558 15.6019 11.7262C15.6047 11.7221 15.6071 11.7175 15.6104 11.7137C15.7154 11.597 16.3982 11.5076 16.5632 11.4944Z" fill="white"/>
<path d="M19.9868 8.15186L19.9998 8.15549C19.9794 8.22459 19.8677 8.31534 19.814 8.36902C19.4564 8.72635 19.0962 9.02083 18.6645 9.28609C18.6418 9.28033 18.6525 9.2866 18.6364 9.26194C18.6564 9.00951 18.8212 8.70953 18.9489 8.49526C19.2884 8.36266 19.6444 8.27764 19.9868 8.15186Z" fill="white"/>
<path d="M16.7281 10.0988L16.7536 10.1057C16.7302 10.3228 15.7573 11.2961 15.5537 11.4775C15.5412 11.4563 15.5288 11.4346 15.5198 11.4116C15.4681 11.2806 15.4896 11.1166 15.5428 10.9898C15.733 10.5366 16.3027 10.2755 16.7281 10.0988Z" fill="white"/>
<path d="M13.7989 11.4082C14.2611 11.356 14.9103 11.3972 15.3344 11.5769C15.3309 11.5819 15.3274 11.5869 15.3238 11.5919C15.1947 11.7703 15.0337 11.8154 14.8265 11.8453C14.2787 11.8712 13.7688 11.6818 13.2741 11.4678C13.4492 11.4434 13.6227 11.4226 13.7989 11.4082Z" fill="white"/>
<path d="M17.5237 7.45538C18.2151 7.5017 18.9061 7.54356 19.5936 7.63293C19.8443 7.6655 20.1059 7.68853 20.3492 7.75791C20.1616 7.87092 19.9665 7.95236 19.7559 8.01128C19.2457 8.133 18.7726 8.28952 18.3248 8.57194C18.2054 8.25853 18.0063 7.99083 17.7808 7.74508C17.7054 7.66295 17.5685 7.5549 17.5237 7.45538Z" fill="white"/>
<path d="M23.2021 11.7093C23.5549 11.7062 23.9508 11.7529 24.2556 11.9466C24.3452 12.0035 24.4333 12.0808 24.4535 12.1904C24.4677 12.2683 24.4401 12.3417 24.3939 12.4038C24.1924 12.6741 23.763 12.7814 23.4473 12.8193C23.0335 12.8864 22.5251 12.8209 22.1449 12.6438C22.2068 12.6084 22.2671 12.5705 22.3258 12.53C22.6167 12.3326 22.8605 12.0766 22.9276 11.7223L23.2021 11.7093Z" fill="white"/>
<path d="M21.924 11.2493C22.1173 11.2296 22.3198 11.2545 22.4988 11.3329C22.5888 11.3723 22.671 11.4317 22.7059 11.5274C22.7468 11.6397 22.706 11.7773 22.6533 11.8788C22.4398 12.2906 21.9301 12.5387 21.5074 12.6654L21.4864 12.67C21.3015 12.7103 21.0132 12.7655 20.8468 12.6505C20.7917 12.6125 20.7577 12.5578 20.7461 12.4921C20.7083 12.2794 20.8615 11.9955 20.986 11.8307C21.2188 11.5224 21.5399 11.305 21.924 11.2493Z" fill="white"/>
<path d="M15.7706 5.0495C19.0547 5.00258 23.6744 5.626 26.4471 7.45437C27.2104 7.95768 28.0829 8.706 28.2703 9.6416C28.3989 10.284 28.1831 10.8454 27.8316 11.3745C27.6448 11.0129 27.4426 10.6754 27.1679 10.3719C25.5534 8.58743 22.0991 7.72362 19.7829 7.41143C18.9429 7.29823 18.0977 7.24643 17.2518 7.20447C17.2097 7.16239 17.1454 7.08312 17.0907 7.0615C17.0507 7.04568 17.0437 7.05247 17.0075 7.0698C16.9722 7.112 16.9677 7.14921 16.9588 7.20249C16.7356 7.19627 16.5125 7.19367 16.2892 7.1947C14.0382 7.2104 11.8068 7.44862 9.63519 8.05622C8.26664 8.43916 6.52506 9.12878 5.43279 10.0547C4.9632 10.4528 4.58485 10.9025 4.28278 11.4392C3.95629 11.0196 3.67355 10.5738 3.65406 10.0254C3.63244 9.4169 3.94893 8.8781 4.35376 8.44764C6.00402 6.69294 9.47933 5.72689 11.8092 5.37208C13.1225 5.17207 14.4438 5.08883 15.7706 5.0495Z" fill="white"/>
<path d="M8.30518 8.73326C8.94628 8.48329 9.62283 8.29228 10.2903 8.1282C12.5098 7.58253 14.6906 7.40862 16.9713 7.44998C16.9534 7.67459 16.9235 7.89351 16.8931 8.11657C16.8223 8.63532 17.0442 8.89167 17.3399 9.28137C17.3292 9.27873 17.3186 9.27598 17.3078 9.27378C16.9142 9.19277 16.318 9.24015 15.978 9.47112C15.9341 9.50091 15.9011 9.53116 15.8896 9.58501C15.9053 9.62546 15.92 9.64219 15.9606 9.65975C16.0406 9.69438 16.1396 9.70217 16.2255 9.71807C16.3913 9.74875 16.5464 9.79315 16.6964 9.87047C16.5942 9.93458 16.4741 9.98227 16.3647 10.0342C16.0748 10.1719 15.8322 10.317 15.6001 10.542C15.5265 10.4267 15.441 10.3268 15.338 10.2366C15.2255 10.138 15.1038 10.0645 14.9732 9.99261C14.7984 9.89631 13.7175 9.37618 13.592 9.38426L13.5794 9.41446C13.5958 9.52709 13.6701 9.62182 13.6976 9.73237C13.7664 10.0091 13.7465 10.3051 13.8723 10.5664C14.0505 10.9363 14.3923 11.0745 14.7558 11.2042C14.3012 11.1534 13.8517 11.1777 13.3994 11.2364C13.2706 11.2531 12.8112 11.3053 12.7424 11.3948L12.7498 11.425C12.8849 11.5939 13.7465 11.8932 13.9936 11.9618C14.1481 12.0054 14.3051 12.0365 14.4646 12.0553C14.819 12.0946 15.1218 12.0676 15.4057 11.8384C15.48 11.9064 15.5682 11.9495 15.659 11.9908C15.705 12.0965 15.7763 12.2087 15.7939 12.3224C15.8059 12.4002 15.7992 12.4792 15.8112 12.5575L15.8314 12.566C15.886 12.5263 15.9411 12.4528 15.9543 12.385C15.9814 12.246 15.8712 12.1227 15.7957 12.0194C16.3181 12.1565 16.8536 12.1225 17.3549 11.9317C17.4252 12.009 17.4991 12.0809 17.58 12.1471C17.7547 12.29 17.9625 12.4438 18.1775 12.5193C18.7503 12.7202 19.874 12.4904 20.5063 12.4283C20.5391 12.5949 20.5761 12.751 20.7286 12.8499C20.9584 12.999 21.3188 12.9468 21.5716 12.8989C22.0433 13.2885 22.5314 13.4462 23.1446 13.4482C23.6159 13.4497 24.2225 13.3108 24.5656 12.9649C24.7138 12.8155 24.7845 12.6417 24.7835 12.4314C24.7826 12.231 24.7129 12.061 24.5691 11.9203C24.139 11.4996 23.4894 11.4873 22.9289 11.4891C22.8213 11.3084 22.6791 11.1863 22.4806 11.1163C22.1489 10.9994 21.7531 11.0509 21.4403 11.2005C21.0832 11.3712 20.7168 11.7242 20.5827 12.1017C20.3973 11.9579 20.2113 11.8065 20.0077 11.689C19.1986 11.2222 18.416 11.3354 17.5602 11.5609C17.2623 11.2941 16.9681 11.3337 16.6202 11.2264C16.6163 11.2252 16.6124 11.2239 16.6086 11.2226C16.7296 11.2011 16.8524 11.1797 16.9703 11.1443C17.2238 11.0682 17.3824 10.9279 17.5067 10.6952C17.5376 10.5667 17.5339 10.4566 17.511 10.3286C17.6967 10.2074 17.8737 10.0809 17.9757 9.87803C18.4245 10.1523 18.7278 10.3995 19.2859 10.3324C19.5122 10.3051 20.4667 10.0631 20.5933 9.87617C20.6073 9.85557 20.6025 9.86036 20.597 9.8336C20.4068 9.64998 19.7454 9.5898 19.4642 9.54872C19.5047 9.5284 19.5446 9.50698 19.5839 9.48447C20.2424 9.1056 20.5133 8.52454 20.7018 7.81771C21.4671 7.96609 22.2251 8.11477 22.9725 8.34035C24.4356 8.78184 26.2142 9.55602 27.195 10.7808C27.3861 11.0194 27.534 11.2886 27.6781 11.557C27.1678 12.1446 26.4302 12.6536 25.7201 12.9665C25.6178 12.9468 25.5099 12.9216 25.4063 12.9468C25.1507 13.009 24.8602 13.1691 24.6107 13.269C24.155 13.4523 23.6913 13.6124 23.2196 13.7493C22.6426 13.9236 22.0608 14.08 21.4741 14.2186C21.1116 14.2987 20.7474 14.3704 20.3816 14.4338C20.0158 14.4972 19.6488 14.5521 19.2804 14.5987C18.9121 14.6453 18.5429 14.6834 18.1728 14.713C17.8028 14.7427 17.4322 14.7638 17.0612 14.7765C16.1824 14.8012 15.3038 14.7964 14.4253 14.7621C13.6099 14.7338 12.7876 14.6968 11.9783 14.5909C11.4208 14.5179 10.8692 14.4034 10.3209 14.2804C8.54959 13.8829 6.66481 13.2973 5.17084 12.2362C4.90865 12.05 4.67567 11.8307 4.44043 11.6124C4.94907 10.6348 5.84645 9.97938 6.78303 9.45052C7.02673 9.31083 7.27563 9.18111 7.52974 9.06137C7.78383 8.94163 8.04231 8.83226 8.30518 8.73326Z" fill="white"/>
<path d="M8.52301 10.846L8.52882 10.8495C8.51903 10.8787 8.48525 10.892 8.45878 10.9066C8.0912 11.1093 7.65083 11.1446 7.25185 11.0313L7.20868 11.0106C7.28723 10.9828 7.49769 11.0341 7.5952 11.0347C7.63492 11.0345 7.6746 11.0334 7.71425 11.0313C7.75391 11.0292 7.7935 11.0262 7.83302 11.0221C7.87253 11.0181 7.91192 11.0131 7.95118 11.0071C7.99042 11.0011 8.02951 10.9941 8.06843 10.9862C8.10735 10.9783 8.14605 10.9695 8.18453 10.9596C8.22301 10.9498 8.26122 10.939 8.29917 10.9273C8.33713 10.9156 8.37477 10.903 8.41209 10.8894C8.44943 10.8759 8.4864 10.8614 8.52301 10.846Z" fill="#1C1C1C"/>
<path d="M6.25733 10.7028C6.26265 10.7066 6.26411 10.714 6.26686 10.7199C6.05082 10.8871 5.52995 11.1427 5.27217 11.2791L5.26532 11.2685C5.48635 11.028 5.94517 10.7966 6.25733 10.7028Z" fill="#1C1C1C"/>
<path d="M17.5068 10.6951L17.5213 10.6936C17.7278 10.6732 17.9273 10.6894 18.1299 10.6311C18.2285 10.6027 18.3174 10.5634 18.4007 10.5027C18.4268 10.4836 18.4365 10.4689 18.4708 10.4673C18.4747 10.5017 18.4665 10.5217 18.4542 10.5536C18.3328 10.7054 18.1886 10.7891 17.9923 10.8098C17.8552 10.8243 17.6595 10.8226 17.5456 10.7366C17.5297 10.7246 17.5183 10.7112 17.5068 10.6951Z" fill="#1C1C1C"/>
<path d="M19.4492 10.8341C19.6788 10.805 20.3699 10.9108 20.6578 10.9341C20.8236 10.9475 21.1489 10.9484 21.2846 10.9801C21.2998 10.9837 21.3052 10.9882 21.317 10.9958C20.9106 11.0445 19.7977 11.0227 19.4492 10.8341Z" fill="#1C1C1C"/>
<path d="M24.246 9.38446C24.424 9.39858 24.6065 9.51142 24.7529 9.6081C24.9664 9.74904 25.4141 10.0948 25.4685 10.3585C25.3352 10.1893 25.17 10.0503 24.9984 9.92134C24.8738 9.8277 24.2825 9.47384 24.2422 9.40036L24.2597 9.40042L24.246 9.38446Z" fill="#1C1C1C"/>
<path d="M14.8697 7.72821L14.9169 7.73446C14.892 7.76316 14.7898 7.76579 14.7505 7.76966C13.9656 7.8466 13.0739 7.87634 12.3816 8.2915L12.3581 8.3007L12.3506 8.28852C12.3618 8.26796 12.3726 8.25011 12.3891 8.23321C12.8491 7.75883 14.2271 7.7419 14.8697 7.72821Z" fill="#1C1C1C"/>
<path d="M22.176 8.28584C22.5478 8.28449 22.9704 8.41537 23.318 8.54371C23.02 8.53632 22.7441 8.44892 22.4521 8.40561C22.152 8.36109 21.8569 8.41658 21.5645 8.4818C21.417 8.52111 21.2658 8.5609 21.1217 8.61077C20.9729 8.66224 20.7957 8.77823 20.6406 8.78774L20.6501 8.77313C20.7464 8.73188 20.8324 8.67373 20.9272 8.63002C21.3275 8.44548 21.7337 8.31228 22.176 8.28584Z" fill="#1C1C1C"/>
<path d="M23.6406 10.9738C23.9174 10.9889 24.5202 11.3534 24.808 11.4823C25.0179 11.5753 25.233 11.6538 25.4534 11.718C25.6065 11.7613 25.7782 11.789 25.9224 11.856C25.298 11.9413 24.1758 11.3097 23.6406 10.9738Z" fill="#1C1C1C"/>
<path d="M13.7041 14.1491C14.1815 14.3107 14.6695 14.3896 15.1733 14.3381C15.3038 14.325 15.4331 14.3039 15.561 14.2748C15.6352 14.2583 15.9739 14.1442 16.026 14.1626L15.9663 14.1995C15.5361 14.4427 14.9882 14.5439 14.499 14.4819C14.2522 14.4506 13.8645 14.3539 13.7041 14.1491Z" fill="#1C1C1C"/>
<path d="M13.1888 9.97462C13.2131 9.96998 13.2394 9.97178 13.2641 9.97147C13.2581 9.97671 13.253 9.98315 13.2461 9.98725C13.1381 10.0512 12.7535 10.1074 12.5816 10.1782C12.3557 10.2711 12.1548 10.4163 11.9331 10.52C11.3457 10.7947 10.5504 10.9767 9.90847 10.8318C9.84321 10.8082 9.78692 10.7757 9.72754 10.7406C9.77114 10.7454 9.81479 10.7495 9.85851 10.7529C9.90222 10.7563 9.94598 10.7591 9.98979 10.7611C10.0336 10.7632 10.0774 10.7646 10.1213 10.7652C10.1651 10.7659 10.209 10.766 10.2528 10.7653C10.2967 10.7646 10.3405 10.7633 10.3843 10.7613C10.4281 10.7592 10.4719 10.7565 10.5156 10.7531C10.5593 10.7497 10.603 10.7457 10.6466 10.7409C10.6902 10.7362 10.7337 10.7307 10.7771 10.7247C10.8205 10.7185 10.8638 10.7118 10.9071 10.7043C10.9503 10.6969 10.9934 10.6888 11.0363 10.68C11.0793 10.6712 11.1221 10.6618 11.1648 10.6516C11.2074 10.6415 11.25 10.6307 11.2923 10.6193C11.3346 10.6079 11.3768 10.5958 11.4187 10.583C11.4607 10.5703 11.5024 10.5569 11.544 10.5428C11.5855 10.5288 11.6268 10.5141 11.6679 10.4988C11.709 10.4834 11.7499 10.4675 11.7904 10.4509C12.0006 10.3651 12.2009 10.256 12.4118 10.1722C12.6616 10.0729 12.9249 10.0195 13.1888 9.97462Z" fill="#1C1C1C"/>
<path d="M25.3611 10.3763C25.6317 10.3389 26.0462 10.3731 26.2824 10.5208C26.3629 10.5711 26.4363 10.6473 26.4542 10.7437C26.4667 10.8104 26.4517 10.8751 26.4134 10.9308C26.2849 11.1179 25.9822 11.1761 25.7758 11.2195C25.4848 11.2525 25.0916 11.2822 24.8341 11.1099C24.7518 11.0549 24.6865 10.9722 24.6686 10.8732C24.6529 10.7862 24.6788 10.7049 24.7319 10.6355C24.8766 10.4459 25.1401 10.403 25.3611 10.3763Z" fill="#1C1C1C"/>
<path d="M25.4375 10.6057C25.4998 10.595 25.5689 10.5962 25.632 10.5967C25.7706 10.5978 26.1051 10.6249 26.1925 10.7449C26.2146 10.7754 26.2085 10.7913 26.201 10.8244C26.0921 10.9585 25.8048 10.9891 25.6428 11.009C25.4494 11.0365 25.1907 11.0431 25.0112 10.9545C24.9544 10.9265 24.9156 10.8975 24.8955 10.8351C24.9005 10.807 24.8996 10.793 24.9173 10.7696C25.0103 10.6463 25.2955 10.6247 25.4375 10.6057Z" fill="white"/>
<path d="M15.1096 8.071C15.3871 8.04481 15.8642 8.05243 16.1097 8.18254C16.1799 8.21975 16.2408 8.27673 16.2622 8.35545C16.2779 8.41297 16.2677 8.4696 16.2378 8.52068C16.1071 8.7438 15.7734 8.83169 15.5411 8.88697C15.2475 8.93599 14.8805 8.98345 14.6149 8.81576C14.5228 8.75761 14.4464 8.67052 14.4278 8.5603C14.4132 8.47347 14.4396 8.3924 14.4932 8.3238C14.6375 8.139 14.8907 8.09199 15.1096 8.071Z" fill="#1C1C1C"/>
<path d="M15.136 8.27122C15.2615 8.2591 15.3918 8.265 15.5174 8.27362C15.658 8.28328 15.9447 8.28958 16.0436 8.40281C16.0469 8.42201 16.0534 8.43249 16.0429 8.45045C15.9715 8.57188 15.6502 8.62983 15.525 8.65802C15.2851 8.69838 14.9284 8.75911 14.7132 8.61299C14.666 8.58093 14.6403 8.55031 14.6309 8.49228C14.6378 8.46563 14.6435 8.44787 14.6614 8.4261C14.7565 8.31069 14.9967 8.28519 15.136 8.27122Z" fill="white"/>
<path d="M7.55953 9.80456C7.79133 9.79831 8.1535 9.82355 8.33572 9.98629C8.3855 10.0308 8.42011 10.0913 8.42311 10.1589C8.42649 10.2353 8.38905 10.3067 8.33898 10.3621C8.11864 10.6058 7.73576 10.6785 7.42418 10.693C7.17556 10.6992 6.88776 10.6714 6.68325 10.5145C6.61396 10.4613 6.55629 10.3875 6.54847 10.2978C6.54194 10.2229 6.57033 10.1546 6.62009 10.0996C6.82087 9.87732 7.27952 9.82389 7.55953 9.80456Z" fill="#1C1C1C"/>
<path d="M7.55957 10.0049C7.68243 9.99701 8.05483 10.0157 8.14071 10.0942C8.17104 10.1218 8.17219 10.1314 8.17666 10.1698C8.16878 10.1896 8.16099 10.2068 8.14598 10.2224C7.98765 10.3871 7.62843 10.4139 7.41539 10.4204C7.33014 10.4183 7.24491 10.4157 7.1597 10.4123C6.97499 10.4043 6.85348 10.3794 6.72491 10.2386C6.97187 10.0886 7.27466 10.0243 7.55957 10.0049Z" fill="white"/>
<path d="M20.1116 13.2124C20.3251 13.1816 20.658 13.1912 20.8489 13.3034C20.9158 13.3427 20.9682 13.4012 20.987 13.4778C21.0098 13.5711 20.9835 13.6643 20.93 13.742C20.742 14.0152 20.2846 14.1261 19.9794 14.1801C19.7447 14.2184 19.4113 14.2493 19.2048 14.1059C19.1393 14.0604 19.0958 13.9976 19.0841 13.9179C19.0694 13.8184 19.1099 13.7193 19.1683 13.6406C19.3773 13.359 19.7827 13.2544 20.1116 13.2124Z" fill="#1C1C1C"/>
<path d="M20.1502 13.4276C20.2494 13.4171 20.352 13.4184 20.4512 13.427C20.5539 13.4359 20.6898 13.4445 20.7607 13.5286C20.7639 13.5671 20.7614 13.5878 20.7398 13.6211C20.6196 13.8062 20.1548 13.9238 19.9498 13.9611C19.7794 13.9823 19.5781 14.0096 19.4103 13.9641C19.3579 13.9499 19.3261 13.9368 19.2984 13.8875C19.2939 13.84 19.3069 13.8101 19.3361 13.774C19.5104 13.5585 19.8853 13.4536 20.1502 13.4276Z" fill="white"/>
<path d="M17.0379 13.1836C17.36 13.1312 17.8284 13.1862 18.1007 13.3786C18.1902 13.4418 18.268 13.5329 18.2825 13.6449C18.2937 13.7314 18.2677 13.8104 18.2108 13.876C18.0565 14.0539 17.7666 14.0912 17.5464 14.1098C17.1762 14.1157 16.774 14.0599 16.4501 13.8671C16.3596 13.8132 16.2611 13.7323 16.2386 13.6235C16.2278 13.5711 16.2394 13.5206 16.2713 13.4779C16.4173 13.2819 16.8124 13.2113 17.0379 13.1836Z" fill="#1C1C1C"/>
<path d="M17.0814 13.3835C17.2979 13.3506 17.565 13.3883 17.7727 13.4531C17.864 13.4815 18.0245 13.5438 18.0594 13.6416C18.0711 13.6745 18.0727 13.7024 18.0536 13.7333C17.9782 13.8553 17.6151 13.8831 17.4843 13.8942C17.1314 13.889 16.7222 13.821 16.4316 13.6074C16.6279 13.4764 16.8499 13.4163 17.0814 13.3835Z" fill="white"/>
<path d="M6.66619 11.3787C6.93279 11.3417 7.30522 11.3701 7.53765 11.5202C7.61912 11.5728 7.68804 11.6504 7.70509 11.7486C7.71881 11.8275 7.69601 11.9032 7.64665 11.9654C7.46383 12.196 7.02125 12.2851 6.74617 12.3179C6.45157 12.3259 6.04858 12.3462 5.79659 12.1681C5.73491 12.1245 5.68246 12.0627 5.6708 11.986C5.66 11.9151 5.68481 11.8496 5.72612 11.7928C5.91509 11.5331 6.36675 11.4185 6.66619 11.3787Z" fill="#1C1C1C"/>
<path d="M6.75527 11.58C6.78829 11.5773 6.82136 11.5759 6.8545 11.5757C7.01586 11.5757 7.28685 11.5947 7.40633 11.714C7.41621 11.7459 7.42363 11.7572 7.40215 11.7874C7.28192 11.9564 6.7724 12.0518 6.57898 12.0733C6.39456 12.0818 6.19656 12.097 6.01549 12.0554C5.95147 12.0406 5.90698 12.026 5.87238 11.9682C5.87813 11.9394 5.87716 11.9301 5.89621 11.906C6.04313 11.7199 6.52407 11.6015 6.75527 11.58Z" fill="white"/>
<path d="M22.1042 8.8299C22.1054 8.82973 22.1067 8.8295 22.1079 8.82939C22.6405 8.78358 23.4603 8.8762 23.8836 9.23527C24.0276 9.35745 24.1055 9.51809 24.122 9.70529C24.1404 9.91369 24.0879 10.1099 23.9507 10.2706C23.6662 10.6041 23.1616 10.7377 22.7427 10.7743C22.2317 10.8445 21.5406 10.7652 21.1153 10.4502C20.9147 10.3017 20.7457 10.0861 20.7144 9.83179C20.6913 9.64339 20.748 9.46149 20.8682 9.31554C21.1507 8.97268 21.6882 8.87293 22.1042 8.8299Z" fill="#1C1C1C"/>
<path d="M20.9535 9.89679C21.2369 10.2044 21.6708 10.3438 22.0761 10.3955C22.5717 10.4587 23.1538 10.3961 23.5959 10.1496C23.697 10.0932 23.7786 10.0231 23.8696 9.95305C23.876 9.99017 23.852 10.0201 23.8359 10.0535C23.6846 10.2547 23.4558 10.3732 23.2206 10.4498C22.6541 10.6343 21.9098 10.6248 21.3739 10.3465C21.1882 10.2501 21.0174 10.1024 20.9535 9.89679Z" fill="white"/>
<path d="M22.1157 9.05927C22.5621 8.99803 23.2444 9.0789 23.6284 9.32809C23.7064 9.3787 23.8056 9.45184 23.8225 9.54946C23.834 9.61606 23.8016 9.67923 23.7617 9.73042C23.5386 10.0166 23.0892 10.1246 22.7495 10.168C22.3404 10.2055 21.9156 10.1715 21.5318 10.017C21.2859 9.9179 21.1038 9.78522 20.998 9.53543C21.0166 9.49847 21.0359 9.46272 21.062 9.43041C21.2843 9.15498 21.79 9.09176 22.1157 9.05927Z" fill="white"/>
<path d="M11.2278 8.0832C11.3431 8.06971 11.458 8.07163 11.5694 8.10773C11.7439 8.16427 11.8869 8.28696 12.0518 8.36436C12.2017 8.43469 12.3693 8.46199 12.5217 8.5263C12.759 8.62639 13.2352 8.97549 13.3492 9.20876C13.3836 9.27923 13.3744 9.37691 13.3487 9.44887C13.2039 9.85538 12.5721 9.66818 12.2932 9.7328C12.1307 9.77047 11.9682 9.88211 11.8168 9.9526C11.4022 10.1457 11.0682 10.1326 10.6433 9.97838C10.6091 10.0089 10.5714 10.0368 10.5358 10.0656C10.4862 10.1013 10.4299 10.1336 10.3751 10.1608C10.0158 10.3394 9.49216 10.3717 9.11318 10.2414C8.9484 10.1847 8.791 10.0896 8.71483 9.92602C8.63316 9.75065 8.67169 9.54532 8.73857 9.37172C8.88882 8.98188 9.22077 8.60482 9.60832 8.4391C9.96639 8.28599 10.1816 8.37445 10.5221 8.50911C10.7193 8.28163 10.9308 8.14319 11.2278 8.0832Z" fill="#1C1C1C"/>
<path d="M9.95976 8.57144C10.1777 8.56396 10.4135 8.68296 10.5778 8.81946C10.7019 8.92258 10.8022 9.05856 10.8137 9.22434C10.8276 9.42437 10.7149 9.62512 10.5891 9.77316C10.3611 10.0415 10.1007 10.1105 9.76078 10.1377C9.53207 10.136 9.22694 10.0995 9.03948 9.95627C8.9581 9.89408 8.90565 9.8094 8.89465 9.70685C8.8699 9.47608 9.01728 9.22098 9.15524 9.04659C9.3557 8.79316 9.63612 8.60882 9.95976 8.57144Z" fill="white"/>
<path d="M11.3187 8.28431C11.6065 8.27497 11.782 8.47426 12.0248 8.58295C12.1346 8.63213 12.269 8.64044 12.385 8.67421C12.5771 8.73013 13.0263 9.09012 13.1198 9.27537C13.141 9.31731 13.1404 9.34238 13.127 9.38643C12.9232 9.5789 12.5428 9.44533 12.2842 9.49047C12.2007 9.50503 12.1306 9.53797 12.056 9.57584C11.985 9.61671 11.9138 9.65704 11.8423 9.69684C11.4878 9.89209 11.2058 9.91879 10.8194 9.80736C10.9502 9.63522 11.0677 9.45633 11.0639 9.23008C11.0595 8.96789 10.8695 8.80638 10.6931 8.64244C10.8793 8.44081 11.0422 8.32648 11.3187 8.28431Z" fill="white"/>
<path d="M8.83549 10.3892C8.85872 10.3959 8.8813 10.4022 8.9031 10.4129C9.19122 10.5546 9.82171 11.2651 10.0053 11.5395C10.1017 11.6836 10.1717 11.8332 10.2347 11.9944C10.3088 11.9371 10.3852 11.8829 10.4637 11.8319C10.5422 11.7808 10.6227 11.733 10.7051 11.6884C10.7876 11.6439 10.8717 11.6027 10.9574 11.565C11.0431 11.5273 11.1303 11.4931 11.2188 11.4625C11.4144 11.3951 12.5482 11.1015 12.6736 11.1628C12.6913 11.1955 12.6942 11.212 12.6861 11.2489C12.669 11.3272 12.5968 11.4196 12.5531 11.4878C12.1947 12.048 11.6726 12.4674 11.128 12.8342C11.3007 12.8718 11.5007 12.9235 11.604 13.0798C12.0268 12.9365 12.445 12.846 12.8917 12.8273C13.5282 12.8006 14.143 12.9166 14.7611 13.053C14.9145 13.0868 15.1427 13.0879 15.261 13.1963C15.26 13.1988 15.259 13.2013 15.258 13.2039C15.2516 13.2215 15.2491 13.2308 15.2411 13.2464C15.1573 13.4081 14.4974 13.6556 14.329 13.7125C13.6652 13.9367 12.8406 14.1018 12.156 13.9114C11.8472 13.8255 11.5621 13.6776 11.2761 13.5363C10.9871 13.6065 10.7015 13.6704 10.4043 13.6122C10.1392 13.5603 9.87425 13.4107 9.72156 13.1847C9.50325 13.2535 9.26919 13.2594 9.04335 13.2303C8.66602 13.1818 7.89425 12.8666 7.67259 12.5521C7.64698 12.5158 7.64351 12.4916 7.65173 12.4489C7.82598 12.3876 8.57089 12.3957 8.81378 12.3832C8.70192 12.2615 8.40775 11.8474 8.40423 11.6924C8.41577 11.6721 8.41715 11.6577 8.44087 11.65C8.51082 11.6273 8.59767 11.6884 8.65832 11.7198C8.70507 11.2803 8.74345 10.8212 8.83549 10.3892Z" fill="#1C1C1C"/>
<path d="M8.79297 11.9705C8.90907 11.996 9.1882 12.2251 9.30455 12.3066L9.39178 12.5546C9.1356 12.4289 8.94496 12.2064 8.79297 11.9705Z" fill="white"/>
<path d="M13.0956 13.0409C13.2691 13.0402 13.8557 13.046 13.9925 13.1251L13.955 13.1324C13.6666 13.1593 13.378 13.1844 13.0892 13.2075L13.0956 13.0409Z" fill="white"/>
<path d="M9.13446 10.8826C9.28144 10.9778 9.49485 11.228 9.59812 11.3723L9.50053 11.4815L9.3966 11.6177C9.31819 11.3695 9.23081 11.1245 9.13446 10.8826Z" fill="white"/>
<path d="M11.6681 12.1239C11.6785 12.1216 11.696 12.1238 11.7068 12.124C11.6864 12.1984 11.4699 12.3233 11.4009 12.3717C11.2086 12.3683 11.0102 12.3975 10.8176 12.4084L10.7835 12.4097C10.7889 12.4019 10.7931 12.3933 10.7996 12.3864C10.8228 12.3618 10.871 12.3385 10.9011 12.3203C11.143 12.1741 11.3936 12.1605 11.6681 12.1239Z" fill="white"/>
<path d="M12.2849 11.4585L12.2983 11.4677L12.2987 11.4869C12.1957 11.6562 12.0472 11.8158 11.8983 11.9455C11.7324 11.9633 11.5672 11.9857 11.4026 12.0129L11.3958 12.0004C11.6685 11.7983 11.982 11.6132 12.2849 11.4585Z" fill="white"/>
<path d="M10.962 12.554C11.0341 12.5452 11.1103 12.5492 11.183 12.5483C10.7191 12.7893 10.6237 12.8018 10.118 12.8672C10.0291 12.881 9.94032 12.9029 9.85223 12.9217C10.2126 12.6903 10.5383 12.5878 10.962 12.554Z" fill="white"/>
<path d="M12.843 13.0412L12.9099 13.0383C12.9373 13.0524 12.9508 13.0688 12.9569 13.0999C12.9638 13.1349 12.96 13.1579 12.9433 13.1885C12.8386 13.2521 12.5656 13.2025 12.4388 13.2064C12.3249 13.21 12.2556 13.2793 12.1486 13.2972C11.9857 13.3245 11.8066 13.3214 11.6412 13.3351C11.6294 13.3358 11.6176 13.3366 11.6057 13.337C11.5761 13.3378 11.5289 13.3427 11.5075 13.3221C11.7841 13.1841 12.5246 13.0632 12.843 13.0412Z" fill="white"/>
<path d="M13.4712 13.3273C13.5021 13.322 13.5298 13.3223 13.561 13.3235L13.5785 13.3433C13.5862 13.4685 13.5023 13.6054 13.4513 13.7179C13.3138 13.7378 13.1782 13.7505 13.0397 13.7594C13.0048 13.7639 12.9701 13.7625 12.9351 13.762C12.9092 13.7081 13.0373 13.4243 13.0606 13.3532C13.1981 13.3511 13.3343 13.3392 13.4712 13.3273Z" fill="white"/>
<path d="M14.1619 13.2558C14.3659 13.2222 14.6176 13.2776 14.818 13.3165C14.6046 13.403 14.3883 13.4814 14.169 13.5518C13.986 13.6065 13.8008 13.6565 13.6126 13.6898C13.6578 13.5639 13.693 13.4335 13.7315 13.3054L14.1619 13.2558Z" fill="white"/>
<path d="M8.97717 10.8496C9.06766 10.9339 9.14205 11.2278 9.17569 11.3478C9.20897 11.4665 9.32536 11.9535 9.27311 12.0456L9.219 12.0138C9.09954 11.9361 8.9774 11.8646 8.85382 11.7939C8.91444 11.4859 8.94302 11.1615 8.97717 10.8496Z" fill="white"/>
<path d="M12.4423 13.3705C12.6051 13.3613 12.7698 13.362 12.9329 13.3587C12.89 13.5017 12.8308 13.6335 12.7682 13.7685C12.5802 13.7624 12.3953 13.7426 12.2117 13.7014C12.0209 13.6652 11.8303 13.5731 11.6575 13.4876C11.8363 13.48 12.0152 13.4728 12.1908 13.4362C12.2716 13.4193 12.347 13.3875 12.4284 13.3729L12.4423 13.3705Z" fill="white"/>
<path d="M8.67614 12.5978C8.74125 12.5947 8.80722 12.5937 8.87237 12.5968C9.14144 12.6096 9.39762 12.8307 9.56963 13.0209C9.37433 13.0502 9.17773 13.035 8.98408 13.0023C8.64953 12.938 8.33915 12.792 8.05206 12.6128L8.67614 12.5978Z" fill="white"/>
<path d="M11.9408 11.4761C11.9501 11.4751 11.9643 11.4788 11.9737 11.4802C11.7626 11.6328 11.5087 11.7547 11.2829 11.8865C10.8615 12.1323 10.4477 12.384 10.0176 12.6151C10.0039 12.6212 10.0122 12.6195 9.99219 12.6147C9.99855 12.599 10.0042 12.585 10.0132 12.5706C10.2875 12.1302 10.8158 11.8193 11.2941 11.6527C11.5045 11.5794 11.7248 11.5303 11.9408 11.4761Z" fill="white"/>
<path d="M9.66967 11.5093C9.68941 11.5101 9.69408 11.5079 9.71101 11.5164C9.88509 11.604 10.0019 11.9811 10.0513 12.1541C9.93516 12.3019 9.82656 12.4511 9.72536 12.6094L9.66437 12.7005C9.53604 12.4649 9.44099 12.1762 9.43916 11.9057C9.43795 11.7322 9.5562 11.6251 9.66967 11.5093Z" fill="white"/>
<path d="M10.7971 13.0126C10.8628 13.0059 10.9287 13.0052 10.9945 13.0107C11.1132 13.0213 11.2779 13.0468 11.3574 13.1432L11.3545 13.1706C11.2562 13.2424 11.1114 13.2268 11.0087 13.2976C11.002 13.3135 10.993 13.3223 11.0005 13.3395C11.0268 13.3997 11.1183 13.4316 11.1747 13.4574C11.0055 13.4691 10.8378 13.4781 10.6683 13.466C10.3779 13.4599 10.1202 13.3316 9.91473 13.1332C10.1933 13.0491 10.5082 13.0361 10.7971 13.0126Z" fill="white"/>
</svg>
