<svg width="66" height="66" viewBox="0 0 66 66" fill="none" xmlns="http://www.w3.org/2000/svg">
<g clip-path="url(#clip0_107_4637)">
<path d="M0 0H66V66H0V0Z" fill="#1C1C1C"/>
<path d="M40.4192 4.63566C40.4705 4.63427 40.5278 4.63505 40.5771 4.65092C40.7703 4.71321 40.9951 4.90495 41.1598 5.02155C42.2702 5.80768 43.3835 6.76596 44.2111 7.8527C44.4383 8.15112 44.5884 8.49104 44.7601 8.82214L44.7924 8.82452C44.8254 8.75311 44.86 8.66094 44.9177 8.60622C44.9795 8.5475 45.1055 8.49891 45.1919 8.51251C45.5276 8.56536 46.2678 10.0754 46.4477 10.3918C46.5665 10.3892 46.6941 10.3396 46.8112 10.3607C46.9147 10.3794 46.9728 10.4134 47.0348 10.4973C47.3108 10.8719 47.5337 11.3294 47.7323 11.7508C48.6923 13.7882 49.1083 16.1443 48.7382 18.376C49.8775 16.8858 51.4839 15.7431 53.1643 14.9302C53.4282 14.8025 53.7926 14.5862 54.084 14.5558C54.1657 14.5473 54.2407 14.5664 54.2991 14.6276C54.4151 14.7495 54.4062 14.971 54.4186 15.1291C54.9709 14.6934 56.6329 13.5524 57.2613 13.4766C57.3362 13.4675 57.4151 13.4685 57.4716 13.5261C57.6243 13.6814 57.5697 14.0769 57.5658 14.2783C58.2462 13.9266 59.4903 13.4124 60.2746 13.4073C60.3975 13.4064 60.481 13.4229 60.5693 13.5152C60.6371 13.7201 60.457 13.9999 60.3727 14.1838C61.1078 14.2784 61.9268 14.1241 62.665 14.066C63.4487 14.0044 64.2327 14.0005 65.017 14.0541C65.2252 14.0685 65.6571 14.0751 65.8092 14.23C65.8794 14.3015 65.8756 14.3238 65.8762 14.4178C65.7441 14.7106 65.1756 14.9113 64.9255 15.1318C64.2492 15.7286 63.5134 16.6844 63.2581 17.5595C63.1824 17.8184 63.1637 18.0735 63.1455 18.3419C63.4375 18.4303 63.7978 18.5426 64.002 18.7789C64.0233 18.8552 64.0319 18.8665 63.9915 18.9397C63.8825 19.1372 63.6951 19.319 63.5636 19.5066C63.3154 19.8607 63.1331 20.2512 62.9626 20.6468C63.2274 20.6461 63.5199 20.6086 63.7237 20.8085C63.7594 20.9115 63.7674 20.9756 63.721 21.0776C63.615 21.311 63.3723 21.5291 63.2154 21.734C62.9838 22.0364 62.8136 22.365 62.6654 22.7143C62.864 22.7572 63.1426 22.7843 63.2907 22.9365C63.336 22.9832 63.3686 23.0513 63.3673 23.1162C63.3618 23.3831 62.3342 24.7094 62.1138 24.9585C61.8753 25.2279 61.6151 25.4717 61.3496 25.7138C61.5412 25.83 61.8815 25.9857 62.0162 26.1606C62.0695 26.2297 62.0735 26.2644 62.0527 26.3486C61.9275 26.8527 60.011 27.922 59.4936 28.2085C59.578 28.2735 59.6939 28.3458 59.7578 28.431C59.8014 28.4891 59.7935 28.5058 59.782 28.5721C59.4409 29.0421 57.913 29.7368 57.3229 29.9194C57.3869 30.0042 57.4531 30.0941 57.5047 30.1868C57.548 30.2647 57.5645 30.3325 57.5408 30.4199C57.36 30.6042 56.9857 30.6775 56.7446 30.7482C53.6102 31.6662 50.703 31.0839 47.9021 29.5555C47.5341 29.6687 47.1281 29.8345 46.7866 30.0123C45.9164 30.4651 45.0796 32.0645 44.7895 32.9758C45.8672 33.0006 46.8526 33.2056 47.7771 33.7883C49.0481 34.5893 49.8053 35.7911 50.1308 37.2377C50.7621 37.1171 51.3915 37.0989 52.0276 37.1999C52.071 37.2071 52.1142 37.2149 52.1574 37.2233C52.2006 37.2316 52.2437 37.2405 52.2867 37.2499C52.3296 37.2593 52.3725 37.2692 52.4152 37.2797C52.4579 37.2901 52.5005 37.3011 52.5429 37.3126C52.5853 37.3241 52.6276 37.3361 52.6698 37.3487C52.7119 37.3613 52.7539 37.3743 52.7957 37.3879C52.8375 37.4015 52.8792 37.4156 52.9207 37.4302C52.9621 37.4449 53.0034 37.46 53.0445 37.4756C53.0856 37.4913 53.1265 37.5074 53.1672 37.524C53.2079 37.5407 53.2484 37.5579 53.2887 37.5755C53.329 37.5932 53.369 37.6113 53.4088 37.6299C53.4487 37.6486 53.4883 37.6677 53.5276 37.6873C53.567 37.7069 53.6061 37.727 53.6449 37.7477C53.6838 37.7683 53.7224 37.7893 53.7607 37.8108C53.7991 37.8324 53.8371 37.8544 53.8749 37.8769C53.9127 37.8994 53.9502 37.9223 53.9874 37.9457C54.0247 37.9691 54.0616 37.993 54.0982 38.0173C54.1349 38.0416 54.1712 38.0664 54.2072 38.0916C54.2432 38.1168 54.2789 38.1425 54.3143 38.1686C54.3498 38.1947 54.3848 38.2212 54.4195 38.2482C54.4543 38.2752 54.4887 38.3025 54.5227 38.3304C54.5568 38.3582 54.5905 38.3864 54.6238 38.4151C54.6572 38.4437 54.6902 38.4728 54.7229 38.5023C54.7555 38.5317 54.7877 38.5616 54.8197 38.5919C54.8515 38.6221 54.8831 38.6528 54.9142 38.6838C54.9454 38.7149 54.9761 38.7463 55.0065 38.7781C55.0368 38.8099 55.0668 38.8421 55.0964 38.8746C55.126 38.9072 55.1551 38.9401 55.1839 38.9733C55.2127 39.0066 55.241 39.0402 55.269 39.0742C55.2969 39.1082 55.3244 39.1425 55.3515 39.1771C55.3785 39.2117 55.4052 39.2467 55.4314 39.282C55.4576 39.3174 55.4834 39.353 55.5087 39.3889C55.5341 39.4249 55.559 39.4612 55.5835 39.4979C55.608 39.5345 55.632 39.5714 55.6556 39.6087C55.6792 39.6459 55.7023 39.6834 55.7249 39.7212C55.7475 39.759 55.7697 39.7971 55.7914 39.8354C55.8131 39.8738 55.8343 39.9124 55.8551 39.9513C55.8759 39.9901 55.8961 40.0292 55.9159 40.0686C55.9357 40.108 55.955 40.1476 55.9738 40.1874C55.9926 40.2272 56.0109 40.2673 56.0287 40.3076C56.0466 40.3479 56.0639 40.3884 56.0807 40.4292C56.0975 40.4699 56.1139 40.5108 56.1297 40.552C56.1455 40.5931 56.1608 40.6344 56.1756 40.6759C56.1903 40.7174 56.2046 40.7591 56.2184 40.8009C56.2322 40.8428 56.2454 40.8848 56.2581 40.927C56.2708 40.9692 56.283 41.0115 56.2947 41.054C56.3064 41.0965 56.3176 41.1391 56.3282 41.1819C56.3388 41.2246 56.349 41.2675 56.3585 41.3105C56.3681 41.3535 56.3771 41.3966 56.3856 41.4399C56.3941 41.4831 56.4021 41.5264 56.4095 41.5699C56.417 41.6133 56.4239 41.6568 56.4303 41.7005C56.4366 41.744 56.4425 41.7877 56.4477 41.8314C56.453 41.8752 56.4578 41.919 56.4619 41.9628C56.4661 42.0067 56.4698 42.0506 56.4729 42.0946C56.4761 42.1385 56.4787 42.1825 56.4807 42.2265C56.4827 42.2705 56.4842 42.3145 56.4852 42.3586C56.4861 42.4026 56.4865 42.4467 56.4864 42.4908C56.4862 42.5348 56.4856 42.5789 56.4844 42.6229C56.4831 42.667 56.4813 42.711 56.479 42.755C56.4767 42.799 56.4739 42.843 56.4705 42.8869C56.4671 42.9308 56.4631 42.9747 56.4586 43.0185C56.4542 43.0623 56.4492 43.1061 56.4436 43.1499C56.438 43.1936 56.4319 43.2372 56.4253 43.2808C56.4187 43.3243 56.4115 43.3678 56.4038 43.4112C56.1353 44.9386 55.2881 46.0306 54.0413 46.8961C54.0268 47.1681 53.9965 47.4528 53.8548 47.6919C53.6781 47.9901 53.3474 48.1475 53.0212 48.2221C52.5615 49.3342 51.8745 50.2086 50.8505 50.8503C50.9306 51.0778 50.9964 51.3093 51.0478 51.5449C51.0565 51.5853 51.0647 51.6258 51.0724 51.6665C51.08 51.7071 51.0872 51.7478 51.0939 51.7886C51.1005 51.8294 51.1067 51.8702 51.1124 51.9112C51.1181 51.9521 51.1232 51.9931 51.1278 52.0342C51.1325 52.0753 51.1366 52.1165 51.1402 52.1576C51.1438 52.1988 51.1469 52.24 51.1496 52.2813C51.1521 52.3226 51.1542 52.3639 51.1558 52.4051C51.1574 52.4465 51.1585 52.4878 51.159 52.5292C51.1595 52.5705 51.1596 52.6118 51.1591 52.6532C51.1586 52.6945 51.1576 52.7358 51.1561 52.7771C51.1546 52.8184 51.1526 52.8597 51.1501 52.901C51.1475 52.9422 51.1445 52.9835 51.141 53.0247C51.1374 53.0659 51.1334 53.107 51.1288 53.1481C51.1242 53.1892 51.1191 53.2302 51.1135 53.2711C51.108 53.3121 51.1019 53.353 51.0953 53.3938C51.0887 53.4346 51.0816 53.4754 51.074 53.516C51.0664 53.5566 51.0582 53.5972 51.0496 53.6376C51.041 53.678 51.0319 53.7183 51.0223 53.7585C51.0126 53.7988 51.0025 53.8388 50.9919 53.8788C50.9813 53.9188 50.9702 53.9586 50.9586 53.9982C50.947 54.0379 50.9349 54.0775 50.9223 54.1168C50.9098 54.1562 50.8967 54.1954 50.8831 54.2345C50.8696 54.2735 50.8556 54.3124 50.841 54.3511C50.8265 54.3898 50.8115 54.4284 50.796 54.4667C50.7806 54.5051 50.7646 54.5432 50.7482 54.5811C50.7318 54.619 50.7149 54.6568 50.6975 54.6943C50.6801 54.7318 50.6623 54.7691 50.6441 54.8062C50.6258 54.8433 50.6071 54.8801 50.5879 54.9168C50.5687 54.9534 50.549 54.9897 50.5289 55.0259C50.5088 55.062 50.4883 55.0978 50.4673 55.1334C50.4463 55.1691 50.4249 55.2044 50.403 55.2395C50.3811 55.2746 50.3588 55.3094 50.3361 55.344C49.6108 56.4428 48.449 57.2571 47.1537 57.517C47.0751 57.533 46.9961 57.5471 46.9167 57.5591C46.8374 57.5713 46.7578 57.5814 46.678 57.5895C46.5982 57.5977 46.5182 57.6038 46.438 57.6079C46.3578 57.6121 46.2776 57.6143 46.1974 57.6144C46.1171 57.6146 46.0369 57.6128 45.9568 57.609C45.8766 57.6052 45.7966 57.5994 45.7167 57.5916C45.6368 57.5839 45.5572 57.5741 45.4778 57.5624C45.3984 57.5506 45.3194 57.5369 45.2406 57.5212C45.1619 57.5056 45.0836 57.4879 45.0058 57.4683C44.9279 57.4488 44.8507 57.4273 44.7739 57.4039C44.6971 57.3805 44.621 57.3552 44.5454 57.328C44.4699 57.3009 44.3952 57.2718 44.3211 57.2409C44.247 57.21 44.1738 57.1773 44.1014 57.1427C44.0289 57.1082 43.9573 57.0719 43.8867 57.0338C43.8161 56.9957 43.7464 56.9558 43.6778 56.9143C43.6091 56.8727 43.5415 56.8294 43.475 56.7845C43.1017 57.5674 42.6174 58.2295 41.9496 58.789C41.778 58.9328 41.3734 59.1096 41.2699 59.2913C41.2525 59.3218 41.2925 59.5065 41.2219 59.6662C41.0541 60.046 40.7594 60.3462 40.3638 60.4839C40.0687 60.5866 39.6557 60.6202 39.369 60.4731C39.1643 60.368 39.0628 60.1879 38.9993 59.975C38.8096 59.977 38.6192 59.9802 38.4296 59.9756C37.0551 59.9418 35.7005 59.2569 34.7613 58.2697C34.7305 58.2373 34.7001 58.2045 34.6701 58.1713C34.6401 58.1381 34.6106 58.1045 34.5814 58.0706C34.5522 58.0366 34.5235 58.0023 34.4953 57.9676C34.467 57.933 34.4391 57.898 34.4117 57.8627C34.3843 57.8273 34.3573 57.7916 34.3307 57.7556C34.3042 57.7196 34.2781 57.6832 34.2525 57.6465C34.2269 57.6099 34.2017 57.5729 34.177 57.5356C34.1523 57.4983 34.1281 57.4607 34.1044 57.4228C34.0806 57.3849 34.0573 57.3467 34.0345 57.3082C34.0117 57.2697 33.9894 57.2309 33.9675 57.1918C33.9457 57.1528 33.9244 57.1134 33.9035 57.0739C33.8826 57.0343 33.8623 56.9945 33.8424 56.9544C33.8226 56.9143 33.8032 56.874 33.7843 56.8334C33.7655 56.7928 33.7471 56.752 33.7293 56.711C33.7115 56.67 33.6942 56.6287 33.6774 56.5873C33.6606 56.5458 33.6443 56.5041 33.6286 56.4622C33.6128 56.4204 33.5975 56.3783 33.5828 56.336C33.5681 56.2938 33.5539 56.2513 33.5403 56.2087C33.5266 56.1661 33.5135 56.1234 33.5009 56.0805C33.4884 56.0375 33.4763 55.9944 33.4648 55.9512C33.4533 55.9079 33.4423 55.8646 33.4319 55.8211C33.4215 55.7776 33.4116 55.7339 33.4023 55.6902C33.3929 55.6464 33.3842 55.6025 33.3759 55.5586C33.3677 55.5146 33.36 55.4706 33.3528 55.4264C33.3457 55.3822 33.3391 55.338 33.3331 55.2936C33.3271 55.2493 33.3216 55.2049 33.3167 55.1605C33.3117 55.116 33.3074 55.0714 33.3036 55.0268C33.2998 54.9823 33.2965 54.9377 33.2938 54.893C33.2911 54.8483 33.289 54.8037 33.2874 54.759C33.2858 54.7142 33.2848 54.6695 33.2843 54.6248C33.2838 54.5801 33.284 54.5353 33.2846 54.4905C33.2853 54.4458 33.2865 54.4011 33.2883 54.3564C33.3352 52.872 33.9867 51.7233 35.0456 50.724C34.3944 49.7724 34.129 48.6753 34.2732 47.5288C34.409 46.4488 34.9386 45.352 35.7142 44.5863C36.0099 44.2945 36.352 44.0478 36.6793 43.7927C36.8173 43.3367 36.8316 42.869 36.8402 42.3966C35.9766 41.1764 34.8962 39.5177 33.6343 38.7024C33.713 39.8158 33.6282 40.8632 33.411 41.9552C32.8614 44.7183 31.3779 47.3139 29.0015 48.8993C29.3383 49.6226 29.5569 50.3544 29.5895 51.1559C29.5916 51.2074 29.593 51.2589 29.5938 51.3104C29.5946 51.3619 29.5947 51.4135 29.5943 51.465C29.5938 51.5165 29.5927 51.568 29.591 51.6195C29.5892 51.6709 29.5869 51.7224 29.5839 51.7738C29.5809 51.8253 29.5773 51.8767 29.5731 51.928C29.5689 51.9794 29.564 52.0307 29.5585 52.0819C29.553 52.1331 29.5469 52.1843 29.5402 52.2354C29.5335 52.2864 29.5261 52.3374 29.5181 52.3883C29.5101 52.4392 29.5015 52.49 29.4924 52.5407C29.4831 52.5914 29.4733 52.642 29.4628 52.6924C29.4523 52.7429 29.4413 52.7932 29.4296 52.8434C29.4179 52.8935 29.4057 52.9435 29.3928 52.9934C29.3798 53.0433 29.3663 53.093 29.3522 53.1426C29.3381 53.1921 29.3234 53.2415 29.3081 53.2907C29.2927 53.3399 29.2768 53.3889 29.2603 53.4377C29.2438 53.4865 29.2267 53.535 29.209 53.5834C29.1913 53.6318 29.173 53.68 29.1541 53.7279C29.1352 53.7759 29.1158 53.8236 29.0958 53.871C29.0757 53.9185 29.0551 53.9657 29.0339 54.0127C29.0127 54.0596 28.9909 54.1063 28.9686 54.1527C28.9463 54.1992 28.9234 54.2453 28.8999 54.2912C28.8764 54.3371 28.8524 54.3826 28.8279 54.4279C28.8033 54.4732 28.7782 54.5182 28.7525 54.5628C28.7268 54.6075 28.7007 54.6519 28.6739 54.6959C28.6472 54.7399 28.6199 54.7836 28.5921 54.827C28.5642 54.8703 28.5359 54.9134 28.507 54.9561C28.4782 54.9987 28.4488 55.041 28.4189 55.083C28.389 55.125 28.3586 55.1666 28.3276 55.2078C28.2967 55.249 28.2653 55.2898 28.2334 55.3302C28.2015 55.3707 28.1691 55.4108 28.1362 55.4504C28.1033 55.4901 28.07 55.5293 28.0361 55.5681C28.0023 55.607 27.968 55.6454 27.9332 55.6834C27.8997 55.7201 27.8657 55.7564 27.8313 55.7923C27.7968 55.8282 27.762 55.8636 27.7267 55.8986C27.6914 55.9337 27.6557 55.9682 27.6196 56.0024C27.5835 56.0366 27.5469 56.0703 27.51 56.1035C27.473 56.1367 27.4357 56.1695 27.3979 56.2018C27.3601 56.2342 27.322 56.266 27.2834 56.2974C27.2449 56.3288 27.2059 56.3597 27.1666 56.3902C27.1273 56.4206 27.0876 56.4505 27.0476 56.48C27.0076 56.5094 26.9672 56.5384 26.9264 56.5669C26.8856 56.5953 26.8445 56.6233 26.8031 56.6507C26.7616 56.6782 26.7199 56.7051 26.6777 56.7316C26.6357 56.758 26.5933 56.7839 26.5505 56.8092C26.5078 56.8346 26.4647 56.8595 26.4214 56.8838C26.378 56.9081 26.3344 56.9319 26.2904 56.9552C26.2465 56.9784 26.2023 57.0011 26.1577 57.0233C26.1133 57.0454 26.0685 57.0671 26.0235 57.0881C25.9785 57.1092 25.9332 57.1297 25.8876 57.1497C25.8421 57.1696 25.7964 57.189 25.7503 57.2078C25.7043 57.2266 25.6581 57.2449 25.6116 57.2626C25.5652 57.2803 25.5185 57.2974 25.4716 57.3139C25.4248 57.3304 25.3777 57.3464 25.3304 57.3618C25.2831 57.3772 25.2357 57.392 25.188 57.4062C25.1404 57.4204 25.0926 57.434 25.0446 57.4471C24.9966 57.4601 24.9485 57.4726 24.9003 57.4844C24.852 57.4963 24.8035 57.5076 24.755 57.5182C24.7064 57.5289 24.6577 57.5389 24.6089 57.5484C24.5602 57.5579 24.5113 57.5667 24.4622 57.575C24.4132 57.5833 24.3641 57.591 24.3149 57.598C24.2657 57.6051 24.2164 57.6115 24.167 57.6173C24.1177 57.6232 24.0682 57.6284 24.0187 57.6331C23.9692 57.6377 23.9197 57.6418 23.8701 57.6452C23.8205 57.6486 23.7709 57.6514 23.7212 57.6536C21.902 57.7259 20.3818 57.0683 19.0547 55.8477C18.8034 56.3884 18.5307 56.8716 18.1634 57.3434C17.6578 58.0264 16.9389 58.6343 16.1986 59.0482C14.7375 59.8652 12.9425 60.1044 11.3269 59.6343C9.88623 59.2151 8.61482 58.168 7.90565 56.8486C7.0131 55.188 7.06563 53.252 7.59092 51.4882C6.80092 51.3153 5.99934 50.9762 5.33613 50.512C5.29659 50.4848 5.2574 50.4572 5.21854 50.4291C5.17969 50.4009 5.1412 50.3723 5.10306 50.3433C5.06492 50.3142 5.02715 50.2846 4.98975 50.2546C4.95235 50.2246 4.91533 50.1941 4.87869 50.1631C4.84205 50.1322 4.8058 50.1008 4.76994 50.069C4.73409 50.0371 4.69863 50.0048 4.66358 49.9721C4.62853 49.9394 4.5939 49.9062 4.55968 49.8726C4.52545 49.839 4.49165 49.805 4.45828 49.7705C4.42491 49.7361 4.39197 49.7012 4.35947 49.666C4.32696 49.6307 4.2949 49.595 4.26329 49.559C4.23168 49.5229 4.20052 49.4864 4.16981 49.4496C4.13911 49.4127 4.10887 49.3755 4.0791 49.3379C4.04932 49.3003 4.02002 49.2623 3.99119 49.224C3.96237 49.1857 3.93402 49.147 3.90616 49.108C3.8783 49.0689 3.85093 49.0295 3.82405 48.9898C3.79717 48.9501 3.77079 48.91 3.74491 48.8697C3.71903 48.8293 3.69366 48.7886 3.66879 48.7476C3.64393 48.7066 3.61958 48.6653 3.59575 48.6236C3.57192 48.582 3.54861 48.5401 3.52582 48.4979C3.50304 48.4557 3.48078 48.4132 3.45905 48.3704C3.43733 48.3277 3.41614 48.2847 3.39548 48.2414C3.37483 48.1981 3.35472 48.1546 3.33515 48.1108C3.31558 48.067 3.29657 48.023 3.2781 47.9787C3.25964 47.9344 3.24172 47.89 3.22436 47.8453C3.207 47.8006 3.19021 47.7556 3.17397 47.7105C3.15774 47.6654 3.14207 47.6201 3.12696 47.5745C3.11185 47.529 3.09732 47.4833 3.08335 47.4374C3.06939 47.3915 3.056 47.3455 3.04319 47.2993C3.03037 47.2531 3.01813 47.2067 3.00647 47.1602C2.99482 47.1137 2.98374 47.067 2.97324 47.0202C2.96275 46.9734 2.95284 46.9265 2.94352 46.8795C2.9342 46.8324 2.92546 46.7852 2.91732 46.738C2.64994 45.2173 3.06484 43.675 3.95152 42.4279C4.96742 40.9989 6.5549 40.1631 8.26033 39.878C8.16385 38.6478 8.32846 37.5449 8.95636 36.4642C9.73863 35.1177 11.1001 34.1299 12.6036 33.7447C14.3063 33.3084 16.0552 33.6106 17.5561 34.4996C17.9297 33.8336 18.3653 33.2188 18.9502 32.7212C20.3177 31.5578 21.9152 31.2224 23.6711 31.361C23.0702 30.5875 22.4618 29.8199 21.8459 29.0583C18.8475 30.1172 15.6141 30.4905 12.5432 29.4953C12.3955 29.4479 12.2487 29.3974 12.103 29.3438C11.9574 29.2903 11.8129 29.2337 11.6696 29.1741C11.5263 29.1145 11.3843 29.052 11.2435 28.9865C11.1028 28.921 10.9635 28.8525 10.8257 28.7812C10.6879 28.7099 10.5516 28.6357 10.4168 28.5587C10.2821 28.4817 10.149 28.4019 10.0175 28.3193C9.88612 28.2368 9.75648 28.1515 9.62861 28.0635C9.50073 27.9756 9.37475 27.885 9.25065 27.7917C9.11833 27.6922 8.91472 27.5734 8.81353 27.4489C8.71556 27.3283 8.81656 27.1763 8.75211 27.0793C8.71305 27.0205 7.73787 26.6178 7.56179 26.5165C6.90508 26.1385 5.71987 25.1208 5.40787 24.4506C5.36302 24.3543 5.3591 24.2946 5.39355 24.1956C5.49159 24.0913 5.61052 24.0453 5.7382 23.9867C5.30572 23.6603 4.926 23.2454 4.58364 22.8277C4.32085 22.5072 3.48454 21.3942 3.52713 20.9703C3.5903 20.8666 3.71438 20.8108 3.81615 20.7496C3.09679 20.0593 2.53851 19.253 2.03568 18.3958C2.18787 18.1506 2.3815 17.96 2.59445 17.7679C2.16297 17.0499 1.71001 16.3382 1.20623 15.6684C0.944489 15.3204 0.224317 14.6381 0.0788465 14.3072C0.0463092 14.2332 0.038341 14.1594 0.0749638 14.0841C0.144728 13.9408 0.331799 13.8942 0.474599 13.8637C1.11856 13.7264 1.78331 13.6742 2.4132 13.4704C3.43291 13.1403 4.3856 12.5839 5.38862 12.1941C5.28169 12.1141 5.12389 12.0209 5.03812 11.9223C4.97713 11.8521 4.97202 11.793 4.96807 11.7036C4.99516 11.6236 5.01884 11.5758 5.08794 11.5243C5.24396 11.4081 5.46712 11.36 5.65299 11.3115C6.49973 11.0906 7.30456 11.0376 8.17074 11.1662C8.12292 11.1265 8.07548 11.0864 8.02843 11.0458C7.99685 11.019 7.96423 10.9931 7.93529 10.9634C7.85905 10.8854 7.83546 10.8021 7.83449 10.6948C7.87103 10.6232 7.88328 10.5947 7.95495 10.5519C8.41508 10.2773 10.6823 10.6447 11.2388 10.7827C11.0932 10.6208 10.8823 10.4652 10.7759 10.2763C10.7263 10.1883 10.7269 10.1269 10.7556 10.0333C10.8011 9.99145 10.8387 9.96683 10.8988 9.9531C11.7264 9.76425 14.0014 10.7727 14.7076 11.2308C14.5714 10.9664 14.3111 10.5842 14.3141 10.2848C14.3392 10.2353 14.3461 10.1983 14.3965 10.1691C14.4973 10.1108 14.6187 10.1217 14.7282 10.1482C15.1281 10.2449 15.5323 10.4219 15.9009 10.6022C17.0784 11.1784 17.9498 11.9415 18.6437 13.0497C18.6957 12.8904 18.7405 12.7345 18.8709 12.6223C18.9799 12.6066 19.0444 12.6347 19.138 12.6915C19.4694 12.8922 19.7754 13.1992 20.0657 13.4561C21.682 14.8872 22.7979 16.5774 23.3219 18.6875C23.4362 18.6669 23.539 18.6512 23.6553 18.6553C23.8298 18.7553 23.8794 19.0537 23.9342 19.2398C24.7453 22.0017 24.2654 25.5526 22.8949 28.0686C25.0411 31.1677 28.2514 33.7098 31.7908 35.0272C32.338 34.4927 32.7124 33.2976 33.0337 32.5904C33.2595 32.1002 33.5035 31.6193 33.7655 31.1475C35.2142 28.583 37.6995 26.7738 39.9614 24.9763C39.0644 24.2854 38.3636 23.4439 37.7992 22.4647C36.5664 20.3257 35.7278 17.09 36.4079 14.6608C36.453 14.4999 36.5324 14.2919 36.6992 14.2202C36.8261 14.1656 36.9534 14.2419 37.0686 14.2925C36.9485 13.4993 37.0708 12.1628 37.4966 11.4719C37.5578 11.3727 37.651 11.2602 37.7759 11.2475C37.9325 11.2316 38.1041 11.3709 38.2298 11.4506C38.2887 10.9142 38.4602 10.3563 38.7046 9.87569C38.8594 9.57147 39.1038 9.09922 39.456 9.00003C39.6148 8.95524 39.7317 9.02207 39.8636 9.10386C40.3223 8.0023 40.7633 7.05754 40.4911 5.83177C40.4352 5.57999 40.2124 5.14669 40.2184 4.92152C40.2219 4.79305 40.3306 4.71116 40.4192 4.63566Z" fill="white"/>
<path d="M38.161 40.7806L38.1871 40.8082C38.0663 40.9228 37.9028 41.0099 37.74 41.0434C37.6881 40.9801 37.651 40.954 37.639 40.8705C37.7474 40.7666 38.0147 40.7884 38.161 40.7806Z" fill="#1C1C1C"/>
<path d="M42.8548 32.8327C42.8798 33.0074 42.8398 33.2169 42.8229 33.3935C42.6004 33.4655 42.3892 33.5578 42.1753 33.6518C42.1771 33.4853 42.7219 32.9774 42.8548 32.8327Z" fill="#1C1C1C"/>
<path d="M39.4287 37.2609C39.5044 37.803 39.5398 38.3501 39.6179 38.8929L39.2279 38.7796L38.9745 38.69L39.4287 37.2609Z" fill="#1C1C1C"/>
<path d="M20.5496 40.5696C20.7344 40.681 20.934 41.034 21.066 41.212L20.8439 41.4973C20.7183 41.4209 20.5879 41.3528 20.4586 41.2829C20.2423 41.1763 20.0166 41.0874 19.7942 40.9942C19.8197 40.8733 19.831 40.749 19.9176 40.6555C20.032 40.6023 20.1686 40.6685 20.2891 40.683C20.4001 40.6964 20.4685 40.6354 20.5496 40.5696Z" fill="#1C1C1C"/>
<path d="M28.5217 38.0959C28.5784 38.0942 28.5481 38.0886 28.6099 38.124C28.6672 38.4117 28.4597 38.8718 28.3488 39.1354C28.1415 39.0018 27.9325 38.883 27.7129 38.7705C27.5463 38.7022 27.3727 38.6459 27.2031 38.5851C27.6518 38.4476 28.0629 38.2037 28.5217 38.0959Z" fill="#1C1C1C"/>
<path d="M22.9456 39.3568L22.9623 39.3858C22.602 39.6998 22.243 39.9914 21.9071 40.3343C21.812 40.4314 21.5404 40.7623 21.4317 40.7812L21.3628 40.6849L21.069 40.1863C21.6397 39.767 22.27 39.5419 22.9456 39.3568Z" fill="#1C1C1C"/>
<path d="M22.4449 28.5036C22.6414 28.6152 23.423 29.6982 23.6644 29.9826C24.0024 30.3853 24.3557 30.7741 24.7243 31.149C24.9788 31.4029 25.2525 31.6354 25.5036 31.8932L25.4938 31.9296C25.1575 31.7649 24.8133 31.6521 24.4539 31.5487C24.2033 30.9748 22.3589 28.9277 22.3394 28.6216L22.4449 28.5036Z" fill="#1C1C1C"/>
<path d="M45.2768 30.7419L45.3027 30.7688C45.184 30.9793 45.0298 31.1703 44.899 31.3737C44.7577 31.5938 44.6392 31.8403 44.5292 32.0779C44.3217 32.5254 44.2136 33.0164 43.9893 33.4548C43.801 33.4653 43.6201 33.4585 43.4323 33.4465C43.3532 33.3238 43.3673 33.1875 43.3894 33.0481C43.5734 31.8862 44.3928 31.3884 45.2768 30.7419Z" fill="#1C1C1C"/>
<path d="M39.1967 44.5117C39.5292 44.6618 39.8311 44.9314 40.1175 45.1546C41.3507 46.1157 42.5748 47.1876 43.5486 48.4167C43.6371 48.5284 43.7141 48.6234 43.6983 48.7711L43.5938 48.8493L43.1665 49.0383C42.1471 47.3695 41.1054 46.2556 39.668 44.9595C39.5552 44.8578 39.4772 44.8276 39.3296 44.7963C39.314 44.793 39.2984 44.7901 39.2828 44.787C39.217 44.7195 39.2132 44.6014 39.1967 44.5117Z" fill="#1C1C1C"/>
<path d="M46.9506 28.7708C47.1311 28.8306 47.3075 29.021 47.4446 29.1499C47.0739 29.3197 46.691 29.4648 46.3178 29.6292C45.773 29.8693 45.2142 30.1485 44.7186 30.478C43.57 31.2415 41.5012 33.1316 40.9984 34.4176C40.883 34.4882 40.7772 34.5677 40.6701 34.6501L40.3737 34.9442C41.2416 33.3885 42.961 31.3575 44.4013 30.3208C45.2103 29.7384 46.0994 29.2859 46.9506 28.7708Z" fill="#1C1C1C"/>
<path d="M27.3085 33.2488C27.6271 33.3669 28.2239 33.8408 28.5469 34.0445C29.4096 34.5885 30.3498 35.0861 31.3115 35.4308C31.1444 35.5293 30.9783 35.6058 30.7991 35.6793C30.2154 35.8986 29.6104 36.0578 29.027 36.2832C28.6842 35.0767 28.129 34.1838 27.3085 33.2488Z" fill="#1C1C1C"/>
<path d="M36.3019 38.5987C36.6427 38.6384 37.0055 38.8161 37.346 38.8971C37.8303 39.0121 38.3198 39.102 38.8003 39.2327C40.2021 39.6138 41.4273 40.2466 42.6378 41.0391C42.9251 41.2265 43.2021 41.4279 43.469 41.6433C43.8263 41.9328 45.286 43.2285 45.3212 43.534C45.3271 43.585 45.2656 43.6363 45.2346 43.6746C45.1673 43.7211 45.099 43.7786 45.017 43.7938C44.9289 43.8103 44.7901 43.6317 44.7311 43.5713C43.9113 42.7323 43.1218 41.9331 42.1486 41.2683C41.8825 41.0885 41.6117 40.9161 41.3362 40.7511C41.0607 40.586 40.7809 40.4285 40.4969 40.2786C40.2129 40.1286 39.925 39.9866 39.6332 39.8523C39.3415 39.718 39.0463 39.5916 38.7477 39.4734C37.9759 39.1692 36.9436 39.0853 36.3019 38.5987Z" fill="#1C1C1C"/>
<path d="M39.3806 45.4667C39.5993 45.6893 39.7794 45.9939 39.9819 46.2377C40.4546 46.798 40.9499 47.3375 41.4679 47.8562C41.4015 48.4248 41.2289 48.9371 41.0244 49.4682C40.9697 49.5951 40.8917 49.7062 40.8161 49.8212C40.368 49.724 39.9274 49.6344 39.4705 49.5891C39.5543 48.1364 39.5796 46.9151 39.3806 45.4667Z" fill="#1C1C1C"/>
<path d="M30.9972 37.556C31.104 37.5376 31.176 37.5416 31.2727 37.5923C31.6777 37.8045 32.0233 38.1948 32.1479 38.6342C32.4521 39.7069 31.9692 42.0615 31.6028 43.141C31.5173 43.3942 31.4192 43.6424 31.3085 43.8857C31.1978 44.1289 31.075 44.366 30.9403 44.5968C30.9535 44.3035 30.9516 44.0166 30.9363 43.7234C30.9028 42.0367 30.032 40.5522 28.8579 39.4024C29.0948 38.9127 29.2013 38.4741 29.2292 37.9316C29.814 37.7914 30.401 37.6391 30.9972 37.556Z" fill="#1C1C1C"/>
<path d="M37.4818 44.1502L37.5227 44.1706C37.6747 44.4147 37.7225 44.7484 37.7816 45.0281C38.1013 46.5405 38.1218 48.055 37.9876 49.5904C37.2857 49.6582 36.6266 49.7719 36.0038 50.116C35.8653 50.1925 35.6433 50.3597 35.4867 50.3669C35.3931 50.2225 35.3079 50.0733 35.2309 49.9194C35.154 49.7655 35.0859 49.6078 35.0265 49.4463C34.6553 48.4166 34.7572 47.2799 35.2214 46.2978C35.6894 45.3076 36.4361 44.5203 37.4818 44.1502Z" fill="#1C1C1C"/>
<path d="M39.8527 40.6039C39.8563 40.6039 39.8599 40.6037 39.8635 40.604C40.1162 40.6265 40.4403 40.845 40.6596 40.9695C41.9166 41.6831 43.0152 42.5353 43.97 43.6243C43.9204 43.9178 43.9092 44.2166 43.8443 44.5082C43.7776 44.8076 43.6724 45.0986 43.6001 45.397C43.5803 45.4818 43.5627 45.567 43.5473 45.6527C43.5318 45.7384 43.5185 45.8244 43.5074 45.9108C43.4962 45.9972 43.4872 46.0837 43.4804 46.1705C43.4736 46.2574 43.4691 46.3443 43.4666 46.4313C43.4642 46.5184 43.4639 46.6054 43.4659 46.6925C43.4678 46.7795 43.472 46.8665 43.4783 46.9533C43.4846 47.0402 43.4931 47.1268 43.5038 47.2132C43.5144 47.2997 43.5273 47.3858 43.5422 47.4715L42.9201 46.8693C41.7807 45.6942 40.4638 44.6198 39.048 43.7967C38.9039 43.4493 38.7954 43.086 38.6543 42.7367C38.4739 42.2901 38.2619 41.8533 38.0601 41.4159C38.6906 41.1964 39.2739 40.9372 39.8527 40.6039Z" fill="#1C1C1C"/>
<path d="M40.5001 25.2881C40.6609 25.3244 40.8014 25.4088 40.9463 25.4851C39.3547 26.6035 37.7491 27.7918 36.4175 29.2177C35.0652 30.6658 33.8013 32.589 33.544 34.5885C33.4644 35.2065 33.5151 35.8669 33.5366 36.4895C33.9871 37.1461 34.714 37.6005 35.2705 38.1603C35.6083 38.5002 35.8643 38.8932 36.2328 39.2066C36.6074 39.5254 37.38 39.5999 37.8574 39.7504C38.2198 39.8647 38.5786 40.0047 38.9305 40.1479C38.3926 40.2726 37.4566 40.4409 36.9125 40.341L36.6251 40.2889C36.8468 40.7632 37.2146 41.1836 37.5011 41.6222C37.8796 42.2015 38.137 42.8642 38.3652 43.515C38.9819 45.2733 39.079 47.0608 38.9698 48.9031C38.9467 49.2909 38.9592 49.8157 38.7774 50.1668C38.7333 50.252 38.6875 50.3003 38.5941 50.3314C38.4054 50.198 38.5364 49.4402 38.5538 49.2116C38.7319 46.8652 38.4898 44.1989 37.259 42.1333C36.3643 40.6317 35.0585 38.862 33.5245 37.9809C33.3048 37.8547 33.0488 37.7142 32.8 37.659C32.7023 37.6373 32.6451 37.6418 32.5601 37.6933C32.5562 37.9224 32.8543 38.1368 32.964 38.3347C33.0347 38.4621 33.0814 38.6102 33.1138 38.752C33.2295 39.258 33.1852 39.8133 33.1389 40.3265C32.9631 42.2802 32.3653 44.1329 31.323 45.7955C30.7704 46.6223 30.1276 47.3546 29.3336 47.9587C29.5713 47.6796 29.8154 47.3995 30.023 47.097C30.2291 46.7968 30.3961 46.4709 30.5855 46.1604C30.7399 45.9073 30.9151 45.6663 31.0809 45.4206C32.1451 43.8433 32.5868 42.0112 32.7303 40.1357C32.7721 39.5902 32.8166 39.0234 32.7073 38.4833C32.6171 38.0373 32.3102 37.2234 31.9062 36.9763C31.4956 36.7251 30.4353 36.9875 29.9833 37.0957C26.5763 37.9119 23.3608 39.7685 21.4937 42.8131C21.3061 42.6265 21.1417 42.4061 20.9718 42.2027C21.4076 41.6341 21.904 41.1087 22.4162 40.609C24.4018 38.6719 26.4869 37.6651 29.0957 36.8248C30.0176 36.5278 31.2296 36.2431 31.9701 35.6179C32.6094 35.0782 32.882 34.2671 33.2126 33.5275C33.4493 32.9981 33.6881 32.4669 33.9477 31.9481C34.2061 31.4317 34.5291 30.9442 34.861 30.4723C36.2852 28.4477 38.5552 26.7968 40.5001 25.2881Z" fill="#1C1C1C"/>
<path d="M50.6829 37.7176C50.9833 37.6609 51.3409 37.6862 51.6427 37.7216C51.6828 37.7262 51.7228 37.7313 51.7628 37.7369C51.8027 37.7425 51.8426 37.7486 51.8824 37.7552C51.9222 37.7618 51.9619 37.7689 52.0016 37.7765C52.0412 37.784 52.0808 37.7921 52.1202 37.8007C52.1596 37.8093 52.1989 37.8183 52.2381 37.8279C52.2773 37.8374 52.3164 37.8475 52.3553 37.858C52.3943 37.8685 52.4331 37.8795 52.4718 37.891C52.5105 37.9025 52.549 37.9145 52.5874 37.9269C52.6258 37.9393 52.664 37.9523 52.7021 37.9657C52.7402 37.9791 52.7781 37.9929 52.8157 38.0073C52.8535 38.0216 52.891 38.0364 52.9283 38.0517C52.9657 38.067 53.0029 38.0827 53.0398 38.0989C53.0768 38.1151 53.1135 38.1318 53.1501 38.1489C53.1866 38.166 53.2229 38.1836 53.259 38.2016C53.2951 38.2196 53.331 38.2381 53.3667 38.257C53.4023 38.2759 53.4377 38.2952 53.4729 38.3151C53.508 38.3348 53.543 38.355 53.5776 38.3757C53.6123 38.3964 53.6467 38.4175 53.6808 38.439C53.7149 38.4605 53.7488 38.4824 53.7824 38.5048C53.816 38.5272 53.8493 38.5499 53.8823 38.5731C53.9153 38.5963 53.9481 38.6199 53.9805 38.6439C54.013 38.6679 54.0451 38.6923 54.0769 38.7171C54.1087 38.7419 54.1402 38.7671 54.1714 38.7927C54.2026 38.8183 54.2335 38.8442 54.2641 38.8706C54.2946 38.897 54.3248 38.9237 54.3547 38.9508C54.3847 38.9779 54.4142 39.0054 54.4434 39.0333C54.4726 39.0611 54.5015 39.0893 54.53 39.1178C54.5585 39.1464 54.5866 39.1753 54.6144 39.2046C54.6422 39.2338 54.6696 39.2634 54.6967 39.2934C54.7237 39.3233 54.7504 39.3536 54.7767 39.3842C54.803 39.4148 54.8289 39.4457 54.8544 39.477C54.8799 39.5083 54.905 39.5398 54.9298 39.5717C55.71 40.5785 56.0363 41.907 55.8636 43.1643C55.6863 44.4551 55.0151 45.4608 53.9908 46.2345C53.804 46.363 53.5842 46.3897 53.3646 46.4224C53.2766 46.2227 53.2882 45.9028 53.2583 45.6806C53.1608 44.9552 52.8314 44.2638 52.4166 43.6667C51.5785 42.46 50.3447 41.7402 48.9094 41.4877C49.8433 40.3335 50.1999 39.2599 50.1821 37.7851C50.3487 37.7607 50.516 37.74 50.6829 37.7176Z" fill="#1C1C1C"/>
<path d="M47.842 42.0357C48.1948 41.9859 48.6088 42.0267 48.9595 42.0866C49.034 42.0995 49.1081 42.1143 49.1817 42.131C49.2555 42.1475 49.3288 42.166 49.4016 42.1862C49.4744 42.2064 49.5466 42.2284 49.6184 42.2522C49.6901 42.276 49.7612 42.3015 49.8316 42.3288C49.9021 42.3561 49.9719 42.3851 50.0409 42.4159C50.11 42.4466 50.1782 42.479 50.2456 42.5132C50.313 42.5472 50.3796 42.583 50.4453 42.6204C50.5109 42.6578 50.5756 42.6968 50.6394 42.7373C50.7031 42.7779 50.7658 42.82 50.8275 42.8637C50.8892 42.9074 50.9497 42.9525 51.0092 42.9992C51.0686 43.0459 51.1269 43.094 51.1839 43.1435C51.241 43.1931 51.2968 43.244 51.3514 43.2963C51.4059 43.3486 51.4592 43.4022 51.5111 43.4571C51.563 43.512 51.6135 43.5682 51.6626 43.6256C51.7118 43.683 51.7595 43.7416 51.8057 43.8013C51.852 43.8611 51.8967 43.922 51.94 43.9839C52.5961 44.9264 52.9049 46.0933 52.6901 47.2306C52.4363 48.5739 51.7066 49.5717 50.5946 50.3336C50.3525 49.8853 50.0572 49.5081 49.7098 49.137C49.3897 48.8127 49.0412 48.5396 48.66 48.29C47.1209 47.282 45.882 47.2681 44.1415 47.6358C43.9999 46.5613 44.029 45.6364 44.4656 44.6292C44.5868 44.6355 44.7159 44.6477 44.8366 44.6343C45.231 44.5907 45.6011 44.2776 45.843 43.9779C46.0299 43.7463 46.2194 43.4466 46.1734 43.1365C46.1465 42.9549 46.0415 42.8722 45.9021 42.766C46.4879 42.2768 47.0893 42.1172 47.842 42.0357Z" fill="#1C1C1C"/>
<path d="M45.3478 45.0793C45.4442 45.0789 45.5392 45.0872 45.612 45.159C45.6735 45.2194 45.6947 45.301 45.6839 45.3844C45.6643 45.5351 45.5885 45.6039 45.4773 45.6956C45.3731 45.6852 45.2644 45.6675 45.1868 45.5894C45.1802 45.5828 45.1741 45.5758 45.1684 45.5684C45.1626 45.561 45.1573 45.5534 45.1524 45.5454C45.1476 45.5375 45.1432 45.5292 45.1394 45.5207C45.1354 45.5123 45.132 45.5036 45.1291 45.4948C45.1262 45.4859 45.1239 45.4769 45.122 45.4678C45.1202 45.4586 45.1189 45.4494 45.1181 45.4401C45.1173 45.4308 45.117 45.4215 45.1173 45.4122C45.1176 45.4029 45.1184 45.3936 45.1198 45.3844C45.1402 45.2384 45.2396 45.1633 45.3478 45.0793Z" fill="white"/>
<path d="M45.3423 46.2777C45.399 46.2719 45.4019 46.2705 45.4614 46.2693C45.5765 46.267 45.6953 46.3162 45.7685 46.4068C45.8293 46.4821 45.8397 46.5898 45.8196 46.6817C45.7833 46.8485 45.6766 46.9274 45.5417 47.0184C45.5076 47.0224 45.4808 47.0266 45.4474 47.0271C45.3488 47.0284 45.2311 46.983 45.1665 46.9078C45.1005 46.8309 45.0871 46.7253 45.1002 46.628C45.1228 46.4605 45.2161 46.3791 45.3423 46.2777Z" fill="white"/>
<path d="M46.3396 44.6357C46.3954 44.6309 46.4516 44.6255 46.5077 44.6264C46.6084 44.6279 46.7206 44.6813 46.7817 44.7635C46.8467 44.8509 46.8657 44.9473 46.8461 45.0532C46.8154 45.2179 46.7089 45.3108 46.5785 45.4031C46.5575 45.4048 46.5364 45.4069 46.5154 45.4083C46.3951 45.4164 46.2902 45.3829 46.203 45.2984C46.1246 45.2223 46.096 45.1132 46.105 45.0066C46.1196 44.8316 46.21 44.7426 46.3396 44.6357Z" fill="white"/>
<path d="M46.9819 43.3436C47.0512 43.3344 47.1449 43.3239 47.2136 43.3376C47.2973 43.3542 47.3726 43.4065 47.4213 43.4763C47.4834 43.5654 47.4878 43.679 47.4591 43.781C47.4131 43.9451 47.3072 44.0217 47.167 44.1054C47.1314 44.1086 47.0958 44.1117 47.06 44.1116C46.9596 44.1114 46.8553 44.0647 46.7902 43.9869C46.7215 43.9049 46.7085 43.7987 46.7252 43.6968C46.7534 43.5253 46.848 43.443 46.9819 43.3436Z" fill="white"/>
<path d="M26.5073 38.9601C27.4109 39.1946 28.2429 39.6335 28.9005 40.3026C28.9307 40.3337 28.9604 40.3652 28.9898 40.397C29.0191 40.4288 29.048 40.461 29.0766 40.4936C29.1051 40.5261 29.1333 40.559 29.1611 40.5923C29.1888 40.6255 29.2161 40.6591 29.2431 40.693C29.27 40.7269 29.2964 40.7611 29.3225 40.7957C29.3486 40.8303 29.3742 40.8652 29.3994 40.9003C29.4246 40.9355 29.4494 40.971 29.4738 41.0068C29.4981 41.0426 29.522 41.0787 29.5455 41.1151C29.5689 41.1515 29.5919 41.1882 29.6145 41.2251C29.637 41.2621 29.6591 41.2994 29.6808 41.3368C29.7024 41.3743 29.7235 41.4121 29.7442 41.4501C29.765 41.4882 29.7852 41.5264 29.805 41.565C29.8247 41.6035 29.844 41.6422 29.8628 41.6813C29.8816 41.7202 29.8999 41.7594 29.9177 41.7989C29.9356 41.8383 29.953 41.878 29.9698 41.9179C29.9867 41.9577 30.003 41.9978 30.0189 42.0381C30.0348 42.0784 30.0502 42.1189 30.0651 42.1595C30.08 42.2002 30.0943 42.241 30.1082 42.282C30.1221 42.323 30.1354 42.3642 30.1483 42.4056C30.1612 42.4469 30.1735 42.4884 30.1854 42.53C30.1972 42.5717 30.2086 42.6135 30.2194 42.6554C30.2302 42.6973 30.2405 42.7393 30.2503 42.7815C30.26 42.8237 30.2693 42.866 30.278 42.9084C30.2868 42.9508 30.295 42.9933 30.3027 43.0359C30.3104 43.0785 30.3175 43.1212 30.3242 43.164C30.3308 43.2068 30.3369 43.2497 30.3425 43.2926C30.3481 43.3355 30.3531 43.3785 30.3576 43.4216C30.3622 43.4646 30.3662 43.5077 30.3696 43.5509C30.3731 43.5941 30.3761 43.6372 30.3785 43.6805C30.3809 43.7237 30.3827 43.7669 30.3841 43.8102C30.3854 43.8535 30.3862 43.8968 30.3865 43.9401C30.3867 43.9834 30.3865 44.0267 30.3857 44.07C30.3551 45.7702 29.6457 46.8875 28.4636 48.0222C28.1019 47.57 27.7225 47.2031 27.2629 46.8515C26.2797 46.1394 25.1389 45.7814 23.9292 45.763C23.68 44.5688 23.1853 43.4579 22.2727 42.6245C23.463 41.0346 24.7358 39.8804 26.5073 38.9601Z" fill="#1C1C1C"/>
<path d="M22.5325 31.9179C23.6418 31.8305 24.8054 32.1809 25.7495 32.7484C25.7913 32.7741 25.8329 32.8002 25.874 32.8269C25.9152 32.8536 25.9561 32.8808 25.9967 32.9085C26.0372 32.9361 26.0774 32.9643 26.1172 32.993C26.1571 33.0217 26.1966 33.0508 26.2357 33.0805C26.2748 33.1101 26.3136 33.1402 26.352 33.1708C26.3904 33.2014 26.4284 33.2324 26.466 33.2639C26.5037 33.2954 26.5409 33.3274 26.5778 33.3598C26.6146 33.3922 26.6511 33.4251 26.6872 33.4584C26.7232 33.4917 26.7588 33.5255 26.7941 33.5596C26.8293 33.5938 26.8641 33.6284 26.8985 33.6635C26.9329 33.6985 26.9669 33.7339 27.0004 33.7698C27.0339 33.8057 27.067 33.8419 27.0996 33.8786C27.1322 33.9153 27.1644 33.9523 27.1961 33.9898C27.2279 34.0272 27.2592 34.0651 27.29 34.1033C27.3208 34.1415 27.3511 34.1801 27.3809 34.2191C27.4108 34.258 27.4402 34.2973 27.4691 34.337C27.498 34.3767 27.5264 34.4167 27.5543 34.4571C27.5822 34.4975 27.6097 34.5382 27.6366 34.5792C27.6636 34.6203 27.69 34.6616 27.7159 34.7033C27.7418 34.745 27.7672 34.787 27.7921 34.8293C27.817 34.8716 27.8414 34.9142 27.8652 34.9571C27.8891 35 27.9124 35.0432 27.9352 35.0867C27.958 35.1301 27.9803 35.1739 28.002 35.2179C28.0237 35.2619 28.0449 35.3062 28.0656 35.3507C28.0862 35.3953 28.1063 35.4401 28.1258 35.4851C28.1454 35.5301 28.1644 35.5753 28.1829 35.6208C28.2013 35.6664 28.2192 35.7121 28.2365 35.758C28.2538 35.8039 28.2706 35.8501 28.2868 35.8964C28.303 35.9427 28.3186 35.9892 28.3337 36.036C28.3488 36.0827 28.3633 36.1296 28.3772 36.1766C28.3911 36.2237 28.4044 36.271 28.4172 36.3184C28.43 36.3658 28.4422 36.4133 28.4538 36.461C27.9061 36.6303 27.3686 36.8274 26.8413 37.0523C26.314 37.2771 25.7997 37.5285 25.2983 37.8064C24.8319 38.0653 24.3648 38.4446 23.8682 38.6308C23.6726 38.7041 23.3763 38.6904 23.163 38.7159C22.2831 38.8264 21.4665 39.1929 20.7404 39.6896C20.5636 39.5015 20.3841 39.3161 20.202 39.1332C20.2031 39.0975 20.2034 39.0618 20.203 39.0261C20.1951 37.8049 19.6904 36.6313 18.8955 35.7117C18.6374 35.4132 18.3403 35.1516 18.0592 34.8754C18.3079 34.441 18.5494 34.0125 18.8831 33.6361C19.8415 32.5551 21.1062 32.0044 22.5325 31.9179Z" fill="#1C1C1C"/>
<path d="M45.2959 47.9955C45.6294 47.9425 46.0297 47.9585 46.3643 48.007C47.7335 48.2054 48.9383 49.018 49.7533 50.1146C49.7953 50.1701 49.836 50.2267 49.8752 50.2843C49.9144 50.3419 49.9522 50.4004 49.9885 50.4598C50.0248 50.5193 50.0595 50.5797 50.0928 50.6409C50.1261 50.7021 50.1578 50.7641 50.1879 50.8269C50.2181 50.8897 50.2466 50.9533 50.2736 51.0175C50.3005 51.0817 50.3259 51.1466 50.3496 51.2121C50.3733 51.2777 50.3953 51.3437 50.4156 51.4103C50.4361 51.4769 50.4548 51.544 50.4718 51.6116C50.4888 51.6792 50.5041 51.7471 50.5177 51.8154C50.5313 51.8837 50.5431 51.9524 50.5533 52.0213C50.5635 52.0902 50.5719 52.1593 50.5785 52.2287C50.5852 52.298 50.5902 52.3675 50.5933 52.4371C50.5965 52.5067 50.598 52.5764 50.5977 52.646C50.5974 52.7157 50.5953 52.7853 50.5915 52.8549C50.5877 52.9244 50.5822 52.9939 50.5749 53.0632C50.5676 53.1324 50.5586 53.2015 50.5478 53.2703C50.5361 53.3432 50.5225 53.4158 50.5072 53.4881C50.4919 53.5604 50.4748 53.6322 50.4559 53.7036C50.4371 53.7751 50.4165 53.846 50.3941 53.9164C50.3718 53.9868 50.3477 54.0567 50.322 54.1259C50.2962 54.1951 50.2688 54.2637 50.2397 54.3316C50.2106 54.3995 50.1798 54.4666 50.1473 54.533C50.1149 54.5994 50.0809 54.6649 50.0453 54.7296C50.0096 54.7944 49.9724 54.8582 49.9337 54.921C49.8949 54.9839 49.8546 55.0458 49.8128 55.1067C49.771 55.1677 49.7277 55.2275 49.683 55.2863C49.6383 55.3451 49.5921 55.4027 49.5446 55.4593C49.497 55.5158 49.4481 55.5711 49.3978 55.6252C49.3475 55.6793 49.296 55.7322 49.2431 55.7838C49.1902 55.8354 49.1361 55.8857 49.0808 55.9346C49.0254 55.9836 48.9689 56.0311 48.9112 56.0773C48.8536 56.1234 48.7948 56.1682 48.735 56.2114C47.7345 56.9367 46.5274 57.1639 45.3185 56.965C44.6997 56.8172 44.1882 56.5798 43.6635 56.2218C43.6955 56.1104 43.7259 55.9986 43.7549 55.8864C44.0947 54.5473 43.7958 53.1171 43.1442 51.9234C43.0275 51.7095 42.8683 51.5343 42.7451 51.3266C42.7587 51.3213 42.7715 51.3128 42.7859 51.3106C42.8031 51.308 42.8206 51.3125 42.8379 51.3124C42.9289 51.312 42.992 51.281 43.0537 51.2153C43.1374 51.1264 43.1814 50.9942 43.1702 50.8728C43.1619 50.7829 43.1201 50.6943 43.0459 50.6401C42.9868 50.5971 42.9207 50.5728 42.8474 50.59C42.679 50.6295 42.5671 50.8608 42.4893 50.9998C42.1984 50.6651 41.857 50.4232 41.4912 50.1763C41.7167 49.8125 41.9831 49.549 42.29 49.2555C42.3684 49.3748 42.4497 49.4826 42.5688 49.5646C42.8108 49.7312 43.1064 49.7792 43.3926 49.7257C43.7816 49.653 44.1638 49.4005 44.3856 49.0729C44.586 48.777 44.6013 48.5089 44.5327 48.1696C44.7826 48.0891 45.0366 48.0349 45.2959 47.9955Z" fill="#1C1C1C"/>
<path d="M44.5391 49.9825C44.6822 49.9711 44.8734 49.9691 44.9866 50.0745C45.0512 50.1345 45.0823 50.1938 45.0864 50.2823C45.0941 50.4497 44.954 50.5764 44.8413 50.6768C44.8071 50.6877 44.7728 50.6984 44.7378 50.7064C44.6373 50.7293 44.5311 50.7152 44.4488 50.648C44.3685 50.5826 44.3388 50.482 44.3409 50.3822C44.3447 50.206 44.4202 50.1043 44.5391 49.9825Z" fill="white"/>
<path d="M45.4751 48.6013C45.5369 48.5912 45.6001 48.5831 45.6627 48.5915C45.7614 48.6048 45.8635 48.6699 45.9146 48.7549C45.9673 48.8426 45.9694 48.9518 45.9385 49.0473C45.887 49.2064 45.7715 49.2693 45.6292 49.3389C45.4905 49.3428 45.3313 49.3367 45.2308 49.2247C45.176 49.1634 45.1612 49.0877 45.1732 49.008C45.2003 48.8286 45.3424 48.7088 45.4751 48.6013Z" fill="white"/>
<path d="M13.6704 34.2048C14.5332 34.0793 15.5332 34.2495 16.3387 34.5635C17.6543 35.0762 18.778 36.0943 19.3439 37.3969C19.482 37.7147 19.7613 38.5648 19.644 38.8864C19.5963 39.0171 19.4273 39.0404 19.3983 39.124C19.328 39.3268 19.5017 39.8143 19.4771 40.0591C19.4497 40.3322 19.3177 40.6021 19.2167 40.8559L19.1343 40.839C17.4994 40.5141 16.0702 40.8111 14.6808 41.7415C14.5071 41.8666 14.3473 42.0134 14.1854 42.1536C13.9653 41.8622 13.7428 41.587 13.4718 41.3411C12.1615 40.152 10.5659 39.7586 8.83757 39.8432C8.69668 38.5457 9.01475 37.2467 9.83763 36.2191C10.7926 35.0265 12.171 34.3779 13.6704 34.2048Z" fill="#1C1C1C"/>
<path d="M16.9176 39.0904C16.9761 39.088 17.0366 39.0848 17.0947 39.0925C17.2121 39.1081 17.3211 39.1827 17.389 39.2786C17.4503 39.3653 17.4748 39.47 17.4531 39.5748C17.4192 39.7386 17.3196 39.8132 17.1862 39.9009C17.1221 39.9116 17.0645 39.9215 16.999 39.913C16.9863 39.9114 16.9736 39.9092 16.9611 39.9064C16.9486 39.9036 16.9362 39.9002 16.9241 39.8962C16.9119 39.8922 16.8999 39.8876 16.8882 39.8825C16.8764 39.8773 16.865 39.8716 16.8538 39.8653C16.8426 39.8591 16.8317 39.8523 16.8212 39.845C16.8107 39.8376 16.8006 39.8298 16.7908 39.8215C16.781 39.8132 16.7717 39.8044 16.7628 39.7952C16.7539 39.786 16.7455 39.7763 16.7375 39.7663C16.6603 39.6704 16.6393 39.5444 16.6619 39.4253C16.6931 39.2605 16.7829 39.1793 16.9176 39.0904Z" fill="white"/>
<path d="M18.278 38.2275C18.3514 38.2264 18.4264 38.2243 18.4995 38.2315C18.6416 38.2455 18.7765 38.3325 18.8576 38.4484C18.9148 38.5302 18.9384 38.6271 18.9092 38.7253C18.8594 38.8924 18.7103 38.9646 18.5619 39.027C18.4352 39.0309 18.3081 39.0293 18.1916 38.9734C18.077 38.9184 17.966 38.802 17.9311 38.6779C17.9284 38.668 17.9262 38.658 17.9245 38.6479C17.9228 38.6378 17.9217 38.6277 17.921 38.6175C17.9203 38.6073 17.9201 38.597 17.9205 38.5868C17.9208 38.5766 17.9217 38.5664 17.923 38.5563C17.9244 38.5461 17.9262 38.5361 17.9286 38.5261C17.9309 38.5161 17.9338 38.5063 17.9371 38.4966C17.9404 38.487 17.9442 38.4775 17.9485 38.4682C17.9528 38.4589 17.9575 38.4498 17.9627 38.441C18.037 38.3132 18.1428 38.2687 18.278 38.2275Z" fill="white"/>
<path d="M44.987 33.5501C45.997 33.5139 47.1025 33.9434 47.8879 34.5635C47.9466 34.6091 48.0042 34.6562 48.0606 34.7046C48.117 34.7531 48.1722 34.8029 48.2262 34.8541C48.2801 34.9052 48.3328 34.9577 48.3841 35.0115C48.4355 35.0652 48.4855 35.1202 48.5342 35.1765C48.5828 35.2327 48.6301 35.29 48.6759 35.3486C48.7218 35.4072 48.7661 35.4668 48.809 35.5276C48.8519 35.5883 48.8932 35.6501 48.9331 35.7129C48.973 35.7757 49.0112 35.8394 49.0479 35.9041C49.0846 35.9687 49.1197 36.0343 49.1532 36.1006C49.1867 36.167 49.2185 36.2342 49.2486 36.3022C49.2788 36.3702 49.3073 36.4389 49.334 36.5082C49.3608 36.5776 49.3859 36.6476 49.4092 36.7182C49.4325 36.7888 49.4541 36.86 49.474 36.9316C49.4938 37.0033 49.5118 37.0754 49.5281 37.1479C49.5443 37.2205 49.5588 37.2934 49.5715 37.3667C49.5842 37.44 49.595 37.5135 49.6041 37.5873C49.7761 39.0943 49.1712 40.2682 48.2636 41.4136C47.0628 41.4813 46.302 41.726 45.287 42.377L44.8707 41.9918C43.4689 40.8058 42.0086 39.7667 40.2707 39.1275C39.9987 38.1694 39.9404 37.1086 40.3459 36.1783C40.8171 35.0974 41.7132 34.4585 42.7757 34.0423C42.8896 34.1863 42.9932 34.2437 43.1694 34.2978C43.5904 34.4271 44.1561 34.3815 44.5394 34.1608C44.8163 34.0014 44.9037 33.8442 44.987 33.5501Z" fill="#1C1C1C"/>
<path d="M43.4101 35.2226C43.4341 35.2224 43.4581 35.2226 43.4821 35.2233C43.6137 35.2276 43.7269 35.2659 43.8152 35.3685C43.8843 35.4488 43.9082 35.5531 43.8926 35.6567C43.8686 35.8154 43.7627 35.9079 43.6402 35.9982L43.6009 35.9991C43.4493 36.0013 43.3157 35.994 43.2102 35.8691C43.1512 35.7993 43.1319 35.7208 43.1362 35.6312C43.1452 35.4443 43.2719 35.3279 43.4101 35.2226Z" fill="white"/>
<path d="M45.3198 35.0273C45.3673 35.0312 45.4151 35.0367 45.4619 35.0461C45.5703 35.068 45.6688 35.1302 45.7262 35.2263C45.7781 35.3132 45.7894 35.4147 45.7618 35.5123C45.7172 35.6695 45.6124 35.7394 45.4753 35.8136C45.4095 35.8141 45.3423 35.8127 45.2786 35.7941C45.1761 35.7641 45.088 35.6747 45.0428 35.5799C44.9933 35.4761 44.9955 35.358 45.0406 35.253C45.0976 35.1204 45.1938 35.078 45.3198 35.0273Z" fill="white"/>
<path d="M42.1267 34.7012C42.1874 34.6986 42.2527 34.6952 42.3127 34.7056C42.3944 34.7197 42.4817 34.7762 42.5256 34.8458C42.5761 34.9255 42.5813 35.0182 42.5634 35.1085C42.5262 35.2964 42.4165 35.4004 42.2664 35.5079C42.2075 35.5134 42.13 35.525 42.0725 35.5127C42.0523 35.5084 42.0326 35.5021 42.0136 35.4938C41.9945 35.4856 41.9765 35.4756 41.9595 35.4639C41.9424 35.4521 41.9267 35.4387 41.9123 35.4238C41.8979 35.409 41.885 35.3928 41.8738 35.3754C41.8231 35.2958 41.8152 35.202 41.8304 35.1109C41.8653 34.9021 41.9586 34.8178 42.1267 34.7012Z" fill="white"/>
<path d="M45.8925 34.1299C45.9158 34.1336 45.9389 34.1379 45.9619 34.1427C46.1283 34.1781 46.2923 34.2701 46.3829 34.4187C46.4288 34.494 46.4477 34.5818 46.4193 34.6676C46.3754 34.8002 46.2661 34.8537 46.1497 34.9095C46.0758 34.9102 45.9903 34.9153 45.9196 34.8904C45.7889 34.8442 45.675 34.7541 45.6126 34.6284C45.5691 34.5409 45.5644 34.4369 45.6085 34.3485C45.6687 34.2277 45.7721 34.1746 45.8925 34.1299Z" fill="white"/>
<path d="M41.0776 5.68628C41.7781 5.99878 43.6251 7.8839 43.9807 8.57606C44.1307 8.8681 44.3074 9.7834 44.4737 9.94311C44.5057 9.97386 44.5498 9.95787 44.5909 9.95587C44.8396 9.82432 44.9662 9.47499 45.091 9.23342C45.4187 9.61156 45.6675 10.1014 45.8242 10.5749C45.9007 10.8063 45.9579 11.0551 46.071 11.2712C46.1293 11.3205 46.1819 11.3433 46.261 11.3379C46.4406 11.3258 46.5796 11.1071 46.6797 10.9785C48.0008 13.0677 48.5202 15.6395 48.2256 18.0816C48.1681 18.5589 48.1027 19.0659 47.9558 19.5238C47.8384 19.8899 47.5714 20.2253 47.4205 20.5849C46.9547 21.6945 46.6731 22.7962 46.4573 23.9775C46.2491 24.1606 46.0389 24.3399 45.8128 24.501C44.7047 25.291 43.2903 25.4766 41.9643 25.257C42.2829 24.5583 42.5742 23.8641 42.8415 23.1443C44.4296 22.5888 45.7152 21.7097 46.6486 20.2909L46.9498 19.7904C46.7026 20.0809 46.4823 20.3888 46.2199 20.6679C45.3043 21.6418 44.1997 22.1164 43.0012 22.633C43.1537 21.9267 43.2951 21.2241 43.3996 20.5085C43.4745 19.9955 43.5124 19.4727 43.6112 18.964C44.7946 18.2076 45.1286 18.056 46.0147 16.8768C46.1315 16.7215 46.3534 16.4934 46.4064 16.309C46.2651 16.3953 45.7919 16.9734 45.6118 17.1441C45.0013 17.7232 44.3495 18.1223 43.6153 18.52C43.6622 17.2624 43.6703 15.9786 43.551 14.7243C44.1473 14.0535 44.6009 13.3511 45.0025 12.5507C45.1 12.3564 45.212 12.1604 45.2764 11.9523L45.2535 11.9392C44.9241 12.7129 44.1471 13.5487 43.526 14.121C43.3201 11.97 42.859 9.85591 42.0502 7.8469C41.7628 7.13308 41.3329 6.45878 41.0919 5.73022L41.0776 5.68628Z" fill="#1C1C1C"/>
<path d="M24.0181 46.3223C25.0604 46.4365 26.0137 46.7121 26.8812 47.3168C26.9147 47.3399 26.9479 47.3633 26.9808 47.3872C27.0137 47.411 27.0463 47.4352 27.0786 47.4599C27.1108 47.4845 27.1428 47.5096 27.1745 47.5351C27.2061 47.5605 27.2375 47.5863 27.2685 47.6125C27.2995 47.6388 27.3302 47.6654 27.3605 47.6924C27.3909 47.7194 27.4209 47.7468 27.4506 47.7745C27.4803 47.8023 27.5096 47.8304 27.5386 47.8588C27.5676 47.8873 27.5962 47.9161 27.6245 47.9453C27.6527 47.9745 27.6806 48.004 27.7081 48.0339C27.7357 48.0638 27.7628 48.094 27.7896 48.1246C27.8164 48.1551 27.8428 48.186 27.8688 48.2173C27.8948 48.2484 27.9204 48.28 27.9456 48.3118C27.9708 48.3437 27.9956 48.3758 28.02 48.4083C28.0445 48.4408 28.0685 48.4735 28.0921 48.5066C28.1157 48.5397 28.1389 48.573 28.1616 48.6067C28.1844 48.6403 28.2068 48.6742 28.2287 48.7084C28.2506 48.7426 28.2722 48.7771 28.2933 48.8118C28.3143 48.8465 28.3349 48.8815 28.3551 48.9168C28.3753 48.952 28.3951 48.9875 28.4144 49.0232C28.4337 49.059 28.4526 49.095 28.471 49.1312C28.4894 49.1674 28.5074 49.2038 28.525 49.2404C28.5424 49.2771 28.5595 49.314 28.5761 49.351C28.5927 49.3881 28.6089 49.4254 28.6245 49.4629C28.6402 49.5004 28.6554 49.5381 28.6701 49.5759C28.6848 49.6138 28.6991 49.6518 28.7129 49.69C28.7267 49.7282 28.74 49.7666 28.7528 49.8052C28.7656 49.8437 28.778 49.8824 28.7899 49.9213C28.8017 49.9601 28.8131 49.9991 28.824 50.0382C28.8349 50.0774 28.8453 50.1167 28.8552 50.1561C28.8651 50.1955 28.8746 50.235 28.8835 50.2746C28.8924 50.3142 28.9009 50.3539 28.9088 50.3938C28.9168 50.4336 28.9242 50.4736 28.9312 50.5136C28.9389 50.5596 28.9461 50.6057 28.9527 50.6519C28.9594 50.6981 28.9654 50.7443 28.9708 50.7907C28.9763 50.837 28.9812 50.8834 28.9855 50.9298C28.9899 50.9763 28.9936 51.0228 28.9968 51.0694C28.9999 51.1159 29.0025 51.1625 29.0046 51.2091C29.0066 51.2557 29.008 51.3023 29.0089 51.349C29.0097 51.3956 29.01 51.4423 29.0098 51.489C29.0095 51.5356 29.0086 51.5822 29.0072 51.6289C29.0057 51.6755 29.0037 51.7221 29.0011 51.7687C28.9985 51.8153 28.9953 51.8618 28.9916 51.9084C28.9879 51.9548 28.9836 52.0013 28.9787 52.0477C28.9738 52.0941 28.9683 52.1404 28.9623 52.1867C28.9563 52.2329 28.9497 52.2791 28.9425 52.3252C28.9353 52.3713 28.9276 52.4173 28.9192 52.4632C28.9109 52.5092 28.9021 52.555 28.8926 52.6006C28.8831 52.6463 28.8731 52.6919 28.8626 52.7373C28.852 52.7828 28.8409 52.8281 28.8292 52.8732C28.8175 52.9184 28.8052 52.9634 28.7924 53.0083C28.7796 53.0532 28.7663 53.0979 28.7523 53.1424C28.7385 53.1869 28.724 53.2313 28.709 53.2755C28.694 53.3196 28.6784 53.3636 28.6624 53.4074C28.6463 53.4512 28.6296 53.4948 28.6125 53.5382C28.5953 53.5816 28.5776 53.6247 28.5594 53.6677C28.5411 53.7106 28.5223 53.7533 28.503 53.7958C28.4838 53.8383 28.4639 53.8805 28.4436 53.9225C28.4233 53.9645 28.4024 54.0062 28.381 54.0477C28.3597 54.0892 28.3378 54.1304 28.3154 54.1713C28.293 54.2122 28.2702 54.2529 28.2468 54.2933C28.2234 54.3337 28.1995 54.3737 28.1751 54.4135C28.1507 54.4533 28.1259 54.4928 28.1005 54.5319C28.0751 54.5711 28.0493 54.6099 28.023 54.6484C27.9967 54.687 27.9699 54.7252 27.9426 54.763C27.0275 56.0402 25.7432 56.7826 24.2049 57.0324C24.0381 57.0574 23.8705 57.0727 23.7021 57.0783C21.828 57.1532 20.6045 56.4718 19.2622 55.2433C19.4684 54.3754 19.5635 53.5478 19.4338 52.6584C19.5453 52.6348 19.656 52.6077 19.7659 52.5772C19.8758 52.5467 19.9846 52.5128 20.0924 52.4755C20.2001 52.4383 20.3066 52.3977 20.4119 52.3539C20.5172 52.31 20.6209 52.2629 20.7233 52.2126C20.8256 52.1623 20.9263 52.1088 21.0253 52.0523C21.1243 51.9957 21.2214 51.9361 21.3167 51.8735C21.412 51.8109 21.5053 51.7454 21.5966 51.677C21.6878 51.6086 21.7768 51.5375 21.8637 51.4636C21.9328 51.4051 22.0006 51.3451 22.0671 51.2835C22.1336 51.222 22.1986 51.159 22.2622 51.0946C22.3258 51.0301 22.3879 50.9642 22.4486 50.897C22.5092 50.8297 22.5683 50.7611 22.6259 50.6912C22.6834 50.6212 22.7393 50.55 22.7937 50.4776C22.848 50.4051 22.9007 50.3315 22.9517 50.2566C23.0027 50.1818 23.052 50.1058 23.0996 50.0288C23.1472 49.9517 23.193 49.8736 23.237 49.7945C23.2811 49.7153 23.3233 49.6352 23.3638 49.5542C23.4042 49.4732 23.4428 49.3913 23.4796 49.3085C23.5163 49.2257 23.5512 49.1421 23.5842 49.0578C23.6171 48.9734 23.6482 48.8884 23.6774 48.8026C23.7065 48.7169 23.7337 48.6305 23.7589 48.5436C23.7842 48.4566 23.8074 48.3691 23.8287 48.2811C23.85 48.193 23.8693 48.1045 23.8866 48.0156C23.9039 47.9267 23.9192 47.8375 23.9325 47.7479C23.9974 47.2802 23.9737 46.818 24.0153 46.3515L24.0181 46.3223Z" fill="#1C1C1C"/>
<path d="M39.4344 50.1245C39.7369 50.1661 40.0355 50.1974 40.3314 50.2772C41.3754 50.5588 42.1888 51.36 42.7088 52.2843C42.7483 52.3554 42.786 52.4275 42.8219 52.5005C42.8579 52.5734 42.8919 52.6473 42.9242 52.7219C42.9565 52.7966 42.987 52.872 43.0155 52.9482C43.0441 53.0243 43.0708 53.1011 43.0956 53.1786C43.1204 53.2561 43.1433 53.3341 43.1642 53.4127C43.1852 53.4913 43.2042 53.5704 43.2213 53.6499C43.2383 53.7295 43.2534 53.8094 43.2665 53.8896C43.2797 53.9699 43.2908 54.0505 43.3 54.1313C43.3091 54.2122 43.3163 54.2932 43.3214 54.3743C43.3266 54.4555 43.3298 54.5367 43.331 54.6181C43.3321 54.6994 43.3313 54.7807 43.3285 54.862C43.3257 54.9433 43.3209 55.0245 43.314 55.1056C43.3072 55.1866 43.2984 55.2675 43.2875 55.3481C43.2768 55.4287 43.264 55.509 43.2492 55.589C43.2344 55.669 43.2177 55.7486 43.199 55.8278C43.1804 55.907 43.1597 55.9856 43.1372 56.0638C42.7931 57.263 41.9317 58.2575 40.8431 58.8484C39.7079 59.4646 38.4487 59.5375 37.2211 59.1791C36.7315 58.9989 36.2577 58.7658 35.8357 58.4576C35.772 58.4113 35.7095 58.3634 35.6482 58.3139C35.5868 58.2644 35.5267 58.2135 35.4679 58.1611C35.4091 58.1088 35.3516 58.055 35.2954 57.9997C35.2391 57.9446 35.1843 57.8881 35.1309 57.8302C35.0775 57.7723 35.0255 57.7131 34.975 57.6527C34.9244 57.5923 34.8753 57.5306 34.8278 57.4678C34.7803 57.4049 34.7344 57.341 34.69 57.2759C34.6456 57.2108 34.6028 57.1447 34.5617 57.0775C34.5205 57.0103 34.481 56.9422 34.4432 56.873C34.4054 56.8039 34.3693 56.734 34.3349 56.6631C34.3006 56.5922 34.2679 56.5205 34.2371 56.448C34.2062 56.3756 34.1771 56.3024 34.1498 56.2284C34.1225 56.1546 34.0971 56.0801 34.0734 56.0049C34.0498 55.9298 34.028 55.8541 34.0081 55.7779C33.9882 55.7016 33.9701 55.625 33.954 55.5479C33.9378 55.4708 33.9235 55.3934 33.9111 55.3155C33.7306 54.1069 33.9902 52.8849 34.7218 51.8977C35.4874 50.8646 36.5495 50.3561 37.7994 50.1735C37.8326 50.2961 37.871 50.4292 37.9347 50.5391C38.0455 50.7301 38.2443 50.8822 38.4617 50.9262C38.6577 50.9659 38.8712 50.9284 39.038 50.8168C39.2916 50.6469 39.3801 50.4123 39.4344 50.1245Z" fill="#1C1C1C"/>
<path d="M40.0619 51.1342C40.2053 51.1581 40.3499 51.2044 40.4352 51.332C40.4826 51.4028 40.4976 51.4944 40.4774 51.5769C40.4419 51.722 40.3377 51.7793 40.218 51.8482C40.1743 51.8488 40.169 51.8502 40.1208 51.8442C40.0181 51.8314 39.9205 51.7757 39.8618 51.6902C39.8003 51.6007 39.7919 51.5059 39.8155 51.4018C39.8472 51.2614 39.9459 51.2 40.0619 51.1342Z" fill="white"/>
<path d="M38.6951 51.8206C38.7414 51.8179 38.7875 51.8148 38.834 51.8168C38.9445 51.8217 39.074 51.8711 39.1404 51.9644C39.1963 52.0429 39.2109 52.1076 39.1955 52.2026C39.1728 52.3426 39.0658 52.4159 38.9586 52.4909C38.918 52.4933 38.8732 52.4976 38.8323 52.4939C38.7163 52.4831 38.608 52.439 38.5359 52.3432C38.53 52.3354 38.5244 52.3273 38.5192 52.3189C38.514 52.3105 38.5093 52.3019 38.505 52.293C38.5007 52.2842 38.4968 52.2751 38.4935 52.2658C38.4901 52.2566 38.4872 52.2472 38.4847 52.2376C38.4823 52.2281 38.4804 52.2184 38.4789 52.2086C38.4775 52.1989 38.4765 52.1892 38.476 52.1793C38.4756 52.1695 38.4756 52.1596 38.4761 52.1498C38.4767 52.14 38.4777 52.1302 38.4792 52.1204C38.5005 51.9796 38.5872 51.9018 38.6951 51.8206Z" fill="white"/>
<path d="M37.2942 51.2099C37.3058 51.2122 37.3174 51.2144 37.3289 51.2168C37.4784 51.2485 37.6165 51.2997 37.6926 51.4438C37.7426 51.5384 37.7496 51.6376 37.7174 51.7389C37.666 51.9009 37.5449 51.9651 37.4013 52.0368C37.3357 52.0287 37.2675 52.0197 37.2049 51.9977C37.0987 51.9605 37.0111 51.8716 36.9629 51.7714C36.9574 51.7597 36.9525 51.7479 36.9483 51.7357C36.9441 51.7236 36.9405 51.7112 36.9376 51.6987C36.9347 51.6862 36.9325 51.6735 36.931 51.6607C36.9294 51.648 36.9285 51.6351 36.9284 51.6223C36.9282 51.6094 36.9287 51.5966 36.93 51.5838C36.9312 51.571 36.9331 51.5583 36.9357 51.5457C36.9383 51.5331 36.9415 51.5207 36.9455 51.5084C36.9494 51.4962 36.954 51.4842 36.9592 51.4724C37.0258 51.3192 37.1455 51.2647 37.2942 51.2099Z" fill="white"/>
<path d="M9.13817 40.3936C9.53984 40.3805 9.95614 40.4168 10.3523 40.4813C11.7451 40.7084 12.9191 41.4213 13.7438 42.5617C12.4134 43.9775 12.0289 45.4222 12.0557 47.3161C11.9359 47.3426 11.8192 47.3738 11.7033 47.4145C11.6519 47.4325 11.6007 47.451 11.5497 47.4702C11.4987 47.4894 11.4479 47.5092 11.3974 47.5297C11.3469 47.5501 11.2967 47.5712 11.2467 47.5929C11.1967 47.6146 11.147 47.6369 11.0975 47.6598C11.0481 47.6828 10.9989 47.7063 10.9501 47.7304C10.9012 47.7545 10.8527 47.7793 10.8044 47.8046C10.7562 47.8299 10.7082 47.8558 10.6606 47.8823C10.613 47.9088 10.5657 47.9359 10.5188 47.9636C10.4719 47.9913 10.4253 48.0195 10.379 48.0483C10.3328 48.0771 10.2869 48.1065 10.2413 48.1364C10.1958 48.1664 10.1507 48.1969 10.1059 48.228C10.0612 48.259 10.0168 48.2906 9.97277 48.3228C9.92877 48.355 9.88518 48.3877 9.84199 48.4209C9.79881 48.4541 9.75604 48.4878 9.71367 48.5221C9.6713 48.5564 9.62936 48.5912 9.58786 48.6265C9.54635 48.6619 9.50529 48.6977 9.46469 48.734C9.42408 48.7703 9.38393 48.8071 9.34422 48.8445C9.30452 48.8818 9.26527 48.9196 9.22647 48.9578C9.18771 48.9961 9.1494 49.0349 9.11155 49.0741C9.07374 49.1133 9.0364 49.153 8.99953 49.1932C8.9627 49.2333 8.92637 49.2739 8.89054 49.3149C8.85466 49.3559 8.81932 49.3974 8.78451 49.4394C8.74966 49.4813 8.71535 49.5236 8.68158 49.5663C8.64781 49.6091 8.61457 49.6523 8.58187 49.6958C8.54913 49.7394 8.51695 49.7834 8.48532 49.8278C8.4537 49.8721 8.42261 49.9169 8.39206 49.962C8.36151 50.0071 8.33154 50.0526 8.30215 50.0985C8.27271 50.1444 8.24386 50.1906 8.21559 50.2372C8.18731 50.2838 8.15962 50.3307 8.1325 50.378C8.10539 50.4253 8.07886 50.4728 8.05291 50.5208C8.027 50.5687 8.00164 50.6169 7.97685 50.6655C7.9521 50.714 7.92795 50.7628 7.90441 50.812C7.89177 50.8407 7.86548 50.868 7.84627 50.8928C7.63241 50.9076 7.4007 50.8315 7.19864 50.7681C6.45144 50.5333 5.80679 50.2104 5.21183 49.6934C4.14345 48.765 3.5172 47.5247 3.42852 46.1069C3.42622 46.0644 3.42446 46.0219 3.42322 45.9793C3.42198 45.9367 3.42126 45.8942 3.42107 45.8516C3.42088 45.8091 3.42122 45.7665 3.42208 45.7239C3.42294 45.6813 3.42433 45.6388 3.42625 45.5962C3.42816 45.5537 3.4306 45.5112 3.43356 45.4687C3.43653 45.4262 3.44002 45.3838 3.44403 45.3414C3.44804 45.299 3.45258 45.2567 3.45764 45.2144C3.4627 45.1721 3.46828 45.1299 3.47438 45.0878C3.48048 45.0457 3.4871 45.0036 3.49425 44.9616C3.50139 44.9196 3.50905 44.8778 3.51722 44.836C3.5254 44.7942 3.53409 44.7525 3.54329 44.711C3.5525 44.6694 3.56222 44.6279 3.57245 44.5866C3.58268 44.5452 3.59342 44.504 3.60467 44.4629C3.61592 44.4219 3.62767 44.381 3.63993 44.3402C3.65219 44.2994 3.66495 44.2588 3.67821 44.2183C3.69147 44.1779 3.70523 44.1376 3.7195 44.0975C3.73375 44.0574 3.7485 44.0174 3.76375 43.9777C3.77899 43.9379 3.79473 43.8984 3.81095 43.859C3.82718 43.8196 3.84388 43.7804 3.86107 43.7415C3.87827 43.7025 3.89593 43.6638 3.91408 43.6253C3.93223 43.5868 3.95085 43.5485 3.96995 43.5104C3.98904 43.4724 4.0086 43.4345 4.02863 43.397C4.04866 43.3594 4.06915 43.3221 4.0901 43.285C4.11105 43.2479 4.13245 43.2111 4.15432 43.1746C4.17617 43.1381 4.19848 43.1018 4.22124 43.0658C4.24399 43.0298 4.26719 42.9941 4.29083 42.9587C4.31447 42.9233 4.33854 42.8882 4.36305 42.8534C4.38755 42.8185 4.41249 42.784 4.43785 42.7498C4.46321 42.7156 4.48898 42.6817 4.51518 42.6481C4.54137 42.6146 4.56798 42.5813 4.595 42.5484C4.62202 42.5155 4.64944 42.4829 4.67726 42.4507C4.70509 42.4185 4.7333 42.3866 4.76191 42.3551C5.90439 41.0728 7.45078 40.4868 9.13817 40.3936Z" fill="#1C1C1C"/>
<path d="M10.1208 43.2462C10.287 43.2618 10.4203 43.3008 10.5313 43.4343C10.5398 43.4445 10.5477 43.455 10.555 43.466C10.5624 43.4771 10.5691 43.4885 10.5753 43.5002C10.5814 43.512 10.5868 43.524 10.5917 43.5364C10.5964 43.5487 10.6005 43.5613 10.604 43.5741C10.6074 43.5869 10.6101 43.5998 10.6121 43.6129C10.6141 43.626 10.6154 43.6391 10.616 43.6524C10.6165 43.6656 10.6164 43.6788 10.6155 43.692C10.6146 43.7052 10.6131 43.7184 10.6107 43.7314C10.5823 43.8951 10.4747 43.971 10.3438 44.0571C10.2935 44.0588 10.2433 44.057 10.1933 44.0517C10.0713 44.0379 9.96839 43.9734 9.89749 43.8731C9.83452 43.784 9.81622 43.674 9.83961 43.5681C9.87642 43.4016 9.98238 43.3301 10.1208 43.2462Z" fill="white"/>
<path d="M11.6411 43.5053C11.7078 43.5124 11.7795 43.5209 11.843 43.543C11.9418 43.5776 12.031 43.67 12.0775 43.7619C12.0835 43.774 12.0888 43.7864 12.0936 43.7991C12.0983 43.8117 12.1024 43.8246 12.1059 43.8377C12.1093 43.8507 12.1121 43.8639 12.1142 43.8773C12.1163 43.8906 12.1177 43.904 12.1184 43.9175C12.1192 43.931 12.1192 43.9445 12.1186 43.958C12.118 43.9715 12.1167 43.9849 12.1146 43.9983C12.1127 44.0116 12.11 44.0249 12.1067 44.038C12.1033 44.0511 12.0993 44.064 12.0947 44.0767C12.0456 44.2148 11.954 44.2698 11.8275 44.3311C11.7469 44.3288 11.6609 44.3292 11.5839 44.3018C11.4691 44.2609 11.3671 44.1527 11.3221 44.0408C11.3175 44.0291 11.3135 44.0173 11.3101 44.0052C11.3067 43.9931 11.3039 43.9809 11.3017 43.9686C11.2996 43.9562 11.298 43.9438 11.2971 43.9312C11.2962 43.9187 11.2959 43.9062 11.2963 43.8937C11.2966 43.8811 11.2976 43.8686 11.2992 43.8562C11.3009 43.8437 11.3031 43.8314 11.306 43.8192C11.3089 43.807 11.3123 43.7949 11.3164 43.7831C11.3205 43.7712 11.3252 43.7596 11.3304 43.7482C11.3939 43.6073 11.5049 43.5607 11.6411 43.5053Z" fill="white"/>
<path d="M10.3156 41.7291C10.3696 41.7277 10.4234 41.7286 10.477 41.7365C10.6013 41.755 10.7212 41.8287 10.7926 41.9329C10.8534 42.0216 10.8708 42.1298 10.8488 42.2343C10.8128 42.405 10.7057 42.4798 10.5656 42.5687C10.523 42.57 10.4816 42.5695 10.4392 42.5632C10.301 42.5423 10.1703 42.4747 10.09 42.3572C10.0826 42.3463 10.0757 42.335 10.0693 42.3233C10.0631 42.3117 10.0574 42.2997 10.0523 42.2875C10.0472 42.2753 10.0428 42.2629 10.039 42.2502C10.0352 42.2375 10.0321 42.2246 10.0296 42.2116C10.0271 42.1986 10.0253 42.1855 10.0242 42.1723C10.0231 42.1591 10.0227 42.1459 10.0229 42.1327C10.0231 42.1194 10.0241 42.1063 10.0257 42.0931C10.0273 42.08 10.0296 42.0669 10.0325 42.054C10.0692 41.8877 10.1788 41.8147 10.3156 41.7291Z" fill="white"/>
<path d="M12.3759 42.2835C12.4221 42.2886 12.4671 42.2947 12.5117 42.3081C12.6387 42.3463 12.7543 42.4313 12.8115 42.5536C12.817 42.5656 12.822 42.578 12.8263 42.5905C12.8307 42.603 12.8344 42.6158 12.8374 42.6287C12.8405 42.6417 12.8429 42.6547 12.8447 42.6679C12.8465 42.6811 12.8476 42.6943 12.848 42.7076C12.8485 42.7209 12.8483 42.7341 12.8474 42.7474C12.8465 42.7607 12.845 42.7738 12.8428 42.787C12.8406 42.8001 12.8378 42.813 12.8343 42.8259C12.8307 42.8387 12.8266 42.8513 12.8219 42.8637C12.7636 43.0207 12.6445 43.0872 12.5014 43.1574C12.441 43.1565 12.3812 43.1572 12.3226 43.1407C12.2042 43.1072 12.1038 43.029 12.0493 42.9179C11.9955 42.8083 11.9973 42.6807 12.0438 42.5688C12.1108 42.4077 12.2213 42.3476 12.3759 42.2835Z" fill="white"/>
<path d="M41.1062 6.92105C41.2714 7.07638 41.3826 7.50571 41.4722 7.72826C41.5785 7.99132 41.68 8.25622 41.7765 8.52297C41.8732 8.78972 41.9649 9.05817 42.0517 9.32831C42.1385 9.59841 42.2203 9.87002 42.2971 10.1431C42.374 10.4162 42.4459 10.6907 42.5127 10.9664C42.5795 11.2421 42.6413 11.519 42.698 11.797C42.7547 12.075 42.8063 12.3539 42.8529 12.6338C42.8993 12.9136 42.9407 13.1943 42.977 13.4757C43.0132 13.7571 43.0443 14.039 43.0703 14.3216C42.2194 13.9598 41.3907 13.3405 40.8551 12.5822C40.6837 12.3396 40.5648 12.0551 40.3808 11.825C40.4429 12.0283 40.5517 12.2195 40.6476 12.409C41.2173 13.5349 42.0665 14.2603 43.1339 14.8916C43.199 16.1939 43.2492 17.4872 43.1448 18.7892C42.0255 18.4756 40.1138 16.8398 39.3946 15.9472C39.2287 15.7412 39.0642 15.5265 38.9228 15.3029C38.8026 15.1129 38.7041 14.882 38.5471 14.7208C39.1513 16.1624 40.3142 17.6141 41.6317 18.4522C42.0904 18.7439 42.5976 18.9489 43.0837 19.1899C43.107 19.9554 42.9767 20.7594 42.8551 21.5145C42.8115 21.7852 42.6797 22.7067 42.4978 22.8386C42.1048 22.905 41.5625 22.5172 41.2525 22.3063C39.9763 21.3922 38.8378 19.9045 38.2092 18.4598L38.1797 18.4703L38.1892 18.4321L38.1744 18.4234L38.1554 18.4445C38.3337 18.9568 38.5919 19.4601 38.851 19.936C39.6819 21.4623 40.6757 22.7244 42.3986 23.2312C42.1627 23.8934 41.908 24.536 41.609 25.1722C39.8161 24.4243 39.0328 23.6034 38.1157 21.8794C37.0879 19.9474 36.3022 16.9846 36.9575 14.8487C37.1654 14.9731 37.3405 15.1573 37.5946 15.1662C37.6934 15.1201 37.7359 15.0839 37.7421 14.9668C37.7528 14.7676 37.6492 14.497 37.6173 14.2935C37.4992 13.5389 37.5763 12.5912 37.9461 11.912C38.0015 11.9728 38.057 12.035 38.1162 12.0923C38.2394 12.2116 38.3512 12.3084 38.5299 12.3071C38.6229 12.2692 38.6646 12.2395 38.6983 12.1414C38.7737 11.9224 38.7781 11.6641 38.8107 11.4353C38.9144 10.7106 39.1433 10.1558 39.6003 9.58503C39.7059 9.64819 39.8292 9.73669 39.9469 9.77342C40.0234 9.79734 40.0815 9.79392 40.1468 9.74513C40.3882 9.5646 40.9645 7.80593 41.0432 7.47116C41.0866 7.28682 41.1008 7.10996 41.1062 6.92105Z" fill="#1C1C1C"/>
<path d="M46.3671 24.7834C46.4144 25.9788 46.346 27.0876 46.7115 28.2513C45.9464 28.8015 45.0037 29.2343 44.1986 29.8078C42.2665 31.1838 40.1399 33.7202 39.2612 35.9362C38.925 36.784 38.7506 37.688 38.4541 38.5506C37.3395 38.3415 36.3501 38.1399 35.3797 37.5162C35.1593 37.3591 34.9327 37.2041 34.7332 37.0207C34.2613 36.5869 34.0874 36.0457 34.0619 35.4196C34.0316 34.6768 34.2117 33.9355 34.4649 33.2421C35.4051 30.6669 37.4443 28.8288 39.5544 27.1981C39.8882 26.9398 40.2294 26.6916 40.5779 26.4534C40.8767 26.2469 41.2608 26.0327 41.503 25.7627C41.5091 25.7559 41.5149 25.7489 41.5208 25.742C41.6234 25.7672 41.7267 25.7888 41.8308 25.8068C42.2224 25.8708 42.6308 25.8832 43.027 25.8815C44.3296 25.8758 45.3214 25.5497 46.3671 24.7834Z" fill="#1C1C1C"/>
<path d="M12.0931 47.8891C12.1773 47.9341 12.2424 48.2691 12.2722 48.3681C12.6256 49.5415 13.2635 50.4763 14.1857 51.2755C15.5048 52.4185 17.1212 52.8788 18.8452 52.7526C19.0502 53.9318 18.7992 55.1538 18.2335 56.1987C17.423 57.6961 16.0855 58.6678 14.4705 59.1434C13.2729 59.4474 11.9537 59.3905 10.8252 58.8648C10.7859 58.8466 10.7468 58.8279 10.708 58.8086C10.6691 58.7894 10.6305 58.7698 10.5921 58.7496C10.5538 58.7295 10.5157 58.7089 10.4778 58.6878C10.4399 58.6667 10.4024 58.6451 10.365 58.6231C10.3277 58.6011 10.2906 58.5786 10.2539 58.5557C10.2171 58.5327 10.1806 58.5093 10.1445 58.4855C10.1082 58.4617 10.0723 58.4374 10.0368 58.4126C10.0012 58.3879 9.9659 58.3628 9.93092 58.3372C9.89594 58.3116 9.86129 58.2855 9.82696 58.2591C9.79262 58.2327 9.75864 58.2058 9.72499 58.1785C9.69135 58.1512 9.65802 58.1235 9.62502 58.0953C9.59207 58.0672 9.55945 58.0387 9.52718 58.0098C9.49492 57.9809 9.46299 57.9516 9.43141 57.9218C9.39987 57.8921 9.36869 57.862 9.33789 57.8315C9.30712 57.8011 9.2767 57.7702 9.24662 57.739C9.21659 57.7077 9.18694 57.6761 9.15767 57.6441C9.12841 57.6121 9.09956 57.5798 9.07111 57.5472C9.04267 57.5145 9.01463 57.4814 8.987 57.448C8.95933 57.4147 8.93209 57.381 8.90528 57.3469C8.87846 57.3129 8.85208 57.2785 8.82613 57.2438C8.80017 57.2091 8.77465 57.1741 8.74956 57.1387C8.72446 57.1034 8.69982 57.0678 8.67563 57.0319C8.6514 56.9959 8.62763 56.9597 8.60435 56.9231C8.58101 56.8866 8.55813 56.8498 8.5357 56.8127C8.51332 56.7756 8.49138 56.7382 8.4699 56.7006C8.44841 56.6629 8.4274 56.625 8.40686 56.5869C8.38632 56.5487 8.36626 56.5103 8.34666 56.4717C8.32707 56.433 8.30795 56.3941 8.2893 56.355C8.27065 56.3159 8.2525 56.2765 8.23484 56.237C8.21718 56.1974 8.20001 56.1576 8.18334 56.1176C8.16667 56.0776 8.15049 56.0374 8.1348 55.997C8.11912 55.9566 8.10393 55.916 8.08924 55.8753C7.56143 54.3895 7.69014 52.5664 8.36497 51.1479C9.13363 49.5321 10.4323 48.4845 12.0931 47.8891Z" fill="#1C1C1C"/>
<path d="M59.8205 14.0231C59.8561 14.03 59.8354 14.0216 59.8694 14.0686C59.859 14.2309 59.845 14.4613 59.9674 14.5914C60.3047 14.9496 62.5095 14.6056 63.074 14.5781C63.4665 14.5589 63.8484 14.5808 64.2388 14.6146C63.5385 14.9896 62.8284 15.3571 62.1653 15.7962C60.9634 16.5924 59.8436 17.5104 58.6467 18.3152C58.7129 17.8629 58.7781 17.3985 58.9289 16.966C58.9803 16.8184 59.1658 16.476 59.1511 16.3322C58.8537 16.8121 58.5944 17.3119 58.3734 17.8315C58.2482 18.1342 58.168 18.4836 58.0061 18.7677C57.6981 19.3078 55.7794 20.7627 55.1848 21.2531C54.8608 20.5535 54.8691 19.692 55.0204 18.949C55.0684 18.7129 55.1507 18.4825 55.2036 18.2466L55.1564 18.2919C55.0996 18.543 54.9723 18.7931 54.8965 19.0427C54.7221 19.6173 54.552 20.2937 54.6508 20.8974C54.69 21.1362 54.767 21.3695 54.8152 21.6073C54.5231 21.9594 54.1315 22.2713 53.7897 22.5748C52.9924 23.2765 52.1826 23.9634 51.3602 24.6353C50.99 23.7454 50.9589 22.9189 51.0765 21.971C51.1234 21.7259 51.2157 21.4301 51.2099 21.1828C50.8138 22.2752 50.6431 23.8616 50.9413 24.986C50.3292 25.5939 49.6776 26.1706 49.037 26.7483C48.4649 27.2642 47.8988 27.7971 47.2791 28.2558C46.5849 26.3141 46.9001 23.6729 47.5674 21.7442C48.721 18.4097 50.7559 16.7128 53.8526 15.2106C53.843 15.4276 53.7959 15.7326 53.8538 15.9399C53.8664 15.985 53.8863 16.0477 53.9309 16.0685C54.041 16.1199 54.1675 16.0818 54.266 16.0238C54.59 15.8333 54.8523 15.5117 55.1459 15.2758C55.7162 14.8174 56.3441 14.4802 57.0061 14.1776C57.0129 14.3433 56.9996 14.5238 57.0301 14.6864C57.0567 14.8284 57.1262 14.919 57.2467 14.9927C57.6494 14.8588 58.0018 14.6493 58.39 14.4842C58.8509 14.2882 59.3388 14.1571 59.8205 14.0231Z" fill="#1C1C1C"/>
<path d="M17.6967 41.2631C17.7531 41.2598 17.8096 41.2574 17.8661 41.2561C17.9227 41.2548 17.9792 41.2546 18.0357 41.2553C18.0923 41.2562 18.1488 41.258 18.2053 41.2609C18.2617 41.2638 18.3181 41.2678 18.3744 41.2728C18.4308 41.2777 18.487 41.2838 18.5431 41.2908C18.5992 41.2978 18.6551 41.3059 18.711 41.3151C18.7667 41.3242 18.8223 41.3344 18.8778 41.3456C18.9332 41.3568 18.9884 41.369 19.0434 41.3823C19.0984 41.3955 19.1531 41.4097 19.2075 41.425C19.2619 41.4403 19.3161 41.4566 19.3699 41.4738C19.4238 41.4911 19.4773 41.5094 19.5304 41.5286C19.5836 41.5479 19.6364 41.5681 19.6888 41.5893C19.7413 41.6105 19.7933 41.6327 19.8448 41.6559C19.8964 41.679 19.9476 41.7031 19.9983 41.7281C20.049 41.7531 20.0992 41.7791 20.149 41.806C20.1987 41.8329 20.2479 41.8607 20.2966 41.8894C20.4431 42.517 20.8555 43.139 21.4098 43.4834C21.572 43.5841 21.7426 43.662 21.9345 43.6181C22.0512 43.5244 22.043 43.4286 22.065 43.287C22.0821 43.2945 22.1002 43.2999 22.1162 43.3096C22.2131 43.3681 22.3287 43.5588 22.3953 43.6504C22.9043 44.3512 23.2713 45.1546 23.3788 46.0188C23.5627 47.4969 23.2147 49.006 22.2888 50.1873C21.3847 51.3407 20.1595 52.0219 18.71 52.2037C17.1041 52.2788 15.7019 51.8423 14.4747 50.7818C14.4421 50.754 14.4099 50.7258 14.3781 50.6973C14.3462 50.6687 14.3147 50.6397 14.2835 50.6104C14.2524 50.5811 14.2216 50.5513 14.1912 50.5212C14.1608 50.4911 14.1307 50.4607 14.101 50.4298C14.0713 50.3989 14.042 50.3678 14.0131 50.3362C13.9842 50.3047 13.9557 50.2728 13.9276 50.2405C13.8994 50.2082 13.8717 50.1756 13.8444 50.1427C13.817 50.1098 13.7901 50.0765 13.7636 50.0429C13.7371 50.0093 13.711 49.9754 13.6853 49.9412C13.6596 49.9069 13.6343 49.8724 13.6095 49.8375C13.5847 49.8026 13.5603 49.7675 13.5363 49.732C13.5124 49.6966 13.4888 49.6609 13.4657 49.6248C13.4426 49.5888 13.42 49.5525 13.3978 49.5159C13.3756 49.4793 13.3538 49.4424 13.3325 49.4053C13.3112 49.3682 13.2903 49.3308 13.27 49.2932C13.2496 49.2556 13.2297 49.2177 13.2102 49.1795C13.1907 49.1414 13.1717 49.1031 13.1532 49.0645C13.1347 49.0259 13.1167 48.9871 13.0992 48.9481C13.0816 48.9091 13.0645 48.8698 13.0479 48.8303C13.0313 48.7909 13.0152 48.7512 12.9996 48.7114C12.9839 48.6716 12.9688 48.6316 12.9541 48.5913C12.9395 48.5511 12.9253 48.5107 12.9117 48.4702C12.898 48.4296 12.8849 48.3889 12.8722 48.348C12.8596 48.3071 12.8474 48.2661 12.8358 48.2249C12.8241 48.1837 12.813 48.1424 12.8023 48.1009C12.7917 48.0595 12.7816 48.0179 12.772 47.9762C12.7624 47.9345 12.7533 47.8926 12.7447 47.8507C12.7361 47.8088 12.728 47.7668 12.7204 47.7246C12.7129 47.6825 12.7058 47.6403 12.6994 47.598C12.6928 47.5557 12.6868 47.5133 12.6813 47.4709C12.6758 47.4284 12.6709 47.3859 12.6664 47.3434C12.662 47.3008 12.6581 47.2582 12.6547 47.2155C12.5474 45.6879 13.0101 44.2688 14.018 43.1111C14.0468 43.0779 14.0761 43.0451 14.1057 43.0125C14.1354 42.9801 14.1654 42.9479 14.1958 42.9162C14.2263 42.8844 14.2571 42.853 14.2883 42.822C14.3195 42.791 14.3511 42.7603 14.383 42.7301C14.4149 42.6998 14.4472 42.67 14.4799 42.6405C14.5126 42.611 14.5456 42.582 14.579 42.5533C14.6124 42.5247 14.6461 42.4965 14.6802 42.4686C14.7143 42.4408 14.7487 42.4134 14.7834 42.3864C14.8181 42.3594 14.8532 42.3328 14.8886 42.3066C14.9239 42.2805 14.9596 42.2548 14.9957 42.2296C15.0317 42.2043 15.068 42.1795 15.1046 42.155C15.1412 42.1307 15.1781 42.1068 15.2153 42.0832C15.2525 42.0598 15.29 42.0368 15.3277 42.0142C15.3655 41.9916 15.4036 41.9695 15.4419 41.9479C15.4802 41.9262 15.5187 41.9051 15.5575 41.8843C15.5964 41.8636 15.6354 41.8434 15.6748 41.8237C15.714 41.8039 15.7536 41.7847 15.7934 41.7659C15.8331 41.7471 15.8732 41.7288 15.9134 41.711C15.9536 41.6932 15.9941 41.6759 16.0347 41.659C16.0754 41.6422 16.1162 41.6259 16.1573 41.6101C16.1983 41.5942 16.2395 41.5789 16.2809 41.5641C16.3224 41.5493 16.364 41.535 16.4057 41.5212C16.4475 41.5074 16.4894 41.4941 16.5315 41.4813C16.5736 41.4685 16.6159 41.4562 16.6583 41.4445C16.7007 41.4327 16.7432 41.4215 16.7859 41.4108C16.8285 41.4001 16.8713 41.3899 16.9143 41.3802C16.9571 41.3705 17.0002 41.3614 17.0433 41.3527C17.0864 41.3441 17.1297 41.3361 17.173 41.3285C17.2164 41.3209 17.2598 41.3139 17.3033 41.3074C17.3468 41.3009 17.3904 41.2949 17.4341 41.2894C17.4777 41.284 17.5214 41.2791 17.5652 41.2747C17.609 41.2703 17.6528 41.2665 17.6967 41.2631Z" fill="#1C1C1C"/>
<path d="M22.3941 44.6665C22.4382 44.6731 22.4825 44.6799 22.5259 44.6902C22.6433 44.7182 22.7398 44.7982 22.8005 44.9019C22.856 44.9966 22.8674 45.1086 22.8375 45.2138C22.7939 45.3675 22.6867 45.434 22.5527 45.5049C22.5438 45.5037 22.5349 45.5026 22.526 45.5011C22.5113 45.4986 22.4968 45.4955 22.4821 45.4929C22.4341 45.4841 22.3838 45.4763 22.3387 45.4567C22.2357 45.4119 22.1481 45.3119 22.1055 45.2094C22.0643 45.1102 22.0638 45.005 22.1099 44.9075C22.17 44.78 22.2674 44.7168 22.3941 44.6665Z" fill="white"/>
<path d="M20.858 44.8248C20.9103 44.8318 20.962 44.8417 21.0131 44.8546C21.1227 44.883 21.2099 44.9548 21.2633 45.0546C21.2699 45.0668 21.2759 45.0793 21.2813 45.0921C21.2867 45.1049 21.2914 45.1179 21.2954 45.1312C21.2995 45.1445 21.3028 45.1579 21.3055 45.1715C21.3082 45.1851 21.3102 45.1989 21.3114 45.2127C21.3127 45.2265 21.3133 45.2403 21.3131 45.2542C21.313 45.2681 21.3122 45.2819 21.3107 45.2957C21.3091 45.3095 21.3069 45.3232 21.304 45.3368C21.3011 45.3504 21.2975 45.3637 21.2932 45.3769C21.245 45.53 21.1492 45.6045 21.011 45.6744C20.9514 45.6728 20.8901 45.6728 20.8314 45.66C20.7155 45.6345 20.6152 45.5548 20.5588 45.4509C20.5054 45.3523 20.4991 45.2422 20.5325 45.1359C20.5861 44.9658 20.7055 44.8976 20.858 44.8248Z" fill="white"/>
<path d="M19.5709 42.1826C19.6322 42.1937 19.6887 42.2073 19.7471 42.2296C19.7604 42.2346 19.7734 42.2402 19.7861 42.2465C19.7987 42.2528 19.8111 42.2598 19.8231 42.2673C19.8351 42.2748 19.8466 42.283 19.8578 42.2917C19.869 42.3004 19.8797 42.3097 19.8898 42.3195C19.9001 42.3293 19.9098 42.3396 19.919 42.3504C19.9281 42.3612 19.9367 42.3724 19.9448 42.3841C19.9529 42.3958 19.9603 42.4078 19.9671 42.4202C19.9739 42.4326 19.9801 42.4454 19.9856 42.4584C20.0284 42.5601 20.0291 42.6709 19.9856 42.7723C19.9224 42.9197 19.8089 42.9906 19.6661 43.049C19.6032 43.043 19.5406 43.0368 19.4799 43.018C19.3777 42.9863 19.2848 42.9102 19.2365 42.8142C19.1825 42.7072 19.1859 42.5843 19.2323 42.4751C19.2996 42.3167 19.4203 42.2494 19.5709 42.1826Z" fill="white"/>
<path d="M19.7904 43.5413C19.8638 43.5373 19.9465 43.5285 20.0185 43.5453C20.1301 43.5712 20.2302 43.6616 20.2848 43.7599C20.3466 43.8712 20.3533 44.0018 20.3129 44.1214C20.2584 44.283 20.1599 44.3485 20.0127 44.4214C19.9758 44.4253 19.9803 44.4258 19.936 44.4248C19.81 44.4219 19.6882 44.3783 19.6038 44.2816C19.522 44.1879 19.4968 44.0624 19.5143 43.9413C19.5425 43.7467 19.6375 43.6526 19.7904 43.5413Z" fill="white"/>
<path d="M63.8318 15.4413C63.8126 15.6588 63.2851 16.2706 63.1445 16.5096C63.0069 16.7417 62.8929 16.9848 62.8025 17.239C62.6806 17.5817 62.495 18.4315 62.6993 18.7526C62.7883 18.8924 63.0887 18.9307 63.2399 18.9689C62.966 19.4229 62.4141 20.3959 62.2802 20.8872C62.2534 20.9855 62.2489 21.0695 62.3155 21.1538C62.4328 21.3026 62.685 21.2741 62.8536 21.2735C62.8497 21.2787 62.8459 21.2839 62.842 21.2891C62.5213 21.7064 62.279 22.2185 62.0023 22.6703C61.9087 22.8232 61.7706 23.0305 61.8139 23.2128C62.031 23.3617 62.3827 23.2869 62.638 23.2783C62.2764 23.8685 61.8687 24.5174 61.3604 24.9912C61.1704 25.1684 60.7927 25.3901 60.6509 25.554C60.596 25.6175 60.5762 25.6826 60.5906 25.7662C60.6236 25.9585 61.1524 26.2432 61.3204 26.3598C60.8651 26.8052 60.2185 27.2363 59.6406 27.498C59.373 27.6192 59.041 27.7047 58.7988 27.8683C58.7288 27.9155 58.679 27.9772 58.6799 28.0662C58.6819 28.254 58.857 28.3806 58.9864 28.4906C58.4853 28.8255 57.905 29.1382 57.3313 29.3267C57.0415 29.4219 56.6714 29.4762 56.4074 29.6252C56.3265 29.6709 56.3196 29.701 56.2977 29.7885C56.3426 29.9808 56.5069 30.0845 56.6536 30.1996C56.329 30.2982 56.0006 30.3822 55.6685 30.4515C55.3364 30.5209 55.0018 30.5753 54.6649 30.6149C52.7754 30.824 50.4652 30.3262 48.7937 29.4151C48.3387 29.1671 47.9367 28.8623 47.5345 28.5386C47.8874 28.2374 48.239 27.9355 48.6031 27.6478L48.6362 27.6789C50.1327 29.0717 52.2462 29.258 54.1897 29.1832C53.8294 29.1169 53.4586 29.0975 53.0959 29.0366C51.6311 28.791 50.1031 28.3498 48.9816 27.3378C49.3673 26.9522 49.7919 26.5951 50.1965 26.2285C50.5569 25.8939 50.9117 25.5499 51.2961 25.2427C51.8115 25.5176 52.3196 25.7955 52.8821 25.9641C54.2404 26.3712 55.7602 26.3399 57.16 26.1825C57.3363 26.1626 57.5065 26.1171 57.6811 26.0956C57.868 26.0727 58.0463 26.0821 58.2313 26.037L58.2129 26.0376L58.2711 26.0183C57.6885 26.0581 57.1057 26.0945 56.5227 26.1274C54.9604 26.2029 52.8582 25.9936 51.661 24.9019C52.1592 24.374 52.7489 23.9013 53.2906 23.4162C53.8648 22.902 54.4315 22.3304 55.0604 21.8852C55.5875 22.205 55.9993 22.4692 56.6122 22.6038C58.2045 22.9537 59.6119 22.4702 60.9458 21.6102L60.932 21.5928C60.7072 21.6593 60.5033 21.8255 60.2912 21.9287C59.6672 22.2322 58.9174 22.4156 58.2285 22.4567C57.274 22.5135 56.1776 22.2876 55.45 21.6292L55.4171 21.5989C55.9153 21.0399 56.54 20.5528 57.1087 20.0662C57.5181 19.7159 57.9135 19.3462 58.3348 19.0106C59.492 19.0499 60.1199 18.926 61.1685 18.4158C60.3953 18.6397 59.6751 18.7259 58.8709 18.656C59.2639 18.313 59.7306 18.03 60.158 17.7294C61.3082 16.9204 62.5351 15.9933 63.8318 15.4413Z" fill="#1C1C1C"/>
<path d="M1.36865 14.9372C1.80445 15.0556 2.2256 15.3396 2.65847 15.4961C3.85048 15.9273 5.05979 16.3309 6.22481 16.8317C7.53841 17.3963 8.78815 18.0643 10.0623 18.7075C9.14722 18.906 8.19486 18.8851 7.28537 19.0758C7.27183 19.0786 7.25836 19.0817 7.24489 19.0848L7.27041 19.0468L7.24109 19.0805L7.32017 19.082L7.32533 19.0549L7.3658 19.0936C8.46428 19.0545 9.54296 19.1713 10.6399 19.0327C11.1092 19.2817 11.5601 19.5725 12.0109 19.8537C12.8069 20.3539 13.5859 20.8793 14.3479 21.4299C15.11 21.9804 15.8534 22.5549 16.5784 23.1534C14.5124 22.8337 12.4588 22.9243 10.4094 23.3369C10.1363 23.3919 9.67464 23.4401 9.43836 23.5744C10.0188 23.4933 10.5936 23.3828 11.1761 23.3155C12.4157 23.1724 13.722 23.1705 14.96 23.3287C15.3909 23.384 15.8182 23.4599 16.2418 23.5563C16.5745 23.6297 16.9274 23.7425 17.2681 23.7569C17.6525 24.0645 18.0101 24.4048 18.3716 24.7388C19.0376 25.3402 19.6845 25.9926 20.2725 26.6705C20.7777 27.253 21.26 27.8954 21.8184 28.427C20.9018 28.8907 19.7381 29.1275 18.7316 29.3032C15.6115 29.848 12.4185 29.3673 9.79685 27.5262C9.88869 27.4514 10.0588 27.3314 10.0806 27.2117C10.1237 26.9761 9.72608 26.8844 9.5605 26.8209C8.22477 26.3082 6.99326 25.6828 6.11823 24.5033C6.38943 24.5406 6.97045 24.6832 7.21157 24.5566C7.29162 24.5145 7.29671 24.4926 7.3252 24.4128C7.30683 24.3444 7.3174 24.3439 7.25688 24.2962C7.01679 24.1073 6.67822 23.9998 6.41787 23.8259C5.43911 23.1725 4.73101 22.2591 4.22004 21.2096C4.33853 21.1824 4.45873 21.159 4.57639 21.1289C4.68928 21.1 4.73813 21.0651 4.79742 20.9612C4.81768 20.7038 4.49933 20.5787 4.31218 20.4369C3.61125 19.9057 3.13654 19.1777 2.7322 18.4099C2.87494 18.2845 3.13558 18.1044 3.1624 17.9055C3.22686 17.4276 1.74105 15.4428 1.36865 14.9372Z" fill="#1C1C1C"/>
<path d="M11.7516 10.626C12.5559 10.7544 13.4807 11.1256 14.1833 11.5311C14.4192 11.6672 14.6471 11.8254 14.8488 12.0089C14.9843 12.1322 15.1192 12.2858 15.2681 12.3902C15.329 12.433 15.3806 12.4478 15.4541 12.4473C15.5017 12.4212 15.5306 12.4185 15.5533 12.3655C15.6976 12.0294 15.2122 11.1632 15.0701 10.8497C16.2011 11.2348 17.6085 12.2611 18.2045 13.3133C18.3163 13.5106 18.446 14.022 18.6052 14.1365C18.6689 14.1823 18.7226 14.1863 18.7966 14.1738C18.976 14.0012 19 13.5912 19.0459 13.3481C20.5649 14.5099 21.9252 16.1855 22.5426 18.0026C22.6978 18.4595 22.8043 19.6097 23.0706 19.8977C23.1498 19.9279 23.1819 19.9476 23.2644 19.9041C23.3621 19.8525 23.4018 19.7207 23.441 19.6257C23.519 19.9351 23.582 20.2475 23.6298 20.563C23.6776 20.8785 23.7101 21.1955 23.7273 21.5141C23.837 23.3159 23.4744 25.0467 22.8581 26.7307C22.6953 27.1754 22.5429 27.6605 22.2238 28.0209C21.961 27.7614 20.4486 25.991 20.3329 25.7458C19.8915 24.8099 19.9104 22.8225 19.8458 21.7721C19.7929 20.9167 19.729 20.0621 19.6542 19.2084L19.5733 19.1562L19.6464 19.1628L19.574 19.1539L19.578 19.1363L19.6415 19.1303L19.6094 19.0628C19.6357 19.3128 19.6266 19.5817 19.6343 19.8338C19.6574 20.7648 19.6484 21.6955 19.6072 22.6258C19.5721 23.4954 19.5151 24.3602 19.6718 25.2218C18.1512 23.7248 16.4395 22.3457 14.7642 21.0287C14.949 19.691 14.5875 18.2067 14.1525 16.944C14.1005 16.8006 14.0442 16.6589 13.9836 16.519C13.9231 16.379 13.8583 16.241 13.7893 16.105C13.7203 15.969 13.6473 15.8352 13.5702 15.7036C13.4931 15.572 13.4121 15.4429 13.3271 15.3163C13.2422 15.1896 13.1534 15.0656 13.0609 14.9444C12.9685 14.8231 12.8724 14.7048 12.7727 14.5894C12.673 14.4739 12.5699 14.3616 12.4634 14.2525C12.3569 14.1433 12.2471 14.0375 12.1342 13.935C11.9059 13.7292 11.648 13.5638 11.4181 13.3639C11.4112 13.3579 11.4045 13.3515 11.3977 13.3453L11.3771 13.3615L11.3518 13.3502C11.4638 13.4808 11.6212 13.5841 11.7501 13.6997C11.9412 13.8727 12.1219 14.0562 12.292 14.2499C12.6067 14.6039 12.899 14.9738 13.1371 15.3841C14.0235 16.9115 14.5028 19.024 14.3999 20.7878C13.1975 19.933 11.9396 19.1966 10.6822 18.4279C10.3279 16.643 9.42216 15.1822 7.88521 14.1701C7.71925 14.0608 7.11538 13.6414 6.94078 13.6777C6.98809 13.7125 6.97443 13.7062 7.01619 13.7268C7.07065 13.7538 7.12544 13.7797 7.17913 13.8083C7.46066 13.9582 7.7246 14.1651 7.97532 14.3616C9.28481 15.3879 9.86012 16.6955 10.3202 18.2471C8.79089 17.4187 7.2208 16.6765 5.60993 16.0205C4.15336 15.4349 2.77677 14.9993 1.35828 14.2965C2.65664 14.1107 3.75493 13.4873 4.93551 12.9722C5.27744 12.8231 5.67053 12.7226 5.99143 12.5368C6.0303 12.5143 6.04261 12.4593 6.04808 12.4165C6.07146 12.2332 5.9187 12.0067 5.82309 11.8582C6.56354 11.6315 7.59453 11.573 8.35443 11.7561C8.51892 11.7958 8.68159 11.8453 8.85201 11.8325C8.91453 11.7891 8.95333 11.7664 8.97415 11.6865C9.02507 11.4911 8.78659 11.2069 8.68501 11.0551C9.3532 11.0355 10.0389 11.1108 10.6994 11.2111C11.0494 11.2642 11.748 11.5755 12.0481 11.4737C12.0843 11.436 12.1248 11.4111 12.1338 11.3572C12.1742 11.116 11.887 10.8037 11.7516 10.626Z" fill="#1C1C1C"/>
</g>
<defs>
<clipPath id="clip0_107_4637">
<rect width="66" height="66" rx="10" fill="white"/>
</clipPath>
</defs>
</svg>
