<svg width="32" height="32" viewBox="0 0 32 32" fill="none" xmlns="http://www.w3.org/2000/svg">
<rect width="32" height="32" rx="12" fill="#1C1C1C"/>
<path d="M15.6885 2.22463C15.7011 2.2243 15.7138 2.22413 15.7265 2.22412C15.7855 2.22426 15.8148 2.22874 15.8577 2.27189C15.9384 2.45997 15.8954 2.85339 15.893 3.06075C16.0084 3.0952 16.1039 3.14761 16.1934 3.22858C16.4737 3.48212 16.6763 3.95057 16.7693 4.30985C16.8007 4.43096 16.7997 4.56253 16.8407 4.68067C16.8747 4.77884 16.9665 4.86558 17.0151 4.96117C17.1848 5.29526 17.253 5.62088 17.2746 5.99173C17.4911 6.25582 17.5977 6.53122 17.7023 6.85159C17.7096 6.82871 17.7174 6.80605 17.7258 6.78362C18.0394 5.94836 18.88 5.60031 19.6804 5.37553C20.0158 5.28134 20.3608 5.20752 20.6782 5.05988C21.0426 4.89041 21.3011 4.63019 21.3112 4.21059C21.3137 4.10775 21.298 3.97546 21.3383 3.87897C21.3555 3.83781 21.385 3.80406 21.4294 3.79188C21.4755 3.77926 21.5146 3.79543 21.5518 3.82104C21.7515 3.95836 22.016 4.36313 22.0997 4.59095C22.152 4.73315 22.1764 4.89316 22.2081 5.04138C22.247 4.92066 22.2434 4.60436 22.308 4.53466C22.3405 4.49968 22.3922 4.48204 22.4392 4.48837C22.4744 4.49312 22.5051 4.51048 22.5247 4.54025C22.5929 4.64397 22.5172 4.93642 22.4951 5.04639C22.5976 5.0936 22.7002 5.14373 22.794 5.20689C23.1347 5.43657 23.3467 5.80092 23.4238 6.20042C23.567 6.94251 23.4073 7.87915 23.0636 8.5437C22.9474 8.7684 22.7947 8.97207 22.653 9.18101C22.922 9.26237 23.1894 9.34994 23.4592 9.4284C23.6643 9.48801 23.8826 9.52746 24.0766 9.61878C24.2546 9.70263 24.3582 9.85734 24.5174 9.96184C24.736 10.1053 24.9851 10.2087 25.2093 10.3451C25.6378 10.6057 26.0377 10.9606 26.1712 11.4621C26.1865 11.5196 26.2019 11.5801 26.2082 11.6394C26.2148 11.7005 26.1988 11.7722 26.2193 11.8298C26.2712 11.9761 26.3539 12.1199 26.4153 12.2632C26.5162 12.5053 26.5988 12.7534 26.6632 13.0077C26.7159 13.216 26.7585 13.4305 26.7815 13.644C26.8051 13.864 26.8127 14.0912 26.8497 14.3091C26.8796 14.4856 26.9483 14.6597 26.9907 14.8342C27.127 15.3961 27.1468 16.1591 26.8324 16.6694C26.6824 16.9128 26.483 17.0317 26.2104 17.0986L26.2077 20.5694C26.4229 20.6725 26.6433 20.7645 26.8577 20.8695C27.4396 21.1543 28.0253 21.5034 28.5053 21.942C29.0613 22.45 29.5021 23.0958 29.5334 23.8715C29.5704 24.789 29.4055 25.3612 28.7685 26.0502C27.3802 27.5516 24.6153 28.3723 22.655 28.7659C22.2577 28.8422 21.8591 28.911 21.4593 28.9723C21.0594 29.0337 20.6585 29.0876 20.2567 29.134C19.8548 29.1804 19.4522 29.2193 19.0489 29.2506C18.6456 29.282 18.2418 29.3059 17.8376 29.3222C17.1688 29.3675 16.4928 29.367 15.8226 29.3646C15.52 29.3664 15.2175 29.364 14.915 29.3574C14.6125 29.3508 14.3101 29.34 14.0079 29.325C13.7057 29.31 13.4038 29.2908 13.1021 29.2674C12.8005 29.2439 12.4992 29.2163 12.1983 29.1845C11.8974 29.1526 11.597 29.1166 11.2971 29.0764C10.9972 29.0362 10.6979 28.9919 10.3993 28.9433C10.1006 28.8948 9.8027 28.8421 9.50553 28.7853C9.20834 28.7284 8.912 28.6675 8.61651 28.6024C7.75249 28.4033 6.88192 28.161 6.05952 27.8262C4.78384 27.3067 3.21233 26.4603 2.65346 25.1176C2.48566 24.7144 2.49833 24.4102 2.5208 23.9848C2.53893 23.6418 2.55775 23.3423 2.69081 23.0202C3.2081 21.7684 4.6329 21.0223 5.81386 20.5273C5.78243 19.052 5.80065 17.5724 5.80134 16.0967C5.76607 16.1127 5.73047 16.1285 5.69343 16.14C5.51279 16.1957 5.29883 16.1738 5.13363 16.0825C4.91343 15.9609 4.77135 15.719 4.70555 15.4826C4.60787 15.1315 4.62838 14.7172 4.71918 14.367C4.81294 14.0055 4.98929 13.6859 5.18222 13.3697C5.28528 13.2007 5.39451 13.0332 5.46979 12.8494C5.61041 12.5061 5.72551 12.1264 5.82317 11.7682C5.88985 11.5237 5.9124 11.3034 6.0413 11.078C6.44429 10.3736 7.29032 10.0335 7.99873 9.72884C8.11094 9.6806 8.20384 9.59478 8.31899 9.55444C8.44721 9.50955 8.59723 9.49769 8.73055 9.46956C8.95361 9.42253 9.17496 9.3644 9.39507 9.30519C9.44996 8.98717 9.50997 8.66691 9.6414 8.37011C9.88005 7.83122 10.2118 7.55327 10.7514 7.34313C10.7529 7.22628 10.6835 7.01992 10.7448 6.92031C10.7644 6.88855 10.8012 6.87061 10.8367 6.86316C10.8715 6.85586 10.9102 6.85852 10.9386 6.88222C11.0201 6.95031 11.0016 7.13332 11.0202 7.23046C11.0436 7.35241 11.1991 7.45954 11.2947 7.52715C11.3072 7.40182 11.3259 7.27506 11.3574 7.15303C11.4426 6.82217 11.7774 6.21835 12.0812 6.05037C12.1217 6.028 12.1703 6.01327 12.2155 6.03106C12.2589 6.04811 12.3037 6.09901 12.3165 6.1435C12.3383 6.21898 12.2732 6.29497 12.2473 6.36246C12.2058 6.47089 12.2627 6.62538 12.311 6.72521C12.5934 7.30824 13.178 7.53156 13.7536 7.72646C13.7756 7.57261 13.7814 7.41755 13.8072 7.26361C13.8564 6.97044 14.0029 6.3987 14.235 6.2015C14.2436 5.70155 14.3795 5.25774 14.6007 4.81376C14.6553 4.7041 14.7477 4.60456 14.7898 4.49032C14.8194 4.41014 14.8155 4.30524 14.8273 4.22004C14.8392 4.13421 14.8671 4.05152 14.8964 3.97026C15.029 3.60269 15.2491 3.2383 15.6135 3.06804C15.6164 2.84033 15.5972 2.59701 15.619 2.37145C15.6255 2.30334 15.6358 2.26897 15.6885 2.22463Z" fill="#1C1C1C"/>
<path d="M17.9147 8.2757C17.9165 8.27744 17.9185 8.27902 17.9201 8.28097C17.9574 8.3274 18.0334 8.42225 18.0252 8.48246L17.9926 8.49372C17.9505 8.50016 17.9073 8.51409 17.8686 8.49146C17.8503 8.43038 17.8949 8.33783 17.9147 8.2757Z" fill="white"/>
<path d="M13.9749 11.3137C14.0333 11.3822 14.0812 11.4909 14.1123 11.5753C13.9684 11.725 13.8298 11.8458 13.6449 11.9415C13.6074 11.9542 13.5671 11.9769 13.5283 11.9682C13.7566 11.7875 13.8699 11.581 13.9749 11.3137Z" fill="white"/>
<path d="M18.2517 8.72559C18.3067 8.72877 18.3719 8.81112 18.4101 8.84922C18.3306 8.92158 18.1947 9.08922 18.0945 9.11594L18.0598 9.0877L17.8135 8.82908C17.9606 8.79899 18.1066 8.76449 18.2517 8.72559Z" fill="white"/>
<path d="M17.6147 7.61816C17.6276 7.63217 17.6299 7.63303 17.6394 7.653C17.6583 7.69327 17.661 7.7577 17.6654 7.80282C17.6941 8.09781 17.6035 8.36149 17.471 8.62014C17.2792 8.53586 17.0973 8.46768 16.8914 8.42308C16.8063 8.41122 16.7214 8.3953 16.6367 8.38097C16.996 8.15292 17.311 7.91605 17.6147 7.61816Z" fill="white"/>
<path d="M15.7851 3.32452C15.8139 3.32965 15.843 3.33484 15.871 3.34321C15.9617 3.37028 16.0688 3.46571 16.1077 3.55118C16.1101 3.55656 16.1122 3.56205 16.1141 3.56764C16.116 3.57323 16.1176 3.5789 16.1189 3.58464C16.1203 3.59039 16.1213 3.59618 16.1221 3.60203C16.1228 3.60788 16.1233 3.61375 16.1235 3.61964C16.1237 3.62554 16.1236 3.63142 16.1233 3.63731C16.1229 3.64319 16.1222 3.64905 16.1213 3.65487C16.1204 3.66069 16.1191 3.66645 16.1176 3.67216C16.1161 3.67786 16.1144 3.68348 16.1123 3.68901C16.0309 3.90733 15.5579 4.15129 15.3591 4.24919C15.2702 4.2903 15.1863 4.32201 15.0905 4.34223C15.1195 4.14882 15.1943 3.96027 15.2867 3.7887C15.4023 3.57419 15.5427 3.39584 15.7851 3.32452Z" fill="white"/>
<path d="M20.8493 12.5789C21.0366 12.6333 21.2289 12.6913 21.3678 12.8361C21.4176 12.8882 21.4695 12.9574 21.4641 13.0336C21.4592 13.1044 21.4058 13.1619 21.3535 13.2045C21.1154 13.3985 20.7867 13.4208 20.4941 13.3918C20.4536 13.3855 20.4134 13.3781 20.3734 13.3697C20.1497 13.3235 19.9587 13.2468 19.8287 13.0483C20.1926 12.9195 20.5142 12.7706 20.8493 12.5789Z" fill="white"/>
<path d="M8.75947 9.76154C8.98107 9.76451 9.21072 9.78096 9.40451 9.89955C9.42963 10.1074 9.46132 10.3144 9.48727 10.5221C9.29294 10.6132 9.1035 10.6465 8.88969 10.6373C8.67768 10.6246 8.44184 10.5751 8.27277 10.4384C8.19663 10.3768 8.13622 10.296 8.129 10.1956C8.12318 10.1147 8.15383 10.0373 8.20643 9.97664C8.34118 9.82115 8.5639 9.77325 8.75947 9.76154Z" fill="white"/>
<path d="M11.2502 12.579C11.5 12.5505 11.8629 12.5688 12.0834 12.6976C12.178 12.7528 12.2719 12.8379 12.2962 12.9494C12.3085 13.0062 12.2951 13.0639 12.2629 13.1117C12.1541 13.2728 11.9245 13.3409 11.7434 13.3742C11.4777 13.4099 11.1891 13.3993 10.9435 13.2814C10.8363 13.23 10.7117 13.1481 10.6751 13.0282C10.659 12.9754 10.6661 12.9202 10.694 12.8726C10.7938 12.7027 11.0703 12.6213 11.2502 12.579Z" fill="white"/>
<path d="M16.2665 13.0648C16.2684 13.0646 16.2703 13.0642 16.2722 13.0643C16.4149 13.0656 16.6762 13.2211 16.7679 13.3253C16.8126 13.3761 16.8442 13.4384 16.835 13.5079C16.8217 13.6069 16.7409 13.6923 16.6634 13.7485C16.4077 13.9339 16.0642 13.9399 15.7646 13.8983C15.6609 13.8738 15.5576 13.8441 15.4619 13.7968C15.3563 13.7446 15.2293 13.6547 15.1935 13.5364C15.1765 13.4802 15.1844 13.4246 15.2119 13.3732C15.2438 13.314 15.2956 13.2675 15.3507 13.2303C15.5727 13.0799 15.776 13.1469 16.0204 13.1232C16.1046 13.115 16.1858 13.0889 16.2665 13.0648Z" fill="white"/>
<path d="M23.2989 9.80224C23.56 9.77337 23.8403 9.80746 24.067 9.9482C24.1589 10.0053 24.2551 10.0911 24.2774 10.2021C24.2921 10.2752 24.2722 10.3461 24.2281 10.4052C24.1158 10.5557 23.867 10.6093 23.692 10.64C23.4095 10.67 23.0804 10.6465 22.8351 10.4876C22.7543 10.4352 22.6777 10.3583 22.6607 10.2597C22.649 10.1919 22.6671 10.1277 22.7084 10.0732C22.8345 9.9068 23.1027 9.83513 23.2989 9.80224Z" fill="white"/>
<path d="M16.2918 3.9212C16.4011 4.04338 16.4635 4.26574 16.5028 4.42206C16.5488 4.60548 16.5407 4.73341 16.4404 4.89838C16.1063 5.44752 15.3757 5.86595 14.7647 6.01161C14.6833 6.0302 14.6007 6.04166 14.5182 6.05418C14.6033 5.52707 14.7211 5.08624 15.0467 4.64962C15.515 4.56374 15.9944 4.29518 16.2918 3.9212Z" fill="white"/>
<path d="M10.8879 7.86249C10.991 8.05224 11.0614 8.23546 11.2083 8.40003C11.471 8.69416 11.8266 8.81957 12.1818 8.96246C12.7315 9.1836 13.261 9.45365 13.621 9.9394C13.6205 10.1049 13.6219 10.2702 13.6529 10.4335C13.6765 10.5579 13.7159 10.6792 13.7394 10.8037C13.793 11.0868 13.6879 11.3812 13.5312 11.6139C13.4646 11.6888 13.3935 11.7539 13.3176 11.8192C13.3567 11.6858 13.3902 11.5534 13.3911 11.4135C13.3961 10.6827 12.7422 10.0882 12.1999 9.68909C11.896 9.46545 11.5646 9.26416 11.3021 8.99082C10.9806 8.65601 10.8785 8.3199 10.8879 7.86249Z" fill="white"/>
<path d="M17.1522 6.29816C17.1571 6.3028 17.1623 6.30712 17.1668 6.31214C17.3757 6.54629 17.4651 7.02711 17.4606 7.33528C17.2291 7.65663 16.6281 8.06555 16.2704 8.22553C16.269 8.07145 16.2938 7.73497 16.1984 7.61306C16.1755 7.58372 16.1474 7.56599 16.1094 7.56367C16.0717 7.56135 16.0335 7.57559 16.0076 7.60318C15.9512 7.6633 15.9867 8.19047 15.9849 8.30838C15.8317 8.30983 15.6789 8.31812 15.5265 8.33324C15.3741 8.34839 15.2227 8.37031 15.0723 8.39901L14.8619 8.44774C14.6096 8.24539 14.3748 8.02289 14.0768 7.888C14.2603 7.90691 14.4313 7.90149 14.6133 7.86967C15.5422 7.70722 16.6046 7.07512 17.1522 6.29816Z" fill="white"/>
<path d="M22.1023 5.26758C22.1554 5.2939 22.2111 5.42141 22.2398 5.47555C22.0924 6.12592 21.2996 6.41562 20.77 6.68512C20.5149 6.815 20.265 6.95551 20.0338 7.1252C19.5616 7.47179 19.204 7.96888 19.1157 8.55686C19.0275 8.57296 18.9396 8.59313 18.8518 8.61164C18.736 8.39725 18.6898 8.12772 18.694 7.88595C18.7198 6.40877 20.2958 6.37806 21.3067 5.87619C21.6119 5.72465 21.8592 5.50156 22.1023 5.26758Z" fill="white"/>
<path d="M21.5841 4.25995C21.736 4.37041 21.8657 4.75629 21.9196 4.93006C21.8111 4.90545 21.6293 4.8406 21.5239 4.88065C21.4905 4.89331 21.4712 4.91677 21.4598 4.94994C21.4477 4.98489 21.4516 5.03221 21.4699 5.06375C21.5266 5.16158 21.7147 5.17498 21.8159 5.19375C20.9562 6.12396 19.327 5.88583 18.6622 7.03713C18.4169 7.46192 18.391 7.94535 18.5141 8.41259L18.5856 8.63537C18.4587 8.51893 18.3388 8.39343 18.2364 8.2547C17.9851 7.91418 17.8744 7.50223 17.9389 7.08242C18.0644 6.26662 18.8712 5.90453 19.5812 5.69118C20.0949 5.53684 20.671 5.44927 21.1097 5.12038C21.4214 4.88672 21.5287 4.63618 21.5841 4.25995Z" fill="white"/>
<path d="M11.965 6.55646C12.3269 7.48318 12.6894 7.58559 13.5511 7.93716C13.9323 8.09268 14.279 8.29171 14.5881 8.56525C14.3958 8.67805 14.2352 8.78708 14.083 8.95116C13.8549 8.72045 13.5975 8.55004 13.287 8.45006C13.014 8.36215 12.7217 8.33032 12.4965 8.13639C12.363 8.02143 12.2177 7.85695 12.1463 7.6939C12.1006 7.58951 12.0583 7.16948 11.9943 7.1282C11.9623 7.10757 11.9258 7.10391 11.8894 7.11405C11.8515 7.12459 11.829 7.1486 11.8112 7.18254C11.7342 7.32984 11.8452 7.63907 11.8988 7.78253C12.3602 8.85938 13.389 8.43282 13.9043 9.1813C13.8242 9.32078 13.7553 9.46029 13.6992 9.61122C13.1074 9.01776 12.6612 8.88648 11.9295 8.56943C11.5619 8.4101 11.3194 8.18936 11.1703 7.81392C11.2424 7.84644 11.3302 7.8866 11.411 7.87629C11.4587 7.87021 11.5111 7.83824 11.5284 7.7921C11.5643 7.69656 11.5628 7.56476 11.5731 7.46296C11.6093 7.10322 11.7425 6.83785 11.965 6.55646Z" fill="white"/>
<path d="M16.7184 5.00879C16.8625 5.23916 16.9448 5.51009 16.9767 5.77913C16.9963 5.94336 16.9808 6.06115 16.8749 6.19321C16.2781 6.93777 15.249 7.50673 14.2991 7.60445C14.2127 7.61043 14.1252 7.61006 14.0387 7.61229C14.0907 7.1425 14.2022 6.76939 14.4442 6.36402C14.5603 6.35935 14.6708 6.34778 14.7845 6.32332C15.56 6.1564 16.2884 5.67589 16.7184 5.00879Z" fill="white"/>
<path d="M22.696 5.45477C22.8462 5.56045 22.9728 5.73238 23.0479 5.89847C23.3259 6.51392 23.1868 7.5122 22.9489 8.12256C22.6911 8.78428 22.2358 9.29836 21.5829 9.58691L21.366 9.37289C21.1729 9.20013 20.9909 9.06128 20.7562 8.94805C21.4501 8.57923 22.0311 7.92917 22.3929 7.23629C22.6041 6.83198 22.8358 6.33457 22.7932 5.86776C22.7802 5.72553 22.7387 5.59035 22.696 5.45477Z" fill="white"/>
<path d="M10.6065 8.00507C10.6341 8.04801 10.6574 8.32856 10.6767 8.40682C10.6943 8.47997 10.7168 8.5516 10.744 8.62173C10.7712 8.69187 10.803 8.75987 10.8393 8.82574C11.1617 9.40278 11.9491 9.77819 12.4427 10.2239C12.7637 10.5138 13.1139 10.934 13.1337 11.3881C13.1426 11.5923 13.0633 11.753 12.9294 11.9014C12.8928 11.9283 12.8543 11.9526 12.8163 11.9775C11.9904 11.5606 11.1081 10.72 10.7189 9.88011C10.4349 9.2674 10.3737 8.64183 10.6065 8.00507Z" fill="white"/>
<path d="M22.4532 5.61066C22.4716 5.62819 22.4671 5.62094 22.4788 5.6456C22.6008 5.90259 22.5195 6.25668 22.4349 6.51042C22.1563 7.34679 21.4636 8.3284 20.6585 8.7293C20.6988 8.59601 20.8438 8.21917 20.8229 8.10333C20.815 8.05996 20.7862 8.01155 20.7473 7.98898C20.7097 7.96718 20.701 7.96918 20.6603 7.97646C20.505 8.08577 20.4635 8.53342 20.3798 8.71965C20.3779 8.72394 20.3758 8.72818 20.3738 8.73245C20.0342 8.60707 19.713 8.5415 19.3512 8.53087C19.3618 8.48674 19.3736 8.44292 19.3865 8.39941C19.7039 7.34711 20.6211 7.0736 21.4842 6.60627C21.922 6.36923 22.3037 6.10551 22.4532 5.61066Z" fill="white"/>
<path d="M10.4004 7.80615C10.4206 7.82752 10.3111 8.0619 10.2969 8.10381C10.161 8.5064 10.1671 8.96399 10.2648 9.37414C10.5517 10.5796 11.5055 11.4871 12.5237 12.1171C12.3562 12.2012 12.1744 12.2516 11.9909 12.2856C11.8803 12.3015 11.772 12.3103 11.6603 12.3022C11.1253 12.2635 10.6285 11.929 10.2886 11.5301C9.7867 10.941 9.60471 10.1435 9.66705 9.38276C9.71841 8.75553 9.91575 8.21991 10.4004 7.80615Z" fill="white"/>
<path d="M29.1008 25.0374C29.1005 25.0435 29.1008 25.0496 29.0998 25.0555C29.0863 25.1354 29.0073 25.2508 28.9647 25.3186C28.6636 25.7979 28.2371 26.2168 27.7747 26.5405C26.8358 27.1977 25.7508 27.6197 24.6619 27.9543C21.5792 28.9016 18.2773 29.1357 15.0671 29.0628C13.3669 29.0242 11.6495 28.8945 9.9745 28.5914C7.71205 28.182 4.49493 27.3819 3.11235 25.3837C3.06568 25.3098 3.02584 25.2353 2.98767 25.1567C3.26792 25.5307 3.59824 25.8416 3.9722 26.1206C4.81017 26.7457 5.79327 27.163 6.77645 27.5C10.8784 28.9057 16.6983 29.1015 20.9764 28.4765C22.8946 28.1963 24.8145 27.7769 26.5782 26.9506C27.2652 26.6287 27.9389 26.2434 28.4994 25.7268C28.7274 25.5167 28.9162 25.2853 29.1008 25.0374Z" fill="white"/>
<path d="M5.29384 13.7181C5.31831 13.8048 5.28064 13.9405 5.267 14.0311C5.21636 14.3681 5.12842 14.7609 5.2147 15.0971C5.24876 15.2297 5.31312 15.3567 5.43745 15.4245C5.76997 15.6059 5.99908 15.3679 6.30295 15.2947C6.37606 15.2771 6.45182 15.2808 6.51533 15.3241C6.72565 15.4677 6.72453 16.0722 6.76827 16.3084C6.80686 16.5166 6.88346 16.7883 7.07034 16.9109C7.1861 16.9868 7.32395 16.9968 7.45635 16.9675C7.78795 16.894 8.05046 16.6345 8.19656 16.3374C8.27708 16.1736 8.3393 15.994 8.43833 15.8409C8.57124 15.6354 8.77766 15.5039 9.01594 15.4561C9.28467 15.4022 9.57769 15.4462 9.82711 15.5557C11.0522 16.0934 10.4265 17.3053 11.3294 17.9045C11.3457 17.9151 11.3623 17.9254 11.3791 17.9352C11.3959 17.945 11.4129 17.9544 11.4302 17.9634C11.4474 17.9724 11.4649 17.981 11.4826 17.9891C11.5003 17.9972 11.5182 18.0049 11.5363 18.0122C11.5543 18.0194 11.5725 18.0262 11.5909 18.0326C11.6093 18.039 11.6279 18.0449 11.6466 18.0503C11.6653 18.0558 11.6841 18.0608 11.703 18.0653C11.7219 18.0698 11.741 18.0739 11.7601 18.0775C11.7792 18.0811 11.7984 18.0842 11.8177 18.0869C11.837 18.0895 11.8564 18.0917 11.8757 18.0934C11.8951 18.0951 11.9146 18.0963 11.934 18.0971C11.9535 18.0978 11.9729 18.0981 11.9924 18.0979C12.0119 18.0977 12.0313 18.097 12.0507 18.0959C12.0702 18.0947 12.0896 18.0931 12.1089 18.091C12.1283 18.0889 12.1476 18.0863 12.1668 18.0832C12.186 18.0802 12.2052 18.0767 12.2242 18.0727C12.7561 17.9632 12.854 17.5066 13.0034 17.0643C13.0828 16.8288 13.1744 16.5912 13.3142 16.3842C13.524 16.0739 13.8513 15.8781 14.2168 15.808C14.6384 15.7271 15.1366 15.8442 15.4898 16.085C15.9607 16.4059 15.9774 16.952 16.0723 17.4601C16.1337 17.7886 16.2436 18.2143 16.5436 18.4101C16.6828 18.5009 16.8415 18.5236 17.0022 18.4874C17.6955 18.3313 17.6348 17.6386 17.9367 17.1698C17.9516 17.1467 17.9672 17.1242 17.9837 17.1022C18.0002 17.0803 18.0175 17.0589 18.0355 17.0382C18.0535 17.0174 18.0723 16.9974 18.0917 16.978C18.1112 16.9586 18.1313 16.9399 18.152 16.9219C18.1728 16.9039 18.1941 16.8867 18.2161 16.8702C18.2381 16.8538 18.2607 16.8381 18.2838 16.8232C18.3069 16.8084 18.3305 16.7943 18.3545 16.7811C18.3786 16.768 18.4032 16.7557 18.4281 16.7442C19.2774 16.3613 19.5517 17.2798 20.2333 17.1209C20.7023 17.0116 20.7685 16.5567 20.8872 16.1707C20.9335 16.0201 20.9945 15.8724 21.0763 15.7375C21.319 15.3374 21.7353 15.1032 22.1813 14.9974C22.4991 14.9221 22.8559 14.9128 23.1403 15.0971C23.4445 15.2942 23.4603 15.5689 23.5338 15.8844C23.5713 16.0458 23.6457 16.2168 23.7943 16.3044C23.9092 16.3721 24.0623 16.3746 24.1873 16.3358C24.5972 16.2086 24.4946 15.7361 24.6524 15.4358C24.7117 15.323 24.8069 15.2405 24.9303 15.2057C25.0563 15.17 25.1942 15.1615 25.3113 15.2292C25.5249 15.3527 25.5512 15.6383 25.6124 15.8522C25.6663 16.0403 25.7909 16.202 25.9659 16.2927C26.0911 16.3576 26.2295 16.3766 26.3637 16.3278C26.6222 16.2341 26.71 16.0032 26.8104 15.7741C26.7823 15.9856 26.7513 16.2002 26.6604 16.3955C26.5684 16.5932 26.4315 16.7164 26.2278 16.7922C25.3747 16.9416 25.5012 15.7727 25.0476 15.5466C24.9916 15.5187 24.9322 15.5095 24.8729 15.5327C24.7039 15.5989 24.6973 16.0316 24.6227 16.1995C24.5367 16.3928 24.3811 16.5635 24.1788 16.6356C24.0118 16.6952 23.8043 16.6893 23.6445 16.6112C23.2711 16.4285 23.3367 16.058 23.225 15.7328C23.1597 15.5426 23.0461 15.3885 22.8612 15.3006C22.5774 15.1657 22.2717 15.1989 21.9838 15.2986C21.5182 15.4599 21.1863 15.7461 21.0649 16.2345C20.9975 16.5057 20.9565 16.7793 20.831 17.033C20.7289 17.2391 20.5753 17.3925 20.3527 17.4659C20.0504 17.5656 19.727 17.4702 19.4703 17.2989C19.3176 17.197 19.1762 17.0729 19.0114 16.9906C18.8415 16.9058 18.6455 16.8831 18.4646 16.9474C17.8426 17.1684 17.9713 17.872 17.7306 18.3508C17.6148 18.5811 17.4319 18.7845 17.1799 18.8637C16.962 18.9322 16.728 18.9033 16.5258 18.8003C15.8023 18.4319 15.8997 17.4907 15.6804 16.8342C15.572 16.5098 15.3478 16.2235 15.0376 16.0708C15.0205 16.0626 15.0033 16.0548 14.9859 16.0474C14.9685 16.0401 14.9509 16.0332 14.9331 16.0266C14.9153 16.0201 14.8974 16.0141 14.8794 16.0084C14.8614 16.0028 14.8432 15.9976 14.8249 15.9928C14.8066 15.9881 14.7882 15.9838 14.7697 15.9799C14.7511 15.976 14.7325 15.9726 14.7139 15.9696C14.6952 15.9667 14.6764 15.9642 14.6577 15.9621C14.6389 15.96 14.62 15.9584 14.6011 15.9573C14.5823 15.9561 14.5634 15.9554 14.5444 15.9552C14.5255 15.955 14.5066 15.9552 14.4878 15.9559C14.4688 15.9565 14.45 15.9577 14.4311 15.9593C14.4123 15.9609 14.3935 15.9629 14.3747 15.9654C14.356 15.9679 14.3373 15.9709 14.3187 15.9743C14.3001 15.9777 14.2816 15.9816 14.2632 15.9859C14.2448 15.9902 14.2265 15.9949 14.2083 16.0001C14.1901 16.0053 14.1721 16.0109 14.1541 16.017C13.6952 16.1753 13.4241 16.61 13.2872 17.0541C13.203 17.3276 13.1537 17.619 13.0261 17.877C12.8949 18.1422 12.6719 18.3318 12.3909 18.4243C12.0521 18.5358 11.6272 18.5096 11.3097 18.344C10.8316 18.0945 10.5661 17.6046 10.4958 17.0836C10.4644 16.8516 10.4663 16.6123 10.395 16.3873C10.3081 16.1129 10.1048 15.8856 9.84911 15.7552C9.59671 15.6264 9.3067 15.5667 9.03276 15.6593C8.52905 15.8296 8.35482 16.3054 8.13803 16.7392C7.98137 17.0528 7.77151 17.3945 7.41656 17.5061C7.2686 17.5526 7.11472 17.5471 6.9765 17.4737C6.56254 17.2541 6.71955 16.3302 6.59491 15.9195C6.55962 15.8032 6.50439 15.6895 6.39035 15.6337C6.1232 15.5029 5.88449 15.7714 5.64917 15.853C5.64145 15.8557 5.63367 15.8582 5.62582 15.8605C5.61797 15.8628 5.61008 15.8649 5.60213 15.8669C5.59417 15.8688 5.58617 15.8705 5.57813 15.872C5.57009 15.8735 5.56201 15.8748 5.55389 15.8759C5.54578 15.8769 5.53764 15.8778 5.52949 15.8785C5.52133 15.8791 5.51317 15.8796 5.50499 15.8798C5.49682 15.8801 5.48865 15.8801 5.48047 15.8799C5.4723 15.8798 5.46413 15.8794 5.45595 15.8788C5.4478 15.8782 5.43966 15.8774 5.43155 15.8763C5.42343 15.8753 5.41534 15.8741 5.40728 15.8727C5.39922 15.8712 5.39121 15.8696 5.38325 15.8678C5.37529 15.8659 5.36737 15.8639 5.3595 15.8616C5.35163 15.8594 5.34383 15.8569 5.3361 15.8543C5.32834 15.8516 5.32068 15.8488 5.31309 15.8457C5.30549 15.8427 5.29798 15.8395 5.29055 15.836C5.28312 15.8326 5.27579 15.829 5.26855 15.8252C5.12294 15.7476 5.04033 15.5967 4.99175 15.4447C4.80142 14.8491 5.0195 14.2455 5.29384 13.7181Z" fill="white"/>
<path d="M19.2603 8.81479C19.5876 8.75217 19.9988 8.87503 20.3015 8.9893C20.2423 9.20847 20.1643 9.42102 20.1145 9.64306C19.9535 9.56388 19.8553 9.42269 19.7057 9.34142C19.6668 9.32031 19.6417 9.31819 19.5999 9.33039C19.5767 9.3607 19.5728 9.38559 19.5751 9.4228C19.5825 9.54664 19.6508 9.6322 19.7419 9.71083C19.9596 9.89875 20.3387 10.0288 20.6269 9.99709C20.7288 9.98589 20.9082 9.93728 20.9689 9.84704C20.9815 9.82831 20.9758 9.83117 20.969 9.80562C20.867 9.73401 20.5256 9.75438 20.3832 9.73195C20.4166 9.52269 20.4883 9.31352 20.5511 9.11139C20.5901 9.13003 20.6281 9.15057 20.6651 9.17301C21.141 9.4611 21.5895 9.88059 21.7206 10.4405C21.8249 10.8859 21.7046 11.2729 21.4705 11.6538C21.0744 12.2513 20.2733 12.644 19.5955 12.8359C19.266 12.9291 18.7736 13.0135 18.46 12.8305C18.13 12.6379 17.9877 12.1205 17.9027 11.7754C18.0724 11.5232 18.2281 11.257 18.3332 10.9708C18.539 10.4103 18.5051 9.92149 18.2598 9.38516C18.5312 9.04817 18.8322 8.8769 19.2603 8.81479Z" fill="white"/>
<path d="M15.7287 8.58689C15.8096 8.58133 15.8921 8.5832 15.9732 8.58234C15.9619 8.82482 15.9332 9.06654 15.9276 9.30914C15.7243 9.24935 15.5666 9.11478 15.3727 9.05078C15.3286 9.03623 15.3033 9.03566 15.2629 9.05786C15.2585 9.07038 15.2549 9.07811 15.2553 9.0924C15.2577 9.17184 15.3384 9.27917 15.3916 9.33366C15.581 9.52728 15.8908 9.58904 16.1513 9.59382C16.3807 9.598 16.6387 9.55108 16.8065 9.38193C16.8491 9.33902 16.9056 9.27095 16.9057 9.20974C16.8123 9.13724 16.5292 9.27559 16.4198 9.30275C16.352 9.31959 16.2841 9.32527 16.2146 9.32974C16.2126 9.0839 16.2387 8.83748 16.2427 8.59127C16.6323 8.60703 17.0623 8.68529 17.4019 8.88444C17.7578 9.09309 18.0539 9.42888 18.1546 9.83433C18.2988 10.4151 18.0985 10.9456 17.8032 11.4407C17.7199 11.5657 17.6309 11.6864 17.5359 11.8027C17.1928 12.2149 16.5183 12.8119 15.9566 12.8529C15.6541 12.8749 15.3875 12.6924 15.1704 12.5013C14.6069 12.0052 13.9379 10.9793 13.8911 10.2166C13.8667 9.81895 13.9905 9.44114 14.2578 9.14319C14.6344 8.72347 15.1906 8.61559 15.7287 8.58689Z" fill="white"/>
<path d="M6.0918 20.3224C6.19214 20.4162 6.27642 20.5624 6.36597 20.6702C6.54603 20.8871 6.79723 21.0749 7.02854 21.2336C7.96778 21.878 9.09359 22.2269 10.1914 22.486C12.1408 22.9461 14.129 23.1016 16.1274 23.107C17.6489 23.1111 19.1993 23.0252 20.6973 22.747C21.0415 22.6831 21.3881 22.6234 21.7286 22.5419C23.0404 22.228 25.1012 21.5588 25.9001 20.3953C25.9067 20.6282 25.9556 21.0374 25.8985 21.251C25.8251 21.3611 25.7472 21.4639 25.6575 21.5612C25.3247 21.922 24.8856 22.1845 24.4535 22.4096C23.7671 22.7671 23.1188 22.9894 22.3731 23.199C20.6868 23.6731 18.9494 23.8736 17.2021 23.9416C14.3812 24.0513 10.8118 23.835 8.21222 22.736C7.65245 22.4994 7.0822 22.2161 6.63443 21.7978C6.07149 21.2719 6.11626 21.0252 6.0918 20.3224Z" fill="white"/>
<path d="M22.3934 9.40985C22.6142 9.45233 22.8384 9.52272 23.0509 9.59556C22.9795 9.6169 22.9068 9.63787 22.8387 9.66838C22.6645 9.74653 22.4673 9.87987 22.4037 10.0681C22.3588 10.2011 22.3774 10.3543 22.4421 10.4775C22.5433 10.6703 22.7492 10.7881 22.9499 10.8533C23.3247 10.975 23.8204 10.968 24.1753 10.786C24.3794 10.6814 24.4974 10.5472 24.5669 10.3282C25.0136 10.5232 25.5523 10.8427 25.7943 11.2774C25.9098 11.485 25.9459 11.7174 25.8789 11.9474C25.7411 12.4206 25.279 12.7785 24.8669 13.0075C22.0486 14.5738 16.2998 14.8026 13.0873 14.5037C11.7508 14.3794 10.3444 14.1252 9.05218 13.757C8.15035 13.5 6.74037 13.0326 6.26712 12.1687C6.14749 11.9504 6.09186 11.7212 6.16694 11.4758C6.33295 10.933 6.90111 10.5729 7.37196 10.3203C7.52793 10.2384 7.68763 10.1646 7.85106 10.0988C7.85034 10.1996 7.85226 10.2844 7.8891 10.3803C7.96518 10.5784 8.13067 10.7158 8.31979 10.8005C8.71934 10.9793 9.16642 10.955 9.56829 10.8038C9.83716 11.5111 10.2853 11.9998 10.9368 12.3767C10.8148 12.4332 10.6942 12.5004 10.5967 12.5942C10.4885 12.698 10.4252 12.8249 10.4227 12.976C10.42 13.1312 10.4791 13.2676 10.5907 13.3748C10.835 13.6096 11.216 13.6857 11.5435 13.6786C11.8446 13.6721 12.1953 13.5895 12.4078 13.3604C12.5117 13.2483 12.5636 13.1047 12.5531 12.9521C12.5385 12.7416 12.4342 12.6301 12.2845 12.5014C12.4771 12.4408 12.6565 12.3568 12.8391 12.2714C12.9371 12.2934 13.0386 12.3122 13.1391 12.3168C13.5908 12.3377 13.9375 12.1237 14.2594 11.8305C14.5897 12.306 14.852 12.6083 15.3284 12.949C15.2036 13.0072 15.0793 13.0543 14.9987 13.1737C14.9221 13.287 14.9061 13.4437 14.9313 13.5756C14.965 13.7524 15.0953 13.8924 15.2414 13.9887C15.5613 14.1997 16.0202 14.2447 16.3886 14.1648C16.6295 14.1126 16.877 13.9971 17.0103 13.7797C17.087 13.6546 17.1221 13.5013 17.0819 13.3579C17.0177 13.1286 16.8168 13.0133 16.6257 12.9015C17.0306 12.6659 17.3961 12.3904 17.6945 12.0266C17.8035 12.3792 17.9523 12.8104 18.2684 13.0332C18.6454 13.2988 19.1621 13.2052 19.583 13.1245C19.66 13.2859 19.7461 13.401 19.9013 13.4938C20.2432 13.698 20.7071 13.741 21.0887 13.6422C21.3103 13.5848 21.5479 13.4697 21.6645 13.2628C21.7316 13.1436 21.7465 13.0068 21.7036 12.8767C21.6225 12.6305 21.3637 12.4856 21.1446 12.3811C21.5047 12.0651 21.8156 11.7046 21.9565 11.2375C22.1142 10.7149 21.9888 10.2683 21.739 9.8021C21.9751 9.69969 22.1815 9.55365 22.3934 9.40985Z" fill="white"/>
<path d="M24.0915 11.2079C24.3781 11.1905 24.7303 11.2691 24.955 11.4559C25.0806 11.5603 25.1723 11.7097 25.182 11.8753C25.1901 12.0153 25.1446 12.1457 25.0511 12.2503C24.8457 12.4802 24.5076 12.5531 24.214 12.5705C23.9118 12.5632 23.568 12.5165 23.3273 12.3158C23.2098 12.2177 23.1234 12.0809 23.1104 11.9262C23.0986 11.7852 23.1511 11.653 23.2431 11.5476C23.4601 11.299 23.7773 11.2297 24.0915 11.2079Z" fill="#1C1C1C"/>
<path d="M23.972 11.4923C24.2207 11.4746 24.4734 11.489 24.6952 11.6159C24.7862 11.668 24.8795 11.748 24.9028 11.8553C24.9165 11.9183 24.897 11.9802 24.8594 12.0311C24.7535 12.1743 24.5101 12.2396 24.3428 12.2683C24.0895 12.3028 23.7893 12.2718 23.5686 12.134C23.4882 12.0839 23.4091 12.0106 23.3916 11.9131C23.3806 11.8519 23.398 11.7911 23.4344 11.7414C23.5486 11.5852 23.7905 11.5222 23.972 11.4923Z" fill="white"/>
<path d="M7.88258 11.222C8.16293 11.1937 8.51127 11.2599 8.74215 11.4278C8.87725 11.526 8.98616 11.6682 9.00821 11.8374C9.02778 11.9876 8.97607 12.1372 8.87965 12.2521C8.68062 12.4894 8.36477 12.5657 8.07087 12.593C7.74436 12.6038 7.39036 12.5485 7.12627 12.3414C7.00753 12.2482 6.92128 12.1247 6.90553 11.9718C6.90375 11.9548 6.90281 11.9377 6.90272 11.9206C6.90262 11.9035 6.90337 11.8864 6.90495 11.8694C6.90656 11.8523 6.909 11.8354 6.91229 11.8186C6.91555 11.8018 6.91965 11.7852 6.92457 11.7688C6.92948 11.7525 6.93519 11.7363 6.94171 11.7205C6.94824 11.7047 6.95552 11.6892 6.96356 11.6741C6.9716 11.659 6.98038 11.6443 6.98989 11.6301C6.99938 11.6159 7.00956 11.6021 7.02042 11.5889C7.22616 11.3345 7.57249 11.2507 7.88258 11.222Z" fill="#1C1C1C"/>
<path d="M7.84026 11.5078C8.07484 11.4879 8.3672 11.517 8.56741 11.6512C8.64458 11.703 8.71195 11.7799 8.72562 11.8748C8.73625 11.9485 8.71058 12.0201 8.66326 12.0765C8.52727 12.2387 8.26855 12.29 8.0686 12.3123C7.8392 12.335 7.55289 12.2936 7.35692 12.1657C7.27729 12.1137 7.20198 12.0363 7.18613 11.9389C7.17456 11.8677 7.19837 11.7976 7.24302 11.7421C7.37548 11.5778 7.64175 11.5302 7.84026 11.5078Z" fill="white"/>
<path d="M5.9524 12.2014C6.05366 12.3237 6.11164 12.4768 6.22843 12.6107C6.7008 13.1522 7.40165 13.4875 8.06534 13.7324C8.57974 13.9222 9.11842 14.0633 9.6508 14.1926C10.2415 14.3364 10.8366 14.4581 11.4362 14.5579C12.0359 14.6577 12.6384 14.7352 13.2438 14.7904C14.0097 14.8538 14.7769 14.8862 15.5455 14.8875C17.8185 14.9079 20.1363 14.7337 22.3521 14.209C23.0847 14.0355 23.8175 13.8279 24.5028 13.511C25.0653 13.2509 25.8622 12.7991 26.0842 12.195C26.1813 12.4058 26.2698 12.626 26.334 12.849C26.5235 13.5068 26.6468 14.5221 26.6049 15.2018C26.5905 15.4359 26.5572 15.8356 26.3618 15.9966C26.3078 16.0412 26.219 16.0894 26.146 16.0763C25.871 16.0265 25.8239 15.42 25.6777 15.1991C25.5749 15.0438 25.4219 14.9373 25.2376 14.9048C25.1116 14.8826 24.9717 14.897 24.8495 14.9344C24.1505 15.1485 24.3972 15.9202 24.1324 16.0625C24.0753 16.0931 24.0014 16.0903 23.9423 16.0651C23.7796 15.9959 23.7696 15.5788 23.7233 15.4256C23.6356 15.1353 23.4215 14.9374 23.1608 14.7974C22.9891 14.7104 22.8029 14.6687 22.6108 14.6669C21.7494 14.6589 20.9603 15.1583 20.6593 15.97C20.5723 16.2047 20.5464 16.5645 20.3593 16.7394C20.0308 17.0464 19.6825 16.6654 19.3956 16.5116C19.2342 16.425 19.0634 16.3717 18.8794 16.3678C18.6707 16.3635 18.4691 16.4229 18.282 16.5118C17.3992 16.9313 17.6478 17.665 17.1939 18.0809C17.099 18.1678 16.9779 18.2272 16.8475 18.2188C16.4238 18.1914 16.3522 17.4192 16.2981 17.1073C16.2695 16.9429 16.2394 16.7771 16.1904 16.6174C16.1299 16.4199 16.0353 16.2407 15.8984 16.0853C15.5822 15.7264 15.0729 15.539 14.604 15.5103C14.0451 15.4762 13.4834 15.7027 13.1393 16.1523C12.9755 16.3663 12.8586 16.6259 12.7662 16.8775C12.6704 17.1385 12.6185 17.5096 12.3969 17.6961C12.2631 17.8088 12.0655 17.8389 11.8959 17.8195C11.7464 17.8024 11.595 17.741 11.471 17.6564C11.0233 17.3511 11.0462 16.851 10.9025 16.3856C10.8859 16.3306 10.8667 16.2765 10.8449 16.2233C10.8231 16.1701 10.7987 16.1181 10.7719 16.0674C10.745 16.0166 10.7156 15.9672 10.6839 15.9193C10.6522 15.8713 10.6182 15.8251 10.5819 15.7805C10.2914 15.4258 9.85333 15.2118 9.39981 15.168C9.1552 15.1444 8.90793 15.1772 8.68355 15.2797C7.98299 15.5999 8.15194 16.176 7.66851 16.5705C7.58266 16.6406 7.41431 16.7466 7.29847 16.7185C7.03387 16.6542 7.00399 15.9153 6.96148 15.6848C6.93326 15.5318 6.89204 15.366 6.81427 15.2299C6.50973 14.6966 5.89995 15.2765 5.61776 15.1863C5.57009 15.1711 5.53646 15.1396 5.5134 15.0957C5.3054 14.7008 5.80559 12.6932 5.9524 12.2014Z" fill="white"/>
<path d="M6.10486 18.244C6.15888 18.2876 6.20655 18.3547 6.25316 18.407C6.34391 18.509 6.43612 18.6042 6.54136 18.6916C7.28607 19.3097 8.17503 19.6651 9.08967 19.9523C11.369 20.6681 13.8167 20.8706 16.1952 20.8611C17.1154 20.862 18.0336 20.8213 18.9501 20.7389C21.0262 20.5437 24.5236 19.9266 25.9128 18.2493C25.9239 18.4736 25.9176 18.7015 25.9182 18.9263C25.919 19.1742 25.9369 19.4367 25.8946 19.6811C25.8688 19.8302 25.8193 19.9618 25.7559 20.0986C25.66 20.2698 25.5371 20.4197 25.3989 20.5586C24.9376 21.0225 24.2994 21.349 23.7009 21.601C21.4061 22.5671 18.6441 22.8298 16.1659 22.8278C15.1239 22.8298 14.0845 22.779 13.0477 22.6754C11.1972 22.4843 8.01261 21.9312 6.66689 20.572C6.16725 20.0674 6.09901 19.7097 6.10125 19.0334L6.10486 18.244Z" fill="white"/>
<path d="M6.10361 21.6404C6.21751 21.7753 6.33739 21.9142 6.46905 22.032C8.10455 23.4956 11.5903 24.0382 13.7217 24.1853C14.4245 24.2302 15.1281 24.2531 15.8324 24.2542C16.5367 24.2552 17.2403 24.2343 17.9433 24.1915C20.0791 24.0638 22.2691 23.7194 24.2298 22.8306C24.8413 22.5533 25.464 22.2186 25.9147 21.7103C25.9125 22.0249 25.9145 22.3396 25.9205 22.6542C25.9242 22.8789 25.9547 23.1391 25.9078 23.3599C25.8766 23.5064 25.8095 23.6295 25.7324 23.7563C25.647 23.885 25.5497 24.0041 25.4407 24.1136C25.0545 24.5053 24.5412 24.8057 24.0496 25.0466C21.7579 26.1697 18.7076 26.4874 16.1767 26.5017C13.6135 26.5161 10.561 26.2391 8.21011 25.1873C7.66882 24.9452 7.10877 24.6441 6.68538 24.2217C6.12788 23.6654 6.09754 23.2652 6.10421 22.5236C6.10584 22.2292 6.10564 21.9348 6.10361 21.6404Z" fill="white"/>
<path d="M22.364 15.4885C22.4426 15.4763 22.5333 15.4805 22.6099 15.5017C23.0954 15.6358 22.9581 16.172 23.1612 16.5196C23.2887 16.7377 23.5107 16.8759 23.753 16.9337C23.7676 16.9371 23.7823 16.9403 23.7971 16.943C23.8118 16.9458 23.8266 16.9481 23.8415 16.9502C23.8564 16.9522 23.8713 16.9539 23.8863 16.9552C23.9012 16.9565 23.9162 16.9574 23.9312 16.958C23.9462 16.9585 23.9612 16.9587 23.9762 16.9586C23.9912 16.9584 24.0062 16.9579 24.0212 16.957C24.0362 16.9561 24.0511 16.9548 24.0661 16.9532C24.081 16.9516 24.0958 16.9496 24.1107 16.9472C24.1255 16.9449 24.1403 16.9422 24.155 16.9391C24.1697 16.936 24.1843 16.9326 24.1988 16.9288C24.2133 16.925 24.2277 16.9209 24.2421 16.9164C24.2564 16.9119 24.2706 16.907 24.2847 16.9018C24.2988 16.8967 24.3127 16.8911 24.3265 16.8853C24.3404 16.8794 24.354 16.8732 24.3675 16.8667C24.3811 16.8601 24.3944 16.8533 24.4076 16.8461C24.4208 16.8389 24.4338 16.8314 24.4466 16.8236C24.7931 16.6088 24.919 16.2713 25.0061 15.8937C25.1197 16.1076 25.1732 16.3495 25.2832 16.5637C25.4232 16.8362 25.6259 16.9739 25.9122 17.0675C25.9237 17.1831 25.9263 17.3022 25.9268 17.4183C25.9284 17.7646 25.7445 18.041 25.5067 18.2784C25.0422 18.742 24.4102 19.0782 23.8113 19.3339C21.4767 20.3306 18.4944 20.5847 15.9692 20.5859C13.5345 20.587 10.8204 20.3082 8.53272 19.4584C7.83952 19.2009 7.09799 18.8648 6.57028 18.333C6.06004 17.8187 6.09058 17.5326 6.09493 16.8639C6.09447 16.7428 6.07328 16.01 6.10673 15.9494C6.12492 15.9165 6.13836 15.9054 6.17328 15.8927C6.20187 15.8823 6.232 15.886 6.2579 15.9022C6.40534 15.9944 6.38606 16.5895 6.39505 16.7566C6.40042 16.8753 6.41327 16.9931 6.43361 17.1101C6.47684 17.3452 6.57561 17.5497 6.77965 17.6873C6.98035 17.8227 7.20885 17.8365 7.43942 17.7857C8.18662 17.6213 8.33143 16.8066 8.67893 16.2784C8.80013 16.0941 8.97077 15.9394 9.19458 15.899C9.39929 15.8621 9.62267 15.9243 9.79311 16.0399C10.2472 16.3482 10.158 16.8333 10.2528 17.3027C10.351 17.7886 10.6012 18.2269 11.0208 18.5033C11.3934 18.7487 11.892 18.8195 12.3253 18.7276C12.5 18.6905 12.6773 18.6105 12.8266 18.513C13.5223 18.059 13.364 17.2796 13.765 16.6744C13.9113 16.4537 14.1102 16.2916 14.3756 16.2435C14.3996 16.2394 14.4238 16.2363 14.4482 16.2342C14.4725 16.2321 14.4969 16.231 14.5213 16.231C14.5457 16.231 14.5701 16.232 14.5944 16.234C14.6188 16.236 14.643 16.2391 14.6671 16.2432C14.6912 16.2472 14.715 16.2523 14.7387 16.2584C14.7623 16.2645 14.7857 16.2716 14.8087 16.2797C14.8318 16.2878 14.8544 16.2968 14.8767 16.3068C14.899 16.3168 14.9208 16.3277 14.9422 16.3395C15.8421 16.8358 15.2468 18.2623 16.2629 18.9643C16.5084 19.1339 16.8351 19.2169 17.1306 19.1618C17.6574 19.0637 18.0062 18.5942 18.1237 18.0949C18.1798 17.8566 18.1717 17.5913 18.3208 17.3846C18.6752 16.8933 19.1551 17.4687 19.5045 17.6405C19.7488 17.7605 20.0371 17.8079 20.3065 17.7644C20.9521 17.6601 21.1357 17.1148 21.276 16.555C21.3297 16.3409 21.3698 16.1187 21.5063 15.9387C21.6931 15.6923 22.044 15.5344 22.3436 15.4914L22.364 15.4885Z" fill="white"/>
<path d="M5.78513 20.8548C5.82609 20.8812 5.81057 21.0286 5.81097 21.0802L5.81357 22.3658C5.8138 23.2421 5.78854 23.7286 6.45644 24.4035C7.60554 25.5647 10.0782 26.2101 11.6657 26.467C12.3539 26.5722 13.0451 26.6519 13.7393 26.7062C14.4334 26.7604 15.1286 26.789 15.8248 26.7919C18.4438 26.8043 21.3107 26.5376 23.7385 25.5022C24.3934 25.2229 25.0828 24.8598 25.5909 24.3522C25.832 24.1113 26.0719 23.8067 26.1717 23.4755C26.2481 23.2222 26.2007 22.7781 26.2009 22.5031C26.2053 21.9581 26.2053 21.413 26.2007 20.8679C26.8478 21.1626 27.4845 21.5018 28.0487 21.9372C28.5847 22.351 29.1335 22.9504 29.2187 23.6505C29.2837 24.1844 29.0667 24.647 28.7445 25.0589C28.1067 25.8466 27.1442 26.4016 26.2286 26.8062C22.0525 28.6517 15.4742 28.8201 10.9998 28.1798C9.3766 27.9475 7.7466 27.5861 6.21536 26.9921C5.09903 26.5591 3.48545 25.7201 2.98234 24.5647C2.78112 24.1026 2.76897 23.5958 2.95618 23.1274C3.39504 22.0291 4.74964 21.2935 5.78513 20.8548Z" fill="white"/>
</svg>
