<svg width="66" height="66" viewBox="0 0 66 66" fill="none" xmlns="http://www.w3.org/2000/svg">
<g clip-path="url(#clip0_107_4618)">
<path d="M0 0H66V66H0V0Z" fill="#1C1C1C"/>
<path d="M40.7717 6.26587C41.4656 6.26763 42.1165 6.34379 42.7906 6.50734C45.1333 7.0755 47.512 8.06369 49.3814 9.61411C50.1875 10.2827 50.8485 11.0735 51.5832 11.8139C51.6781 11.9089 51.7743 12.0026 51.8718 12.095C51.9692 12.1874 52.0679 12.2784 52.1678 12.3682C52.2676 12.4579 52.3687 12.5463 52.4709 12.6334C52.5732 12.7204 52.6766 12.806 52.7812 12.8903C52.8857 12.9745 52.9914 13.0574 53.0981 13.1388C53.2049 13.2202 53.3127 13.3002 53.4216 13.3788C53.5305 13.4573 53.6405 13.5344 53.7515 13.6099C53.8625 13.6855 53.9745 13.7596 54.0874 13.8322C54.2004 13.9048 54.3143 13.9758 54.4292 14.0453C54.5441 14.1149 54.6599 14.1828 54.7766 14.2492C54.8933 14.3156 55.0109 14.3805 55.1293 14.4437C55.2478 14.507 55.3671 14.5686 55.4872 14.6287C55.6073 14.6887 55.7281 14.7471 55.8498 14.8039C55.9715 14.8608 56.0939 14.916 56.217 14.9695C56.3402 15.023 56.464 15.0749 56.5885 15.125C56.7131 15.1753 56.8382 15.2238 56.9641 15.2706C57.5783 15.4996 58.1993 15.7085 58.827 15.8973C60.1989 16.2967 62.443 16.7174 63.227 18.0329C64.0082 19.3439 64.6484 26.428 64.6465 28.2601C64.6452 29.3088 64.5833 30.3906 64.3184 31.4095C64.1515 32.052 63.819 32.5148 63.4723 33.0708C63.401 33.1863 63.3337 33.3041 63.2703 33.4241C63.2069 33.5442 63.1476 33.6662 63.0924 33.7902C63.0371 33.9142 62.986 34.0399 62.9392 34.1673C62.8923 34.2946 62.8497 34.4234 62.8114 34.5537C62.7732 34.6839 62.7393 34.8153 62.7098 34.9477C62.6803 35.0802 62.6552 35.2136 62.6346 35.3477C62.6139 35.4819 62.5978 35.6166 62.5862 35.7519C62.5745 35.8871 62.5674 36.0226 62.5648 36.1583C62.5369 37.4126 63.0118 38.4876 63.3505 39.6639C63.8166 41.2823 63.836 42.9421 63.6986 44.6089C63.6544 45.1458 63.6083 45.7224 63.463 46.2415C63.3952 46.4838 63.185 46.6947 63.0123 46.8714C62.5484 47.3463 62.0484 47.787 61.5737 48.2511C60.5333 49.2681 59.4985 50.2974 58.4336 51.2886C57.8258 51.8542 57.1939 52.3947 56.5801 52.9539C55.6794 53.7853 54.7831 54.6214 53.8911 55.4621L51.7679 57.4837C51.3377 57.8972 50.5934 58.7298 50.0984 58.9858C49.9514 59.0618 49.7264 59.1513 49.5582 59.1246C48.9245 59.0239 48.283 58.7688 47.6715 58.5716L44.4066 57.5177L32.0415 53.5776L22.0803 50.3767L12.7625 47.4575C11.7395 47.1397 5.00065 45.1721 4.60937 44.8417C4.39073 44.6571 4.2911 44.3362 4.23907 44.0647C4.00196 42.8274 3.90165 41.4637 3.7543 40.2033C3.53849 38.3535 3.30211 36.5063 3.04517 34.6617L1.9857 26.298C1.85483 25.2622 1.73144 24.2255 1.61552 23.1879C1.54017 22.5607 1.4317 21.9216 1.3975 21.2913C1.37047 20.7932 1.59115 20.318 1.92173 19.9535C2.4503 19.3707 3.18601 19.0031 3.90168 18.7041C4.63658 18.3972 5.40079 18.1488 6.15184 17.884L9.76797 16.6197L19.0472 13.3861C23.3399 11.872 27.6425 10.3868 31.9551 8.93052C33.3522 8.44008 34.753 7.96059 36.1575 7.49206C37.6404 6.98784 39.1956 6.33239 40.7717 6.26587Z" fill="white"/>
<path d="M62.7834 20.9731C62.7961 20.99 62.812 21.005 62.8216 21.0238C62.9135 21.2036 63.0242 22.3915 63.0579 22.6588C63.3659 25.1027 63.9015 28.8834 63.192 31.2473C63.0412 31.7497 62.7293 32.1271 62.4545 32.5623C61.8059 33.5892 61.4684 34.8212 61.4365 36.0308C61.3936 37.657 61.8687 38.5646 62.2838 40.0376C62.7408 41.6595 62.8057 44.276 62.366 45.9049C61.6662 46.6357 60.8904 47.3191 60.1623 48.0234C59.465 48.6979 58.7852 49.3895 58.0816 50.0577L53.9458 53.9144C52.9684 54.835 52.0141 55.7793 51.0337 56.6967C50.6045 57.0984 50.1743 57.5559 49.696 57.897C49.5997 57.5745 49.5319 57.2414 49.4554 56.9137C48.905 53.968 48.0035 50.839 48.1146 47.8237C48.1384 47.177 48.2345 46.3381 48.641 45.8105C48.7788 45.6318 48.9611 45.4883 49.1249 45.3345C49.5796 44.9074 49.8396 44.395 50.0519 43.8128C50.5458 42.4581 50.5857 41.0551 49.9873 39.7269C49.6781 39.0405 49.1019 38.422 48.9199 37.6922C48.7262 36.9156 48.796 34.9004 48.8211 34.0261C49.3964 33.6925 49.9369 33.1621 50.4339 32.7217C51.5357 31.7365 52.6185 30.7307 53.6821 29.7044L62.7834 20.9731Z" fill="#1C1C1C"/>
<path d="M51.3066 49.8627C51.4958 49.8422 51.6677 49.8325 51.8527 49.8918C52.1169 49.9764 52.3137 50.1598 52.428 50.4112C52.6166 50.8259 52.584 51.3256 52.4138 51.7409C52.2438 52.1559 51.9623 52.4357 51.5531 52.6065C51.3658 52.6335 51.1963 52.6342 51.0157 52.5731C50.7491 52.4828 50.556 52.2866 50.4408 52.0326C50.2546 51.6219 50.2933 51.1532 50.4616 50.7441C50.6308 50.3327 50.8953 50.0357 51.3066 49.8627Z" fill="white"/>
<path d="M51.4882 50.5226C51.5313 50.5204 51.5823 50.5173 51.6249 50.5287C51.7056 50.5503 51.7908 50.6292 51.83 50.7014C51.9257 50.8778 51.901 51.1233 51.8485 51.3085C51.7732 51.5746 51.6412 51.7674 51.4022 51.9064C51.2906 51.9084 51.2026 51.8993 51.1183 51.8136C51.0035 51.6968 51.0012 51.5086 51.0197 51.357C51.0623 51.0094 51.2112 50.7344 51.4882 50.5226Z" fill="#1C1C1C"/>
<path d="M56.0368 44.637C56.2563 44.6261 56.444 44.6339 56.6533 44.7117C57.0011 44.8411 57.234 45.0999 57.3843 45.4337C57.668 46.0641 57.6225 46.9094 57.3803 47.5445C57.1091 48.2561 56.638 48.8466 55.9363 49.1601C55.6652 49.2164 55.4402 49.2209 55.1867 49.0924C54.8315 48.9123 54.6261 48.5323 54.5145 48.1645C54.2688 47.3544 54.4248 46.4338 54.8225 45.698C55.0986 45.1873 55.4705 44.8077 56.0368 44.637Z" fill="white"/>
<path d="M56.1895 45.3105C56.2483 45.3093 56.3082 45.3058 56.3655 45.3222C56.5264 45.3686 56.6821 45.512 56.7624 45.6558C56.9821 46.0496 56.963 46.6574 56.8483 47.0826C56.6898 47.6701 56.3315 48.1766 55.8053 48.4848C55.7123 48.5032 55.6211 48.5182 55.53 48.4784C55.3707 48.4088 55.2657 48.243 55.2055 48.0869C54.9819 47.5072 55.0446 46.761 55.3051 46.2044C55.4973 45.7938 55.7519 45.4709 56.1895 45.3105Z" fill="#1C1C1C"/>
<path d="M58.9028 31.7227C59.2235 31.7075 59.5625 31.8018 59.8346 31.9716C60.3683 32.3047 60.6371 32.9172 60.7609 33.5114C60.9829 34.5761 60.7538 35.7748 60.1527 36.6802C59.7406 37.301 59.2184 37.7149 58.482 37.8595C58.098 37.8899 57.7446 37.7872 57.4391 37.5503C56.9267 37.153 56.6957 36.4771 56.6118 35.856C56.4668 34.7808 56.7678 33.4775 57.4374 32.6142C57.8168 32.1248 58.2796 31.801 58.9028 31.7227Z" fill="white"/>
<path d="M58.8057 32.3931C59.0081 32.3815 59.1892 32.3945 59.3767 32.4789C59.7019 32.6254 59.9045 32.9016 60.0325 33.2268C60.3542 34.0442 60.219 35.1439 59.8606 35.9265C59.5903 36.5166 59.1933 36.9259 58.5809 37.1512C58.3479 37.1815 58.1668 37.1781 57.9561 37.0624C57.6245 36.8804 57.4389 36.5237 57.3366 36.1724C57.0719 35.2628 57.2694 34.1506 57.7271 33.3336C57.9814 32.8796 58.291 32.5392 58.8057 32.3931Z" fill="#1C1C1C"/>
<path d="M40.7187 7.32917C40.9389 7.32156 41.1587 7.3271 41.3781 7.3458C41.5976 7.36453 41.8151 7.39628 42.0308 7.44106C44.1322 7.86213 46.8276 8.97659 48.505 10.3398C49.4177 11.0815 50.1546 11.9409 50.9831 12.7651C52.4188 14.1935 54.2345 15.3468 56.1112 16.1012C56.996 16.4568 57.9171 16.7721 58.8326 17.0394C59.6882 17.2892 60.6028 17.4769 61.4006 17.8814C61.7516 18.0594 62.0902 18.2979 62.3044 18.6351C62.5499 19.0214 62.5902 19.6237 62.4921 20.0615C62.4334 20.3234 62.31 20.5181 62.1342 20.7174C61.659 21.256 61.1065 21.7539 60.59 22.2544L57.4002 25.3006C55.4445 27.1845 53.4715 29.05 51.4814 30.8974C50.8872 31.4539 50.2841 32.0005 49.6718 32.5372C49.3887 32.7822 49.1013 33.0542 48.7797 33.2476C48.5936 33.3594 48.4257 33.4113 48.2095 33.4067C47.8109 33.3981 47.4008 33.3001 47.0113 33.2191C45.704 32.9472 44.4427 32.5439 43.1711 32.1427C40.9943 31.4556 38.8331 30.7068 36.6383 30.0786C34.3698 29.4294 32.0707 28.8892 29.7835 28.3103C28.6074 27.9824 27.4249 27.6686 26.2548 27.3201C24.5847 26.8055 22.9173 26.2825 21.2525 25.7512C18.6056 24.9158 15.9474 24.1179 13.278 23.3574C10.6863 22.6175 8.08108 21.9283 5.46247 21.29C4.5669 21.0659 3.64243 20.9106 2.75549 20.6651C3.18964 20.1816 3.85983 19.9001 4.45263 19.6617C6.18816 18.9637 7.98595 18.4146 9.74784 17.7887C14.5383 16.0905 19.3404 14.426 24.1544 12.7955C27.5729 11.5949 30.9986 10.4153 34.4315 9.25677C35.432 8.91143 36.4346 8.5724 37.4393 8.2397C38.4964 7.88217 39.5972 7.40103 40.7187 7.32917Z" fill="#1C1C1C"/>
<path d="M38.5548 10.4874C39.5473 10.4697 40.7967 10.8056 41.5694 11.4503C41.9249 11.7468 42.1462 12.1475 42.1785 12.6123C42.2113 13.0824 42.0552 13.5234 41.7456 13.8764C41.0824 14.6327 40.0792 14.8504 39.1187 14.9092C38.1028 14.9053 36.9904 14.6884 36.1899 14.0204C35.7832 13.6811 35.5025 13.2189 35.4661 12.6822C35.4378 12.2636 35.556 11.8598 35.8361 11.5437C36.463 10.8365 37.651 10.5414 38.5548 10.4874Z" fill="white"/>
<path d="M38.1762 11.1947C38.1825 11.1937 38.1888 11.1922 38.1952 11.1916C39.067 11.1147 40.3848 11.3898 41.0912 11.9201C41.3132 12.0867 41.4878 12.3103 41.5186 12.5935C41.5493 12.8761 41.4391 13.1524 41.2617 13.3686C40.8299 13.8948 40.1027 14.0966 39.4534 14.1607C38.5967 14.2758 37.511 14.0911 36.7931 13.5904C36.4772 13.37 36.1819 13.0529 36.1249 12.6581C36.0893 12.4119 36.1506 12.1702 36.3039 11.9736C36.7077 11.456 37.5616 11.2687 38.1762 11.1947Z" fill="#1C1C1C"/>
<path d="M37.2429 23.2802C38.3625 23.1873 39.599 23.4091 40.5427 24.0442C41.0377 24.3772 41.4994 24.8439 41.6037 25.4549C41.6823 25.916 41.5395 26.3938 41.276 26.7731C40.6994 27.6033 39.6344 27.9794 38.6836 28.1564C38.6313 28.1656 38.5788 28.1734 38.5261 28.1799C37.3721 28.3209 36.0544 28.0655 35.1271 27.3356C34.6723 26.9775 34.3247 26.4744 34.2681 25.8868C34.2653 25.8549 34.2632 25.8228 34.2619 25.7907C34.2606 25.7586 34.2601 25.7265 34.2603 25.6944C34.2606 25.6623 34.2616 25.6302 34.2634 25.5982C34.2652 25.5661 34.2678 25.5341 34.2712 25.5021C34.2746 25.4702 34.2787 25.4384 34.2836 25.4067C34.2885 25.3749 34.2942 25.3433 34.3007 25.3119C34.3071 25.2804 34.3143 25.2491 34.3223 25.2179C34.3302 25.1868 34.3389 25.1559 34.3484 25.1253C34.3579 25.0946 34.3681 25.0641 34.379 25.0339C34.3899 25.0037 34.4016 24.9738 34.414 24.9442C34.4263 24.9146 34.4395 24.8853 34.4533 24.8563C34.4671 24.8273 34.4816 24.7986 34.4968 24.7703C34.512 24.742 34.5279 24.7142 34.5444 24.6867C34.561 24.6591 34.5782 24.632 34.5961 24.6053C34.6139 24.5786 34.6324 24.5524 34.6515 24.5266C34.6707 24.5008 34.6905 24.4755 34.7108 24.4507C35.3111 23.7123 36.3291 23.3796 37.2429 23.2802Z" fill="white"/>
<path d="M37.333 23.9238C38.3156 23.8372 39.407 24.0694 40.2321 24.6239C40.5692 24.8504 40.9032 25.164 40.9725 25.5824C41.0225 25.8841 40.9166 26.177 40.7375 26.4175C40.2414 27.0835 39.3707 27.3685 38.5829 27.48C37.5976 27.5718 36.499 27.46 35.6564 26.8951C35.3101 26.663 35.0081 26.3283 34.9369 25.9045C34.8764 25.545 34.9767 25.1852 35.1991 24.8989C35.6828 24.2765 36.5839 24.0097 37.333 23.9238Z" fill="#1C1C1C"/>
<path d="M51.4846 18.4464C52.6761 18.2993 54.1199 18.6311 55.105 19.3196C55.5768 19.6493 55.9543 20.085 56.0434 20.6727C56.1155 21.1477 55.9748 21.6176 55.6899 21.9986C55.0415 22.8654 53.8744 23.2424 52.8479 23.3852C51.6388 23.5137 50.1688 23.2447 49.1897 22.483C48.7099 22.1098 48.3356 21.5954 48.2722 20.9779C48.2221 20.4904 48.3812 20.041 48.6875 19.6666C49.3524 18.8536 50.4838 18.5488 51.4846 18.4464Z" fill="white"/>
<path d="M51.6799 19.0915C52.7114 18.9911 53.9586 19.3155 54.8052 19.9154C55.1147 20.1348 55.3675 20.4228 55.4217 20.8117C55.4641 21.1166 55.3518 21.4031 55.1611 21.6378C54.5724 22.3624 53.5832 22.6164 52.6981 22.7111C51.6061 22.7609 50.3874 22.6207 49.5183 21.8906C49.2193 21.6394 48.9499 21.2886 48.926 20.8859C48.9071 20.5686 49.0422 20.2678 49.2495 20.0335C49.8292 19.3784 50.8478 19.1516 51.6799 19.0915Z" fill="#1C1C1C"/>
<path d="M22.9546 14.8699C24.1427 14.7915 25.6113 15.086 26.5307 15.8874C26.9961 16.2932 27.2976 16.8119 27.3359 17.4356C27.3708 18.0035 27.2124 18.5062 26.832 18.9312C26.12 19.7268 24.9555 20.0806 23.9201 20.1415C22.7453 20.2162 21.2975 20.0199 20.3535 19.2543C19.8859 18.8751 19.5075 18.306 19.4585 17.6945C19.4123 17.1189 19.647 16.5711 20.0177 16.1413C20.7636 15.2766 21.856 14.9588 22.9546 14.8699Z" fill="white"/>
<path d="M22.9441 15.6107C23.9468 15.5025 25.2983 15.7964 26.093 16.4414C26.4218 16.7082 26.6781 17.081 26.7147 17.5121C26.7469 17.8904 26.6113 18.2511 26.3673 18.5374C25.7834 19.2226 24.7915 19.4427 23.9364 19.5082C22.9436 19.6146 21.6423 19.4034 20.8224 18.8005C20.4621 18.5357 20.1688 18.1586 20.1126 17.7037C20.065 17.3184 20.2 16.9545 20.445 16.6598C21.0433 15.9402 22.0546 15.6953 22.9441 15.6107Z" fill="#1C1C1C"/>
<path d="M2.52832 21.421C3.54586 21.5154 4.59618 21.7753 5.58988 22.0101C6.89981 22.3177 8.20425 22.6468 9.50319 22.9977C12.6846 23.8572 15.851 24.7684 19.0026 25.7315C21.0623 26.3644 23.1065 27.0463 25.1684 27.6727C26.9702 28.2196 28.7828 28.7282 30.6061 29.1987L34.3316 30.1306C35.5615 30.4624 36.7872 30.8094 38.0086 31.1714C41.3395 32.1696 44.692 33.5369 48.125 34.0743C48.1494 35.3121 47.9634 37.4493 48.5307 38.5157C48.9821 39.3641 49.4802 39.9088 49.6869 40.8991C49.9304 42.0655 49.6269 43.6793 48.9015 44.6345C48.6391 44.9801 48.2616 45.2024 48.0206 45.5788C46.9264 47.287 47.6337 51.0192 47.9793 52.9386C48.1492 53.9238 48.3405 54.9048 48.5531 55.8817C48.6806 56.5328 48.8376 57.1765 48.9732 57.8257C47.9977 57.5315 47.0332 57.1966 46.064 56.8824L41.0404 55.2694C35.0576 53.4103 29.0927 51.4955 23.1457 49.5252L13.1692 46.3739C11.5579 45.89 9.94987 45.3954 8.34516 44.8901C7.35471 44.5855 6.35624 44.2965 5.37431 43.9655C5.14433 42.6345 5.01651 41.2794 4.84704 39.9395L3.92089 32.7326C3.58328 30.2556 3.26371 27.7761 2.96219 25.2944C2.80514 24.01 2.60199 22.7122 2.52832 21.421Z" fill="#1C1C1C"/>
<path d="M37.8013 47.0253C38.2967 47.0094 38.7176 47.1193 39.1442 47.3715C39.7903 47.7535 40.3677 48.4212 40.5496 49.1604C40.6269 49.4745 40.6555 49.8578 40.4744 50.1413C40.3352 50.359 40.1693 50.4392 39.9254 50.4973C39.4767 50.51 39.0744 50.378 38.6861 50.1588C37.9855 49.7634 37.3378 49.063 37.1282 48.2716C37.0537 47.99 37.02 47.6486 37.1826 47.3908C37.3282 47.1601 37.5463 47.0781 37.8013 47.0253Z" fill="white"/>
<path d="M37.7767 47.7222C38.3233 47.766 38.9014 47.9699 39.3046 48.3519C39.6995 48.726 39.913 49.2575 39.9213 49.7974C39.4321 49.791 38.9654 49.5345 38.6019 49.2222C38.1392 48.8248 37.8273 48.3378 37.7767 47.7222Z" fill="#1C1C1C"/>
<path d="M15.1724 41.0325C15.8972 40.9692 16.5404 41.1254 17.1543 41.5195C17.7409 41.8961 18.2656 42.4624 18.41 43.1643C18.4724 43.4676 18.4675 43.7888 18.2864 44.0521C18.0972 44.3269 17.8002 44.4476 17.4866 44.513C16.8128 44.5479 16.187 44.3865 15.6121 44.032C14.9936 43.6506 14.3543 42.9795 14.1911 42.25C14.1343 41.9959 14.1299 41.7317 14.2787 41.5068C14.479 41.2038 14.8369 41.1015 15.1724 41.0325Z" fill="white"/>
<path d="M15.2974 41.6795C15.7045 41.6707 16.0805 41.7282 16.4526 41.8992C16.9998 42.1508 17.5537 42.6096 17.7544 43.1965C17.8038 43.341 17.8181 43.4892 17.7427 43.6277C17.6656 43.7695 17.536 43.8163 17.3898 43.8607C16.8435 43.8636 16.3452 43.7005 15.8914 43.3959C15.5015 43.1342 14.9251 42.5854 14.8456 42.101C14.83 42.006 14.8435 41.8912 14.9091 41.8164C15.0012 41.7112 15.1688 41.6998 15.2974 41.6795Z" fill="#1C1C1C"/>
<path d="M20.3745 27.8577C21.1741 27.8741 21.8767 28.1077 22.5253 28.5819C23.1523 29.0402 23.8 29.7845 23.9103 30.5813C23.9496 30.8653 23.9301 31.1524 23.7466 31.3854C23.521 31.6719 23.1878 31.7537 22.8451 31.7977C22.1223 31.8243 21.3443 31.458 20.778 31.0352C20.1278 30.5496 19.4468 29.7659 19.3469 28.9281C19.3169 28.6767 19.3571 28.416 19.5273 28.2196C19.7449 27.9685 20.0573 27.8843 20.3745 27.8577Z" fill="white"/>
<path d="M20.2303 28.5211C20.3282 28.5117 20.4263 28.5092 20.5246 28.5136C20.6229 28.5181 20.7204 28.5293 20.8171 28.5475C21.6641 28.7083 22.4448 29.2513 22.9274 29.9601C23.096 30.2077 23.2951 30.5395 23.2257 30.8494C23.197 30.9779 23.1178 31.0269 23.0138 31.0903C22.8394 31.1037 22.6626 31.1119 22.4895 31.0817C21.6416 30.9339 20.8268 30.3442 20.3392 29.6477C20.1658 29.4 19.9531 29.0657 20.021 28.7516C20.0481 28.6265 20.1291 28.5818 20.2303 28.5211Z" fill="#1C1C1C"/>
<path d="M30.3307 34.3931C30.8846 34.3596 31.4229 34.5202 31.9131 34.7697C32.7368 35.1891 33.506 35.9269 33.7931 36.8231C33.921 37.2224 34.0029 37.7532 33.7919 38.1354C33.6296 38.4293 33.3734 38.5559 33.0651 38.6423C32.3917 38.7268 31.7614 38.5 31.1899 38.1573C30.3995 37.6833 29.6832 36.9037 29.4649 35.9881C29.3768 35.6187 29.3476 35.1536 29.5647 34.8246C29.7484 34.5462 30.0192 34.4497 30.3307 34.3931Z" fill="white"/>
<path d="M30.2793 35.0648C30.3961 35.0474 30.5118 35.0504 30.6293 35.0599C31.4118 35.1231 32.1936 35.5878 32.6946 36.1786C32.9814 36.5168 33.3314 37.0482 33.2775 37.5108C33.2528 37.7232 33.1732 37.8515 33.0097 37.9845C32.8853 38.0016 32.7658 38.0181 32.6397 38.0077C31.8987 37.9461 31.1299 37.4054 30.6615 36.8538C30.3664 36.5064 30.0141 35.9438 30.0639 35.4713C30.0835 35.2862 30.1385 35.1842 30.2793 35.0648Z" fill="#1C1C1C"/>
<path d="M24.4783 39.4909L24.5182 39.4903C25.4393 39.4851 26.2788 39.8552 26.9301 40.5006C27.5775 41.1422 28.0547 42.0801 28.0511 43.0055C28.0495 43.4118 27.9402 43.7997 27.6369 44.0864C27.2205 44.4799 26.6734 44.5372 26.1305 44.5332C25.3005 44.4527 24.5777 44.1828 23.9285 43.6492C23.2154 43.063 22.6053 42.1559 22.5201 41.2178C22.4848 40.8298 22.555 40.452 22.8166 40.15C23.229 39.6737 23.8805 39.538 24.4783 39.4909Z" fill="white"/>
<path d="M24.2754 40.1634C24.3156 40.1582 24.3558 40.1538 24.3962 40.1504C24.4366 40.1471 24.477 40.1447 24.5175 40.1432C24.558 40.1417 24.5985 40.1412 24.639 40.1417C24.6795 40.1422 24.72 40.1436 24.7604 40.146C24.8009 40.1484 24.8412 40.1518 24.8815 40.1561C24.9218 40.1604 24.962 40.1657 25.002 40.1719C25.042 40.1782 25.0819 40.1853 25.1216 40.1935C25.1613 40.2016 25.2008 40.2107 25.24 40.2207C25.2793 40.2307 25.3183 40.2416 25.357 40.2535C25.3957 40.2653 25.4342 40.2781 25.4723 40.2918C25.5104 40.3055 25.5482 40.3201 25.5856 40.3356C25.6231 40.3511 25.6602 40.3674 25.6968 40.3847C25.7335 40.4019 25.7697 40.42 25.8055 40.439C25.8413 40.458 25.8766 40.4778 25.9115 40.4985C25.9463 40.5191 25.9807 40.5406 26.0145 40.5629C26.0483 40.5852 26.0816 40.6082 26.1144 40.6321C26.7825 41.126 27.2786 41.9747 27.3965 42.7964C27.4342 43.0592 27.4206 43.3399 27.2461 43.5545C27.0429 43.8044 26.6547 43.846 26.3545 43.8737C25.761 43.8857 25.2459 43.728 24.7449 43.4094C24.0174 42.9466 23.3822 42.1648 23.1992 41.3089C23.1493 41.0758 23.1451 40.8298 23.2879 40.6274C23.5048 40.3199 23.9242 40.2184 24.2754 40.1634Z" fill="#1C1C1C"/>
<path d="M8.78853 29.8521C9.47302 29.7981 10.1829 29.9693 10.7868 30.2894C11.7314 30.7899 12.5061 31.6555 12.8177 32.6858C12.9925 33.264 13.0489 33.9405 12.7398 34.485C12.4785 34.9453 12.0666 35.1362 11.5786 35.2657C10.7173 35.3995 9.87875 35.1678 9.16874 34.6751C8.27348 34.0538 7.58274 33.0315 7.39596 31.9531C7.30753 31.4426 7.33885 30.8717 7.65512 30.4398C7.9342 30.0586 8.34077 29.9166 8.78853 29.8521Z" fill="white"/>
<path d="M8.78827 30.5241C9.3686 30.4726 9.87675 30.5715 10.4032 30.8239C11.2323 31.2215 11.8801 31.9781 12.1817 32.8425C12.3178 33.2325 12.3958 33.7071 12.1966 34.089C12.0535 34.3635 11.833 34.5014 11.5481 34.5981C10.9652 34.7143 10.4135 34.6241 9.8852 34.3528C9.03667 33.9169 8.40419 33.0816 8.12698 32.1779C8.01206 31.8034 7.93143 31.3277 8.13478 30.9713C8.28734 30.704 8.5077 30.6064 8.78827 30.5241Z" fill="#1C1C1C"/>
<path d="M41.0085 38.1355C41.9441 38.0189 42.8333 38.3256 43.595 38.8601C44.6019 39.5666 45.4432 40.7535 45.6501 41.9791C45.7616 42.64 45.6941 43.35 45.29 43.9047C44.9057 44.4321 44.3435 44.6482 43.7204 44.7497C42.6797 44.8359 41.6602 44.4541 40.8341 43.836C39.9161 43.1492 39.2271 42.1343 39.067 40.9866C38.9686 40.2803 39.0409 39.4855 39.4905 38.9043C39.8804 38.4002 40.392 38.2115 41.0085 38.1355Z" fill="white"/>
<path d="M41.0444 38.7779C41.7605 38.6802 42.5068 38.9454 43.0998 39.3313C43.9826 39.9057 44.7551 40.8702 44.9728 41.9154C45.0778 42.4197 45.0638 43.0385 44.7653 43.4768C44.5175 43.8405 44.1488 43.9954 43.7345 44.0812C42.9084 44.1783 42.1332 43.9313 41.4504 43.4681C40.6226 42.9066 39.9268 42.0431 39.7393 41.0438C39.6348 40.487 39.6627 39.8065 40.0015 39.3298C40.2582 38.9688 40.6268 38.8435 41.0444 38.7779Z" fill="#1C1C1C"/>
</g>
<defs>
<clipPath id="clip0_107_4618">
<rect width="66" height="66" rx="10" fill="white"/>
</clipPath>
</defs>
</svg>
