<svg width="66" height="66" viewBox="0 0 66 66" fill="none" xmlns="http://www.w3.org/2000/svg">
<g clip-path="url(#clip0_107_4641)">
<path d="M0 0H66V66H0V0Z" fill="#1C1C1C"/>
<path d="M25.151 2.72061L25.1828 2.71938C26.8384 2.65751 28.5203 2.86219 30.1661 3.02258C33.7046 3.36743 37.2204 3.88304 40.7522 4.28673C42.6243 4.5078 44.499 4.70511 46.3761 4.87868C47.557 4.99201 48.938 5.0641 50.0796 5.29628C50.518 5.38543 50.9773 5.5734 51.3031 5.88699C51.5678 6.14184 51.7113 6.47245 51.7633 6.83236C51.9743 8.29364 50.6612 9.87687 51.0528 10.957C51.5855 12.4259 53.4962 14.7115 54.5435 15.8691C55.2942 16.6988 56.1452 17.5151 56.6452 18.5291C57.2153 19.6852 57.1465 21.1915 57.1848 22.4556C57.1952 22.7989 57.1625 23.2022 57.2528 23.5341C57.3777 23.9934 57.7745 24.35 57.9763 24.7804C58.4082 25.7022 58.7195 26.7067 58.9994 27.6831C60.9445 34.4686 61.6038 41.605 61.62 48.6454C62.1468 49.2597 62.7926 49.8113 63.2641 50.4667L63.2643 50.4805C63.2703 50.8565 63.1361 52.1803 62.9582 52.4698C62.8101 52.711 60.0405 53.6365 59.536 53.8149C55.2115 55.3788 50.8506 56.8335 46.4533 58.1791C42.056 59.5246 37.6278 60.7593 33.1688 61.8831C32.0062 62.1424 30.8516 62.4558 29.6903 62.7257C29.1854 62.843 28.6298 63.0165 28.1113 63.0305C27.035 63.0597 23.172 60.8225 21.9231 60.261C21.5443 60.4345 21.1785 60.6411 20.8022 60.8214C19.9908 61.2104 19.144 61.5584 18.2795 61.8106C18.0145 61.8879 16.4184 62.3285 16.3036 62.247C16.242 62.2033 16.1937 62.1491 16.1224 62.1175C15.9507 62.0417 15.7428 62.0088 15.5611 61.9533C15.1405 61.8266 14.7242 61.6868 14.3124 61.5338C14.0941 61.454 13.8777 61.3695 13.6631 61.2803C13.4485 61.1911 13.2359 61.0974 13.0253 60.999C12.8148 60.9006 12.6064 60.7977 12.4003 60.6903C12.1942 60.5829 11.9905 60.4711 11.7892 60.3549C11.5879 60.2387 11.3892 60.1182 11.1932 59.9934C10.9971 59.8686 10.8038 59.7396 10.6133 59.6065C10.4228 59.4734 10.2353 59.3361 10.0507 59.1948C9.86613 59.0536 9.68469 58.9084 9.50642 58.7593C6.06211 55.8386 4.47213 51.8645 3.62104 47.5263C3.31448 45.917 3.09034 44.2964 2.94863 42.6644C2.91526 42.2582 2.77819 41.6249 3.06126 41.2909C3.18524 41.2251 3.31732 41.2374 3.45275 41.254C3.84902 41.3026 4.26616 41.4451 4.65446 41.5428C5.64854 41.7873 6.63654 42.0543 7.61845 42.3438C7.591 42.1228 7.5658 41.9016 7.54285 41.6802C7.51991 41.4587 7.49922 41.2371 7.48078 41.0152C7.46235 40.7934 7.44617 40.5713 7.43225 40.3491C7.41833 40.1269 7.40666 39.9046 7.39725 39.6822C7.38784 39.4597 7.38069 39.2372 7.37579 39.0146C7.37093 38.7921 7.36831 38.5695 7.36793 38.3468C7.36758 38.1242 7.36949 37.9016 7.37366 37.679C7.37783 37.4564 7.38425 37.2339 7.39293 37.0114C7.40161 36.7889 7.41257 36.5666 7.4258 36.3443C7.439 36.1221 7.45446 35.9 7.47221 35.6781C7.48991 35.4562 7.50989 35.2344 7.53215 35.0129C7.55437 34.7914 7.57884 34.5701 7.60556 34.3491C7.63233 34.1281 7.66132 33.9074 7.69251 33.6869C7.72375 33.4665 7.7572 33.2464 7.79286 33.0266C7.82857 32.8069 7.86651 32.5875 7.90669 32.3686C7.94682 32.1495 7.98919 31.931 8.03379 31.7129C8.07839 31.4948 8.12521 31.2771 8.17423 31.06C8.22322 30.8428 8.27444 30.6261 8.32789 30.41C8.3813 30.1939 8.4369 29.9783 8.4947 29.7633C8.55253 29.5483 8.61254 29.3339 8.67471 29.1201C8.73685 28.9064 8.80117 28.6932 8.86768 28.4807C8.9342 28.2683 9.00284 28.0565 9.07361 27.8454C9.14443 27.6344 9.21737 27.424 9.29243 27.2144C9.36754 27.0048 9.44476 26.796 9.52408 26.588C9.6034 26.38 9.68482 26.1728 9.76835 25.9664C9.85188 25.76 9.93752 25.5546 10.0253 25.3499C10.113 25.1453 10.2027 24.9416 10.2946 24.7388C10.3864 24.536 10.4803 24.3341 10.5763 24.1333C10.6723 23.9324 10.7703 23.7325 10.8703 23.5336C10.9703 23.3347 11.0724 23.1368 11.1764 22.94C11.2804 22.7431 11.3864 22.5474 11.4945 22.3527C11.6025 22.158 11.7125 21.9645 11.8245 21.7721C12.0673 21.357 12.8414 19.8871 13.2884 19.7698C13.9598 19.855 16.3525 22.6269 16.8755 23.2981C16.9984 22.9095 17.2699 22.4454 17.3263 22.0595C17.3798 21.6933 17.2533 21.2691 17.2409 20.8953C17.1892 19.3433 17.211 17.7443 17.7843 16.2784C18.1779 15.2719 18.8201 14.3433 19.3701 13.415C20.25 11.9591 21.1097 10.4912 21.9491 9.01152C22.3284 8.34901 22.8025 7.66754 23.051 6.9429C22.8086 6.18015 22.5354 5.36456 22.4895 4.56163C22.4656 4.14289 22.5116 3.73278 22.8088 3.4108C23.3441 2.83078 24.4118 2.76383 25.151 2.72061Z" fill="white"/>
<path d="M42.9577 16.6448C43.0736 16.6796 43.1864 16.7077 43.2887 16.7743L43.2832 16.8147L43.1764 16.8589C43.0842 16.8865 42.9547 16.9435 42.8615 16.92C42.8445 16.8246 42.9154 16.7276 42.9577 16.6448Z" fill="#1C1C1C"/>
<path d="M45.8478 19.133L45.8848 19.144C45.978 19.2271 46.0214 19.3501 46.0726 19.4617L45.5954 19.469L45.4773 19.4723C45.5213 19.3632 45.7485 19.2173 45.8478 19.133Z" fill="#1C1C1C"/>
<path d="M33.2459 22.0551C33.3859 22.1896 33.7319 22.5648 33.7679 22.7478C33.7774 22.7962 33.7527 22.8041 33.7239 22.8379L33.6204 22.8456L33.0231 22.8417C33.1243 22.5853 33.2005 22.3269 33.2459 22.0551Z" fill="#1C1C1C"/>
<path d="M45.3405 16.3097C45.3886 16.3644 45.3599 16.8953 45.3596 17.0055C45.1011 16.9807 44.8444 16.924 44.5893 16.8757C44.505 16.8567 44.4209 16.8305 44.3375 16.8076L44.3985 16.7963L44.3941 16.7752C44.7567 16.657 45.0265 16.5274 45.3405 16.3097Z" fill="#1C1C1C"/>
<path d="M14.1913 31.2275C14.306 31.2217 14.3821 31.2171 14.4789 31.2804C14.5953 31.5568 14.4325 32.9899 14.4022 33.3541L14.3951 33.3493L14.3899 33.4435C14.3422 33.4226 14.3196 33.3294 14.2983 33.2806C14.0871 32.7562 13.888 32.2274 13.701 31.694C13.7056 31.6857 13.71 31.6773 13.7146 31.669L13.7382 31.628C13.861 31.4113 13.9694 31.3331 14.1913 31.2275Z" fill="#1C1C1C"/>
<path d="M18.6207 46.2844L18.6279 46.2877L18.6241 46.321C17.9494 46.8796 17.3678 47.5234 16.8217 48.206L16.6405 47.9819C16.505 47.8474 16.3881 47.7028 16.2695 47.5535C16.9547 46.9132 17.7513 46.5894 18.6207 46.2844Z" fill="#1C1C1C"/>
<path d="M28.4054 18.4785C28.9876 18.722 29.5556 18.891 30.1732 19.0123L30.3235 19.1714C30.2446 19.5776 30.1655 19.9821 30.1206 20.3937L30.0905 20.5535C29.9858 20.558 29.8658 20.4385 29.7864 20.3703C29.3644 20.0082 28.6793 19.3152 28.4601 18.8059C28.4177 18.7075 28.4138 18.5844 28.4054 18.4785Z" fill="#1C1C1C"/>
<path d="M24.5169 21.6084C25.1095 21.5584 25.7379 21.5879 26.3137 21.742C26.823 22.3307 27.0946 22.6729 27.8078 23.0285L27.4651 23.1871C27.2835 23.2701 27.0931 23.3287 26.9036 23.391C26.3553 23.1046 25.8796 22.6713 25.3874 22.3003C25.0906 22.0765 24.7706 21.8755 24.4847 21.6392L24.5169 21.6084Z" fill="#1C1C1C"/>
<path d="M48.4098 22.6031C49.0108 22.5333 49.4688 22.7402 49.98 23.0251C49.3771 23.4013 48.7436 23.6791 48.0902 23.9528L47.4458 24.1906C47.2869 23.7018 47.043 23.2658 46.7655 22.8365C47.3209 22.7931 47.858 22.6677 48.4098 22.6031Z" fill="#1C1C1C"/>
<path d="M28.4473 23.3706C29.2444 23.4312 30.1294 23.276 30.9013 23.5104C30.5397 23.8628 30.3424 24.23 30.1099 24.671C29.2114 24.8875 28.3958 24.4402 27.6394 24.0178C27.8951 23.7884 28.1771 23.5829 28.4473 23.3706Z" fill="#1C1C1C"/>
<path d="M40.7968 19.1222C41.4575 19.1318 41.8611 19.6058 42.4488 19.81C42.1344 20.063 41.8237 20.328 41.4834 20.5459C41.3747 20.6155 41.2843 20.6016 41.1606 20.5903C40.902 20.5504 40.642 20.5257 40.3806 20.5161C40.1191 20.5064 39.858 20.5119 39.5973 20.5325L39.5298 19.607C39.9448 19.3488 40.3082 19.1784 40.7968 19.1222Z" fill="#1C1C1C"/>
<path d="M39.8496 24.266C40.3919 24.3414 41.0032 24.5954 41.4422 24.9222C41.3116 25.1416 41.1312 25.3316 40.9874 25.544C40.5424 25.6026 40.0864 25.6167 39.6385 25.6475C39.341 25.6644 38.9618 25.6319 38.6737 25.6817C38.6572 25.6845 38.6415 25.6908 38.6254 25.6954L38.6358 25.6557C38.6201 25.6576 38.6043 25.6588 38.5887 25.6613C38.5715 25.6641 38.5543 25.6682 38.5371 25.6716C38.5425 25.6474 38.5475 25.6232 38.5523 25.5989C38.6148 25.2732 38.2861 24.9495 38.1113 24.6899C38.7959 24.762 39.2508 24.5556 39.8496 24.266Z" fill="#1C1C1C"/>
<path d="M25.1145 18.3514C25.3107 18.3564 25.5032 18.3765 25.6974 18.404C27.0175 18.5912 27.8931 18.9606 28.7025 20.0329L28.3024 19.9544C27.4741 19.8221 26.6349 19.8844 25.9032 20.3215C25.5236 19.7326 25.3094 19.0206 25.1145 18.3514Z" fill="#1C1C1C"/>
<path d="M33.0256 15.4952C33.2932 15.493 33.6337 15.6525 33.9002 15.7149C34.0672 15.7539 34.2415 15.7685 34.412 15.7859C34.3913 16.0116 34.3631 16.231 34.3202 16.4537C34.0972 16.7162 33.8243 16.9455 33.5636 17.1696C33.2137 17.1862 32.8742 17.2902 32.5409 17.3903C32.3255 17.464 32.1237 17.5664 31.9193 17.6656C31.7308 17.3901 31.5151 17.1446 31.2958 16.894C31.3465 16.7956 31.3985 16.6856 31.4699 16.6C31.7883 16.2178 32.575 15.7234 33.0256 15.4952Z" fill="#1C1C1C"/>
<path d="M37.862 11.8442C38.1918 11.8503 38.5304 11.9014 38.8502 11.9807C39.3888 12.1144 39.6117 12.2607 39.8995 12.7328C39.7795 12.8127 39.6558 12.8879 39.5816 13.0157C39.3434 13.4267 39.6834 13.869 39.7941 14.2567L39.7678 14.2942L39.6639 14.2804C39.2614 14.1843 38.8399 14.1002 38.4555 13.9457C37.8444 13.7002 37.4771 13.1823 37.225 12.5919C37.4046 12.3244 37.6479 12.0851 37.862 11.8442Z" fill="#1C1C1C"/>
<path d="M40.3562 13.1599C40.388 13.1585 40.4198 13.1575 40.4516 13.157C41.4751 13.1425 42.3549 13.6378 43.0668 14.3355C42.8294 14.6828 42.7085 14.9821 42.6334 15.3964C42.6309 15.4274 42.619 15.4531 42.6083 15.4822C42.4662 15.5439 42.2394 15.5224 42.0858 15.5013C41.4628 15.4155 40.9254 14.999 40.5628 14.5024C40.352 14.2138 39.9931 13.5927 40.0515 13.2308C40.1334 13.1603 40.253 13.1686 40.3562 13.1599Z" fill="#1C1C1C"/>
<path d="M45.2105 22.4641C45.2211 22.4676 45.2318 22.4709 45.2423 22.4746C46.2641 22.8327 46.4729 23.5208 46.9184 24.4124C46.3491 24.5922 45.7845 24.7713 45.1895 24.842C44.5687 24.8591 44.0768 24.5911 43.5383 24.3197C44.2299 23.7353 44.7579 23.2631 45.2105 22.4641Z" fill="#1C1C1C"/>
<path d="M50.3564 20.7671C50.4032 20.7629 50.45 20.7597 50.4968 20.7573C50.5437 20.755 50.5906 20.7536 50.6375 20.7531C50.6844 20.7527 50.7313 20.7532 50.7782 20.7546C50.8251 20.756 50.8719 20.7584 50.9188 20.7617C50.9656 20.765 51.0123 20.7692 51.0589 20.7743C51.1055 20.7795 51.152 20.7856 51.1984 20.7927C51.2448 20.7997 51.2911 20.8076 51.3371 20.8164C51.3832 20.8253 51.4291 20.8351 51.4747 20.8458C51.5204 20.8565 51.5659 20.8681 51.6111 20.8806C51.6563 20.8931 51.7013 20.9065 51.746 20.9208C51.7907 20.9351 51.835 20.9503 51.8791 20.9664C51.9232 20.9825 51.967 20.9994 52.0103 21.0173C52.0537 21.0351 52.0968 21.0537 52.1394 21.0733C52.1821 21.0928 52.2243 21.1132 52.2662 21.1344C52.308 21.1557 52.3494 21.1777 52.3904 21.2006C52.4313 21.2235 52.4718 21.2472 52.5118 21.2717C51.9226 21.7431 51.3659 22.1464 50.6773 22.4678L50.3273 22.6055C49.7889 22.2928 49.3456 22.0778 48.7258 21.9863C48.6955 21.7003 48.6485 21.4372 48.5707 21.1599C49.1371 20.9539 49.7559 20.816 50.3564 20.7671Z" fill="#1C1C1C"/>
<path d="M34.5304 23.3175C35.5417 23.4937 36.4921 23.8023 37.2315 24.5435C37.3781 24.6904 38.1425 25.5573 38.1418 25.7156C37.523 25.7595 36.0733 25.7967 35.5085 25.6391C35.4189 25.6141 35.2465 25.5579 35.2086 25.4616C35.162 25.3435 35.2375 25.1708 35.2133 25.0371C35.1054 24.4418 34.8351 23.8361 34.5304 23.3175Z" fill="#1C1C1C"/>
<path d="M31.6646 9.10272C32.3857 9.35061 33.0943 9.69891 33.6348 10.2477C33.9864 10.6049 34.438 11.1615 34.508 11.6733C34.5462 11.9529 34.5221 12.2606 34.5203 12.5437L34.1357 12.6246C33.8909 12.6643 33.6433 12.6917 33.3973 12.7235C33.3711 12.5174 33.3416 12.3124 33.3003 12.1087C33.2368 11.7947 33.1358 11.2261 32.8536 11.0383C32.6601 10.9873 32.3611 11.2016 32.1942 11.291C31.92 10.6226 31.7186 9.82479 31.6646 9.10272Z" fill="#1C1C1C"/>
<path d="M51.163 15.5779C51.3098 15.5527 51.4743 15.5601 51.6239 15.5539C51.3084 16.5225 50.8418 17.4083 50.203 18.1992C49.8654 18.1016 49.5373 17.9742 49.2079 17.8527C48.8388 17.7182 48.5506 17.6305 48.3043 17.3059C48.5791 16.9946 48.8091 16.6593 49.0682 16.3369C49.5385 15.7516 50.4681 15.6572 51.163 15.5779Z" fill="#1C1C1C"/>
<path d="M24.7017 14.939C25.5737 15.1907 26.4914 15.5685 27.1328 16.2277C27.141 16.7251 27.3201 17.0552 27.4171 17.5222C27.4766 17.808 27.4577 18.1078 27.4531 18.3985C26.9516 18.2246 26.2568 18.0767 25.8499 17.7346C25.099 17.1033 24.7794 15.873 24.7017 14.939Z" fill="#1C1C1C"/>
<path d="M38.0549 9.44598L38.0889 9.44985L38.1164 9.48762C38.0989 9.75033 38.0349 10.0159 37.9703 10.2707C37.736 11.1939 37.3206 11.7796 36.6324 12.4131C36.1282 12.3678 35.6684 12.3642 35.1663 12.4398L35.0887 12.4208C35.0842 12.4102 35.0786 12.3999 35.0751 12.3889C34.9749 12.0733 35.0888 11.4739 35.2338 11.1944C35.3141 11.0393 35.4539 10.9029 35.576 10.7798C36.2595 10.0901 37.143 9.73022 38.0549 9.44598Z" fill="#1C1C1C"/>
<path d="M49.0027 14.837C49.1589 14.8145 49.3296 14.8224 49.4879 14.8174C49.0942 15.4922 48.3248 16.6342 47.7378 17.1138C47.3396 17.4393 46.9392 17.5298 46.4348 17.4777C46.3416 17.4387 46.2481 17.3925 46.1677 17.3307C45.9785 17.1855 45.9046 16.9709 45.8813 16.7407C45.8518 16.4498 45.9347 16.1927 46.1258 15.9719C46.7719 15.2253 48.0679 14.9245 49.0027 14.837Z" fill="#1C1C1C"/>
<path d="M41.948 8.82364C41.9981 8.83228 42.0024 8.84298 42.0401 8.87423C42.1369 9.09576 42.143 9.37581 42.1576 9.61519C42.218 10.6083 41.8972 11.5215 41.2354 12.2616C41.0888 12.4257 40.8784 12.6456 40.6423 12.6474C40.4926 12.6485 40.4162 12.557 40.3205 12.4572C40.2219 12.3432 40.13 12.224 40.0448 12.0996C39.9596 11.9752 39.8818 11.8463 39.8112 11.7131C39.8213 11.5842 39.8383 11.4542 39.8659 11.3276C40.1137 10.1955 41.0077 9.41332 41.948 8.82364Z" fill="#1C1C1C"/>
<path d="M27.6525 16.0084C28.0448 16.0618 28.4382 16.1126 28.8291 16.175C30.0062 16.3629 30.7803 16.9795 31.4639 17.9296C31.375 18.0088 31.279 18.0818 31.1867 18.157C30.8803 18.3746 30.5009 18.4277 30.1339 18.4026C29.4386 18.3549 28.6235 18.057 28.1601 17.5164C27.7945 17.0898 27.6116 16.569 27.6525 16.0084Z" fill="#1C1C1C"/>
<path d="M32.5764 11.6984C32.5827 11.7074 32.5905 11.7155 32.5954 11.7254C32.6697 11.8759 32.7042 12.0829 32.7413 12.2459C32.8959 12.926 32.9847 13.5893 32.7529 14.2644C32.5052 14.9857 31.9472 15.6664 31.256 16.0007C31.2126 15.9556 31.172 15.9101 31.1347 15.8598C30.8738 15.5073 30.8494 14.3859 30.9163 13.9548C31.0615 13.0189 31.8414 12.229 32.5764 11.6984Z" fill="#1C1C1C"/>
<path d="M28.1336 11.9023C28.154 11.9122 28.1744 11.9224 28.1946 11.9328C29.0822 12.3879 29.8836 13.0179 30.1934 14.0006C30.2638 14.2238 30.5093 15.6241 30.443 15.7514C30.2624 15.7614 30.0637 15.7787 29.8854 15.7466C29.3453 15.6494 28.8835 15.2619 28.5821 14.8175C28.0255 13.9967 27.9446 12.8518 28.1336 11.9023Z" fill="#1C1C1C"/>
<path d="M43.9704 11.0991C44.5202 11.0718 45.09 11.1128 45.6374 11.1672C45.5787 11.3155 45.5132 11.4549 45.4336 11.5931C44.9376 12.4551 44.2096 13.0833 43.2408 13.3412C43.1162 13.3702 42.9861 13.3856 42.8597 13.4065C42.4593 13.1658 42.0487 12.9628 41.6265 12.7642C41.8486 12.4492 42.0598 12.1037 42.3127 11.8139C42.7698 11.2901 43.2997 11.1405 43.9704 11.0991Z" fill="#1C1C1C"/>
<path d="M51.6962 16.7493C52.5299 17.6392 53.2868 19.0043 53.7697 20.1212C53.5034 20.3825 53.2423 20.6552 52.9546 20.8929C52.6238 20.6666 52.2974 20.4893 51.9284 20.333C51.485 20.1714 51.0284 20.0712 50.5635 19.9963C51.1136 19.6562 51.5882 19.2255 52.108 18.8436C51.6647 18.6515 51.177 18.5342 50.7194 18.3744C51.1162 17.882 51.4309 17.3215 51.6962 16.7493Z" fill="#1C1C1C"/>
<path d="M33.4863 17.7048C33.7275 17.6866 33.9791 17.709 34.2158 17.7573C35.0421 17.9258 35.9153 18.4575 36.3865 19.1645C36.265 19.2335 36.1406 19.2968 36.0133 19.3544C35.8861 19.4121 35.7564 19.4638 35.6245 19.5098C35.4925 19.5557 35.3587 19.5955 35.2231 19.6293C35.0876 19.663 34.9507 19.6905 34.8126 19.7119C34.4869 19.7526 34.1553 19.76 33.8308 19.7056C33.4259 19.6378 32.8815 19.4614 32.5881 19.1637C32.3642 18.9366 32.1836 18.5913 31.995 18.3267C32.4214 17.8961 32.9053 17.7719 33.4863 17.7048Z" fill="#1C1C1C"/>
<path d="M35.6003 12.9349C35.9105 12.8967 36.5341 12.8534 36.7927 13.0436C36.8758 13.1048 36.9158 13.1821 36.9256 13.2839C36.9491 13.5285 36.7065 13.8388 36.5645 14.0249C36.0331 14.7212 35.4088 15.1118 34.5391 15.2274C34.0362 15.2768 33.5637 15.1598 33.1296 14.9045C33.2215 14.5561 33.2964 14.0491 33.5114 13.7582C33.9117 13.2166 34.9803 13.0149 35.6003 12.9349Z" fill="#1C1C1C"/>
<path d="M26.7688 55.9657C26.8543 56.1865 26.8238 56.5662 26.8314 56.8066C26.8655 57.8969 26.7925 59.4902 27.3125 60.4376C26.6541 60.1741 26.0254 59.8941 25.3941 59.5708C24.9191 59.325 24.4462 59.0753 23.9753 58.8217C25.0553 57.9847 25.97 57.0789 26.7688 55.9657Z" fill="#1C1C1C"/>
<path d="M47.7388 18.0926C48.6827 18.0836 50.0308 18.7569 50.9564 19.096C50.5116 19.4898 50.0288 19.7521 49.4759 19.9636C49.2668 20.035 49.048 20.0906 48.8287 20.1188C48.1605 20.2044 47.4175 20.0662 46.8848 19.6333C46.6687 19.4578 46.4802 19.2132 46.4573 18.9266C46.4438 18.7567 46.4919 18.6011 46.6057 18.4733C46.8844 18.1607 47.3484 18.1226 47.7388 18.0926Z" fill="#1C1C1C"/>
<path d="M32.6066 23.3758C33.0643 23.3366 33.5607 23.3692 33.9952 23.5247C34.3762 23.9857 34.5522 24.6457 34.7073 25.2143C34.1629 25.5739 33.4495 25.4804 32.8328 25.4183C32.1306 25.3407 31.3144 25.1526 30.7058 24.7816C30.7596 24.5888 30.8201 24.4263 30.9383 24.2629C31.3316 23.7194 31.971 23.4869 32.6066 23.3758Z" fill="#1C1C1C"/>
<path d="M41.3366 16.1268C41.7565 16.0906 42.171 16.1489 42.5798 16.2409C42.4887 16.4952 42.3417 16.7039 42.1811 16.9191C41.5282 17.7942 40.8964 18.4529 39.7752 18.6203C39.5495 18.6419 39.3497 18.6016 39.1325 18.5483C38.903 18.2306 38.7326 17.8722 38.4988 17.5528C38.5559 17.4695 38.6185 17.3909 38.6838 17.3138C39.3271 16.5537 40.3714 16.2107 41.3366 16.1268Z" fill="#1C1C1C"/>
<path d="M38.2383 14.58C39.0249 14.5944 39.7474 14.8002 40.4595 15.1276C39.8924 15.8394 38.9941 16.528 38.0768 16.657C37.2739 16.6791 36.5412 16.2714 35.8073 15.9907C35.8796 15.7792 35.965 15.6052 36.1142 15.4363C36.629 14.8532 37.4912 14.626 38.2383 14.58Z" fill="#1C1C1C"/>
<path d="M24.4472 18.1745C24.6164 18.2044 24.6638 18.6116 24.7104 18.7758C24.9478 19.6114 25.2684 20.3142 25.7773 21.0173C25.1032 21.0124 24.4323 21.0539 23.76 21.0984L23.3799 20.8108C22.7645 20.333 22.1622 19.778 21.6213 19.2173C22.5642 18.8822 23.4945 18.4731 24.4472 18.1745Z" fill="#1C1C1C"/>
<path d="M31.2739 18.6011C31.8753 18.9499 32.3558 19.795 32.5595 20.4374C32.8232 21.2691 32.7382 22.1085 32.3403 22.8749C32.2435 22.9148 32.1411 22.9437 32.0414 22.9757C31.8452 22.9851 31.6969 22.9648 31.5261 22.8623C31.0935 22.6026 30.7899 21.9311 30.6857 21.4501C30.4712 20.4604 30.739 19.44 31.2739 18.6011Z" fill="#1C1C1C"/>
<path d="M43.5113 17.4138C44.5312 17.3169 45.3917 17.5889 46.3311 17.9467C45.7955 18.4877 45.3277 18.9612 44.6204 19.2733C44.4963 19.324 44.3693 19.3661 44.2396 19.3995C43.6063 19.5687 42.8924 19.5137 42.3241 19.1685C42.1276 19.0492 41.9655 18.8848 41.9213 18.652C41.8795 18.4313 41.943 18.2076 42.0749 18.0285C42.3994 17.5874 43.0044 17.4841 43.5113 17.4138Z" fill="#1C1C1C"/>
<path d="M27.3477 20.4441C27.9853 20.3856 28.5873 20.4708 29.1707 20.7404C30.1824 21.2078 30.1833 21.6379 30.5399 22.5904C30.2348 22.732 29.9563 22.7964 29.6239 22.8442C29.125 22.8707 28.6018 22.7949 28.1412 22.5976C27.221 22.2033 26.7868 21.5226 26.425 20.6202C26.727 20.5274 27.0343 20.4774 27.3477 20.4441Z" fill="#1C1C1C"/>
<path d="M40.1773 21.1179C40.5193 21.1012 40.8297 21.1085 41.166 21.1759C41.0035 21.9025 40.6261 22.5251 40.198 23.127C39.8034 23.6819 39.3242 24.0812 38.6368 24.1937C38.4949 24.2019 38.3679 24.1824 38.2357 24.129C37.9241 24.0031 37.7428 23.7559 37.6156 23.4574C37.6616 23.0306 37.7767 22.6618 38.035 22.3136C38.5253 21.6526 39.3781 21.2414 40.1773 21.1179Z" fill="#1C1C1C"/>
<path d="M46.3529 12.863L46.4189 12.8844C46.5067 13.2753 46.0646 14.5139 45.8742 14.8766C45.545 15.5036 44.9978 16.1177 44.2964 16.3202C43.9879 16.4093 43.6921 16.4156 43.4069 16.2615C43.3048 16.1227 43.2268 15.9703 43.1847 15.8026C43.0863 15.4106 43.1974 15.0254 43.408 14.6911C44.0375 13.6916 45.2375 13.1174 46.3529 12.863Z" fill="#1C1C1C"/>
<path d="M33.4904 20.2229C34.1105 20.2701 34.8515 20.4082 35.4278 20.6361C36.3051 20.9832 36.9391 21.7353 37.3052 22.5888C37.2625 22.7712 37.2074 22.9522 37.1576 23.1329C37.1353 23.1612 37.1041 23.1854 37.0774 23.2098C36.9168 23.25 36.7359 23.2411 36.5717 23.2273C35.6287 23.1478 34.6693 22.6896 34.0562 21.9602C33.6209 21.4425 33.4345 20.8967 33.4904 20.2229Z" fill="#1C1C1C"/>
<path d="M43.1122 21.9595C43.6806 21.9759 44.166 22.094 44.6827 22.3308C44.3818 22.8729 43.9313 23.351 43.4463 23.7327C43.1986 23.9276 42.9378 24.0898 42.665 24.2462C42.5314 24.3229 42.332 24.3993 42.2192 24.499C42.1902 24.5246 42.1852 24.5434 42.1715 24.5751C42.1836 24.6387 42.1773 24.6731 42.2324 24.7193C42.478 24.9251 42.7011 24.8743 43.0315 25.2356L43.0615 25.2688L42.5144 25.3665L41.6846 25.4852C41.7483 25.3938 41.811 25.3016 41.8638 25.2033C41.9345 25.0718 41.9895 24.9132 41.9358 24.7655C41.8032 24.4011 40.8002 23.8639 40.4263 23.7066C40.7368 23.2718 41.0013 22.822 41.2588 22.355C41.8232 22.1059 42.5013 22.0037 43.1122 21.9595Z" fill="#1C1C1C"/>
<path d="M45.4922 20.0592C45.8191 20.0361 46.1679 20.0467 46.4885 20.1194C47.0535 20.2474 47.6523 20.6067 47.9544 21.1123C48.0788 21.3206 48.1773 21.5946 48.1073 21.8379C48.0659 21.9819 47.9637 22.0818 47.8312 22.146C47.173 22.4649 45.9357 22.1319 45.2709 21.9142C44.4329 21.6176 43.632 21.365 42.7286 21.4867C42.5089 21.2334 42.316 20.988 42.1942 20.6732C43.1485 20.0546 44.397 20.1112 45.4922 20.0592Z" fill="#1C1C1C"/>
<path d="M35.4993 16.7012C35.5285 16.698 35.5578 16.6951 35.5871 16.6925C36.3212 16.6263 37.0693 16.9311 37.6252 17.4006C38.7075 18.3144 38.9364 19.5744 39.0556 20.91C38.4747 21.159 38.0765 21.4814 37.6376 21.934L37.4862 21.6967C37.2633 21.3575 36.9451 21.1109 36.724 20.7843C36.5299 20.4978 36.4484 20.1105 36.3507 19.7816L36.4046 19.7581C36.6135 19.6663 36.8684 19.5646 36.9481 19.3291C36.9917 19.2002 36.9563 19.0672 36.895 18.9505C36.8044 18.7785 36.6559 18.6253 36.5213 18.4865C35.8807 17.8259 35.1317 17.4693 34.2554 17.2228C34.6262 16.946 35.0468 16.7824 35.4993 16.7012Z" fill="#1C1C1C"/>
<path d="M62.339 51.1716L62.3696 51.165L62.4108 51.1916C62.4205 51.4378 62.3423 51.7074 62.2819 51.945C61.7676 52.1731 61.2329 52.3531 60.7065 52.5514C59.4791 53.0138 58.2462 53.4448 57.0062 53.8713C53.9776 54.9293 50.9342 55.9426 47.8759 56.9113C42.2768 58.6795 36.6208 60.2415 30.9078 61.5971C30.3014 61.7401 28.4986 62.2435 27.9734 62.2014C27.2865 62.1463 23.9033 60.377 23.0851 59.9575C22.9519 59.8893 22.8219 59.8136 22.691 59.7409C22.8972 59.5723 23.1464 59.4338 23.3699 59.2876C23.8232 59.4759 24.2476 59.7438 24.6786 59.978C25.4581 60.4015 26.282 60.8364 27.1083 61.1576C27.3529 61.2527 27.6104 61.3272 27.8751 61.322C28.2796 61.3141 28.6867 61.1883 29.0856 61.1232C30.912 60.8251 32.7117 60.4192 34.5106 59.9843C38.1065 59.1332 41.6802 58.1971 45.2318 57.1762C48.7833 56.1553 52.3085 55.0508 55.8076 53.8625C58.0315 53.0848 60.1866 52.1257 62.339 51.1716Z" fill="#1C1C1C"/>
<path d="M3.69958 42.1071C3.80479 42.1272 3.90943 42.1498 4.0135 42.175C8.03799 43.1766 12.0117 44.2012 15.0291 47.2335C15.5314 47.7384 16.0634 48.2905 16.4311 48.9017C15.9974 49.7274 15.6119 50.6035 15.4083 51.516C15.2542 51.2505 15.0818 50.9974 14.8911 50.7568C14.5696 50.3513 12.9065 48.714 12.4636 48.6961C12.4147 48.6941 12.4269 48.6978 12.3928 48.7365C12.3819 49.0295 12.8402 49.3186 13.0425 49.4928C13.9696 50.2912 14.7149 51.2153 15.2528 52.319C15.1962 52.8 15.112 53.2766 15.0661 53.759C15.019 54.2529 15.0107 54.7514 14.9448 55.2431C14.8077 55.0471 14.6856 54.8388 14.553 54.6393C14.0649 53.9052 13.0325 52.8483 12.1345 52.6666L12.1016 52.793C12.1094 52.8202 12.1098 52.8508 12.1252 52.8745C12.1982 52.9866 12.767 53.3694 12.9075 53.4865C13.1149 53.6589 13.3113 53.843 13.4968 54.0387C14.1329 54.7137 14.4972 55.4947 14.9808 56.2666C15.0303 58.0408 15.3294 59.6517 15.9339 61.3217C13.536 60.6149 11.2408 59.3569 9.41464 57.6422C6.26332 54.6831 4.97732 50.6668 4.23721 46.5214C4.06385 45.5396 3.92817 44.5526 3.83018 43.5605C3.77875 43.0781 3.71492 42.5921 3.69958 42.1071Z" fill="#1C1C1C"/>
<path d="M29.8868 42.195C29.9644 42.1812 30.0182 42.1623 30.0922 42.198C30.1104 42.2294 30.1151 42.2326 30.1228 42.274C30.1544 42.4448 29.9991 43.7512 29.9728 44.002C29.5821 47.7159 28.5141 52.1639 26.4055 55.2932C24.2894 58.4335 20.3006 60.7842 16.6187 61.4943C16.581 61.1151 16.6259 60.7254 16.6629 60.3474C16.8939 57.9885 18.1896 55.8531 20.0849 54.4522C20.313 54.2836 21.5586 53.5111 21.6274 53.3819C21.6057 53.3335 21.6169 53.3225 21.5749 53.3116C21.4167 53.2703 21.109 53.4527 20.966 53.5253C18.8008 54.6244 17.3093 56.3112 16.5549 58.6226C16.409 59.1478 16.3115 59.6828 16.2177 60.2192C15.2813 57.0795 15.1878 53.984 17.9528 51.6953C18.8634 50.9417 19.9337 50.3816 20.8705 49.6503C21.071 49.4937 21.4755 49.2328 21.5522 48.9911C21.5687 48.9394 21.5616 48.9528 21.5306 48.9025C21.4925 48.9077 21.4895 48.9066 21.447 48.9216C21.1018 49.044 20.5314 49.5274 20.1811 49.7381C18.1627 50.9522 16.5422 51.7634 15.6171 54.0918C15.779 52.1064 16.1804 50.1802 17.3737 48.5327C19.7828 45.2066 25.9559 42.8134 29.8868 42.195Z" fill="#1C1C1C"/>
<path d="M13.3753 20.7513C13.4529 20.8084 13.5272 20.8686 13.601 20.9304C14.4838 21.6699 15.2709 22.5354 16.0231 23.4045C19.8202 27.7922 22.2189 33.2454 23.4217 38.8916C23.5769 39.5905 23.7101 40.2935 23.8211 41.0008C23.9322 41.708 24.0209 42.4181 24.0873 43.1309C23.1208 43.5337 22.1749 43.98 21.2496 44.4699C20.7432 44.743 20.2425 45.1311 19.7008 45.3249C19.4032 45.4314 19.0438 45.4361 18.7307 45.4932C18.9982 45.0318 19.1846 44.5609 19.2829 44.0353C19.366 43.5909 19.4264 41.6027 19.145 41.2963C19.0832 41.2289 19.0621 41.233 18.9768 41.2305C18.9202 41.2876 18.9325 41.2574 18.9225 41.3346C18.8841 41.6351 18.9816 41.9811 18.9918 42.2854C19.0355 43.5961 18.7775 44.6509 17.9918 45.7076C17.4149 45.9195 16.8682 46.1665 16.3133 46.43C16.2593 45.6424 16.2241 44.8305 16.111 44.0498C16.3507 43.5663 16.6701 43.1165 17.0274 42.7133C17.4778 42.2051 18.0271 41.7145 18.3291 41.0992C18.7729 40.1953 18.8412 37.8334 18.4937 36.9027C18.4564 36.8029 18.4235 36.7451 18.3271 36.6985C18.227 36.7331 18.2022 36.7784 18.1938 36.8868C18.1691 37.2044 18.2658 37.5638 18.2896 37.8855C18.3284 38.4109 18.2801 39.0004 18.2142 39.5207C18.1627 39.9274 18.1005 40.3645 17.9405 40.7451C17.7191 41.2719 17.274 41.6719 16.9012 42.0922C16.5765 42.4582 16.2592 42.8333 15.9894 43.2422C15.865 41.8959 15.7217 40.5135 15.5007 39.1801C15.9344 38.5853 16.4004 38.0142 16.8348 37.4201C17.6366 36.323 17.6769 35.5014 17.4628 34.1665C17.4127 33.8535 17.2246 32.7827 16.9922 32.6144C16.9144 32.6293 16.9116 32.6242 16.8633 32.6857C16.8604 33.0519 16.9928 33.4539 17.0465 33.8198C17.4011 36.2343 16.7389 36.6824 15.4013 38.4913C15.2687 37.3788 14.9748 36.0584 14.9211 34.976C14.8843 34.2353 14.9692 33.4767 15.02 32.7377C15.0548 32.2971 15.1072 31.8541 15.1323 31.4133C15.144 31.2079 15.1076 30.996 14.9611 30.8421C14.7965 30.6693 14.5499 30.6235 14.321 30.6224C13.9912 30.6208 13.6336 30.7486 13.4051 30.9921C13.2169 31.1927 13.0799 31.4817 13.1174 31.7615C13.1784 32.2157 13.6048 32.9925 13.7797 33.4585C14.0202 34.0989 14.29 34.7721 14.4513 35.4357C14.6003 36.0485 14.6746 36.6907 14.7647 37.3148C14.8292 37.7613 14.9108 38.2177 14.9239 38.669L14.9252 38.7192C14.7884 38.625 14.6542 38.5273 14.5226 38.426C14.1573 38.1377 13.7936 37.8472 13.4317 37.5547C12.6977 36.9609 12.3394 36.5905 12.1106 35.6546C12.017 35.2734 11.9492 34.8877 11.9073 34.4975C11.8695 34.1304 11.9298 33.6863 11.8835 33.3777C11.8703 33.2894 11.8473 33.1916 11.7731 33.1382C11.7077 33.1841 11.6952 33.2062 11.665 33.2815C11.4012 33.9409 11.7405 36.1519 12.033 36.7833C12.3149 37.392 14.409 39.0952 15.0351 39.3287C15.2474 40.5568 15.3109 41.8326 15.4423 43.0729C14.866 42.9008 14.4278 42.6608 13.9244 42.3377C12.8282 41.6341 12.4021 41.1565 12.0554 39.8836C11.9643 39.5495 11.8518 39.1904 11.8085 38.8472C11.7615 38.476 11.8093 37.7988 11.6129 37.4949C11.5331 37.4542 11.5401 37.4556 11.4546 37.4832C11.3887 37.549 11.3598 37.6049 11.3425 37.6955C11.1831 38.5321 11.761 40.9431 12.2879 41.6779C12.7731 42.3544 13.9756 43.1158 14.7533 43.4366C15.0049 43.5405 15.2561 43.5999 15.5231 43.6496C15.6682 44.7436 15.7333 45.8726 15.7817 46.9751C15.1226 46.3142 14.4202 45.7029 13.6746 45.1413C13.2497 44.8266 12.8002 44.5475 12.3711 44.2385C12.2099 43.6933 12.0553 43.1476 11.9757 42.5831C11.9523 42.4173 11.9564 42.2501 11.937 42.0839C11.9213 41.9481 11.9062 41.8702 11.7964 41.7842C11.6953 41.7731 11.6968 41.769 11.6137 41.8264C11.3724 42.2742 11.6471 43.416 11.7651 43.912C11.3211 43.747 10.8905 43.525 10.4535 43.3397C9.79116 43.0558 9.11307 42.8163 8.41926 42.6213C7.66103 36.1782 8.59012 29.7952 11.5269 23.9718C12.0844 22.8662 12.6615 21.7656 13.3753 20.7513Z" fill="#1C1C1C"/>
<path d="M24.813 3.52599C25.2341 3.47662 25.6889 3.49756 26.1128 3.50633C27.5741 3.53658 29.0472 3.70649 30.502 3.85073C34.0475 4.20223 37.5712 4.77361 41.1097 5.18816C42.5998 5.36624 44.0916 5.52868 45.5851 5.67547C46.8394 5.78903 48.1037 5.85479 49.353 6.01255C49.729 6.06003 50.1444 6.09355 50.4751 6.29427C50.5865 6.36192 50.6934 6.45646 50.7224 6.5891C50.8467 7.15867 49.5345 8.67912 49.1939 9.16484C47.9849 10.8886 48.0492 12.3571 48.3961 14.349C47.7084 14.4697 47.1364 14.7096 46.5043 14.9889C46.5712 14.6583 46.6819 14.34 46.7627 14.0129C46.8403 13.7005 46.9016 13.3849 46.9465 13.0662C46.9914 12.7474 47.0198 12.4272 47.0315 12.1055C46.4606 12.2426 45.9085 12.4697 45.3451 12.6381C45.8493 12.0422 46.2356 11.3643 46.595 10.6749C45.1879 10.4931 44.0885 10.3481 42.6832 10.7321C42.7076 10.6287 42.7287 10.5246 42.7466 10.4198C42.8344 9.89651 42.8751 8.54931 42.5382 8.12715C42.5001 8.07939 42.441 8.03723 42.3787 8.03363C42.0925 8.01719 40.9146 8.89601 40.6842 9.09233C39.9659 9.70438 39.3469 10.6009 39.2736 11.5651C38.9096 11.4623 38.5326 11.4063 38.1605 11.3399C38.466 10.4696 38.6127 9.63948 38.6319 8.71818C37.1924 9.11064 35.7214 9.67054 34.7993 10.8975C34.5824 10.5784 34.3661 10.2582 34.1017 9.97573C33.3353 9.15685 32.1859 8.60745 31.0963 8.38548C31.0808 9.49484 31.381 10.6379 31.7842 11.6594C31.266 12.176 30.8604 12.6808 30.4976 13.3159C29.8809 12.2875 28.845 11.5876 27.7459 11.1488C27.6765 11.4132 27.6236 11.6881 27.5878 11.9589C27.4173 13.2505 27.6055 14.3987 28.4029 15.4417C27.9685 15.4296 27.4692 15.2822 27.0573 15.455C26.1531 14.8706 25.195 14.5084 24.1695 14.2064C24.1676 14.9585 24.2494 15.7364 24.4802 16.4538C24.5776 16.7561 24.9345 17.3628 24.9407 17.5984C24.9255 17.611 24.9129 17.6275 24.8952 17.6363C24.841 17.6631 24.6333 17.6484 24.5545 17.6563C24.3611 17.6754 24.1721 17.7157 23.9877 17.7773C23.0445 18.0832 22.1644 18.5684 21.2055 18.8438C20.741 18.3626 20.3406 17.7691 20.0524 17.1664C19.9654 16.9844 19.9088 16.7913 19.821 16.6114C19.7396 16.587 19.7604 16.5916 19.6928 16.6255C19.6399 16.6977 19.6168 16.7618 19.5999 16.8502C19.4625 17.5684 19.9993 18.2971 20.3969 18.8518C20.621 19.1647 20.8611 19.4647 21.1175 19.7518C21.3738 20.0389 21.6447 20.3114 21.9303 20.5694C23.0825 21.629 24.3944 22.529 25.6722 23.4303C26.5682 24.0622 27.4548 24.7651 28.468 25.2013C29.5429 25.664 30.7666 25.8585 31.9139 26.0471C33.3391 26.2852 34.7733 26.441 36.2164 26.5143C40.4222 26.6892 45.6431 26.0509 49.4719 24.2064C50.2667 23.8235 51.0494 23.3418 51.7648 22.826C52.4524 22.3303 55.2266 20.1557 55.2947 19.3829C55.3029 19.2898 55.2765 19.2536 55.2228 19.1814C55.1242 19.1322 55.031 19.1088 54.9193 19.1187C54.6988 19.1382 54.529 19.3823 54.3882 19.5335C54.1777 19.1923 54.0054 18.8272 53.7973 18.4839C53.312 17.683 52.6704 16.7941 51.9694 16.1712C52.1317 15.776 52.2742 15.3821 52.3753 14.9665C51.5151 14.9728 50.6878 15.1065 49.8454 15.2698C50.0082 14.9693 50.1693 14.671 50.3092 14.3589C49.8809 14.2763 49.4694 14.2767 49.0353 14.2806C49.009 14.1407 48.9815 14.001 48.9526 13.8616C48.3577 10.8834 49.4175 10.1092 50.9429 7.82454C50.7014 8.71792 50.2729 9.55356 50.215 10.4867C50.2325 10.788 50.2821 11.0649 50.386 11.3488C50.921 12.8112 52.5457 14.8263 53.5841 15.9792C54.3987 16.8836 55.4758 17.8805 55.9968 18.9795C56.4483 19.9317 56.3796 21.6248 56.4151 22.6777C56.4279 23.0544 56.418 23.456 56.5165 23.8221C56.6521 24.3265 57.1061 24.7255 57.3101 25.2161C57.8974 26.6285 58.3232 28.1105 58.7266 29.584C59.0594 30.7996 59.3072 32.0392 59.5378 33.2773C60.2816 37.2728 60.6213 41.3182 60.7788 45.3756C60.8252 46.5693 60.7936 47.7647 60.8415 48.9576C61.2739 49.4783 61.7425 49.9574 62.2274 50.4289C59.0399 52.0541 55.5918 53.2152 52.1954 54.3146C47.1798 55.9222 42.1166 57.3624 37.0059 58.6353C35.3316 59.0719 33.6509 59.482 31.9638 59.8655C31.0738 60.0667 30.1677 60.3112 29.2572 60.3926C28.9132 60.4233 28.2995 60.4519 28.0268 60.2102C27.8545 60.0575 27.7566 59.8115 27.7031 59.593C27.571 59.0527 27.5721 58.4549 27.5445 57.9002C27.5003 56.9351 27.4642 55.9697 27.4361 55.004C27.776 54.3882 28.104 53.7745 28.3844 53.1288C29.9017 49.6359 30.7745 45.1347 30.8504 41.3416C28.771 41.5257 26.7159 42.171 24.7665 42.8891C24.2415 37.5692 22.6148 32.2138 19.891 27.5988C19.4031 26.7722 18.8802 25.9479 18.3293 25.1625C18.0595 24.7778 17.757 24.4176 17.495 24.0275C17.7147 23.4553 18.1083 22.9516 18.4133 22.421C18.3884 22.3345 18.3641 22.2477 18.3405 22.1607C17.8676 20.4324 17.8519 18.1747 18.5446 16.5101C18.983 15.4566 19.6554 14.4629 20.2435 13.4871C21.0075 12.2171 21.7602 10.9403 22.5015 9.65688C22.8558 9.0351 23.7867 7.52586 23.81 6.87805C23.8238 6.49468 23.6588 6.06262 23.5581 5.69554C24.0975 5.98753 24.6249 6.29982 25.1404 6.63241C25.6558 6.96495 26.1576 7.31682 26.646 7.68803C26.9892 7.9539 27.2878 8.39914 27.6603 8.60088C27.6856 8.58696 27.7191 8.5702 27.7396 8.55009C27.8065 8.48415 27.8168 8.44206 27.8033 8.35235C27.7728 8.149 27.5962 7.89073 27.4861 7.72032C26.597 6.34348 25.1204 5.82232 23.843 4.92736C23.6277 4.77656 23.3446 4.56924 23.3062 4.28994C23.2887 4.16265 23.3227 4.05342 23.4044 3.95496C23.6962 3.60345 24.3935 3.56193 24.813 3.52599Z" fill="#1C1C1C"/>
<path d="M20.2175 24.1541C20.2634 24.1789 20.3093 24.2013 20.3449 24.2408C20.5151 24.4298 20.6477 24.6877 20.8025 24.8949C21.0721 25.2558 21.3925 25.592 21.7134 25.9085C22.8196 26.9995 24.3124 27.9937 25.6517 28.7765C25.8727 28.9086 26.0959 29.0369 26.3213 29.1615C26.5467 29.2861 26.7741 29.4069 27.0035 29.5238C27.2329 29.6408 27.4642 29.7538 27.6974 29.863C27.9306 29.9722 28.1656 30.0775 28.4023 30.1788C28.6391 30.2801 28.8774 30.3774 29.1174 30.4707C29.3574 30.564 29.599 30.6533 29.8419 30.7385C30.0849 30.8237 30.3293 30.9048 30.575 30.9818C30.8207 31.0588 31.0677 31.1316 31.3159 31.2004C31.564 31.2691 31.8132 31.3336 32.0636 31.394C32.3139 31.4543 32.5652 31.5104 32.8174 31.5624C33.0696 31.6143 33.3226 31.662 33.5764 31.7054C33.8302 31.7488 34.0847 31.788 34.3399 31.8228C34.595 31.8577 34.8506 31.8883 35.1068 31.9146C35.3629 31.941 35.6195 31.963 35.8764 31.9807C36.1332 31.9984 36.3903 32.0118 36.6477 32.0208C36.905 32.0299 37.1624 32.0347 37.4199 32.0351C39.0178 32.0225 40.6163 31.8228 42.1873 31.5411C44.4223 31.1403 46.6675 30.5001 48.7199 29.519C49.3754 29.2057 50.0254 28.8624 50.6392 28.4733C51.4998 27.9305 52.3445 27.3638 53.1733 26.7734C53.9357 26.2335 54.7172 25.6364 55.5351 25.1872C55.7146 25.0886 55.9698 24.9577 56.1765 24.9677C56.3558 24.9764 56.5902 25.1275 56.7077 25.2571C57.1592 25.7554 57.534 27.3719 57.7151 28.0359C57.9832 29.019 58.1939 30.0131 58.411 31.0083C58.6426 32.0768 58.852 33.1496 59.0391 34.2268C59.2262 35.304 59.3909 36.3845 59.5332 37.4685C59.6754 38.5526 59.7952 39.6391 59.8924 40.7281C59.9896 41.817 60.0641 42.9076 60.116 43.9996C60.2209 45.9507 60.3033 48.0584 60.1446 50.0022C60.119 50.317 60.0743 51.1776 59.8251 51.3889C59.8228 51.3833 59.8205 51.3777 59.8181 51.3722C59.6155 50.9138 59.5384 45.659 59.4962 44.7972C59.2259 39.2688 58.6127 33.6336 57.1806 28.2759C56.9538 27.4276 56.7479 26.2377 56.1544 25.5822C55.4875 25.8328 54.8407 26.3496 54.2613 26.7608C53.3182 27.43 52.3987 28.1326 51.4444 28.7861C51.173 28.9759 50.8964 29.1579 50.6147 29.332C50.3329 29.5061 50.0465 29.6722 49.7554 29.8301C49.4642 29.988 49.1689 30.1375 48.8693 30.2787C48.5697 30.4199 48.2663 30.5525 47.9592 30.6765C44.5071 32.1084 39.6027 32.9816 35.8765 32.7593C35.7454 32.7526 35.6143 32.7448 35.4833 32.7359C35.3524 32.7269 35.2215 32.7169 35.0907 32.7057C34.9599 32.6944 34.8292 32.6821 34.6985 32.6687C34.568 32.6552 34.4375 32.6406 34.3072 32.6249C34.1768 32.6092 34.0466 32.5923 33.9166 32.5744C33.7865 32.5564 33.6566 32.5373 33.5269 32.5171C33.3972 32.4968 33.2677 32.4755 33.1383 32.4531C33.009 32.4306 32.8799 32.407 32.7509 32.3823C32.622 32.3576 32.4932 32.3318 32.3648 32.3049C32.2362 32.278 32.108 32.25 31.98 32.2208C31.852 32.1917 31.7242 32.1615 31.5967 32.1301C31.4692 32.0988 31.342 32.0663 31.2151 32.0328C31.0882 31.9992 30.9616 31.9646 30.8352 31.9289C30.7089 31.8931 30.5829 31.8563 30.4572 31.8184C30.3315 31.7805 30.2062 31.7414 30.0811 31.7013C29.9561 31.6613 29.8315 31.6201 29.7072 31.5779C29.5829 31.5356 29.4589 31.4923 29.3354 31.448C29.2118 31.4036 29.0887 31.3581 28.9659 31.3116C28.8431 31.2651 28.7208 31.2175 28.5988 31.1689C28.4769 31.1203 28.3554 31.0706 28.2343 31.0199C28.1132 30.9691 27.9926 30.9174 27.8724 30.8646C27.7522 30.8117 27.6324 30.7579 27.5132 30.703C27.3939 30.6481 27.2751 30.5922 27.1568 30.5353C27.0385 30.4783 26.9207 30.4203 26.8035 30.3614C26.6862 30.3024 26.5694 30.2424 26.4531 30.1814C26.3369 30.1204 26.2212 30.0584 26.106 29.9954C25.9908 29.9324 25.8762 29.8684 25.7621 29.8034C25.648 29.7384 25.5345 29.6725 25.4216 29.6055C25.3087 29.5386 25.1964 29.4707 25.0846 29.4018C24.9728 29.3329 24.8617 29.263 24.7511 29.1922C24.6405 29.1214 24.5306 29.0496 24.4213 28.9769C24.312 28.9042 24.2033 28.8306 24.0953 28.756C22.8726 27.9161 21.7211 26.9733 20.739 25.8572C20.5343 25.6245 19.8443 24.8613 19.9 24.5316C19.9287 24.3622 20.0899 24.2493 20.2175 24.1541Z" fill="white"/>
</g>
<defs>
<clipPath id="clip0_107_4641">
<rect width="66" height="66" rx="10" fill="white"/>
</clipPath>
</defs>
</svg>
