<svg width="32" height="32" viewBox="0 0 32 32" fill="none" xmlns="http://www.w3.org/2000/svg">
<rect width="32" height="32" rx="12" fill="#1C1C1C"/>
<path d="M23.6041 3.55965C23.8089 3.55079 24.0157 3.55311 24.2206 3.5584C25.0761 3.58047 26.766 3.70446 27.3814 4.36382C27.4581 4.44595 27.5346 4.54896 27.5522 4.66217C27.5699 4.77572 27.5595 4.90277 27.5615 5.01789C27.5669 5.22264 27.5738 5.42732 27.5823 5.63195C27.5909 5.89188 27.6046 6.15153 27.6234 6.41091C27.6345 6.57365 27.6536 6.73894 27.6535 6.90205C27.6533 7.16298 27.628 7.4277 27.6168 7.6888L27.5599 9.21376L27.3297 15.018C27.2924 15.8115 27.2613 16.6053 27.2364 17.3993C28.2404 17.9285 29.276 18.6655 29.7836 19.714C29.7934 19.7341 29.803 19.7542 29.8123 19.7746C29.8217 19.7949 29.8308 19.8153 29.8396 19.8358C29.8484 19.8564 29.857 19.877 29.8653 19.8978C29.8736 19.9185 29.8817 19.9394 29.8895 19.9603C29.8973 19.9813 29.9048 20.0023 29.9121 20.0235C29.9193 20.0446 29.9263 20.0658 29.9331 20.0872C29.9398 20.1085 29.9463 20.1299 29.9525 20.1513C29.9587 20.1728 29.9647 20.1944 29.9703 20.216C29.976 20.2376 29.9814 20.2593 29.9867 20.2811C29.9916 20.3028 29.9964 20.3246 30.001 20.3465C30.0056 20.3684 30.01 20.3903 30.0142 20.4123C30.0182 20.4343 30.0219 20.4563 30.0253 20.4784C30.0288 20.5005 30.032 20.5226 30.0351 20.5448C30.0379 20.5669 30.0406 20.5891 30.0431 20.6114C30.0454 20.6336 30.0475 20.6558 30.0494 20.6781C30.0511 20.7004 30.0526 20.7227 30.054 20.745C30.0553 20.7673 30.0564 20.7897 30.0571 20.812C30.0577 20.8343 30.0581 20.8567 30.0583 20.8791C30.0585 20.9014 30.0584 20.9238 30.058 20.9461C30.0576 20.9685 30.0569 20.9908 30.056 21.0132C30.055 21.0355 30.0538 21.0578 30.0523 21.0801C30.0507 21.1024 30.049 21.1247 30.0471 21.147C30.045 21.1692 30.0426 21.1915 30.0399 21.2136C30.0373 21.2359 30.0344 21.258 30.0313 21.2802C30.0281 21.3023 30.0247 21.3244 30.021 21.3464C30.0172 21.3685 30.0132 21.3904 30.009 21.4124C30.0048 21.4343 30.0003 21.4562 29.9955 21.4781C29.9906 21.4999 29.9854 21.5217 29.9801 21.5434C29.9748 21.5651 29.9692 21.5867 29.9633 21.6083C29.9574 21.6298 29.9512 21.6513 29.9448 21.6728C29.9384 21.6942 29.9317 21.7155 29.9247 21.7367C29.9178 21.758 29.9106 21.7791 29.9031 21.8002C29.4849 22.9924 28.3707 23.9101 27.2965 24.5048C26.8677 24.7422 26.4216 24.9358 25.9682 25.1206C25.7271 25.2188 25.4841 25.3054 25.2371 25.3877C25.078 25.4407 24.9035 25.4838 24.7539 25.5602C24.5901 25.6439 24.4534 25.8124 24.3021 25.9223C24.1048 26.0673 23.9015 26.2033 23.6921 26.3301C23.4827 26.457 23.2681 26.5743 23.0482 26.682C19.2991 28.4814 13.6713 28.5565 9.81815 27.0622C9.17634 26.8133 8.54642 26.5133 7.97855 26.1216C7.86551 26.0436 7.75262 25.9636 7.64743 25.8752C7.5547 25.7974 7.46218 25.6953 7.35685 25.636C7.14702 25.5178 6.84987 25.4476 6.6197 25.3667C6.14263 25.1928 5.68399 24.9987 5.22674 24.7784C4.03739 24.2054 2.55135 23.2159 2.10026 21.9099C1.84267 21.164 1.88899 20.4193 2.23535 19.7101C2.7465 18.6633 4.10623 17.6178 5.1944 17.2457C5.18781 17.2217 5.18154 17.1977 5.17558 17.1735C5.04624 16.6507 4.89058 15.6075 4.9799 15.0969C5.00551 14.9505 5.06068 14.8159 5.13843 14.6894C5.62982 13.8904 6.82618 13.4967 7.69458 13.2893C7.803 12.8184 8.09811 12.3373 8.47398 12.033C8.4972 12.0139 8.52089 11.9955 8.54505 11.9776C8.56919 11.9598 8.59376 11.9425 8.61878 11.9259C8.6438 11.9092 8.66922 11.8932 8.69504 11.8779C8.72086 11.8625 8.74705 11.8478 8.77361 11.8338C8.80018 11.8198 8.82707 11.8064 8.85431 11.7937C8.88154 11.781 8.90907 11.769 8.93689 11.7577C8.96474 11.7465 8.99284 11.7359 9.0212 11.726C9.04958 11.7161 9.07817 11.7069 9.10699 11.6984C9.13583 11.69 9.16485 11.6823 9.19405 11.6753C9.22326 11.6683 9.25265 11.6621 9.28219 11.6565C9.31171 11.651 9.34136 11.6463 9.37113 11.6422C9.40091 11.6382 9.43076 11.6349 9.46068 11.6324C9.49063 11.6299 9.52061 11.6281 9.55063 11.6271C9.58065 11.6261 9.61068 11.6258 9.64072 11.6263C9.67076 11.6268 9.70076 11.6281 9.73073 11.6301C9.76071 11.6321 9.79061 11.6348 9.82044 11.6383C10.337 11.6958 10.7746 11.9617 11.097 12.3645C11.3559 12.2557 11.6121 12.1771 11.896 12.1893C12.5078 12.2154 12.9513 12.5786 13.3462 13.0095C13.4385 13.0183 13.5306 13.0285 13.6227 13.0399C14.7264 13.1814 16.6534 13.6509 17.3613 14.577C17.5799 14.863 17.6461 15.1544 17.6003 15.5071C18.2546 15.5182 18.9 15.5527 19.5489 15.6428C19.8915 15.6904 20.2303 15.7597 20.5702 15.8224C20.5693 15.7819 20.5667 15.7416 20.5646 15.7012C20.4716 13.9591 20.4457 12.2126 20.3716 10.4695L20.2658 8.04269C20.2465 7.62524 20.2064 7.20013 20.2087 6.78268C20.2096 6.61665 20.2323 6.44715 20.248 6.28181C20.281 5.93659 20.3208 5.5913 20.3482 5.24569C20.3638 5.04892 20.3337 4.8235 20.3753 4.63332C20.3975 4.53209 20.4594 4.44266 20.5283 4.36718C21.1305 3.70708 22.7484 3.59944 23.6041 3.55965Z" fill="#1C1C1C"/>
<path d="M20.3602 19.3877C20.4226 19.3857 20.5158 19.3687 20.5666 19.4055C20.575 19.4334 20.5783 19.4509 20.5741 19.4805C20.5613 19.569 20.4844 19.6613 20.4111 19.708C20.3036 19.7763 20.1967 19.7777 20.0765 19.7482C20.0484 19.7359 20.0217 19.7229 19.9951 19.7074C19.9352 19.6726 19.8863 19.6465 19.8682 19.5753C19.8762 19.5421 19.8786 19.5279 19.9035 19.5029C20.0135 19.3929 20.2149 19.388 20.3602 19.3877Z" fill="white"/>
<path d="M15.5609 18.9912C15.7012 19.0023 16.317 19.154 16.3842 19.2558C16.402 19.2827 16.4034 19.3118 16.3904 19.3408C16.3707 19.3849 16.3242 19.4062 16.2842 19.428C16.2652 19.434 16.2459 19.4392 16.2265 19.4436C16.0215 19.4888 15.7171 19.4329 15.5454 19.3121C15.5003 19.2804 15.4611 19.236 15.457 19.1786C15.4519 19.1067 15.5165 19.0401 15.5609 18.9912Z" fill="white"/>
<path d="M18.6621 19.0047C18.7855 19.0962 18.9262 19.1726 19.0415 19.2731C19.0796 19.3064 19.1224 19.3543 19.1184 19.4088C19.1147 19.4603 19.0702 19.5018 19.0299 19.5284C18.9187 19.6017 18.7732 19.5664 18.6521 19.5418C18.4716 19.4859 18.2934 19.4209 18.1149 19.3587C18.307 19.2565 18.4836 19.1285 18.6621 19.0047Z" fill="white"/>
<path d="M21.2231 18.6918C21.2276 18.6911 21.2321 18.6901 21.2366 18.6897C21.3296 18.6801 21.4136 18.7408 21.4799 18.7998C21.5592 18.8704 21.6504 18.9764 21.6534 19.0887C21.6547 19.1392 21.6353 19.1839 21.5998 19.2195C21.4707 19.3488 21.1933 19.3543 21.0219 19.3552C20.8102 19.3357 20.8405 19.1349 20.5605 19.1172C20.7615 18.9613 20.9902 18.7944 21.2231 18.6918Z" fill="white"/>
<path d="M8.99774 22.2479C9.23871 22.3067 9.49867 22.466 9.74909 22.5446C10.6532 22.8282 11.5427 22.8345 12.4724 22.6992C12.4963 22.865 12.5329 23.021 12.5813 23.1815C12.301 23.23 12.0181 23.2705 11.7338 23.2857C10.9768 23.3259 9.76485 23.177 9.19846 22.6598C9.06626 22.539 9.00519 22.4264 8.99774 22.2479Z" fill="white"/>
<path d="M13.7233 13.868C14.5719 13.9653 16.0131 14.3235 16.5849 14.9688C16.6811 15.0775 16.7516 15.2092 16.7379 15.3584C16.7209 15.5425 16.5784 15.6682 16.4483 15.7824C16.3422 15.8715 16.2247 15.9489 16.1057 16.0197C16.0943 15.935 16.0814 15.8488 16.0609 15.7658C15.9386 15.269 15.6296 14.8663 15.1931 14.603C14.749 14.3351 14.2802 14.2951 13.7841 14.4189C13.7752 14.234 13.755 14.0504 13.7233 13.868Z" fill="white"/>
<path d="M7.60297 14.1567C7.64296 14.2596 7.63322 14.3776 7.67776 14.485C7.61107 14.5702 7.54694 14.6583 7.49291 14.7521C7.19869 15.2628 7.18477 15.7929 7.33195 16.3503C7.01808 16.2422 6.72503 16.0995 6.43894 15.9318C6.23123 15.7992 5.9452 15.6013 5.89433 15.3412C5.868 15.2067 5.92341 15.082 6.00081 14.9747C6.26375 14.6101 6.72308 14.4361 7.13146 14.293C7.28572 14.239 7.44106 14.1823 7.60297 14.1567Z" fill="white"/>
<path d="M13.545 13.3726C14.2616 13.4313 15.2361 13.6885 15.9036 13.9694C16.3934 14.1756 17.046 14.5112 17.2548 15.0349C17.3328 15.2306 17.3237 15.446 17.2377 15.6371C17.0081 16.147 16.1611 16.5539 15.6487 16.7454C13.2082 17.6574 9.03711 17.7032 6.66096 16.6159C6.18355 16.3974 5.52796 16.0308 5.34326 15.5064C5.27559 15.3143 5.28637 15.1239 5.37583 14.9408C5.65498 14.3697 6.46016 14.0321 7.03273 13.8359C7.18616 13.7874 7.34084 13.7391 7.49734 13.7014C7.53148 13.6932 7.59336 13.6727 7.62249 13.6909L7.61307 13.8252C7.16026 13.9088 6.54684 14.1427 6.1643 14.3888C5.91056 14.552 5.64229 14.8001 5.58122 15.109C5.53808 15.3274 5.60605 15.5374 5.73144 15.7154C6.27038 16.4803 7.91875 16.8992 8.8094 17.0466C10.7608 17.3695 12.8577 17.3446 14.7789 16.8544C15.3794 16.7012 16.0273 16.4871 16.5336 16.1215C16.7662 15.9535 16.9767 15.7312 17.0198 15.4359C17.0541 15.2003 16.9821 14.978 16.8389 14.7924C16.2476 14.0265 14.5447 13.669 13.6186 13.5524L13.545 13.3726Z" fill="white"/>
<path d="M9.52585 11.9235C9.57745 11.9185 9.62912 11.9204 9.68083 11.9231C10.1371 11.9462 10.5482 12.198 10.8467 12.5303C10.3311 12.8854 10.0222 13.454 9.86118 14.0453C9.57945 13.9067 9.34607 13.8399 9.032 13.8275C8.60243 13.8451 8.24063 13.9866 7.90699 14.2577C7.89722 13.6472 7.98024 13.057 8.3734 12.5635C8.66989 12.1913 9.05589 11.9791 9.52585 11.9235Z" fill="white"/>
<path d="M14.1661 14.6586C14.5241 14.6123 14.9081 14.7488 15.1889 14.9662C15.5866 15.2741 15.7674 15.6836 15.8312 16.1719C15.4162 16.348 14.9928 16.4776 14.5566 16.589C14.1757 16.6721 13.7935 16.7577 13.4047 16.7936C13.4214 16.2291 13.3584 15.8473 13.0612 15.3574C13.3564 14.974 13.6748 14.7277 14.1661 14.6586Z" fill="white"/>
<path d="M8.91749 14.143C9.01365 14.1346 9.10968 14.1358 9.20558 14.1467C9.70307 14.2076 10.0655 14.5295 10.3644 14.9072C10.2833 14.9863 10.2047 15.0671 10.1311 15.1534C9.70806 15.6502 9.59345 16.2159 9.64329 16.8515C9.46519 16.8231 9.28667 16.7975 9.10773 16.7749C8.62184 16.6974 8.15113 16.6055 7.68248 16.4534C7.62399 16.2885 7.57042 16.1232 7.54805 15.9489C7.54461 15.922 7.54184 15.895 7.53974 15.8679C7.53764 15.8408 7.53622 15.8137 7.53547 15.7865C7.53473 15.7594 7.53465 15.7322 7.53524 15.7051C7.53584 15.6779 7.53711 15.6508 7.53905 15.6237C7.541 15.5966 7.54362 15.5695 7.5469 15.5426C7.55021 15.5156 7.55417 15.4887 7.55879 15.462C7.56341 15.4352 7.56869 15.4086 7.57463 15.382C7.58057 15.3555 7.58717 15.3292 7.59443 15.303C7.60168 15.2768 7.60959 15.2508 7.61815 15.2251C7.62668 15.1993 7.63586 15.1737 7.64567 15.1484C7.65549 15.123 7.66593 15.098 7.67698 15.0732C7.68804 15.0484 7.69971 15.0238 7.71199 14.9996C7.72427 14.9754 7.73714 14.9514 7.7506 14.9278C7.76407 14.9042 7.77811 14.881 7.79274 14.8581C7.80735 14.8352 7.82252 14.8127 7.83826 14.7905C7.854 14.7684 7.87028 14.7466 7.8871 14.7253C8.15187 14.3904 8.49371 14.194 8.91749 14.143Z" fill="white"/>
<path d="M11.4445 14.7881C11.5245 14.786 11.6043 14.7901 11.6838 14.8003C12.1095 14.853 12.4879 15.0997 12.7482 15.4349C13.0762 15.8571 13.1499 16.3278 13.0858 16.8453C12.6065 16.9252 12.0946 16.9377 11.609 16.9493C11.0506 16.9563 10.5008 16.9237 9.94454 16.8813C9.91406 16.2879 9.96488 15.8226 10.3581 15.3478C10.6385 15.0092 11.0106 14.8275 11.4445 14.7881Z" fill="white"/>
<path d="M11.7679 12.4964C11.7773 12.4955 11.7867 12.4941 11.7961 12.4937C12.1894 12.4739 12.581 12.6813 12.8573 12.9475C13.2948 13.369 13.4864 13.9448 13.4982 14.541C13.243 14.7137 13.0546 14.8727 12.8697 15.1212C12.6423 14.8886 12.4361 14.732 12.1364 14.6028C12.0755 14.5802 12.0144 14.5573 11.9517 14.5401C11.4986 14.4156 11.0166 14.4997 10.6121 14.7315C10.4624 14.5481 10.3116 14.3723 10.1328 14.2163C10.2335 13.8183 10.3752 13.4631 10.6371 13.142C10.9346 12.7772 11.2945 12.5455 11.7679 12.4964Z" fill="white"/>
<path d="M23.9862 7.0831C24.4411 7.08004 24.8962 7.15314 25.3394 7.25071C25.6641 7.32221 26.5999 7.55404 26.7574 7.82142C26.7933 7.88238 26.7921 7.93549 26.7733 8.00157C26.7057 8.06898 26.4128 8.12552 26.3138 8.15448C26.0572 8.22954 25.805 8.31917 25.5466 8.38798C25.0205 8.52805 24.4872 8.58108 23.9438 8.58291C23.061 8.58535 22.5059 8.41929 21.6702 8.18373C21.5389 8.14672 21.2788 8.10043 21.1695 8.02818C21.1361 8.00607 21.1198 7.97565 21.1151 7.93597C21.1074 7.87155 21.1569 7.79893 21.1976 7.7541C21.5306 7.38726 22.3837 7.3964 22.8493 7.3031C23.2358 7.22564 23.5878 7.10361 23.9862 7.0831Z" fill="white"/>
<path d="M17.5379 16.015C18.5996 15.9961 19.5519 16.1252 20.5813 16.3703C20.6045 16.6584 20.6079 16.9497 20.6182 17.2387L20.662 18.4575C20.4882 18.4259 20.3163 18.4045 20.1404 18.3893C19.9747 18.1872 19.7986 17.9945 19.6121 17.8114C19.5196 17.7339 19.4163 17.6728 19.2928 17.6664C18.9668 17.6493 18.6697 18.05 18.4466 18.2476C17.9371 18.0451 17.7607 18.2833 17.3371 18.4453C17.1804 18.5053 16.9898 18.5236 16.8245 18.5544C17.2139 17.7416 17.4931 16.9222 17.5379 16.015Z" fill="white"/>
<path d="M23.5535 25.8704L23.5951 25.8701C23.5546 25.9242 23.4259 25.9742 23.3642 26.0075C22.8904 26.2628 22.4193 26.4868 21.9118 26.6688C18.9632 27.7263 15.5277 27.9006 12.4576 27.3121C11.3306 27.096 10.2461 26.7841 9.20721 26.2928C8.98839 26.1889 8.77867 26.0723 8.57062 25.9484C9.16705 26.1193 9.78394 26.2482 10.3934 26.3635C14.5615 27.1521 19.455 26.9445 23.5535 25.8704Z" fill="white"/>
<path d="M24.7049 21.5413C24.7557 21.6568 24.7123 21.9266 24.6895 22.05C24.5557 22.7729 24.003 23.3943 23.4136 23.7969C21.4163 25.1611 18.4576 25.4991 16.1214 25.0563C15.0204 24.8477 13.6869 24.315 13.0375 23.3636C12.9112 23.1518 12.8444 22.9622 12.79 22.7231C13.1803 23.2988 13.8238 23.686 14.467 23.9218C15.0194 24.1244 15.5915 24.2374 16.1729 24.317C16.2657 24.3301 16.3587 24.342 16.4519 24.3529C16.545 24.3637 16.6383 24.3735 16.7317 24.3821C16.825 24.3907 16.9185 24.3982 17.0121 24.4046C17.1056 24.4111 17.1992 24.4164 17.2929 24.4205C17.3866 24.4247 17.4803 24.4278 17.5741 24.4297C17.6678 24.4317 17.7616 24.4325 17.8554 24.4322C17.9491 24.4319 18.0429 24.4305 18.1366 24.428C18.2304 24.4255 18.3241 24.4218 18.4177 24.4171C18.5114 24.4123 18.605 24.4065 18.6985 24.3995C18.792 24.3925 18.8854 24.3844 18.9787 24.3752C19.072 24.366 19.1652 24.3557 19.2583 24.3443C19.3514 24.3329 19.4443 24.3203 19.5371 24.3067C19.6299 24.2931 19.7225 24.2783 19.8149 24.2625C19.9073 24.2467 19.9996 24.2297 20.0916 24.2117C20.1836 24.1937 20.2754 24.1745 20.367 24.1543C20.4585 24.1341 20.5499 24.1128 20.6409 24.0904C21.3235 23.9284 21.9769 23.7216 22.6141 23.425C23.531 22.9982 24.3389 22.5424 24.7049 21.5413Z" fill="white"/>
<path d="M23.5434 3.8908C24.4009 3.84026 26.3623 3.94657 27.0532 4.49606C27.141 4.56592 27.2258 4.65911 27.2343 4.7765C27.2406 4.86275 27.2015 4.94445 27.1452 5.00761C26.6983 5.50886 25.0225 5.63224 24.3654 5.66962C23.5109 5.68595 21.4745 5.61485 20.8221 5.03623C20.7497 4.97198 20.6749 4.89403 20.6708 4.79154C20.6671 4.70196 20.7194 4.62201 20.7798 4.56016C21.2963 4.03085 22.8255 3.91414 23.5434 3.8908Z" fill="white"/>
<path d="M22.5355 19.4775C22.6203 19.4818 22.7073 19.5133 22.788 19.5385C23.3354 19.7093 24.1053 20.0937 24.3773 20.6185C24.524 20.9016 24.4948 21.1953 24.3992 21.4894C24.1409 22.2836 23.3826 22.7202 22.6816 23.0785C21.7692 23.545 20.6713 23.8514 19.661 24.0031C18.1908 24.224 16.2198 24.1817 14.796 23.7164C14.1171 23.4946 13.3062 23.0778 12.9769 22.4159C12.8631 22.1871 12.8174 21.9524 12.8996 21.7056C13.0981 21.2555 13.5283 20.9741 13.9482 20.7523C13.9898 20.8414 14.0209 20.929 14.049 21.0233C13.9438 21.2858 13.699 21.477 13.6189 21.7526C13.5904 21.8506 13.5877 21.9557 13.6411 22.0459C13.7644 22.254 14.0649 22.3337 14.2821 22.3941C14.3558 22.5172 14.4184 22.6525 14.503 22.7681C14.5389 22.817 14.5817 22.8601 14.6463 22.856C14.7404 22.8501 14.8314 22.8061 14.9267 22.8018C15.2714 22.7861 15.6256 22.8965 15.9344 23.0398C16.1165 23.1244 16.2949 23.2159 16.4923 23.2594C16.7836 23.3236 17.0248 23.1564 17.3035 23.1795C17.5264 23.1981 17.7011 23.3743 17.9217 23.3996C18.1346 23.4241 18.3276 23.2963 18.4881 23.1733C18.607 23.2135 18.7362 23.2669 18.864 23.2427C19.0865 23.2006 19.3029 22.9581 19.572 22.8963C19.8547 22.8314 20.1307 22.9429 20.4149 22.9105C20.6911 22.8789 20.9009 22.7017 21.16 22.6268C21.3556 22.5703 21.5649 22.6246 21.7651 22.5708C22.1428 22.4694 22.0714 22.2271 22.2789 22.0213C22.5485 21.7537 22.9311 21.9406 23.2271 21.4402L23.2364 21.4244C23.304 21.308 23.4213 21.2384 23.4862 21.1262C23.5435 21.0273 23.5637 20.9198 23.5332 20.8085C23.4856 20.635 23.3601 20.5492 23.2142 20.4636C23.2486 20.3695 23.272 20.2769 23.2663 20.1759C23.2434 19.7706 22.7832 19.7112 22.5456 19.4874C22.5422 19.4842 22.5389 19.4808 22.5355 19.4775Z" fill="white"/>
<path d="M27.224 5.29883C27.2416 5.3151 27.309 6.47371 27.3181 6.62828C27.33 6.83158 27.3058 7.04319 27.2954 7.24677C27.2759 7.59814 27.2612 7.9497 27.2513 8.30146C27.2019 9.98652 27.1372 11.671 27.0572 13.3549L26.8425 18.4769C26.8236 18.8875 26.8084 19.2984 26.797 19.7093C26.7893 19.961 26.7917 20.2169 26.7638 20.4674C26.7409 20.6734 26.6728 20.9043 26.5286 21.0596C26.1853 21.4291 25.4906 21.5213 25.0132 21.5463C24.9707 21.1467 24.784 20.8229 24.6309 20.4583C25.225 20.4473 25.9779 20.2965 26.4587 19.9251C26.529 19.8708 26.6294 19.789 26.6393 19.6969C26.6669 19.4405 26.6677 19.1827 26.6763 18.925L26.716 17.8296L26.8468 14.2455C26.9129 12.6861 26.9679 11.1264 27.0118 9.5662C27.0237 9.00116 27.0648 8.43105 27.0429 7.86598C27.0397 7.78483 27.0015 7.70282 26.9571 7.63601C26.6846 7.22635 25.4849 6.97026 25.0081 6.87994C24.6337 6.81554 24.2548 6.76157 23.8738 6.77667C23.4763 6.79242 23.0948 6.92929 22.7078 7.00784C22.268 7.0971 21.8089 7.12325 21.3877 7.28845C21.3517 7.30295 21.3166 7.31942 21.2824 7.33787C21.2483 7.35632 21.2153 7.37663 21.1834 7.3988C21.1516 7.42097 21.1211 7.44486 21.0919 7.47047C21.0627 7.49608 21.0351 7.52325 21.009 7.552C20.9215 7.64902 20.8569 7.74828 20.8455 7.88242C20.8171 8.21884 20.8524 8.57749 20.8624 8.91622C20.8794 9.58633 20.9004 10.2563 20.9253 10.9261C20.9971 13.4213 21.0976 15.9153 21.227 18.4082C21.162 18.4258 21.0987 18.4502 21.0353 18.4728C21.0188 17.6649 20.9733 16.8586 20.9432 16.0512L20.713 10.362C20.6816 9.62209 20.6534 8.88082 20.612 8.14153C20.5875 7.70367 20.5365 7.25336 20.5384 6.81511C20.5393 6.62762 20.5623 6.4373 20.5777 6.25047L20.6583 5.30184C21.2448 5.70156 22.013 5.83714 22.7077 5.91595C23.8631 6.04703 26.2821 6.04926 27.224 5.29883Z" fill="white"/>
<path d="M19.244 17.9629C19.2945 17.9711 19.3474 17.9873 19.3897 18.0169C19.6195 18.1784 20.0503 18.7502 20.274 18.9909L20.2303 19.0949C20.1788 19.1051 20.1275 19.1162 20.0763 19.1282C19.9017 19.1708 19.6983 19.2492 19.6055 19.4135C19.5616 19.491 19.5529 19.5796 19.5799 19.6643C19.6264 19.8102 19.7573 19.9196 19.8911 19.9841C19.9019 19.9894 19.9129 19.9944 19.9241 19.9991C19.9352 20.0039 19.9464 20.0083 19.9578 20.0125C19.9691 20.0167 19.9806 20.0205 19.9921 20.0241C20.0037 20.0277 20.0153 20.031 20.027 20.034C20.0387 20.037 20.0505 20.0397 20.0623 20.0421C20.0742 20.0445 20.0861 20.0466 20.098 20.0485C20.11 20.0503 20.122 20.0518 20.134 20.0529C20.146 20.0542 20.1581 20.055 20.1702 20.0556C20.1822 20.0562 20.1943 20.0565 20.2064 20.0565C20.2185 20.0565 20.2306 20.0562 20.2427 20.0555C20.2547 20.0549 20.2668 20.054 20.2788 20.0527C20.2908 20.0515 20.3028 20.0499 20.3148 20.0481C20.3267 20.0462 20.3386 20.0441 20.3504 20.0417C20.3623 20.0392 20.3741 20.0365 20.3857 20.0334C20.3974 20.0304 20.4091 20.027 20.4206 20.0234C20.4321 20.0198 20.4436 20.0159 20.4549 20.0117C20.6347 19.943 20.7477 19.8133 20.8249 19.6421C21.0554 19.6604 21.4335 19.6597 21.639 19.5411C21.7282 19.4897 21.8254 19.4041 21.9224 19.3741C22.1269 19.311 22.2772 19.6511 22.4128 19.7533C22.5078 19.825 22.6277 19.8637 22.7312 19.9221C23.2265 20.2014 22.8246 20.3671 22.9115 20.5985C22.9447 20.687 23.0636 20.7072 23.1425 20.7371C23.1883 20.7544 23.2112 20.772 23.232 20.8178C23.2383 20.8867 23.2126 20.9893 23.1809 21.051C23.1166 21.1756 23.0135 21.0818 22.9129 21.1127C22.8721 21.1436 22.8456 21.1838 22.8377 21.2357C22.8271 21.3057 22.8766 21.3621 22.9129 21.4177C22.662 21.604 22.2149 21.6132 22.0226 21.8651C21.964 21.9417 21.9348 22.042 21.8913 22.1278C21.8527 22.2041 21.8044 22.2627 21.7217 22.2918C21.5402 22.3557 21.3286 22.2925 21.1388 22.3403C20.8653 22.4091 20.629 22.6058 20.3461 22.6367C20.0565 22.6684 19.8104 22.5461 19.5021 22.6158C19.2263 22.6782 19.0324 22.8544 18.7769 22.9361C18.6943 22.9179 18.6134 22.8865 18.5297 22.8746C18.2218 22.8308 18.2405 23.0398 18.0164 23.0792C17.8053 23.1162 17.6348 22.912 17.4252 22.8861C17.1543 22.8526 16.8946 22.941 16.6277 22.9695C16.4092 22.941 16.2417 22.8339 16.0492 22.7368C15.6265 22.5235 15.1827 22.4705 14.717 22.5069C14.6231 22.363 14.5638 22.1145 14.3746 22.0844C14.2875 22.0705 14.1923 22.0671 14.1096 22.0346C14.0523 22.0122 13.9962 21.9666 13.9769 21.9059C13.927 21.7493 14.3038 21.3856 14.3707 21.2067C14.4626 20.9605 14.2471 20.6559 14.1468 20.4356C14.4186 20.2756 14.7452 20.2222 15.0358 20.1027C15.2776 20.0033 15.4807 19.8424 15.6882 19.6871C15.7227 19.6955 15.7573 19.7033 15.7921 19.7106C16.0326 19.7612 16.2857 19.7574 16.4966 19.6136C16.5867 19.5522 16.6646 19.4644 16.6808 19.3532C16.7003 19.2186 16.64 19.1059 16.5656 19L16.6715 18.8831C16.9358 18.839 17.2406 18.8597 17.4869 18.746C17.592 18.6975 17.6872 18.6236 17.7878 18.5661C17.9626 18.4663 18.0995 18.4684 18.2866 18.5185C18.3136 18.6278 18.3366 18.6781 18.4336 18.7431L18.4485 18.7529L18.4444 18.7564L18.4641 18.7648C18.3891 18.9238 17.9721 19.0803 17.8526 19.1774C17.8166 19.2067 17.7926 19.2459 17.7898 19.2929C17.7856 19.3636 17.824 19.4346 17.8691 19.4863C18.0338 19.6753 18.5565 19.8408 18.8085 19.8508C18.9808 19.8576 19.1629 19.8046 19.288 19.6818C19.3642 19.607 19.4414 19.4932 19.4396 19.3819C19.4361 19.1593 19.0559 18.9278 18.8822 18.8201C18.8107 18.7758 18.71 18.7303 18.6538 18.6679C18.623 18.6337 18.6094 18.6016 18.6099 18.5554C18.7286 18.3494 19.0256 18.0575 19.244 17.9629Z" fill="white"/>
<path d="M15.3762 20.4142C15.426 20.4089 15.481 20.4036 15.53 20.416C15.6763 20.4531 16.0711 20.7857 16.145 20.9207C16.1819 20.9883 16.1923 21.064 16.1676 21.1378C16.1218 21.2749 15.9853 21.3612 15.8631 21.4236C15.7777 21.4507 15.7149 21.4593 15.6305 21.4233C15.4319 21.3386 15.1808 21.0507 15.1062 20.8486C15.0758 20.7663 15.0719 20.678 15.1124 20.5983C15.1667 20.4914 15.2678 20.4487 15.3762 20.4142Z" fill="#1C1C1C"/>
<path d="M15.3744 20.6844C15.5432 20.7098 15.7598 20.9024 15.8639 21.0357C15.866 21.0787 15.8435 21.091 15.8172 21.1231C15.7801 21.1437 15.7716 21.1481 15.7296 21.1484C15.6709 21.1209 15.6248 21.0792 15.5806 21.0325C15.5052 20.9529 15.3719 20.7957 15.3744 20.6844Z" fill="white"/>
<path d="M18.268 20.455C18.3838 20.4417 18.5316 20.4739 18.6411 20.512C18.7321 20.5438 18.8238 20.597 18.8642 20.6889C18.9052 20.7821 18.8839 20.8889 18.8461 20.9794C18.763 21.1784 18.6025 21.3209 18.406 21.402C18.2917 21.433 18.1516 21.4426 18.0373 21.4042C17.9552 21.3766 17.885 21.3213 17.8469 21.2427C17.8013 21.1484 17.813 21.0484 17.8482 20.953C17.9244 20.7465 18.0674 20.5511 18.268 20.455Z" fill="#1C1C1C"/>
<path d="M18.3292 20.7491C18.375 20.7485 18.4287 20.7524 18.474 20.7607C18.515 20.7682 18.5359 20.7837 18.5602 20.8177C18.5659 20.8467 18.5683 20.8645 18.5598 20.8937C18.5307 20.9935 18.4193 21.0715 18.3339 21.1209C18.283 21.1318 18.2139 21.1514 18.1625 21.1371C18.1235 21.1262 18.1202 21.1128 18.1071 21.079C18.1219 20.957 18.2413 20.8297 18.3292 20.7491Z" fill="white"/>
<path d="M17.3717 19.9006C17.3915 19.9016 17.4112 19.9038 17.4308 19.9059C17.5266 19.9162 17.6151 19.9515 17.6748 20.0307C17.7335 20.1087 17.7496 20.2066 17.7306 20.3011C17.6909 20.4988 17.5071 20.8004 17.3371 20.911C17.2225 20.9856 17.1283 20.9922 16.9976 20.9631C16.9826 20.9553 16.9683 20.9477 16.954 20.9385C16.8215 20.8531 16.6284 20.7218 16.5965 20.5578C16.5811 20.4789 16.6048 20.4049 16.6502 20.3402C16.7857 20.1469 17.1406 19.9353 17.3717 19.9006Z" fill="#1C1C1C"/>
<path d="M17.3435 20.1814C17.3694 20.1803 17.3921 20.1832 17.4178 20.1864L17.4369 20.2141C17.4391 20.2498 17.436 20.276 17.4248 20.3103C17.3905 20.4158 17.2679 20.6503 17.1569 20.6878C17.1168 20.7014 17.0901 20.6823 17.0552 20.6666C16.9921 20.6193 16.9381 20.5665 16.8825 20.5109C17.0106 20.3698 17.1749 20.2671 17.3435 20.1814Z" fill="white"/>
<path d="M19.3334 20.9738C19.3419 20.9746 19.3504 20.9752 19.3589 20.9763C19.455 20.9881 19.536 21.0333 19.5911 21.1139C19.6779 21.2407 19.6774 21.4124 19.6455 21.5569C19.6001 21.7619 19.4623 22.0459 19.2779 22.1569C19.1499 22.234 19.01 22.183 18.8767 22.1493C18.7789 22.119 18.6613 22.0995 18.573 22.0474C18.5244 22.0187 18.4872 21.9812 18.4766 21.9238C18.4541 21.8024 18.5404 21.6713 18.6073 21.576C18.7753 21.3366 19.0297 21.0277 19.3334 20.9738Z" fill="#1C1C1C"/>
<path d="M19.2928 21.264C19.3156 21.2696 19.3267 21.2692 19.3448 21.286C19.3787 21.3174 19.3898 21.356 19.3879 21.4009C19.3804 21.5774 19.2563 21.7896 19.1255 21.9026C19.0537 21.8952 18.986 21.8824 18.9159 21.8662L18.778 21.8166C18.9208 21.6132 19.0888 21.4075 19.2928 21.264Z" fill="white"/>
<path d="M16.7973 21.3456C16.8586 21.3391 16.9216 21.3341 16.9832 21.3411C17.124 21.357 17.2578 21.4425 17.3456 21.5514C17.4395 21.6682 17.4877 21.8181 17.4697 21.9677C17.4565 22.078 17.4074 22.1769 17.3186 22.2453C17.1223 22.3965 16.8654 22.3388 16.6413 22.3039C16.4455 22.2589 16.2312 22.2189 16.056 22.1155C15.9794 22.0703 15.901 22.003 15.8798 21.9126C15.8662 21.8544 15.8806 21.7969 15.9117 21.7468C16.0598 21.5079 16.5436 21.3971 16.7973 21.3456Z" fill="#1C1C1C"/>
<path d="M16.8974 21.6055C16.9078 21.6064 16.9181 21.6076 16.9284 21.609C17.0113 21.6204 17.0714 21.6614 17.1207 21.7284C17.1609 21.7832 17.2081 21.8737 17.1916 21.9445C17.1825 21.9834 17.1644 22.0101 17.1303 22.0308C16.992 22.1147 16.7234 22.0311 16.5731 21.998C16.4325 21.9644 16.3009 21.9195 16.1696 21.8589C16.3669 21.7567 16.6785 21.6456 16.8974 21.6055Z" fill="white"/>
<path d="M21.4799 19.623C21.4909 19.6271 21.502 19.6312 21.5127 19.6359C21.5632 19.6584 21.6075 19.6864 21.6261 19.7412C21.6668 19.8614 21.5641 20.0092 21.5096 20.1096C21.6712 20.1534 21.8467 20.1921 21.9937 20.2744C22.0806 20.323 22.1654 20.3967 22.1901 20.4974C22.2063 20.5637 22.1907 20.6306 22.1543 20.6874C22.0467 20.8554 21.8132 20.932 21.6264 20.9676C21.3583 21.0187 21.0335 21.0158 20.7998 20.858C20.7309 20.9679 20.6531 21.0711 20.5412 21.1408C20.4257 21.2127 20.3194 21.223 20.1888 21.1939C20.03 21.1138 19.8833 20.9788 19.7398 20.8715C19.6248 20.7855 19.476 20.6762 19.4592 20.5222C19.451 20.4474 19.4771 20.379 19.527 20.3237C19.6179 20.2229 19.7569 20.1674 19.8909 20.164C20.1655 20.1569 20.5715 20.2349 20.7736 20.4336C20.8673 20.2947 21.0023 20.2274 21.1006 20.1005C21.1965 19.9768 21.2335 19.81 21.3433 19.6965C21.3819 19.6566 21.4285 19.6406 21.4799 19.623Z" fill="#1C1C1C"/>
<path d="M21.3022 20.3513C21.4577 20.3496 21.798 20.4805 21.9322 20.5665C21.8369 20.6158 21.7431 20.65 21.64 20.6794C21.4973 20.7106 21.2244 20.7486 21.0946 20.6721C21.0587 20.651 21.052 20.6332 21.041 20.5946C21.0689 20.4768 21.2071 20.4115 21.3022 20.3513Z" fill="white"/>
<path d="M19.8524 20.4574C20.0183 20.4514 20.3899 20.4738 20.5126 20.5983C20.5378 20.6239 20.553 20.6561 20.5508 20.6927C20.546 20.7739 20.4748 20.8321 20.4193 20.8826C20.3868 20.9026 20.3523 20.9263 20.3121 20.9199C20.2341 20.9076 19.8108 20.5838 19.7542 20.5183C19.7739 20.4833 19.8171 20.4725 19.8524 20.4574Z" fill="white"/>
<path d="M5.32489 16.0638C5.36823 16.1026 5.40547 16.1526 5.44747 16.1937C6.76578 17.4854 9.81197 17.753 11.5637 17.7316C13.1225 17.7125 16.0652 17.3583 17.2119 16.1815C17.2028 16.2688 17.1918 16.356 17.179 16.4429C17.1662 16.5299 17.1515 16.6164 17.1349 16.7027C17.1184 16.789 17.1 16.8749 17.0797 16.9604C17.0595 17.0459 17.0374 17.1309 17.0135 17.2155C16.9896 17.3 16.9639 17.384 16.9364 17.4675C16.9088 17.5509 16.8795 17.6337 16.8484 17.7159C16.8174 17.7981 16.7846 17.8795 16.75 17.9603C16.7154 18.0411 16.6791 18.1211 16.6411 18.2003C16.527 18.4376 16.3932 18.6639 16.2742 18.8986C16.0578 18.8344 15.7287 18.6719 15.5063 18.7266C15.3715 18.7598 15.3058 18.8463 15.2384 18.9588C15.1821 19.0679 15.1252 19.2108 15.1636 19.3338C15.1975 19.4421 15.2791 19.487 15.3736 19.5345C15.0657 19.8283 14.6725 19.9108 14.285 20.0432C14.1715 20.082 14.0412 20.127 13.9461 20.2022C13.8579 20.2718 13.842 20.3683 13.8294 20.4745C13.7162 20.5268 13.6045 20.5805 13.4957 20.6417C13.069 20.882 12.5998 21.2741 12.5515 21.7966C12.5334 21.993 12.5626 22.1745 12.5079 22.3685C12.2622 22.4426 11.9746 22.4564 11.718 22.469C10.1891 22.5438 8.84492 21.9938 7.71965 20.9713C6.66463 20.0126 5.96945 18.7818 5.57717 17.4191C5.45231 16.9853 5.34629 16.5154 5.32489 16.0638Z" fill="white"/>
<path d="M21.1582 8.33008C21.6983 8.50445 22.2373 8.68652 22.7951 8.79715C23.5989 8.95656 24.489 8.95424 25.289 8.77268C25.7744 8.66251 26.246 8.49029 26.7273 8.36296C26.7218 9.19799 26.6823 10.0376 26.6528 10.8723C26.6126 12.1917 26.5651 13.5108 26.5102 14.8296C26.4516 16.2821 26.4335 17.7383 26.3583 19.1897C26.3571 19.3364 26.3553 19.4825 26.3477 19.6291C25.8386 20.0514 25.0033 20.1481 24.3672 20.124C23.8966 19.6123 23.1954 19.3305 22.539 19.1406C22.3445 19.0843 22.146 19.0432 21.9528 18.983C21.8369 18.7719 21.7415 18.635 21.5503 18.4812L21.1582 8.33008Z" fill="white"/>
<path d="M5.29773 17.6313C5.30552 17.6342 5.31529 17.6339 5.32107 17.6398C5.32732 17.6462 5.42154 17.9629 5.43786 18.0074C5.5501 18.313 5.66545 18.6219 5.80605 18.9158C5.83834 18.9823 5.8716 19.0484 5.90582 19.1139C5.94006 19.1795 5.97525 19.2445 6.01138 19.309C6.04751 19.3735 6.08458 19.4375 6.12258 19.5009C6.16061 19.5644 6.19955 19.6272 6.2394 19.6895C6.27926 19.7518 6.32002 19.8135 6.36169 19.8746C6.40336 19.9357 6.44591 19.9962 6.48934 20.056C6.53278 20.1158 6.5771 20.175 6.62228 20.2336C6.66745 20.2921 6.71347 20.35 6.76036 20.4072C6.80724 20.4644 6.85494 20.5209 6.90347 20.5767C6.952 20.6325 7.00133 20.6875 7.05148 20.7419C7.10163 20.7962 7.15256 20.8498 7.20428 20.9027C7.25601 20.9555 7.3085 21.0076 7.36175 21.0589C7.41499 21.1103 7.46898 21.1608 7.52371 21.2105C7.57844 21.2602 7.63389 21.3091 7.69006 21.3573C7.74622 21.4054 7.80308 21.4526 7.86064 21.4991C7.91818 21.5455 7.9764 21.5911 8.0353 21.6358C8.26415 21.8078 8.50618 21.9576 8.74935 22.1081C8.70948 22.233 8.68991 22.3546 8.71884 22.4845C8.77347 22.7295 8.98685 22.9047 9.18706 23.0355C10.1853 23.6874 11.5952 23.6918 12.7214 23.4506C12.7612 23.5119 12.8025 23.5722 12.8451 23.6315C13.6179 24.6935 15.1685 25.2119 16.4171 25.404C16.5367 25.4223 16.6565 25.4386 16.7767 25.453C16.8968 25.4674 17.0171 25.4799 17.1376 25.4904C17.2581 25.5009 17.3788 25.5095 17.4996 25.5161C17.6204 25.5228 17.7412 25.5274 17.8622 25.5302C17.9831 25.5329 18.1041 25.5337 18.225 25.5325C18.346 25.5313 18.4669 25.5282 18.5878 25.5231C18.7087 25.5181 18.8294 25.511 18.95 25.502C19.0707 25.4931 19.1911 25.4822 19.3114 25.4693C19.4317 25.4564 19.5518 25.4416 19.6716 25.4249C19.7914 25.4082 19.9109 25.3895 20.0301 25.3689C20.1493 25.3483 20.2682 25.3258 20.3867 25.3014C20.5051 25.2769 20.6232 25.2506 20.7408 25.2224C20.8585 25.1941 20.9756 25.164 21.0923 25.1319C21.2089 25.0999 21.325 25.066 21.4406 25.0303C21.5562 24.9945 21.6711 24.9569 21.7855 24.9174C21.8998 24.8779 22.0135 24.8366 22.1265 24.7934C22.687 24.5744 23.2301 24.3083 23.716 23.9507C24.455 23.4069 24.875 22.7668 25.0141 21.8601C25.5469 21.8578 26.2745 21.682 26.6909 21.3329C26.8716 21.1813 26.968 20.9936 27.0307 20.7689C27.131 20.4096 27.1151 20.0146 27.1269 19.644C27.1448 19.0835 27.1501 18.5145 27.1986 17.9558C27.8645 18.2718 28.7189 18.9664 29.1316 19.5739C29.5058 20.1247 29.646 20.7199 29.5188 21.3745C29.5022 21.4518 29.4814 21.528 29.4564 21.6031C29.0486 22.8643 27.7735 23.7115 26.6486 24.2807C25.3285 24.9487 23.8517 25.3391 22.4099 25.6441C18.1857 26.5379 13.5832 26.6275 9.36463 25.6664C8.67349 25.5123 7.99068 25.3274 7.31623 25.1116C5.73561 24.5924 3.44721 23.5766 2.66264 22.0047C2.38568 21.4498 2.33103 20.8313 2.53077 20.2415C2.95803 18.9798 4.16511 18.1948 5.29773 17.6313Z" fill="white"/>
<path d="M28.96 21.2421C29.0115 21.2402 29.0589 21.2403 29.1051 21.2672C29.1387 21.2868 29.1607 21.3158 29.1672 21.355C29.191 21.4978 28.9511 21.9382 28.8662 22.0728C28.3227 22.9335 27.422 23.4591 26.5309 23.8932C25.6204 24.3368 24.6955 24.6645 23.7091 24.8923C23.6844 24.8949 23.6588 24.8982 23.634 24.8978C23.5869 24.8969 23.5425 24.8604 23.5113 24.8271C23.4844 24.7985 23.4839 24.7787 23.4845 24.7413C23.5728 24.5721 23.9904 24.5313 24.161 24.4824C24.4558 24.398 24.749 24.3179 25.0383 24.215C26.1001 23.8373 27.6637 23.1098 28.374 22.1987C28.5195 22.012 28.6555 21.8181 28.7591 21.6046C28.8056 21.5089 28.8369 21.4021 28.888 21.3096C28.9049 21.279 28.9315 21.261 28.96 21.2421Z" fill="#1C1C1C"/>
<path d="M3.72876 19.4064C3.7662 19.4134 3.80172 19.4233 3.83473 19.443C3.87126 19.4648 3.90378 19.4945 3.90936 19.5393C3.92726 19.6829 3.61771 19.9867 3.53614 20.1222C3.29877 20.5163 3.19691 20.9634 3.30981 21.4151C3.57993 22.496 4.89181 23.2291 5.83315 23.6693C6.01032 23.7521 6.46513 23.9134 6.58453 24.001C6.61131 24.0206 6.6256 24.0404 6.62841 24.0746C6.63491 24.1545 6.5653 24.2328 6.51706 24.2882C6.48366 24.2835 6.45356 24.2759 6.4215 24.2651C6.21035 24.1941 6.00387 24.0982 5.80049 24.0078C4.83427 23.5785 3.62859 22.8837 3.14485 21.8966C3.13063 21.8681 3.11713 21.8392 3.10437 21.81C3.0916 21.7807 3.07957 21.7512 3.06828 21.7214C3.057 21.6916 3.04647 21.6615 3.03669 21.6312C3.02692 21.6008 3.01791 21.5702 3.00967 21.5395C3.00143 21.5087 2.99397 21.4777 2.98729 21.4465C2.98061 21.4153 2.97471 21.384 2.96961 21.3525C2.9645 21.321 2.96018 21.2895 2.95666 21.2578C2.95314 21.2261 2.95041 21.1943 2.94849 21.1625C2.94656 21.1307 2.94543 21.0988 2.94511 21.067C2.94478 21.0351 2.94526 21.0032 2.94653 20.9714C2.94781 20.9395 2.94988 20.9077 2.95275 20.8759C2.95563 20.8442 2.95929 20.8125 2.96376 20.781C2.96822 20.7494 2.97347 20.718 2.97952 20.6866C2.98556 20.6553 2.99238 20.6242 2.99999 20.5933C3.0076 20.5623 3.01598 20.5315 3.02513 20.501C3.03428 20.4705 3.04419 20.4402 3.05487 20.4101C3.15522 20.1199 3.44426 19.544 3.72876 19.4064Z" fill="#1C1C1C"/>
</svg>
