<svg width="32" height="32" viewBox="0 0 32 32" fill="none" xmlns="http://www.w3.org/2000/svg">
<rect width="32" height="32" rx="12" fill="#1C1C1C"/>
<path d="M26.9035 12.3542C27.7112 12.3622 28.516 12.6104 29.119 13.1637C29.8002 13.7888 30.1414 14.6413 30.1778 15.556C30.2792 18.0874 27.9696 20.9539 26.3476 22.7077C24.4031 24.8104 22.0257 26.8329 19.4669 28.1461C18.5075 28.6384 17.4777 29.0717 16.3873 29.1145C16.3615 29.1146 16.3358 29.1144 16.3101 29.1139C16.2843 29.1134 16.2585 29.1126 16.2328 29.1115C16.2071 29.1103 16.1814 29.1089 16.1557 29.1072C16.1299 29.1055 16.1043 29.1035 16.0786 29.1013C16.053 29.099 16.0273 29.0964 16.0017 29.0935C15.9761 29.0906 15.9506 29.0874 15.9251 29.0839C15.8995 29.0804 15.8741 29.0767 15.8487 29.0726C15.8232 29.0685 15.7978 29.0641 15.7725 29.0595C15.7472 29.0548 15.7219 29.0498 15.6967 29.0446C15.6715 29.0393 15.6463 29.0338 15.6212 29.028C15.5961 29.0221 15.5711 29.016 15.5462 29.0096C15.5212 29.0032 15.4964 28.9965 15.4716 28.9895C15.4468 28.9825 15.4221 28.9752 15.3974 28.9677C15.3728 28.9601 15.3483 28.9522 15.3238 28.9441C15.2994 28.936 15.2751 28.9276 15.2508 28.9189C15.2266 28.9102 15.2024 28.9012 15.1784 28.8919C15.1544 28.8827 15.1304 28.8731 15.1066 28.8633C15.0828 28.8535 15.0591 28.8434 15.0355 28.8331C15.0119 28.8227 14.9885 28.8121 14.9652 28.8012C14.9418 28.7903 14.9186 28.7791 14.8956 28.7676C14.8725 28.7562 14.8495 28.7445 14.8267 28.7325C14.8039 28.7205 14.7813 28.7083 14.7587 28.6958C14.7362 28.6833 14.7139 28.6705 14.6916 28.6575C14.6694 28.6445 14.6473 28.6312 14.6254 28.6177C14.6035 28.6041 14.5817 28.5903 14.5601 28.5763C14.5386 28.5623 14.5171 28.548 14.4959 28.5334C14.4746 28.5189 14.4535 28.5041 14.4326 28.4891C14.4117 28.4741 14.3909 28.4588 14.3704 28.4433C14.3498 28.4278 14.3294 28.412 14.3092 28.3961C14.289 28.3801 14.269 28.3639 14.2492 28.3474C14.2293 28.331 14.2097 28.3143 14.1903 28.2974C14.1708 28.2805 14.1516 28.2634 14.1325 28.246C13.538 27.7027 13.1412 26.9404 13.1094 26.1291C13.0774 25.311 13.3794 24.5389 13.9219 23.9321C14.3988 23.3987 14.7413 23.3107 15.3126 22.9837C15.6057 22.816 15.8858 22.6249 16.1628 22.4321C17.1678 21.7326 18.2041 20.8659 19.0918 20.0193C19.4556 19.6778 19.8122 19.3288 20.1613 18.9722C20.5104 18.6157 20.8519 18.2519 21.1857 17.881C21.5194 17.51 21.8453 17.1321 22.1631 16.7474C22.4809 16.3627 22.7905 15.9714 23.0918 15.5736C23.3055 15.293 23.5061 15.0033 23.6935 14.7045C23.9951 14.2261 24.2737 13.7341 24.6617 13.318C25.2594 12.6771 26.0411 12.3876 26.9035 12.3542Z" fill="#1C1C1C"/>
<path d="M26.7851 12.7976C26.7933 12.7968 26.8015 12.7959 26.8097 12.7953C27.5156 12.7427 28.2778 13.0125 28.8043 13.4807C29.407 14.0167 29.6865 14.7672 29.7274 15.5605C29.8416 17.7719 27.7628 20.4667 26.3586 22.0306C24.2884 24.3365 21.2151 27.0024 18.3378 28.1681C17.7586 28.4028 17.1513 28.6166 16.5219 28.6505C16.4993 28.6517 16.4767 28.6527 16.4541 28.6534C16.4315 28.6541 16.4089 28.6545 16.3863 28.6547C16.3636 28.6549 16.341 28.6548 16.3184 28.6544C16.2958 28.654 16.2732 28.6534 16.2506 28.6525C16.228 28.6516 16.2054 28.6504 16.1828 28.6489C16.1603 28.6475 16.1377 28.6458 16.1152 28.6438C16.0926 28.6418 16.0701 28.6395 16.0477 28.637C16.0252 28.6345 16.0028 28.6317 15.9803 28.6286C15.9579 28.6256 15.9356 28.6222 15.9133 28.6186C15.8909 28.6151 15.8686 28.6112 15.8464 28.6071C15.8241 28.6029 15.802 28.5986 15.7798 28.5939C15.7577 28.5893 15.7356 28.5844 15.7136 28.5792C15.6916 28.574 15.6696 28.5686 15.6478 28.5629C15.6259 28.5572 15.604 28.5512 15.5823 28.545C15.5606 28.5388 15.5389 28.5323 15.5173 28.5256C15.4957 28.5188 15.4742 28.5118 15.4528 28.5046C15.4313 28.4974 15.41 28.4899 15.3888 28.4821C15.3675 28.4744 15.3464 28.4664 15.3253 28.4581C15.3043 28.4498 15.2833 28.4413 15.2624 28.4326C15.2416 28.4238 15.2209 28.4148 15.2002 28.4056C15.1796 28.3963 15.1591 28.3868 15.1386 28.3771C15.1182 28.3673 15.0979 28.3574 15.0778 28.3471C15.0576 28.3369 15.0375 28.3264 15.0176 28.3157C14.9977 28.3051 14.9779 28.2941 14.9582 28.2829C14.9386 28.2718 14.919 28.2604 14.8996 28.2487C14.8802 28.2371 14.861 28.2252 14.8419 28.2131C14.8228 28.201 14.8038 28.1887 14.785 28.1762C14.7662 28.1636 14.7475 28.1509 14.729 28.1379C14.7105 28.1249 14.6921 28.1117 14.6739 28.0982C14.6557 28.0848 14.6377 28.0712 14.6198 28.0573C14.6019 28.0435 14.5842 28.0294 14.5667 28.0151C14.5491 28.0008 14.5318 27.9863 14.5146 27.9717C13.9903 27.5297 13.6293 26.9155 13.5729 26.2253C13.5114 25.473 13.7752 24.7829 14.2769 24.2255C14.6736 23.7846 15.0473 23.6501 15.5397 23.3723C15.7961 23.2277 16.0411 23.0673 16.283 22.8996C17.2179 22.2519 18.1081 21.5229 18.952 20.761C19.5605 20.2061 20.1498 19.6315 20.7198 19.0371C21.2898 18.4428 21.8393 17.83 22.3684 17.1988C22.7131 16.7968 23.0464 16.3855 23.3683 15.965C23.637 15.601 23.8933 15.2286 24.1372 14.8476C24.3672 14.4843 24.5803 14.1027 24.8607 13.775C25.3559 13.1961 26.0237 12.8543 26.7851 12.7976Z" fill="white"/>
<path d="M17.1077 23.9451C17.1856 23.9646 17.2232 24.0005 17.2754 24.0601C17.3434 24.1377 17.4343 24.2744 17.4165 24.384C17.4062 24.447 17.3764 24.4695 17.3271 24.5027C17.2212 24.4876 17.1583 24.4328 17.0947 24.3489C17.0381 24.2742 16.9904 24.1676 17.0069 24.0718C17.0183 24.0063 17.056 23.9799 17.1077 23.9451Z" fill="#1C1C1C"/>
<path d="M25.3544 18.0602C25.4435 18.0728 25.4784 18.1125 25.5342 18.1776C25.6003 18.2548 25.6906 18.3847 25.6705 18.492C25.6599 18.5489 25.6239 18.5763 25.5775 18.6045C25.5504 18.603 25.5223 18.6016 25.4957 18.5959C25.4152 18.5786 25.3299 18.4737 25.2902 18.407C25.2514 18.3417 25.2144 18.2436 25.242 18.1674C25.2642 18.1064 25.2974 18.0862 25.3544 18.0602Z" fill="#1C1C1C"/>
<path d="M27.7632 15.2103C27.7725 15.2111 27.7819 15.2113 27.7911 15.2127C27.9113 15.2307 28.0857 15.3904 28.1499 15.4904C28.1781 15.5345 28.2013 15.588 28.1829 15.6407C28.1679 15.6838 28.1316 15.7011 28.0942 15.7206C27.9631 15.7017 27.7871 15.5785 27.7077 15.4759C27.6746 15.4331 27.6471 15.3776 27.6591 15.3219C27.6718 15.2638 27.7164 15.2381 27.7632 15.2103Z" fill="#1C1C1C"/>
<path d="M25.1082 16.0031C25.1811 16.0093 25.2546 16.023 25.3221 16.0519C25.3917 16.0817 25.5052 16.1491 25.5257 16.2292C25.5313 16.251 25.5302 16.2745 25.5195 16.2943C25.4886 16.3512 25.4292 16.3748 25.3711 16.3947C25.2907 16.3846 25.2045 16.3655 25.1297 16.3331C25.0436 16.2958 24.962 16.2455 24.9255 16.1561C24.9269 16.1342 24.9236 16.1154 24.9371 16.0968C24.9751 16.0447 25.0477 16.0178 25.1082 16.0031Z" fill="#1C1C1C"/>
<path d="M25.8522 14.1398C25.8911 14.1407 25.9302 14.1462 25.9685 14.1533C26.0678 14.1718 26.2216 14.2399 26.273 14.333C26.2883 14.3607 26.2986 14.3936 26.2868 14.4245C26.2647 14.4824 26.2151 14.5112 26.161 14.5347C26.0815 14.531 26.0043 14.5207 25.929 14.4933C25.8552 14.4664 25.7241 14.4045 25.6986 14.3216C25.6913 14.2978 25.6919 14.2765 25.7016 14.2542C25.7264 14.1971 25.7971 14.1609 25.8522 14.1398Z" fill="#1C1C1C"/>
<path d="M22.1703 20.4643C22.2239 20.4609 22.2641 20.462 22.306 20.5018C22.4138 20.604 22.5035 20.7901 22.4978 20.9405C22.4952 21.0101 22.4671 21.0417 22.4171 21.0867C22.3556 21.086 22.3155 21.0784 22.2687 21.0353C22.164 20.9389 22.0864 20.7689 22.0889 20.6257C22.0902 20.5518 22.1172 20.5127 22.1703 20.4643Z" fill="#1C1C1C"/>
<path d="M19.753 23.9933C19.7592 23.9927 19.7653 23.992 19.7715 23.9916C19.8275 23.9884 19.8544 23.9983 19.8947 24.036C19.9865 24.1215 20.145 24.3339 20.1334 24.4624C20.1277 24.525 20.0949 24.5508 20.0486 24.5859C20.0329 24.5866 20.0172 24.5874 20.0015 24.587C19.9204 24.585 19.8594 24.5364 19.8067 24.4787C19.7258 24.3901 19.6609 24.2599 19.6698 24.1371C19.6747 24.0689 19.703 24.0366 19.753 23.9933Z" fill="#1C1C1C"/>
<path d="M22.2611 23.1309C22.267 23.1303 22.2728 23.1295 22.2787 23.1292C22.3343 23.126 22.3669 23.1399 22.4063 23.1774C22.5013 23.2679 22.6511 23.4712 22.6447 23.6048C22.6418 23.6661 22.6111 23.6943 22.5697 23.7338C22.5554 23.7343 22.5411 23.7349 22.5268 23.7345C22.4454 23.7321 22.3902 23.6829 22.3374 23.6252C22.2585 23.539 22.155 23.3795 22.1717 23.2554C22.1806 23.1895 22.2103 23.1662 22.2611 23.1309Z" fill="#1C1C1C"/>
<path d="M17.5857 26.3664C17.6397 26.3724 17.6735 26.3769 17.7128 26.4178C17.8127 26.5218 17.9467 26.7363 17.9374 26.8842C17.9339 26.9414 17.9048 26.9688 17.8646 27.0036C17.8479 27.0049 17.8522 27.0049 17.8319 27.0047C17.7503 27.0039 17.7021 26.9668 17.648 26.9081C17.5589 26.8114 17.4895 26.66 17.4989 26.5264C17.5041 26.4517 17.5292 26.4132 17.5857 26.3664Z" fill="#1C1C1C"/>
<path d="M19.5517 21.5977C19.5721 21.5969 19.5968 21.5948 19.6168 21.5991C19.6774 21.6124 19.7391 21.6959 19.7757 21.7438C19.8398 21.8278 19.9364 21.9837 19.9117 22.0917C19.897 22.1563 19.8621 22.1764 19.8091 22.2074C19.7999 22.2064 19.7908 22.2057 19.7817 22.2045C19.6903 22.1925 19.6088 22.1052 19.5559 22.0357C19.4929 21.953 19.4302 21.8321 19.4495 21.7243C19.4613 21.6588 19.4996 21.6322 19.5517 21.5977Z" fill="#1C1C1C"/>
<path d="M24.6303 20.6978C24.6482 20.698 24.6696 20.6971 24.6874 20.7007C24.7609 20.7159 24.8243 20.8149 24.8658 20.8737C24.9318 20.9671 25.0331 21.1307 25.0026 21.2478C24.9903 21.2949 24.9546 21.3161 24.917 21.3415C24.8312 21.3396 24.7909 21.3177 24.732 21.2544C24.6365 21.1514 24.539 20.9817 24.5481 20.8383C24.5525 20.7703 24.582 20.7407 24.6303 20.6978Z" fill="#1C1C1C"/>
<path d="M27.3748 17.8752C27.3931 17.8764 27.4117 17.8771 27.4295 17.8818C27.5214 17.9062 27.6094 18.0457 27.6575 18.1226C27.7076 18.2026 27.7817 18.3272 27.75 18.4246C27.7349 18.4712 27.6964 18.4895 27.6566 18.5114C27.6479 18.5103 27.6392 18.5095 27.6305 18.5083C27.5298 18.4935 27.4338 18.3762 27.3786 18.2985C27.3179 18.2131 27.2544 18.0883 27.2793 17.9804C27.2923 17.9245 27.3294 17.9027 27.3748 17.8752Z" fill="#1C1C1C"/>
<path d="M14.8058 25.4648C14.8211 25.4656 14.8364 25.4661 14.8516 25.4678C14.9125 25.4746 14.9492 25.5064 14.985 25.5528C15.0671 25.659 15.1712 25.8597 15.1498 25.9959C15.1413 26.0506 15.1113 26.0767 15.069 26.1086C14.9949 26.1027 14.9512 26.0909 14.8955 26.04C14.7916 25.945 14.7195 25.7939 14.7204 25.6522C14.721 25.5669 14.7447 25.5221 14.8058 25.4648Z" fill="#1C1C1C"/>
<path d="M22.8779 18.1048C22.8926 18.1056 22.9073 18.1062 22.9219 18.1083C22.9928 18.1183 23.0447 18.1902 23.0831 18.2447C23.1477 18.3367 23.2202 18.4886 23.195 18.6047C23.1812 18.6687 23.1414 18.6963 23.0902 18.7305C23.0663 18.7281 23.0631 18.7284 23.039 18.7235C22.9626 18.7083 22.8958 18.6264 22.8549 18.5651C22.7931 18.4726 22.7386 18.3346 22.7674 18.2218C22.7833 18.159 22.8257 18.1348 22.8779 18.1048Z" fill="#1C1C1C"/>
<path d="M18.1779 2.75763C18.2725 2.75961 18.3669 2.76583 18.461 2.77628C18.555 2.78672 18.6484 2.80136 18.7412 2.82018C18.834 2.83901 18.9257 2.86195 19.0164 2.889C19.1071 2.91606 19.1964 2.94712 19.2843 2.98218C19.3936 3.02453 19.5189 3.11357 19.636 3.12522C19.8231 3.14383 20.0174 3.12448 20.2061 3.13673C20.4145 3.15026 20.6346 3.20985 20.8423 3.19585C20.9626 3.18774 21.0802 3.14547 21.1979 3.12052C21.4156 3.07436 21.6526 3.05805 21.8747 3.06744C22.4921 3.09355 23.0569 3.34037 23.5232 3.73979C23.6568 3.85418 23.7758 4.00715 23.9262 4.09767C24.06 4.17827 24.216 4.2234 24.3611 4.27992C24.5585 4.35675 24.7536 4.43893 24.9465 4.52647C26.147 5.06925 27.4702 5.94547 27.9499 7.23396C28.1701 7.82524 28.1303 8.45854 27.8687 9.02931C26.7743 11.4175 22.1448 13.5423 19.7329 14.4434C19.7474 14.6212 19.7493 14.7846 19.7145 14.9602C19.6407 15.3321 19.4059 15.7362 19.5419 16.1197C19.6423 16.4029 19.8702 16.6314 19.9931 16.9063C20.0773 17.0945 20.1209 17.3185 20.0416 17.5159C19.9808 17.6673 19.852 17.7982 19.7016 17.8616C19.4296 17.9761 19.1538 17.8506 18.9013 17.7493C18.7805 18.4277 18.4894 19.0204 17.9693 19.4817C17.3958 19.9903 16.8145 19.9993 16.1665 20.2989C15.8074 20.4652 15.4559 20.6463 15.1121 20.8423C14.7683 21.0383 14.4333 21.2485 14.1073 21.4728C12.9637 22.2455 11.8263 23.2602 10.9836 24.3579C10.8497 24.5324 10.7208 24.7105 10.597 24.8922C10.3845 25.2095 10.1919 25.5336 9.91768 25.8045C9.26433 26.45 8.61656 26.6734 7.71187 26.6704C7.56967 26.9536 7.40985 27.2304 7.25935 27.5096C7.18123 27.6646 7.10724 27.8378 6.9865 27.9648C6.85899 28.099 6.68835 28.1669 6.50399 28.1668C5.98879 28.1665 5.86117 27.6253 5.6443 27.2688C5.62403 27.2357 5.60241 27.2035 5.57941 27.1723C5.55642 27.141 5.53216 27.1108 5.50662 27.0815C5.48109 27.0523 5.45437 27.0242 5.42647 26.9973C5.39855 26.9703 5.36955 26.9446 5.33948 26.92C5.07679 26.7085 4.74883 26.614 4.43049 26.5236C4.30396 26.4876 4.16978 26.4562 4.05244 26.3952C4.02043 26.3788 3.98993 26.3599 3.96093 26.3387C3.93193 26.3174 3.90481 26.294 3.87956 26.2683C3.7624 26.148 3.71596 25.9966 3.72274 25.8308C3.72336 25.8166 3.72448 25.8025 3.7261 25.7883C3.72772 25.7742 3.72984 25.7601 3.73245 25.7462C3.73507 25.7322 3.73818 25.7183 3.74178 25.7045C3.74538 25.6908 3.74946 25.6772 3.75402 25.6637C3.75858 25.6502 3.76362 25.6369 3.76912 25.6238C3.77462 25.6107 3.78059 25.5978 3.787 25.5851C3.79342 25.5724 3.80028 25.56 3.80758 25.5478C3.81488 25.5356 3.8226 25.5236 3.83075 25.512C3.92209 25.3794 4.07144 25.2619 4.18782 25.1493C4.43659 24.9075 4.68693 24.6674 4.93886 24.4289C4.85536 24.0793 4.79781 23.7349 4.79011 23.3749C4.74453 21.2431 6.24506 19.0172 7.65827 17.5404C6.24552 17.7024 4.24323 17.6017 3.01695 16.804C2.42506 16.419 2.09318 15.8546 1.95089 15.1693C1.65724 13.7549 2.32485 12.1319 3.02869 10.9313C3.25392 10.547 3.51162 10.1847 3.75437 9.81183C3.75645 9.69808 3.75984 9.5849 3.77282 9.47177C3.77506 9.45071 3.77757 9.42968 3.78034 9.4087C3.7831 9.38769 3.78613 9.36672 3.78943 9.34579C3.79272 9.32488 3.79627 9.30401 3.80009 9.28317C3.80391 9.26233 3.80798 9.24156 3.81232 9.22084C3.81666 9.2001 3.82125 9.17942 3.82611 9.15879C3.83096 9.13818 3.83608 9.11764 3.84145 9.09714C3.84682 9.07665 3.85244 9.05624 3.85833 9.0359C3.86421 9.01554 3.87034 8.99527 3.87673 8.97508C3.88312 8.9549 3.88976 8.93479 3.89666 8.91476C3.90355 8.89472 3.91069 8.87479 3.91809 8.85494C3.92548 8.8351 3.93312 8.81535 3.94101 8.7957C3.9489 8.77603 3.95703 8.75648 3.96541 8.73704C3.97379 8.71758 3.98241 8.69823 3.99127 8.679C4.00013 8.65977 4.00924 8.64064 4.01858 8.62162C4.02792 8.60262 4.0375 8.58373 4.04732 8.56496C4.05713 8.54619 4.06718 8.52755 4.07746 8.50905C4.08775 8.49052 4.09826 8.47213 4.109 8.45387C4.11975 8.43564 4.13072 8.41752 4.14191 8.39953C4.15311 8.38156 4.16453 8.36372 4.17618 8.34602C4.18782 8.32834 4.19969 8.3108 4.21178 8.2934C4.22386 8.276 4.23616 8.25877 4.24867 8.24169C4.26118 8.2246 4.27391 8.20767 4.28686 8.1909C4.29979 8.17414 4.31293 8.15753 4.3263 8.14109C4.33965 8.12465 4.35321 8.10838 4.36698 8.09228C4.38075 8.0762 4.39471 8.06028 4.40886 8.04452C4.42303 8.02877 4.43739 8.0132 4.45194 7.9978C4.46649 7.98243 4.48124 7.96723 4.49617 7.9522C4.51111 7.93719 4.52622 7.92236 4.54152 7.90771C4.55683 7.89308 4.57232 7.87864 4.58798 7.86437C4.60366 7.85012 4.6195 7.83608 4.6355 7.82223C4.65153 7.80837 4.66772 7.79471 4.68409 7.78127C4.70045 7.76782 4.71698 7.75458 4.73367 7.74154C5.2061 7.37324 5.90583 7.16848 6.50439 7.24173C6.64404 7.10417 6.8822 6.94619 6.98973 6.80728C7.06665 6.70788 7.11537 6.57293 7.1743 6.46158C7.19473 6.42375 7.21646 6.38667 7.23947 6.35032C7.26246 6.31398 7.28669 6.27847 7.31214 6.24379C7.33758 6.20913 7.36418 6.17537 7.39195 6.14253C7.41974 6.1097 7.44861 6.07786 7.47858 6.04702C7.50854 6.01618 7.53953 5.9864 7.57156 5.95768C7.60359 5.92897 7.63656 5.90141 7.67047 5.87497C7.70439 5.84853 7.73919 5.82329 7.77486 5.79926C7.81051 5.77522 7.84696 5.75244 7.8842 5.73092C8.48127 5.38814 9.05879 5.4328 9.69783 5.60648C9.98789 5.12758 10.3202 4.72828 10.841 4.48912C11.6136 4.13432 12.3489 4.27264 13.1119 4.55861C13.3485 4.12605 13.7489 3.78555 14.2044 3.60487C14.8865 3.33431 15.6187 3.41733 16.2792 3.70125C16.5 3.54044 16.6198 3.52577 16.8207 3.30445C17.1674 2.92255 17.6793 2.78184 18.1779 2.75763Z" fill="#1C1C1C"/>
<path d="M20.0091 3.47803C20.1173 3.48377 20.2256 3.49847 20.3333 3.51029C20.2935 3.53715 20.2608 3.5709 20.2265 3.60418C20.3803 3.91867 20.5886 4.2015 20.7965 4.4814C20.9611 4.70303 21.1213 4.93074 21.2956 5.14469C21.4379 5.31929 21.5939 5.48357 21.7409 5.65425C22.2991 6.30204 22.8687 6.97806 23.5501 7.50136C23.8889 7.76152 24.4313 7.88249 24.6258 8.2945C24.7239 8.50221 24.716 8.73167 24.6369 8.94253C24.6019 8.9991 24.5679 9.05061 24.523 9.10017C24.4806 8.82651 24.3729 8.57223 24.1973 8.35764C24.036 8.16058 23.8296 8.00759 23.6347 7.84614C23.4302 7.67931 23.2331 7.50422 23.0433 7.32089C22.6259 6.91495 22.2389 6.48291 21.8574 6.04363C21.1675 5.24942 20.4936 4.41746 20.0091 3.47803Z" fill="white"/>
<path d="M6.85243 7.34442C6.88133 7.43405 6.81951 7.71816 6.81639 7.83438C6.80892 8.11499 6.84567 8.40853 6.90179 8.68253C6.93685 8.8515 6.97678 9.01931 7.02158 9.18595C7.06637 9.35259 7.11594 9.5178 7.17031 9.68158C7.22466 9.84537 7.28371 10.0074 7.34746 10.1678C7.4112 10.3281 7.47954 10.4865 7.55248 10.6429C8.2172 12.0652 9.41107 13.6262 10.7327 14.4965L10.5761 14.5468L10.4092 14.5883C10.367 14.5613 10.3252 14.5337 10.2838 14.5054C9.84706 14.2043 9.46728 13.7847 9.1249 13.3827C8.00362 12.0662 7.08724 10.4947 6.77586 8.77411C6.70192 8.36544 6.60287 7.70401 6.85243 7.34442Z" fill="white"/>
<path d="M16.7192 3.82391C16.7253 3.8265 16.7326 3.82733 16.7377 3.83169C16.7435 3.83674 16.94 4.30529 16.9671 4.36155C17.2884 5.02823 17.7048 5.6448 18.1401 6.24164C19.3286 7.87141 20.6712 9.20004 22.4103 10.2391L22.2504 10.3142L22.1157 10.3803C20.1009 9.32633 17.4334 6.02771 16.5726 3.91663C16.6202 3.88393 16.6701 3.85439 16.7192 3.82391Z" fill="white"/>
<path d="M10.0905 5.5827C10.1239 5.71155 10.1118 5.86246 10.1457 6.00168C10.3197 6.71493 10.6647 7.38183 11.026 8.01545C12.0881 9.87812 13.7374 11.929 15.5855 13.0577C15.5168 13.0795 15.4484 13.1021 15.3803 13.1258L15.1905 13.1948C15.0055 13.064 14.8197 12.9334 14.6417 12.7933C14.0852 12.3552 13.5876 11.8283 13.1256 11.2936C12.9868 11.1351 12.8509 10.9743 12.7178 10.8111C12.5847 10.6478 12.4546 10.4822 12.3274 10.3143C12.2002 10.1465 12.076 9.97636 11.9548 9.80407C11.8337 9.63177 11.7156 9.45738 11.6007 9.28088C11.4857 9.10438 11.3739 8.92591 11.2653 8.74546C11.1567 8.56499 11.0514 8.38265 10.9492 8.19844C10.8471 8.01423 10.7483 7.82826 10.6528 7.64053C10.5572 7.45281 10.4651 7.26345 10.3763 7.07246C10.2154 6.71897 9.97559 6.20781 9.93036 5.82536L10.0905 5.5827Z" fill="white"/>
<path d="M3.85999 10.6683C3.92346 10.7693 4.02001 11.2139 4.07481 11.3689C4.28345 11.9589 4.66831 12.5449 5.07001 13.0212C5.45973 13.4833 5.92855 13.8876 6.41971 14.2381C6.78177 14.4964 7.16302 14.7247 7.5485 14.9457C7.60362 14.9773 7.70385 15.0191 7.74117 15.069C7.71743 15.0884 7.68171 15.088 7.65157 15.0932C7.40407 15.1223 7.09501 15.1802 6.85212 15.1132C6.64312 15.0555 6.4477 14.8771 6.28095 14.7426C5.44281 14.0663 4.66478 13.2222 4.11769 12.2913C3.80934 11.7666 3.70674 11.2594 3.85999 10.6683Z" fill="white"/>
<path d="M13.5207 4.53906C13.5361 4.55777 13.535 4.5517 13.5399 4.5712C13.5455 4.59369 13.5497 4.61692 13.5548 4.63958C13.7035 5.30849 14.0631 5.97975 14.4087 6.56813C14.4828 6.6967 14.5587 6.82412 14.6366 6.95041C14.7144 7.0767 14.7941 7.20182 14.8757 7.32576C14.9573 7.44968 15.0407 7.57236 15.1259 7.6938C15.2111 7.81524 15.2981 7.93538 15.3869 8.05422C15.4757 8.17306 15.5663 8.29057 15.6586 8.40674C15.7509 8.52289 15.8449 8.63763 15.9406 8.75097C16.0363 8.86434 16.1337 8.97624 16.2327 9.0867C16.3318 9.19716 16.4325 9.30611 16.5348 9.41355C16.637 9.52101 16.7409 9.62692 16.8464 9.73129C16.9518 9.83566 17.0588 9.93843 17.1673 10.0396C17.2758 10.1408 17.3858 10.2403 17.4973 10.3382C17.6087 10.4361 17.7216 10.5324 17.836 10.6269C17.9503 10.7214 18.066 10.8142 18.1831 10.9053C18.3002 10.9964 18.4187 11.0858 18.5384 11.1734C18.6582 11.2609 18.7792 11.3467 18.9015 11.4306C19.0238 11.5146 19.1474 11.5967 19.2721 11.677L19.0661 11.7635L18.9316 11.8117C18.2844 11.4312 17.7027 10.9489 17.1633 10.4285C15.7975 9.11071 13.8615 6.58523 13.3499 4.75414C13.4117 4.68776 13.4653 4.61099 13.5207 4.53906Z" fill="white"/>
<path d="M18.9724 14.2124C19.0477 14.2059 19.1148 14.2059 19.1865 14.2332C19.8029 14.4677 19.1359 15.527 19.222 16.0258C19.2867 16.4004 19.5782 16.6703 19.7317 17.0035C19.7884 17.1266 19.8251 17.269 19.7729 17.4003C19.74 17.4831 19.6707 17.5585 19.588 17.5932C19.3856 17.6779 19.115 17.5162 18.927 17.4441C18.9164 17.3089 18.9041 17.1747 18.886 17.0402C18.6639 16.0085 18.0534 15.2526 17.1872 14.681C17.7694 14.497 18.3779 14.35 18.9724 14.2124Z" fill="white"/>
<path d="M5.04005 24.7231C5.14083 24.8389 5.21617 25.0377 5.30173 25.1735C5.65984 25.7417 6.23937 26.2275 6.86565 26.4717C7.04013 26.5397 7.21934 26.5809 7.40144 26.622C7.26753 26.8792 6.88284 27.7324 6.67628 27.8546C6.5877 27.9071 6.48727 27.9052 6.39033 27.8813C6.13954 27.7278 6.0406 27.3625 5.88926 27.1183C5.8596 27.0696 5.82751 27.0225 5.79298 26.9771C5.75845 26.9317 5.72166 26.8882 5.68261 26.8466C5.64355 26.805 5.60246 26.7656 5.55932 26.7283C5.51616 26.691 5.47119 26.656 5.42442 26.6233C5.15447 26.4364 4.85131 26.3511 4.53898 26.2655C4.41921 26.2327 4.29392 26.2059 4.18227 26.1505C4.06461 26.092 4.02939 26.0196 3.99054 25.8983C4.00199 25.8321 4.01124 25.7661 4.04612 25.7074C4.16066 25.5146 4.36685 25.3582 4.52947 25.2067C4.70148 25.0474 4.87167 24.8862 5.04005 24.7231Z" fill="white"/>
<path d="M21.5945 3.40163C21.6808 3.3883 21.7797 3.39174 21.8672 3.39427C22.5183 3.41309 23.134 3.76732 23.571 4.23463C24.4798 5.20626 24.5716 6.46009 24.5271 7.71618C24.3434 7.58473 24.125 7.50022 23.926 7.39406C23.1876 6.89316 22.4828 6.071 21.911 5.38696C21.5848 4.99669 21.2666 4.60954 20.9711 4.19511C20.8493 4.02437 20.7116 3.85255 20.6133 3.6671C20.9065 3.5086 21.2655 3.43286 21.5945 3.40163Z" fill="white"/>
<path d="M6.19763 7.54132C6.27185 7.53659 6.3471 7.54118 6.42144 7.54298C6.37394 7.96273 6.37973 8.35804 6.45561 8.77455C6.76788 10.4889 7.65541 12.086 8.74481 13.4267C9.11254 13.8792 9.53653 14.3508 10.0175 14.6837C9.45938 14.8053 8.90202 14.9125 8.34025 15.0149C8.24784 14.9643 8.15456 14.9153 8.06041 14.8679C7.35836 14.5145 6.64951 14.0658 6.05279 13.5534C5.02149 12.6677 4.19924 11.4406 4.09761 10.0526C4.05036 9.40728 4.18308 8.77487 4.61563 8.27597C5.02487 7.80403 5.58438 7.58386 6.19763 7.54132Z" fill="white"/>
<path d="M18.1441 3.11565C18.3526 3.1126 18.5562 3.12601 18.7605 3.16971C18.9576 3.21187 19.6596 3.45218 19.7553 3.60967C20.025 4.05349 20.2824 4.49774 20.5798 4.92453C21.2062 5.82349 22.0488 6.76981 22.8398 7.53073C23.1538 7.83271 23.4995 8.09376 23.8165 8.38984C24.1156 8.66926 24.1897 8.92546 24.2041 9.32588C23.7946 9.52968 23.3867 9.7366 22.9803 9.94663L22.7416 10.0666C22.6302 10.008 22.5203 9.94693 22.4116 9.88341C20.581 8.79811 18.8915 6.9483 17.7642 5.15335C17.4648 4.67663 17.1556 4.17537 17.015 3.62593C17.0347 3.5978 17.0547 3.5721 17.0778 3.54661C17.356 3.23989 17.7435 3.13486 18.1441 3.11565Z" fill="white"/>
<path d="M15.0301 3.77404C15.496 3.7388 15.912 3.89612 16.3379 4.05608C16.4449 4.42231 16.6735 4.785 16.8575 5.11795C17.9557 7.10557 19.8422 9.32991 21.7621 10.5436C21.6277 10.6328 21.4554 10.6976 21.3092 10.7664L20.3342 11.2181C20.1033 11.321 19.8707 11.42 19.6364 11.515C19.085 11.1896 18.5654 10.8314 18.0742 10.4198C16.539 9.13323 15.1267 7.4315 14.2515 5.61985C14.1007 5.30778 13.8848 4.87463 13.8608 4.53205C13.8509 4.39152 13.874 4.26118 13.9713 4.15446C14.2137 3.88854 14.6891 3.79532 15.0301 3.77404Z" fill="white"/>
<path d="M11.7884 4.59117C12.2579 4.58856 12.6559 4.70724 13.0797 4.89785C13.8014 7.06843 15.6613 9.50072 17.3525 11.0207C17.7329 11.3626 18.1304 11.6673 18.5481 11.9612C17.9979 12.1874 17.4433 12.4023 16.8843 12.606C16.5862 12.7074 16.2907 12.8223 15.9877 12.9085C15.5066 12.7112 15.0367 12.3158 14.6414 11.9854C13.1473 10.7363 11.6648 8.73092 10.8388 6.97513C10.6561 6.58678 10.4418 6.13203 10.4066 5.70122C10.388 5.47463 10.4331 5.2263 10.5876 5.05199C10.8815 4.72045 11.3669 4.61552 11.7884 4.59117Z" fill="white"/>
<path d="M8.66185 5.79238C8.99881 5.76006 9.32148 5.80341 9.63764 5.92415C9.74315 6.46699 9.97916 6.99229 10.2187 7.48729C11.1342 9.37949 13.0571 12.076 14.777 13.2867L12.7711 13.8934C12.2134 14.0529 11.6593 14.2243 11.1007 14.3815L11.0272 14.3293C10.6914 14.0899 10.3603 13.8409 10.0597 13.5578C8.77297 12.3461 7.4956 10.3775 7.20636 8.60909C7.08882 7.89046 7.11833 7.04469 7.56403 6.43582C7.83459 6.0662 8.21352 5.86104 8.66185 5.79238Z" fill="white"/>
<path d="M24.2408 4.58661C24.3761 4.62425 24.5087 4.68421 24.6377 4.73958C25.7907 5.23435 27.1495 6.08169 27.6285 7.29797C27.8323 7.81551 27.8221 8.34325 27.5995 8.85275C26.5923 11.1581 21.8461 13.2816 19.5713 14.1662C19.5115 14.1075 19.4495 14.0523 19.3773 14.0092C19.2658 13.9427 19.1482 13.9145 19.019 13.9201C18.7366 13.9323 18.4402 14.0409 18.1667 14.114C17.7129 14.2352 17.2604 14.3611 16.8031 14.469C16.7404 14.4411 16.6771 14.4145 16.6132 14.3892C16.5493 14.364 16.4849 14.3401 16.4201 14.3177C16.3552 14.2952 16.2898 14.2741 16.224 14.2545C16.1582 14.2348 16.0921 14.2165 16.0255 14.1997C15.9589 14.1829 15.892 14.1675 15.8247 14.1535C15.7575 14.1396 15.69 14.127 15.6222 14.116C15.5545 14.1049 15.4865 14.0953 15.4183 14.0872C15.3501 14.079 15.2818 14.0723 15.2133 14.0671C13.0687 13.8825 10.8291 14.9677 9.15487 16.2143C8.74887 16.5166 8.3818 16.8574 7.99574 17.1828C6.76131 17.3739 5.39688 17.3363 4.19475 16.9785C3.46604 16.7616 2.86255 16.4568 2.48915 15.7659C2.43799 15.6663 2.39367 15.5638 2.35619 15.4583C2.31872 15.3528 2.28841 15.2453 2.26528 15.1357C1.95444 13.6947 2.73591 12.0018 3.49487 10.8165C3.39098 11.2288 3.48511 11.6746 3.65361 12.0563C4.12544 13.1251 5.10979 14.2034 6.004 14.941C6.20701 15.1085 6.44815 15.3179 6.69626 15.4082C6.81763 15.4524 6.95009 15.4665 7.07873 15.4668C7.32927 15.4672 7.58551 15.4269 7.83392 15.3972C8.5829 15.3077 9.33517 15.1838 10.0685 15.0061C11.1069 14.7544 12.1219 14.4172 13.1446 14.1109C13.7758 13.9218 14.4132 13.7495 15.0428 13.5557C15.816 13.3137 16.5832 13.0538 17.3443 12.7759C18.6178 12.309 19.8694 11.7894 21.0992 11.2171C21.9265 10.826 22.7481 10.4231 23.5638 10.0084C23.8712 9.85418 24.3718 9.64893 24.6253 9.44775C24.7758 9.32832 24.8927 9.14783 24.9564 8.96773C25.0755 8.63074 24.9932 8.31595 24.8425 8.00618C24.8592 7.85733 24.8557 7.69935 24.8597 7.54905C24.8816 6.72872 24.8205 5.86178 24.5113 5.0929C24.4405 4.91678 24.3367 4.75021 24.2408 4.58661Z" fill="white"/>
<path d="M14.3028 14.347C14.4351 14.3371 14.5675 14.3322 14.7002 14.3322C14.8329 14.3322 14.9654 14.3372 15.0977 14.3471C15.23 14.357 15.3617 14.3719 15.4929 14.3916C15.6241 14.4114 15.7544 14.436 15.8838 14.4655C16.8596 14.6948 17.681 15.2457 18.2067 16.1052C18.5572 16.6782 18.719 17.3184 18.5551 17.9795C18.5494 18.0035 18.5432 18.0275 18.5367 18.0513C18.5303 18.0752 18.5234 18.0989 18.5162 18.1226C18.509 18.1462 18.5014 18.1697 18.4935 18.1932C18.4855 18.2166 18.4773 18.2399 18.4686 18.263C18.46 18.2862 18.451 18.3092 18.4416 18.3321C18.4323 18.355 18.4226 18.3777 18.4126 18.4003C18.4026 18.4229 18.3922 18.4454 18.3815 18.4676C18.3708 18.4899 18.3598 18.512 18.3484 18.534C18.337 18.5559 18.3253 18.5777 18.3133 18.5993C18.3012 18.6209 18.2889 18.6423 18.2762 18.6635C18.2635 18.6847 18.2505 18.7058 18.2372 18.7266C18.2238 18.7474 18.2102 18.768 18.1963 18.7884C18.1823 18.8088 18.1681 18.829 18.1535 18.849C18.1389 18.869 18.1241 18.8887 18.1089 18.9082C18.0938 18.9278 18.0783 18.947 18.0625 18.9661C18.0468 18.9852 18.0308 19.004 18.0144 19.0226C17.9981 19.0411 17.9815 19.0594 17.9647 19.0775C17.9478 19.0956 17.9307 19.1134 17.9132 19.1309C17.8958 19.1485 17.8782 19.1658 17.8602 19.1828C17.8423 19.1998 17.8241 19.2165 17.8056 19.233C17.7872 19.2494 17.7685 19.2656 17.7496 19.2815C17.7306 19.2974 17.7115 19.313 17.6921 19.3283C17.6726 19.3436 17.653 19.3586 17.6331 19.3733C17.6133 19.388 17.5932 19.4025 17.5729 19.4166C17.5526 19.4307 17.5321 19.4444 17.5114 19.4579C17.4907 19.4714 17.4697 19.4846 17.4486 19.4974C17.4275 19.5103 17.4062 19.5228 17.3847 19.535C17.3632 19.5472 17.3415 19.5591 17.3196 19.5706C17.2978 19.5822 17.2757 19.5934 17.2536 19.6043C17.2313 19.6151 17.209 19.6257 17.1865 19.6359C17.164 19.6461 17.1413 19.6559 17.1185 19.6654C17.0956 19.6749 17.0727 19.6841 17.0496 19.6929C16.6741 19.8376 16.3117 19.911 15.9378 20.0856C15.8172 20.1431 15.6973 20.2022 15.5783 20.2629C15.4593 20.3236 15.3411 20.3859 15.2237 20.4497C15.1064 20.5136 14.9899 20.579 14.8743 20.646C14.7587 20.713 14.644 20.7815 14.5303 20.8516C14.4165 20.9216 14.3037 20.9932 14.1919 21.0663C14.08 21.1394 13.9692 21.2139 13.8593 21.29C13.7495 21.366 13.6407 21.4436 13.5329 21.5225C13.4252 21.6015 13.3185 21.6819 13.2128 21.7637C13.1072 21.8455 13.0027 21.9288 12.8994 22.0134C12.796 22.0981 12.6938 22.1841 12.5927 22.2714C12.4916 22.3588 12.3917 22.4475 12.293 22.5376C12.1943 22.6276 12.0969 22.719 12.0006 22.8117C11.9044 22.9043 11.8094 22.9983 11.7157 23.0935C11.6219 23.1887 11.5295 23.2851 11.4383 23.3828C11.3472 23.4805 11.2574 23.5794 11.1689 23.6795C11.0804 23.7796 10.9933 23.8809 10.9075 23.9833C10.2653 24.7659 10.012 25.5174 9.09442 26.0678C8.76479 26.2488 8.42168 26.3468 8.04639 26.3716C7.34496 26.418 6.63624 26.1335 6.11342 25.6721C5.47588 25.1093 5.13646 24.3588 5.08664 23.5156C4.9726 21.5865 6.29936 19.4774 7.52532 18.094C9.10012 16.3169 11.8776 14.4958 14.3028 14.347Z" fill="white"/>
<path d="M14.9816 15.2184C15.4632 15.1834 16.0946 15.243 16.5459 15.4198C15.1207 15.2518 14.0708 15.4742 12.7769 16.0799C11.9535 16.4653 10.9544 17.0706 10.2343 17.625C9.09349 18.5033 7.69385 19.9894 6.92735 21.2137C6.8619 21.3169 6.79931 21.4219 6.73958 21.5286C6.67982 21.6353 6.62302 21.7435 6.56916 21.8532C6.51529 21.963 6.46443 22.0741 6.41659 22.1867C6.36876 22.2992 6.32401 22.4129 6.28236 22.5279C6.13397 22.9535 6.05231 23.3662 5.99501 23.8129C5.98668 23.7669 5.98175 23.7215 5.97874 23.675C5.86768 21.969 7.14726 20.1879 8.21346 18.9743C9.51882 17.4885 11.0565 16.3016 12.9405 15.6524C13.601 15.4248 14.2834 15.2645 14.9816 15.2184Z" fill="#1C1C1C"/>
<path d="M16.5529 16.9513C16.6606 16.9438 16.7684 16.9401 16.8764 16.9401C16.9844 16.9402 17.0922 16.944 17.1999 16.9516C17.3076 16.9591 17.4149 16.9705 17.5218 16.9855C17.6287 17.0005 17.7349 17.0193 17.8405 17.0418C16.5461 17.0891 15.7121 17.3254 14.5432 17.8855C13.6511 18.313 12.773 18.8087 11.9866 19.4108C11.0239 20.1478 10.1926 21.0796 9.42938 22.0171C9.09179 22.4317 8.75606 22.8528 8.47458 23.3083C8.41284 23.4067 8.35391 23.5067 8.29778 23.6084C8.24165 23.7101 8.18842 23.8133 8.13808 23.9179C8.08774 24.0226 8.04038 24.1286 7.996 24.2359C7.95159 24.3432 7.91024 24.4517 7.87193 24.5613C7.7595 24.924 7.7271 25.2902 7.6969 25.6664C7.68141 25.5535 7.66519 25.4397 7.65686 25.326C7.65336 25.2729 7.65115 25.2197 7.65021 25.1665C7.6493 25.1133 7.64966 25.0601 7.6513 25.0069C7.65294 24.9536 7.65586 24.9005 7.66007 24.8475C7.66427 24.7944 7.66975 24.7415 7.67651 24.6887C7.68325 24.6359 7.69127 24.5833 7.70057 24.5309C7.70987 24.4785 7.72042 24.4263 7.73223 24.3744C7.74405 24.3225 7.75711 24.2709 7.77141 24.2197C7.78572 24.1684 7.80124 24.1175 7.81799 24.067C8.16532 22.9929 9.16159 21.6772 9.89284 20.8309C10.3404 20.3128 10.8051 19.803 11.3294 19.3609C12.6087 18.2823 14.866 17.0736 16.5529 16.9513Z" fill="#1C1C1C"/>
</svg>
