<svg width="66" height="66" viewBox="0 0 66 66" fill="none" xmlns="http://www.w3.org/2000/svg">
<g clip-path="url(#clip0_107_4619)">
<path d="M0 0H66V66H0V0Z" fill="#1C1C1C"/>
<path d="M42.1733 4.04209C42.6741 3.98956 43.2117 4.01658 43.7151 4.02214C48.9821 4.08029 57.3992 6.59192 61.1597 10.4656C61.2516 10.5612 61.3413 10.6588 61.4287 10.7586C61.5161 10.8583 61.6013 10.96 61.6841 11.0636C61.7669 11.1672 61.8473 11.2726 61.9252 11.3799C62.0032 11.4872 62.0788 11.5962 62.1518 11.7069C62.2248 11.8177 62.2952 11.93 62.3631 12.0439C62.431 12.1578 62.4962 12.2733 62.5588 12.3902C62.6214 12.5072 62.6813 12.6254 62.7386 12.7451C62.7958 12.8647 62.8502 12.9857 62.9019 13.1078C62.9976 13.343 63.0812 13.5825 63.1527 13.8261C63.2242 14.0698 63.2832 14.3165 63.3297 14.5661C63.3948 14.928 63.4342 15.2988 63.5221 15.6559C63.7364 16.5256 64.0105 17.3821 64.2307 18.2513C64.8301 20.6176 65.2833 23.1218 65.2465 25.5718C65.193 29.1688 64.0952 31.8748 61.9443 34.7236C61.8054 34.9113 61.6629 35.0963 61.5169 35.2785C61.3709 35.4607 61.2214 35.64 61.0685 35.8165C60.9155 35.9929 60.7592 36.1663 60.5996 36.3367C60.4399 36.5071 60.277 36.6743 60.1109 36.8384C59.9448 37.0025 59.7756 37.1633 59.6033 37.3209C59.4309 37.4785 59.2556 37.6327 59.0773 37.7834C58.899 37.9342 58.7179 38.0815 58.5339 38.2253C58.35 38.3691 58.1633 38.5093 57.9739 38.6458C56.2937 39.8499 54.3575 40.8123 52.9762 42.384C52.0081 43.4856 51.5395 44.8336 50.8864 46.1184C50.7218 46.446 50.543 46.7656 50.3499 47.0771C50.1568 47.3887 49.9501 47.6911 49.7299 47.9842C48.2576 49.9211 45.785 52.0276 43.706 53.2823C43.454 53.4346 43.1995 53.5827 42.9426 53.7266C42.6857 53.8705 42.4265 54.0102 42.1649 54.1456C41.9034 54.281 41.6398 54.412 41.3739 54.5387C41.1081 54.6655 40.8403 54.7878 40.5704 54.9057C40.3006 55.0237 40.0289 55.1372 39.7554 55.2462C39.4818 55.3551 39.2066 55.4596 38.9295 55.5596C38.6526 55.6595 38.374 55.7549 38.0939 55.8458C37.8137 55.9366 37.5322 56.0227 37.2492 56.1043C36.3493 56.3622 35.4409 56.5854 34.524 56.7739C33.0669 57.0771 30.4668 57.4002 29.286 58.2571C28.3027 58.9707 28.0052 60.1658 27.1545 60.9803C26.2478 61.8484 25.1168 61.9992 23.9136 61.9683C21.9996 61.7567 20.1541 60.9912 18.3498 60.3505C16.1312 59.5824 13.9437 58.7342 11.7874 57.8057C10.7032 57.3381 9.6147 56.8671 8.57694 56.3022C8.0307 56.0047 7.50212 55.6694 7.03509 55.2565C5.56745 53.9595 4.71842 51.5374 3.94531 49.7646L2.03668 45.3117C1.75545 44.6457 1.34417 44.065 1.10985 43.3727C0.911216 42.786 0.811571 42.1763 0.776128 41.5589C0.63355 39.0748 1.6842 36.71 3.43938 34.9831C4.00788 34.4237 4.70061 33.9251 5.04581 33.1859C5.47185 32.2735 5.54447 30.7203 5.7995 29.6716C6.38084 27.2809 7.48227 25.1569 8.82998 23.1149C9.48354 22.1245 10.1867 21.1568 10.9752 20.2687C13.3066 17.6429 16.1713 15.4537 19.4508 14.1581C20.7601 13.6408 22.2043 13.2691 23.4327 12.5799C24.2363 12.129 24.9504 11.4628 25.6656 10.8846C26.3128 10.3613 26.987 9.86518 27.6606 9.37636C28.4537 8.80086 29.2937 8.28537 30.1386 7.79043C33.9486 5.55862 37.7641 4.306 42.1733 4.04209Z" fill="white"/>
<path d="M27.8626 49.3056C27.8132 49.7062 27.7473 50.1073 27.7262 50.5107C27.639 52.171 27.9458 54.0874 28.9254 55.4616C29.2613 55.9327 29.7008 56.3288 30.0866 56.759C28.7476 57.2541 27.9668 58.0265 27.2406 59.2334C26.9979 59.6367 26.7712 60.0449 26.4093 60.3558C26.1313 60.5946 25.8201 60.7329 25.4821 60.8664C25.2658 60.5551 25.0186 60.2597 24.7848 59.9611C23.3735 58.1153 22.101 56.0236 21.5323 53.7503C23.361 53.4936 24.8662 52.4019 26.1101 51.092C26.6813 50.4906 27.23 49.8439 27.8626 49.3056Z" fill="#1C1C1C"/>
<path d="M3.86145 47.0705C4.12777 47.2063 4.52333 47.6509 4.79233 47.8582C5.51811 48.4177 6.27379 48.9334 7.05937 49.4054C10.7999 51.6541 16.8243 53.64 21.1892 53.8133C21.6541 56.4366 23.0808 58.9124 24.7594 60.9522C23.6241 60.9363 22.5735 60.7027 21.5059 60.331C20.9855 60.1498 20.6396 59.8118 20.2607 59.4232C18.9061 58.0342 18.0519 56.2861 17.2237 54.5545C17.7291 56.3565 18.4818 58.2425 19.7089 59.6768C19.1432 59.5359 18.5784 59.3066 18.0264 59.1156C16.9141 58.6993 15.7951 58.3045 14.6883 57.873C14.2537 57.7036 13.7919 57.5508 13.3746 57.3424C12.9362 57.1234 12.6612 56.6037 12.3959 56.2072C11.2668 54.5199 10.2976 52.6635 9.66173 50.7339C9.69041 51.1839 9.80069 51.6263 9.91161 52.0621C9.96468 52.276 10.0227 52.4887 10.0858 52.6999C10.1488 52.9111 10.2168 53.1208 10.2897 53.3288C10.3626 53.5368 10.4404 53.743 10.523 53.9474C10.6056 54.1518 10.6929 54.3541 10.785 54.5544C10.8771 54.7547 10.9739 54.9527 11.0753 55.1485C11.1767 55.3442 11.2827 55.5374 11.3932 55.7282C11.5037 55.9189 11.6186 56.107 11.738 56.2923C11.8573 56.4777 11.9809 56.6601 12.1088 56.8397C11.5713 56.5381 10.9785 56.304 10.418 56.0475C10.167 55.9325 9.88822 55.828 9.66224 55.6678C9.39992 55.4819 9.18877 55.1872 8.99045 54.936C7.67851 53.2748 6.88966 51.3439 6.09676 49.4024C6.52273 51.5952 7.03978 53.1863 8.34631 55.027C7.8038 54.6131 7.30771 54.1779 6.91106 53.6176C6.5304 53.08 6.25005 52.4283 5.97473 51.8314C5.64845 51.1224 5.32765 50.4109 5.01233 49.697C4.62735 48.826 4.19587 47.961 3.86145 47.0705Z" fill="#1C1C1C"/>
<path d="M42.4604 44.1138C42.7142 44.3955 42.925 44.977 43.1151 45.3205C43.4872 45.9928 43.8975 46.6501 44.1833 47.3658C44.6812 48.6122 44.6878 50.0209 44.8382 51.3406C42.2459 53.1699 39.872 54.3053 36.8215 55.196C36.4672 54.7112 36.0277 54.2929 35.6511 53.825C34.5828 52.4977 34.3285 50.9647 34.2154 49.314C34.1563 49.8039 34.1325 50.2809 34.1557 50.7747C34.2318 52.3906 34.6337 53.7596 35.8586 54.8728C36.0326 55.0198 36.2035 55.1701 36.3715 55.3238C34.5689 55.7969 32.7306 56.0693 30.924 56.5085C30.4779 56.1411 30.0013 55.7966 29.594 55.3855C28.1696 53.9476 27.9339 51.1755 27.9422 49.2321C28.4765 48.7359 29.0887 48.3019 29.7666 48.0261C31.4743 47.3313 33.889 47.5229 35.7727 47.0506C38.1658 46.4506 40.3845 45.4376 42.4604 44.1138Z" fill="#1C1C1C"/>
<path d="M63.2464 18.4272C63.4211 18.7299 63.557 19.6716 63.6442 20.0552C64.1692 22.365 64.4918 24.8476 64.1781 27.2116C64.0806 27.9452 63.9031 28.6679 63.724 29.3852C63.6817 27.4802 62.9305 24.8064 61.8714 23.2393C61.8433 23.3508 62.0437 23.7288 62.096 23.8531C62.3057 24.3521 62.4939 24.8586 62.6254 25.3845C63.0045 26.901 63.1373 28.8547 63.1579 30.4169C63.1794 32.0468 60.3144 35.1827 59.1602 36.3727C59.1656 36.346 59.1707 36.3192 59.1756 36.2924C59.2002 36.1559 59.2223 36.019 59.242 35.8818C59.2618 35.7446 59.2792 35.607 59.2942 35.4692C59.3091 35.3313 59.3217 35.1933 59.3319 35.055C59.342 34.9167 59.3498 34.7783 59.3552 34.6397C59.3606 34.5011 59.3635 34.3625 59.3641 34.2239C59.3646 34.0853 59.3628 33.9466 59.3585 33.808C59.3542 33.6694 59.3476 33.531 59.3385 33.3926C59.3294 33.2543 59.318 33.1161 59.3041 32.9781C59.2902 32.8402 59.2739 32.7025 59.2553 32.5651C59.2366 32.4277 59.2155 32.2907 59.1921 32.154C59.1687 32.0173 59.1429 31.8811 59.1148 31.7453C59.0866 31.6096 59.0561 31.4744 59.0233 31.3397C58.9904 31.205 58.9552 31.0708 58.9177 30.9373C58.8802 30.8038 58.8404 30.671 58.7983 30.539C58.7561 30.4069 58.7117 30.2755 58.665 30.145C58.6183 30.0144 58.5694 29.8847 58.5181 29.7559C58.3306 29.2757 58.1229 28.7628 57.8302 28.3385C57.8741 28.5702 58.0185 28.8288 58.103 29.0526C58.2581 29.47 58.3905 29.8945 58.5001 30.3261C59.0807 32.6412 58.8287 34.5552 58.5282 36.879C57.6141 37.8414 56.3251 38.5296 55.2318 39.2655C54.4651 39.7817 53.7633 40.3439 53.0427 40.9207C52.9 39.7903 52.9177 38.6272 52.7116 37.5084C52.5005 36.3628 51.9909 35.2859 51.5556 34.2134C51.8372 35.4629 52.2065 36.6764 52.3257 37.9592C52.4342 39.1266 52.3424 40.3222 52.5014 41.4826C52.1881 41.7729 51.9491 42.1174 51.7004 42.462C51.1425 43.2646 50.7684 44.1194 50.3738 45.0071C50.1094 44.1462 50.0052 43.257 49.807 42.3815C49.6084 41.504 49.2536 40.6446 48.8221 39.8565C48.952 40.2623 49.0646 40.6729 49.1599 41.0882C49.2553 41.5035 49.3331 41.922 49.3932 42.3439C49.5599 43.4899 49.6397 44.6733 49.9463 45.7926C49.0946 47.4305 47.9088 48.7388 46.5253 49.947C46.1749 50.2531 45.826 50.5767 45.4461 50.8458C45.2766 50.0487 45.2231 49.2259 45.0477 48.425C44.6846 46.7674 43.4991 45.4083 42.5025 44.0866C46.0573 41.608 48.9109 38.7812 50.4099 34.6279C50.9783 33.0531 51.4416 31.4009 52.5741 30.1167C53.4196 29.158 54.5121 28.5656 55.6065 27.9448C58.7758 26.1467 60.534 24.7928 62.2466 21.5312C62.4283 21.9437 62.704 22.3322 62.9192 22.7309C62.8787 22.0525 62.7692 21.4013 62.5541 20.7554C62.8173 19.9835 63.0522 19.2196 63.2464 18.4272Z" fill="#1C1C1C"/>
<path d="M42.3472 5.009C43.0557 4.96049 43.7946 5.00028 44.5028 5.04486C48.7678 5.31333 53.8546 6.7778 57.5547 8.9391C59.6788 10.18 61.6515 11.8525 62.2894 14.3385C62.6852 15.8805 62.4594 17.5497 62.0629 19.0681C61.0015 23.1333 58.6474 25.0495 55.1715 27.0676C53.9463 27.7789 52.7295 28.4316 51.7868 29.5205C49.8857 31.7165 49.7884 34.46 48.3827 36.8327C45.6574 41.4326 39.8686 45.3693 34.6007 46.2607C32.7126 46.5802 30.7022 46.4071 28.9547 47.3144C26.2166 48.7359 25.0167 51.8805 21.8858 52.6807C21.7418 52.7147 21.596 52.7367 21.4483 52.7465C20.1453 52.8377 18.6618 52.5025 17.3899 52.2231C12.6708 51.1861 8.02627 49.4224 4.3588 46.1871C2.91425 44.9128 1.90095 43.4954 1.78275 41.5118C1.65532 39.3732 2.5733 37.253 4.0775 35.7555C4.77162 35.0645 5.52914 34.4778 5.95603 33.5652C6.48635 32.4316 6.49003 31.0946 6.76885 29.8859C7.53546 26.5623 9.67975 23.1947 11.9293 20.6765C14.0689 18.2813 16.8426 16.221 19.8481 15.0584C21.174 14.5455 22.5953 14.1779 23.8382 13.4796C25.1602 12.7369 26.379 11.5011 27.6289 10.6044C32.1234 7.37979 36.7744 5.32335 42.3472 5.009Z" fill="#1C1C1C"/>
<path d="M41.1991 5.91104C41.563 5.87709 41.9493 5.89275 42.3151 5.89937C44.1398 5.93246 45.9722 6.20242 47.7566 6.57273C48.9392 6.81816 50.0991 7.18774 51.2465 7.56208C54.293 8.55576 58.4592 10.1394 60.283 12.9509C61.2422 14.4297 61.491 16.2228 61.1237 17.9328C61.0905 18.0886 61.0511 18.2428 61.0055 18.3954C60.9601 18.5476 60.9086 18.6976 60.8511 18.8456C59.9593 21.1438 57.9136 22.7918 55.9088 24.0988C55.1496 24.5938 54.3664 25.0452 53.6245 25.5679C53.3483 25.7628 53.0775 25.9649 52.812 26.1741C52.5465 26.3833 52.2867 26.5994 52.0327 26.8224C51.7786 27.0453 51.5306 27.2748 51.2886 27.5109C51.0467 27.747 50.8112 27.9893 50.5821 28.2379C49.2546 29.6867 48.3431 31.4968 47.4575 33.2321C45.5327 37.0032 43.76 39.8431 40.1723 42.2237C37.8791 43.7455 35.1126 44.5358 32.3838 44.7448C30.7625 44.8689 29.5136 44.7273 27.9558 45.4557C25.604 46.5556 24.6353 48.8195 22.551 50.1731C21.7211 50.6758 20.7928 51.0318 19.8192 51.1064C19.1884 51.1546 18.5354 51.1065 17.9136 50.9949C16.151 50.6783 14.4138 50.0155 12.7462 49.379C11.7357 48.9933 10.7121 48.6109 9.74548 48.1235C8.34698 47.4183 6.98018 46.6174 5.79167 45.5899C4.48446 44.4598 3.43836 43.0591 3.31789 41.2856C3.16308 39.0065 4.30324 37.123 5.92237 35.6196C6.68763 34.909 7.50844 34.238 8.01395 33.3038C8.77553 31.8962 8.84004 30.4115 9.10321 28.8749C9.39086 27.1955 9.92176 25.5503 10.813 24.0904C11.4701 23.0141 12.3048 22.056 13.1959 21.1681C16.0514 18.3229 18.8055 17.0141 22.5968 15.8038C24.3129 15.2559 26.2623 14.7842 27.7372 13.7114C28.9688 12.8156 29.64 11.4238 30.6306 10.3049C31.1187 9.75342 31.7432 9.298 32.3431 8.87422C34.9884 7.00553 37.9855 6.10098 41.1991 5.91104Z" fill="white"/>
<path d="M42.2539 21.8236C42.6134 21.7974 42.9433 21.8211 43.2739 21.9815C43.6752 22.1762 43.9889 22.5164 44.1237 22.9445C44.2557 23.3637 44.217 23.8463 44.0118 24.2358C43.7684 24.6978 43.3425 24.9569 42.8559 25.0973C42.4227 25.1782 42.0145 25.1306 41.6321 24.8972C41.6081 24.8823 41.5846 24.8669 41.5615 24.8508C41.5383 24.8348 41.5156 24.8182 41.4932 24.801C41.4709 24.7839 41.4491 24.7662 41.4276 24.7479C41.4062 24.7297 41.3852 24.7109 41.3647 24.6916C41.3442 24.6723 41.3242 24.6525 41.3047 24.6322C41.2851 24.6119 41.2661 24.5912 41.2476 24.5699C41.2291 24.5487 41.2112 24.527 41.1938 24.5048C41.1764 24.4827 41.1595 24.4602 41.1433 24.4372C41.1269 24.4142 41.1112 24.3909 41.0961 24.3671C41.081 24.3433 41.0664 24.3192 41.0525 24.2948C41.0386 24.2703 41.0253 24.2455 41.0126 24.2203C40.9999 24.1952 40.9879 24.1698 40.9765 24.144C40.965 24.1183 40.9542 24.0923 40.9441 24.066C40.934 24.0397 40.9246 24.0132 40.9157 23.9865C40.9069 23.9597 40.8988 23.9328 40.8913 23.9057C40.8838 23.8785 40.8771 23.8512 40.871 23.8237C40.7758 23.3928 40.8755 22.9313 41.1165 22.5641C41.385 22.1552 41.7857 21.9279 42.2539 21.8236Z" fill="#1C1C1C"/>
<path d="M52.2393 8.56281C53.0915 8.78046 53.9426 9.194 54.7491 9.54398C56.945 10.4968 59.4008 11.9807 60.3073 14.3073C60.8942 15.8135 60.8029 17.4258 60.1542 18.893C60.0577 19.0984 59.9537 19.2936 59.8382 19.4889C59.2873 19.4416 58.8078 19.3309 58.3898 18.9457C57.6014 18.219 56.976 16.0817 56.5716 15.0492C56.2491 14.2257 55.9171 13.3965 55.4998 12.6155C54.6545 11.0334 53.5656 9.76112 52.2393 8.56281Z" fill="#1C1C1C"/>
<path d="M5.43131 42.3267C6.19346 42.2394 7.05961 42.3558 7.79882 42.5391C11.4098 43.4343 13.9743 46.7627 15.8011 49.7983C15.4698 49.6951 15.1408 49.585 14.8141 49.4681C11.0831 48.1306 6.02437 46.303 4.15784 42.5109C4.57762 42.4139 5.00286 42.3643 5.43131 42.3267Z" fill="#1C1C1C"/>
<path d="M38.7585 6.84075C38.8196 6.83166 38.7908 6.8256 38.8442 6.86182C38.2564 9.12986 40.0282 10.3951 40.6399 12.3711C40.8921 13.1856 40.9093 13.9875 40.8202 14.8284C40.4612 14.7272 40.1023 14.6261 39.7349 14.5602C39.1741 14.4596 38.59 14.3989 38.0427 14.2412C37.1152 13.9738 36.6396 13.3598 36.188 12.5523C36.0843 12.369 35.9692 12.1859 35.8452 12.0158C35.1044 10.9995 34.006 10.5732 32.7928 10.4096C32.3851 10.3547 31.9736 10.3382 31.5667 10.2763C31.9598 9.89041 32.4499 9.56041 32.9068 9.25387C34.705 8.04737 36.6258 7.24145 38.7585 6.84075Z" fill="#1C1C1C"/>
<path d="M20.525 38.2007C21.13 38.124 21.7911 38.217 22.3617 38.4246C23.2067 38.7321 24.0449 39.3192 24.4289 40.1572C24.6838 40.7136 24.7745 41.6015 24.2808 42.0537C24.1475 42.1757 23.97 42.255 23.8128 42.343C23.7634 42.3701 23.7149 42.3987 23.6672 42.4286C23.6195 42.4587 23.5727 42.4901 23.5269 42.5229C23.4811 42.5557 23.4363 42.5898 23.3925 42.6253C23.3487 42.6608 23.306 42.6975 23.2645 42.7356C23.2229 42.7736 23.1824 42.8128 23.1432 42.8533C23.1039 42.8937 23.0659 42.9353 23.0292 42.978C22.9924 43.0207 22.957 43.0645 22.9228 43.1093C22.8886 43.1541 22.8559 43.1999 22.8244 43.2467C22.4217 43.8358 22.4952 44.3156 22.2622 44.8992C22.0479 45.4358 20.8537 46.0162 20.3387 46.2247C20.2276 46.2525 20.1154 46.2812 20.002 46.2978C19.1743 46.4186 18.2919 46.1478 17.631 45.6467C16.9154 45.104 16.4582 44.26 16.3366 43.3753C16.1719 42.1774 16.5421 40.9434 17.2743 39.9894C18.0772 38.9435 19.2329 38.3646 20.525 38.2007Z" fill="#1C1C1C"/>
<path d="M40.0796 9.79016C40.6388 9.94558 41.1933 10.1166 41.7429 10.3032C42.2925 10.4899 42.8365 10.6918 43.3748 10.909C43.913 11.1263 44.4448 11.3585 44.97 11.6056C45.4951 11.8528 46.013 12.1146 46.5234 12.3908C49.9463 14.2753 52.3302 16.6924 53.4348 20.5141C53.5721 20.989 54.1696 23.5039 54.0175 23.7801L53.931 23.7741C53.1206 23.2446 53.1934 22.4863 52.8708 21.6847C52.5156 20.8018 51.721 20.4356 50.8446 20.226C50.4544 20.1327 50.049 20.063 49.7048 19.8443C49.1342 19.4818 48.9906 18.7951 48.6962 18.2326C48.6492 18.141 48.5981 18.0519 48.5428 17.9651C48.4876 17.8783 48.4285 17.7942 48.3654 17.7129C48.3024 17.6315 48.2357 17.5533 48.1654 17.4781C48.0952 17.403 48.0216 17.3312 47.9447 17.2629C47.2042 16.6105 46.3867 16.4032 45.4197 16.5118C45.0617 16.5521 44.7167 16.6085 44.3591 16.5254C43.7046 16.3734 43.119 15.8936 42.5436 15.5648C42.1634 15.3474 41.771 15.1695 41.3678 15.0011C41.6439 13.6481 41.3866 12.3313 40.7844 11.1013C40.5662 10.6554 40.3036 10.2333 40.0796 9.79016Z" fill="#1C1C1C"/>
<path d="M41.4661 6.52437C43.1676 6.47043 44.899 6.65631 46.5664 6.98953C47.5225 7.18064 48.4642 7.39501 49.4024 7.66216C49.8087 7.77786 50.2433 7.88562 50.6226 8.07363C51.0685 8.29477 51.5151 8.71842 51.8877 9.0501C53.8063 10.7575 54.9821 12.5962 55.9153 14.9758C56.3957 16.2008 56.7888 17.7367 57.5223 18.8229C58.0324 19.5784 58.6434 19.8869 59.5221 20.0547C58.7378 21.247 57.5277 22.1967 56.3945 23.0357C55.845 23.4295 55.2799 23.7995 54.6993 24.1459C54.3912 21.5484 53.9841 19.3799 52.6254 17.0995C50.5821 13.6702 46.8595 11.6144 43.2475 10.2048C42.0568 9.7402 40.8402 9.31442 39.6003 9.00002C39.4823 8.65139 39.3744 8.29413 39.3444 7.92571C39.3172 7.59281 39.3421 7.22182 39.5744 6.96085C39.9689 6.51741 40.9125 6.54448 41.4661 6.52437Z" fill="#1C1C1C"/>
<path d="M31.0493 10.8187C32.0081 10.9844 32.9787 10.9903 33.9044 11.3236C35.7768 11.9978 35.6925 13.9294 37.3935 14.6596C38.0331 14.9341 38.7352 15.0072 39.4135 15.1359C39.7108 15.1908 40.0052 15.2581 40.2967 15.3379C40.5883 15.4175 40.876 15.5093 41.1598 15.6132C41.6013 15.7775 42.0261 15.977 42.4345 16.2118C42.977 16.5264 43.5226 16.9559 44.1389 17.106C45.0425 17.3261 45.9311 16.903 46.8287 17.2629C47.7616 17.6368 48.1136 18.3954 48.4825 19.2638C49.1003 20.7185 50.0734 20.5146 51.2952 21.0173C52.5447 21.5314 52.2934 22.2652 52.724 23.2731C53.0045 23.9297 53.457 24.2374 54.1033 24.5004C52.5553 25.4513 51.0838 26.699 49.9042 28.0812C49.8584 27.7335 49.769 27.3987 49.6693 27.0632C49.5802 26.8172 49.4822 26.5794 49.3566 26.3495C48.4565 24.7028 46.5325 24.0334 44.835 23.5251C44.7876 23.0992 44.723 22.7087 44.5033 22.3335C44.485 22.302 44.466 22.2709 44.4462 22.2403C44.4265 22.2097 44.406 22.1796 44.3847 22.15C44.3635 22.1204 44.3415 22.0914 44.3189 22.0628C44.2962 22.0343 44.2728 22.0064 44.2488 21.979C44.2248 21.9516 44.2001 21.9248 44.1748 21.8987C44.1494 21.8725 44.1234 21.847 44.0968 21.822C44.0702 21.7971 44.0431 21.7729 44.0153 21.7493C43.9875 21.7257 43.9592 21.7029 43.9303 21.6807C43.9014 21.6585 43.8719 21.637 43.842 21.6162C43.812 21.5955 43.7816 21.5755 43.7507 21.5562C43.7198 21.537 43.6884 21.5185 43.6566 21.5007C43.6248 21.483 43.5925 21.4661 43.5599 21.4499C43.5272 21.4338 43.4942 21.4184 43.4607 21.4039C43.4273 21.3894 43.3936 21.3756 43.3595 21.3627C43.3254 21.3499 43.291 21.3378 43.2564 21.3266C43.2217 21.3154 43.1868 21.3051 43.1516 21.2956C42.4373 21.1088 41.7834 21.2684 41.159 21.6294C39.7435 21.5107 38.6478 21.0144 37.6441 20.0007C37.2359 19.5884 36.8598 19.1455 36.4386 18.7457C35.6187 17.9675 34.6073 17.3003 33.5535 16.8868C33.3347 16.801 33.113 16.7234 32.8884 16.6539C32.6639 16.5845 32.437 16.5235 32.2079 16.4709C31.9789 16.4182 31.7482 16.3741 31.5158 16.3386C31.2834 16.303 31.0501 16.2761 30.8158 16.2578C29.3761 16.1543 27.7222 16.5047 26.3959 15.7859C26.1839 15.6709 26.0164 15.5325 25.8433 15.3658C29.02 14.1315 29.0266 13.147 31.0493 10.8187Z" fill="#1C1C1C"/>
<path d="M19.4456 17.5933L19.4637 17.5967C19.5178 17.6835 19.463 18.3842 19.4834 18.5619C19.5148 18.8353 19.6118 19.1139 19.7268 19.363C20.2465 20.4889 21.2841 21.1207 22.4467 21.4403C23.1046 21.6213 23.771 21.7308 24.4151 21.9663C27.0558 22.9317 28.8272 25.3632 29.9706 27.8218C31.0981 30.2461 31.5419 33.0774 30.9587 35.7055C30.7681 36.5646 30.4541 37.3621 30.1531 38.1852C29.874 37.509 29.6862 36.7849 29.4256 36.0988C28.6233 33.9864 27.5479 32.0974 26.0464 30.4053C24.5967 28.686 22.4031 27.1522 20.1651 26.7568C16.6684 26.139 13.143 27.9913 10.3706 29.9248C10.1172 29.8919 9.86882 29.858 9.62054 29.7966C9.6946 28.6939 9.96704 27.5592 10.3458 26.5227C10.6607 25.6608 11.0767 24.81 11.5806 24.0428C12.8561 22.1006 14.8557 20.2656 16.8025 19.0133C17.6459 18.4708 18.5378 18.0166 19.4456 17.5933Z" fill="#1C1C1C"/>
<path d="M25.1646 15.5987L25.2128 15.6063C26.5509 17.2586 28.7369 16.7654 30.582 16.8651C30.8038 16.8774 31.0248 16.898 31.245 16.9271C31.4653 16.9562 31.6841 16.9936 31.9015 17.0393C32.1188 17.085 32.3342 17.1388 32.5475 17.2009C32.7608 17.263 32.9714 17.333 33.1794 17.4111C34.2379 17.8132 35.2327 18.4603 36.0564 19.234C37.6848 20.7633 38.1493 21.8421 40.6143 22.1742C40.5522 22.294 40.4912 22.4141 40.4398 22.5388C40.1956 23.1315 40.1603 23.7924 40.4119 24.3891C40.6399 24.9299 41.1059 25.3516 41.647 25.5684C41.682 25.5823 41.7174 25.5953 41.753 25.6074C41.7886 25.6196 41.8245 25.6309 41.8608 25.6413C41.8969 25.6517 41.9333 25.6612 41.9699 25.6699C42.0066 25.6785 42.0434 25.6863 42.0805 25.6931C42.1175 25.7 42.1546 25.7059 42.192 25.711C42.2293 25.7161 42.2667 25.7202 42.3042 25.7235C42.3417 25.7268 42.3793 25.7291 42.4169 25.7305C42.4545 25.7319 42.4921 25.7325 42.5298 25.7321C42.5675 25.7317 42.6051 25.7304 42.6426 25.7282C42.6802 25.726 42.7177 25.7229 42.7552 25.7189C42.7926 25.7149 42.8299 25.7099 42.8671 25.7041C42.9043 25.6983 42.9414 25.6915 42.9782 25.6839C43.0151 25.6763 43.0518 25.6678 43.0883 25.6584C43.1247 25.649 43.1609 25.6387 43.1969 25.6276C43.2328 25.6164 43.2685 25.6044 43.3039 25.5916C43.3393 25.5787 43.3743 25.565 43.409 25.5504C44.0384 25.2805 44.4809 24.7481 44.7335 24.1238C45.7735 24.4187 46.9474 24.8174 47.812 25.4768C48.9122 26.3159 49.2152 27.4045 49.3869 28.7176C49.0285 29.3239 48.6091 29.8945 48.2571 30.5064C47.3691 32.0505 46.5676 33.6432 45.7208 35.2098C45.6943 35.2581 45.6825 35.2717 45.6425 35.3058C45.5846 34.9429 45.5205 34.5794 45.4246 34.2244C45.1795 33.3171 44.7549 32.5142 44.275 31.711C42.7772 29.2037 40.8915 27.394 38.3521 25.9452C36.0827 24.6505 33.3005 23.5873 30.6511 23.6615C29.85 23.684 29.0787 23.827 28.3082 24.037C27.3067 22.7935 25.8211 21.7357 24.2966 21.2737C23.6765 21.0858 23.0304 20.9899 22.4134 20.7944C21.5855 20.532 20.7574 20.0438 20.3516 19.2464C20.0231 18.6005 19.9852 17.9505 20.2077 17.2672C20.7127 17.1025 21.2093 16.9093 21.7146 16.7437C22.8682 16.3656 24.0223 16.0124 25.1646 15.5987Z" fill="#1C1C1C"/>
<path d="M30.71 24.2161C31.3812 24.1837 32.0973 24.2755 32.7538 24.4087C36.7172 25.213 40.96 27.7431 43.2068 31.1545C44.0768 32.4755 44.8877 33.8735 45.0299 35.483C45.055 35.7667 45.082 36.0754 45.0158 36.3556C44.8766 36.9437 43.3406 38.6896 42.8565 39.1908C39.861 42.2926 36.5399 43.8148 32.2362 44.1555C30.5952 44.2855 29.3892 44.1747 27.8002 44.8825C26.3727 45.5183 25.3093 46.6196 24.291 47.768C23.6766 48.4609 23.0915 49.128 22.2918 49.6189C20.4166 50.77 18.6908 50.5042 16.666 50.0275C15.1237 47.4996 13.2356 44.7601 10.7058 43.1383C10.6452 43.0987 10.584 43.0598 10.5223 43.0216C10.4607 42.9834 10.3986 42.9461 10.336 42.9095C10.2735 42.8728 10.2104 42.837 10.147 42.8019C10.0835 42.7669 10.0196 42.7326 9.95529 42.6992C9.89096 42.6657 9.82623 42.6331 9.76109 42.6012C9.69599 42.5694 9.63049 42.5383 9.56457 42.5081C9.49866 42.4779 9.4324 42.4485 9.3658 42.4199C9.29916 42.3914 9.23217 42.3636 9.16484 42.3367C9.09755 42.3098 9.02991 42.2837 8.96194 42.2585C8.89396 42.2333 8.82568 42.2089 8.7571 42.1853C8.68853 42.1618 8.61967 42.1392 8.55053 42.1173C8.4814 42.0955 8.412 42.0746 8.34235 42.0545C8.2727 42.0344 8.20279 42.0151 8.13262 41.9968C8.06249 41.9784 7.99215 41.9609 7.9216 41.9443C7.851 41.9277 7.78023 41.912 7.70929 41.8972C7.63831 41.8823 7.56717 41.8683 7.49589 41.8553C7.42456 41.8422 7.3531 41.83 7.28152 41.8187C7.20989 41.8074 7.13813 41.7969 7.06624 41.7874C6.9944 41.7779 6.92243 41.7693 6.85032 41.7615C6.77822 41.7538 6.70606 41.747 6.63383 41.7411C6.56155 41.7351 6.48923 41.73 6.41686 41.7259C6.34448 41.7218 6.27206 41.7185 6.1996 41.7162C6.12714 41.7139 6.05466 41.7124 5.98216 41.7119C5.90966 41.7113 5.83717 41.7117 5.76468 41.7129C5.69219 41.7142 5.61973 41.7164 5.54729 41.7195C5.47486 41.7225 5.40247 41.7265 5.33014 41.7313C5.2578 41.7362 5.18554 41.7419 5.11334 41.7486C5.04115 41.7553 4.96905 41.7628 4.89705 41.7713C4.82504 41.7797 4.75315 41.789 4.68138 41.7993C4.6096 41.8095 4.53797 41.8207 4.46647 41.8326C4.39498 41.8447 4.32364 41.8576 4.25246 41.8714C4.18129 41.8852 4.1103 41.8998 4.03948 41.9154C3.8822 41.2987 3.81755 40.0931 4.11335 39.5121C4.2277 39.2876 4.4953 39.0942 4.68663 38.9353C5.57445 38.1982 6.51497 37.6315 7.59946 37.2358C9.93067 36.3851 12.8244 36.3141 15.1848 37.0924C16.1084 37.397 17.1997 37.9499 18.0917 38.3668C17.3441 39.0322 16.8413 39.4168 16.354 40.3369C15.7394 41.4972 15.5088 42.8601 15.9028 44.1301C16.231 45.188 16.9387 46.0253 17.9223 46.534C18.6866 46.9293 19.6749 47.0887 20.5043 46.8165C21.1882 46.5921 22.1218 46.0078 22.6183 45.4889C22.9804 45.1106 22.9467 44.1325 23.3659 43.5461C23.8531 42.8645 24.7145 42.7936 25.0442 42.0946C25.3331 41.482 25.2849 40.6603 25.0452 40.0407C24.6783 39.0918 23.8059 38.3771 22.8948 37.9785C21.4354 37.3398 20.1112 37.5566 18.6775 38.1145C17.6936 37.3134 15.7842 36.5702 14.5481 36.2762C12.1623 35.7087 9.14737 35.8724 6.88184 36.8421C6.10849 37.1731 5.41293 37.6329 4.69899 38.072C6.00326 35.8851 8.143 35.1408 9.03303 32.5801C9.28601 31.8523 9.36226 31.1261 9.52764 30.3827C9.82877 30.4664 10.1307 30.5471 10.4334 30.6248C12.3048 31.0484 14.1685 31.5037 16.0245 31.9906C18.5102 32.6374 21.2609 33.2416 23.2383 34.994C23.8212 35.5106 24.3089 36.1142 24.7566 36.7488C26.0406 38.5687 26.4835 39.7867 28.6476 40.8705C30.5165 41.8064 32.8394 42.1226 34.8453 41.4443C34.8952 41.4275 34.9449 41.4101 34.9944 41.3921C35.0439 41.3741 35.0932 41.3554 35.1422 41.3362C35.1912 41.317 35.24 41.2972 35.2886 41.2767C35.3371 41.2563 35.3854 41.2353 35.4334 41.2138C35.4815 41.1921 35.5292 41.17 35.5767 41.1472C35.6242 41.1244 35.6714 41.1011 35.7183 41.0771C35.7652 41.0532 35.8118 41.0287 35.8582 41.0036C35.9045 40.9786 35.9505 40.953 35.9962 40.9268C36.0418 40.9005 36.0872 40.8738 36.1322 40.8465C36.1772 40.8192 36.222 40.7913 36.2663 40.763C36.3107 40.7346 36.3547 40.7056 36.3983 40.6762C36.4419 40.6467 36.4852 40.6167 36.5282 40.5861C36.571 40.5556 36.6136 40.5246 36.6557 40.493C36.6979 40.4614 36.7396 40.4293 36.781 40.3967C36.8223 40.3641 36.8633 40.331 36.9038 40.2974C36.9444 40.2638 36.9845 40.2297 37.0242 40.1951C37.0639 40.1606 37.1032 40.1255 37.1421 40.0899C37.181 40.0544 37.2194 40.0184 37.2574 39.9819C37.2953 39.9454 37.3328 39.9084 37.3699 39.871C37.407 39.8336 37.4436 39.7958 37.4797 39.7574C37.5159 39.7192 37.5515 39.6804 37.5867 39.6412C37.6219 39.602 37.6566 39.5625 37.6909 39.5224C37.7251 39.4824 37.7589 39.442 37.7921 39.4011C37.8253 39.3603 37.858 39.319 37.8902 39.2774C37.9225 39.2357 37.9542 39.1937 37.9854 39.1513C38.0166 39.1088 38.0472 39.066 38.0774 39.0228C38.1076 38.9796 38.1372 38.9361 38.1663 38.8922C38.1953 38.8483 38.2239 38.8041 38.2519 38.7595C38.2799 38.7149 38.3074 38.6699 38.3343 38.6246C38.3612 38.5793 38.3875 38.5337 38.4133 38.4878C38.4391 38.4419 38.4643 38.3957 38.4889 38.3491C38.5135 38.3026 38.5376 38.2558 38.5611 38.2086C39.3362 36.6391 39.3847 34.8306 38.8282 33.1844C38.1807 31.2695 36.9446 29.5841 35.6566 28.0535C35.0605 27.3451 34.4479 26.6508 33.7215 26.0723C33.2488 25.6958 32.7462 25.4131 32.2062 25.1475C33.7301 26.3539 36.4068 29.7725 37.4119 31.4964C38.3684 33.1366 38.951 35.0018 38.446 36.8935C38.0576 38.3482 37.0261 39.6545 35.7165 40.3962C34.4921 41.0897 32.9894 41.3199 31.6028 41.1458C31.3728 41.1178 31.1444 41.08 30.9176 41.0325C30.6908 40.9848 30.4664 40.9277 30.2446 40.8609C30.0227 40.7941 29.804 40.7179 29.5887 40.6324C29.3733 40.5468 29.162 40.4522 28.9547 40.3486C28.362 40.0468 27.7813 39.6694 27.3049 39.2023C26.7141 38.6229 26.2664 37.925 25.8198 37.2343C24.8884 35.7939 23.8597 34.4693 22.345 33.5924C20.6628 32.6187 18.8672 32.0948 17.0019 31.6014C15.0522 31.0857 13.0742 30.6647 11.1294 30.1352C12.4887 29.2996 13.6102 28.5844 15.1222 28.0016C17.2866 27.1672 19.5808 26.9113 21.7537 27.8854C24.9578 29.3217 27.3178 32.5618 28.6096 35.7335C28.9427 36.5511 29.2407 37.3997 29.5157 38.2383C29.6655 38.695 29.7877 39.1634 29.9592 39.6122C30.8255 38.3734 31.3873 36.8944 31.6396 35.4064C32.3176 31.408 31.0322 27.7395 28.7245 24.509C29.383 24.3352 30.0324 24.2532 30.71 24.2161Z" fill="#1C1C1C"/>
</g>
<defs>
<clipPath id="clip0_107_4619">
<rect width="66" height="66" rx="10" fill="white"/>
</clipPath>
</defs>
</svg>
