<svg width="66" height="66" viewBox="0 0 66 66" fill="none" xmlns="http://www.w3.org/2000/svg">
<g clip-path="url(#clip0_107_4617)">
<path d="M0 0H66V66.0645H0V0Z" fill="#1C1C1C"/>
<path d="M50.8592 2.10291C51.148 2.08198 51.4127 2.12179 51.6856 2.21694C53.7016 2.92006 55.3154 5.00304 56.3952 6.77314C56.7496 7.3543 57.0407 7.98643 57.4199 8.54997C57.7652 9.06307 58.1971 9.53365 58.5565 10.0426C59.3525 11.1695 60.0563 12.4157 60.6587 13.6558C64.4782 21.5187 65.3806 30.8262 62.4884 39.1451C59.3443 48.1885 52.5565 55.3878 43.9771 59.5258C36.8268 62.9746 28.7968 64.5063 20.9581 62.7649C19.6197 62.4675 18.332 62.046 17.0399 61.594C15.9214 61.178 14.8263 60.7073 13.7546 60.1819C13.1454 59.887 12.5244 59.4641 11.8742 59.2763C10.0084 58.7373 6.67678 58.5993 5.15254 57.6512C3.17704 56.4223 3.65515 54.3963 3.16258 52.4993C2.89018 51.4504 2.41139 50.4803 2.16127 49.4184C1.66042 47.292 1.65219 45.1571 1.88164 42.9965C2.47033 37.4531 4.63563 32.328 7.55277 27.6236C14.135 17.0086 25.6082 8.45997 37.5509 4.93478C39.8289 4.26236 42.1755 3.73772 44.5387 3.48802C45.0161 3.43757 45.5014 3.39383 45.9817 3.38736C46.477 3.38068 46.9957 3.43201 47.4837 3.33814C48.6647 3.11092 49.6936 2.37504 50.8592 2.10291Z" fill="white"/>
<path d="M59.0497 12.8556C59.233 12.9949 59.3776 13.3597 59.4882 13.5696C59.611 13.8008 59.731 14.0334 59.8481 14.2675C59.9652 14.5016 60.0794 14.7371 60.1908 14.974C60.3021 15.2109 60.4106 15.4492 60.5161 15.6888C60.6216 15.9283 60.7242 16.1692 60.8238 16.4113C60.9234 16.6533 61.0201 16.8966 61.1138 17.1411C61.2075 17.3855 61.2981 17.6311 61.3858 17.8778C61.4735 18.1245 61.5581 18.3722 61.6397 18.6209C61.7213 18.8697 61.7998 19.1194 61.8753 19.37C61.9508 19.6208 62.0232 19.8723 62.0926 20.1248C62.1619 20.3772 62.2281 20.6305 62.2912 20.8846C62.3544 21.1387 62.4144 21.3935 62.4713 21.649C62.5282 21.9046 62.5819 22.1608 62.6325 22.4177C62.6832 22.6746 62.7306 22.932 62.7749 23.19C62.8193 23.4481 62.8604 23.7066 62.8984 23.9657C62.9364 24.2247 62.9712 24.4842 63.0029 24.744C63.0345 25.004 63.063 25.2642 63.0882 25.5248C63.1135 25.7854 63.1356 26.0463 63.1545 26.3074C63.1734 26.5686 63.189 26.8299 63.2015 27.0914C63.214 27.3529 63.2233 27.6146 63.2294 27.8763C63.2355 28.1381 63.2384 28.3999 63.238 28.6617C63.2377 28.9235 63.2342 29.1853 63.2275 29.447C63.2207 29.7087 63.2108 29.9703 63.1977 30.2318C63.1846 30.4934 63.1682 30.7546 63.1487 31.0157C63.1292 31.2768 63.1065 31.5377 63.0806 31.7982C63.0546 32.0587 63.0256 32.3189 62.9933 32.5787C62.961 32.8385 62.9255 33.0979 62.8869 33.3569C62.8483 33.6158 62.8065 33.8742 62.7615 34.1322C62.7166 34.3901 62.6685 34.6474 62.6172 34.9042C62.566 35.1609 62.5116 35.417 62.4541 35.6724C62.3965 35.9278 62.3359 36.1825 62.2722 36.4364C62.2084 36.6904 62.1416 36.9435 62.0716 37.1957C62.0017 37.448 61.9286 37.6994 61.8525 37.9499C59.1472 46.6879 52.7522 53.8173 44.7164 58.0492C36.7391 62.2503 27.5131 63.8904 18.7803 61.1742C18.0349 60.9348 17.2975 60.6725 16.5683 60.3873C15.8391 60.1022 15.1194 59.7947 14.4093 59.4648C15.4425 59.577 16.4497 59.7599 17.4917 59.8196C21.2684 60.036 25.0427 59.3138 28.6201 58.1435C29.4341 57.8689 30.2374 57.5657 31.0298 57.2339C31.8223 56.9021 32.6021 56.5425 33.369 56.1551C40.5584 52.6062 46.1442 47.2146 50.8648 40.8202C52.744 38.2748 54.4489 35.6617 55.8795 32.8346C58.1302 28.3864 60.1149 22.7473 59.935 17.716C59.9208 17.3029 59.8915 16.8908 59.8472 16.4798C59.803 16.0689 59.7438 15.6601 59.6697 15.2534C59.5956 14.8468 59.5069 14.4434 59.4034 14.0432C59.2999 13.643 59.182 13.2472 59.0497 12.8556Z" fill="#1C1C1C"/>
<path d="M58.087 35.6368C58.1875 36.2857 57.9719 37.4972 57.8234 38.1807C57.0421 41.777 54.6219 45.7655 51.4977 47.7799C51.5199 47.633 52.4239 46.7165 52.5889 46.5303C53.6137 45.3739 54.6006 44.2023 55.4144 42.8838C56.4233 41.2491 57.1623 39.34 57.6588 37.4892C57.8178 36.8964 57.9092 36.2834 58.0709 35.6944L58.087 35.6368Z" fill="white"/>
<path d="M59.59 31.5734C59.7041 31.7592 59.758 32.0494 59.8068 32.2616C60.1311 33.675 60.1538 35.2154 59.9785 36.6507C59.4741 40.7814 57.5305 44.9342 54.2173 47.5335L53.9163 47.7362C54.2381 47.3695 54.5559 46.9994 54.8698 46.6259C58.6121 42.1039 60.1342 37.4254 59.59 31.5734Z" fill="white"/>
<path d="M50.8454 3.03586C50.9852 3.01239 51.1098 3.02646 51.2472 3.05857C53.0864 3.48857 54.9695 6.18265 55.9195 7.74797C57.0223 9.56539 58.1727 11.7667 58.7716 13.8042C59.7359 17.0843 59.4994 20.5748 58.6911 23.8611C56.9832 30.8046 53.3269 36.9869 48.8929 42.5249C46.826 45.1064 44.6112 47.5376 42.106 49.7043C41.6313 50.1155 41.1479 50.5161 40.6557 50.9062C40.1635 51.2962 39.663 51.6753 39.1543 52.0434C38.6455 52.4115 38.1289 52.7683 37.6046 53.1138C37.0802 53.4592 36.5485 53.7931 36.0096 54.1153C30.5312 57.4249 23.6661 59.7241 17.2142 59.2664C15.519 59.146 13.8961 58.789 12.2516 58.382C11.4262 58.1828 10.592 57.9895 9.758 57.8309C8.64031 57.6185 6.70524 57.4145 5.73856 56.8686C4.22331 56.0128 4.38316 53.888 4.05066 52.4066C3.85615 51.54 3.55149 50.7038 3.30884 49.8501C3.03733 48.8948 2.84957 47.937 2.76633 46.9465C2.67185 45.8224 2.7166 44.6791 2.81937 43.5573C3.24209 38.9428 4.85604 34.4444 7.10098 30.4107C12.8566 20.0694 22.6223 11.7127 33.5911 7.32326C35.138 6.71676 36.7103 6.18507 38.3077 5.72819C40.4243 5.11289 42.617 4.62708 44.8117 4.39957C45.1754 4.36186 45.5406 4.32973 45.9065 4.32551C46.5103 4.31855 47.1264 4.36091 47.7214 4.23757C48.3784 4.1014 49.0295 3.83947 49.6362 3.55495C50.0297 3.37046 50.4267 3.15511 50.8454 3.03586Z" fill="#1C1C1C"/>
<path d="M26.8304 35.3463C26.9458 35.3436 27.0211 35.3653 27.1113 35.4371C27.2155 35.52 27.2831 35.6329 27.2909 35.7677C27.3025 35.9696 24.8727 39.6871 24.5705 40.1717C22.5224 43.4986 20.6029 46.8982 18.812 50.3705C18.301 51.3501 17.7997 52.3345 17.3081 53.3239C16.9516 54.0523 16.5912 55.0468 16.0769 55.6635C15.5567 56.2873 14.783 56.5956 13.9865 56.6666C12.1951 56.8262 10.4082 56.0947 9.04543 54.9647C8.57762 54.5402 8.15391 54.0907 7.79864 53.5654C7.29011 52.8136 6.74638 51.7944 6.9371 50.8516C7.03829 50.3513 7.34341 49.9673 7.72858 49.6506C8.10834 49.3383 8.53044 49.0632 8.93192 48.7794L11.4915 46.9967C13.6605 45.4921 15.8 43.9464 17.9099 42.3596C20.1325 40.6974 22.2927 38.9579 24.4757 37.2443C24.9553 36.8678 25.4311 36.4866 25.9031 36.1007C26.2085 35.8478 26.502 35.5682 26.8304 35.3463Z" fill="white"/>
<path d="M26.2709 36.4514L26.2785 36.5034C26.0334 36.9215 25.7523 37.3137 25.4935 37.7232L23.5108 40.8878C22.4824 42.5533 21.5326 44.2714 20.5829 45.9828C19.66 47.6406 18.7676 49.3147 17.9059 51.0051C17.5353 51.7287 17.1708 52.4554 16.8125 53.1852C16.4654 53.8922 16.104 54.8392 15.5855 55.429C15.1387 55.9372 14.4608 56.1185 13.8069 56.1597C12.0909 56.2681 10.4697 55.5331 9.2062 54.4129C9.0033 54.2203 8.81188 54.0226 8.63476 53.8057C8.08916 53.1375 7.34196 51.9987 7.45282 51.0841C7.50812 50.6271 7.81028 50.2939 8.15065 50.0112C8.95174 49.3458 9.8624 48.7627 10.7183 48.1666C12.3071 47.0753 13.884 45.9672 15.4493 44.8423C17.2429 43.5371 19.0336 42.2083 20.7797 40.8399L26.2709 36.4514Z" fill="#1C1C1C"/>
<path d="M11.3407 48.9761C11.6435 48.952 12.0206 48.9285 12.2758 49.1221C12.41 49.224 12.4448 49.3238 12.4664 49.4867L12.4414 49.5085C12.4329 49.4997 12.4246 49.4905 12.4157 49.4821C12.327 49.3985 12.2343 49.4094 12.1185 49.4168C10.9788 49.49 10.2845 49.8985 9.53816 50.7618C9.31915 51.062 9.14964 51.3398 9.02247 51.6898C9.01422 51.1406 9.14074 50.6921 9.44773 50.2356C9.89897 49.5646 10.5527 49.1353 11.3407 48.9761Z" fill="white"/>
<path d="M20.6372 42.5145L20.6678 42.522C20.614 42.6461 19.724 43.1859 19.5541 43.3087C16.1121 45.7957 12.8219 49.1145 12.1215 53.4744L12.0988 53.4988C11.9607 52.4777 12.2785 51.2816 12.6419 50.3296C12.9412 49.5452 13.3876 48.8024 13.8667 48.1145C13.9728 47.9625 14.0815 47.8124 14.1927 47.6641C14.3039 47.5158 14.4175 47.3694 14.5337 47.225C14.6498 47.0805 14.7683 46.9381 14.8893 46.7976C15.0102 46.6572 15.1335 46.5188 15.2591 46.3825C15.3847 46.2462 15.5126 46.1121 15.6427 45.9801C15.7728 45.8482 15.9052 45.7185 16.0397 45.591C16.1742 45.4635 16.3108 45.3383 16.4496 45.2155C16.5883 45.0926 16.729 44.9721 16.8719 44.854C17.0146 44.7359 17.1594 44.6203 17.3061 44.507C17.4528 44.3938 17.6013 44.2831 17.7518 44.1749C17.9022 44.0667 18.0544 43.9611 18.2084 43.858C18.3624 43.755 18.5181 43.6546 18.6755 43.5568C18.8329 43.459 18.9918 43.3639 19.1525 43.2715C19.313 43.1791 19.4751 43.0894 19.6388 43.0025C19.8024 42.9155 19.9674 42.8314 20.1339 42.75C20.3003 42.6687 20.4681 42.5902 20.6372 42.5145Z" fill="white"/>
<path d="M28.3967 35.0675C28.5879 35.0902 28.7744 35.1419 28.8978 35.3006C29.0234 35.4621 29.0821 35.7229 29.1264 35.9209C29.3487 36.9118 29.5008 37.9333 29.6744 38.9345L30.4348 43.2635C30.8349 45.4651 31.2121 47.6706 31.5663 49.88C31.655 50.4493 31.9265 51.7131 31.8384 52.2237C31.7379 52.8057 31.062 53.3737 30.617 53.7018C29.8197 54.2898 28.9498 54.7781 28.0932 55.2729C25.7404 56.632 23.3684 57.8331 20.5607 57.4122C19.9729 57.3528 19.3592 57.1485 18.8146 56.9264C18.2493 56.6958 17.3011 56.2856 17.0654 55.668C16.9137 55.2708 17.0785 54.8427 17.2333 54.4741C17.4718 53.9063 17.7813 53.3601 18.0666 52.8143C18.615 51.7654 19.1806 50.7284 19.7447 49.6881C20.5436 48.1901 21.3506 46.6965 22.1657 45.2072C23.2096 43.3425 24.3107 41.5151 25.3971 39.6756L26.9982 36.966C27.3104 36.4329 27.6003 35.8322 27.987 35.3525C28.1001 35.2121 28.2323 35.135 28.3967 35.0675Z" fill="white"/>
<path d="M28.4406 35.6297C28.466 35.647 28.4806 35.6549 28.5019 35.6802C28.5751 35.7671 28.5978 35.9147 28.6216 36.0234C28.8566 37.0949 29.0231 38.194 29.2101 39.2752L30.0634 44.166C30.3821 46.0011 30.7344 47.8259 31.0209 49.6673C31.1196 50.3016 31.2323 50.9407 31.3024 51.5787C31.3226 51.7631 31.337 51.965 31.3055 52.1483C31.2343 52.5624 30.4535 53.1535 30.1328 53.3844C29.3814 53.9256 28.5669 54.3749 27.766 54.8368C25.4391 56.1787 23.2836 57.2841 20.5033 56.8369C19.697 56.6991 18.3403 56.2641 17.7457 55.6856C17.6418 55.5845 17.5148 55.4265 17.5198 55.2725C17.5427 54.5605 19.9038 50.4689 20.3891 49.5738C21.5743 47.3877 22.735 45.1996 23.9806 43.0462C24.9651 41.3742 25.9603 39.7086 26.9663 38.0495C27.3368 37.4308 27.9851 36.1046 28.4406 35.6297Z" fill="#1C1C1C"/>
<path d="M28.1075 41.2488C28.2703 41.6815 28.347 42.187 28.4239 42.6428C28.7461 44.5523 28.6723 46.0221 28.2302 47.9099C28.1946 48.0351 28.1493 48.1553 28.1034 48.277C28.1824 45.9343 28.1837 43.5916 28.1075 41.2488Z" fill="white"/>
<path d="M25.013 44.1295C25.038 44.2358 24.8965 44.3926 24.8387 44.4811C24.558 44.9102 24.3101 45.369 24.0406 45.8067C23.3107 46.992 22.583 48.1841 21.9267 49.4126C21.4415 50.3206 21.0146 51.2745 20.5055 52.167C20.5048 52.1562 20.5034 52.1453 20.5035 52.1345C20.5092 51.7664 20.7543 51.196 20.882 50.8379C20.9368 50.6819 20.9938 50.5266 21.0528 50.372C21.1119 50.2175 21.1729 50.0638 21.2361 49.9109C21.2992 49.758 21.3643 49.6059 21.4315 49.4548C21.4987 49.3036 21.5679 49.1534 21.6391 49.0041C21.7104 48.8548 21.7836 48.7065 21.8587 48.5591C21.9339 48.4118 22.0111 48.2655 22.0901 48.1202C22.1692 47.9749 22.2502 47.8307 22.3332 47.6876C22.4161 47.5445 22.5009 47.4025 22.5876 47.2617C22.6744 47.1209 22.763 46.9812 22.8534 46.8427C22.9439 46.7043 23.0362 46.5671 23.1303 46.4311C23.2245 46.2951 23.3204 46.1604 23.4181 46.0269C23.5158 45.8935 23.6153 45.7614 23.7166 45.6306C23.8178 45.4999 23.9208 45.3705 24.0255 45.2425C24.1302 45.1145 24.2367 44.9879 24.3448 44.8627C24.4528 44.7376 24.5626 44.6139 24.674 44.4916C24.7854 44.3694 24.8984 44.2487 25.013 44.1295Z" fill="white"/>
<path d="M24.4408 47.573C24.47 47.7937 24.2022 48.4164 24.1337 48.6578C23.5637 50.669 22.85 53.246 23.465 55.3009C23.5858 55.7042 23.7813 56.0636 23.9852 56.4289C23.883 56.3686 23.7843 56.3018 23.6848 56.2372C23.2524 55.8448 23.0084 55.134 22.8933 54.5773C22.4364 52.3676 23.224 49.427 24.4408 47.573Z" fill="white"/>
<path d="M30.1966 33.9776C30.2126 33.9763 30.2287 33.9747 30.2447 33.9736C31.6787 33.8756 34.563 35.2983 35.9516 35.898L39.5515 37.4513C40.8723 38.015 42.2091 38.5378 43.5618 39.0197C44.2917 39.2777 45.0274 39.5182 45.7687 39.7412C46.1139 39.8429 46.4927 39.8997 46.8272 40.0219C46.9069 40.051 46.9825 40.094 47.0444 40.1525C47.1697 40.2711 47.2091 40.4099 47.2063 40.5786C47.1863 41.798 44.3714 45.406 43.5187 46.4048C43.0938 46.9024 42.6429 47.366 42.1767 47.8247C41.9562 48.0305 41.7309 48.2308 41.5008 48.4258C41.2707 48.6207 41.036 48.8099 40.7967 48.9935C40.5575 49.1771 40.314 49.3548 40.0662 49.5267C39.8184 49.6985 39.5665 49.8642 39.3107 50.0238C39.0549 50.1835 38.7954 50.3369 38.5322 50.484C38.269 50.6311 38.0024 50.7718 37.7324 50.906C37.4624 51.0403 37.1893 51.1679 36.9132 51.2889C36.6371 51.41 36.3582 51.5243 36.0765 51.6318C35.4016 51.8956 33.9839 52.5109 33.307 52.1908C33.1041 52.0949 32.9305 51.897 32.8556 51.6858C32.7253 51.3183 32.6981 50.859 32.634 50.4706L32.2698 48.3747C31.8626 45.9707 31.4088 43.5755 30.9086 41.1892L29.9725 36.7724C29.8536 36.1983 29.6694 35.6049 29.6181 35.0206C29.5991 34.8038 29.6111 34.5798 29.7073 34.381C29.8138 34.1606 29.9712 34.0551 30.1966 33.9776Z" fill="white"/>
<path d="M30.233 34.5418C31.8169 34.4636 35.1565 36.1216 36.6633 36.789C37.765 37.2745 38.8718 37.748 39.9836 38.2097C42.1587 39.0943 44.4108 39.9882 46.6919 40.5513C46.4781 41.326 46.0257 42.02 45.5983 42.6917C44.5623 44.3199 43.406 45.8261 42.047 47.1984C40.7613 48.4304 39.3741 49.4304 37.7972 50.2579C37.1062 50.6205 34.1932 51.9493 33.5669 51.7226C33.4638 51.6853 33.3936 51.6071 33.3493 51.5092C33.2383 51.2644 33.2521 50.9706 33.2034 50.7086C32.993 49.5747 32.8137 48.4348 32.6076 47.2999C32.0859 44.3895 31.51 41.49 30.8798 38.6013C30.6826 37.7133 30.4944 36.8234 30.3151 35.9316C30.2517 35.6062 30.1482 35.2358 30.1327 34.9084C30.1274 34.7948 30.1951 34.6484 30.233 34.5418Z" fill="#1C1C1C"/>
<path d="M34.547 39.0025C34.6816 38.9866 34.816 38.9882 34.9502 39.007C35.8023 39.1281 36.894 39.9578 37.4081 40.6255C37.7024 41.0075 37.9359 41.5025 37.8637 41.9958C37.8161 42.3208 37.6416 42.5523 37.386 42.7465C37.26 42.8069 37.1263 42.8552 36.9967 42.9078C37.223 42.5513 37.4841 42.1899 37.4458 41.7454C37.3393 40.5108 35.4015 39.7311 34.5725 39.0248C34.5639 39.0174 34.5554 39.0099 34.547 39.0025Z" fill="white"/>
<path d="M32.3093 41.2147C32.3437 41.2425 32.3433 41.2405 32.3787 41.2792C32.6718 41.5995 32.9071 42.0755 33.1354 42.4494C34.2824 44.3291 35.2086 46.3082 35.6632 48.4742C35.7835 49.0476 35.8871 49.6516 35.864 50.2379C35.7086 49.8936 35.623 49.4746 35.5048 49.1131C35.2204 48.2431 34.9327 47.3727 34.5917 46.5231C34.1767 45.489 33.6922 44.4905 33.2262 43.4793C32.8907 42.7511 32.5282 41.9875 32.3093 41.2147Z" fill="white"/>
<path d="M46.4296 6.17446C46.5564 6.15425 46.6952 6.15665 46.8237 6.1516C48.3156 6.09294 49.9859 6.60069 51.0914 7.63275C52.154 8.62462 52.5134 9.9892 52.5555 11.3988C53.6777 11.8071 54.5875 12.5108 55.1843 13.5578C56.5362 15.9296 56.3929 19.1239 55.5246 21.644C55.404 21.9961 55.2637 22.3401 55.1038 22.6761C54.9637 22.9662 54.7812 23.2667 54.6836 23.5723C54.5638 23.9475 54.5577 24.38 54.4515 24.77C54.5136 24.9644 54.583 25.1564 54.6448 25.351C55.4369 27.8455 54.3702 30.6078 53.226 32.8264C52.8352 33.5712 52.3991 34.2886 51.9179 34.9784C51.1766 36.0337 49.1139 38.612 47.9195 38.9642C47.5448 39.0746 47.1178 39.0188 46.7439 38.9329C45.3664 38.6163 44.0011 38.1044 42.6618 37.6524C40.0508 36.7711 37.4746 35.8311 34.8931 34.8686L32.0205 33.8061C31.6565 33.6677 31.2347 33.5529 30.8937 33.3664C30.7394 33.2819 30.6335 33.1441 30.5909 32.9723C30.5641 32.8641 30.5831 32.771 30.6417 32.6774C30.7445 32.5135 30.9029 32.4317 31.078 32.3636C32.2721 31.8998 33.5212 31.5329 34.7372 31.1258C36.9646 30.3797 39.1846 29.612 41.3971 28.8226C44.7047 27.6235 47.9458 26.2798 51.2994 25.202C52.2041 24.9112 53.1018 24.6106 54.0239 24.3773C54.0725 24.2057 54.1006 24.0311 54.1304 23.8556C53.0023 24.2985 51.8478 24.6796 50.7043 25.0814L43.0056 27.7595L36.6091 30.0789L34.4427 30.8595C33.7926 31.0951 32.6794 31.614 32.0165 31.6199C31.9412 31.6206 31.8399 31.6189 31.7721 31.5806C31.6812 31.5294 31.6323 31.4599 31.607 31.3587C31.6443 31.1691 31.754 31.0077 31.8735 30.8589C32.3443 30.2729 32.9029 29.7324 33.4309 29.1984C34.3511 28.2709 35.2829 27.3553 36.2262 26.4514C39.7774 23.0024 43.4573 19.6909 47.0215 16.2549C47.4697 15.8269 47.9218 15.403 48.3777 14.9831C48.5918 14.7851 48.8478 14.598 49.0278 14.3704C48.9801 14.3627 48.8202 14.5214 48.7696 14.5634C46.0687 16.7923 43.4451 19.1088 40.8987 21.5129C39.4528 22.9128 38.0298 24.3354 36.6295 25.7809C35.6633 26.7593 34.673 27.7137 33.7103 28.6957C33.3234 29.09 32.9458 29.4931 32.5776 29.905C32.2619 30.2622 31.4279 31.3962 31.063 31.5766C30.907 31.6536 30.6694 31.6475 30.5103 31.5844C30.4066 31.5433 30.3338 31.4691 30.2943 31.3646C30.2102 31.1423 30.2633 30.868 30.3402 30.6518C30.4385 30.3757 30.5883 30.1173 30.711 29.8513C30.9184 29.3898 31.1232 28.9271 31.3253 28.4632C32.2884 26.2087 33.2906 23.9718 34.3319 21.7525L40.1448 8.89791C40.0218 8.854 39.8984 8.81148 39.7745 8.77036C39.7598 8.76669 39.6648 8.74578 39.6555 8.74959C39.587 8.77759 38.6197 10.9975 38.4977 11.2686C36.5286 15.5536 34.6173 19.8644 32.764 24.2009C31.9103 26.1986 31.1105 28.2197 30.2369 30.2083C30.0562 30.6195 29.9244 31.0536 29.7375 31.4619C29.6491 31.6549 29.5288 31.862 29.3291 31.9567C29.1995 32.0181 29.0506 32.0191 28.9177 31.9667C28.7534 31.9019 28.6518 31.7846 28.5592 31.6397C28.3718 31.3464 28.2312 31.0082 28.0791 30.6942L27.3211 29.1257C26.3762 27.1604 25.3987 25.1142 24.5433 23.1106C23.769 21.2543 23.0093 19.3921 22.2642 17.5239L22.009 17.7177C22.4222 19.0083 22.9463 20.2593 23.4627 21.5108C23.948 22.7117 24.4509 23.9051 24.9712 25.0912C25.3944 26.0475 25.8243 27.0008 26.2609 27.951L27.2124 29.978C27.4782 30.5355 28.1848 31.8131 28.2452 32.3844C28.2659 32.58 28.2234 32.7785 28.0929 32.9296C27.9108 33.1404 27.6026 33.2088 27.3371 33.2278C26.7352 33.2708 26.1064 33.2322 25.5022 33.2293L21.8057 33.2139C19.0164 33.2119 16.2281 33.2659 13.4409 33.3759C11.9405 33.4244 10.4231 33.429 8.92741 33.5486C8.92122 33.8213 8.93211 34.0655 9.0052 34.3298C9.5593 34.3157 10.1142 34.2666 10.6683 34.2435L20.472 33.8678C22.4669 33.7933 24.463 33.6783 26.4598 33.6731C26.743 33.6724 27.1933 33.632 27.4549 33.7413C27.5274 33.7715 27.5843 33.8304 27.6137 33.9039C27.6545 34.0062 27.6492 34.1718 27.5913 34.2666C27.4484 34.5006 27.1954 34.72 26.9857 34.8931C26.3731 35.3987 25.6865 35.8462 25.0491 36.3251C23.1217 37.7735 21.1634 39.1873 19.2179 40.6116C15.4718 43.354 11.792 46.1857 7.90673 48.7331C7.50718 48.9951 7.10448 49.2697 6.64312 49.4073L6.60336 49.3993C6.17917 49.3112 5.86118 49.1199 5.62782 48.7456C5.37019 48.3324 5.26361 47.8062 5.17054 47.3345C4.70956 44.998 4.94016 42.4994 5.47902 40.1962C5.85338 38.5962 7.00612 35.1409 8.41816 34.2654C8.4063 33.976 8.40108 33.6911 8.41223 33.4016C8.37433 33.361 8.33742 33.3195 8.3015 33.2771C8.15571 33.1027 8.14327 32.9035 8.16918 32.6837C8.24369 32.05 8.68816 31.0907 8.94784 30.4848C10.8187 26.12 14.5257 21.6755 18.404 18.9387C19.1617 18.404 19.9457 17.9064 20.7793 17.498C21.2318 17.2764 21.693 17.3125 22.0178 17.0477L22.0541 17.0178C22.1239 16.8019 22.2108 16.5932 22.3149 16.3917C22.6566 15.7389 23.1538 15.1629 23.66 14.6322C26.294 11.8705 30.4683 9.78933 34.0757 8.67372C35.6243 8.19481 37.7524 7.75533 39.3537 8.0914C39.7698 8.17869 40.1455 8.33527 40.5203 8.53294C40.921 8.32533 41.3073 8.08101 41.7032 7.86301C43.1842 7.04772 44.7273 6.34004 46.4296 6.17446Z" fill="white"/>
<path d="M24.9442 34.2752C25.5642 34.2581 26.1843 34.2591 26.8043 34.2781C26.4103 34.7057 25.8436 35.0579 25.3785 35.4087C24.202 36.2965 23.0051 37.1535 21.8231 38.0331C19.0163 40.1267 16.1974 42.2038 13.3665 44.2647C11.9604 45.2925 10.5377 46.2968 9.09842 47.2776C8.39549 47.7605 7.69953 48.2555 6.97984 48.7132C6.87472 48.7754 6.75323 48.8472 6.62748 48.8462C6.47969 48.845 6.3491 48.7799 6.25079 48.671C6.06324 48.4632 5.97678 48.1465 5.89886 47.883C5.54309 46.6799 5.43704 45.4103 5.48798 44.1601C5.51811 43.5402 5.57506 42.9227 5.65883 42.3077C5.7426 41.6927 5.85288 41.0825 5.98966 40.477C6.3616 38.8397 7.34097 35.8947 8.58356 34.7488C8.73973 34.8091 8.88482 34.8458 9.05317 34.8501C9.57054 34.8633 10.0996 34.8207 10.6171 34.7999L13.4814 34.6836C17.2997 34.5392 21.1237 34.3234 24.9442 34.2752Z" fill="#1C1C1C"/>
<path d="M20.2544 37.0717C20.3022 37.0666 20.2736 37.0666 20.3395 37.0809C20.1511 37.2029 19.8991 37.2632 19.6891 37.3475C19.3105 37.5032 18.9338 37.6634 18.559 37.8279C16.8705 38.5809 14.4973 39.9733 13.4665 41.5311L13.4273 41.5829C13.4248 41.5733 13.421 41.564 13.4197 41.5542C13.3959 41.3635 13.6387 40.924 13.7434 40.7586C15.034 38.7205 17.976 37.5464 20.2544 37.0717Z" fill="white"/>
<path d="M16.5319 35.9485C17.4502 35.8363 18.4534 35.979 19.3384 36.2243C15.2513 36.3081 12.857 37.2628 9.74423 39.9037C9.22255 40.3168 8.656 40.9863 8.12891 41.3235C10.3076 38.688 12.9869 36.3232 16.5319 35.9485Z" fill="white"/>
<path d="M52.2729 11.8599C52.6479 11.9508 53.0276 12.1437 53.3498 12.3539C54.5229 13.1187 55.1816 14.4782 55.4533 15.817C55.9328 18.1807 55.4848 21.2737 54.1429 23.2957C51.6423 24.2594 49.0829 25.0749 46.5553 25.9644C42.6426 27.3399 38.738 28.7382 34.8415 30.1592C34.0013 30.4549 33.1702 30.7878 32.3237 31.0632C32.9465 30.3996 33.5781 29.7445 34.2183 29.0977C35.4215 27.8429 36.6519 26.6154 37.9095 25.4152C39.2559 24.1342 40.633 22.8865 41.9865 21.6133C45.4425 18.3909 48.8713 15.1397 52.2729 11.8599Z" fill="#1C1C1C"/>
<path d="M48.7845 18.3013C48.8123 18.2988 48.8401 18.2964 48.8679 18.2942C49.5993 18.2365 50.0999 18.3736 50.6629 18.8559C50.4376 18.7722 50.1984 18.7249 49.9598 18.7C47.9892 18.4942 46.2785 19.8608 44.8445 21.0264C44.4497 21.3333 44.0533 21.6236 43.6173 21.8706C43.6654 21.8015 43.7143 21.733 43.7641 21.6652C44.918 20.0931 46.8287 18.6036 48.7845 18.3013Z" fill="white"/>
<path d="M45.1707 22.2997C46.2545 22.2353 47.2954 22.7369 48.3323 22.9901C49.0329 23.1612 49.7498 23.2682 50.4608 23.3858C48.9778 23.7996 47.6527 23.3131 46.2371 22.8906C45.8863 22.8 45.5253 22.7227 45.1617 22.7749C44.3658 22.8894 43.6796 23.5609 43.0234 23.9854C42.6847 24.2044 42.3386 24.3886 41.9678 24.5464C42.7188 23.6804 44.0233 22.469 45.1707 22.2997Z" fill="white"/>
<path d="M53.8296 24.9373C53.9116 24.9838 53.9476 25.066 53.9899 25.1494C54.1029 25.3722 54.1676 25.63 54.2289 25.8707C54.5813 27.2556 54.3014 28.6728 53.8545 29.9987C53.797 30.1638 53.7373 30.3282 53.6753 30.4917C53.6134 30.6553 53.5493 30.8179 53.4829 30.9797C53.4165 31.1415 53.3479 31.3024 53.2771 31.4623C53.2064 31.6222 53.1335 31.7811 53.0584 31.939C52.9833 32.0969 52.906 32.2538 52.8267 32.4096C52.7473 32.5654 52.6659 32.7201 52.5823 32.8737C52.4987 33.0273 52.413 33.1797 52.3252 33.3309C52.2375 33.4822 52.1477 33.6322 52.0559 33.781C51.9641 33.9298 51.8702 34.0773 51.7744 34.2236C51.6785 34.3698 51.5807 34.5147 51.4809 34.6582C51.3811 34.8018 51.2793 34.944 51.1756 35.0847C51.072 35.2255 50.9664 35.3648 50.8589 35.5027C50.7515 35.6406 50.6421 35.777 50.5309 35.912C50.4197 36.0468 50.3067 36.1802 50.1918 36.312C50.077 36.4439 49.9604 36.5741 49.8421 36.7027C49.7237 36.8314 49.6036 36.9584 49.4817 37.0837C49.0412 37.5427 48.5544 38.0806 47.9732 38.3551C47.7114 38.4787 47.4714 38.5046 47.1868 38.4659C46.1464 38.3244 44.6179 37.7346 43.5772 37.3876C40.9266 36.5242 38.2978 35.5986 35.6909 34.6108C34.2087 34.0067 32.6476 33.5611 31.1919 32.8957C32.3788 32.3989 33.6555 32.0468 34.8775 31.6414C36.8075 30.9897 38.7337 30.3275 40.6564 29.6547C41.6249 29.3131 42.5738 28.9244 43.5307 28.5522L46.6369 27.3787C49.01 26.4928 51.4076 25.6789 53.8296 24.9373Z" fill="#1C1C1C"/>
<path d="M41.0486 30.9489C41.4599 30.8852 41.9551 30.9122 42.3667 30.9504C43.6101 31.0657 44.6633 31.5346 45.7419 32.1284C46.1702 32.3641 46.5986 32.6139 47.0499 32.8031C48.3087 33.3313 49.5256 33.311 50.7852 32.7969C50.5011 33.1568 50.1594 33.3894 49.7211 33.5221C48.3674 33.9319 47.1072 33.4462 45.9235 32.8032C45.2497 32.4288 44.5752 32.0484 43.8486 31.7841C42.2126 31.189 40.4319 31.3971 38.7917 31.8627C37.8809 32.1213 36.9948 32.4173 36.0635 32.5987C37.4305 31.6233 39.3817 31.1067 41.0486 30.9489Z" fill="white"/>
<path d="M46.6502 6.69054C46.7159 6.68241 46.6986 6.68286 46.7555 6.68099C48.1608 6.63383 49.6807 7.03751 50.7302 8.01422C51.6648 8.88396 51.991 10.1297 52.0342 11.3694C51.6728 11.6654 51.2889 11.9356 50.9226 12.2265C49.5335 13.3217 48.1625 14.4393 46.8096 15.5792C43.7292 18.2247 40.7456 20.9754 37.8587 23.8311C36.3657 25.3111 34.9195 26.8414 33.4557 28.3503L31.964 29.9434C31.6252 30.31 31.2882 30.7425 30.8923 31.0445C30.8168 31.0572 30.8215 31.0703 30.7516 31.0282C30.7539 30.9278 30.7983 30.8266 30.8362 30.7343C31.0858 30.1267 31.3878 29.5373 31.6499 28.9342C33.0203 25.7798 34.4794 22.6682 35.8886 19.5312L39.3758 11.8201C39.5796 11.3722 40.3914 9.40357 40.6457 9.12467C40.8759 8.87222 41.3267 8.68918 41.6317 8.51951C43.2144 7.63899 44.8182 6.85099 46.6502 6.69054Z" fill="#1C1C1C"/>
<path d="M40.3574 14.7659C40.3617 14.8197 40.3625 14.8668 40.3549 14.9206C40.1356 16.4753 39.1478 17.3528 37.9631 18.2312C37.9529 18.1381 38.3946 17.659 38.4829 17.5528C39.2204 16.6653 39.8533 15.8114 40.3574 14.7659Z" fill="white"/>
<path d="M44.7716 9.18726C45.0558 9.61558 45.0565 10.7645 45.0263 11.2653C44.9128 13.1482 43.8486 14.7704 42.4731 15.9907C42.4135 16.0489 42.3581 16.0975 42.2892 16.1451C42.3452 15.912 42.9005 15.1728 43.0624 14.9246C44.3947 12.8825 44.7068 11.5813 44.7716 9.18726Z" fill="white"/>
<path d="M21.4146 17.7994C21.4548 17.8012 21.4665 17.8169 21.4992 17.8389C21.7325 18.248 21.8724 18.756 22.0368 19.1994C22.2733 19.8335 22.5166 20.4651 22.7666 21.094C23.5054 23.0135 24.3032 24.9081 25.1599 26.7779C25.6882 27.9452 26.2229 29.1095 26.764 30.2709C26.9312 30.63 27.0822 30.9974 27.2497 31.3554C27.3794 31.6327 27.5365 31.9096 27.6361 32.1992C27.6767 32.3172 27.7008 32.4191 27.6695 32.5423C27.5052 32.6772 27.2192 32.6858 27.0129 32.6958C26.506 32.72 25.9941 32.6936 25.4865 32.6883L22.9867 32.6748C20.2897 32.6499 17.5931 32.6714 14.8968 32.7393C14.2544 32.7456 8.86609 33.0129 8.70792 32.944C8.6612 32.7162 8.80164 32.3964 8.87673 32.1834C9.38546 30.7396 10.043 29.2892 10.828 27.9743C12.5956 25.0131 15.6669 21.6015 18.4466 19.5636C18.9131 19.2245 19.3942 18.9076 19.8899 18.6129C20.3856 18.3183 20.8939 18.0471 21.4146 17.7994Z" fill="#1C1C1C"/>
<path d="M23.462 27.8237C23.4808 27.8246 23.4995 27.8253 23.5182 27.8265C23.7717 27.8428 24.0079 28.0318 24.163 28.2226C24.2961 28.3864 24.4024 28.5895 24.38 28.8046C24.1111 28.7619 23.868 28.6007 23.6891 28.3964C23.5195 28.2029 23.4512 28.0797 23.462 27.8237Z" fill="white"/>
<path d="M14.6718 24.6351C14.7596 24.8843 14.8133 25.1447 14.9036 25.3946C15.1284 26.0173 15.4954 26.5626 16.0321 26.956C17.2441 27.8445 19.3674 28.1818 20.8329 28.5754C21.7924 28.8331 22.7197 29.1307 23.6211 29.5504C23.6096 29.5502 23.598 29.5506 23.5866 29.5498C23.3755 29.5344 23.1443 29.4499 22.9362 29.3989C22.5321 29.2986 22.1265 29.2053 21.7192 29.119C19.9085 28.7396 16.7822 28.4078 15.4846 27.0239C14.9123 26.4135 14.6419 25.4589 14.6718 24.6351Z" fill="white"/>
<path d="M38.0229 8.53013C38.4122 8.51548 38.8121 8.54961 39.199 8.59032C38.7698 9.27632 38.417 10.2109 38.0774 10.9653L36.2873 14.9119C33.8194 20.4052 31.4384 25.9359 29.1444 31.5042C28.7552 30.9839 28.4766 30.3248 28.199 29.7386C27.9202 29.1411 27.6341 28.5471 27.3408 27.9566C26.0558 25.3543 24.8667 22.7087 23.7736 20.0199C23.3763 19.0485 22.9534 18.0795 22.5953 17.0935C22.8312 16.3924 23.3175 15.7921 23.8103 15.2528C26.9348 11.8335 33.3873 8.744 38.0229 8.53013Z" fill="#1C1C1C"/>
<path d="M32.6989 15.6831C32.8532 15.6716 32.9963 15.6614 33.1473 15.7076C33.5601 15.834 33.758 16.217 33.9432 16.573C33.6957 16.448 33.4605 16.2681 33.1996 16.1736C32.9847 16.0956 32.7756 16.1252 32.5747 16.2305C31.489 16.7992 30.7373 19.9214 30.3909 21.1034C30.2586 21.6147 30.11 22.1199 29.9924 22.6352C30.1314 20.8016 30.422 18.707 31.2763 17.0608C31.5987 16.4392 32.0098 15.9038 32.6989 15.6831Z" fill="white"/>
<path d="M26.5488 14.3921C26.721 14.3717 26.9129 14.3655 27.0833 14.403C27.4672 14.4878 27.7678 14.7347 27.9792 15.0603C28.939 16.5378 28.6626 19.668 28.539 21.369C28.4967 21.951 28.4935 22.576 28.3781 23.146C28.3395 22.8878 28.3236 22.6248 28.3008 22.3647C28.2473 21.3485 28.2394 20.3296 28.2127 19.3124C28.1847 18.2444 28.1828 17.0934 27.8835 16.0618C27.7582 15.6296 27.5509 15.095 27.1287 14.8762C26.6297 14.6174 25.9792 14.79 25.4794 14.9488C25.8214 14.686 26.13 14.5021 26.5488 14.3921Z" fill="white"/>
</g>
<defs>
<clipPath id="clip0_107_4617">
<rect width="66" height="66" rx="10" fill="white"/>
</clipPath>
</defs>
</svg>
