<svg width="66" height="66" viewBox="0 0 66 66" fill="none" xmlns="http://www.w3.org/2000/svg">
<g clip-path="url(#clip0_107_4645)">
<path d="M0 0H66.0645V66.0645H0V0Z" fill="#1C1C1C"/>
<path d="M31.9195 2.43281C35.9761 2.23972 40.0434 3.35308 43.5692 5.33519C50.6002 9.28788 55.8388 16.1099 58.7511 23.5579C59.3049 24.9873 59.792 26.4391 60.2125 27.9132C60.4236 28.6645 60.5894 29.4279 60.7995 30.1796C61.8791 30.595 63.0866 31.4495 63.9362 32.2344C64.9535 33.1743 65.7896 34.391 65.8367 35.8204C65.8606 36.5283 65.6361 37.2597 65.2496 37.8505C64.8464 38.4661 64.313 38.8724 63.7751 39.3573C63.423 39.6808 63.0835 40.017 62.7564 40.3657C61.1871 42.0405 59.913 43.9112 58.753 45.8845C57.6363 47.7841 56.6774 49.7786 55.6342 51.7189C55.3326 52.2702 55.025 52.8182 54.7115 53.3627C54.5374 53.6683 54.3219 53.9941 54.1998 54.3241C54.0714 54.6711 54.0896 55.0307 54.092 55.3939C54.1034 57.0438 54.3355 58.1487 53.0902 59.459C50.07 62.6368 42.2202 63.5425 37.9555 63.817C36.6647 63.9001 35.3724 63.9219 34.0796 63.9525C29.3658 63.9638 24.6696 63.8054 20.0607 62.7152C18.8263 62.4232 17.5978 62.0868 16.4165 61.62C14.9607 61.0446 12.7957 59.9969 12.2125 58.4511C12.0235 57.95 12.0009 57.3524 11.9986 56.8223C11.9954 56.0816 12.0771 55.163 11.8553 54.4494C11.6698 53.8529 11.2355 53.2964 10.9513 52.736C10.1935 51.2418 9.49423 49.7287 8.68603 48.2585C7.55371 46.1987 6.22413 44.1617 4.75903 42.3228C4.11884 41.5199 3.45463 40.7374 2.76641 39.9753C1.95898 39.093 0.928362 38.3621 0.446583 37.2316C0.0654081 36.3372 0.0909384 35.4219 0.453609 34.5278C1.28918 32.4677 3.3827 31.0889 5.35745 30.2485C5.55083 29.3198 5.74832 28.3848 5.99727 27.4693C6.09479 27.108 6.19742 26.7481 6.30518 26.3897C6.41293 26.0313 6.52575 25.6745 6.64365 25.3193C6.76154 24.9641 6.88446 24.6107 7.01242 24.259C7.14033 23.9073 7.27324 23.5575 7.41113 23.2095C7.54902 22.8616 7.69184 22.5157 7.83958 22.1718C7.98732 21.828 8.1399 21.4863 8.29732 21.1468C8.45479 20.8073 8.61702 20.47 8.78403 20.1351C8.95109 19.8002 9.12285 19.4677 9.29932 19.1377C9.4758 18.8077 9.65694 18.4802 9.84274 18.1554C10.0285 17.8305 10.2189 17.5083 10.4138 17.1889C10.6088 16.8694 10.8083 16.5527 11.0122 16.239C11.2162 15.9252 11.4245 15.6143 11.6373 15.3065C11.8501 14.9986 12.0673 14.6938 12.2887 14.3921C12.5102 14.0904 12.7359 13.7919 12.9658 13.4967C13.1958 13.2014 13.4299 12.9095 13.6682 12.6209C13.9064 12.3322 14.1487 12.047 14.3951 11.7653C18.9304 6.58879 24.9428 2.89565 31.9195 2.43281Z" fill="white"/>
<path d="M10.2733 49.577C10.5204 49.6484 10.8265 49.9106 11.052 50.0504C11.3323 50.2261 11.6201 50.3884 11.9156 50.5374C14.1469 51.643 16.0591 51.8405 18.5107 51.6957L18.6034 52.0439C18.4947 52.0729 18.3856 52.0834 18.2736 52.0919C15.344 52.3159 12.5107 51.5095 10.2733 49.577Z" fill="#1C1C1C"/>
<path d="M46.6193 51.9014C46.6581 51.9343 46.6413 51.911 46.6501 51.9821C46.5299 52.1721 45.4172 52.6456 45.1557 52.7519C42.8619 53.6843 40.4286 53.7136 38.1422 52.7474L38.0932 52.7154C38.0824 52.6881 38.0762 52.6776 38.0748 52.645C38.0717 52.5687 38.1011 52.5186 38.154 52.4698C38.3908 52.5096 38.616 52.6057 38.842 52.6847C41.4093 53.5813 44.2324 53.0542 46.6193 51.9014Z" fill="#1C1C1C"/>
<path d="M55.2043 50.1251L55.2238 50.1279L55.2331 50.157L55.2121 50.174C54.6213 50.6453 53.929 50.9966 53.2352 51.2866C51.2737 52.1063 49.4771 52.2708 47.3752 52.0492L47.3423 52.0179C47.3638 51.8639 47.4589 51.714 47.5275 51.5755C49.1759 51.9714 51.7808 51.6023 53.3649 51.0208C54.0074 50.7849 54.6089 50.459 55.2043 50.1251Z" fill="#1C1C1C"/>
<path d="M19.303 51.7708C19.6003 51.839 20.1583 52.1963 20.4878 52.3395C21.5558 52.8038 22.8278 53.0346 23.9859 53.0857C24.2549 53.0985 24.524 53.1002 24.7932 53.0909C25.0623 53.0815 25.3306 53.0611 25.5981 53.0297C25.8656 52.9982 26.1313 52.9559 26.3953 52.9026C26.6593 52.8493 26.9207 52.7852 27.1794 52.7103C27.3571 52.6574 27.7361 52.4468 27.9122 52.4819C27.9527 52.49 27.9623 52.5252 27.9836 52.5568C27.9787 52.613 27.9697 52.6638 27.9561 52.7186C27.0347 53.1561 26.1171 53.3896 25.0955 53.4465C23.1197 53.5565 20.808 53.1267 19.303 51.7708Z" fill="#1C1C1C"/>
<path d="M37.4634 52.3508C37.5068 52.3613 37.4846 52.3497 37.5195 52.4009C37.5066 52.4426 37.4928 52.4992 37.4695 52.5375C37.3046 52.8096 36.6527 53.0064 36.3595 53.1084C33.9677 53.9404 30.9756 53.869 28.6866 52.7613C28.6104 52.6867 28.6184 52.6526 28.6021 52.5498L28.6322 52.5115C28.8 52.5673 28.9671 52.6252 29.1335 52.685C31.7859 53.6325 34.9087 53.5623 37.4634 52.3508Z" fill="#1C1C1C"/>
<path d="M61.1351 32.2108C61.2722 32.2805 61.4052 32.3573 61.5341 32.4411C61.663 32.5248 61.7873 32.6151 61.9067 32.7119C62.2963 33.0334 62.6142 33.4552 62.6506 33.9767C62.6894 34.531 62.4247 34.9649 62.0811 35.3667C61.8999 35.5837 61.6774 35.7607 61.4546 35.9327C61.3868 34.6821 61.2939 33.4539 61.1351 32.2108Z" fill="#1C1C1C"/>
<path d="M4.97792 32.321L5.0023 32.3267C5.05683 32.5231 4.88781 33.2094 4.855 33.4565C4.74269 34.3022 4.67943 35.1355 4.68297 35.9884C4.47441 35.8203 4.27585 35.6481 4.08298 35.4621C3.9105 35.2761 3.7575 35.0774 3.64059 34.8513C3.44652 34.476 3.38251 34.066 3.52297 33.6597C3.75901 32.9769 4.37172 32.6256 4.97792 32.321Z" fill="#1C1C1C"/>
<path d="M27.8715 44.9593C29.1057 44.9801 30.3386 45.0499 31.5731 45.0638C33.7936 45.0932 36.0132 45.0596 38.2319 44.9632L38.2271 45.6272C37.146 45.7073 36.0524 45.7048 34.9688 45.7203C32.6049 45.7657 30.2429 45.7181 27.8828 45.5777C27.8712 45.3725 27.8742 45.1648 27.8715 44.9593Z" fill="#1C1C1C"/>
<path d="M16.7919 43.8937C17.2539 43.916 17.7266 44.0121 18.1863 44.0756C18.968 44.1904 19.752 44.2859 20.5385 44.3621C21.953 44.5098 23.3692 44.6409 24.7868 44.7552C25.609 44.8188 26.4362 44.8477 27.2566 44.9277L27.2575 45.5503C25.5348 45.482 23.8149 45.3707 22.0977 45.2166C20.3806 45.0625 18.6684 44.8657 16.9611 44.6262C16.9163 44.3775 16.8603 44.137 16.7919 43.8937Z" fill="#1C1C1C"/>
<path d="M3.79321 40.2849C4.18377 40.4216 4.57152 40.6394 4.95221 40.8063C5.66817 41.1225 6.3964 41.4073 7.13688 41.6609C10.0659 42.6684 13.1598 43.2729 16.2042 43.8083C16.2627 44.0408 16.316 44.2744 16.3642 44.5092C15.6829 44.431 15.0022 44.2905 14.3281 44.1647C13.6188 44.0376 12.9132 43.8922 12.2114 43.7285C11.5096 43.5649 10.8126 43.3832 10.1202 43.1834C9.42778 42.9836 8.74103 42.766 8.05991 42.5307C7.37883 42.2953 6.70428 42.0425 6.03625 41.7722C5.57456 41.583 5.01119 41.4078 4.59792 41.1272C4.30188 40.9261 4.03387 40.5531 3.79321 40.2849Z" fill="#1C1C1C"/>
<path d="M49.0085 43.884C49.0361 43.8786 49.0765 43.8834 49.1051 43.884C49.1967 44.0379 49.0882 44.4153 49.0579 44.5952C48.5101 44.648 47.9569 44.7677 47.4119 44.8506C46.5211 44.9845 45.628 45.1003 44.7325 45.1979C42.7988 45.4157 40.8673 45.4842 38.9277 45.6126C38.8529 45.606 38.8693 45.6077 38.8214 45.5607C38.7877 45.3526 38.8091 45.1297 38.8162 44.9193C42.2293 44.7281 45.6267 44.383 49.0085 43.884Z" fill="#1C1C1C"/>
<path d="M61.8568 40.4874L61.878 40.4975C61.8629 40.5259 61.8571 40.5394 61.8349 40.5673C61.6675 40.7777 61.4088 41.0667 61.184 41.2112C60.7984 41.4589 60.2691 41.617 59.8438 41.7968C56.6115 43.1635 53.1979 43.9298 49.746 44.4958C49.74 44.4896 49.7328 44.4843 49.728 44.477C49.6484 44.3579 49.7847 43.881 49.8148 43.7432C50.8329 43.5085 51.8801 43.3759 52.9043 43.1648C55.9296 42.5414 59.0329 41.7521 61.8568 40.4874Z" fill="#1C1C1C"/>
<path d="M58.8556 25.7623C59.0126 25.9207 59.1937 26.6493 59.2764 26.9093C59.3993 27.2916 59.5152 27.676 59.624 28.0625C59.7328 28.4491 59.8345 28.8375 59.9291 29.2277C60.0237 29.618 60.1111 30.0099 60.1914 30.4034C60.2717 30.7968 60.3447 31.1916 60.4105 31.5878C60.4763 31.9839 60.5348 32.3811 60.586 32.7794C60.6373 33.1777 60.6812 33.5768 60.7178 33.9767C60.7545 34.3766 60.7838 34.777 60.8058 35.178C60.8278 35.5789 60.8424 35.9802 60.8497 36.3817C60.358 36.6638 59.8468 36.9139 59.3376 37.1623L59.2952 37.1759C59.1989 37.0941 59.3531 36.4016 59.3739 36.2332C59.6393 34.0888 59.3806 31.5433 58.4515 29.5747C58.2049 29.0524 57.8902 28.5828 57.5558 28.1146C58.2904 27.5088 58.587 26.6474 58.8556 25.7623Z" fill="#1C1C1C"/>
<path d="M9.79257 24.683C9.8627 24.6737 9.90858 24.666 9.97599 24.6904C10.0158 24.8528 9.61741 26.1885 9.49703 26.3831C9.3269 26.658 9.02657 26.9031 8.81496 27.1535C8.67328 27.3223 8.53804 27.4962 8.40922 27.6751C8.2804 27.854 8.15838 28.0374 8.04316 28.2253C7.92793 28.4132 7.81982 28.6052 7.71883 28.8011C7.61784 28.997 7.52423 29.1964 7.43799 29.3993C7.40393 29.4781 7.37083 29.5573 7.3387 29.6369C7.30657 29.7165 7.27543 29.7965 7.24528 29.8769C7.21513 29.9573 7.18599 30.038 7.15786 30.1191C7.12969 30.2002 7.10253 30.2816 7.07638 30.3634C7.05023 30.4452 7.02509 30.5272 7.00096 30.6096C6.97679 30.692 6.95367 30.7747 6.93161 30.8576C6.9095 30.9406 6.88842 31.0238 6.86838 31.1073C6.84834 31.1908 6.82933 31.2745 6.81135 31.3584C6.79333 31.4423 6.77636 31.5265 6.76045 31.6108C6.74453 31.6952 6.72967 31.7798 6.71587 31.8645C6.70202 31.9492 6.68922 32.0341 6.67748 32.1191C6.66574 32.2042 6.65505 32.2893 6.64541 32.3746C6.63578 32.4599 6.6272 32.5453 6.61967 32.6309C6.6121 32.7164 6.60561 32.802 6.60019 32.8877C6.59477 32.9733 6.5904 33.0591 6.58709 33.1448C6.58374 33.2306 6.58146 33.3165 6.58025 33.4023C6.57905 33.4881 6.57892 33.5739 6.57986 33.6598C6.58077 33.7456 6.58273 33.8315 6.58574 33.9173C6.58875 34.003 6.59283 34.0888 6.59799 34.1745C6.60311 34.2602 6.60928 34.3458 6.61651 34.4313C6.62378 34.5169 6.63208 34.6023 6.64141 34.6877C6.65075 34.773 6.66113 34.8582 6.67257 34.9433C6.68406 35.0283 6.69655 35.1133 6.71006 35.1981C6.72361 35.2828 6.73819 35.3674 6.7538 35.4519C6.76946 35.5363 6.78612 35.6205 6.8038 35.7045C6.82148 35.7885 6.84021 35.8723 6.85999 35.9558C6.87974 36.0393 6.90051 36.1226 6.92232 36.2057C6.94412 36.2887 6.96696 36.3714 6.99083 36.4539C7.01466 36.5364 7.03952 36.6185 7.06541 36.7004C7.09126 36.7822 7.11812 36.8637 7.14599 36.945C7.17391 37.0262 7.20279 37.107 7.23264 37.1875C7.26253 37.2679 7.29339 37.348 7.32522 37.4278C7.06066 37.3106 6.79812 37.189 6.53761 37.0631C6.13259 36.8702 5.73678 36.6647 5.35487 36.429C4.94574 34.6291 6.35784 28.0602 7.00077 26.173C7.85432 25.4995 8.71432 24.9222 9.79257 24.683Z" fill="#1C1C1C"/>
<path d="M55.0255 17.5356C55.4457 18.1068 55.7911 18.7679 56.1257 19.3914C56.5848 20.253 57.0153 21.1288 57.4173 22.0185C57.8192 22.9083 58.1918 23.8102 58.535 24.7243C58.3434 25.6635 58.0041 26.8199 57.3488 27.537L57.2959 27.561C57.1775 27.4554 56.5536 25.6044 56.4487 25.3216C55.75 23.4387 54.8392 21.659 53.8895 19.8933C54.6608 19.2844 54.8633 18.4593 55.0255 17.5356Z" fill="#1C1C1C"/>
<path d="M32.0843 3.05095C32.4807 3.02705 32.876 3.02763 33.2729 3.02762C33.3492 3.1584 33.4289 3.29663 33.4884 3.43578C33.9476 4.50884 32.9374 4.55295 32.6298 5.31382L32.6136 5.35466C30.5407 5.48219 28.9933 5.72726 26.9993 6.32695C26.6695 6.08277 26.3492 5.86389 25.9786 5.68606C25.3452 5.36283 24.5694 5.23063 23.8661 5.19363C24.3633 4.91816 24.9291 4.70045 25.4593 4.49303C27.5963 3.65697 29.7894 3.15824 32.0843 3.05095Z" fill="#1C1C1C"/>
<path d="M22.8139 5.8124C24.0067 5.73451 25.2666 5.92482 26.2847 6.57736C23.4537 7.56284 20.9219 9.3831 18.7328 11.3963C18.1347 11.9657 17.5625 12.5419 17.0067 13.1534C17.035 12.0665 17.3256 11.0448 17.8127 10.0743C17.9765 9.748 18.1745 9.44523 18.3526 9.12755C18.463 8.93046 18.551 8.67542 18.6965 8.50536C19.2048 7.91162 22.0678 6.06026 22.8139 5.8124Z" fill="#1C1C1C"/>
<path d="M48.0257 9.21786C48.4102 9.45903 48.7706 9.85793 49.105 10.1704C49.6233 10.6573 50.1263 11.1595 50.614 11.677C51.1017 12.1945 51.5733 12.7264 52.0287 13.2726C52.484 13.8188 52.9224 14.3783 53.3437 14.9512C53.7651 15.524 54.1686 16.1092 54.5544 16.7066C54.442 17.5742 54.3646 18.4366 53.8145 19.1551L53.6049 19.3853C53.0351 18.5951 52.5728 17.723 52.0118 16.923C50.6846 15.0305 49.1822 13.3168 47.5535 11.6807C47.6042 11.6238 47.6529 11.5652 47.6997 11.505C48.1739 10.8839 48.1293 9.94309 48.0257 9.21786Z" fill="#1C1C1C"/>
<path d="M33.997 3.05151C34.7456 3.06498 35.5228 3.18767 36.2595 3.31711C39.5973 3.90361 42.7831 5.38695 45.5675 7.29121C46.1617 7.6976 46.729 8.14282 47.3006 8.58031C47.5428 9.56915 47.6729 10.3773 47.1358 11.2933C47.0661 11.2421 46.9999 11.1763 46.9343 11.1193C42.7748 7.55186 38.9903 5.61017 33.4414 5.35244C33.7546 5.07142 34.0524 4.75606 34.1788 4.34402C34.3179 3.89038 34.2215 3.45526 33.997 3.05151Z" fill="#1C1C1C"/>
<path d="M17.3029 9.64343C17.3102 9.77524 17.0667 10.1954 16.9994 10.3535C16.5488 11.4127 16.2158 12.6487 16.4429 13.7994C15.6165 14.7742 14.8124 15.757 14.0757 16.8029C12.5685 18.9428 11.1349 21.6116 10.2696 24.0772C9.26234 23.9994 8.29847 24.5049 7.47679 25.0356C7.44982 25.0526 7.46853 25.0445 7.41602 25.0414C7.43466 24.6585 8.1044 23.1123 8.28789 22.6801C10.4478 17.5907 13.3383 13.4729 17.3029 9.64343Z" fill="#1C1C1C"/>
<path d="M55.4037 50.7722C55.4053 50.7833 55.4085 50.7942 55.4086 50.8053C55.4093 51.0157 53.6131 54.1144 53.3566 54.5047C53.1714 54.7864 52.9616 55.0578 52.7254 55.2987C51.3113 56.7405 47.7114 57.6173 45.7663 57.9985C45.3561 58.0789 44.8647 58.2263 44.45 58.2305L44.4513 58.1925C45.7069 56.5396 46.3979 54.5161 47.0614 52.573C50.0155 53.0373 52.9209 52.4693 55.4037 50.7722Z" fill="#1C1C1C"/>
<path d="M10.5594 50.5061C10.8455 50.7034 11.0936 50.9386 11.3949 51.1235C13.1433 52.1962 15.2373 52.7238 17.2814 52.7052C17.7932 52.7006 18.295 52.6347 18.8042 52.5983C19.552 54.5595 20.4107 56.3994 21.4674 58.212L21.4715 58.2396C21.2802 58.2999 20.7202 58.1305 20.512 58.0867C18.8827 57.7443 17.2648 57.389 15.7192 56.7526C14.9778 56.4473 14.228 56.0799 13.6178 55.5537C12.3965 54.5005 11.182 51.9993 10.5594 50.5061Z" fill="#1C1C1C"/>
<path d="M37.244 53.3823L37.301 53.3955C37.3016 53.6928 37.1708 54.0576 37.1068 54.3515C36.753 55.9763 36.3216 57.5357 35.6498 59.0589C33.9166 59.1123 32.1833 59.1167 30.4499 59.0721C30.2415 58.5095 29.9956 57.9614 29.7903 57.3965C29.3294 56.0906 29.0261 54.7734 28.7292 53.4236C28.8377 53.4695 28.947 53.5131 29.0572 53.5544C31.5627 54.4974 34.8045 54.484 37.244 53.3823Z" fill="#1C1C1C"/>
<path d="M46.3156 52.8733L46.3377 52.9013C46.2348 53.313 46.0383 53.7292 45.8817 54.1241C45.2599 55.6921 44.6204 56.9988 43.6337 58.3691C41.2312 58.7849 38.7641 58.9341 36.3302 59.0229L36.4963 58.6048C36.6578 58.1751 36.8088 57.7417 36.9495 57.3046C37.0901 56.8676 37.2202 56.4275 37.3396 55.9842C37.4591 55.5409 37.5678 55.0951 37.6657 54.6466C37.7638 54.1981 37.8509 53.7475 37.9272 53.2948C38.1526 53.3935 38.3865 53.475 38.6198 53.5532C41.2141 54.4231 43.8994 54.0761 46.3156 52.8733Z" fill="#1C1C1C"/>
<path d="M19.473 52.6923C19.9112 52.8894 20.2941 53.1661 20.7508 53.3439C23.0993 54.2582 25.7591 54.3234 28.0816 53.2985C28.1629 53.7412 28.2544 54.1819 28.3559 54.6205C28.4575 55.0591 28.569 55.4951 28.6906 55.9286C28.8122 56.362 28.9436 56.7925 29.0849 57.2199C29.2262 57.6473 29.3773 58.0713 29.5381 58.4918L29.7691 59.0392C28.4657 58.9955 27.1644 58.9184 25.865 58.8081C24.691 58.7043 23.5234 58.5522 22.3531 58.4155C22.0616 57.9667 21.7827 57.5103 21.5162 57.0462C21.2498 56.5821 20.9964 56.111 20.7558 55.633C20.5153 55.155 20.288 54.6708 20.0741 54.1803C19.8601 53.6898 19.6597 53.1938 19.473 52.6923Z" fill="#1C1C1C"/>
<path d="M39.2781 17.1739C39.7811 17.121 40.2601 17.1853 40.7324 17.3657C42.3796 17.9951 43.7434 19.7329 44.4445 21.3175C43.0142 21.9283 41.6929 22.8837 40.6307 24.0169C40.2297 24.4447 39.8683 24.9057 39.4891 25.3524L39.0858 24.6644C38.5368 23.7852 37.816 22.9579 36.9529 22.3783C35.8863 21.6621 34.6975 21.4736 33.444 21.7162L33.3221 21.3224C33.5522 21.0205 33.786 20.7215 34.0238 20.4256C35.3618 18.777 37.1005 17.3999 39.2781 17.1739Z" fill="#1C1C1C"/>
<path d="M26.1103 17.1733C27.2228 17.0376 28.7296 17.6564 29.6491 18.2422C30.6041 18.8507 31.3678 19.6924 32.0947 20.5484C32.2865 20.7743 32.5114 21.0053 32.6538 21.2656C32.758 21.456 32.7887 21.7155 32.8356 21.9274C30.8162 22.8104 29.4264 24.5003 28.3071 26.3417L28.2362 26.4408C28.1654 26.4325 28.0587 26.2257 28.0155 26.1613C26.4994 23.8991 24.4013 21.8258 21.6636 21.2086C22.0045 20.512 22.4231 19.8281 22.9064 19.2225C23.7118 18.2135 24.7877 17.3188 26.1103 17.1733Z" fill="#1C1C1C"/>
<path d="M5.34424 42.1179C8.93197 43.6021 12.6721 44.5611 16.5078 45.1446C16.7267 46.1854 17.0405 47.2147 17.3393 48.2351C17.4567 48.6366 18.2433 50.9195 18.218 51.1439C17.6344 51.1916 17.0504 51.1968 16.466 51.1594C14.2753 51.0131 12.2695 50.2348 10.4541 49.023C10.1194 48.7996 9.69668 48.5779 9.43719 48.2681C9.03842 47.7922 8.65635 47.0044 8.31642 46.4465C7.43565 45.0007 6.4561 43.3908 5.34424 42.1179Z" fill="#1C1C1C"/>
<path d="M60.5641 42.1046L60.5651 42.1274C59.9913 42.9065 59.4218 43.6712 58.9142 44.4981C58.456 45.2442 58.0322 46.0166 57.6086 46.7828C57.3702 47.2139 57.1444 47.7012 56.844 48.0914C56.6669 48.3214 56.4476 48.5161 56.2269 48.7032C54.3887 50.2626 51.9634 51.0559 49.5711 51.1254C48.9818 51.1425 48.4007 51.1016 47.8138 51.0546L47.7735 51.0371C47.7327 50.9321 48.1558 50.0112 48.2305 49.8217C48.838 48.2801 49.2309 46.7243 49.5865 45.1097C50.5257 44.9882 51.469 44.7959 52.3965 44.6066C54.3956 44.1985 56.3519 43.6941 58.2782 43.0172C59.0529 42.7449 59.8252 42.4648 60.5641 42.1046Z" fill="#1C1C1C"/>
<path d="M48.845 45.2386L48.8885 45.2659C48.8553 45.6621 48.7551 46.0677 48.6672 46.4552C48.3078 48.0404 47.7441 49.51 47.0825 50.9898C46.8726 51.1024 46.6619 51.2136 46.4505 51.3233C44.0876 52.5399 41.455 52.911 38.894 52.0874L38.2441 51.8441C38.3187 51.2472 38.4262 50.6542 38.4988 50.0567C38.6518 48.7833 38.7431 47.5055 38.7727 46.2233C40.4273 46.1505 42.0793 46.0401 43.7288 45.8919C45.4443 45.7236 47.139 45.4775 48.845 45.2386Z" fill="#1C1C1C"/>
<path d="M17.1377 45.2617C18.2606 45.3656 19.39 45.5543 20.5196 45.6654C22.7748 45.8751 25.0332 46.042 27.2947 46.1661C27.3802 48.0772 27.5781 49.9515 27.8559 51.8436C27.6916 51.9306 27.5097 51.9876 27.3355 52.0518C26.9624 52.174 26.5828 52.2705 26.1967 52.3414C24.2464 52.6976 22.0555 52.473 20.2683 51.5999C19.73 51.3369 19.2494 51.0045 18.7581 50.6649C18.445 49.9106 18.2352 49.087 17.9951 48.3052C17.6894 47.3101 17.3278 46.2849 17.1377 45.2617Z" fill="#1C1C1C"/>
<path d="M27.9052 46.2021C31.3225 46.3353 34.7622 46.411 38.1791 46.227C38.2033 46.8966 38.1267 47.587 38.0716 48.2545C37.9807 49.3578 37.8995 50.4975 37.6594 51.5793C37.5428 51.6276 37.4274 51.6795 37.3115 51.7297C37.052 51.8619 36.7907 51.9896 36.5204 52.0982C33.9454 53.1331 30.9676 52.856 28.4575 51.7904C28.2554 50.6042 28.1311 49.4129 28.0276 48.215C27.9699 47.5471 27.8969 46.8729 27.9052 46.2021Z" fill="#1C1C1C"/>
<path d="M46.6952 21.4004C47.5761 21.3516 48.344 21.5379 49.0771 22.035C50.7195 23.1491 51.508 25.285 51.8736 27.162C51.2354 27.427 50.6569 27.767 50.0385 28.0671C49.7654 27.2218 49.3354 26.5537 48.6076 26.0308C47.7654 25.4259 46.7909 25.2762 45.7784 25.4402C46.4072 25.4482 47.02 25.4832 47.6082 25.7266C48.7304 26.1911 49.331 27.1788 49.7793 28.2577C49.3483 28.5257 48.9239 28.7981 48.5065 29.087C47.7656 28.4146 47.0507 28.0948 46.0439 28.0871C45.8171 28.0902 45.5913 28.1073 45.3666 28.1386C45.1419 28.1698 44.92 28.2149 44.701 28.2738C44.9659 28.2673 45.2293 28.2526 45.4945 28.2557C46.5789 28.2681 47.4267 28.5498 48.1931 29.337C47.6345 29.889 47.058 30.4097 46.5179 30.9821C46.0045 30.4539 45.4181 29.9532 44.7599 29.6148C43.5285 28.9819 42.2715 29.0337 40.9841 29.4448C40.6963 28.2199 40.3228 27.0928 39.8129 25.9437C40.052 25.6048 40.3092 25.2702 40.5778 24.954C42.126 23.1317 44.2513 21.6006 46.6952 21.4004Z" fill="#1C1C1C"/>
<path d="M20.5707 21.7234C21.2296 21.6682 21.9796 21.8699 22.5881 22.1076C23.2593 22.3699 23.9143 22.7508 24.4912 23.1828C25.694 24.0834 27.2887 25.7872 27.8924 27.1752C27.405 28.2854 27.187 29.3728 27.0783 30.5736C26.3684 31.0547 25.7734 31.6093 25.1887 32.231C24.8979 31.9438 24.5931 31.6749 24.286 31.4053C22.6951 30.1057 20.9111 29.1227 18.8312 28.9304C18.6337 28.7055 18.428 28.4884 18.214 28.2791C17.9999 28.0699 17.7783 27.869 17.5489 27.6767C17.3196 27.4843 17.0833 27.3009 16.84 27.1265C16.5967 26.9522 16.3471 26.7873 16.0913 26.6319C16.3938 25.4223 16.8805 24.2608 17.6883 23.298C18.4529 22.3865 19.3751 21.8237 20.5707 21.7234Z" fill="#1C1C1C"/>
<path d="M11.9745 26.0772C12.0821 26.0632 12.1917 26.064 12.3001 26.0633C14.5435 26.0474 16.5437 27.4637 18.0759 28.9785C17.0597 29.2532 16.3321 29.682 15.5939 30.442C13.4742 32.6249 12.8959 35.844 12.9333 38.7707L12.9334 39.1511C11.3512 38.771 9.75283 38.3549 8.2298 37.7767C7.65696 36.9069 7.35425 35.8433 7.24405 34.815C6.97593 32.3121 7.60457 29.556 9.21341 27.5852C9.9396 26.6956 10.8299 26.1915 11.9745 26.0772Z" fill="#1C1C1C"/>
<path d="M34.0301 22.237C34.8978 22.1152 35.7566 22.3365 36.4936 22.7935C38.7776 24.21 39.8619 27.2455 40.4346 29.7364C40.1463 29.8952 39.8721 30.0687 39.5968 30.2486C39.5533 30.1355 39.5067 30.0236 39.4571 29.913C39.0246 28.9706 38.285 28.1533 37.2964 27.7921C36.1914 27.3884 35.0154 27.5376 33.966 28.0281C35.0237 27.7506 35.9885 27.6066 37.0324 28.0334C38.1482 28.4895 38.7904 29.4246 39.2439 30.4945C38.9965 30.7297 38.7525 30.9683 38.5119 31.2105C38.2227 30.9045 37.9197 30.6318 37.5381 30.4456C36.6012 29.9883 35.0488 30.1627 34.0904 30.4946L34.1064 30.5183C34.5443 30.4602 34.9872 30.4138 35.4294 30.4204C36.6363 30.4383 37.3426 30.6801 38.1779 31.5455C37.2456 32.5781 36.4951 33.7815 35.882 35.0266C34.9806 33.0063 33.7155 30.8339 31.5784 29.9358C30.2321 29.3701 29.0186 29.5982 27.715 30.13C27.9459 28.2554 28.5959 26.7988 29.7144 25.2941C30.756 23.8928 32.2389 22.4993 34.0301 22.237Z" fill="#1C1C1C"/>
<path d="M18.4857 29.5608C18.552 29.5568 18.6183 29.5546 18.6848 29.5543C20.9603 29.5459 23.2478 31.1366 24.8013 32.697C23.0515 35.1805 22.097 37.501 22.1132 40.5773C21.4322 40.511 20.7519 40.4384 20.0722 40.3596C17.8994 40.1426 15.7033 39.7603 13.5749 39.2797C13.5695 39.2413 13.5648 39.2027 13.561 39.1641C13.5068 38.6376 13.5235 38.0865 13.5505 37.5584C13.6627 35.3641 14.2362 32.9939 15.6551 31.2632C16.4108 30.3413 17.2718 29.6806 18.4857 29.5608Z" fill="#1C1C1C"/>
<path d="M54.0072 27.2713C54.3357 27.236 54.6995 27.2679 55.0236 27.3284C56.0373 27.5176 56.8139 28.0525 57.3879 28.9028C58.9885 31.2739 59.0849 34.7698 58.564 37.5012C56.3 38.4642 53.8334 39.0586 51.4232 39.5246C50.7365 39.6601 50.0472 39.7811 49.3554 39.8877C49.3626 36.8968 48.6736 33.9208 46.8792 31.4827C46.8953 31.4633 46.9115 31.4439 46.9279 31.4246C48.5805 29.4811 51.4237 27.485 54.0072 27.2713Z" fill="#1C1C1C"/>
<path d="M42.3127 29.7539C42.4713 29.7319 42.6476 29.7352 42.8078 29.7375C44.0631 29.7557 45.0848 30.375 45.9327 31.265C47.9754 33.4089 48.7942 37.1005 48.726 39.9863C46.6011 40.2674 44.4859 40.5251 42.3471 40.6837C41.7925 40.7549 41.2178 40.7725 40.659 40.807C39.3292 40.8843 37.9986 40.9417 36.6671 40.9794C36.8879 39.2814 36.6235 37.5894 36.1566 35.956C36.6885 34.7395 37.298 33.5855 38.1178 32.5347C39.1689 31.1874 40.5573 29.9681 42.3127 29.7539Z" fill="#1C1C1C"/>
<path d="M29.642 30.2066C29.8643 30.1856 30.0938 30.1921 30.3156 30.218C31.7568 30.3862 32.9337 31.3879 33.7951 32.4933C35.5746 34.7768 36.411 38.1459 36.0534 40.9978C33.8155 41.0267 31.5916 41.0714 29.3529 41.007C27.1391 40.9692 24.9303 40.8432 22.7265 40.629C22.6069 37.9193 23.6873 34.9764 25.41 32.896C26.4667 31.6198 27.9318 30.3714 29.642 30.2066Z" fill="#1C1C1C"/>
<path d="M53.4726 55.4118C53.5521 55.7803 53.5399 56.9175 53.4966 57.3097C53.3918 58.2563 52.8386 58.989 52.1114 59.5704C50.6419 60.7452 48.672 61.3887 46.8782 61.8623C40.4884 63.5494 31.7097 63.7082 25.117 62.9761C21.8599 62.6145 15.2611 61.4874 13.0727 58.7553C12.6046 58.1215 12.6092 57.4837 12.5917 56.7274L12.5692 55.4523C12.7237 55.6061 12.8791 55.7587 13.0433 55.9023C13.5869 56.3777 14.2138 56.716 14.8606 57.0277C20.4799 59.7362 31.8164 59.9972 38.1061 59.5755C42.0546 59.311 50.8326 58.4324 53.4726 55.4118Z" fill="#1C1C1C"/>
<path d="M60.9213 30.8852C61.0302 30.9332 61.1347 30.9894 61.2391 31.0463C62.8035 31.8986 64.6303 33.2899 65.1387 35.0623C65.3697 35.8662 65.2555 36.6734 64.8445 37.3996C63.6128 39.5751 59.49 40.9058 57.1546 41.5405C51.3937 43.1061 45.4782 43.903 39.5282 44.2647C36.9935 44.4355 34.456 44.5074 31.9156 44.4804C29.735 44.4354 27.5567 44.3386 25.3806 44.19C24.3375 44.1273 23.2958 44.0466 22.2555 43.9479C21.2152 43.8493 20.1769 43.7327 19.1406 43.5982C18.1044 43.4637 17.0707 43.3113 16.0397 43.141C15.0087 42.9708 13.9809 42.7829 12.9564 42.5772C10.0071 41.9554 6.16743 40.9949 3.55526 39.4932C2.44156 38.853 1.20346 37.9526 0.859021 36.6455C0.613515 35.7139 0.883563 34.8549 1.3506 34.0441C2.2757 32.6248 3.75027 31.6737 5.23717 30.9275C5.20102 31.1554 5.15624 31.3783 5.10345 31.603C4.26791 31.9182 3.38954 32.4488 3.00629 33.2941C2.78205 33.7886 2.78028 34.3373 2.97632 34.8411C3.5306 36.2655 5.45229 37.2653 6.80029 37.849C10.958 39.6495 16.3784 40.5783 20.8736 41.0703C22.4898 41.2317 24.1085 41.3602 25.7299 41.4558C27.3513 41.5513 28.9739 41.6139 30.5979 41.6434C32.2218 41.6729 33.8457 41.6694 35.4695 41.6328C37.0933 41.5962 38.7157 41.5266 40.3366 41.424C44.3283 41.1776 48.3013 40.7777 52.2218 39.9696C54.2654 39.5483 56.3115 39.0439 58.2551 38.2739C59.859 37.6385 62.3901 36.5594 63.1012 34.8857C63.1145 34.8547 63.1271 34.8233 63.1388 34.7917C63.1506 34.76 63.1616 34.7281 63.1717 34.6959C63.1819 34.6637 63.1912 34.6312 63.1996 34.5985C63.2082 34.5659 63.2159 34.533 63.2227 34.4999C63.2296 34.4669 63.2356 34.4336 63.2407 34.4003C63.2459 34.3669 63.2502 34.3334 63.2537 34.2998C63.2572 34.2662 63.2598 34.2326 63.2617 34.1988C63.2635 34.1651 63.2644 34.1314 63.2645 34.0976C63.2646 34.0639 63.2638 34.0301 63.2622 33.9964C63.2605 33.9627 63.2581 33.929 63.2547 33.8954C63.2514 33.8618 63.2473 33.8283 63.2423 33.7949C63.2373 33.7615 63.2315 33.7282 63.2247 33.6952C63.2181 33.662 63.2106 33.6291 63.2022 33.5964C63.1939 33.5637 63.1847 33.5312 63.1747 33.499C63.1648 33.4667 63.154 33.4347 63.1424 33.403C63.1307 33.3713 63.1184 33.3399 63.1052 33.3088C62.7415 32.4381 61.8676 31.9019 61.0281 31.5626C60.9871 31.3376 60.9515 31.1118 60.9213 30.8852Z" fill="#1C1C1C"/>
<path d="M32.7003 5.98317C32.8687 5.9807 33.037 5.98052 33.2054 5.98261C33.3737 5.9847 33.542 5.98907 33.7102 5.99572C33.8785 6.00237 34.0466 6.01129 34.2145 6.02249C34.3825 6.03369 34.5503 6.04716 34.7179 6.0629C34.8856 6.07864 35.0529 6.09664 35.2201 6.11691C35.3872 6.13718 35.5541 6.1597 35.7206 6.18449C35.8871 6.20927 36.0532 6.23631 36.219 6.26559C36.3849 6.29488 36.5502 6.32639 36.7152 6.36015C36.8801 6.39391 37.0445 6.4299 37.2085 6.46812C37.3725 6.50632 37.5359 6.54673 37.6988 6.58935C37.8616 6.63197 38.0239 6.67681 38.1856 6.72387C38.3472 6.77088 38.5082 6.82008 38.6685 6.87148C38.8289 6.92283 38.9885 6.97636 39.1474 7.03206C39.3062 7.08776 39.4643 7.14561 39.6216 7.20561C39.7789 7.26561 39.9354 7.32772 40.091 7.39193C40.2467 7.45615 40.4014 7.52245 40.5552 7.59083C46.4666 10.2384 51.3244 16.093 54.1967 21.7613C54.8058 22.962 55.355 24.1895 55.8443 25.4437C56.0719 26.0304 56.2631 26.6303 56.488 27.2183C55.1337 26.561 53.8769 26.5909 52.4414 26.9512C52.2985 26.4144 52.1818 25.8715 52.0065 25.3437C51.5118 23.8544 50.6044 22.2519 49.2349 21.4228C47.8749 20.5994 46.4975 20.7359 45.0188 21.0944C44.4125 19.9166 43.7007 18.8193 42.7047 17.9284C41.7334 17.0594 40.6519 16.5031 39.3254 16.5816C37.1492 16.7103 35.299 18.0872 33.9001 19.6553C33.5829 20.0069 33.2988 20.3875 33.0178 20.7682C31.8922 19.3197 30.6907 17.9833 28.9882 17.2019C27.795 16.6542 26.3431 16.3226 25.0738 16.8011C23.2301 17.4963 21.8419 19.3915 21.0421 21.1354C20.2484 21.1136 19.4981 21.2566 18.7916 21.6287C17.0033 22.5704 16.1156 24.4843 15.5394 26.3255C15.2425 26.1788 14.9402 26.0349 14.6316 25.9143C13.1612 25.3397 11.7388 25.2699 10.286 25.9025C11.5502 21.4623 14.4882 16.7136 17.6283 13.3453C21.8158 8.8538 26.4922 6.19821 32.7003 5.98317Z" fill="#1C1C1C"/>
</g>
<defs>
<clipPath id="clip0_107_4645">
<rect width="66" height="66" rx="10" fill="white"/>
</clipPath>
</defs>
</svg>
