<svg width="66" height="66" viewBox="0 0 66 66" fill="none" xmlns="http://www.w3.org/2000/svg">
<g clip-path="url(#clip0_107_4620)">
<path d="M0 0H66V66H0V0Z" fill="#1C1C1C"/>
<path d="M10.186 2.32879C10.4611 2.30873 10.7179 2.32136 10.9813 2.4113C11.4544 2.57284 11.8486 2.95846 12.0612 3.40627C12.398 4.11587 12.2585 4.91011 12.0074 5.621C14.5372 6.24783 16.8175 7.81922 18.4888 9.79651C19.347 10.8119 20.0815 11.93 20.8354 13.0229C21.6265 14.1695 22.4152 15.3694 23.4053 16.3565C24.4295 17.3776 25.5891 18.1286 26.9006 18.7289C27.0509 18.7976 27.1522 18.8451 27.3208 18.8461C27.6033 18.8479 27.8977 18.8011 28.1792 18.775C28.6346 18.7335 29.0907 18.7005 29.5474 18.6757C30.9933 18.6014 32.4614 18.6205 33.9072 18.6961C34.3651 18.7234 34.8226 18.7573 35.2796 18.7977C35.7366 18.8381 36.193 18.8851 36.6486 18.9387C37.1043 18.9922 37.5591 19.0522 38.013 19.1188C38.4669 19.1853 38.9198 19.2584 39.3716 19.338C39.8234 19.4175 40.274 19.5035 40.7234 19.596C41.1727 19.6885 41.6207 19.7874 42.0672 19.8927C42.5137 19.998 42.9587 20.1097 43.402 20.2279C43.8453 20.3459 44.2869 20.4704 44.7266 20.6011C45.339 20.3504 45.9247 20.0841 46.4698 19.7031C47.3001 19.1227 48.0184 18.3408 48.7458 17.6394C50.0987 16.3344 51.4672 15.0133 53.003 13.922C54.4874 12.8672 56.3407 11.9771 58.2061 12.3052C58.957 12.4372 59.6341 12.7896 60.0722 13.4293C60.6898 14.3311 60.6189 15.4445 60.4329 16.4671C61.0395 16.6099 61.6102 16.806 62.1246 17.1669C62.8022 17.6422 63.2806 18.3319 63.4237 19.1528C63.6406 20.3972 63.1268 21.6095 62.4206 22.6046C62.9953 23.4128 63.3278 24.3761 63.2415 25.3746C63.1199 26.7806 62.3192 27.8217 61.2797 28.7049C61.0796 29.2486 60.8697 29.7751 60.5641 30.2706C59.7713 31.5558 58.6622 32.4324 57.1828 32.7797C57.1113 33.106 57.0341 33.4311 56.9511 33.7547C56.8682 34.0783 56.7796 34.4004 56.6852 34.721C56.5909 35.0415 56.491 35.3602 56.3853 35.6772C56.2798 35.9942 56.1686 36.3093 56.0519 36.6223C55.9352 36.9354 55.8129 37.2463 55.6852 37.555C55.5575 37.8637 55.4244 38.1701 55.2858 38.4742C55.1473 38.7782 55.0034 39.0797 54.8542 39.3786C54.705 39.6776 54.5506 39.9738 54.3909 40.2673C52.2855 44.0667 49.2032 46.8615 45.1218 48.3918C44.5409 48.6096 43.945 48.7785 43.3491 48.9495C42.8969 49.9825 42.3262 50.8693 41.4847 51.6328C41.3244 51.7783 41.1409 51.8943 40.9767 52.0346C40.8813 52.116 40.8074 52.1904 40.7544 52.3051C40.5584 52.7291 40.4568 53.256 40.3214 53.7056C39.9871 54.816 39.3323 56.6305 39.2618 57.7176C39.2449 57.9793 39.2757 58.3813 39.521 58.5435C39.8121 58.7358 40.4006 58.6993 40.7464 58.7567C41.523 58.8858 42.8234 59.4814 43.3375 60.0854C43.475 60.2469 43.7017 60.5615 43.6534 60.7852C43.6356 60.868 43.6088 60.9223 43.5316 60.964C43.3348 61.0704 42.8905 60.8608 42.6836 60.8065C42.3046 60.7071 41.9083 60.6752 41.5246 60.7682C41.3484 60.8108 41.1821 60.8647 40.9989 60.8662C40.7109 60.8685 40.4229 60.7695 40.1466 60.6951C38.5679 60.3691 37.1897 60.8572 35.8357 61.6381C35.2768 61.9604 34.7183 62.3044 34.1044 62.5132C33.6275 62.6753 33.2718 62.5883 32.8027 62.6412C32.5568 62.669 32.3155 62.7645 32.0889 62.8596C31.7235 63.0131 30.9715 63.6686 30.6305 63.6083C30.5504 63.5941 30.4821 63.5516 30.4392 63.4819C30.3447 63.328 30.3869 63.1145 30.4296 62.9515C30.6467 62.1217 31.373 61.506 32.0821 61.0902C31.9008 60.839 31.7577 60.5764 31.6147 60.3026C31.4755 60.317 31.3347 60.3327 31.2005 60.3742C30.8591 60.4796 30.3155 60.7936 29.9686 60.6975C29.8807 60.6731 29.8559 60.6413 29.8101 60.5661C29.7983 60.2436 30.1237 59.8482 30.3284 59.6153C30.7606 59.1235 31.3737 58.6615 32.0455 58.6167C32.1888 58.7038 32.291 58.79 32.3955 58.922C32.9343 58.6613 33.4964 58.5255 34.0897 58.4556C35.1649 58.3289 36.1085 58.4031 36.8781 57.5184C36.6822 57.4214 36.4652 57.3362 36.255 57.2764C35.8049 57.1486 35.5465 57.2367 35.1553 57.452C33.3484 56.9209 32.4189 57.0902 30.8554 58.1092C30.5398 58.3148 30.2409 58.5571 29.9177 58.7489C29.2932 59.1195 28.6967 59.2818 28.1054 59.7655C27.8514 59.9733 27.4169 60.6404 27.1228 60.6833C27.0305 60.6968 26.9315 60.685 26.859 60.621C26.758 60.5318 26.7319 60.3837 26.7244 60.2561C26.6788 59.4881 27.0656 58.6327 27.5609 58.0653C26.9985 57.9964 26.4159 57.905 25.987 57.5043C25.8379 57.5144 25.6901 57.5338 25.5436 57.5625C25.3969 57.5912 25.2527 57.6289 25.1108 57.6756C24.7765 57.7859 24.0283 58.2561 23.7122 58.1322C23.6148 58.094 23.5139 58.0254 23.4797 57.9213C23.4098 57.7084 23.6071 57.4125 23.7218 57.2399C24.1424 56.6075 24.8609 56.0772 25.6109 55.9309C26.7754 54.6224 29.7045 55.1734 31.2595 54.1811C32.3979 53.4547 32.6074 52.1369 32.8786 50.9123C32.6084 50.8328 32.3429 50.7398 32.0821 50.6334C31.8213 50.527 31.5665 50.4077 31.3178 50.2755C30.8251 50.0136 30.3206 49.6987 29.8746 49.3635C29.552 49.121 29.1407 48.5775 28.7868 48.4408C28.4978 48.3292 28.1476 48.3004 27.843 48.2461C27.4079 48.17 26.9757 48.0799 26.5464 47.9757C24.5027 47.4774 22.5157 46.7446 20.6907 45.6919C15.013 42.4171 10.9637 35.7258 10.784 29.1652C10.7431 27.6716 10.9064 26.2163 10.9878 24.7301C11.1273 22.1855 10.9489 19.7673 10.2886 17.3028C10.1786 17.4449 10.072 17.5928 9.94886 17.7239C9.92299 17.7517 9.89642 17.7788 9.86913 17.8053C9.84189 17.8317 9.814 17.8574 9.78547 17.8824C9.7569 17.9075 9.72772 17.9318 9.69794 17.9553C9.66817 17.9789 9.63783 18.0016 9.60694 18.0237C9.576 18.0457 9.54455 18.067 9.51258 18.0874C9.48057 18.1078 9.44808 18.1275 9.41512 18.1463C9.38212 18.1651 9.34869 18.1831 9.31483 18.2002C9.28093 18.2173 9.24662 18.2336 9.2119 18.249C9.17723 18.2644 9.14217 18.2789 9.10672 18.2925C9.07127 18.3061 9.03552 18.3189 8.99947 18.3307C8.96337 18.3425 8.92702 18.3535 8.89041 18.3634C8.85376 18.3734 8.81689 18.3825 8.77981 18.3907C8.74273 18.3988 8.70547 18.406 8.66805 18.4123C8.63058 18.4186 8.593 18.4239 8.55532 18.4282C8.51759 18.4326 8.47978 18.436 8.44188 18.4385C8.40398 18.441 8.36606 18.4425 8.32812 18.443C7.20516 18.4654 6.37662 17.8104 6.09633 16.7308C5.85913 15.8172 5.97935 14.7965 5.22074 14.0922C4.34822 13.2821 3.47376 14.4579 3.03729 14.4286C2.9466 14.4226 2.8955 14.3934 2.83831 14.3233C2.66416 14.11 2.68218 13.5301 2.69817 13.2665C2.77458 12.0069 3.71769 10.8447 4.62132 10.0356C4.58654 9.99206 4.55263 9.94784 4.51958 9.90299C4.48653 9.85813 4.45438 9.81262 4.42311 9.76647C4.39184 9.72032 4.36149 9.6736 4.33205 9.62629C4.30261 9.57898 4.27411 9.53109 4.24654 9.48262C4.21897 9.4342 4.19237 9.38523 4.16671 9.33573C4.14107 9.28628 4.11639 9.23633 4.09269 9.18588C4.069 9.13543 4.0463 9.08454 4.02459 9.03319C4.00289 8.98189 3.9822 8.93015 3.96252 8.87799C3.94284 8.82587 3.92419 8.77336 3.90656 8.72046C3.88894 8.66761 3.87235 8.61442 3.8568 8.56088C3.84126 8.50738 3.82676 8.45358 3.81332 8.39949C3.79988 8.34539 3.78751 8.29106 3.77619 8.23649C3.76488 8.18191 3.75464 8.12715 3.74547 8.07219C3.73629 8.01719 3.7282 7.96207 3.72119 7.90681C3.71417 7.85151 3.70824 7.7961 3.7034 7.74058C3.69855 7.68507 3.69479 7.62947 3.69212 7.57378C3.65667 6.86131 3.79632 6.02264 4.30226 5.48267C4.62225 5.14118 5.0411 5.00646 5.49552 4.98774C5.58547 4.46125 5.72235 3.95985 6.03593 3.51799C6.05512 3.49052 6.07497 3.46355 6.0955 3.43707C6.11604 3.41059 6.13721 3.38463 6.15904 3.3592C6.18086 3.33378 6.2033 3.30891 6.22636 3.2846C6.24943 3.26029 6.27308 3.23657 6.29733 3.21344C6.32157 3.19031 6.34637 3.16779 6.37174 3.1459C6.3971 3.124 6.423 3.10275 6.44944 3.08215C6.47587 3.06155 6.50279 3.04161 6.5302 3.02234C6.55762 3.00308 6.58548 2.98451 6.6138 2.96664C6.64216 2.94876 6.67093 2.9316 6.7001 2.91516C6.72932 2.89872 6.75893 2.88301 6.78892 2.86804C6.81887 2.85308 6.84918 2.83886 6.87986 2.82541C6.91058 2.81195 6.94161 2.79926 6.97293 2.78735C7.00421 2.77544 7.03579 2.76431 7.06768 2.75397C7.09956 2.74364 7.13168 2.7341 7.16403 2.72536C7.19639 2.71662 7.22894 2.70869 7.26168 2.70157C7.29442 2.69445 7.32732 2.68815 7.36036 2.68268C7.9298 2.59398 8.45413 2.75451 8.91007 3.09481C9.26849 2.67443 9.64806 2.44963 10.186 2.32879Z" fill="white"/>
<path d="M36.0056 56.2943C36.0242 56.2959 36.0428 56.2973 36.0613 56.2992C36.3851 56.3336 36.6509 56.5612 36.8511 56.8057L36.7953 56.7968C36.4793 56.6995 36.1636 56.6647 35.8347 56.6427L36.0056 56.2943Z" fill="#1C1C1C"/>
<path d="M41.6572 59.7065C41.9779 59.7689 42.4901 59.9603 42.7105 60.2102L42.6588 60.224C42.2588 60.1426 41.8527 60.0974 41.4479 60.0463C41.5163 59.9323 41.5861 59.819 41.6572 59.7065Z" fill="#1C1C1C"/>
<path d="M31.7989 59.2614C31.9211 59.3382 32.0498 59.3997 32.0905 59.5453L32.0486 59.616C31.7946 59.7629 31.403 59.734 31.1114 59.7971C31.002 59.8388 30.8863 59.8701 30.7748 59.9059C31.0792 59.6189 31.4196 59.4321 31.7989 59.2614Z" fill="#1C1C1C"/>
<path d="M25.6039 56.5866C25.6853 56.6106 25.7306 56.6666 25.7789 56.7368C25.8277 56.8076 25.8403 56.8527 25.8293 56.9361C25.6277 57.0285 25.3801 57.0473 25.1638 57.098C24.9624 57.1452 24.7721 57.2144 24.5791 57.2882C24.5076 57.3241 24.4344 57.3528 24.3599 57.3818L24.3607 57.3484C24.7043 56.9624 25.1193 56.7491 25.6039 56.5866Z" fill="#1C1C1C"/>
<path d="M32.2393 61.7109C32.3513 61.7213 32.5487 61.7507 32.6315 61.8334C32.6843 61.8862 32.6673 61.8947 32.6615 61.9595C32.4599 62.2344 31.7366 62.4168 31.4082 62.6056L31.0936 62.809C31.4091 62.3142 31.7311 62.0054 32.2393 61.7109Z" fill="#1C1C1C"/>
<path d="M28.3883 58.071C28.439 58.0848 28.4914 58.099 28.5393 58.1211C28.679 58.1857 28.8086 58.3354 28.8586 58.4787C28.8468 58.5526 28.8484 58.5778 28.7898 58.6304C28.6628 58.7443 28.4664 58.8286 28.3185 58.9205C28.0255 59.1024 27.7961 59.3366 27.5683 59.5929L27.335 59.8845C27.45 59.1609 27.8474 58.5501 28.3883 58.071Z" fill="#1C1C1C"/>
<path d="M7.30673 12.1289C7.43074 12.1055 7.57022 12.1058 7.69674 12.095C7.65929 12.1635 7.62146 12.2325 7.57763 12.2973C7.12594 12.9649 6.61573 12.9034 5.90868 12.971C5.56965 13.0034 5.23714 13.064 4.90295 13.1276L4.44708 13.2476C5.34526 12.6605 6.2335 12.2732 7.30673 12.1289Z" fill="#1C1C1C"/>
<path d="M29.8513 48.5675C30.1776 48.5607 30.538 48.6313 30.8646 48.6647C31.4175 48.7213 31.9642 48.7586 32.5199 48.7722C33.0553 49.3683 33.6121 49.9385 34.1777 50.5055C32.5627 50.353 31.1336 49.4993 29.8513 48.5675Z" fill="#1C1C1C"/>
<path d="M5.70326 9.89124C5.70612 9.9555 5.71022 9.93481 5.69626 9.98998C5.58592 10.4262 5.50596 10.8121 5.50588 11.2639C6.32313 11.1803 6.92584 11.2009 7.5926 11.7216C6.40601 11.8625 5.58826 12.1187 4.52804 12.6549C4.05667 12.9151 3.6681 13.2338 3.27618 13.5975C3.28461 13.4996 3.29535 13.402 3.3084 13.3045C3.49048 11.9629 4.66483 10.6896 5.70326 9.89124Z" fill="#1C1C1C"/>
<path d="M52.7486 30.9472C53.0071 31.1446 53.2642 31.3438 53.5197 31.5451C52.4114 33.155 51.2256 34.5969 49.8034 35.9394C49.4143 35.7384 49.0252 35.5524 48.6073 35.4183L48.1784 35.3176C47.9082 35.0154 47.6088 34.7894 47.2665 34.5749C48.266 34.3558 49.282 33.9071 50.1776 33.4113C51.1719 32.8609 52.4167 32.1025 52.7486 30.9472Z" fill="#1C1C1C"/>
<path d="M5.62225 13.606C6.62991 13.5529 7.36441 13.8909 8.25206 14.3206C8.53147 14.4558 8.84232 14.5826 9.08583 14.7768C9.47119 15.0841 9.8242 15.763 9.86397 16.2536C9.89671 16.6571 9.72166 16.9884 9.46849 17.2854C9.12018 17.5945 8.72425 17.7615 8.25374 17.7633C6.46098 17.77 6.76313 15.9622 6.37427 14.7961C6.21396 14.3154 5.97845 13.9621 5.62225 13.606Z" fill="#1C1C1C"/>
<path d="M35.3226 51.4483C35.5456 51.5438 35.7617 51.7294 35.9767 51.8512C36.646 52.2304 37.3117 52.5057 38.0569 52.6973C37.997 53.1474 37.9688 53.6014 37.9037 54.0515C37.7844 54.8763 37.5886 55.6644 37.3484 56.4615L36.982 56.1108C36.1501 55.4366 35.1333 55.6525 34.2898 55.1466C34.098 55.0315 33.9449 54.8726 33.8991 54.6476C33.7406 53.8677 34.8736 52.1072 35.3226 51.4483Z" fill="#1C1C1C"/>
<path d="M33.4764 51.0346C33.8785 51.104 34.2807 51.1359 34.6885 51.1433C34.2312 51.941 33.4684 53.1926 33.2825 54.0834C33.1979 54.4883 33.2381 54.9231 33.4747 55.2721C33.9043 55.906 34.7761 56.0039 35.4656 56.1495C35.3693 56.3649 35.2625 56.574 35.1548 56.7838C34.9018 56.7235 34.6477 56.6677 34.3927 56.6163C32.2099 56.1901 31.0828 57.2144 29.3938 58.3488C29.2768 57.9815 29.1251 57.8329 28.8091 57.6217C29.6577 56.9834 30.6042 56.4703 31.4785 55.8667C30.6304 56.1622 29.5427 56.5461 28.7481 56.9466C28.4776 57.0996 28.286 57.2834 28.0738 57.5078C27.5868 57.4223 27.0711 57.3549 26.6055 57.1852C26.5438 57.09 26.4919 56.9858 26.4367 56.8865C27.9141 56.3651 29.834 56.1934 31.2009 55.3786C30.8592 55.4825 30.5173 55.5931 30.167 55.6644C29.2297 55.8552 28.2786 55.9697 27.337 56.1347C27.2092 56.1571 26.3807 56.3451 26.3256 56.3266C26.3056 56.3199 26.2905 56.3033 26.2729 56.2917C26.3813 55.7273 29.829 55.3952 30.4185 55.2386C30.5424 55.2061 30.6645 55.1681 30.7849 55.1244C30.9053 55.0806 31.0234 55.0314 31.1392 54.9768C31.255 54.9222 31.3681 54.8623 31.4784 54.7973C31.5887 54.7322 31.6958 54.6622 31.7996 54.5873C33.0121 53.7126 33.246 52.4263 33.4764 51.0346Z" fill="#1C1C1C"/>
<path d="M61.8994 22.9785C62.3455 23.4399 62.618 24.2613 62.6494 24.8923C62.7002 25.9091 62.2737 26.8573 61.5994 27.6003C60.4514 28.8653 59.1822 29.5117 57.4837 29.5922L57.3634 29.3154C57.1368 28.8953 56.8223 28.6012 56.4673 28.2907C56.4993 28.2824 56.5312 28.2738 56.563 28.265C57.729 27.9423 59.2233 27.154 59.8326 26.056C60.1239 25.5309 60.0928 25.0713 59.9346 24.5144C60.6553 24.2154 61.3481 23.5246 61.8994 22.9785Z" fill="#1C1C1C"/>
<path d="M39.8834 52.5996C39.9208 52.5929 39.8966 52.5942 39.9553 52.6118C39.9414 52.9365 39.7581 53.3658 39.6614 53.6778C39.3244 54.7643 38.6749 56.5781 38.6154 57.6762C38.5975 58.0051 38.6302 58.3513 38.7728 58.6521C39.2272 59.6097 40.215 59.1746 40.9988 59.4557L41.0434 59.4721C40.9356 59.7101 40.869 59.9657 40.7952 60.2159C39.0444 59.6044 37.305 60.0711 35.7387 60.9532C34.9196 61.4146 34.1905 61.8939 33.2473 62.0583C33.2431 62.0291 33.2382 61.9999 33.2343 61.9707C33.1976 61.6934 33.0893 61.5391 32.9269 61.3198C33.2989 61.115 33.7105 60.9661 34.1 60.7955C34.6356 60.561 35.1558 60.2911 35.6769 60.0263C36.0126 59.8558 36.3676 59.6983 36.6825 59.4912L36.0379 59.7017C35.5892 59.8616 35.1403 60.0198 34.6826 60.1525C33.9514 60.3645 33.1349 60.5073 32.4779 60.9002C32.4506 60.697 32.3911 60.52 32.3207 60.3281C33.4314 60.1899 35.2043 59.5831 36.3015 59.1884C35.9406 59.2049 35.5576 59.2976 35.2005 59.3558C34.3757 59.4901 33.5475 59.6404 32.7175 59.736L32.7706 59.4013C34.0512 58.8735 35.8506 59.2566 36.9428 58.3783C38.1968 57.3698 38.5217 54.3211 38.6981 52.7705C39.1027 52.7505 39.4887 52.6895 39.8834 52.5996Z" fill="#1C1C1C"/>
<path d="M10.2001 3.00224C10.4736 2.98 10.6861 2.97868 10.9385 3.11074C11.242 3.26952 11.4472 3.56927 11.5446 3.892C11.7275 4.49804 11.539 5.08127 11.2531 5.61536C9.69245 5.77381 7.79347 6.83052 6.74739 7.96645C6.50176 8.23315 6.31333 8.53963 6.08069 8.81491C5.8352 9.1054 5.46149 9.37204 5.13944 9.57378L5.08849 9.5558C4.55361 8.77147 4.25409 7.88698 4.38036 6.92933C4.43422 6.52089 4.57597 6.09811 4.92426 5.84795C5.2893 5.58575 5.66793 5.63228 6.08483 5.69014C6.09874 4.9936 6.19641 4.22768 6.72032 3.71271C6.98 3.45748 7.33037 3.29873 7.69769 3.31389C8.26462 3.33731 8.6465 3.72017 9.01118 4.10474C9.30405 3.62487 9.64772 3.18071 10.2001 3.00224Z" fill="#1C1C1C"/>
<path d="M59.1273 17.0596C59.6549 17.0129 60.1715 17.0319 60.6858 17.1675C61.4453 17.3675 62.1645 17.815 62.5579 18.5109C62.9263 19.1625 62.9374 19.9117 62.7418 20.6206C62.3171 22.1606 61.0711 23.4299 59.7093 24.2003C59.3956 23.8215 58.9839 23.5815 58.5357 23.3956C57.9128 23.159 57.3306 23.102 56.6702 23.1022C57.3503 22.4128 58.1854 21.4674 58.2125 20.4373C58.2224 20.0586 58.0726 19.7039 57.8024 19.4398C57.1625 18.8143 56.1795 18.7274 55.3356 18.7462C55.4032 18.6906 55.4717 18.6362 55.5412 18.5829C55.6106 18.5296 55.6809 18.4775 55.7521 18.4266C55.8233 18.3757 55.8954 18.326 55.9682 18.2776C56.0411 18.2291 56.1148 18.1818 56.1892 18.1358C56.2637 18.0898 56.3389 18.0451 56.4149 18.0017C56.4909 17.9582 56.5675 17.916 56.6449 17.8752C56.7223 17.8343 56.8004 17.7948 56.8791 17.7565C56.9578 17.7182 57.0372 17.6813 57.1171 17.6458C57.1971 17.6102 57.2776 17.576 57.3587 17.5431C57.4399 17.5103 57.5215 17.4788 57.6037 17.4487C57.6859 17.4186 57.7685 17.3899 57.8517 17.3626C57.9348 17.3352 58.0184 17.3093 58.1025 17.2848C58.1865 17.2603 58.2709 17.2372 58.3557 17.2156C58.4405 17.1939 58.5256 17.1737 58.6111 17.1549C58.6966 17.1361 58.7824 17.1188 58.8684 17.1029C58.9545 17.087 59.0408 17.0726 59.1273 17.0596Z" fill="#1C1C1C"/>
<path d="M57.1411 12.8718C57.5585 12.8397 57.9937 12.8734 58.3966 12.9899C58.9278 13.1435 59.381 13.4453 59.6461 13.9437C60.0707 14.7417 59.9991 15.7543 59.7409 16.5918C57.9425 16.6182 56.0586 17.4903 54.8084 18.7684C54.5208 18.8393 54.2336 18.9121 53.9469 18.9867C54.3275 18.5349 54.6802 18.0013 54.8658 17.4362C55.0037 17.016 55.0384 16.5119 54.8234 16.1119C54.6748 15.8354 54.4292 15.6343 54.126 15.5513C53.4258 15.3598 52.6903 15.7047 52.0968 16.0476C50.0242 17.2449 48.2424 19.6082 47.6304 21.9081C48.6576 19.8816 50.025 17.9251 51.9256 16.6242C52.4616 16.2573 53.3199 15.7502 53.9998 15.9005C54.2011 15.9449 54.3536 16.0603 54.456 16.2386C54.6372 16.5539 54.6207 16.9147 54.519 17.253C54.3383 17.854 53.8041 18.8264 53.3189 19.2238C53.1359 19.3737 52.8894 19.4689 52.6816 19.5814C52.376 19.747 52.0996 19.9656 51.8273 20.1805C50.7352 21.0422 49.7377 22.1446 49.3305 23.4998C49.6337 23.123 49.9 22.7181 50.2063 22.344C51.288 21.0228 52.6955 19.8079 54.3666 19.3432C55.2486 19.0979 56.4147 18.9956 57.2383 19.4848C57.5002 19.6404 57.7465 19.8708 57.8173 20.1786C57.9328 20.6803 57.5682 21.3687 57.3007 21.7811C56.3601 23.2316 54.6397 24.1477 53.0088 24.5814C52.5148 24.7128 52.0157 24.7771 51.517 24.8817C52.8051 24.953 54.1008 24.6035 55.2552 24.0498C55.8069 23.7852 56.0843 23.4782 56.7408 23.4555C57.5613 23.4271 58.5712 23.6591 59.1843 24.2372C59.4501 24.4877 59.699 24.8855 59.6976 25.262C59.6958 25.7775 59.2911 26.1975 58.9484 26.5345C58.5147 26.9321 58.0046 27.2642 57.4748 27.5185C56.2179 28.1221 54.6531 28.3829 53.2768 28.1201C52.8766 28.0436 52.4976 27.9113 52.1137 27.7782C53.263 28.5361 54.668 28.5789 55.99 28.4132C56.2695 28.6094 56.5421 28.8088 56.7588 29.076C56.9865 29.3569 57.1578 29.7152 57.1082 30.0848C57.0604 30.4413 56.8147 30.7367 56.5313 30.9416C55.8435 31.4386 54.9461 31.4807 54.1361 31.3524C53.8343 30.8972 53.315 30.612 52.9157 30.2516C52.6951 30.0524 52.5029 29.7859 52.2515 29.6271C51.9619 29.4442 51.7121 29.5302 51.3705 29.2393C46.502 25.0932 41.2664 22.2928 35.0388 20.7585C32.9272 20.2382 30.7624 19.9465 28.6589 19.3916C33.1312 19.0468 37.9187 19.5441 42.2677 20.6134C42.8859 20.7654 43.9293 20.98 44.4818 21.2677C46.319 20.9171 47.5947 19.6038 48.8945 18.3739C51.0937 16.2931 53.9695 13.1758 57.1411 12.8718Z" fill="#1C1C1C"/>
<path d="M11.3853 6.22497C11.3983 6.22342 11.4114 6.22043 11.4245 6.22031C11.9144 6.2159 13.0055 6.65156 13.4772 6.85201C19.4732 9.40036 20.0364 15.4093 25.1394 18.5563C27.8033 20.199 30.629 20.4561 33.6093 21.1114C39.9491 22.5054 45.9308 25.3326 50.8035 29.6611C49.9715 29.8311 49.1407 30.0068 48.3111 30.1879C47.5708 30.3483 46.8202 30.5014 46.098 30.7315C46.9536 30.7012 47.7812 30.689 48.6305 30.5583C49.4259 30.436 50.2062 30.2223 50.9927 30.0549C51.3549 29.9779 51.7772 29.8804 52.1069 30.1104C52.2337 30.1987 52.3036 30.3247 52.3237 30.4765C52.3711 30.8361 52.2244 31.1961 52.012 31.4794C51.1359 32.6485 48.3607 34.0617 46.8929 34.2795C46.5818 34.086 46.2715 33.8958 45.9497 33.7205C45.9663 33.4277 45.9217 33.1991 45.7934 32.9327C45.3416 31.9948 44.3421 31.4626 43.4046 31.136C43.279 30.8999 43.0894 30.6799 42.9138 30.4798C41.9512 29.3814 40.652 28.7699 39.3308 28.2204C39.0508 27.7379 38.5958 27.2996 38.1218 27.0087C36.7657 26.1763 34.8664 26.0972 33.3532 26.459C35.3824 26.6602 37.1302 26.5194 38.7539 28.0313C38.0663 27.8447 37.3974 27.8969 36.7087 28.0467C38.8082 28.1944 41.4827 29.3715 42.891 30.9572C41.524 30.6144 40.2351 30.2921 38.8142 30.4092C38.8964 30.4214 38.9781 30.4361 39.0593 30.4536C40.5369 30.7762 43.5105 31.3918 44.6821 32.3024C45.0486 32.5872 45.2985 32.9493 45.5474 33.3358C45.181 33.4664 44.8345 33.6196 44.4495 33.6936C42.7156 34.027 40.7545 33.4658 39.1487 32.8219L39.1741 32.8469C39.4476 33.1118 39.7298 33.325 40.0706 33.4985C41.1961 34.0715 42.9527 34.3297 44.1867 34.1679C44.5751 34.1169 44.9386 34.006 45.3093 33.8848C46.0564 34.1811 47.2133 34.8653 47.7643 35.4382C44.6815 36.3563 42.4391 36.9062 39.1958 36.5712C38.1424 36.4623 37.1018 36.2679 36.0539 36.1195C36.6719 36.4157 37.3551 36.5822 38.0234 36.7223C40.3316 37.2061 42.6121 37.1564 44.9118 36.6584C45.8541 36.4543 46.7661 36.0996 47.6918 35.9065C48.2954 35.7806 48.7771 35.9361 49.2787 36.2669C48.4778 36.7117 47.6818 37.1717 46.853 37.5633C44.7917 38.5371 42.5684 39.0398 40.2981 39.1827C36.5793 39.4167 32.4158 38.2193 29.2824 36.2292C28.4894 35.7257 27.773 35.1496 27.0699 34.529C27.099 34.5781 27.1288 34.6269 27.1593 34.6753C28.6124 36.9972 32.7921 38.5685 35.3496 39.1483C35.4714 39.1771 35.5936 39.2045 35.716 39.2306C35.8384 39.2568 35.961 39.2816 36.0839 39.3052C36.2069 39.3288 36.33 39.3511 36.4534 39.372C36.5768 39.393 36.7004 39.4126 36.8242 39.431C36.948 39.4494 37.072 39.4664 37.1962 39.4821C37.3204 39.4978 37.4447 39.5123 37.5691 39.5254C37.6936 39.5385 37.8182 39.5503 37.943 39.5608C38.0677 39.5712 38.1925 39.5804 38.3174 39.5883C38.4423 39.5961 38.5673 39.6026 38.6924 39.6078C38.8174 39.613 38.9425 39.6169 39.0677 39.6195C39.1928 39.622 39.3179 39.6232 39.4431 39.6232C39.5683 39.6231 39.6934 39.6217 39.8186 39.6189C39.9437 39.6162 40.0688 39.6122 40.1938 39.6068C40.3188 39.6015 40.4438 39.5948 40.5687 39.5868C40.6936 39.5788 40.8185 39.5695 40.9432 39.5588C41.0679 39.5482 41.1925 39.5363 41.3169 39.523C41.4414 39.5097 41.5657 39.4951 41.6898 39.4792C41.814 39.4633 41.938 39.4461 42.0617 39.4276C42.1855 39.4091 42.3091 39.3893 42.4324 39.3682C42.5558 39.347 42.6789 39.3246 42.8018 39.3009C42.9248 39.2772 43.0474 39.2521 43.1697 39.2258C43.2921 39.1996 43.4142 39.1719 43.5359 39.143C43.6577 39.1142 43.7792 39.084 43.9004 39.0525C44.0215 39.0211 44.1423 38.9884 44.2628 38.9544C44.3832 38.9203 44.5033 38.8851 44.623 38.8485C44.7427 38.812 44.862 38.7742 44.9809 38.7351C45.0999 38.696 45.2183 38.6557 45.3364 38.6142C45.4545 38.5726 45.5721 38.5298 45.6892 38.4858C45.8064 38.4418 45.9231 38.3965 46.0392 38.3499C46.1554 38.3034 46.2711 38.2557 46.3863 38.2068C46.5015 38.1578 46.6162 38.1077 46.7303 38.0563C46.8445 38.0049 46.9581 37.9523 47.0711 37.8986C47.7954 37.546 48.4638 37.1073 49.145 36.6816C49.2568 36.6117 49.3998 36.5021 49.5372 36.5336L49.5628 36.5902C49.5557 36.6417 49.5477 36.6862 49.5256 36.7338C49.0852 37.677 46.0379 39.0522 45.0224 39.4333C40.0777 41.2888 34.4027 41.2779 29.5749 39.0806C28.3349 38.532 27.1303 37.7632 26.0882 36.8974C24.0541 35.2071 22.3774 32.8672 22.1351 30.1642C21.9808 28.4441 22.4683 27.0855 23.5621 25.7711C23.3833 25.8447 23.2216 25.9264 23.0631 26.0376C22.1899 26.6498 21.7086 27.6439 21.5368 28.6755C21.1673 30.8934 22.0959 33.2061 23.3773 34.9819C25.8937 38.4692 30.0985 40.534 34.273 41.2074C39.0845 41.9836 45.133 40.9805 49.1246 38.0729C49.7765 37.5981 50.2053 37.2186 50.3372 36.3976C50.7467 35.9808 51.1804 35.5864 51.5803 35.1602C52.4154 34.2701 53.5665 32.8105 54.1882 31.7631C55.0662 31.8979 56.0627 31.7867 56.7974 31.2504C57.2629 30.9106 57.4429 30.4827 57.5331 29.9293C58.6439 29.8831 59.5116 29.5768 60.4847 29.0503C60.3919 29.2831 60.2881 29.5111 60.1735 29.734C60.107 29.8634 60.0349 29.9896 59.9574 30.1126C59.8798 30.2357 59.797 30.3551 59.709 30.4709C59.621 30.5867 59.5281 30.6984 59.4302 30.8061C59.3324 30.9137 59.2301 31.0169 59.1232 31.1156C57.9903 32.1544 56.6912 32.2016 55.3079 32.6358C55.6869 32.7208 56.0691 32.7819 56.4523 32.8446C55.7815 35.4434 55.0341 37.7867 53.695 40.1283C51.3697 44.1945 47.8882 47.0085 43.3499 48.2398C43.3749 47.4519 43.2947 46.9083 42.9521 46.1937C42.9563 46.5279 42.9924 46.8582 42.9837 47.1936C42.9458 48.6492 42.2375 50.0067 41.1873 50.9958C40.4931 51.6498 39.6278 52.134 38.6496 52.1004C38.028 52.0791 37.4086 51.8583 36.8538 51.5904C33.9592 50.1928 32.2158 47.282 30.079 45.017C30.8275 45.1131 31.6435 45.1255 32.372 44.9149C31.3328 44.8277 30.281 44.6616 29.2491 44.5086C28.7166 44.4297 28.1827 44.3334 27.6455 44.2934C28.1436 44.5632 28.7742 44.8791 29.3501 44.8986C30.3062 45.8457 31.1666 46.9981 31.9427 48.0935C28.885 47.8713 25.9384 47.3168 23.099 46.1335C20.1018 44.8844 17.8574 43.0442 15.8277 40.5399C14.6519 39.0891 13.7336 37.5287 12.9876 35.8182C12.0969 33.7759 11.5743 31.6968 11.4595 29.4688C11.3756 27.8425 11.5692 26.2317 11.6641 24.6115C11.8547 21.3556 11.4757 18.1496 10.2281 15.1243C10.3168 15.1403 10.4059 15.1537 10.4953 15.1645C11.5031 15.2918 12.5162 15.0643 13.3221 14.4284C13.3732 14.3877 13.4233 14.3458 13.4722 14.3027C13.5212 14.2595 13.5691 14.2152 13.6159 14.1697C13.6627 14.1242 13.7084 14.0776 13.7529 14.0298C13.7973 13.9821 13.8406 13.9332 13.8827 13.8833C13.9248 13.8334 13.9656 13.7825 14.0051 13.7306C14.0447 13.6787 14.083 13.6258 14.1199 13.572C14.1568 13.5181 14.1924 13.4634 14.2266 13.4079C14.2608 13.3523 14.2937 13.2959 14.3251 13.2387C14.3566 13.1815 14.3865 13.1235 14.4151 13.0648C14.4437 13.0061 14.4708 12.9468 14.4964 12.8868C14.5221 12.8267 14.5462 12.7661 14.5688 12.7049C14.5914 12.6436 14.6125 12.5819 14.6321 12.5196C14.6517 12.4573 14.6697 12.3946 14.6861 12.3314C14.7026 12.2683 14.7175 12.2047 14.7308 12.1408C14.7441 12.077 14.7559 12.0128 14.766 11.9483C14.7761 11.8838 14.7847 11.8191 14.7916 11.7542C14.8793 10.929 14.7456 10.0532 14.208 9.3945C13.7348 8.81487 13.1332 8.63485 12.4155 8.55732C13.0854 9.09369 13.6395 9.3439 13.9844 10.1841C14.3181 10.997 14.1774 11.9267 13.839 12.7151C13.5231 13.4513 12.9715 14.0206 12.222 14.3174C10.9785 14.81 9.70147 14.3368 8.53249 13.8665C8.07208 13.6842 7.61388 13.4966 7.15789 13.3035C7.35409 13.1885 7.54339 13.0695 7.70845 12.9118C7.95312 12.678 8.16033 12.3662 8.15692 12.0159C8.15421 11.7304 8.00578 11.483 7.80146 11.2927C7.31342 10.8381 6.64478 10.708 6.00079 10.724C6.08932 10.1857 6.268 9.64844 6.54855 9.17916C7.46521 7.64582 9.70895 6.63597 11.3853 6.22497Z" fill="#1C1C1C"/>
<path d="M24.5815 43.4252C24.933 43.4944 25.2901 43.7226 25.5296 43.9854C25.6794 44.1499 25.8373 44.3784 25.8193 44.6123C25.8099 44.7337 25.7383 44.8435 25.6454 44.919C25.4819 45.052 25.2684 45.0651 25.067 45.0451C24.3162 44.9705 23.6891 44.5677 23.2188 43.9943C23.0886 43.8032 23.0066 43.6115 22.9293 43.3954C23.7002 44.0602 24.3782 44.6386 25.4467 44.6327C25.2291 44.1561 24.9339 43.8064 24.5815 43.4252Z" fill="white"/>
<path d="M16.3837 33.6005C16.6914 33.848 16.8743 35.6417 18.1962 36.5535C18.1393 35.9678 18.0705 35.4153 18.0865 34.8247L18.3365 35.4434C18.4578 35.7563 18.5882 36.0792 18.6023 36.4189C18.6087 36.571 18.5916 36.7569 18.4714 36.8662C18.4035 36.928 18.3157 36.9497 18.2263 36.9464C17.911 36.9348 17.606 36.653 17.4006 36.4327C16.6917 35.6724 16.3418 34.6297 16.3837 33.6005Z" fill="white"/>
<path d="M16.3556 22.6776C16.4507 22.7677 16.4972 23.206 16.5289 23.3537C16.6643 23.9841 16.824 24.5957 17.1297 25.1683C17.2621 25.4162 17.6294 25.9836 17.8936 26.0626L17.9435 26.0303C17.9963 25.7973 17.8627 25.0892 17.8355 24.8059C17.9825 24.9992 18.0959 25.1973 18.2014 25.4155C18.2963 25.6433 18.3924 25.9101 18.3862 26.1596C18.3832 26.279 18.3516 26.4098 18.2552 26.489C18.1767 26.5534 18.071 26.5646 17.9741 26.5487C17.5667 26.4818 17.1779 26.0193 16.9588 25.6927C16.9217 25.6383 16.886 25.583 16.8517 25.5268C16.8174 25.4707 16.7844 25.4137 16.753 25.3559C16.7215 25.2981 16.6915 25.2395 16.663 25.1802C16.6344 25.1209 16.6074 25.0609 16.5819 25.0002C16.5564 24.9395 16.5324 24.8782 16.51 24.8164C16.4875 24.7544 16.4666 24.692 16.4473 24.6291C16.428 24.5662 16.4103 24.5028 16.3941 24.439C16.378 24.3752 16.3635 24.311 16.3506 24.2465C16.3376 24.1819 16.3264 24.1171 16.3167 24.0519C16.3071 23.9869 16.299 23.9215 16.2926 23.856C16.2863 23.7905 16.2815 23.7249 16.2784 23.6591C16.2754 23.5934 16.2739 23.5276 16.2741 23.4618C16.2743 23.3959 16.2762 23.3301 16.2797 23.2644C16.2832 23.1987 16.2884 23.1331 16.2951 23.0676C16.302 23.0021 16.3104 22.9369 16.3205 22.8718C16.3306 22.8068 16.3423 22.742 16.3556 22.6776Z" fill="white"/>
<path d="M15.8145 38.0468C16.0209 38.2533 16.1667 38.603 16.3277 38.8518C16.8209 39.6143 17.565 40.4622 18.3814 40.885C18.2158 40.4349 18.0149 40.0026 17.8695 39.5447C18.0349 39.6781 18.1814 39.8269 18.3304 39.978C18.5154 40.2015 18.69 40.4586 18.7556 40.7453C18.7912 40.9003 18.8053 41.0979 18.7087 41.234C18.6634 41.2978 18.5873 41.3241 18.5117 41.3286C18.1206 41.3517 17.5009 40.8302 17.2332 40.5781C16.5722 39.9557 15.8413 38.9944 15.8145 38.0468Z" fill="white"/>
<path d="M20.3399 37.0861C20.531 37.2791 20.6829 37.6853 20.8187 37.93C21.4239 39.0206 22.1927 39.9997 23.3513 40.5247C23.1947 39.9924 22.8926 39.5683 22.5584 39.1337C22.7644 39.2362 22.9569 39.3382 23.1452 39.4715C23.3539 39.6568 23.5294 39.8719 23.6351 40.1328C23.7022 40.2985 23.7642 40.5494 23.6786 40.7191C23.6357 40.8041 23.5466 40.8484 23.4566 40.8657C23.1026 40.9335 22.6876 40.693 22.4069 40.4952C21.2635 39.69 20.5773 38.4439 20.3399 37.0861Z" fill="white"/>
<path d="M13.1637 25.1892C13.2504 25.4988 13.2164 25.9016 13.2389 26.2243C13.3191 27.3689 13.7186 28.5551 14.6001 29.3215C14.5522 28.7008 14.4473 28.0806 14.3369 27.4684C14.4779 27.6756 14.6074 27.8825 14.7268 28.1028C14.906 28.4643 15.0478 28.9635 14.9363 29.3616C14.9019 29.4844 14.8472 29.5776 14.7265 29.6345C14.6384 29.676 14.5615 29.6788 14.4716 29.645C13.947 29.4483 13.4975 28.721 13.2861 28.2324C12.8738 27.2796 12.7774 26.1633 13.1637 25.1892Z" fill="white"/>
<path d="M9.71843 8.22439C10.0926 8.18682 10.4452 8.20648 10.7871 8.38314C11.1242 8.55729 11.387 8.85152 11.4893 9.22019C11.5003 9.26089 11.5094 9.30203 11.5164 9.34362C11.5235 9.38517 11.5285 9.42698 11.5315 9.46905C11.5345 9.51112 11.5354 9.55325 11.5343 9.59544C11.5332 9.63759 11.53 9.6796 11.5247 9.72145C11.5195 9.7633 11.5123 9.80479 11.5031 9.84591C11.4938 9.88707 11.4826 9.92768 11.4694 9.96772C11.4562 10.0078 11.4411 10.0471 11.4241 10.0857C11.407 10.1243 11.3882 10.1619 11.3675 10.1987C11.1398 10.5954 10.739 10.7984 10.3165 10.9202C9.99951 10.9516 9.70973 10.9414 9.40983 10.8227C9.06675 10.6868 8.77516 10.4357 8.63981 10.0868C8.50826 9.74781 8.53817 9.3598 8.69144 9.03302C8.89846 8.59165 9.27828 8.37683 9.71843 8.22439Z" fill="white"/>
<path d="M9.88467 8.67273C10.0717 8.66687 10.2372 8.67828 10.4139 8.74511C10.6697 8.84179 10.8857 9.02967 10.9878 9.28671C10.9984 9.31284 11.0075 9.33943 11.0153 9.36651C11.0231 9.39358 11.0295 9.42097 11.0345 9.44868C11.0394 9.47644 11.043 9.50435 11.045 9.53241C11.0471 9.56051 11.0477 9.58863 11.0469 9.61678C11.0461 9.64496 11.0438 9.67302 11.0401 9.70095C11.0363 9.72884 11.0312 9.75649 11.0246 9.7839C11.018 9.81127 11.01 9.83824 11.0006 9.86479C10.9912 9.89139 10.9805 9.91741 10.9685 9.94285C10.8256 10.242 10.5905 10.3683 10.2965 10.4796C10.4652 10.3341 10.6154 10.1766 10.6666 9.95232C10.7191 9.72248 10.6385 9.52848 10.5138 9.33892L10.4823 9.31346C10.253 9.13138 10.0557 9.08459 9.76427 9.12261C9.59657 9.14446 9.45174 9.24501 9.35558 9.38197C9.15938 9.66151 9.23112 9.88155 9.283 10.1851L9.20972 10.1695C9.14772 10.1124 9.11716 10.0642 9.09287 9.98468C9.01526 9.73021 9.03653 9.41897 9.16699 9.18552C9.32935 8.89503 9.57775 8.76245 9.88467 8.67273Z" fill="#1C1C1C"/>
</g>
<defs>
<clipPath id="clip0_107_4620">
<rect width="66" height="66" rx="10" fill="white"/>
</clipPath>
</defs>
</svg>
