<svg width="66" height="66" viewBox="0 0 66 66" fill="none" xmlns="http://www.w3.org/2000/svg">
<g clip-path="url(#clip0_107_4631)">
<path d="M0 0H66V66H0V0Z" fill="#1C1C1C"/>
<path d="M43.826 4.78101C43.9258 4.78498 44.0322 4.79497 44.1292 4.81952C44.5313 4.92124 44.7261 5.26644 44.7921 5.65001C44.9187 6.38686 44.6229 7.14794 44.6273 7.88941C44.632 8.71158 45.1691 9.15998 45.6743 9.71479C45.9718 10.0414 46.2608 10.3946 46.4686 10.7866C46.8058 11.423 46.812 11.9913 46.5999 12.6696C46.9856 12.7159 47.4743 12.7819 47.8562 12.7057C48.7318 12.5309 49.334 11.0831 50.16 10.5908C50.4038 10.4454 50.6842 10.3774 50.9635 10.4514C52.0402 10.737 51.6402 12.9128 52.1183 13.7146C52.4776 14.3173 53.2792 14.1051 53.8445 14.2826C54.6219 14.5267 54.5066 15.4157 54.6985 16.0476C54.7145 16.1005 54.7323 16.1528 54.7518 16.2044C54.7713 16.2561 54.7924 16.3071 54.8153 16.3573C54.8382 16.4076 54.8627 16.4571 54.8888 16.5057C54.915 16.5543 54.9427 16.6021 54.972 16.6488C55.0013 16.6957 55.0321 16.7415 55.0644 16.7862C55.0968 16.831 55.1306 16.8746 55.1658 16.9172C55.201 16.9597 55.2376 17.001 55.2756 17.041C55.3136 17.0811 55.3529 17.1199 55.3934 17.1575C55.8761 17.5962 56.9014 18.0109 57.4989 18.3686C59.9176 19.8168 62.2982 21.7524 63.6228 24.2914C64.0132 25.0397 64.3074 25.8149 64.4628 26.6465C64.5994 27.3775 64.6181 28.1082 64.6188 28.849C64.617 29.1748 64.6091 29.5004 64.5949 29.826C64.5812 30.1515 64.5612 30.4766 64.535 30.8013C64.5088 31.1261 64.4765 31.4503 64.4383 31.7738C64.4 32.0974 64.3557 32.4201 64.3053 32.742C64.2549 33.0639 64.1984 33.3847 64.136 33.7045C64.0736 34.0243 64.0052 34.3428 63.9308 34.66C63.8565 34.9771 63.7762 35.2929 63.6901 35.6071C63.6039 35.9213 63.5118 36.2337 63.4139 36.5445C63.193 37.2688 62.9431 37.9829 62.6641 38.6869C62.385 39.3908 62.0779 40.0822 61.7425 40.7612C59.1057 46.0775 54.6571 51.0367 49.367 53.7951C47.703 56.6693 45.4297 58.3573 42.3283 59.4511C41.9208 59.5941 41.5101 59.727 41.0961 59.8501C40.6822 59.9732 40.2655 60.0862 39.8461 60.1892C39.4268 60.2922 39.0051 60.385 38.5812 60.4676C38.1574 60.5503 37.7318 60.6226 37.3044 60.6847C33.7955 61.2153 30.6781 61.1038 27.1998 60.4105C25.2325 60.0184 23.2643 59.4412 21.4517 58.5727C19.8862 57.7664 18.4293 56.7184 17.5747 55.1312C17.3713 54.7535 17.2242 54.3541 17.0728 53.9539C16.0043 53.4587 15.0038 52.7915 14.0355 52.1262C13.8894 52.0256 13.7441 51.9237 13.5999 51.8205C13.4555 51.7173 13.3122 51.6128 13.1698 51.507C13.0273 51.4012 12.8859 51.2942 12.7454 51.1859C12.6049 51.0775 12.4654 50.9679 12.3268 50.8571C12.1883 50.7462 12.0508 50.6341 11.9143 50.5208C11.7778 50.4075 11.6423 50.293 11.5078 50.1772C11.3734 50.0615 11.24 49.9445 11.1076 49.8264C10.9753 49.7082 10.844 49.5889 10.7138 49.4684C10.5836 49.3479 10.4545 49.2262 10.3265 49.1033C10.1985 48.9805 10.0716 48.8565 9.94588 48.7314C9.82006 48.6063 9.69541 48.4801 9.57192 48.3527C9.44843 48.2253 9.32608 48.0969 9.20486 47.9673C9.08365 47.8377 8.96363 47.7071 8.84483 47.5754C8.72597 47.4436 8.6083 47.3109 8.49182 47.177C8.37537 47.0432 8.26013 46.9083 8.14609 46.7724C8.03205 46.6365 7.91926 46.4996 7.80771 46.3616C7.69612 46.2237 7.5858 46.0848 7.47674 45.9449C7.36765 45.8049 7.25984 45.664 7.15332 45.5222C7.04675 45.3803 6.9415 45.2375 6.83756 45.0938C6.73358 44.95 6.6309 44.8053 6.52954 44.6597C6.42818 44.5141 6.32814 44.3676 6.22941 44.2202C6.13067 44.0728 6.03328 43.9245 5.93722 43.7754C5.84115 43.6262 5.74644 43.4762 5.65307 43.3253C5.55971 43.1745 5.4677 43.0228 5.37707 42.8703C5.28643 42.7178 5.19718 42.5644 5.1093 42.4103C5.02142 42.2562 4.93493 42.1013 4.84984 41.9456C4.76475 41.7899 4.68106 41.6335 4.59878 41.4763C4.51651 41.3191 4.43565 41.1612 4.35621 41.0026C4.27677 40.844 4.19876 40.6847 4.12219 40.5246C4.04562 40.3646 3.97049 40.2039 3.89681 40.0425C3.82313 39.8811 3.7509 39.719 3.68014 39.5563C3.60937 39.3936 3.54008 39.2303 3.47224 39.0664C3.3315 38.729 3.19678 38.3893 3.06807 38.0471C2.93937 37.7049 2.81676 37.3606 2.70026 37.0141C2.58375 36.6676 2.47342 36.3191 2.36926 35.9687C2.2651 35.6183 2.16718 35.2662 2.07549 34.9123C1.98381 34.5584 1.89842 34.203 1.81932 33.8461C1.74023 33.4892 1.66748 33.131 1.60108 32.7715C1.53468 32.412 1.47466 32.0514 1.42103 31.6898C1.3674 31.3282 1.32019 30.9658 1.2794 30.6025C1.15644 29.5164 1.07546 28.4331 1.19538 27.3429C1.28331 26.5436 1.49563 25.7828 1.79889 25.0395C3.5065 20.854 7.74268 18.2189 11.7284 16.5362C11.6354 15.9727 11.5625 15.4065 11.5096 14.8378C11.3795 13.304 11.4501 11.8376 11.7365 10.3253C11.7809 10.0902 11.8262 9.62836 12.0039 9.45994C12.0749 9.39259 12.1549 9.36326 12.2512 9.36043C12.562 9.3514 12.9716 9.56313 13.2699 9.66735C15.8582 10.572 18.1454 12.1063 20.1849 13.9133C20.937 13.676 21.7504 13.5643 22.5273 13.4361C23.4906 13.2726 24.4579 13.1375 25.4292 13.031C26.4004 12.9244 27.374 12.8464 28.3498 12.7972C28.8615 12.7722 29.3733 12.7552 29.8855 12.7462C30.2222 12.7403 30.5691 12.7518 30.904 12.7143C31.1055 12.6918 31.7481 12.4912 31.8436 12.3034C31.9131 12.1665 31.8565 11.8662 31.8436 11.7184C31.7481 10.6289 31.7523 9.503 32.486 8.61361C33.1819 7.77011 34.1819 7.52641 35.2235 7.42393C36.2309 7.32487 36.2345 6.82871 36.796 6.14998C37.1254 5.7518 37.5267 5.42581 38.0221 5.26232C39.5217 4.76745 40.1199 6.13951 41.2497 5.93442C42.1496 5.77106 42.7145 4.89058 43.826 4.78101Z" fill="white"/>
<path d="M32.6086 36.2234C32.5513 36.4683 32.1052 37.0796 31.949 37.2992L31.8929 37.3035L31.7562 36.9853C32.0514 36.7487 32.3491 36.4988 32.6086 36.2234Z" fill="#1C1C1C"/>
<path d="M33.5232 36.9766C33.6929 37.1133 33.8508 37.2924 34.0102 37.4428L33.5637 37.5595L33.1451 37.6809C33.2931 37.462 33.4039 37.2121 33.5232 36.9766Z" fill="#1C1C1C"/>
<path d="M49.6832 28.7408C49.9095 29.0152 50.0791 29.4027 50.2535 29.7145C49.8965 29.8523 49.5799 30.0223 49.2574 30.2279L48.9025 30.4871C48.9068 30.2393 48.8918 29.9893 48.884 29.7415C48.9614 29.7008 49.0383 29.6589 49.1112 29.6105C49.4388 29.3927 49.6078 29.1232 49.6832 28.7408Z" fill="#1C1C1C"/>
<path d="M14.7405 24.5391C14.752 24.5472 14.7647 24.5537 14.7749 24.5632C14.9714 24.7461 15.8936 26.1641 16.0212 26.45C16.0503 26.5151 16.0577 26.5639 16.054 26.6343L15.8706 26.6645L15.4983 26.7955C15.2702 26.0132 14.9084 25.5885 14.6307 24.9041C14.6579 24.7798 14.7007 24.6599 14.7405 24.5391Z" fill="#1C1C1C"/>
<path d="M32.8472 34.7978L32.891 34.8151C32.8981 34.851 32.905 34.8767 32.9029 34.915C32.8862 35.2232 31.979 36.2708 31.7217 36.4823C31.6546 36.5374 31.6451 36.537 31.5634 36.5292C31.5997 36.2365 31.4446 35.9063 31.441 35.5776C31.9213 35.342 32.3828 35.0634 32.8472 34.7978Z" fill="#1C1C1C"/>
<path d="M29.6619 32.6437C30.1284 32.6447 31.0833 32.6358 31.4542 32.9641C31.5132 33.0162 31.553 33.0848 31.5493 33.1659C31.5427 33.3073 31.4359 33.3943 31.3413 33.4843C31.1509 33.5858 30.9589 33.6614 30.7561 33.7344C30.4289 33.3227 30.0457 33 29.6619 32.6437Z" fill="#1C1C1C"/>
<path d="M54.189 26.937C54.1918 26.9383 54.1948 26.9395 54.1975 26.941C54.357 27.0325 54.5025 27.641 54.564 27.8359C53.8705 27.8874 53.3187 28.0502 52.6864 28.3287L52.3785 28.4719C52.4434 28.3457 52.5111 28.2185 52.6057 28.1117C52.9313 27.744 53.7504 27.1819 54.189 26.937Z" fill="#1C1C1C"/>
<path d="M42.5108 38.6828L42.5473 38.6788C43.098 38.6213 43.4275 38.7689 43.8467 39.1073C43.7411 39.3491 43.7061 39.6993 43.5412 39.9018C43.4548 39.9362 43.4474 39.9323 43.3562 39.9103C42.8831 39.5204 42.3987 39.1622 41.8962 38.8111C42.101 38.756 42.3011 38.7143 42.5108 38.6828Z" fill="#1C1C1C"/>
<path d="M30.866 37.1175C30.8716 37.1231 30.8776 37.1284 30.8826 37.1345C31.0985 37.4006 31.3486 37.7834 31.3248 38.1369C31.293 38.6095 30.709 38.9687 30.3751 39.246L30.0936 39.4754C30.145 39.1498 30.1453 38.8171 30.2001 38.4919C30.2821 38.0049 30.6221 37.5382 30.866 37.1175Z" fill="#1C1C1C"/>
<path d="M16.232 37.5244C16.5409 37.472 16.93 37.5165 17.2118 37.6463C17.6783 37.8611 17.8455 38.3031 18.0156 38.7506C17.8522 38.7079 17.689 38.6644 17.526 38.62C16.949 38.4618 16.3815 38.2645 15.813 38.0782C15.7678 37.9125 15.6992 37.7557 15.6343 37.5971L16.232 37.5244Z" fill="#1C1C1C"/>
<path d="M12.0857 36.0159C12.7921 36.4236 13.4758 36.5923 14.2652 36.7593C14.595 37.1243 14.9204 37.4931 15.2414 37.8658C14.5961 37.6962 12.6683 36.9141 12.119 36.5437C12.0966 36.3685 12.0924 36.1922 12.0857 36.0159Z" fill="#1C1C1C"/>
<path d="M54.0359 35.7288C54.2781 35.9349 54.5013 36.1736 54.7297 36.3954C54.1107 36.7362 53.4353 37.0295 52.7759 37.2845L52.1974 37.5133C52.251 37.3073 52.2991 37.0734 52.3961 36.8837C52.7572 36.1779 53.5607 36.48 54.0359 35.7288Z" fill="#1C1C1C"/>
<path d="M48.4475 29.9352L48.4823 29.947C48.5873 30.1849 48.555 30.5383 48.554 30.7938C47.988 31.3709 47.5742 32.0209 47.1344 32.6929C46.9576 32.5054 46.8119 32.3184 46.6932 32.0893C46.6518 31.8306 46.7812 31.5675 46.8955 31.3418C46.9682 31.1982 47.0615 31.0012 47.2194 30.9488C47.3624 31.1077 47.4973 31.2626 47.6576 31.405C47.5529 31.1795 47.4173 30.9729 47.2847 30.7634C47.6255 30.3959 48.0022 30.1601 48.4475 29.9352Z" fill="#1C1C1C"/>
<path d="M25.8485 29.3471C26.0785 29.3989 26.3125 29.5059 26.5379 29.5806C27.2524 29.8172 28.0642 29.9689 28.7697 29.6348C29.1107 29.9614 29.4929 30.252 29.8589 30.5506C28.9521 30.8429 27.8313 30.7651 26.9222 30.5267C26.5965 30.1042 26.2386 29.711 25.8485 29.3471Z" fill="#1C1C1C"/>
<path d="M35.3934 21.7753C35.5359 22.7046 35.8352 23.6139 35.9427 24.5502C35.6627 25.0649 35.245 25.4148 34.8185 25.8058L34.7 25.9092L34.6434 25.9052C34.518 25.7739 34.4636 25.5748 34.3602 25.4191L34.3337 25.3798C34.6665 24.1623 34.9314 22.9571 35.3934 21.7753Z" fill="#1C1C1C"/>
<path d="M43.3671 36.9135C43.7892 36.8918 44.2157 36.9496 44.6297 37.0253C44.4558 37.4549 44.3185 37.8906 44.193 38.3361C44.0983 38.2868 44.0035 38.2372 43.9066 38.1924C43.218 37.8736 42.512 37.9715 41.8194 38.2192L41.2941 38.4549C41.0095 38.2999 40.7237 38.1474 40.4365 37.9973C41.3943 37.4292 42.2335 36.983 43.3671 36.9135Z" fill="#1C1C1C"/>
<path d="M37.1761 37.9695C38.7641 38.1166 40.1416 38.7087 41.4764 39.5542C41.7251 39.7117 42.0687 39.8864 42.2666 40.1037L42.2583 40.1238L42.0819 40.1514C41.4245 40.2743 40.7433 40.3303 40.0778 40.4011C39.4006 39.2788 38.2813 38.6002 37.1761 37.9695Z" fill="#1C1C1C"/>
<path d="M24.8873 20.7894C26.3123 21.1499 26.9929 22.7438 27.1733 22.7901C27.438 22.8579 27.751 22.5687 27.9605 22.433C28.1231 22.5938 28.2948 22.7192 28.4833 22.8478C28.1621 22.9305 27.8837 23.0372 27.5935 23.1988C27.3758 23.3364 27.183 23.4973 27.0156 23.6932C26.8485 23.8886 26.6658 24.2606 26.4566 24.3871C26.3828 24.4317 26.2978 24.4233 26.2178 24.4066C26.0661 24.2912 25.88 23.5231 25.816 23.3189C25.5453 22.455 25.2307 21.6264 24.8873 20.7894Z" fill="#1C1C1C"/>
<path d="M29.147 13.5495C29.3965 13.5391 29.6474 13.5471 29.897 13.5502L29.5462 14.0243C28.5806 14.13 27.5924 14.1397 26.6219 14.2226C25.7812 14.2912 24.9433 14.3844 24.1081 14.5024C23.2729 14.6203 22.4419 14.7628 21.6151 14.9298L21.2266 14.9958C21.0885 14.8557 20.9396 14.7241 20.7957 14.5899C23.2551 13.9654 26.5801 13.6466 29.147 13.5495Z" fill="#1C1C1C"/>
<path d="M28.0704 32.541C28.249 32.5888 28.4252 32.6626 28.5907 32.7446C29.3683 33.1299 30.3883 34.0919 30.6636 34.9325C30.7855 35.3046 30.824 36.1236 30.7283 36.5076C30.669 36.7451 30.5018 37.007 30.3909 37.2275L30.1463 37.7354C29.9966 36.6031 29.8531 35.5294 29.1554 34.5835C28.9951 34.3663 28.6972 34.2336 28.5594 34.006C28.3098 33.5939 28.2019 33.0016 28.0704 32.541Z" fill="#1C1C1C"/>
<path d="M56.6329 28.9163C56.6851 28.918 56.6584 28.9096 56.7065 28.9567L56.6879 29.0592C56.6515 29.1132 56.618 29.1322 56.5597 29.1567C56.3292 29.2532 56.0708 29.3053 55.832 29.3804C55.4655 29.4956 55.111 29.6355 54.7593 29.7897C54.5606 29.8751 54.3641 29.9654 54.1698 30.0604C53.9755 30.1555 53.7836 30.2552 53.5942 30.3597C53.4048 30.4642 53.2181 30.5733 53.034 30.687C52.85 30.8007 52.6688 30.9188 52.4906 31.0414C52.3124 31.164 52.1372 31.2908 51.9652 31.422C51.7933 31.5532 51.6246 31.6885 51.4593 31.8281C51.2939 31.9675 51.1321 32.111 50.9738 32.2584C50.8155 32.4058 50.6609 32.5571 50.5101 32.7121C49.1435 34.1152 47.9624 35.7705 46.9906 37.468C46.7904 37.8178 46.1299 39.2099 45.9527 39.3938C45.9269 39.4206 45.8496 39.4496 45.8142 39.4687C45.7658 39.4522 45.7552 39.4598 45.7288 39.4134C45.9099 38.8869 46.2281 38.3612 46.4959 37.8727C47.066 36.8326 47.6427 35.8153 48.3176 34.838C50.3394 31.9106 53.0485 29.5694 56.6329 28.9163Z" fill="#1C1C1C"/>
<path d="M15.5954 27.8326L15.5987 27.8342C15.7183 28.0935 16.4236 28.5323 16.6727 28.7427C17.1188 29.1194 17.4487 29.5626 17.7812 30.0372C15.8555 29.1311 14.1167 28.7715 11.9807 29.0372C11.0252 29.1882 10.2475 29.494 9.40314 29.9532C9.75331 29.6121 10.1896 29.3856 10.6179 29.1592C12.2534 28.2949 13.7535 27.9158 15.5954 27.8326Z" fill="#1C1C1C"/>
<path d="M10.7618 32.3742C11.6256 32.7802 13.4557 33.4002 14.1061 33.928C14.3097 34.0932 14.4517 34.2947 14.547 34.5383C14.7699 35.1082 14.7586 35.7164 15.0442 36.2823C15.1843 36.56 15.4022 36.7434 15.5546 36.999C15.5918 37.0614 15.587 37.0309 15.5713 37.0977L15.4696 37.0993C15.3432 37.0471 13.4482 34.6336 13.1901 34.3199C12.8211 33.8965 12.4868 33.4385 12.1455 32.9926C12.0768 33.0891 12.0235 33.1982 11.9668 33.3021C12.1893 34.3826 13.2673 35.5822 13.998 36.3941C13.3042 36.2832 12.6851 35.9539 12.0722 35.6261C11.6411 34.5385 11.1647 33.4729 10.7618 32.3742Z" fill="#1C1C1C"/>
<path d="M32.2748 39.2942C32.3273 39.2878 32.38 39.2832 32.4329 39.2803C33.7702 39.2062 35.1391 39.8533 36.1219 40.7248C35.254 40.7823 34.3813 40.7734 33.5116 40.7856C32.242 40.8055 30.931 40.7947 29.668 40.6712C30.3596 40.013 31.3178 39.4313 32.2748 39.2942Z" fill="#1C1C1C"/>
<path d="M27.0835 30.7586C28.2057 31.0971 29.0756 31.2911 30.2114 30.8607C30.7629 31.2659 31.325 31.6514 31.888 32.0398C32.2439 32.2853 32.6243 32.5198 32.9468 32.8083C32.9259 33.2911 32.9261 33.7022 33.0327 34.1764C32.6463 34.3818 32.2618 34.5907 31.8793 34.8031C31.7179 34.891 31.5676 34.9962 31.4151 35.0987C31.3221 34.7964 31.1974 34.5086 31.074 34.2178C31.3687 34.0813 31.7088 33.9312 31.9199 33.6764C32.0628 33.504 32.1211 33.2857 32.0898 33.0641C32.062 32.8679 31.958 32.7054 31.797 32.5908C31.2204 32.1807 29.9241 32.2668 29.2656 32.3957C28.7796 32.1256 28.3 31.9916 27.7559 31.8875C27.5268 31.5141 27.3153 31.1306 27.0835 30.7586Z" fill="#1C1C1C"/>
<path d="M35.3268 37.9437C35.8159 37.8845 36.3816 37.9031 36.8682 37.9694C37.8087 38.6982 38.8338 39.4871 39.4936 40.4947C38.618 40.5502 37.7411 40.6201 36.8663 40.6893L36.4145 40.27C36.1914 40.0914 35.9683 39.9146 35.7296 39.7569C34.5161 38.9551 33.2547 38.7577 31.8419 39.0507C33.0263 38.43 33.9746 38.0661 35.3268 37.9437Z" fill="#1C1C1C"/>
<path d="M12.1329 24.27C12.4814 24.2363 12.7862 24.2892 13.0997 24.4486C13.9729 24.8928 14.5346 25.9269 14.8208 26.8224C13.9277 26.9006 13.0826 27.0717 12.2227 27.3213C11.5633 27.5149 10.95 27.8053 10.335 28.1065C10.3485 27.2422 10.7136 26.0037 11.1057 25.2418C11.3388 24.7888 11.633 24.4333 12.1329 24.27Z" fill="#1C1C1C"/>
<path d="M55.0774 28.5985C55.2752 28.5857 55.4679 28.5888 55.6659 28.5965C55.5936 28.6186 55.5215 28.6411 55.4494 28.664C50.0376 30.3837 47.5597 34.6909 45.1002 39.4344C45.0853 39.4636 45.0628 39.5115 45.042 39.5355C44.9869 39.5987 44.9511 39.605 44.8751 39.6075C44.7742 39.5647 44.7422 39.4893 44.6905 39.3991C44.8208 39.0455 44.91 38.6757 45.0311 38.3184C45.3829 37.2809 45.8299 36.1921 46.4509 35.286C46.7755 34.8123 47.3989 34.3364 47.6331 33.9525C47.7597 33.745 47.7157 33.4715 47.7714 33.2414C47.8824 32.783 48.4514 32.1495 48.7615 31.802C49.3158 31.1808 50.0109 30.4965 50.8867 30.4477C51.1726 30.2578 51.4344 30.0209 51.7136 29.8189C52.8851 28.9712 53.6537 28.6908 55.0774 28.5985Z" fill="#1C1C1C"/>
<path d="M58.134 29.9429C58.188 29.9399 58.2437 29.9366 58.2976 29.9427C58.4809 29.9633 58.6607 30.1237 58.7609 30.2693C59.3862 31.1773 59.144 32.6827 58.9619 33.6906C58.6577 33.9443 58.3462 34.1886 58.0273 34.4235C57.7083 34.6583 57.3826 34.8832 57.05 35.0983C56.7174 35.3135 56.3787 35.5183 56.0337 35.7129C55.6887 35.9075 55.3382 36.0915 54.982 36.2648C54.772 35.8673 54.5554 35.4771 54.2458 35.1478C54.2561 34.8735 54.242 34.6004 54.2035 34.3285C54.6912 34.3232 55.1773 34.3232 55.6628 34.2719C55.4177 33.922 55.0726 33.611 54.6239 33.591C54.4402 33.5827 54.259 33.6121 54.0781 33.5701L54.0641 33.5408L54.1546 33.3922C54.1772 33.3712 54.2007 33.3511 54.2249 33.3319C54.5747 33.0546 55.0161 33.0574 55.4363 33.1018C55.7009 33.5394 55.9193 34.0501 56.0533 34.5437C56.1457 34.8844 56.2076 35.2338 56.3446 35.5605C56.4095 34.5587 56.3274 33.922 56.0309 32.9685C56.4069 32.6538 56.502 32.3004 56.6271 31.85C57.1645 32.3594 57.2969 33.0317 57.4831 33.7201C57.5866 33.3989 57.6365 33.0817 57.6008 32.7445C57.5323 32.0968 57.2214 31.6816 56.7258 31.2841C56.7694 31.0061 56.8257 30.7393 56.8965 30.4667C57.3005 30.2667 57.7057 30.0851 58.134 29.9429Z" fill="#1C1C1C"/>
<path d="M45.2017 33.239C45.6421 33.1854 46.1146 33.2376 46.5555 33.2755C46.6878 33.377 46.7983 33.483 46.9119 33.6042C45.88 34.4695 45.3041 35.5691 44.7481 36.768C44.581 36.6872 44.4147 36.6167 44.2364 36.5641C43.0501 36.2143 41.9458 36.6233 40.9113 37.1959C40.5869 37.3802 40.2778 37.5807 39.9679 37.7879L39.4295 37.5785C39.7102 37.0393 39.9609 36.2869 40.3462 35.8317C40.5989 35.5331 40.9074 35.2598 41.2049 35.0057C42.3658 34.0145 43.6708 33.3649 45.2017 33.239Z" fill="#1C1C1C"/>
<path d="M6.94191 27.6469C7.63897 27.7141 8.21176 28.5652 8.66107 29.0414C8.4398 29.2168 8.24489 29.3924 8.10052 29.6408C7.95717 29.8875 7.89775 30.1804 7.97348 30.4593C8.02337 30.643 8.1339 30.7984 8.27338 30.9253C8.60873 31.2306 9.73737 31.8203 10.2149 32.1069C10.3037 32.5852 10.46 33.0199 10.6522 33.4642C10.0901 33.3365 9.64191 33.0677 9.1123 32.8683C8.94227 32.8043 8.65468 32.7379 8.48498 32.838C8.4097 32.8825 8.37057 32.933 8.3571 33.0208C8.22839 33.8612 10.7777 33.9943 10.9765 34.2315C11.2976 34.9303 11.4943 35.5141 11.505 36.2881C9.88748 35.6401 7.3314 34.0557 6.40583 32.5896C5.81608 31.6555 5.63564 30.6121 5.88383 29.536C6.03945 28.8613 6.32768 28.0332 6.94191 27.6469Z" fill="#1C1C1C"/>
<path d="M56.4789 29.618L56.5207 29.6435C56.3991 29.8537 56.1945 30.0584 56.1212 30.2889C56.0497 30.514 55.9794 30.7401 55.9448 30.9743C55.8717 31.4694 55.8912 31.8788 55.6554 32.3352C55.0874 32.2634 54.475 32.2837 53.9553 32.5532C52.6047 33.2538 53.6884 34.4575 53.4096 35.2328C53.2706 35.6191 52.6911 35.7157 52.3591 35.87C51.4711 36.2827 51.5959 37.0581 51.3067 37.839C49.883 38.4036 48.4142 38.795 46.9371 39.1897L46.6518 39.2521C46.8158 38.8352 47.0448 38.4327 47.2573 38.0387C48.9894 34.8292 51.3977 31.7515 54.7966 30.2145C55.3436 29.9672 55.9049 29.7896 56.4789 29.618Z" fill="#1C1C1C"/>
<path d="M28.3282 14.6817C28.6142 14.6559 28.9052 14.6586 29.1923 14.6517C28.442 16.9224 30.0822 17.6538 30.0911 19.4427C30.0919 19.6021 30.0781 19.7926 29.9684 19.9192C29.6962 20.2331 28.7155 20.1485 28.1528 20.7312C27.8499 21.0448 27.7371 21.3594 27.7437 21.7931C27.5906 21.8579 27.449 21.9429 27.3049 22.0253C26.7089 21.1717 26.3865 20.6712 25.3735 20.293C25.1188 20.2048 24.8631 20.1543 24.5946 20.1336C23.7925 18.4632 22.8316 16.9346 21.6514 15.5063C22.0874 15.4111 22.5355 15.3498 22.9757 15.2757C24.7572 14.9761 26.5283 14.8082 28.3282 14.6817Z" fill="#1C1C1C"/>
<path d="M16.8913 27.6867C17.8589 27.6533 18.8229 27.7059 19.7508 28.0047C20.2339 28.1603 20.8014 28.3747 21.2337 28.6495C21.4891 28.8119 21.7227 29.0328 21.9974 29.1609C22.1152 29.2159 22.2476 29.26 22.3793 29.2438C22.5439 29.2237 22.6554 29.1213 22.7548 28.9975C24.8333 29.6438 26.0741 30.9494 26.9677 32.913C27.1626 33.3413 27.3151 33.9797 27.5882 34.3431C27.6869 34.4743 27.8338 34.5944 28.0036 34.6069C28.2195 34.6229 28.3733 34.4932 28.5272 34.3611C29.1029 34.85 29.3868 35.6451 29.504 36.3705C29.6206 37.093 29.6912 39.2259 29.4228 39.8361C29.3011 40.1128 29.0301 40.3359 28.8516 40.5825C28.6005 40.5772 28.3547 40.5563 28.105 40.5289C28.2924 40.2155 28.4397 39.9065 28.5457 39.5562C28.9942 38.0736 28.7564 36.386 28.0261 35.0388C28.1062 35.4613 28.2226 35.8782 28.2844 36.3042C28.4902 37.723 28.2083 39.1158 27.5533 40.379C27.1245 39.2042 26.5067 38.1609 25.8764 37.0864C26.1265 36.4596 26.2074 35.8433 26.2017 35.1715C26.1897 34.4205 25.9799 33.6413 25.6549 32.9667C25.2459 32.1178 24.6141 31.5213 23.7214 31.2119C24.2639 31.5694 24.7188 31.9778 25.0484 32.5439C25.7476 33.7447 25.7798 35.181 25.425 36.4935C24.8554 35.5243 23.6766 34.3231 22.8883 33.4771C22.882 33.4083 22.8744 33.3395 22.8654 33.2709C22.8565 33.2024 22.8463 33.134 22.8348 33.0659C22.8233 32.9977 22.8105 32.9297 22.7964 32.862C22.7823 32.7943 22.7669 32.7269 22.7503 32.6597C22.7337 32.5926 22.7158 32.5258 22.6966 32.4594C22.6775 32.3929 22.657 32.3269 22.6353 32.2612C22.6137 32.1956 22.5908 32.1303 22.5666 32.0655C22.5425 32.0007 22.5171 31.9364 22.4906 31.8726C22.464 31.8087 22.4362 31.7454 22.4072 31.6826C22.3783 31.6198 22.3481 31.5576 22.3168 31.496C22.2855 31.4343 22.253 31.3733 22.2193 31.3129C22.1857 31.2524 22.1509 31.1927 22.115 31.1336C22.0791 31.0745 22.0421 31.0161 22.004 30.9584C21.9658 30.9007 21.9266 30.8437 21.8864 30.7875C21.8461 30.7313 21.8048 30.6758 21.7624 30.6211C21.7201 30.5665 21.6767 30.5127 21.6322 30.4597C20.7974 29.4788 19.624 28.7356 18.3235 28.6301C19.0223 28.8618 19.6516 29.1385 20.2333 29.5978C21.1903 30.3535 22.0095 31.5947 22.1585 32.8234C20.9974 31.9236 19.8258 31.1129 18.5556 30.3742C17.9638 29.1582 17.1879 28.6131 16.0736 27.9163L16.1129 27.9148L16.1783 27.9113C16.4634 27.899 16.6467 27.8219 16.8913 27.6867Z" fill="#1C1C1C"/>
<path d="M28.5869 23.6011C30.4765 23.5094 30.6185 25.6494 31.2372 25.9122C31.6024 26.0672 32.1402 25.4696 32.4847 25.3534C32.7495 25.264 33.0742 25.2748 33.3239 25.405C33.792 25.6489 33.999 26.1637 34.1486 26.6363C33.8517 27.6574 33.9584 28.5233 34.7559 29.2767C34.9992 29.5066 35.3111 29.7175 35.4986 29.9975C35.6418 30.2111 35.7096 30.4577 35.7413 30.7102C35.7836 31.048 35.8568 31.6542 35.6093 31.9296C35.5738 31.9691 35.5499 31.9555 35.5011 31.9414C34.9827 31.792 34.7232 31.5938 34.1409 31.5738C33.8808 30.8936 33.736 30.1877 33.641 29.4677C33.4961 28.3698 33.5866 27.0177 32.9224 26.0777C33.1739 27.0857 33.1305 27.9404 33.1904 28.953C33.248 29.9293 33.3958 30.8203 33.6382 31.7678C33.4735 31.92 33.3319 32.068 33.1988 32.2487C32.8198 31.6224 32.5481 30.8633 32.3482 30.1623C32.2606 29.8552 32.2094 29.5297 32.0939 29.2321L32.0604 29.2329C32.0545 29.2426 32.0475 29.2518 32.0426 29.2621C31.8191 29.743 32.3032 31.1739 32.4858 31.6714C31.8077 31.2376 31.1645 30.7124 30.5375 30.208C30.2968 29.2609 30.1119 28.312 29.9306 27.3522C29.7265 26.2406 29.4149 25.1739 28.7514 24.2447C28.9156 24.6334 29.0827 25.0193 29.2019 25.4248C29.6028 26.7883 29.7339 28.3959 30.0235 29.8144C28.5605 28.776 27.1649 27.6501 25.688 26.6268C25.2132 26.2978 24.7258 25.9076 24.2071 25.6538C24.7947 26.2333 25.4774 26.7214 26.111 27.2495C26.9262 27.9376 27.7257 28.6436 28.5094 29.3675C27.6304 29.4967 26.142 29.3353 25.3248 28.9418C24.3687 28.4815 24.1988 28.1773 23.0554 27.9462C23.3372 27.7444 23.6958 27.5741 23.913 27.2975C24.3623 26.7251 23.6326 26.2133 23.5671 25.66C23.5451 25.4754 23.5964 25.3213 23.7106 25.1767C24.4652 24.2216 25.6398 25.2194 26.5442 25.0973C26.9551 25.0419 27.1553 24.7262 27.3836 24.4235C27.7093 23.9915 28.0246 23.6798 28.5869 23.6011Z" fill="#1C1C1C"/>
<path d="M56.3959 20.0017C57.6227 20.7496 58.8067 21.6064 59.8189 22.6311C61.2114 24.0407 62.3468 25.8379 62.3246 27.8825C62.3007 30.0793 61.053 31.7288 59.5617 33.2012L59.6514 32.7351C59.8088 31.9559 59.7885 31.0945 59.5031 30.3455C59.3409 29.9201 59.0562 29.4804 58.6216 29.2986C58.2396 29.1388 57.8558 29.2291 57.4882 29.374L57.5947 28.9838C57.5002 28.6446 57.2401 28.4223 57.1612 28.077C57.1389 28.0556 57.1163 28.0344 57.0935 28.0136C56.6553 27.6172 55.6136 27.7858 55.0662 27.8109C54.9475 27.4318 54.8198 27.0557 54.6831 26.6827C54.9655 26.5187 55.3541 26.3869 55.5094 26.0762C55.861 25.3728 54.7201 24.4209 54.494 23.7642C54.0979 22.614 55.2042 21.7038 55.8388 20.9008C56.0625 20.6178 56.2353 20.3242 56.3959 20.0017Z" fill="#1C1C1C"/>
<path d="M12.1477 18.4308L12.1966 18.4468C12.4237 19.045 12.577 19.6758 12.791 20.2806C13.189 21.4053 13.6592 22.4867 14.1665 23.5652C14.1252 23.8619 14.107 24.1598 14.0867 24.4584C13.6363 24.0551 13.1748 23.6811 12.5501 23.618C12.0565 23.5683 11.5861 23.7309 11.2125 24.0505C10.1546 24.9551 9.76463 27.0757 9.65719 28.4136L9.18571 28.6424C8.61621 28.0847 8.0853 27.2475 7.26301 27.0501C6.98883 26.9842 6.71645 27.0282 6.4801 27.1835C5.73139 27.6754 5.3987 28.8296 5.22887 29.6521C5.07264 30.548 5.18043 31.387 5.48541 32.2376C4.985 31.6558 4.55107 31.0362 4.21723 30.3429C3.51312 28.8806 3.37787 27.2353 3.92827 25.6986C4.91197 22.9522 7.4391 20.9059 9.9159 19.528C10.6388 19.1259 11.3985 18.7815 12.1477 18.4308Z" fill="#1C1C1C"/>
<path d="M12.5021 29.6671C14.0777 29.5292 15.5817 29.8605 17.0162 30.4955C16.2436 30.4963 15.2526 30.4372 14.5516 30.8101C14.4048 30.8882 14.1492 31.0282 14.0995 31.19C14.1988 31.2569 14.5592 31.1216 14.6827 31.0933C15.2023 30.9746 15.9651 31.0378 16.5023 31.0654C17.018 31.092 18.0582 31.1144 18.524 31.2665C19.4551 31.5706 21.9444 33.6619 22.6449 34.4372C21.6995 34.2111 20.7648 33.9299 19.8165 33.7192C19.2154 33.5857 18.6036 33.4995 18.0002 33.377C17.5161 33.2788 17.0369 33.1448 16.5591 33.0196C16.7662 33.2713 17.0132 33.4708 17.311 33.6071C18.0237 33.9336 18.8136 34.0332 19.5648 34.2374C20.1711 34.4023 20.7646 34.6136 21.3687 34.787C22.041 34.98 22.7274 35.1355 23.4058 35.3064C24.1632 36.0585 24.9627 37.2351 25.4484 38.1849C24.3318 38.2506 23.4421 38.1088 22.373 37.7916C21.8579 37.6388 21.3496 37.4675 20.8148 37.3979C20.9122 37.5022 21.0141 37.5962 21.127 37.6832C21.4451 37.9281 21.8121 38.1178 22.1753 38.2857C23.3722 38.8389 24.5284 38.9913 25.8319 38.8308C25.934 39.0405 26.0247 39.2561 26.1182 39.4697L26.4685 40.2951C24.7296 40.1375 21.8488 39.634 20.3916 38.6869C19.8485 38.3339 19.4043 37.8421 18.9108 37.4249C18.943 37.5165 18.9785 37.6067 19.0174 37.6956C19.5035 38.784 20.5805 39.3347 21.6395 39.7417C21.1299 39.6688 20.6357 39.5014 20.1485 39.3409C19.836 39.238 19.4796 39.1442 19.2022 38.9628C18.6359 38.5925 18.7993 37.7467 18.0679 37.1585C17.3735 36.6001 16.8268 36.7746 16.3008 36.4542C15.81 36.1551 15.677 35.4774 15.545 34.9614C16.181 35.5552 16.8115 35.5558 17.6361 35.5523C16.5189 35.2178 16.1036 34.9871 15.4311 34.0318C15.1635 33.6517 14.8721 33.3493 14.4745 33.1027C13.7064 32.6264 12.8165 32.282 11.9927 31.9089C11.0591 31.4861 10.1769 31.0253 9.31427 30.4722C10.273 30.8377 11.8218 31.4306 12.5838 32.0838C11.9567 31.1478 10.6839 30.5187 9.64111 30.1593C9.87353 30.0898 10.1078 30.0274 10.344 29.972C10.5801 29.9167 10.8177 29.8684 11.0568 29.8273C11.2959 29.7862 11.5359 29.7522 11.777 29.7255C12.0181 29.6988 12.2598 29.6793 12.5021 29.6671Z" fill="#1C1C1C"/>
<path d="M18.0622 54.3207C18.476 54.434 18.9076 54.6728 19.3045 54.8418C20.0833 55.1732 20.891 55.4401 21.6969 55.6967C28.0747 57.7269 35.5441 57.9174 42.0438 56.3326C44.0951 55.8324 46.0484 55.0891 48.0029 54.3023C47.5963 54.8605 47.163 55.3663 46.6893 55.8679C46.0451 56.5339 45.2311 57.1235 44.4208 57.5695C43.1515 58.2681 41.7363 58.7484 40.3443 59.1336C40.1923 59.1764 40.04 59.2178 39.8874 59.2579C39.7348 59.298 39.5818 59.3367 39.4284 59.3742C39.2751 59.4116 39.1215 59.4477 38.9675 59.4824C38.8135 59.5172 38.6593 59.5506 38.5048 59.5827C38.3502 59.6148 38.1954 59.6456 38.0403 59.675C37.8853 59.7044 37.73 59.7325 37.5744 59.7592C37.4189 59.7859 37.2631 59.8113 37.1071 59.8353C36.9511 59.8593 36.7949 59.8819 36.6386 59.9033C36.4821 59.9246 36.3256 59.9445 36.1689 59.9631C36.0121 59.9817 35.8552 59.9989 35.6982 60.0148C35.5412 60.0307 35.384 60.0452 35.2267 60.0583C35.0694 60.0714 34.9121 60.0832 34.7546 60.0936C34.5971 60.104 34.4395 60.1131 34.2819 60.1207C34.1242 60.1284 33.9665 60.1347 33.8088 60.1397C33.651 60.1446 33.4932 60.1482 33.3355 60.1504C33.1776 60.1526 33.0198 60.1534 32.862 60.1529C32.7041 60.1524 32.5463 60.1505 32.3885 60.1472C32.2307 60.1439 32.073 60.1393 31.9152 60.1333C31.7575 60.1273 31.5999 60.1199 31.4423 60.1111C31.2847 60.1024 31.1272 60.0923 30.9698 60.0808C30.8124 60.0694 30.6551 60.0565 30.4978 60.0423C30.3407 60.0281 30.1836 60.0125 30.0267 59.9956C29.8698 59.9786 29.713 59.9603 29.5564 59.9407C29.3998 59.9211 29.2434 59.9001 29.0872 59.8777C28.9309 59.8553 28.7749 59.8316 28.619 59.8066C28.4632 59.7815 28.3076 59.7551 28.1523 59.7273C27.9969 59.6995 27.8418 59.6704 27.6869 59.64C27.5321 59.6095 27.3775 59.5777 27.2231 59.5446C27.0688 59.5114 26.9148 59.4769 26.7611 59.4411C26.6074 59.4053 26.454 59.3681 26.3009 59.3297C26.1479 59.2912 25.9951 59.2514 25.8427 59.2103C25.6904 59.1691 25.5383 59.1267 25.3867 59.083C23.1466 58.432 20.6169 57.5559 19.0287 55.7554C18.6423 55.3175 18.3423 54.8305 18.0622 54.3207Z" fill="#1C1C1C"/>
<path d="M50.7206 11.2065C50.9915 11.4071 51.0611 12.8832 51.1326 13.2528C51.1875 13.537 51.2731 13.8316 51.4183 14.0839C51.7133 14.5966 52.2994 14.878 52.8697 14.9439C53.0956 14.97 53.3632 14.9629 53.5802 15.0314C53.864 15.1208 53.7897 15.7169 53.8409 15.9666C53.8853 16.1836 53.9752 16.4072 54.0671 16.6084C54.3203 17.1625 54.6833 17.5692 55.0953 18.0085C55.2965 18.223 55.5456 18.4489 55.6711 18.7186C56.1183 19.6796 54.794 20.8414 54.2854 21.5252C54.1814 21.6629 54.0884 21.8076 54.0062 21.9593C53.924 22.1111 53.8537 22.2681 53.7952 22.4304C53.4874 23.3054 53.6779 24.1741 54.2074 24.9133C54.3815 25.1563 54.6183 25.4027 54.7421 25.674C54.7464 25.6832 54.7501 25.6925 54.7541 25.7018C54.4547 25.9033 54.1022 26.0372 53.7869 26.2147C53.489 26.3824 53.2117 26.6014 52.935 26.8025C51.9837 27.4938 51.6734 27.7687 51.485 28.9598C51.2204 29.1155 50.9767 29.3384 50.7353 29.5288C50.5077 29.1966 50.3277 28.8282 50.1078 28.4894C49.8445 28.0837 49.5441 27.704 49.2866 27.2938C49.6324 27.1246 49.9754 26.9573 50.3398 26.8309C51.3009 26.4975 52.3209 26.3501 53.2977 26.069C52.0757 26.1265 50.0907 26.2409 49.1102 27.0274C48.8921 26.7051 48.7328 26.4126 48.6491 26.0308C48.8154 25.4744 49.2702 25.0896 49.5392 24.5873C50.058 23.6182 49.9514 22.5861 49.649 21.5727C50.0376 20.9989 50.5967 20.5363 51.1366 20.1092C51.2466 20.0321 51.3587 19.9579 51.4727 19.8866C51.5867 19.8154 51.7025 19.7473 51.8201 19.6823C51.9378 19.6172 52.057 19.5552 52.1779 19.4964C52.2988 19.4377 52.4212 19.3822 52.5451 19.3299C52.6689 19.2776 52.794 19.2286 52.9204 19.183C53.0469 19.1373 53.1744 19.095 53.3031 19.0562C53.4318 19.0173 53.5614 18.9818 53.6919 18.9498C53.8225 18.9177 53.9538 18.8892 54.0859 18.8641C54.4876 18.7858 54.9044 18.7516 55.2998 18.6478L55.3332 18.6387C53.4796 18.4404 51.8297 18.9843 50.4019 20.1891C50.1896 20.3687 49.9872 20.5588 49.7946 20.7595C49.6618 20.8987 49.5493 21.0735 49.3934 21.1864L49.3471 21.1718C49.1764 20.7925 49.9007 16.2084 50.0312 15.5003C50.2528 14.2988 50.5681 13.0959 50.7353 11.8876C49.8221 13.277 49.4576 16.0861 49.1758 17.7545C49.0186 18.6854 48.8413 19.6228 48.7403 20.5617C48.4961 20.3413 48.2145 20.1116 48.0337 19.8344C47.7272 19.3647 47.636 18.6071 47.2078 18.2494C46.883 17.9781 46.4881 18.0286 46.0991 18.0635C46.072 18.0494 46.0451 18.0349 46.0184 18.02C45.2212 17.5719 45.0123 16.1883 44.7852 15.3781C45.2836 14.8821 45.4945 13.9693 45.9082 13.6835C46.5001 13.2748 47.7086 13.7526 48.494 13.3611C49.4399 12.8895 49.7968 11.7173 50.7206 11.2065Z" fill="#1C1C1C"/>
<path d="M12.4625 10.1314C13.7184 10.5118 14.9362 11.0872 16.0764 11.7319C21.0354 14.536 23.9326 18.75 25.4431 24.1911C24.9871 24.0885 24.5228 24.0624 24.0615 24.1423C23.8453 23.7645 23.6732 23.3526 23.4821 22.9611C23.0894 22.1567 22.6894 21.347 22.239 20.5732C21.8819 19.9589 21.5057 19.3564 21.1105 18.7659C20.7152 18.1754 20.3018 17.5979 19.8701 17.0334C18.3091 15.0331 15.3271 11.9868 12.9292 11.0729C13.4011 11.5886 13.9484 11.968 14.492 12.3983C14.9909 12.7942 15.4749 13.2075 15.9442 13.6381C18.9297 16.3754 20.6041 18.5603 22.4268 22.1785C22.7882 22.8959 23.2349 23.6518 23.4598 24.4207C23.2483 24.5983 23.0757 24.7656 22.964 25.0261C22.718 25.5999 22.8959 26.1648 23.1197 26.7056C22.7576 26.4287 22.3806 26.1675 22.028 25.8788C21.7637 25.6614 21.5038 25.439 21.2483 25.2116C20.9927 24.9841 20.7416 24.7518 20.495 24.5146C20.2484 24.2775 20.0066 24.0356 19.7694 23.789C19.5322 23.5425 19.2999 23.2914 19.0724 23.0358C18.845 22.7802 18.6226 22.5204 18.4052 22.2562C18.1878 21.992 17.9756 21.7237 17.7687 21.4512C17.5617 21.1788 17.3601 20.9025 17.1639 20.6223C16.9676 20.342 16.7769 20.058 16.5917 19.7704C15.2383 17.6456 13.5609 14.2308 13.1986 11.7403C13.1508 12.0937 13.1654 12.443 13.2117 12.7959C13.3744 14.0357 13.8295 15.2269 14.3103 16.3729C14.3662 16.506 14.4232 16.6387 14.4812 16.771C14.5393 16.9032 14.5984 17.0349 14.6586 17.1662C14.7188 17.2975 14.7801 17.4282 14.8425 17.5585C14.9049 17.6887 14.9683 17.8184 15.0328 17.9476C15.0973 18.0768 15.1629 18.2055 15.2295 18.3336C15.2961 18.4618 15.3638 18.5894 15.4325 18.7164C15.5012 18.8434 15.5709 18.9698 15.6417 19.0957C15.7125 19.2216 15.7843 19.3469 15.8572 19.4716C15.9301 19.5963 16.004 19.7204 16.0789 19.8439C16.1538 19.9673 16.2297 20.0901 16.3066 20.2124C16.3835 20.3346 16.4614 20.4562 16.5403 20.5771C16.6192 20.6981 16.6991 20.8184 16.78 20.938C16.8609 21.0576 16.9428 21.1766 17.0256 21.2949C17.1085 21.4132 17.1923 21.5308 17.277 21.6476C17.3619 21.7646 17.4476 21.8808 17.5343 21.9963C17.621 22.1118 17.7086 22.2265 17.7972 22.3406C17.8858 22.4547 17.9753 22.568 18.0658 22.6806C18.1562 22.7931 18.2476 22.905 18.3399 23.016C18.4321 23.1271 18.5253 23.2374 18.6194 23.347C18.7135 23.4565 18.8085 23.5653 18.9044 23.6733C19.0003 23.7812 19.0971 23.8885 19.1947 23.9949C19.2923 24.1013 19.3909 24.2069 19.4902 24.3116C19.5896 24.4164 19.6899 24.5203 19.791 24.6234C19.8921 24.7266 19.994 24.8288 20.0968 24.9303C20.1996 25.0317 20.3032 25.1324 20.4076 25.2321C20.5121 25.3319 20.6173 25.4307 20.7234 25.5287C20.8294 25.6268 20.9363 25.7239 21.0439 25.8201C21.1516 25.9164 21.26 26.0118 21.3692 26.1062C21.4785 26.2007 21.5885 26.2943 21.6992 26.387C21.81 26.4796 21.9215 26.5714 22.0338 26.6622C22.1461 26.7531 22.2591 26.843 22.3728 26.932C22.4866 27.0209 22.6011 27.1089 22.7162 27.196C22.4682 27.3829 22.2827 27.5747 22.0967 27.8239C21.5591 27.4995 21.0039 27.1831 20.4956 26.814C18.2457 25.1802 16.402 22.8581 15.1774 20.3722C14.8492 19.7058 14.595 19.0164 14.3041 18.3346C14.958 21.856 17.0255 24.5407 19.6361 26.8773C18.825 26.6567 17.9846 26.6209 17.1491 26.6106C16.5727 26.0551 16.0696 25.4705 15.6325 24.7989C15.0894 23.9643 14.5701 23.1119 14.1444 22.2105C12.4501 18.6228 11.6337 14.0469 12.4625 10.1314Z" fill="#1C1C1C"/>
<path d="M20.6719 20.658C20.7694 20.6461 20.8819 20.6239 20.9681 20.6859C21.0292 20.7299 21.0641 20.7859 21.0617 20.8621C21.0584 20.967 20.9908 21.0419 20.9263 21.117C20.8286 21.1173 20.7307 21.1238 20.6453 21.0676C20.5827 21.0263 20.5403 20.9638 20.5411 20.887C20.5422 20.7917 20.6116 20.7226 20.6719 20.658Z" fill="white"/>
<path d="M19.5249 19.689C19.6236 19.6881 19.7364 19.6794 19.819 19.7442C19.8805 19.7925 19.917 19.8471 19.9118 19.9276C19.9058 20.0223 19.8341 20.0908 19.772 20.154C19.6702 20.1682 19.5653 20.1857 19.4775 20.115C19.4151 20.0648 19.3907 19.9972 19.3949 19.9187C19.4 19.8219 19.4633 19.7555 19.5249 19.689Z" fill="white"/>
<path d="M21.159 21.8445C21.294 21.8391 21.3974 21.8415 21.5001 21.9414C21.5641 22.0035 21.591 22.0793 21.5866 22.1681C21.5802 22.2972 21.5177 22.3735 21.4292 22.4606C21.3194 22.4621 21.2093 22.4489 21.1197 22.3796C21.0495 22.3252 21.0079 22.2491 21.0061 22.1591C21.0035 22.0228 21.0731 21.9389 21.159 21.8445Z" fill="white"/>
<path d="M21.8515 23.4611C21.9101 23.4601 21.9708 23.4618 22.0281 23.475C22.1306 23.4986 22.2246 23.5773 22.2751 23.6685C22.3278 23.7635 22.3336 23.8769 22.303 23.98C22.2554 24.1408 22.1574 24.2121 22.0173 24.2919C21.9517 24.2937 21.8858 24.2903 21.8216 24.2757C21.7194 24.2526 21.6245 24.184 21.573 24.0923C21.5189 23.9956 21.5134 23.8848 21.5466 23.7801C21.5998 23.6123 21.7031 23.5426 21.8515 23.4611Z" fill="white"/>
<path d="M11.8112 17.4328C11.8475 17.4294 11.883 17.4361 11.9192 17.4402C12.0056 17.5543 12.0233 17.7155 12.0548 17.8531C11.4889 18.0522 10.9345 18.337 10.4005 18.6087C8.08178 19.7885 5.86529 21.3924 4.37531 23.5596C3.27782 25.1559 2.75267 27.0311 3.12274 28.953C3.65765 31.7312 5.91742 33.7573 8.15809 35.2637C9.30233 36.033 10.5325 36.6681 11.7777 37.256C21.3386 41.7692 34.5413 42.3916 44.8484 40.3627C50.2643 39.2966 58.4752 36.473 61.6618 31.6881C62.6395 30.22 63.1632 28.4027 62.8036 26.6445C62.2715 24.0427 60.1591 21.9148 58.0843 20.3933C57.5915 20.032 57.0682 19.7172 56.5592 19.3798C56.5658 19.1781 56.5563 18.9737 56.5532 18.7719C57.2252 19.1544 57.8813 19.5317 58.5069 19.9887C60.5389 21.4664 62.4857 23.2712 63.3994 25.6768C64.0828 27.476 64.133 29.3516 63.3344 31.1201C63.0453 31.7602 62.6566 32.3265 62.2325 32.8828C59.8518 36.0056 55.8884 38.2805 52.2761 39.6569C43.6923 42.9276 33.4096 43.5675 24.3568 42.2401C23.6202 42.1321 22.889 41.9871 22.1571 41.8517C18.6183 41.1969 15.0838 40.2161 11.7954 38.7374C8.81996 37.3994 5.86635 35.6575 3.77006 33.111C3.17962 32.3938 2.66094 31.6318 2.33176 30.7568C1.62651 28.8822 1.87586 26.8297 2.69464 25.0355C4.29078 21.5379 8.30492 18.7392 11.8112 17.4328Z" fill="#1C1C1C"/>
<path d="M43.6992 5.6056C43.7544 5.59915 43.7917 5.59501 43.8464 5.61028C44.1759 5.70221 43.873 7.11038 43.8421 7.40428C43.8139 7.67209 43.8038 7.94395 43.8309 8.21233C43.9591 9.47774 45.1797 10.0942 45.744 11.1383C45.8984 11.424 45.9961 11.759 45.9304 12.0841C45.833 12.5665 45.3984 12.7828 45.2276 13.2029C45.1054 13.5037 45.0802 13.8762 45.0177 14.1952C44.948 14.5475 44.8604 14.8953 44.7546 15.2386C44.6797 15.065 44.6094 14.8799 44.5088 14.7195C44.3832 14.5195 44.2016 14.3329 43.96 14.2899C42.9155 14.1042 41.9394 16.4485 41.1493 16.9914C41.138 16.9991 41.1265 17.0066 41.1152 17.0142C40.7482 16.9938 40.3833 16.861 40.0177 16.877C38.3635 16.9494 38.5453 18.6676 37.7506 19.3775C37.562 19.546 37.2488 19.6305 37.021 19.7459C36.5033 20.0082 36.1083 20.3816 35.7175 20.8036C36.1687 19.5879 36.6489 18.384 37.1584 17.1916C37.3746 16.6908 37.5746 16.122 37.8882 15.6737C38.1742 15.2647 38.5832 14.9283 38.9711 14.6194C40.6914 13.2497 42.7572 12.4481 44.9058 12.057C44.7559 12.0432 44.6055 12.0291 44.4549 12.0277C42.3843 12.0086 39.7454 13.21 38.288 14.6483C39.2438 12.4413 40.4889 10.249 41.9403 8.32912C42.4072 7.7116 42.9193 7.12945 43.4222 6.54132C41.3607 7.74498 39.5706 10.9022 38.5078 13.0069C38.3631 11.5747 37.8289 9.90842 36.7069 8.9373C36.9399 9.34078 37.1683 9.74503 37.3644 10.1681C37.7896 11.0857 38.2621 12.8704 38.0606 13.89C37.9647 14.3748 37.639 14.9577 37.4369 15.4232C37.0311 16.3575 36.6128 17.296 36.265 18.2535C36.1298 16.3402 35.9162 15.3031 35.1593 13.5452C34.6308 12.3237 33.539 10.8467 33.5038 9.52202L33.4853 9.52034L33.4981 9.44713L33.4879 9.45164C33.1154 10.2888 34.3014 12.5777 34.6683 13.4089C34.8551 13.8402 35.0279 14.277 35.1866 14.7195C35.5039 15.6095 35.7436 16.5136 35.8404 17.4562C35.885 17.8912 35.9827 18.4427 35.9202 18.875C35.8553 19.3237 35.5831 19.8187 35.4301 20.2498C35.0399 21.3481 34.6466 22.4522 34.3195 23.5711C33.9958 22.7923 33.841 21.9241 33.607 21.1141C33.1548 19.5491 32.379 18.1984 31.2509 17.02C30.9593 16.7154 30.6616 16.4168 30.3191 16.1691C30.5764 16.6226 30.9386 17.0387 31.2548 17.4525C31.7974 18.1625 32.2922 18.8869 32.674 19.6979C33.0676 20.5338 33.3313 21.4152 33.5946 22.2982C33.7681 22.8801 33.9179 23.4607 34.1888 24.0068C34.1153 24.3488 34.046 24.6916 33.9808 25.0352C33.6091 24.775 33.211 24.6566 32.7644 24.61C31.8461 23.0658 30.6366 22.4501 29.1198 21.6466C29.4796 22.0547 29.9291 22.339 30.3669 22.6551C31.1515 23.2217 31.7817 23.8485 32.3012 24.6658C31.9906 24.8005 31.726 24.9503 31.4588 25.1589C31.1211 24.3958 30.7162 23.8001 30.0454 23.296C29.7263 22.2098 28.9017 22.1936 28.6816 21.6491C28.6469 21.5632 28.647 21.4741 28.6937 21.3927C28.9172 21.0037 29.7143 20.9353 30.1037 20.7935C30.421 20.6778 30.6843 20.478 30.822 20.163C31.3316 18.9972 30.4193 17.6919 30.0248 16.6537C29.59 15.5091 30.0377 14.3137 31.0561 13.6495C31.5724 13.3127 32.3578 13.2529 32.6265 12.62C32.9754 11.7979 32.3636 10.6311 32.88 9.52369C33.6448 7.88356 35.4181 8.58584 36.4219 7.87202C37.1588 7.34802 37.3127 6.35319 38.2708 6.02182C38.9841 5.77509 39.4926 6.25037 40.0972 6.52708C41.6435 7.23471 42.3761 6.09795 43.6992 5.6056Z" fill="#1C1C1C"/>
<path d="M43.7413 15.1688C44.3734 15.7289 44.1449 17.6327 45.3502 18.5495C45.7729 18.8709 46.1451 18.8722 46.6454 18.8085C46.9333 19.2633 47.052 19.8029 47.3585 20.2575C47.5757 20.5796 47.8565 20.8709 48.1552 21.1182C48.3471 21.2771 48.5604 21.4261 48.726 21.6135C48.9475 21.8642 49.0556 22.2282 49.116 22.5524C49.4871 24.543 47.8406 24.6991 47.8757 26.1046C47.8995 27.0591 48.9916 27.9153 48.9307 28.6047C48.9023 28.9264 47.9868 29.2681 47.7301 29.4152C47.5026 29.5458 47.2867 29.6934 47.0825 29.858C46.4963 30.3328 45.9619 31.0532 45.8978 31.8278C45.8531 32.3677 46.0854 32.7657 46.4119 33.1652C45.9445 32.943 45.5531 32.8323 45.0335 32.8356C43.7842 32.8432 42.4641 33.4524 41.4933 34.2093C41.159 34.47 40.8633 34.7688 40.5653 35.0689C40.7215 34.4637 41.0044 33.9452 41.2486 33.3768C41.671 32.3928 41.975 31.4506 42.636 30.5818C43.9002 28.9204 45.7207 28.3679 47.7103 28.1048C46.9423 28.0147 46.2007 28.0254 45.4467 28.2126C43.4935 28.6977 42.5088 29.8425 41.5091 31.4862C41.6962 30.719 41.9086 29.9488 42.0558 29.1729C42.2012 28.4072 42.2671 27.5666 42.5111 26.8295C42.6818 26.3137 42.9863 25.8109 43.303 25.3726C44.6517 23.5062 46.1789 23.0493 48.0974 22.0876C48.028 22.092 47.9587 22.0986 47.8897 22.1074C46.5027 22.272 44.8095 23.2267 43.8111 24.1697C43.4112 24.5474 43.0836 24.9742 42.7468 25.4068C43.035 24.2786 43.3103 23.1925 43.459 22.0345C43.6358 20.6573 43.6378 19.2576 43.6837 17.8714C43.7095 17.0951 43.7925 16.0188 43.7187 15.2722C43.1094 16.5238 42.9566 20.6245 42.8123 22.2408C42.7452 22.9922 42.6374 23.7331 42.5129 24.477C42.3598 23.901 42.1706 23.3548 41.8603 22.8418C41.2142 21.7738 40.3983 21.2665 39.211 20.9681C40.0247 21.3893 40.6861 21.7876 41.2239 22.5543C41.7781 23.3442 42.2592 24.5234 42.2322 25.502C42.2206 25.9208 42.1174 26.3494 42.0449 26.7616C41.8713 27.7091 41.6903 28.6551 41.5017 29.5997C41.4625 29.034 41.2814 28.4346 41.0861 27.9047C40.0753 25.1616 38.0091 24.015 36.6639 21.6617C36.8993 23.2556 38.2582 24.2811 39.1917 25.4862C39.8261 26.3052 40.3653 27.2049 40.73 28.1768C41.5243 30.2929 41.1151 31.873 40.4624 33.9086C40.2117 34.6905 39.9474 35.4848 39.6084 36.2333C39.5965 35.978 39.5811 35.7229 39.5621 35.4681C39.4291 33.8156 39.0867 31.9536 38.1741 30.5461C37.4934 29.4959 36.3223 28.4265 35.3621 27.6107C35.6369 28.0521 35.9872 28.4464 36.3194 28.8451C37.4113 30.1559 38.2389 31.189 38.6842 32.89C38.8992 33.7119 39.342 36.0817 39.2287 36.8398C39.1911 37.0915 39.087 37.2631 38.9605 37.4796C38.8499 37.4434 38.7346 37.4237 38.6205 37.4009C38.4225 36.8297 38.098 36.2313 37.7481 35.7422C37.0182 34.7218 35.9814 34.0151 34.7787 33.6728C34.5659 33.6123 34.3355 33.5377 34.1153 33.5103C34.0411 33.5011 33.9893 33.4972 33.9276 33.5425C34.2737 33.7688 34.7387 33.8948 35.1137 34.0832C36.6039 34.8314 37.4126 35.794 38.0964 37.2904C37.3203 37.1535 36.5384 37.1498 35.7528 37.1475C35.5906 36.8249 35.4874 36.4618 35.3562 36.1251C35.1174 35.5127 34.7831 35.0926 34.3664 34.5994C34.0681 34.2464 33.657 33.7197 33.7132 33.2301C33.7402 32.9952 33.8453 32.662 34.037 32.515C34.4394 32.2068 35.1162 32.7081 35.5595 32.7554C35.7711 32.7779 35.997 32.7315 36.1591 32.587C36.4587 32.3197 36.5296 31.8332 36.5583 31.4517C36.6174 30.6662 36.4824 29.8385 35.9042 29.2625C35.6675 29.0266 35.3898 28.8279 35.1729 28.5731C34.8975 28.2494 34.747 27.8826 34.7861 27.4528C34.8508 26.7422 35.411 26.3147 35.9109 25.8882C37.0984 24.875 36.7136 23.9254 36.3836 22.6119C36.3083 22.3119 36.2056 21.9991 36.2371 21.6859C36.3348 20.7144 37.7556 20.4918 38.3667 19.9234C38.9581 19.3733 38.924 18.3665 39.5674 17.8701C39.9839 17.5488 40.4323 17.7578 40.8946 17.7996C41.9451 17.8947 42.5193 16.6071 43.0409 15.9009C43.248 15.6206 43.4744 15.392 43.7413 15.1688Z" fill="#1C1C1C"/>
<path d="M63.5109 32.1217C63.577 32.5979 63.1105 34.447 62.9686 34.9997C62.9048 35.2428 62.8379 35.485 62.7678 35.7264C62.6977 35.9677 62.6245 36.2081 62.5481 36.4475C62.4717 36.6869 62.3922 36.9253 62.3096 37.1626C62.2269 37.3999 62.1412 37.6362 62.0525 37.8712C61.9637 38.1064 61.8718 38.3403 61.7769 38.5729C61.6819 38.8056 61.584 39.037 61.483 39.2672C61.3821 39.4973 61.2781 39.7261 61.1712 39.9535C61.0642 40.1809 60.9543 40.4069 60.8415 40.6315C60.7286 40.856 60.6128 41.079 60.4941 41.3005C60.3754 41.522 60.2539 41.742 60.1294 41.9603C60.005 42.1786 59.8777 42.3953 59.7476 42.6103C59.6175 42.8253 59.4846 43.0386 59.3489 43.2501C59.2132 43.4616 59.0747 43.6713 58.9336 43.8792C58.7924 44.0871 58.6485 44.2932 58.502 44.4974C58.3554 44.7015 58.2062 44.9036 58.0544 45.1039C57.9025 45.3042 57.7481 45.5024 57.591 45.6986C56.9873 46.4472 56.3273 47.1575 55.6611 47.8505C53.9594 49.6208 52.0179 51.2302 49.8996 52.4798C42.2077 57.0172 32.0949 57.7302 23.5564 55.5199C23.3717 55.4724 23.1876 55.423 23.0039 55.3717C22.8202 55.3204 22.6371 55.2673 22.4545 55.2124C22.2719 55.1574 22.0898 55.1007 21.9084 55.0421C21.7269 54.9835 21.546 54.9231 21.3657 54.8609C21.1855 54.7987 21.0058 54.7347 20.8268 54.6689C20.6479 54.6031 20.4696 54.5355 20.2919 54.4661C20.1143 54.3967 19.9374 54.3255 19.7612 54.2526C19.585 54.1796 19.4096 54.1049 19.2348 54.0285C19.0601 53.952 18.8862 53.8738 18.7131 53.7939C18.54 53.714 18.3677 53.6323 18.1961 53.5489C18.0246 53.4655 17.854 53.3804 17.6842 53.2936C17.5144 53.2068 17.3455 53.1183 17.1775 53.0281C17.0095 52.9379 16.8424 52.846 16.6762 52.7524C16.51 52.6589 16.3448 52.5637 16.1805 52.4669C16.0163 52.37 15.853 52.2715 15.6907 52.1713C15.5284 52.0712 15.3671 51.9695 15.2069 51.8661C15.0466 51.7627 14.8874 51.6577 14.7293 51.5512C14.5711 51.4446 14.4141 51.3365 14.2581 51.2268C14.1021 51.1171 13.9473 51.0058 13.7935 50.893C13.6398 50.7802 13.4872 50.6658 13.3357 50.5499C13.1842 50.4341 13.034 50.3167 12.8849 50.1978C12.7358 50.079 12.5879 49.9586 12.4412 49.8367C12.2945 49.7149 12.149 49.5916 12.0048 49.4668C11.8606 49.342 11.7177 49.2158 11.5759 49.0882C11.4343 48.9606 11.2939 48.8315 11.1547 48.701C11.0157 48.5706 10.8779 48.4388 10.7414 48.3056C10.605 48.1724 10.4699 48.0378 10.3361 47.9019C10.2024 47.766 10.07 47.6287 9.93897 47.4902C9.80795 47.3516 9.67834 47.2117 9.55012 47.0705C9.4219 46.9294 9.29512 46.7869 9.16978 46.6432C9.04444 46.4995 8.92054 46.3545 8.79808 46.2083C8.67566 46.0621 8.55471 45.9147 8.43521 45.7661C7.50405 44.5996 6.6904 43.3712 5.93543 42.0855C5.71618 41.708 5.50547 41.3258 5.30329 40.939C5.10111 40.5521 4.90767 40.1609 4.72296 39.7654C4.53826 39.3699 4.36247 38.9704 4.19561 38.567C4.02875 38.1636 3.87098 37.7567 3.72229 37.3463C3.57361 36.9359 3.43416 36.5223 3.30395 36.1057C3.17374 35.6891 3.05289 35.2697 2.94141 34.8476C2.82993 34.4256 2.72793 34.0013 2.6354 33.5747C2.54288 33.1481 2.45992 32.7196 2.38654 32.2893C3.8835 34.7527 6.30233 36.5313 8.76282 37.9468C19.4496 44.095 36.3458 44.8979 48.1181 41.7175C52.8615 40.436 57.9254 38.2701 61.4343 34.7476C62.2162 33.9627 62.9578 33.084 63.5109 32.1217Z" fill="#1C1C1C"/>
</g>
<defs>
<clipPath id="clip0_107_4631">
<rect width="66" height="66" rx="10" fill="white"/>
</clipPath>
</defs>
</svg>
