<svg width="66" height="66" viewBox="0 0 66 66" fill="none" xmlns="http://www.w3.org/2000/svg">
<g clip-path="url(#clip0_107_4638)">
<path d="M0 0H66V66H0V0Z" fill="#1C1C1C"/>
<path d="M33.9192 1.20298C34.0877 1.18727 34.2566 1.18173 34.4258 1.18637C34.5949 1.191 34.7632 1.20577 34.9306 1.23067C36.5152 1.47227 37.6895 2.50833 38.6035 3.76384C38.7985 3.69473 38.9934 3.62378 39.1904 3.56095C40.1656 3.24992 41.2503 3.61818 42.1225 4.07069C43.4782 4.77398 44.5035 5.89117 44.9687 7.34934C45.9092 7.15315 46.8816 7.12556 47.7255 7.65472C48.3025 8.01656 48.7643 8.58742 48.9154 9.25909C49.1004 10.0818 48.8352 10.8242 48.4015 11.5161C49.1169 11.9076 49.8087 12.3142 50.4063 12.8775C50.9219 13.3634 51.4433 14.026 51.4508 14.7694C51.466 16.2739 49.6607 16.154 48.8147 16.9442C48.319 17.4073 48.1085 18.0468 47.5536 18.5947C47.7412 18.789 47.9185 18.9919 48.055 19.2259C48.3381 19.7113 48.3533 20.1684 48.2096 20.6995C48.9095 21.1853 49.714 21.5299 50.4373 21.986C51.1329 22.4247 51.8351 22.9262 52.3861 23.5395C53.1807 24.4241 53.8399 25.4788 54.4444 26.4987C54.9045 27.2668 55.3406 28.0484 55.7528 28.8432C56.165 29.6381 56.5525 30.4449 56.9153 31.2635C57.4211 32.4301 57.8412 33.6231 58.2987 34.8082C59.1514 37.0167 59.986 39.2099 60.5054 41.527C61.1103 44.2261 61.2246 46.8732 59.6728 49.3056C59.5918 49.4312 59.5079 49.555 59.4213 49.6769C59.3346 49.7989 59.2452 49.9188 59.1531 50.0366C59.0611 50.1545 58.9664 50.2702 58.8691 50.3838C58.7718 50.4974 58.6719 50.6087 58.5696 50.7178C58.4672 50.8268 58.3625 50.9335 58.2553 51.0379C58.1481 51.1422 58.0387 51.2441 57.9269 51.3435C57.8152 51.4428 57.7012 51.5396 57.5851 51.6339C57.4689 51.7281 57.3506 51.8197 57.2304 51.9086C54.6593 53.7884 49.5493 55.4396 46.4367 56.0974C45.5237 56.2903 44.6031 56.4806 43.682 56.6296C42.7782 56.7759 41.8675 56.8827 40.9732 57.0824C42.5257 57.0693 44.0188 57.2917 45.348 58.1432C45.8682 57.924 46.3968 57.7112 46.9409 57.5588C48.2292 57.1978 49.4167 57.1525 50.6014 57.8163C52.0046 56.8552 53.5088 56.1732 55.2265 56.0309C55.2058 55.8058 55.1842 55.5803 55.1911 55.354C55.2111 54.6907 55.5239 54.1212 56.004 53.6743C56.9553 52.7887 58.4515 52.6035 59.6953 52.6583C61.0053 52.716 62.3775 53.2179 63.2733 54.2068C63.7447 54.7272 64.0425 55.376 64.0014 56.0885C63.9669 56.6876 63.6644 57.2676 63.2136 57.659C62.1773 58.559 60.5745 58.4843 59.2907 58.3885C59.2221 59.0249 59.0262 59.5755 58.6411 60.0906C57.6875 61.3663 55.9872 62.1652 54.437 62.3817C53.0608 62.574 51.7899 62.3715 50.6689 61.5322C50.0054 62.2321 49.3342 62.7906 48.4811 63.2532C48.2851 63.3517 48.0852 63.4414 47.8813 63.5223C46.673 64.0089 45.0301 64.3515 43.7826 63.8082C43.1795 63.5455 42.8461 63.1227 42.6059 62.5243L42.2446 62.6202C40.7725 63.0027 38.9727 63.2921 37.5048 62.7819C37.1246 62.6497 36.7855 62.4418 36.4403 62.2389C36.3386 62.6714 36.1833 63.0785 35.8814 63.4114C35.4221 63.9179 34.7964 64.1441 34.1244 64.1726C32.1416 64.2567 30.2411 63.171 28.8199 61.8789C28.4507 62.0366 28.0707 62.1614 27.68 62.2535C26.3954 62.5497 25.0511 62.5213 23.9091 61.8113C23.7831 62.0111 23.6436 62.1765 23.4549 62.3197C22.5919 62.9746 21.1426 62.94 20.1292 62.7932C18.5615 62.5663 16.7818 61.8335 15.8043 60.5312C14.8299 61.438 13.4864 62.1035 12.1629 62.2789C11.2596 62.3986 10.2883 62.3055 9.54956 61.7278C8.99191 61.2916 8.73778 60.7328 8.65798 60.0409C6.94166 60.0728 5.04423 60.0059 3.59012 58.9748C2.97045 58.5354 2.40136 57.8827 2.27327 57.1108C2.17902 56.5428 2.33824 55.971 2.67282 55.5081C3.3859 54.5215 4.73194 54.0658 5.8827 53.8733C5.72984 53.541 5.61402 53.2139 5.612 52.844C5.60855 52.2114 5.90825 51.6547 6.35117 51.2187C7.49145 50.0963 8.92179 49.9662 10.4345 49.9866C8.93172 48.6593 7.23486 47.7031 6.13808 45.9539C4.2883 43.0037 5.19059 38.724 5.91188 35.5342C6.28393 33.8889 6.84975 32.3802 7.51388 30.8336C8.07784 29.5203 8.67867 28.2363 9.40364 27.0024C10.9758 24.3263 13.273 21.6413 15.9128 19.9738C14.7513 18.3118 16.2467 18.2586 16.1185 17.2344C16.1034 17.1138 16.0636 16.9764 15.9833 16.8829C15.7502 16.6117 14.5285 16.2136 14.053 15.8489C13.4817 15.4107 13.1524 14.753 13.0674 14.0436C12.9651 13.1883 13.2458 12.3931 13.7723 11.7231C15.2932 9.78799 19.0639 8.85361 21.4143 8.58194C21.4682 7.4854 22.2687 6.6363 23.0455 5.93205C23.8882 5.16815 25.0531 4.53148 26.1914 4.38253C26.5648 4.33366 26.9334 4.34952 27.308 4.36699C28.7268 3.57178 30.2302 2.89366 31.9015 3.16572C31.9822 2.75511 32.1138 2.3688 32.3708 2.03345C32.7685 1.51467 33.2878 1.29131 33.9192 1.20298Z" fill="white"/>
<path d="M32.1088 4.50955C32.2804 4.85393 32.4247 5.20681 32.6044 5.54866C32.28 5.53021 31.9632 5.52616 31.6385 5.54367C31.4863 5.54764 31.3307 5.56917 31.1788 5.58232C31.3812 5.14066 31.7203 4.79226 32.1088 4.50955Z" fill="#1C1C1C"/>
<path d="M24.8005 14.9574L24.8531 14.955C24.8925 15.1148 24.7131 15.579 24.6839 15.7687L24.6761 15.8211C24.2096 15.6742 23.7442 15.524 23.2798 15.3708C23.0425 15.2969 22.8103 15.2111 22.5772 15.1248C23.3562 15.2258 24.0422 15.1496 24.8005 14.9574Z" fill="#1C1C1C"/>
<path d="M31.625 16.3419C31.8687 16.7709 32.1626 17.1125 32.4801 17.4857C32.1315 17.473 31.7915 17.4373 31.4458 17.3943C31.157 17.369 30.8695 17.318 30.5829 17.2744C30.8897 16.9314 31.27 16.6335 31.625 16.3419Z" fill="#1C1C1C"/>
<path d="M39.3035 12.2058C39.7628 12.2953 40.2173 12.3388 40.6832 12.3711C40.4143 12.632 40.0889 12.8367 39.8129 13.095L39.6167 13.3148C39.2885 13.1664 38.9467 13.052 38.6066 12.9346C38.8113 12.6659 39.0583 12.4366 39.3035 12.2058Z" fill="#1C1C1C"/>
<path d="M34.5865 7.90826C34.7644 8.02428 34.9389 8.13817 35.1295 8.23266C35.1506 8.76407 35.2447 9.1805 35.4282 9.67847L35.127 9.64508C34.8147 9.60538 34.5027 9.56344 34.1909 9.51927C34.3565 8.98238 34.4973 8.46372 34.5865 7.90826Z" fill="#1C1C1C"/>
<path d="M26.4071 14.5627C26.6645 14.6489 26.9349 14.8353 27.1834 14.9537C27.5519 15.1293 27.9368 15.2448 28.3257 15.3646C27.872 15.6397 27.4678 15.94 27.0604 16.2784L26.8807 16.4392C26.3577 16.3394 25.8417 16.1901 25.3328 16.0344C25.3179 15.841 25.3205 15.6481 25.3813 15.4619C25.537 14.9843 25.9956 14.7772 26.4071 14.5627Z" fill="#1C1C1C"/>
<path d="M39.2231 5.46738C39.3852 5.48537 39.556 5.53063 39.7125 5.57637C41.1458 5.99508 42.4366 7.00469 43.1576 8.31076L42.9511 8.52913C42.9113 8.55098 42.8759 8.58953 42.8302 8.57051C42.6491 8.49504 42.0619 7.78038 41.8498 7.60294C41.0555 6.93824 40.0696 6.62506 39.0694 6.44166C39.1797 6.10203 39.2241 5.82489 39.2231 5.46738Z" fill="#1C1C1C"/>
<path d="M30.8813 3.84799C31.187 3.82035 31.5872 3.81598 31.8778 3.92243C31.8819 3.93453 31.8937 3.94643 31.8902 3.95874C31.8898 3.96012 31.7207 4.05296 31.7042 4.06243C31.5562 4.14691 31.4132 4.25622 31.2891 4.37296C30.888 4.75032 30.7209 5.23727 30.5667 5.75195L30.4534 5.79077C30.1145 5.90469 29.8049 6.08317 29.4877 6.2464C29.4633 6.14306 29.4389 6.03917 29.4084 5.93739C29.2399 5.3743 28.8684 5.02391 28.3607 4.75317C28.4538 4.68947 28.5489 4.6288 28.6459 4.57116C28.743 4.51352 28.8417 4.45903 28.9422 4.40769C29.0427 4.35635 29.1447 4.30826 29.2483 4.26343C29.3519 4.2186 29.4567 4.17711 29.563 4.13897C29.6691 4.10083 29.7765 4.06612 29.8849 4.03482C29.9933 4.00352 30.1026 3.97572 30.2128 3.9514C30.323 3.92707 30.4339 3.90628 30.5454 3.88903C30.6569 3.87178 30.7689 3.8581 30.8813 3.84799Z" fill="#1C1C1C"/>
<path d="M23.6661 10.2219C23.7241 10.2162 23.6918 10.214 23.7618 10.2384C23.7621 10.8606 23.7316 11.203 23.935 11.803C22.8283 12.0981 21.7843 12.3463 20.7886 12.9394C20.7393 12.9716 20.6926 12.9952 20.6382 13.0178C20.5799 12.9781 20.5727 12.9701 20.5609 12.8983C20.5128 12.6068 20.7219 12.1467 20.8827 11.9024C21.4341 11.0643 22.7122 10.43 23.6661 10.2219Z" fill="#1C1C1C"/>
<path d="M33.8479 10.0776C34.4684 10.174 35.1548 10.2002 35.755 10.3783C36.1274 10.4887 36.3058 10.8136 36.6083 11.0319C36.9337 11.2667 37.3552 11.4281 37.6406 11.7086C37.845 11.9095 37.9828 12.1956 38.12 12.444C38.0693 12.5435 38.0299 12.6249 37.9447 12.6989L37.8591 12.691C37.4686 12.6261 37.0855 12.5951 36.6896 12.5888C35.7237 11.7724 34.7082 10.9797 33.4876 10.5897L33.8479 10.0776Z" fill="#1C1C1C"/>
<path d="M31.7652 13.7061C31.987 13.8008 32.1901 13.904 32.3971 14.0281C31.9098 14.5599 31.5467 15.0689 31.5156 15.8124C31.2609 16.0212 31.0151 16.24 30.7783 16.4689C30.5414 16.6978 30.3143 16.9359 30.097 17.1833C29.546 17.0592 28.9941 16.9395 28.4412 16.8243C28.1179 16.7516 27.7982 16.6748 27.4791 16.585C27.9538 16.0363 28.6464 15.6026 29.3693 15.4791C29.931 15.383 30.4383 15.3899 30.9318 15.0604C31.4259 14.7306 31.6523 14.2725 31.7652 13.7061Z" fill="#1C1C1C"/>
<path d="M32.8518 11.142C33.8407 11.2948 35.0673 12.0258 35.8833 12.6055C35.2318 12.6942 34.6403 12.8222 34.0205 13.0514C33.6386 13.1865 33.2742 13.3894 32.9145 13.5739C32.545 13.3395 32.2287 13.1687 31.7967 13.0835C31.7773 12.6862 31.716 12.3667 31.5648 11.9978C32.0374 11.7686 32.4402 11.4638 32.8518 11.142Z" fill="#1C1C1C"/>
<path d="M47.8108 9.0598C47.8433 9.05639 47.9052 9.04479 47.9395 9.05136C48.0028 9.06354 48.0396 9.09029 48.0738 9.14366C48.257 9.42996 48.2191 9.95048 48.1359 10.2718C47.9223 11.0961 47.3241 11.6905 46.613 12.1162C46.293 11.7891 45.9758 11.591 45.5526 11.4217C45.1815 11.3137 44.8194 11.2834 44.4358 11.2605C45.2859 10.2194 46.4971 9.37852 47.8108 9.0598Z" fill="#1C1C1C"/>
<path d="M58.9175 53.3484C60.0137 53.2691 61.2798 53.519 62.1986 54.1431C62.8844 54.609 63.2036 55.219 63.3611 56.0172C62.7751 55.3843 62.1682 55.0933 61.3673 54.8062C59.3781 54.1716 58.0564 54.2297 56.0541 54.6429C56.1037 54.5746 56.1553 54.5078 56.209 54.4427C56.8646 53.6475 57.9454 53.4395 58.9175 53.3484Z" fill="#1C1C1C"/>
<path d="M31.6603 6.16835C32.0335 6.12291 32.4309 6.18997 32.7957 6.26412C31.5329 6.8085 30.4707 8.49059 29.9284 9.71578L29.6529 9.51243C29.2343 9.22633 28.7949 9.02098 28.3273 8.83213C28.5296 8.30168 28.8187 7.83556 29.1809 7.39882C29.829 6.61765 30.6617 6.26143 31.6603 6.16835Z" fill="#1C1C1C"/>
<path d="M24.0159 12.287C24.0374 12.2823 24.0679 12.275 24.0892 12.2739C24.207 12.268 24.2834 12.4491 24.3458 12.5418C24.7144 13.0889 25.1133 13.5323 25.5949 13.982C24.6336 14.5177 23.5313 14.6058 22.4666 14.4284C21.8161 14.2933 21.2632 14.0875 20.7861 13.6128C21.8399 13.0789 22.8426 12.5198 24.0159 12.287Z" fill="#1C1C1C"/>
<path d="M45.9861 7.974C46.6132 7.99495 47.1069 8.09433 47.5928 8.51669C46.4063 8.66384 44.877 10.1559 44.0926 11.0375L43.909 11.2717C43.6213 11.2922 43.3343 11.308 43.0507 11.3642C43.1676 11.1974 43.29 11.0177 43.3687 10.8291C43.6072 10.258 43.409 9.81401 43.1878 9.28723C43.917 8.47403 44.9064 8.04934 45.9861 7.974Z" fill="#1C1C1C"/>
<path d="M31.0609 56.8861C33.7839 57.3511 36.5601 57.6039 39.3152 57.2488C39.0528 57.3585 38.7696 57.4215 38.4996 57.5108C38.107 57.6405 37.7536 57.817 37.3997 58.0292C36.6569 58.5479 36.1291 59.1266 35.8573 59.9987C34.9026 58.7741 33.7756 57.7944 32.2733 57.3105C32.0731 57.2461 31.1956 57.0869 31.1506 57.0615C31.0707 57.0165 31.0797 56.9706 31.0609 56.8861Z" fill="#1C1C1C"/>
<path d="M37.7254 7.03814C37.9186 7.01745 38.1144 7.01462 38.3085 7.01616C39.6169 7.02667 40.9393 7.57684 41.854 8.51573C42.4157 9.09233 42.7638 9.77353 42.7565 10.5861C42.5353 10.3077 42.2795 10.0669 42.0088 9.83741C40.9419 9.03374 38.6999 8.09131 37.4023 7.72321C37.0145 7.61326 36.6195 7.54152 36.2201 7.49028C36.6809 7.211 37.195 7.0917 37.7254 7.03814Z" fill="#1C1C1C"/>
<path d="M27.9375 58.3997C27.9668 58.4404 27.9398 58.4748 27.9272 58.5225C27.6645 59.5122 27.9202 60.4132 28.3981 61.2835C27.2844 61.589 26.2405 61.6754 25.1053 61.431C24.8146 61.3429 24.545 61.2216 24.2797 61.0747C24.8519 60.0596 26.0222 59.6045 26.9821 59.0439C27.3133 58.8504 27.6248 58.6215 27.9375 58.3997Z" fill="#1C1C1C"/>
<path d="M39.8779 4.10396C40.0776 4.09587 40.2807 4.12262 40.4764 4.16095C41.7079 4.40222 43.0224 5.23049 43.7212 6.27975C43.9048 6.55545 44.3894 7.27288 44.2866 7.59173C44.2549 7.68976 44.1767 7.74132 44.0866 7.77903C43.9841 7.82195 43.8232 7.91792 43.7176 7.90619L43.6436 7.75112C43.6154 7.6932 43.5851 7.63637 43.5528 7.58064C42.916 6.49415 40.3664 5.3981 39.1595 5.08592C39.0679 4.86285 38.9851 4.6397 38.9092 4.41075C39.2129 4.2253 39.5281 4.14597 39.8779 4.10396Z" fill="#1C1C1C"/>
<path d="M9.26875 50.6087C10.2222 50.4835 11.3795 50.778 12.2056 51.2523C12.9069 51.655 13.673 52.3275 13.8914 53.137C13.2292 52.8829 12.5701 52.6319 11.9151 52.3592C10.7976 51.914 9.75041 51.6974 8.5423 51.8091C7.895 51.869 7.26072 51.9725 6.60974 52.0057C6.67581 51.9127 6.74516 51.8199 6.81928 51.733C7.41831 51.0304 8.37421 50.6914 9.26875 50.6087Z" fill="#1C1C1C"/>
<path d="M43.7748 11.9366C44.0028 11.8981 44.2724 11.9051 44.5038 11.9214C45.1312 11.9656 45.6921 12.1311 46.1122 12.621C44.5656 12.7876 43.2589 13.4485 41.9885 14.3019L41.1902 14.8748C40.9438 14.3257 40.6012 14.0078 40.1386 13.637C41.1139 12.6475 42.3975 12.0765 43.7748 11.9366Z" fill="#1C1C1C"/>
<path d="M33.8213 1.91124C34.3485 1.84017 34.9254 1.91044 35.4293 2.07664C36.6098 2.46601 37.6551 3.39125 38.2121 4.49822C38.5232 5.11666 38.6794 5.65791 38.4553 6.33313C38.2604 6.39108 37.8754 6.34629 37.6494 6.35866C37.4403 6.37012 37.2316 6.40096 37.0244 6.43085C37.0022 6.32873 36.9777 6.22717 36.9509 6.12617C36.4664 4.33458 35.447 2.83422 33.8213 1.91124Z" fill="#1C1C1C"/>
<path d="M26.5507 5.07093C26.9609 5.03015 27.3041 5.05312 27.6988 5.17305C25.7128 5.90654 24.0167 7.8752 22.8756 9.61588L22.7628 9.8155C22.6209 9.86873 22.482 9.93157 22.3426 9.991C22.2485 9.76928 22.1701 9.5562 22.1332 9.31714C22.1272 9.27705 22.1222 9.23684 22.1182 9.19649C22.1142 9.15618 22.1112 9.11579 22.1092 9.07531C22.1072 9.03484 22.1061 8.99432 22.1061 8.95376C22.1061 8.91324 22.1071 8.87274 22.109 8.83226C22.111 8.79179 22.114 8.75137 22.118 8.71103C22.122 8.67068 22.1269 8.63046 22.1329 8.59037C22.1389 8.55028 22.1458 8.51036 22.1537 8.47062C22.1617 8.43087 22.1706 8.39134 22.1805 8.35202C22.1903 8.31275 22.2012 8.27371 22.213 8.23491C22.2248 8.19615 22.2375 8.1577 22.2512 8.11954C22.2649 8.08143 22.2796 8.04366 22.2952 8.00623C22.3107 7.96881 22.3272 7.93179 22.3446 7.89518C22.362 7.85857 22.3803 7.82241 22.3995 7.7867C22.4187 7.751 22.4387 7.71578 22.4597 7.68107C22.4806 7.64639 22.5024 7.61223 22.525 7.57859C22.5476 7.54494 22.571 7.51188 22.5953 7.47939C23.5282 6.22426 25.0012 5.29718 26.5507 5.07093Z" fill="#1C1C1C"/>
<path d="M14.5322 56.1518C15.0451 56.0891 15.5709 56.1885 16.0606 56.3348C15.6109 56.4612 15.1942 56.6118 14.779 56.8279C14.055 57.2049 13.4077 57.7049 12.7264 58.1508C11.8767 58.7069 10.9971 59.2162 10.2021 59.8512C9.95673 60.0615 9.76504 60.2764 9.57903 60.5408C9.49054 60.3743 9.40791 60.223 9.38935 60.0314C9.33366 59.4565 9.71606 58.8705 10.0682 58.4482C11.1207 57.1858 12.9023 56.3002 14.5322 56.1518Z" fill="#1C1C1C"/>
<path d="M26.8595 9.16718C27.2254 9.16518 27.5686 9.20978 27.9178 9.32219C29.1146 9.70755 30.2025 10.5957 30.7682 11.724C31.1569 12.4992 31.2466 13.293 30.977 14.1183C30.799 13.7515 30.6018 13.4338 30.3537 13.1098C29.3688 11.9115 27.8974 10.5579 26.4764 9.91703C26.0205 9.71142 25.5551 9.58355 25.0622 9.50408C25.6387 9.28384 26.2457 9.19109 26.8595 9.16718Z" fill="#1C1C1C"/>
<path d="M28.276 56.5386C28.9789 56.4398 29.8706 56.601 30.5143 56.8903C29.5793 56.9774 28.6061 57.3968 27.8627 57.9651C27.4846 58.2541 27.1378 58.5857 26.7333 58.8398C26.327 59.095 25.8503 59.2673 25.4106 59.4564C24.929 59.6455 24.5117 59.8837 24.0944 60.1867C24.032 59.9127 23.9357 59.6465 23.8469 59.3801C24.0028 59.0791 24.2024 58.7958 24.4223 58.5384C25.4188 57.3718 26.7451 56.6587 28.276 56.5386Z" fill="#1C1C1C"/>
<path d="M40.6108 57.7686C41.9509 57.6408 43.5561 57.796 44.7023 58.5314C42.6773 58.3719 41.2757 58.8712 39.4027 59.4824C38.4 59.8414 37.3784 60.0364 36.4584 60.6C36.5313 60.0708 36.6882 59.632 37.0387 59.2202C37.9024 58.2054 39.3437 57.8721 40.6108 57.7686Z" fill="#1C1C1C"/>
<path d="M30.7402 57.7317C31.6213 57.698 32.4427 57.9906 33.2018 58.4148C34.2358 58.9927 35.273 59.9513 35.5969 61.1277C35.7729 61.7664 35.704 62.3667 35.3799 62.9432C35.301 62.6358 35.1978 62.3505 35.06 62.0644C34.3279 60.5823 32.8631 59.828 31.4793 59.078C30.7676 58.6922 30.0697 58.3107 29.3068 58.0337C29.779 57.8515 30.2366 57.7695 30.7402 57.7317Z" fill="#1C1C1C"/>
<path d="M18.0708 57.0183C18.4257 56.975 18.7999 56.9825 19.1548 57.023C20.5055 57.1774 22.0554 57.9894 22.8995 59.0652C23.4151 59.7223 23.5024 60.4551 23.407 61.2617L23.216 60.9739C22.2871 59.8745 20.9593 59.0882 19.5955 58.6591C18.9219 58.4471 18.2226 58.3015 17.5427 58.1067C17.6122 57.7644 17.6446 57.442 17.6413 57.0924L18.0708 57.0183Z" fill="#1C1C1C"/>
<path d="M28.2655 5.71532C28.3394 5.70481 28.4726 5.68326 28.5405 5.71636C28.6315 5.76066 28.706 5.94786 28.7351 6.03712C28.9692 6.75533 28.0332 7.97259 27.6983 8.61145C26.6636 8.54358 25.4932 8.68493 24.547 9.13256C24.3315 9.23459 24.1729 9.44638 23.9713 9.54035C23.9602 9.54557 23.9483 9.5488 23.9368 9.55298C23.7479 9.57393 23.5594 9.60629 23.3715 9.63471C23.6051 9.28879 23.8334 8.93585 24.0835 8.60166C25.0406 7.32291 26.6437 5.94706 28.2655 5.71532Z" fill="#1C1C1C"/>
<path d="M36.0515 13.1939C36.9748 13.0849 38.0146 13.2873 38.8685 13.6332C39.53 13.9013 40.199 14.3007 40.4865 14.9826C39.0478 14.4796 37.7042 14.5516 36.2184 14.7335C34.8644 14.8653 33.477 15.0936 32.2002 15.5695C32.2879 15.2331 32.4112 14.961 32.6309 14.6899C33.4308 13.7026 34.8403 13.312 36.0515 13.1939Z" fill="#1C1C1C"/>
<path d="M33.5243 6.66806L33.5918 6.68179C33.6791 6.75243 33.7308 6.82603 33.779 6.92781C34.0427 7.48442 33.9123 8.30317 33.7176 8.86198C33.2998 10.0609 32.4586 10.858 31.3313 11.401L31.0862 11.0053C30.8411 10.6544 30.5572 10.3407 30.2638 10.0305C30.311 9.89845 30.3618 9.76929 30.4232 9.64302C31.03 8.39463 32.1927 7.13367 33.5243 6.66806Z" fill="#1C1C1C"/>
<path d="M55.3465 56.6995C55.6102 56.6546 55.9468 56.6678 56.2136 56.6851C57.0938 56.7422 57.7314 56.9956 58.3139 57.665C56.264 57.5906 54.9653 58.1955 53.2144 59.0917C52.6174 59.3757 52.006 59.6503 51.4364 59.9863C51.5035 59.3595 51.4083 58.8754 51.1485 58.3041C52.2541 57.3169 53.8999 56.8436 55.3465 56.6995Z" fill="#1C1C1C"/>
<path d="M48.552 57.9571C48.5819 57.9559 48.6119 57.9548 48.6419 57.9539C49.3264 57.9335 49.921 58.046 50.4322 58.529C49.8848 58.5197 49.3655 58.6162 48.8509 58.801C47.6384 59.2364 45.14 60.8479 44.1453 61.7214C43.8379 61.9842 43.6424 62.2896 43.4565 62.645C43.301 62.3681 43.2069 62.085 43.1857 61.7681C43.1409 61.0962 43.4545 60.495 43.8885 60.0036C44.9652 58.7843 46.9558 58.05 48.552 57.9571Z" fill="#1C1C1C"/>
<path d="M6.07924 54.5085C6.46204 54.4702 6.8661 54.4916 7.24753 54.5383C8.85461 54.7352 10.0504 55.4811 11.0378 56.7394L10.6004 57.0477C10.0554 56.6166 9.3112 56.4602 8.64436 56.3283C7.78172 56.2185 6.89801 56.1206 6.0272 56.1439C5.02285 56.1708 4.11446 56.406 3.10687 56.1722C3.19038 56.0007 3.3015 55.8444 3.4241 55.6987C4.0919 54.9056 5.07909 54.5978 6.07924 54.5085Z" fill="#1C1C1C"/>
<path d="M46.02 13.2586C46.08 13.2552 46.1206 13.2599 46.1781 13.2769C46.1967 13.3081 46.2107 13.3272 46.2192 13.3651C46.3104 13.7752 45.7489 14.6822 45.4884 14.9978C44.2652 16.4801 42.1982 17.0904 40.3554 17.2661C40.29 17.2756 40.2481 17.2814 40.1845 17.2609C40.2196 17.1564 40.3935 17.0543 40.4761 16.9766C40.9454 16.5352 41.15 16.0266 41.2629 15.4053C42.3979 14.2069 44.3845 13.3633 46.02 13.2586Z" fill="#1C1C1C"/>
<path d="M33.1152 2.31082C33.4396 2.38171 33.7482 2.56043 34.0229 2.74148C34.9683 3.36468 35.877 4.41582 36.2988 5.47167C36.4371 5.81771 36.5107 6.17718 36.5859 6.54056C36.2368 6.69016 35.9398 6.88326 35.6667 7.14655C35.5416 7.2986 35.44 7.46721 35.3347 7.63324C35.0366 7.417 34.739 7.20243 34.5269 6.89602C34.4011 6.71433 34.2888 6.50763 34.1416 6.34248C34.0211 6.20732 33.8625 6.11119 33.734 5.98416C33.1877 5.44362 32.6461 4.26455 32.6348 3.48427C32.628 3.00819 32.7854 2.64537 33.1152 2.31082Z" fill="#1C1C1C"/>
<path d="M58.1883 54.8951C59.0345 54.8357 59.8907 54.8913 60.7119 55.1118C61.5987 55.3497 62.5558 55.896 63.0264 56.7106C62.9836 56.7717 62.9404 56.833 62.8922 56.89C62.3989 57.4732 61.5315 57.5893 60.8196 57.6534C60.1919 57.666 59.6008 57.6286 58.9818 57.5115C58.8848 57.3554 58.7578 57.2058 58.6344 57.0697C57.9114 56.2727 56.9261 56.0246 55.883 55.9708L55.8796 55.9183C55.8719 55.813 55.8416 55.6727 55.9053 55.5816C56.2246 55.1254 57.6801 54.9412 58.1883 54.8951Z" fill="#1C1C1C"/>
<path d="M42.1403 59.2456C42.6266 59.1723 43.1791 59.2268 43.6668 59.2691C43.0358 59.9695 42.5415 60.7133 42.5028 61.6816C41.1048 62.0719 39.7815 62.3552 38.3187 62.1547C37.6197 62.0199 37.1148 61.7324 36.6315 61.2133C38.1395 60.1896 40.3215 59.3951 42.1403 59.2456Z" fill="#1C1C1C"/>
<path d="M17.2829 58.6026C18.2836 58.9035 19.323 59.0475 20.2842 59.4763C21.2064 59.8879 22.5439 60.8538 22.9166 61.8298C22.5879 61.9253 22.2479 61.9825 21.9087 62.024C21.2704 62.0836 20.647 62.0692 20.0141 61.9598C18.6705 61.7273 17.128 61.1084 16.3175 59.955C16.6695 59.5205 16.9831 59.0743 17.2829 58.6026Z" fill="#1C1C1C"/>
<path d="M35.8831 8.10968C36.7357 8.16485 37.6585 8.42911 38.4719 8.68705C39.9468 9.15466 41.6905 9.89903 42.4389 11.3448C42.3431 11.395 42.2426 11.4385 42.1446 11.4845C41.109 11.8224 39.957 11.7525 38.921 11.4526C37.8834 11.1522 36.5674 10.4569 36.0364 9.4661C35.8102 9.04393 35.741 8.56975 35.8831 8.10968Z" fill="#1C1C1C"/>
<path d="M9.30298 52.2535C9.62615 52.2326 9.96872 52.2648 10.2889 52.3099C11.3623 52.4611 11.6224 52.7539 12.5365 53.2582C12.999 53.5134 13.4825 53.7158 13.9694 53.9185C13.9544 53.9358 13.9395 53.9531 13.924 53.9699C13.1726 54.7859 11.9936 55.0002 10.9345 55.0498C10.7411 55.0648 10.546 55.0706 10.3522 55.0806C9.55235 54.5467 8.73212 54.1888 7.78402 54.0105C7.46304 53.9502 7.13549 53.9314 6.81703 53.8589L6.7779 53.8496C6.41634 53.495 6.30091 53.1053 6.26703 52.6155C7.32608 52.6865 8.25614 52.3201 9.30298 52.2535Z" fill="#1C1C1C"/>
<path d="M5.91676 56.538C7.23793 56.4436 8.9567 56.928 10.1634 57.4981C9.62328 58.0134 9.17978 58.5514 8.89206 59.246C8.29312 59.2752 7.69499 59.2635 7.09768 59.2109C5.95441 59.1232 4.5714 58.8517 3.65782 58.1143C3.21812 57.7595 2.97269 57.3134 2.91638 56.7517C4.11728 57.1171 4.75548 56.6491 5.91676 56.538Z" fill="#1C1C1C"/>
<path d="M49.6154 59.3098C50.0287 59.267 50.4333 59.2867 50.838 59.3813C50.7382 60.0596 50.4116 60.6677 49.9581 61.1768C48.8097 62.466 47.0016 63.1892 45.3026 63.2843C45.0846 63.2875 44.8673 63.2757 44.6508 63.249C44.4343 63.2222 44.2207 63.1808 44.0099 63.1247C44.1255 62.7695 44.2634 62.4679 44.5045 62.1795C45.5274 60.9557 48.0713 59.4423 49.6154 59.3098Z" fill="#1C1C1C"/>
<path d="M56.3353 58.4073C57.0778 58.3135 57.9207 58.3939 58.6339 58.6102C58.4948 59.0048 58.3189 59.3575 58.0487 59.68C57.0328 60.8923 55.3078 61.5151 53.7737 61.6497C53.085 61.6647 52.2307 61.588 51.6273 61.2223C51.5304 61.1634 51.4354 61.0765 51.4157 60.9594C51.3924 60.8206 51.4877 60.6773 51.5723 60.5765C52.1769 59.857 54.1127 58.9881 55.0334 58.6887C55.4637 58.5488 55.8853 58.4536 56.3353 58.4073Z" fill="#1C1C1C"/>
<path d="M36.5717 15.1652C37.6436 15.0845 39.6686 15.1512 40.5882 15.6772C40.478 15.9431 40.3474 16.1681 40.1496 16.3788C39.2281 17.3601 37.5858 17.6282 36.3071 17.6727C35.9422 17.664 35.5789 17.6345 35.2172 17.5842C34.8556 17.534 34.498 17.4634 34.1445 17.3723C33.3844 17.1791 32.7157 16.9875 32.2936 16.2788C33.5981 15.6677 35.1335 15.2606 36.5717 15.1652Z" fill="#1C1C1C"/>
<path d="M24.2574 10.1922C24.6152 10.1825 24.9766 10.1647 25.3327 10.2098C26.6971 10.3827 28.6822 11.7179 29.517 12.8039C29.8048 13.1783 30.376 14.2518 30.3155 14.7148C30.0605 14.7746 29.7959 14.7954 29.5346 14.8024C28.0762 14.8413 26.7319 14.1565 25.6932 13.1618C24.8391 12.3437 24.2845 11.3879 24.2574 10.1922Z" fill="#1C1C1C"/>
<path d="M16.2804 56.9547C16.3953 56.9451 16.5417 56.9197 16.6549 56.9411C16.7586 56.9608 16.8367 57.0045 16.8943 57.0932C16.9788 57.2234 16.9612 57.3951 16.9295 57.5389C16.6588 58.7665 15.5714 59.8667 14.556 60.5308C13.4965 61.2237 12.1829 61.6907 10.9132 61.424C10.6098 61.3444 10.3299 61.2124 10.0536 61.0662C10.1539 60.8205 10.2998 60.5891 10.4555 60.375C10.5558 60.2361 10.6641 60.1037 10.7804 59.9778C10.8967 59.852 11.0202 59.7336 11.1507 59.6226C12.2772 58.6603 14.8408 57.1831 16.2804 56.9547Z" fill="#1C1C1C"/>
<path d="M28.543 58.6059C28.9262 58.6809 29.3034 58.8054 29.6762 58.9206C30.9656 59.3189 32.2419 59.808 33.2841 60.694C34.005 61.3067 34.6383 62.1345 34.6901 63.1167C34.6956 63.2219 34.7002 63.2645 34.6287 63.3436C34.1363 63.4268 33.6277 63.3797 33.1392 63.2915C31.6611 63.0248 29.8771 62.1691 29.0035 60.9007C28.5026 60.1734 28.3825 59.4612 28.543 58.6059Z" fill="#1C1C1C"/>
<path d="M14.6067 53.061C17.1293 54.6696 18.7742 54.7362 21.6086 54.7268C22.3445 54.7243 23.123 54.6876 23.8524 54.7962C24.4727 54.8885 25.0666 55.1776 25.656 55.383C26.2355 55.585 26.8262 55.7467 27.3937 55.9826C25.7924 56.4415 24.4258 57.3472 23.4455 58.7035L23.2182 58.4513C22.9709 58.1872 22.6816 57.9542 22.3928 57.7377C20.8571 56.5862 19.3556 56.1849 17.464 56.4497C17.3861 56.3683 17.304 56.2916 17.2176 56.2194C17.1311 56.1472 17.041 56.08 16.9471 56.0178C16.8532 55.9556 16.7561 55.8989 16.6559 55.8475C16.5557 55.7961 16.453 55.7505 16.3477 55.7106C14.7938 55.1279 13.143 55.7026 11.7122 56.3494C11.5675 56.1806 11.4038 56.0238 11.249 55.864C11.4336 55.8508 11.6175 55.8307 11.8007 55.8037C12.6842 55.6691 13.7966 55.3308 14.3446 54.5677C14.6873 54.0904 14.6933 53.616 14.6067 53.061Z" fill="#1C1C1C"/>
<path d="M19.9893 23.3552C20.2121 23.3674 21.7409 23.9323 22.0524 24.0513C21.5001 24.6377 20.9964 25.2904 20.5335 25.9489C18.189 29.2839 16.9595 34.7148 16.86 38.7401C16.8505 39.1071 16.8504 39.4742 16.8594 39.8412C16.8685 40.2083 16.8868 40.5749 16.9143 40.941C16.9418 41.3071 16.9786 41.6724 17.0245 42.0366C17.0704 42.4009 17.1254 42.7638 17.1896 43.1253C17.4565 44.6454 17.8837 46.098 18.5384 47.4988C18.8561 48.1784 19.2231 48.8337 19.5538 49.5071C19.9438 50.3012 20.2829 51.2275 20.9371 51.8485C21.8983 52.7609 23.1705 53.2514 24.2359 54.0087L24.2788 54.0396L23.507 54.0438C23.2623 54.0445 23.0179 54.0349 22.7739 54.0153C20.9458 53.8595 19.6506 53.1113 18.4871 51.7244C16.1439 48.9315 14.4542 44.3594 14.1465 40.7469C14.0326 39.4103 14.1157 38.0294 14.2329 36.696C14.3336 35.5512 14.5199 34.3917 14.8125 33.2798C15.0105 32.5281 15.2789 31.8001 15.5475 31.0715C16.2845 29.0727 17.2558 26.7569 18.4833 25.0123C18.9182 24.3941 19.4092 23.8408 19.9893 23.3552Z" fill="#1C1C1C"/>
<path d="M16.4175 20.5177C16.4351 20.5215 16.4548 20.52 16.4703 20.5292C16.5701 20.5887 16.8784 21.1246 16.9704 21.2539C17.2113 21.5926 17.484 21.9177 17.7857 22.2041C18.2783 22.6717 18.8183 22.9515 19.457 23.1676C19.2032 23.4143 18.9806 23.7153 18.7563 23.9893C17.8615 25.0824 17.0448 26.2353 16.4278 27.5102C15.7675 28.8744 15.2866 30.2963 14.8535 31.7455C14.5993 32.596 14.334 33.4505 14.1359 34.316C13.6027 36.6472 13.3454 39.3412 13.6473 41.7216C13.8201 43.0836 14.2394 44.4188 14.6904 45.7109C15.6672 48.5098 17.4762 52.5566 20.2955 53.9172C18.9605 53.9267 17.7456 53.7128 16.5242 53.1618C15.5348 52.7027 14.6556 52.065 13.7814 51.4196C12.6662 50.5964 11.591 49.7267 10.5069 48.8634C9.73851 48.2516 8.9146 47.6851 8.19402 47.018C7.78177 46.6364 7.40543 46.2261 7.08839 45.7613C5.59848 43.5776 5.87869 40.9064 6.33711 38.4529C6.65307 36.7618 7.01459 35.0766 7.53053 33.434C8.7612 29.5162 10.8979 25.766 13.7884 22.8351C14.5907 22.0217 15.4739 21.1649 16.4175 20.5177Z" fill="#1C1C1C"/>
<path d="M21.2626 9.4217L21.3507 9.40778C21.4939 9.48944 21.6506 10.0806 21.7213 10.2544C21.4286 10.4604 21.1324 10.6651 20.8656 10.9044C20.3543 11.3628 19.9039 12.0045 19.8738 12.712C19.8497 13.2759 20.0726 13.7549 20.4461 14.1619C19.9562 13.9377 17.6075 12.6671 17.3343 12.6777L17.3124 12.7267C17.3377 12.7875 17.3641 12.8371 17.4046 12.8897C19.4066 15.4916 28.0336 17.5757 31.3524 18.0561C34.2396 18.4739 37.0844 18.6187 39.9835 18.2309C41.5438 18.0222 43.0279 17.6861 44.4583 17.0122C45.8017 16.3793 47.0504 15.4728 48.237 14.5876C47.5196 14.7867 46.8379 15.0772 46.1253 15.2842C46.6956 14.4352 47.04 13.754 46.8842 12.7144C47.1846 12.567 47.4857 12.4219 47.7773 12.2577C48.6696 12.6308 49.9823 13.4606 50.4061 14.3682C50.5003 14.57 50.5846 14.8595 50.4906 15.0763C50.4695 15.125 50.4308 15.1966 50.3856 15.2271C50.2271 15.3335 49.8979 15.3869 49.7094 15.4503C49.2098 15.6182 48.7086 15.8311 48.2741 16.1333C47.4734 16.6903 46.717 17.4766 46.1623 18.2772C45.8475 18.7316 45.6041 19.252 45.1748 19.6151C44.4778 20.2046 43.5725 20.5342 42.7408 20.8851C43.0564 20.9201 43.3588 20.9072 43.6742 20.876C43.6795 20.8755 43.6848 20.875 43.6901 20.8743C44.8703 20.7154 45.769 20.0506 46.4984 19.131C46.7745 19.2926 47.0569 19.5232 47.2392 19.7887C47.3429 19.9399 47.3876 20.0672 47.3566 20.2487C47.1744 20.413 46.7817 20.5004 46.5488 20.6154C46.2584 20.76 45.9789 20.9234 45.7104 21.1056C44.9842 21.5977 44.3932 22.2407 43.6877 22.7527C43.3122 23.0252 42.8898 23.2383 42.4658 23.425C40.5056 24.2879 38.2176 24.1727 36.1261 24.3859C34.4225 24.5596 32.757 24.9347 31.06 25.1394C27.2346 25.601 25.5378 24.842 22.0578 23.5063C21.3539 23.2361 20.62 23.0507 19.9182 22.7778C17.9754 22.0223 17.1637 20.6982 16.355 18.8645C16.8122 18.2484 16.935 17.716 17.0232 16.966C18.2471 17.7055 18.2767 18.7218 19.0974 19.3276C19.3118 19.4857 19.5457 19.5742 19.7921 19.6684C19.4417 19.1801 19.1699 18.6469 18.848 18.1407C18.3201 17.3104 17.5093 16.6138 16.6619 16.1237C16.0927 15.7944 15.4304 15.616 14.8896 15.2446C14.3998 14.9082 14.1216 14.4157 14.0194 13.8368C13.9266 13.311 14.0114 12.8147 14.3226 12.3729C15.5537 10.6247 19.2367 9.76336 21.2626 9.4217Z" fill="#1C1C1C"/>
<path d="M31.5755 20.7035C33.5224 20.6072 34.5191 21.5864 36.2251 22.1638C35.8792 22.1244 35.5342 22.0851 35.1973 21.994C34.73 21.8677 34.2815 21.6727 33.815 21.5418C32.8027 21.258 31.7912 21.3209 30.7602 21.4336C28.8749 21.7138 27.5362 21.7908 25.6491 21.2706C26.6751 21.2763 27.701 21.2817 28.7195 21.1381C29.6825 21.0023 30.5976 20.7513 31.5755 20.7035Z" fill="white"/>
<path d="M47.1431 20.9206C47.6751 21.4398 48.34 21.8361 48.9841 22.2015C51.4444 23.5973 51.9952 23.9194 53.428 26.4523C55.0317 29.2873 56.3291 32.2142 57.5313 35.238C58.5169 37.7169 59.6461 40.7603 59.9841 43.3964C60.1284 44.5216 60.13 45.7093 59.8205 46.8063C59.1238 49.2758 57.5347 50.7514 55.3674 51.9549C51.415 54.1496 46.714 55.2005 42.2845 55.9015C40.4034 56.1991 38.4887 56.4679 36.5819 56.4951C34.2077 56.5289 31.7916 56.2959 29.5035 55.6412C26.6971 54.9081 23.5703 53.5765 21.4808 51.5103C19.9744 50.0206 19.1637 48.2086 18.5096 46.2275C17.7887 44.0441 17.3783 41.8516 17.3679 39.5487C17.3493 35.4149 18.3739 31.4103 20.1756 27.6975C20.7958 26.4195 21.4347 25.2236 22.4448 24.204L24.7403 24.9818C26.3051 25.5026 27.9128 25.8451 29.5675 25.8683C31.5662 25.8962 33.5257 25.2513 35.492 24.9708C37.8908 24.6284 40.3683 24.9115 42.6487 23.9506C43.7916 23.469 44.5631 22.6269 45.525 21.8933C46.0324 21.5065 46.5749 21.205 47.1431 20.9206Z" fill="#1C1C1C"/>
<path d="M43.0074 26.7271C43.0239 26.7253 43.0404 26.7228 43.0569 26.7217C43.751 26.676 44.4692 27.002 44.966 27.4709C46.2351 28.6689 46.5975 30.6988 46.639 32.3772C46.7136 35.4003 45.7851 38.8898 43.6448 41.1186C42.7263 42.0751 41.6029 42.691 40.2616 42.7141C40.2169 42.7127 40.1722 42.7103 40.1276 42.7071C40.083 42.7039 40.0385 42.6998 39.994 42.6948C39.9496 42.6898 39.9052 42.6839 39.861 42.6771C39.8168 42.6704 39.7727 42.6628 39.7288 42.6543C39.6849 42.6458 39.6411 42.6365 39.5976 42.6263C39.554 42.616 39.5107 42.605 39.4676 42.5931C39.4245 42.5811 39.3816 42.5683 39.339 42.5547C39.2964 42.5411 39.2541 42.5266 39.2121 42.5113C39.17 42.496 39.1283 42.4799 39.0869 42.463C39.0455 42.4461 39.0045 42.4283 38.9638 42.4098C38.9231 42.3912 38.8828 42.3718 38.8428 42.3516C38.8029 42.3315 38.7634 42.3105 38.7243 42.2888C38.6852 42.2671 38.6465 42.2446 38.6083 42.2214C38.5701 42.1981 38.5323 42.1741 38.4951 42.1494C38.4578 42.1246 38.4211 42.0991 38.3848 42.0729C38.3485 42.0468 38.3128 42.0199 38.2776 41.9922C37.2247 41.1812 36.7901 39.8858 36.6268 38.6132C36.2065 35.3382 37.7254 31.5028 39.7143 28.9469C40.5484 27.8748 41.6113 26.8996 43.0074 26.7271Z" fill="white"/>
<path d="M43.2968 27.5348C43.321 27.5385 43.3454 27.5419 43.3694 27.5472C44.0327 27.6932 44.5981 28.1817 44.9444 28.7515C46.0622 30.5905 45.9493 33.7629 45.4473 35.802C44.9208 37.9407 43.8578 40.283 41.9138 41.4577C41.4983 41.6704 40.8244 41.9609 40.3483 41.9104C40.2613 41.9012 40.2349 41.882 40.182 41.8154C40.1174 41.5339 40.1487 41.1959 40.1671 40.9088C40.3101 38.6771 41.6202 37.1856 42.4224 35.215C43.1113 33.5228 43.8262 30.4345 43.5988 28.6152C43.551 28.2329 43.4464 27.8887 43.2968 27.5348Z" fill="#1C1C1C"/>
<path d="M42.4406 27.5554C42.4774 27.5703 42.4811 27.5695 42.5176 27.597C42.8364 27.8361 42.9565 28.8564 42.9789 29.2301C43.1116 31.4418 42.498 34.1156 41.3851 36.0263C40.8526 36.9405 40.1799 37.8164 39.8068 38.8112C39.4524 39.7564 39.2735 40.8018 39.4215 41.8053C39.1263 41.6388 38.8878 41.4659 38.6461 41.2271C38.1675 40.6901 37.8548 40.0936 37.6614 39.4005C36.8919 36.6419 37.8788 33.1741 39.2444 30.7447C39.8726 29.6268 41.155 27.9173 42.4406 27.5554Z" fill="#1C1C1C"/>
</g>
<defs>
<clipPath id="clip0_107_4638">
<rect width="66" height="66" rx="10" fill="white"/>
</clipPath>
</defs>
</svg>
