<svg width="66" height="66" viewBox="0 0 66 66" fill="none" xmlns="http://www.w3.org/2000/svg">
<g clip-path="url(#clip0_107_4616)">
<path d="M0 0H66V66H0V0Z" fill="#1C1C1C"/>
<path d="M25.8 1.4244C26.1721 1.41994 26.6209 1.58919 26.981 1.6811L29.2856 2.28035L40.9783 5.344L44.5146 6.3032C44.9809 6.43169 45.6235 6.547 46.0501 6.75402C46.1768 6.81551 46.2347 6.94454 46.3021 7.06101L46.3417 10.374C46.7652 11.0159 47.3078 11.5957 47.786 12.199L51.4111 16.7157C51.7326 17.1179 52.6664 18.1888 52.8154 18.6135C52.9123 18.8897 52.8213 23.4829 52.8303 24.2318L53.092 39.2642C53.1511 43.9308 53.1594 48.5974 53.1172 53.2642C53.1145 54.0265 53.1846 57.9474 53.0015 58.3148C52.9163 58.4858 52.6731 58.571 52.5 58.6343C52.0089 58.814 51.4891 58.9469 50.9879 59.097L48.0864 59.9672L38.3852 62.9166C37.8344 63.0664 37.2897 63.2518 36.7437 63.4192L33.7026 64.3361C33.2815 64.4608 32.4551 64.7786 32.033 64.7702C31.8732 64.767 31.6713 64.6774 31.5227 64.6213C30.9062 64.3881 30.2993 64.1279 29.685 63.8888L20.2556 60.1683C18.6389 59.543 17.0276 58.904 15.4217 58.2514C14.7418 57.9761 14.014 57.7428 13.3625 57.4082C13.2209 57.3355 13.1016 57.2628 13.0584 57.0975C12.9388 56.6394 13.0433 54.3058 13.0458 53.666L13.0815 43.7645C13.0666 37.3538 13.0154 30.9435 12.9277 24.5334L12.8791 20.1912C12.869 19.5913 12.777 18.4974 12.8827 17.9495C12.9581 17.5584 13.6597 16.4734 13.8898 16.0741C15.0511 14.0843 16.2247 12.1018 17.4104 10.1264L18.6711 8.03348C18.8736 7.69284 19.1085 7.3448 19.2726 6.98483C19.531 6.41806 19.1533 3.80146 19.4526 3.32857C19.5376 3.19445 19.7531 3.11572 19.8989 3.06122C20.6595 2.77684 21.4935 2.59576 22.2767 2.37393L24.3506 1.80434C24.83 1.6725 25.3119 1.51979 25.8 1.4244Z" fill="white"/>
<path d="M25.5111 2.74219C25.5354 2.74444 25.5568 2.75944 25.5787 2.77013C25.6231 3.53308 25.5852 4.32026 25.5851 5.0858L22.5838 4.15999L21.5576 3.83254L25.5111 2.74219Z" fill="#1C1C1C"/>
<path d="M38.7056 5.91327C39.1448 6.01648 39.5788 6.15596 40.014 6.27589L43.6504 7.29391C43.2694 7.40477 42.8902 7.52168 42.5129 7.64466L38.7034 8.79431L38.7056 5.91327Z" fill="#1C1C1C"/>
<path d="M45.0543 8.05988L45.0804 8.06851C45.1829 8.24067 45.1435 10.06 45.1446 10.3882C44.503 10.7112 43.2678 11.0619 42.554 11.2968C41.2535 11.7248 39.9588 12.1821 38.6466 12.5722C38.5954 12.5666 38.6193 12.5765 38.5773 12.5377C38.5843 11.6692 38.5751 10.8009 38.5497 9.93269C40.7219 9.32232 42.8901 8.69805 45.0543 8.05988Z" fill="#1C1C1C"/>
<path d="M44.5111 11.3775L44.5432 11.3856C44.8234 11.6873 45.0862 12.77 45.1402 13.1801C45.2625 14.1108 45.1342 15.1432 44.5406 15.9013C44.0519 16.5253 43.2802 16.9238 42.4985 17.0182C41.6121 17.1252 40.7622 16.8143 40.071 16.2701C39.1416 15.4687 38.8074 14.5237 38.4999 13.3719C40.4834 12.6566 42.5133 12.0538 44.5111 11.3775Z" fill="#1C1C1C"/>
<path d="M26.2608 2.75482C26.6998 2.82699 27.1353 2.95017 27.5666 3.05826L29.9036 3.65538C32.6135 4.33401 35.3174 5.03554 38.0154 5.75997C38.0354 6.82054 38.035 7.8913 38.0137 8.95181C37.8638 8.98275 37.648 8.89876 37.5039 8.85539C36.0103 8.40596 34.5298 7.88214 33.044 7.40435L26.2788 5.26884C26.2437 4.4345 26.2648 3.59033 26.2608 2.75482Z" fill="#1C1C1C"/>
<path d="M20.5388 4.46307L27.9899 6.89946C31.1904 7.91606 34.3826 8.95814 37.5664 10.0257C37.5659 10.8617 37.5954 11.6941 37.6126 12.5296L27.651 9.22132C25.2877 8.4328 22.9318 7.60864 20.5606 6.84545C20.5466 6.05138 20.5394 5.25726 20.5388 4.46307Z" fill="#1C1C1C"/>
<path d="M48.3746 54.5027C48.6189 54.6604 49.1046 55.2171 49.3355 55.4444C50.0914 56.1896 50.8552 56.9267 51.6267 57.6557C49.6192 58.2455 47.6148 58.8462 45.6136 59.4575L35.3131 62.5912C34.4709 62.8515 33.618 63.1529 32.7587 63.3457C33.2727 62.6494 33.732 61.8962 34.2207 61.1805L36.4489 57.9861C37.5111 57.6606 38.5873 57.3719 39.6532 57.0573L48.3746 54.5027Z" fill="#1C1C1C"/>
<path d="M45.2904 11.1274C45.3795 11.1597 45.4255 11.2056 45.4884 11.2756C45.8162 11.6402 46.1146 12.0364 46.4222 12.4183L48.0707 14.4655L49.72 16.5175C50.2794 17.2059 50.8525 17.8886 51.369 18.6102C49.8552 19.0223 48.3498 19.4719 46.8412 19.9029L34.0267 23.5898C33.5463 23.7217 33.0644 23.8493 32.5923 24.0089C32.9943 22.9793 33.5474 21.9904 34.0655 21.0153C35.3076 18.6774 36.6766 16.4111 37.986 14.111C38.2751 15.3091 38.932 16.3369 39.9519 17.0401C40.7847 17.6145 41.8176 17.8644 42.8173 17.6724C42.8785 17.6611 42.9395 17.6482 43.0002 17.6338C43.0608 17.6194 43.121 17.6035 43.1809 17.586C43.2408 17.5686 43.3001 17.5497 43.359 17.5293C43.4179 17.5089 43.4763 17.487 43.5341 17.4637C43.5919 17.4404 43.6491 17.4157 43.7056 17.3894C43.7622 17.3632 43.8181 17.3357 43.8733 17.3067C43.9284 17.2777 43.9828 17.2473 44.0365 17.2156C44.0902 17.1839 44.143 17.1508 44.195 17.1165C44.247 17.0821 44.2981 17.0465 44.3483 17.0095C44.3985 16.9726 44.4478 16.9344 44.4961 16.895C44.5444 16.8556 44.5917 16.815 44.6379 16.7732C44.6842 16.7314 44.7294 16.6885 44.7735 16.6445C44.8176 16.6005 44.8606 16.5553 44.9024 16.5091C44.9443 16.463 44.985 16.4158 45.0245 16.3675C45.0639 16.3193 45.1022 16.2701 45.1392 16.2199C45.1762 16.1698 45.212 16.1188 45.2464 16.0668C45.996 14.945 46.0371 13.5058 45.6359 12.2484C45.545 11.9634 45.2649 11.4164 45.2219 11.2025L45.2904 11.1274Z" fill="#1C1C1C"/>
<path d="M51.6867 20.4958C51.699 20.5308 51.6624 23.9117 51.6688 24.3053C51.884 35.1935 51.9562 46.0826 51.8855 56.9728C51.3234 56.3833 50.7136 55.8304 50.1228 55.2697C49.6574 54.8264 49.2005 54.3745 48.7523 53.9138C48.647 51.0304 48.5566 48.1466 48.481 45.2623L48.1702 32.1894L48.0892 29.0166C48.0735 28.5194 47.9713 27.3231 48.068 26.9272C48.1513 26.586 49.0502 25.183 49.2715 24.7964L51.6867 20.4958Z" fill="#1C1C1C"/>
<path d="M32.143 25.0603C32.4307 25.2812 32.8925 26.0359 33.1438 26.3657C33.7124 27.1122 34.3024 27.8422 34.8764 28.5844C35.3254 29.1651 35.7578 29.7762 36.2544 30.3172C36.2798 32.3115 36.1865 34.3226 36.154 36.3181L35.9205 50.0801C35.8768 52.6076 35.784 55.1469 35.8077 57.6743C35.1885 58.5448 34.5763 59.4202 33.9712 60.3006C33.4765 61.0868 32.8859 61.8165 32.4037 62.6091L32.2667 36.4688L32.229 29.2485L32.2036 27.0067C32.197 26.3586 32.202 25.7062 32.143 25.0603Z" fill="#1C1C1C"/>
<path d="M20.351 7.55402C20.766 7.63716 21.6339 7.99449 22.1005 8.15285L26.0574 9.4742L32.575 11.6361C34.2756 12.1877 36.0151 12.6976 37.6808 13.3458C37.0678 14.2673 36.532 15.2488 35.977 16.2062C35.0063 17.8758 34.0625 19.5604 33.1458 21.2602C32.893 21.7367 32.6478 22.2171 32.4102 22.7013C32.2577 23.0181 31.9861 23.784 31.7847 24.0157L31.6931 24.0032C30.8716 23.6614 29.9864 23.4023 29.1461 23.104L22.8137 20.9051L16.7334 18.7804C15.8959 18.4913 15.0642 18.166 14.2155 17.9131C15.0963 16.2743 16.0925 14.6751 17.0393 13.0724C18.1293 11.2273 19.1942 9.35793 20.351 7.55402Z" fill="#1C1C1C"/>
<path d="M51.5295 19.2802C51.5595 19.3225 51.5019 19.3925 51.4771 19.4359L49.0809 23.6997C48.555 24.6236 47.9786 25.5407 47.4954 26.4859C47.4161 26.6409 47.3204 26.826 47.3178 27.0018C47.3113 27.4312 47.3417 27.8689 47.3544 28.2984L47.425 30.8816L47.6433 39.5627C47.7171 42.9671 47.8095 46.371 47.9207 49.7744C47.9634 51.1352 47.964 52.5061 48.0456 53.8644C44.2066 55.015 40.3611 56.1435 36.5092 57.2499C36.5179 56.1181 36.5331 54.9863 36.5546 53.8546C36.6048 52.6799 36.5937 51.495 36.6095 50.319L36.7103 44.1124L36.8868 34.83C36.9272 33.2455 36.9531 31.6608 36.9643 30.0759C36.7228 29.7681 36.4592 29.4779 36.2146 29.1725C35.444 28.2101 34.6826 27.2352 33.9303 26.2584C33.5376 25.7485 33.1189 25.2447 32.766 24.7067C33.392 24.4539 34.1091 24.3009 34.7599 24.1114L38.8838 22.922L51.5295 19.2802Z" fill="#1C1C1C"/>
<path d="M14.0599 18.5719L31.4814 24.683C31.6001 35.318 31.6643 45.9534 31.6739 56.5892L31.6855 61.8803C31.6858 62.098 31.7338 63.1462 31.682 63.2937C31.6737 63.3171 31.6542 63.3349 31.6402 63.3555L14.2487 56.4687C14.2362 53.0423 14.3154 49.6137 14.3156 46.1866C14.2913 36.9812 14.2061 27.7762 14.0599 18.5719Z" fill="#1C1C1C"/>
<path d="M22.4785 23.9861C23.2203 23.9566 23.8868 24.173 24.5133 24.5678C25.3592 25.1009 26.0768 26.0372 26.2919 27.0214C26.4187 27.6016 26.3769 28.2515 26.0426 28.7576C25.7455 29.2072 25.2909 29.4611 24.777 29.5746C23.9654 29.6686 23.2611 29.456 22.5906 28.9911C21.7555 28.412 21.0193 27.4524 20.8445 26.4342C20.743 25.8426 20.8139 25.1881 21.1795 24.6953C21.5017 24.2609 21.9595 24.0583 22.4785 23.9861Z" fill="white"/>
<path d="M22.5027 24.7215C22.9194 24.7031 23.2648 24.755 23.6494 24.9187C23.7009 24.9406 23.7519 24.9638 23.8022 24.9883C23.8526 25.0127 23.9023 25.0384 23.9514 25.0653C24.0006 25.0921 24.049 25.1202 24.0967 25.1494C24.1445 25.1787 24.1915 25.2091 24.2377 25.2406C24.284 25.2721 24.3295 25.3048 24.3742 25.3385C24.4188 25.3723 24.4626 25.4071 24.5056 25.443C24.5486 25.4789 24.5907 25.5158 24.6319 25.5537C24.673 25.5916 24.7133 25.6306 24.7525 25.6705C24.7918 25.7104 24.8301 25.7512 24.8673 25.793C24.9046 25.8348 24.9409 25.8774 24.976 25.921C25.0112 25.9645 25.0454 26.0089 25.0784 26.0541C25.1114 26.0993 25.1433 26.1452 25.1741 26.192C25.2049 26.2388 25.2346 26.2863 25.2631 26.3345C25.2915 26.3827 25.3188 26.4315 25.3449 26.4811C25.371 26.5306 25.3959 26.5807 25.4195 26.6315C25.4431 26.6822 25.4655 26.7335 25.4866 26.7854C25.6616 27.2207 25.76 27.7604 25.5593 28.2025C25.3917 28.5716 25.081 28.7608 24.7155 28.8922C24.1571 28.9472 23.7031 28.8465 23.212 28.5754C23.1644 28.5487 23.1175 28.5209 23.0712 28.4919C23.0249 28.463 22.9794 28.4329 22.9346 28.4018C22.8899 28.3706 22.8459 28.3383 22.8026 28.305C22.7594 28.2716 22.717 28.2372 22.6755 28.2018C22.634 28.1664 22.5933 28.13 22.5535 28.0926C22.5138 28.0553 22.475 28.0169 22.4371 27.9776C22.3992 27.9383 22.3623 27.8981 22.3264 27.857C22.2905 27.8159 22.2556 27.774 22.2217 27.7312C22.1878 27.6884 22.155 27.6448 22.1233 27.6004C22.0915 27.556 22.0609 27.5108 22.0314 27.4649C22.0018 27.419 21.9734 27.3724 21.9462 27.3251C21.9189 27.2779 21.8928 27.23 21.8679 27.1814C21.843 27.1329 21.8193 27.0837 21.7968 27.0339C21.7743 26.9842 21.753 26.934 21.7329 26.8832C21.7129 26.8325 21.6941 26.7813 21.6765 26.7296C21.6589 26.6779 21.6426 26.6258 21.6276 26.5734C21.5071 26.1513 21.4686 25.6404 21.701 25.25C21.8854 24.9402 22.1651 24.7988 22.5027 24.7215Z" fill="#1C1C1C"/>
</g>
<defs>
<clipPath id="clip0_107_4616">
<rect width="66" height="66" rx="10" fill="white"/>
</clipPath>
</defs>
</svg>
