<svg width="66" height="66" viewBox="0 0 66 66" fill="none" xmlns="http://www.w3.org/2000/svg">
<g clip-path="url(#clip0_107_4636)">
<path d="M0 0H66.0645V66.0645H0V0Z" fill="#1C1C1C"/>
<path d="M36.6849 2.53469C37.3598 2.47194 38.1054 2.47471 38.7469 2.71022C38.1988 3.17772 37.5806 3.50002 37.0717 4.03011C35.7902 5.36481 34.8978 7.54678 34.0921 9.20517C33.6369 10.1419 33.1406 11.067 32.5677 11.9377C30.9362 14.4164 28.6048 16.6321 25.7744 17.6512C25.2282 17.8479 24.6715 17.9696 24.1046 18.0867C24.2059 18.2581 24.2879 18.4542 24.3451 18.6447C24.5337 19.2728 24.3004 19.6749 24.0157 20.2098C25.1843 21.0468 26.5814 21.5466 27.8621 22.1827C28.5412 22.5201 29.1664 22.9622 29.8668 23.2578C30.0935 23.3553 30.3249 23.4399 30.561 23.5116C30.797 23.5833 31.0364 23.6416 31.279 23.6867C31.5661 23.1973 31.8076 22.6756 32.085 22.1794C32.4681 21.507 32.8995 20.8671 33.3792 20.2598C35.3543 17.7523 38.0411 16.0023 40.9872 14.8372C42.2679 14.3308 43.6469 13.923 45.0176 13.7612C45.1084 11.1248 45.6082 8.91956 46.8889 6.58878C47.1661 6.08446 47.4333 5.98999 47.9639 5.83605C48.8835 4.728 49.749 3.54914 50.9906 2.77615C51.1826 3.22957 51.8248 4.01698 52.1242 4.50245C50.913 5.41062 49.5367 6.16836 48.6829 7.46691L48.7932 7.82149C51.9697 7.34356 55.0104 7.63175 57.8404 9.25736C62.2265 11.7768 63.9339 15.9963 65.1916 20.655C65.2387 20.83 65.289 21.0203 65.1935 21.1867C65.1684 21.2019 65.1477 21.2273 65.1193 21.2321C65.0477 21.2444 63.9348 20.3128 63.7266 20.1783C62.5162 19.3959 61.7004 19.328 60.3212 19.1816C61.0521 19.9924 61.6789 20.9416 62.1926 21.9033C62.2619 22.0348 62.3297 22.1672 62.3957 22.3004C62.4618 22.4336 62.5263 22.5676 62.5891 22.7023C62.6519 22.8371 62.7131 22.9727 62.7726 23.1089C62.8321 23.2452 62.8898 23.3822 62.9459 23.5199C63.0021 23.6576 63.0565 23.796 63.1092 23.935C63.1619 24.074 63.2129 24.2137 63.2622 24.354C63.3115 24.4943 63.359 24.6352 63.4048 24.7767C63.4507 24.9181 63.4948 25.0601 63.5371 25.2027C63.5794 25.3452 63.62 25.4882 63.6588 25.6318C63.6976 25.7753 63.7347 25.9193 63.7699 26.0638C63.8052 26.2082 63.8387 26.353 63.8704 26.4983C63.9021 26.6436 63.9321 26.7892 63.9602 26.9352C63.9884 27.0813 64.0147 27.2276 64.0392 27.3743C64.0638 27.5209 64.0865 27.6678 64.1075 27.815C64.1284 27.9623 64.1475 28.1097 64.1648 28.2574C64.1821 28.4051 64.1976 28.553 64.2113 28.701C64.225 28.8491 64.2368 28.9973 64.2469 29.1456C64.2569 29.294 64.2651 29.4425 64.2715 29.591C64.2779 29.7396 64.2824 29.8882 64.2851 30.0368C64.2879 30.1855 64.2888 30.3342 64.2879 30.4829C64.287 30.6316 64.2842 30.7803 64.2797 30.9289C64.2751 31.0775 64.2687 31.2261 64.2604 31.3745C64.2522 31.523 64.2422 31.6713 64.2303 31.8196C64.2184 31.9678 64.2048 32.1158 64.1893 32.2637C64.1738 32.4116 64.1564 32.5593 64.1373 32.7067C64.1181 32.8542 64.0972 33.0014 64.0744 33.1483C64.0517 33.2953 64.0271 33.4419 64.0008 33.5883C63.9744 33.7346 63.9463 33.8806 63.9163 34.0263C63.8864 34.1719 63.8547 34.3171 63.8212 34.462C63.7876 34.6069 63.7524 34.7513 63.7153 34.8954C63.6782 35.0394 63.6394 35.1829 63.5988 35.3259C63.5582 35.4689 63.5159 35.6115 63.4718 35.7535C62.1438 40.1305 59.1177 44.1168 55.0621 46.279C55.0973 46.5865 55.109 46.8948 55.1137 47.2041C55.1147 47.3376 55.1141 47.4712 55.1118 47.6047C55.1095 47.7382 55.1056 47.8717 55.1001 48.0051C55.0945 48.1386 55.0873 48.2719 55.0784 48.4052C55.0696 48.5384 55.0592 48.6716 55.0471 48.8046C55.035 48.9376 55.0213 49.0704 55.006 49.203C54.9907 49.3357 54.9737 49.4682 54.9552 49.6005C54.9366 49.7327 54.9164 49.8647 54.8946 49.9965C54.8727 50.1282 54.8493 50.2597 54.8243 50.3908C54.7993 50.522 54.7726 50.6529 54.7444 50.7834C54.7162 50.914 54.6863 51.0441 54.6549 51.1739C54.6235 51.3037 54.5905 51.4331 54.5559 51.5621C54.5213 51.6911 54.4851 51.8197 54.4473 51.9478C54.4096 52.0759 54.3703 52.2035 54.3295 52.3307C54.2886 52.4578 54.2462 52.5844 54.2022 52.7105C54.1582 52.8366 54.1127 52.9622 54.0657 53.0872C54.0187 53.2122 53.9701 53.3365 53.92 53.4603C53.8699 53.5841 53.8183 53.7073 53.7652 53.8298C53.7121 53.9524 53.6575 54.0742 53.6014 54.1954C53.5453 54.3166 53.4878 54.4371 53.4287 54.5569C53.3697 54.6767 53.3092 54.7957 53.2472 54.9141C53.1853 55.0324 53.1219 55.1499 53.057 55.2667C52.9922 55.3834 52.9259 55.4994 52.8582 55.6145C52.7906 55.7296 52.7215 55.8439 52.651 55.9574C52.5806 56.0708 52.5087 56.1833 52.4355 56.295C52.3622 56.4067 52.2876 56.5175 52.2117 56.6274C52.1358 56.7372 52.0585 56.8461 51.9799 56.9541C51.9013 57.062 51.8214 57.169 51.7401 57.275C51.6589 57.381 51.5764 57.486 51.4926 57.59C51.4088 57.694 51.3237 57.7969 51.2374 57.8988C51.1511 58.0007 51.0635 58.1016 50.9747 58.2013C50.8859 58.301 50.7959 58.3997 50.7047 58.4972C50.6135 58.5948 50.5211 58.6913 50.4275 58.7865C50.2787 58.9383 50.127 59.0871 49.9724 59.233C49.8179 59.379 49.6606 59.5219 49.5006 59.6618C49.3407 59.8018 49.1781 59.9386 49.0129 60.0723C48.8477 60.2061 48.68 60.3367 48.5098 60.464C48.3396 60.5914 48.1671 60.7154 47.9922 60.8362C47.8173 60.957 47.6401 61.0744 47.4607 61.1884C47.2813 61.3024 47.0999 61.413 46.9162 61.5201C46.7326 61.6272 46.5471 61.7307 46.3595 61.8308C42.3557 63.9956 37.3134 64.4834 32.9532 63.1814C32.095 62.9252 31.2242 62.6316 30.4086 62.2598C30.2376 62.1813 30.068 62.1 29.8998 62.0158C29.7316 61.9316 29.5648 61.8446 29.3995 61.7548C29.2342 61.665 29.0705 61.5724 28.9084 61.4771C28.7462 61.3818 28.5857 61.2838 28.4268 61.183C28.2679 61.0823 28.1108 60.9789 27.9554 60.8729C27.8001 60.7669 27.6465 60.6584 27.4948 60.5472C27.343 60.436 27.1932 60.3223 27.0453 60.206C26.8974 60.0898 26.7515 59.9711 26.6075 59.85C26.4637 59.7288 26.3218 59.6053 26.1821 59.4794C26.0423 59.3535 25.9047 59.2253 25.7693 59.0947C25.6339 58.9642 25.5007 58.8314 25.3697 58.6963C25.2388 58.5613 25.1101 58.4241 24.9837 58.2847C24.8574 58.1454 24.7335 58.0039 24.6119 57.8604C24.4903 57.7169 24.3711 57.5713 24.2544 57.4237C24.1378 57.2762 24.0236 57.1268 23.912 56.9754C23.8003 56.824 23.6913 56.6707 23.5848 56.5157C23.1971 55.942 22.8726 55.3329 22.5441 54.7244C22.3513 54.7626 22.158 54.7976 21.964 54.8293C21.77 54.861 21.5756 54.8894 21.3806 54.9145C21.1857 54.9396 20.9904 54.9615 20.7947 54.98C20.599 54.9985 20.4031 55.0137 20.2069 55.0256C20.0107 55.0374 19.8144 55.046 19.6179 55.0512C19.4215 55.0564 19.2249 55.0583 19.0284 55.0569C18.8319 55.0555 18.6354 55.0507 18.439 55.0426C18.2426 55.0345 18.0464 55.0231 17.8504 55.0084C17.6544 54.9937 17.4587 54.9757 17.2633 54.9543C17.068 54.933 16.873 54.9083 16.6784 54.8804C16.4839 54.8524 16.2899 54.8212 16.0964 54.7867C15.9029 54.7522 15.7101 54.7144 15.5179 54.6733C15.3256 54.6323 15.1342 54.588 14.9435 54.5405C14.7528 54.4929 14.5629 54.4422 14.3739 54.3882C14.1849 54.3343 13.9969 54.2771 13.8098 54.2168C13.6227 54.1565 13.4368 54.093 13.2519 54.0264C8.92883 52.474 5.36921 49.4652 3.39943 45.2815C3.34268 45.1593 3.28745 45.0364 3.23374 44.9129C3.18002 44.7893 3.12784 44.6651 3.07718 44.5403C3.02653 44.4155 2.97742 44.29 2.92986 44.164C2.8823 44.0379 2.8363 43.9113 2.79186 43.7841C2.74742 43.657 2.70456 43.5293 2.66327 43.401C2.62197 43.2728 2.58227 43.1441 2.54415 43.0148C2.50603 42.8856 2.46951 42.756 2.43459 42.6258C2.39967 42.4957 2.36636 42.3652 2.33465 42.2343C2.30295 42.1033 2.27287 41.972 2.2444 41.8403C2.21593 41.7086 2.1891 41.5766 2.16389 41.4443C2.13867 41.312 2.1151 41.1793 2.09315 41.0464C2.07121 40.9135 2.05091 40.7803 2.03225 40.6469C2.01359 40.5135 1.99658 40.3799 1.98122 40.246C1.96585 40.1122 1.95214 39.9781 1.94008 39.8439C1.92802 39.7098 1.91762 39.5754 1.90887 39.441C1.90011 39.3066 1.89302 39.1721 1.88759 39.0374C1.88216 38.9028 1.87838 38.7682 1.87627 38.6335C1.87416 38.4988 1.8737 38.3641 1.87491 38.2294C1.87612 38.0947 1.87899 37.96 1.88351 37.8253C1.88804 37.6907 1.89423 37.5561 1.90207 37.4216C1.90992 37.2871 1.91942 37.1527 1.93058 37.0185C1.94174 36.8842 1.95455 36.7501 1.96902 36.6162C1.98348 36.4822 1.99959 36.3485 2.01735 36.2149C2.03511 36.0814 2.05452 35.9481 2.07556 35.815C2.09661 35.682 2.1193 35.5492 2.14362 35.4167C2.16794 35.2841 2.19389 35.1519 2.22147 35.0201C2.24905 34.8882 2.27825 34.7567 2.30907 34.6256C2.3399 34.4944 2.37233 34.3637 2.40638 34.2333C2.44042 34.103 2.47607 33.9731 2.51332 33.8436C2.55057 33.7141 2.5894 33.5851 2.62983 33.4567C2.67026 33.3281 2.71227 33.2001 2.75585 33.0727C2.79943 32.9452 2.84458 32.8182 2.89129 32.6919C4.29607 28.8138 7.26167 25.0217 11.0522 23.2481C9.66812 23.4021 8.38734 23.162 7.11315 22.6094C5.66309 21.9804 4.81846 21.3164 3.1133 21.4779C2.56528 21.5298 2.014 21.6665 1.49753 21.8552C1.29229 21.9303 1.09125 22.0574 0.88008 22.1087C0.776867 22.1338 0.721222 22.1185 0.632421 22.0649C0.622372 22.0383 0.614757 22.024 0.615191 21.9928C0.619453 21.6869 1.09319 21.1827 1.27433 20.9524C2.38853 19.5363 3.55503 18.1794 4.98836 17.0752C7.54212 15.1076 10.74 14.0876 13.958 14.5059C16.4594 14.8311 18.5844 16.0728 20.1202 18.0653C20.5488 18.2359 20.9893 18.3818 21.4241 18.5363C21.0311 17.6425 20.6308 16.7521 20.223 15.865C20.0178 15.4273 19.7357 14.9844 19.5816 14.5285C19.5235 14.3567 19.4905 14.1695 19.5369 13.9907C19.6188 13.6748 19.9235 13.4907 20.1815 13.3274C20.3617 13.2134 20.7462 12.9141 20.963 12.9789C21.0248 12.9974 21.0362 13.059 21.0611 13.1143C21.176 13.3705 21.2441 13.6588 21.3313 13.9265C21.5371 14.5576 21.8615 15.5216 22.2107 16.072C22.2156 16.0797 22.2207 16.0872 22.2257 16.0948C22.2103 13.9701 22.421 12.0324 23.3277 10.0835C23.4149 9.89162 23.5084 9.70283 23.6081 9.51711C23.7078 9.33139 23.8135 9.14917 23.9253 8.97046C24.037 8.79175 24.1545 8.61691 24.2779 8.44594C24.4011 8.27498 24.5299 8.10827 24.6642 7.94582C27.0274 5.13762 30.8663 3.46141 34.4102 2.80747C35.1624 2.66867 35.9234 2.59929 36.6849 2.53469Z" fill="white"/>
<path d="M29.722 25.2181C30.0214 25.2443 30.3315 25.3198 30.6293 25.3687L30.5242 25.8042L30.4971 25.8481C30.2893 25.815 29.8908 25.3721 29.722 25.2181Z" fill="#1C1C1C"/>
<path d="M50.9068 3.57004C51.063 3.76702 51.4679 4.21182 51.4458 4.46282L51.3447 4.53668C51.269 4.57653 51.1919 4.60985 51.1133 4.6432C51.039 4.61188 51.0125 4.57155 50.9748 4.50246C50.8279 4.23263 50.8167 3.85432 50.9068 3.57004Z" fill="#1C1C1C"/>
<path d="M35.7049 26.415C35.9094 26.5883 36.0655 26.8989 36.1934 27.1305C35.9296 27.358 35.7907 27.4025 35.4472 27.3821C35.2576 27.2247 35.0745 27.0637 34.8954 26.8945C35.1555 26.7234 35.4372 26.5749 35.7049 26.415Z" fill="#1C1C1C"/>
<path d="M18.73 22.481C19.2726 22.4715 19.8269 22.5252 20.3629 22.6091C20.2648 22.8958 20.1623 23.1809 20.0556 23.4645L19.9332 23.7963L19.4713 23.7623C19.3226 23.2484 19.0951 22.8721 18.73 22.481Z" fill="#1C1C1C"/>
<path d="M50.3179 4.09219C50.3764 4.15101 50.5151 4.75926 50.5643 4.89578C50.3177 5.07545 50.059 5.23444 49.8159 5.42064C49.3622 5.76801 48.9605 6.16418 48.5711 6.58038C48.4929 6.60709 48.5292 6.60986 48.462 6.58283C48.4468 6.54128 48.4322 6.49952 48.4183 6.45754C48.5439 5.84287 49.8289 4.59444 50.3179 4.09219Z" fill="#1C1C1C"/>
<path d="M47.864 6.66684C47.9296 6.672 47.9378 6.67413 47.9906 6.71316C48.2263 7.14826 48.2877 7.96819 48.2261 8.45419C48.2064 8.60981 48.1486 8.81149 48.0074 8.90161C47.8965 8.97239 47.7655 8.93619 47.6471 8.91032C47.5429 8.8251 47.4478 8.7289 47.3768 8.61394C47.1752 8.28755 47.1451 7.90258 47.2372 7.53523C47.333 7.15355 47.5233 6.86407 47.864 6.66684Z" fill="#1C1C1C"/>
<path d="M45.1225 14.6587L45.1692 14.6612C45.2741 14.8126 45.3768 15.6204 45.4272 15.8572C45.2039 15.8895 44.9903 15.9305 44.7723 15.9883C44.362 15.6771 43.8799 15.5539 43.395 15.4073C43.1118 15.3264 42.8141 15.2897 42.5237 15.2425C43.3519 14.9418 44.2474 14.7587 45.1225 14.6587Z" fill="#1C1C1C"/>
<path d="M20.6429 13.7187C20.7477 13.8469 21.0235 14.844 21.1058 15.0645C21.5097 16.1463 22.0011 17.1826 22.4462 18.2461C22.382 18.3653 22.2763 18.6265 22.1535 18.6746L22.1102 18.5966C21.7268 17.5617 21.2581 16.5616 20.792 15.5623C20.5635 15.0724 20.3106 14.5826 20.1169 14.0782C20.2868 13.951 20.4662 13.8361 20.6429 13.7187Z" fill="#1C1C1C"/>
<path d="M16.9357 22.4975C17.4411 22.4315 17.9964 22.4718 18.5058 22.4786C18.832 22.8339 19.1611 23.296 19.3769 23.7256C18.9616 23.6996 18.5675 23.7757 18.1594 23.8423L17.9747 23.7119C17.1225 23.1477 16.2983 22.8888 15.3021 22.7205C15.843 22.6 16.3843 22.5412 16.9357 22.4975Z" fill="#1C1C1C"/>
<path d="M36.3325 33.0765C36.7898 33.0639 37.1472 33.3905 37.5936 33.3959C37.9466 33.4002 38.1976 33.1163 38.5345 33.1008C38.7421 33.0912 38.983 33.2095 39.1271 33.3549C39.1803 33.4087 39.1954 33.4376 39.1935 33.5146C39.0239 33.7087 38.7676 33.8563 38.5568 34.0047C38.5059 34.0319 38.4543 34.0578 38.4006 34.0791C37.794 34.3207 36.9721 34.2959 36.3746 34.038C36.1079 33.9228 35.7426 33.7381 35.6301 33.4575C35.6355 33.377 35.6314 33.3467 35.6841 33.2817C35.8239 33.1094 36.129 33.1001 36.3325 33.0765Z" fill="#1C1C1C"/>
<path d="M18.9118 24.1677C19.0629 24.1586 19.2618 24.1625 19.4088 24.1973C19.7374 24.275 19.5528 24.506 19.6681 24.6805C19.8839 24.6776 20.1165 24.5015 20.2919 24.3861C20.5345 24.4641 21.082 24.6737 21.1945 24.9163C21.2283 24.9894 21.2399 25.0509 21.2065 25.1272C21.1357 25.2885 20.8796 25.3734 20.7279 25.4378C20.0792 25.622 19.3462 25.4927 18.7248 25.2611C18.5053 25.1794 18.1451 25.0257 18.0641 24.7865C18.0369 24.7063 18.0395 24.6354 18.0859 24.5624C18.2321 24.3329 18.6614 24.2248 18.9118 24.1677Z" fill="#1C1C1C"/>
<path d="M47.4961 16.2259C47.6329 16.2135 47.754 16.2681 47.8777 16.3201C47.9265 16.3892 47.9467 16.4066 47.9372 16.4953C47.9015 16.8294 46.9072 17.5355 46.621 17.7748C46.1174 17.5667 45.6649 17.4105 45.1215 17.3544L44.6528 17.353C44.582 17.2516 44.4726 17.1114 44.4437 16.9912C44.4166 16.8784 44.4302 16.7614 44.4888 16.6602C44.6795 16.331 45.3277 16.2465 45.6626 16.3194C45.8724 16.365 46.0563 16.4762 46.2786 16.4768C46.6942 16.4781 47.1031 16.347 47.4961 16.2259Z" fill="#1C1C1C"/>
<path d="M36.4307 27.5756C37.0735 28.6327 37.6274 30.5635 37.7501 31.794C37.7817 32.1111 37.8885 32.689 37.6785 32.9447C37.602 32.9867 37.554 33.0081 37.4653 32.9899C37.386 32.9738 37.3112 32.9316 37.2663 32.8645C37.2399 31.8415 36.7598 30.1845 36.3747 29.2448C36.1935 28.8027 35.9723 28.3791 35.7408 27.9617C36.0266 27.8727 36.2127 27.7831 36.4307 27.5756Z" fill="#1C1C1C"/>
<path d="M48.6722 14.2765C49.4875 14.2204 50.3852 14.2352 51.1925 14.3621C51.3311 14.4784 51.4471 14.6035 51.5665 14.7387C50.2753 14.9198 49.1502 15.2808 48.0304 15.9601C47.9515 15.9212 47.8861 15.8883 47.8218 15.8264C47.813 15.7278 47.8438 15.6911 47.8871 15.6037C48.2035 15.1246 48.6235 14.8921 49.098 14.594C48.3531 14.7519 47.8983 15.1843 47.4299 15.7578L46.9256 15.9448C46.9524 15.4378 46.9343 14.9317 46.9743 14.4242C47.5316 14.3347 48.1087 14.306 48.6722 14.2765Z" fill="#1C1C1C"/>
<path d="M46.7472 8.49948C46.869 8.60684 46.9822 8.91684 47.0779 9.06993C46.9348 9.57664 46.7514 10.0707 46.6231 10.5821C46.1707 12.3854 46.2079 14.2259 46.8564 15.9768C46.7478 16.0094 46.6343 16.0312 46.5238 16.0572C46.3937 16.0741 46.163 16.1273 46.0404 16.0792C45.968 16.0509 45.9463 16.0208 45.9154 15.9515C45.7859 15.6612 45.7838 15.1781 45.7594 14.8569C45.593 12.6627 45.9687 10.545 46.7472 8.49948Z" fill="#1C1C1C"/>
<path d="M51.5322 14.8798C51.5345 14.8793 51.5367 14.8785 51.5391 14.8785C51.6287 14.8756 51.6549 14.8716 51.7289 14.9247C52.0057 15.123 52.264 15.3968 52.5193 15.6246C52.9193 15.9847 53.3331 16.3283 53.7605 16.6554C52.7573 16.3907 51.7522 16.2678 50.7173 16.2334C49.9237 16.2345 49.1229 16.2791 48.3503 16.4712C48.2789 16.4312 48.2947 16.4379 48.2699 16.3676C48.28 16.3209 48.2917 16.2804 48.3177 16.2396C48.7573 15.548 50.7419 15.0269 51.5322 14.8798Z" fill="#1C1C1C"/>
<path d="M23.2872 18.3129C23.3574 18.3202 23.425 18.3253 23.4888 18.3578C23.7575 18.4946 23.831 18.7998 23.9165 19.0641C23.5662 19.8442 22.9707 20.6059 22.509 21.3349C22.0092 22.1241 21.5585 22.9651 21.0088 23.7199C20.9238 23.8366 20.8497 23.9337 20.7204 24.0035C20.6584 23.9866 20.6036 23.9638 20.5452 23.9371C20.489 23.7139 21.7911 21.0181 21.9701 20.5839C22.1642 20.113 22.2904 19.6163 22.5243 19.1625C22.5583 19.2173 22.5928 19.2723 22.6314 19.3241C22.7143 19.4353 22.8222 19.5839 22.9656 19.6066C23.1004 19.4737 23.0386 19.05 23.0514 18.857C23.0662 18.6332 23.1166 18.463 23.2872 18.3129Z" fill="#1C1C1C"/>
<path d="M23.6066 20.7615C24.7697 21.5954 26.0762 22.1082 27.3537 22.7321C28.0153 23.0552 28.63 23.4672 29.294 23.7841C29.8253 24.0378 30.3869 24.1955 30.9431 24.3815L30.8355 24.7453C30.5522 24.7501 30.28 24.7154 30.0009 24.6695C29.7486 24.6412 29.4745 24.5324 29.2211 24.5462C29.1451 24.5504 29.1373 24.5453 29.0851 24.6041L29.1192 24.7406C28.9937 24.777 28.4632 24.3684 28.3183 24.2725C27.1705 23.5131 25.9128 22.8448 24.6008 22.4167C24.0373 22.2329 23.4617 22.0984 22.8882 21.9509C23.1021 21.5416 23.359 21.1508 23.6066 20.7615Z" fill="#1C1C1C"/>
<path d="M48.2141 9.39362L48.2492 9.38556C48.3609 9.49382 48.6759 10.4614 48.7894 10.7054C49.2421 11.6783 49.8145 12.5476 50.4307 13.423C49.9895 13.4155 49.5483 13.4115 49.1071 13.411C48.3892 13.429 47.6722 13.4648 46.9561 13.5185C46.9653 12.1164 47.2144 10.7938 47.5814 9.4453C47.8305 9.48743 47.9756 9.4784 48.2141 9.39362Z" fill="#1C1C1C"/>
<path d="M19.8153 19.0895C20.4308 19.191 21.0864 19.5233 21.6576 19.7647C21.392 20.4272 21.0504 21.0789 20.7302 21.7166C19.2755 21.6073 17.8766 21.5915 16.4242 21.7546C15.806 21.8097 15.1809 21.9233 14.5784 22.0705C14.8875 21.8844 15.2216 21.7314 15.5441 21.5695C16.5215 21.0788 17.538 20.6315 18.481 20.078C18.9611 19.7962 19.3609 19.4074 19.8153 19.0895Z" fill="#1C1C1C"/>
<path d="M35.8879 3.20617L36.1318 3.18695L36.0758 3.24862L36.1366 3.2128L36.0924 3.21028C35.9741 3.30032 35.277 3.50802 35.0635 3.59909C34.316 3.91777 33.5924 4.29914 32.8847 4.69705C32.0315 5.17012 31.2141 5.6985 30.4325 6.28218C30.0464 6.56794 29.6403 6.98252 29.2306 7.20652L29.1973 7.18865C29.1242 6.76336 29.71 5.80224 29.9159 5.41294C29.2938 6.00701 29.0735 6.7122 28.8851 7.52774C27.9319 8.314 27.1011 9.27213 26.2801 10.1922C26.3958 9.14697 26.6493 8.25297 27.0633 7.29065C26.4861 7.98581 26.1634 8.94374 26.007 9.82265C25.9593 10.0912 25.9734 10.3939 25.8635 10.6461C25.6224 11.199 24.9239 12.0026 24.5518 12.5404C24.5338 11.8178 24.6533 11.0985 24.8214 10.3983C24.8817 10.1443 24.9724 9.89187 25.0492 9.642C24.5429 10.3881 24.3404 11.4459 24.2658 12.3312C24.2441 12.5894 24.2837 12.9033 24.2037 13.147C24.0995 13.464 23.8783 13.7513 23.7267 14.0485C23.3963 14.6966 23.0875 15.4159 22.8831 16.1139C22.6399 13.5112 23.3907 10.5108 25.0615 8.48291C27.3071 5.75714 30.8071 4.17139 34.2088 3.48266C34.7644 3.37017 35.3233 3.26145 35.8879 3.20617Z" fill="#1C1C1C"/>
<path d="M50.8857 8.27167C51.3619 8.23019 51.8604 8.25645 52.3375 8.29219C54.2332 8.43451 55.9958 8.98283 57.6555 9.90516C60.5462 11.5115 62.3096 14.4181 63.5306 17.3877C63.7859 18.0086 64.0726 18.6377 64.2576 19.2828C63.3456 17.6055 61.8362 16.1538 60.3599 14.9701C61.3059 15.0403 61.9975 15.4524 62.7933 15.9308C62.7086 15.8478 62.621 15.7681 62.5304 15.6917C61.8419 15.1213 61.0624 14.7017 60.1472 14.7832C59.4157 14.1623 58.6389 13.5982 57.8936 12.9949L58.4764 13.1242C59.4475 13.3083 60.3538 13.61 61.3025 13.877C60.5022 13.4215 59.5521 13.1635 58.6495 12.9939C58.3684 12.941 58.0437 12.9408 57.7769 12.8419C57.3882 12.6979 56.9948 12.3504 56.6465 12.1171C56.2635 11.8605 55.8709 11.6168 55.4815 11.3701C55.9441 11.3566 56.4075 11.2646 56.8699 11.2308C57.5149 11.1836 58.1272 11.2643 58.7602 11.3723L58.7407 11.3389C57.6547 10.9663 56.5378 10.9495 55.4455 11.3281C54.905 10.9677 54.3039 10.6912 53.7512 10.3466C54.9682 10.1559 55.9784 10.1505 57.1884 10.4147C56.8521 10.2492 56.4962 10.1195 56.1268 10.0517C55.4144 9.92116 54.325 9.91122 53.7022 10.3377C53.053 9.99735 52.3989 9.65883 51.7318 9.35496C52.0419 9.31135 52.3533 9.28146 52.6661 9.26528C52.9788 9.24916 53.2917 9.24679 53.6046 9.25819C53.9874 9.27167 54.3843 9.3378 54.7657 9.30341C53.6821 9.09619 52.49 8.88819 51.4006 9.18064C50.7584 8.96858 50.1248 8.68232 49.4911 8.4398C49.9398 8.32277 50.4238 8.30012 50.8857 8.27167Z" fill="#1C1C1C"/>
<path d="M12.2505 14.982C12.6719 14.9549 13.1077 14.9686 13.5274 15.0092C13.5973 15.0156 13.6673 15.0228 13.7371 15.0309C13.8069 15.0389 13.8766 15.0478 13.9462 15.0576C14.0158 15.0674 14.0853 15.0781 14.1546 15.0896C14.2239 15.101 14.2931 15.1134 14.3621 15.1267C14.4312 15.1399 14.5 15.1539 14.5687 15.1689C14.6373 15.1837 14.7058 15.1995 14.7741 15.2161C14.8424 15.2327 14.9105 15.2501 14.9783 15.2685C15.0462 15.2867 15.1138 15.3059 15.1812 15.3258C15.2486 15.3458 15.3157 15.3666 15.3826 15.3881C15.4495 15.4098 15.5161 15.4322 15.5824 15.4555C15.6487 15.4788 15.7147 15.5028 15.7805 15.5277C15.8462 15.5526 15.9116 15.5783 15.9767 15.6048C16.0418 15.6313 16.1065 15.6586 16.171 15.6867C16.2354 15.7149 16.2994 15.7438 16.3631 15.7734C16.4268 15.8031 16.4901 15.8336 16.5531 15.8649C16.616 15.8961 16.6786 15.9281 16.7407 15.9609C16.8029 15.9937 16.8647 16.0273 16.9259 16.0616C16.9873 16.096 17.0482 16.131 17.1087 16.1669C17.1691 16.2027 17.2291 16.2393 17.2887 16.2766C17.3482 16.3139 17.4073 16.3519 17.4659 16.3907C17.5246 16.4295 17.5827 16.469 17.6403 16.5092C17.698 16.5494 17.7551 16.5903 17.8117 16.6319C17.8684 16.6735 17.9245 16.7158 17.9801 16.7589C18.0356 16.8019 18.0907 16.8455 18.1452 16.8899C18.1997 16.9343 18.2537 16.9793 18.307 17.025C18.3605 17.0707 18.4133 17.1171 18.4656 17.1641C18.5178 17.211 18.5694 17.2587 18.6205 17.307C18.6716 17.3552 18.722 17.4041 18.7719 17.4537C18.8218 17.5032 18.871 17.5533 18.9196 17.6041C18.9683 17.6548 19.0163 17.7062 19.0636 17.7581C19.111 17.81 19.1577 17.8625 19.2037 17.9156C19.2498 17.9687 19.2952 18.0223 19.3399 18.0765C18.6641 17.9074 17.9808 17.7825 17.295 17.6622C16.5116 16.9194 15.7752 16.0873 14.8237 15.5553C15.5085 16.2481 16.2112 16.9176 16.8837 17.6237C16.1459 17.4987 15.3778 17.4036 14.6293 17.3847C14.1862 16.8924 12.7436 15.5092 12.2108 15.2707C12.2234 15.3087 14.0761 17.1104 14.3156 17.382C13.4386 17.3513 12.5836 17.3524 11.7085 17.4232C10.8476 16.8834 9.93091 16.2747 8.97285 15.9209C9.37917 16.203 9.80659 16.4557 10.2283 16.7141C10.5964 16.9516 10.9614 17.1936 11.3234 17.4402C11.0074 17.5115 10.6743 17.5387 10.3536 17.5868C9.9173 17.6523 9.48414 17.735 9.04704 17.7954C8.24588 17.3901 7.33672 17.1378 6.47472 16.9007C7.22607 17.2565 8.01743 17.5113 8.75749 17.8981C8.37168 17.9928 7.98725 18.0928 7.6042 18.1981C7.27194 18.2923 6.92581 18.4206 6.58207 18.4611C6.28459 18.4962 5.97136 18.4494 5.67212 18.4423C5.18883 18.4307 4.72772 18.4948 4.257 18.5989C4.86095 18.6538 5.45782 18.5885 6.06308 18.684C5.3694 19.047 4.61754 19.3087 3.91816 19.6709C3.13746 20.0753 2.44651 20.5954 1.72003 21.0852L1.75633 21.0447C4.67712 17.8301 7.67923 15.1648 12.2505 14.982Z" fill="#1C1C1C"/>
<path d="M12.8591 17.7878C13.4393 17.755 14.0169 17.7803 14.5969 17.8048C14.0322 18.4579 13.7351 19.3218 13.3183 20.0704C12.9996 20.6428 12.5885 21.1457 12.1734 21.6491C12.928 21.1745 13.5326 20.1901 13.9152 19.4072C14.1836 18.8579 14.409 18.2891 14.8222 17.8277C15.5071 17.8565 16.1938 17.9597 16.8728 18.0519C16.1855 19.0738 15.636 19.8615 14.7912 20.7672C15.8438 19.9819 16.4272 19.2068 17.1426 18.1293C17.6139 18.1954 18.0809 18.2895 18.5483 18.3788C18.2244 18.877 17.8811 19.2775 17.4255 19.6614L17.4505 19.6726C17.9743 19.3281 18.381 18.9203 18.8061 18.465C19.0032 18.4928 19.2003 18.5469 19.3943 18.5916C19.2368 18.7521 19.0623 18.8968 18.8878 19.0385C18.0843 19.6907 17.1159 20.062 16.1985 20.5201C14.0119 21.6122 12.0111 22.9162 9.44737 22.6563C9.26475 22.6259 9.08322 22.5899 8.90279 22.5483C8.7224 22.5067 8.54346 22.4595 8.36595 22.4068C8.18849 22.3542 8.01281 22.296 7.83892 22.2324C7.66502 22.1688 7.49328 22.0999 7.32369 22.0257C6.2569 21.5692 5.40203 21.0168 4.19606 20.937C3.52367 20.8925 2.86807 20.9899 2.20587 21.091C3.51148 20.2775 5.02476 19.6946 6.46259 19.1566C6.19719 19.8272 5.83748 20.4594 5.58385 21.1326C6.03512 20.4851 6.3666 19.7846 6.69563 19.071C7.38111 18.823 8.07176 18.6372 8.77718 18.4567C8.60066 19.2605 8.26582 20.0872 7.8813 20.8128C7.81466 20.9386 7.63363 21.1577 7.61621 21.2879L7.64498 21.2625L7.6204 21.2704L7.63201 21.2456L7.67208 21.2481C7.70576 21.1297 8.11943 20.5636 8.22195 20.3624C8.5386 19.7405 8.76311 19.0694 8.96105 18.4017C9.79647 18.1541 10.6383 18.0263 11.4989 17.9056C11.2319 18.5945 11.1147 19.3035 10.9025 20.0054C10.6718 20.7685 10.2989 21.477 9.8935 22.1594C10.1961 21.8752 10.4213 21.5446 10.6216 21.1828C10.8358 20.796 11.0254 20.3926 11.1564 19.9697C11.3731 19.27 11.4923 18.556 11.7929 17.8817C12.1437 17.8215 12.5043 17.8108 12.8591 17.7878Z" fill="#1C1C1C"/>
<path d="M48.8654 8.83438C49.4704 9.00496 50.089 9.2669 50.6686 9.51109C50.6672 9.52393 50.6656 9.53677 50.6644 9.54961C50.563 10.5916 50.9414 11.6981 51.6054 12.4981C51.126 11.5643 50.9431 10.691 50.9387 9.64161C51.6647 9.95148 52.3748 10.2733 53.0788 10.6306C53.0255 10.8569 52.9905 11.0861 52.9737 11.3181C52.851 12.8646 53.4408 14.5183 54.4481 15.6877C53.6272 14.1366 53.0377 12.5697 53.3232 10.7827C54.2846 11.2979 55.2916 11.8101 56.1574 12.4779C55.8597 13.9128 56.1023 15.3337 56.9102 16.5672C56.4037 15.3034 56.0911 13.9933 56.3738 12.6333C57.1081 13.0973 57.8127 13.6026 58.4876 14.1493C58.4384 15.4855 58.7404 16.7069 59.5543 17.7899L59.8235 18.0933C59.1473 16.9026 58.7801 15.7133 58.7054 14.3468C59.2331 14.7471 59.7553 15.1546 60.2719 15.5692C60.2795 16.6257 60.5388 17.4922 61.2187 18.3126C60.8261 17.4694 60.5995 16.7114 60.5063 15.7867C61.793 16.9625 63.1316 18.1383 64.0108 19.6698C62.8961 18.9737 62.1124 18.6613 60.7908 18.564C60.2775 18.5261 59.7591 18.5036 59.2508 18.4183C57.9663 18.2024 56.6403 17.6628 55.5199 16.9991C52.6795 15.3165 49.7009 12.0935 48.8654 8.83438Z" fill="#1C1C1C"/>
<path d="M36.9565 3.35706L36.995 3.36322C36.9669 3.43629 36.6195 3.63194 36.5356 3.70211C36.4376 3.78421 36.3515 3.88145 36.2653 3.97567C35.8374 4.44385 35.5096 5.00484 35.1821 5.54511C34.1543 7.24078 33.4437 9.11988 32.442 10.8308C31.9609 11.6527 31.207 12.6576 30.5843 13.3876C28.988 15.2588 26.8529 16.8119 24.425 17.3558C23.9416 17.464 23.4639 17.5107 22.9715 17.5499C23.2218 16.6985 23.5025 15.8714 23.8314 15.0466C25.6429 15.3751 27.6005 15.194 29.2043 14.2315C27.4019 14.8634 25.8183 15.0587 23.9183 14.8617C24.2254 14.1158 24.6059 13.3661 25.0767 12.7103C26.4388 13.0643 27.7847 13.0467 29.1558 12.7663C30.0863 12.5462 31.0819 12.265 31.7658 11.5621C31.3825 11.7132 31.0409 11.9563 30.6521 12.0983C28.8872 12.7429 27.0358 12.7823 25.1994 12.4942C25.6852 11.6603 26.5623 10.5306 27.2447 9.82846C27.6071 9.86588 27.9638 9.9413 28.3282 9.9684C29.7665 10.0755 32.3025 9.73988 33.4131 8.78769C32.9227 8.96808 32.4301 9.16375 31.9274 9.30666C30.4744 9.71962 28.8797 9.81795 27.3809 9.68175C28.5169 8.36833 29.9073 7.0913 31.3932 6.18402C32.3616 6.33224 33.737 6.38919 34.6492 5.98464C33.6823 6.05193 32.7778 6.05625 31.8118 5.93011C33.0564 4.97632 35.4573 3.87109 36.9565 3.35706Z" fill="#1C1C1C"/>
<path d="M41.8491 15.4601C42.7678 15.4322 43.8186 15.6419 44.6563 16.013C44.569 16.0592 44.4816 16.1058 44.3981 16.1588C44.1427 16.3206 44.0477 16.4728 43.9802 16.7633C43.6043 16.7067 43.2249 16.6475 42.8454 16.6233C40.4446 16.4709 37.8572 17.3608 36.0611 18.951C36.7568 18.7332 37.5378 18.2005 38.2491 17.9009C39.747 17.2699 41.4838 16.8797 43.1109 17.0386C43.3942 17.0663 43.7706 17.1037 44.029 17.2319C44.105 17.2695 44.1426 17.3142 44.1709 17.3914C43.9322 17.5264 43.5756 17.5708 43.3091 17.6546C42.8802 17.7911 42.4586 17.9474 42.0443 18.1236C39.5353 19.1871 37.2142 20.9058 35.5445 23.0666C35.3274 23.3475 34.5625 24.3238 34.6239 24.6242C34.6341 24.6741 34.654 24.6732 34.6929 24.6982C34.7238 24.6953 34.7576 24.7027 34.7858 24.6894C34.9129 24.6292 35.2186 24.0997 35.3235 23.9478C36.0265 22.9297 36.9152 22.0318 37.8563 21.233C39.4151 19.91 41.1683 18.8059 43.1062 18.1308C43.5492 17.9765 44.0042 17.8215 44.4733 17.7762C44.716 17.7529 45.0181 17.8407 45.2665 17.8611C43.9356 19.4342 42.8097 22.1701 42.2181 24.1334C41.8302 25.4208 41.6095 26.7207 41.5014 28.0592C41.4859 28.2511 41.4196 28.627 41.5078 28.7907L41.5598 28.8029C41.7262 28.6078 41.7758 27.7707 41.8276 27.4786C41.9687 26.6824 42.1611 25.8919 42.366 25.1099C43.0396 22.5387 44.1072 20.0261 45.752 17.9217C46.0684 18.0218 46.3313 18.1421 46.5965 18.3442C46.942 18.6075 47.2229 18.9525 47.4951 19.2883C49.044 21.2 50.1025 23.5955 50.875 25.9152C51.013 26.3295 51.4816 28.1135 51.6322 28.3207L51.7143 28.3296C51.7688 28.2578 51.7754 28.2126 51.7767 28.1223C51.7829 27.6814 51.5816 27.0052 51.4691 26.5646C50.7426 23.7188 49.082 20.0712 46.9475 18.0049C47.1718 17.8175 47.4063 17.6413 47.637 17.4619C49.5161 17.5778 51.9639 18.5597 53.6158 19.4354C54.456 19.8841 55.2744 20.3696 56.0709 20.8921C56.3191 21.0555 56.8325 21.5097 57.1071 21.5334C57.1668 21.5386 57.1638 21.5263 57.2076 21.4923L57.2098 21.3974C57.0112 20.9504 55.3767 19.9763 54.9018 19.6941C54.6436 19.5355 54.3818 19.3832 54.1163 19.237C53.851 19.0908 53.5823 18.951 53.3102 18.8175C53.0382 18.684 52.7632 18.557 52.4852 18.4364C52.2072 18.3159 51.9265 18.202 51.6432 18.0947C51.3598 17.9874 51.0741 17.8869 50.786 17.793C50.4979 17.6992 50.2077 17.6122 49.9155 17.5321C49.6233 17.452 49.3293 17.3788 49.0336 17.3125C48.738 17.2462 48.4409 17.187 48.1425 17.1347L48.2994 16.8612C49.8815 16.4724 51.5556 16.5239 53.1503 16.8062C53.524 16.8724 53.9172 16.9276 54.269 17.0753C54.701 17.2567 55.0972 17.5888 55.5104 17.817C55.6539 17.895 55.799 17.97 55.9455 18.0421C56.092 18.1143 56.24 18.1835 56.3893 18.2497C56.5386 18.316 56.6892 18.3792 56.841 18.4394C56.9928 18.4996 57.1458 18.5568 57.3 18.6109C57.4541 18.665 57.6092 18.7159 57.7653 18.7639C57.9215 18.8118 58.0785 18.8565 58.2365 18.8982C58.3944 18.9398 58.5531 18.9783 58.7126 19.0135C58.8721 19.0488 59.0322 19.0809 59.193 19.1098C59.4167 19.3533 59.6321 19.604 59.8393 19.8617C60.0464 20.1195 60.2449 20.3838 60.4345 20.6546C60.6242 20.9255 60.8048 21.2024 60.9762 21.4852C61.1476 21.7679 61.3094 22.056 61.4618 22.3495C61.5275 22.4755 61.5915 22.6023 61.654 22.7299C61.7165 22.8574 61.7774 22.9858 61.8368 23.1148C61.8962 23.2439 61.9539 23.3737 62.0101 23.5041C62.0663 23.6346 62.1208 23.7658 62.1738 23.8976C62.2268 24.0294 62.2781 24.1619 62.3278 24.295C62.3776 24.428 62.4256 24.5617 62.472 24.6959C62.5185 24.8302 62.5633 24.965 62.6064 25.1003C62.6495 25.2357 62.691 25.3715 62.7308 25.5079C62.7706 25.6443 62.8088 25.7811 62.8452 25.9184C62.8816 26.0557 62.9164 26.1935 62.9494 26.3316C62.9825 26.4698 63.0139 26.6083 63.0436 26.7472C63.0732 26.8861 63.1012 27.0254 63.1274 27.165C63.1537 27.3046 63.1783 27.4445 63.2011 27.5848C63.2239 27.725 63.245 27.8655 63.2644 28.0062C63.2838 28.1469 63.3015 28.2879 63.3174 28.429C63.3333 28.5702 63.3475 28.7115 63.36 28.853C63.3724 28.9945 63.3832 29.1362 63.3922 29.2779C63.4011 29.4197 63.4084 29.5616 63.4139 29.7035C63.4194 29.8455 63.4232 29.9875 63.4253 30.1295C63.4273 30.2716 63.4276 30.4136 63.4261 30.5557C63.4247 30.6977 63.4215 30.8398 63.4165 30.9817C63.4116 31.1237 63.4049 31.2656 63.3965 31.4074C63.3881 31.5492 63.378 31.6909 63.3661 31.8324C63.3542 31.974 63.3406 32.1154 63.3253 32.2566C63.3099 32.3978 63.2928 32.5389 63.274 32.6797C63.2552 32.8205 63.2346 32.961 63.2124 33.1013C63.1901 33.2416 63.1662 33.3816 63.1405 33.5213C63.1148 33.6611 63.0874 33.8005 63.0583 33.9395C63.0292 34.0785 62.9984 34.2172 62.9659 34.3555C62.9334 34.4938 62.8992 34.6317 62.8633 34.7692C62.8274 34.9066 62.7899 35.0436 62.7506 35.1801C62.7114 35.3166 62.6705 35.4527 62.6279 35.5882C61.4312 39.3328 58.5352 43.5044 54.9822 45.3405C54.8417 44.4121 54.6851 43.4947 54.4251 42.5911C53.6485 39.8932 52.0487 37.2116 50.0573 35.2312C46.6165 31.8095 42.9188 30.4984 38.1098 30.5174C37.742 28.992 37.1129 26.9508 36.0149 25.8121C35.6139 25.8826 34.6012 26.4082 34.3462 26.717C34.2938 26.8824 34.3736 27.0516 34.4552 27.1944C34.6028 27.4524 34.8547 27.645 35.0205 27.8916C35.36 28.3968 36.1186 29.9293 36.2573 30.5264L36.2678 30.5729C35.5418 30.6303 34.8341 30.7712 34.1166 30.8882C33.5758 29.8357 33.01 28.839 32.2794 27.9041C31.9201 27.4443 31.5143 27.0223 31.1467 26.569C31.4804 25.4573 31.8866 24.3918 32.4234 23.3615C34.0509 20.2376 36.8054 17.5278 40.0333 16.0842C40.6026 15.8295 41.2527 15.6481 41.8491 15.4601Z" fill="#1C1C1C"/>
<path d="M54.1243 40.2383C54.2187 40.2675 54.2627 40.2935 54.3168 40.3734C54.3197 40.4797 54.2875 40.5235 54.2294 40.6061C54.1301 40.5738 54.0906 40.5561 54.0363 40.4689C54.0342 40.3708 54.0741 40.3175 54.1243 40.2383Z" fill="white"/>
<path d="M61.3441 30.4724C61.394 30.4759 61.4699 30.4731 61.5151 30.4928C61.5999 30.5297 61.6117 30.5625 61.6465 30.6407C61.64 30.7488 61.6102 30.7944 61.5486 30.8777C61.5062 30.8777 61.4421 30.8831 61.4026 30.8693C61.3174 30.8396 61.304 30.8026 61.2651 30.7289C61.2658 30.6171 61.2852 30.5668 61.3441 30.4724Z" fill="white"/>
<path d="M55.3089 43.4632C55.3601 43.4665 55.4183 43.4674 55.4677 43.4815C55.5502 43.5052 55.5818 43.5538 55.6254 43.622C55.6407 43.734 55.6143 43.7881 55.5643 43.8876C55.5021 43.9021 55.4505 43.8988 55.3871 43.8943C55.3378 43.8641 55.3056 43.8567 55.28 43.8017C55.2234 43.6799 55.2631 43.5794 55.3089 43.4632Z" fill="white"/>
<path d="M56.8214 38.2493C56.9037 38.2455 56.9976 38.2358 57.067 38.2903C57.1313 38.3409 57.1662 38.3975 57.1651 38.4809C57.164 38.5797 57.1011 38.6396 57.0387 38.7055C56.9636 38.7057 56.8808 38.7084 56.8163 38.6617C56.7559 38.6181 56.7227 38.5612 56.7196 38.4866C56.7156 38.3925 56.7694 38.321 56.8214 38.2493Z" fill="white"/>
<path d="M57.731 36.6403C57.8062 36.6463 57.8941 36.6497 57.9543 36.7025C58.0138 36.7548 58.0432 36.8205 58.0358 36.8999C58.0256 37.0083 57.9536 37.0787 57.8805 37.1504C57.7951 37.1449 57.7041 37.1438 57.6384 37.0785C57.5778 37.0181 57.5652 36.9553 57.5706 36.8728C57.5773 36.7712 57.6587 36.6999 57.731 36.6403Z" fill="white"/>
<path d="M60.9183 34.1263C61.019 34.1325 61.1196 34.1352 61.1952 34.212C61.2524 34.2701 61.2737 34.3359 61.262 34.4166C61.2482 34.5119 61.1763 34.569 61.1096 34.6283C61.0232 34.6203 60.9299 34.6161 60.8604 34.5561C60.8008 34.5046 60.764 34.4394 60.7719 34.3588C60.7819 34.2575 60.8501 34.1927 60.9183 34.1263Z" fill="white"/>
<path d="M59.3372 31.4763C59.4379 31.4771 59.5375 31.4765 59.6203 31.5435C59.6838 31.5948 59.7152 31.6568 59.7134 31.7388C59.7113 31.836 59.6487 31.9003 59.5891 31.9679C59.508 31.9701 59.4153 31.9792 59.3401 31.9435C59.2822 31.9161 59.225 31.8522 59.2149 31.7881C59.1942 31.6575 59.2594 31.571 59.3372 31.4763Z" fill="white"/>
<path d="M58.2066 39.9965C58.32 39.9945 58.4395 39.9936 58.5259 40.0801C58.5788 40.1332 58.6043 40.1957 58.5966 40.2706C58.5857 40.3766 58.5164 40.439 58.443 40.5074C58.3729 40.5069 58.2995 40.5103 58.2358 40.4758C58.1633 40.4366 58.1091 40.3865 58.0941 40.3016C58.0725 40.1787 58.1346 40.0873 58.2066 39.9965Z" fill="white"/>
<path d="M60.4712 36.059C60.5835 36.0696 60.6647 36.0728 60.7465 36.1588C60.8023 36.2174 60.8245 36.2899 60.8147 36.3699C60.8007 36.4844 60.7418 36.5388 60.6596 36.6118C60.5625 36.5937 60.4816 36.5795 60.4037 36.514C60.346 36.4655 60.3136 36.3849 60.3196 36.3104C60.3281 36.2037 60.4006 36.131 60.4712 36.059Z" fill="white"/>
<path d="M56.8251 41.7303C56.9105 41.7403 56.997 41.7543 57.0657 41.8101C57.1256 41.8586 57.1656 41.9266 57.1632 42.0054C57.159 42.1461 57.0655 42.2135 56.9635 42.2908C56.8844 42.2809 56.7899 42.2679 56.7251 42.2173C56.7181 42.2117 56.7115 42.2058 56.7051 42.1994C56.6989 42.1931 56.693 42.1863 56.6875 42.1793C56.682 42.1722 56.6769 42.1648 56.6723 42.1572C56.6677 42.1495 56.6636 42.1415 56.6599 42.1334C56.6562 42.1252 56.653 42.1169 56.6504 42.1083C56.6477 42.0998 56.6456 42.0911 56.6439 42.0823C56.6423 42.0735 56.6412 42.0646 56.6406 42.0557C56.6401 42.0467 56.6401 42.0378 56.6406 42.0288C56.6487 41.9029 56.7373 41.8101 56.8251 41.7303Z" fill="white"/>
<path d="M61.3189 31.9933C61.4232 32.0075 61.522 32.0286 61.5947 32.1121C61.6506 32.1763 61.669 32.2519 61.6525 32.3351C61.6239 32.4785 61.5339 32.5375 61.4194 32.6107C61.4077 32.6081 61.3959 32.6061 61.3843 32.603C61.2868 32.5766 61.1863 32.5248 61.1397 32.4298C61.1011 32.3511 61.087 32.2781 61.1177 32.1938C61.1564 32.0875 61.225 32.0466 61.3189 31.9933Z" fill="white"/>
<path d="M52.3171 31.541C52.4169 31.5328 52.517 31.5338 52.6044 31.5905C52.6719 31.6342 52.716 31.699 52.7226 31.7802C52.7333 31.9121 52.6615 31.9989 52.5803 32.0907C52.4762 32.1003 52.3589 32.1129 52.2692 32.0466C52.201 31.9962 52.1569 31.9406 52.1532 31.8525C52.1474 31.7121 52.2245 31.6319 52.3171 31.541Z" fill="white"/>
<path d="M59.8656 37.8003C59.9859 37.8121 60.0863 37.8286 60.1713 37.9261C60.2291 37.9922 60.2545 38.0691 60.2476 38.1559C60.2359 38.305 60.1574 38.3811 60.0471 38.4715C60.0364 38.4714 60.0256 38.4716 60.0149 38.4712C59.8868 38.4657 59.7959 38.4504 59.7111 38.346C59.6471 38.2672 59.6194 38.1688 59.64 38.0679C59.6689 37.9264 59.7502 37.8694 59.8656 37.8003Z" fill="white"/>
<path d="M43.7027 25.8332C43.7384 25.8317 43.7741 25.8319 43.8098 25.8339C43.915 25.8389 44.0099 25.8668 44.0767 25.9554C44.1352 26.0329 44.1503 26.0941 44.1404 26.1904C44.1263 26.3279 44.0396 26.4021 43.9402 26.4842C43.7981 26.4869 43.7119 26.4903 43.6025 26.385C43.5372 26.3222 43.5145 26.2365 43.5156 26.1483C43.5174 26.0065 43.6028 25.9203 43.7027 25.8332Z" fill="white"/>
<path d="M56.5356 40.4788C56.6802 40.469 56.8195 40.4564 56.9326 40.5673C56.996 40.6296 57.0144 40.6975 57.0135 40.7841C57.0121 40.9285 56.9204 41.0308 56.8266 41.1288C56.7 41.1381 56.6015 41.1359 56.4997 41.0462C56.4312 40.9858 56.3946 40.9063 56.3897 40.8158C56.3821 40.6726 56.4448 40.582 56.5356 40.4788Z" fill="white"/>
<path d="M52.9073 35.4796C52.9394 35.4765 52.9522 35.4744 52.9872 35.4752C53.0941 35.4776 53.207 35.5068 53.2751 35.5963C53.3342 35.674 53.3503 35.7408 53.3401 35.8375C53.3254 35.9776 53.2376 36.0487 53.1339 36.1284C53.1081 36.1282 53.0823 36.1284 53.0566 36.1277C52.9444 36.1246 52.8342 36.1006 52.7601 36.0078C52.7003 35.9328 52.6828 35.8721 52.6917 35.7768C52.7052 35.631 52.7993 35.5608 52.9073 35.4796Z" fill="white"/>
<path d="M53.3867 38.9266C53.51 38.9474 53.6421 38.978 53.7167 39.0897C53.7697 39.1691 53.7898 39.2493 53.7741 39.3429C53.749 39.4924 53.6631 39.5601 53.55 39.648C53.4176 39.6292 53.3132 39.6051 53.2278 39.4941C53.1629 39.4095 53.1356 39.3132 53.1566 39.2073C53.1846 39.0653 53.2709 39.001 53.3867 38.9266Z" fill="white"/>
<path d="M55.0646 42.1572C55.1088 42.1576 55.1661 42.1544 55.2104 42.1637C55.2231 42.1664 55.2356 42.1698 55.2479 42.1738C55.2603 42.1779 55.2724 42.1826 55.2842 42.188C55.296 42.1933 55.3075 42.1993 55.3186 42.2059C55.3298 42.2126 55.3406 42.2198 55.351 42.2275C55.3614 42.2353 55.3713 42.2437 55.3808 42.2525C55.3903 42.2613 55.3993 42.2707 55.4078 42.2805C55.4163 42.2904 55.4242 42.3006 55.4316 42.3113C55.439 42.322 55.4457 42.333 55.4519 42.3444C55.4951 42.4235 55.502 42.5115 55.475 42.5966C55.4328 42.7294 55.3451 42.7802 55.2287 42.8392C55.1908 42.8385 55.1671 42.839 55.1279 42.8335C55.026 42.8193 54.9408 42.7846 54.8766 42.6994C54.8141 42.6164 54.8024 42.5386 54.8222 42.4385C54.8499 42.2987 54.9521 42.2288 55.0646 42.1572Z" fill="white"/>
<path d="M48.1538 30.0587C48.1633 30.0594 48.1728 30.0599 48.1822 30.0607C48.3292 30.073 48.4461 30.1119 48.5408 30.2312C48.5487 30.241 48.5559 30.2513 48.5627 30.2619C48.5695 30.2725 48.5756 30.2834 48.5812 30.2947C48.5867 30.306 48.5916 30.3175 48.5959 30.3294C48.6002 30.3412 48.6038 30.3532 48.6068 30.3654C48.6098 30.3776 48.6121 30.39 48.6137 30.4025C48.6154 30.4149 48.6164 30.4275 48.6166 30.44C48.6169 30.4526 48.6166 30.4651 48.6155 30.4777C48.6144 30.4902 48.6127 30.5026 48.6103 30.515C48.5807 30.666 48.4806 30.7365 48.361 30.8172C48.3327 30.8158 48.3043 30.8148 48.2763 30.8112C48.1555 30.7956 48.0437 30.7328 47.9744 30.6314C47.9133 30.5419 47.898 30.448 47.9196 30.3414C47.9467 30.2084 48.0462 30.1279 48.1538 30.0587Z" fill="white"/>
<path d="M58.8715 33.9335C58.9145 33.9315 58.9576 33.9295 59.0007 33.931C59.1104 33.9347 59.2157 33.982 59.2811 34.073C59.3418 34.1575 59.3525 34.259 59.3285 34.3574C59.2874 34.5251 59.1971 34.5935 59.0564 34.6827C59.0189 34.6827 58.9892 34.684 58.9512 34.6774C58.8498 34.6596 58.7523 34.6008 58.6914 34.5173C58.631 34.4346 58.6154 34.334 58.6347 34.235C58.6642 34.0839 58.7489 34.0157 58.8715 33.9335Z" fill="white"/>
<path d="M38.0622 26.8053C38.1126 26.8055 38.1597 26.8092 38.2097 26.8176C38.3097 26.8345 38.3941 26.8982 38.449 26.982C38.5179 27.0874 38.5301 27.2105 38.5018 27.3317C38.4606 27.5085 38.3753 27.5807 38.2245 27.6714C38.1858 27.6712 38.1486 27.6687 38.1105 27.6612C37.9864 27.6372 37.8852 27.5768 37.8179 27.4675C37.7542 27.3641 37.7439 27.2393 37.7777 27.1238C37.8251 26.9616 37.9202 26.8857 38.0622 26.8053Z" fill="white"/>
<path d="M22.3765 22.8005C23.2734 22.8083 24.4434 23.1608 25.2843 23.4876C26.1035 23.8059 26.8797 24.2579 27.6134 24.7388C28.2279 25.1415 28.8365 25.5603 29.3965 26.0372C30.9716 27.3788 32.4143 29.2021 33.2462 31.1035C32.4492 31.3272 31.6683 31.5975 30.9035 31.9142C26.9711 33.5615 23.6758 36.7302 22.0581 40.6915C22.0048 40.8219 21.9531 40.9528 21.9031 41.0844C21.8531 41.2161 21.8047 41.3483 21.7579 41.4811C21.7112 41.6139 21.6661 41.7473 21.6227 41.8812C21.5792 42.0152 21.5375 42.1497 21.4974 42.2846C21.4573 42.4196 21.4189 42.555 21.3821 42.691C21.3454 42.8269 21.3104 42.9633 21.277 43.1001C21.2437 43.2369 21.212 43.3741 21.1821 43.5117C21.1521 43.6493 21.1239 43.7872 21.0974 43.9255C21.0709 44.0638 21.0461 44.2023 21.023 44.3412C21 44.4801 20.9786 44.6193 20.959 44.7588C20.9394 44.8982 20.9215 45.0378 20.9054 45.1777C20.8892 45.3176 20.8748 45.4576 20.8621 45.5979C20.8495 45.7381 20.8385 45.8785 20.8294 46.019C20.8202 46.1595 20.8127 46.3001 20.807 46.4408C20.8014 46.5815 20.7974 46.7222 20.7952 46.863C20.793 47.0038 20.7926 47.1446 20.7939 47.2853C20.7952 47.4262 20.7982 47.5669 20.803 47.7077C20.8078 47.8484 20.8144 47.989 20.8227 48.1296C20.831 48.2702 20.841 48.4106 20.8528 48.5509C20.8646 48.6912 20.8781 48.8313 20.8933 48.9713C20.9086 49.1113 20.9256 49.2511 20.9443 49.3906C20.963 49.5302 20.9835 49.6695 21.0057 49.8085C21.0279 49.9476 21.0518 50.0863 21.0774 50.2248C21.1031 50.3632 21.1304 50.5013 21.1595 50.6391C21.1886 50.7769 21.2193 50.9142 21.2518 51.0513C21.2843 51.1883 21.3185 51.3249 21.3543 51.461C21.3902 51.5972 21.4278 51.7329 21.467 51.8681C21.5063 52.0033 21.5472 52.1381 21.5898 52.2722C21.6323 52.4065 21.6766 52.5401 21.7225 52.6732C21.7684 52.8063 21.8159 52.9389 21.8651 53.0708C21.9143 53.2027 21.9652 53.334 22.0176 53.4647C22.0701 53.5954 22.1241 53.7254 22.1798 53.8547C21.9185 53.9158 21.6552 53.9666 21.39 54.0072C17.2483 54.6632 12.551 53.3503 9.18634 50.901C9.0838 50.8268 8.98217 50.7514 8.88144 50.6748C8.7807 50.5981 8.68092 50.5203 8.58208 50.4412C8.48329 50.3621 8.38544 50.2819 8.28853 50.2004C8.19167 50.119 8.09582 50.0364 8.00098 49.9526C7.9061 49.8688 7.81227 49.7838 7.7195 49.6977C7.62673 49.6117 7.53501 49.5245 7.44434 49.4362C7.35367 49.3479 7.26408 49.2585 7.17557 49.168C7.08709 49.0775 6.99974 48.9859 6.9135 48.8933C6.82722 48.8007 6.7421 48.707 6.65815 48.6124C6.57415 48.5177 6.49133 48.422 6.4097 48.3253C6.32806 48.2285 6.2476 48.1309 6.16834 48.0322C6.08907 47.9335 6.01102 47.8339 5.93418 47.7333C5.85735 47.6328 5.78174 47.5313 5.70738 47.4289C5.63301 47.3265 5.55991 47.2232 5.48806 47.119C5.41621 47.0148 5.34564 46.9097 5.27635 46.8038C5.20706 46.6979 5.13907 46.5912 5.07238 46.4836C5.00569 46.376 4.94032 46.2677 4.87627 46.1585C4.81222 46.0493 4.74951 45.9394 4.68814 45.8288C4.62677 45.7181 4.56675 45.6066 4.50809 45.4945C4.44944 45.3823 4.39215 45.2695 4.33624 45.1559C4.28033 45.0424 4.22581 44.9282 4.17269 44.8133C4.11956 44.6985 4.06784 44.583 4.01753 44.4668C3.96721 44.3507 3.91832 44.234 3.87086 44.1166C3.82338 43.9993 3.77735 43.8814 3.73275 43.763C3.68815 43.6445 3.645 43.5255 3.6033 43.4061C3.5616 43.2866 3.52137 43.1666 3.48259 43.0461C3.44381 42.9256 3.40651 42.8047 3.37067 42.6833C3.33484 42.5619 3.30049 42.4401 3.26763 42.3179C3.23477 42.1957 3.2034 42.0731 3.17352 41.9501C3.14364 41.8271 3.11526 41.7038 3.08839 41.5801C3.06152 41.4564 3.03615 41.3324 3.0123 41.2081C2.98845 41.0838 2.96611 40.9593 2.94529 40.8344C2.27111 36.5339 3.42936 32.1957 5.98656 28.6893C6.08164 28.5587 6.17862 28.4294 6.27748 28.3016C6.37635 28.1738 6.47706 28.0474 6.57963 27.9225C6.68221 27.7976 6.7866 27.6743 6.89279 27.5525C6.99898 27.4307 7.10692 27.3104 7.2166 27.1918C7.32632 27.0731 7.43776 26.9561 7.55092 26.8407C7.66404 26.7253 7.77883 26.6116 7.89531 26.4996C8.01178 26.3876 8.12987 26.2773 8.24956 26.1687C8.36926 26.0601 8.49053 25.9534 8.61337 25.8484C8.73621 25.7433 8.86058 25.6401 8.98647 25.5388C9.11232 25.4374 9.23963 25.3379 9.3684 25.2403C9.49718 25.1427 9.62735 25.047 9.75892 24.9532C9.89053 24.8593 10.0235 24.7675 10.1577 24.6775C10.292 24.5876 10.4275 24.4997 10.5644 24.4137C10.7013 24.3278 10.8394 24.2439 10.9787 24.162C11.118 24.0801 11.2585 24.0002 11.4001 23.9224C11.5418 23.8447 11.6845 23.769 11.8284 23.6954C12.3641 23.4233 12.9149 23.1384 13.5147 23.0479C15.1465 22.8013 16.5496 23.0575 17.8825 24.0432C17.673 24.2568 17.5812 24.4324 17.5218 24.7222C16.7792 24.4145 16.0569 24.1546 15.2523 24.0606C15.0824 24.0409 14.9121 24.0264 14.7414 24.0172C14.5707 24.0079 14.3999 24.0039 14.2289 24.0053C14.058 24.0066 13.8872 24.0132 13.7166 24.0251C13.5461 24.037 13.376 24.0541 13.2065 24.0764C13.037 24.0989 12.8684 24.1264 12.7005 24.1592C12.5327 24.192 12.3661 24.23 12.2007 24.2731C12.0352 24.3162 11.8712 24.3643 11.7088 24.4175C11.5463 24.4708 11.3856 24.529 11.2267 24.5921C10.9694 24.6933 10.6418 24.8186 10.4327 25.0062C10.3721 25.0606 10.3689 25.0977 10.367 25.1753L10.4217 25.2088C10.7396 25.1822 11.5247 24.815 11.9034 24.6984C13.925 24.0761 15.948 24.2561 17.8161 25.2457C16.7408 25.3214 15.7596 25.6455 14.7507 25.9997C12.4526 26.875 10.3547 28.0711 8.49518 29.6866C8.21311 29.9317 7.7726 30.2467 7.60479 30.5852C7.56815 30.6592 7.55234 30.7013 7.57866 30.782C7.5875 30.7843 7.59608 30.7879 7.60511 30.789C7.70756 30.8001 7.83698 30.7069 7.9164 30.6502C8.21563 30.4368 8.48363 30.153 8.76827 29.9174C9.34849 29.4344 9.95243 28.9832 10.5801 28.5637C12.1521 27.5159 16.2978 25.3017 18.218 25.7015C18.3367 25.7262 18.4847 25.747 18.5563 25.8549L18.5281 25.911L18.4975 25.9106L18.4604 25.9532L18.5097 25.9593L18.4584 26.0179L18.4869 25.9744C16.8022 28.2597 15.7927 30.0272 14.8216 32.717C14.5623 33.4349 14.2882 34.1828 14.1416 34.9337C14.1112 35.0893 14.0879 35.2365 14.1806 35.372L14.2524 35.3802C14.3554 35.3328 14.3986 35.2327 14.441 35.1329C14.5481 34.8812 14.602 34.6019 14.6785 34.3393C14.794 33.9486 14.9207 33.5615 15.0585 33.1781C15.8061 31.1024 16.752 29.2108 18.0034 27.3925C18.3669 26.8644 18.7334 26.3432 19.149 25.8542L19.791 25.981C21.5398 28.0148 22.6761 30.893 23.2227 33.4919C23.3142 33.927 23.5831 35.8578 23.7227 36.0633C23.764 36.1241 23.7734 36.1257 23.8415 36.137C23.8812 36.0879 23.8907 36.0841 23.9043 36.0176C23.9812 35.6386 23.8418 35.0948 23.7921 34.7073C23.3985 31.6382 22.152 28.545 20.4105 25.9967C20.7292 25.9392 21.0324 25.8256 21.336 25.7159C24.3358 26.5332 26.8709 28.1208 29.0179 30.3501C29.2057 30.5452 29.8544 31.4246 30.0807 31.4408C30.1369 31.4448 30.1538 31.4158 30.1959 31.3841C30.2074 31.3109 30.1907 31.2628 30.1593 31.1979C29.915 30.6932 29.3455 30.1354 28.9496 29.7326C27.5527 28.3118 25.8123 27.0447 23.981 26.2474C23.1718 25.8951 22.3411 25.6341 21.5027 25.3643C21.9752 25.276 22.4747 25.2482 22.954 25.2146C25.2168 25.0556 26.8814 25.4441 28.8085 26.6771C29.0284 26.8179 29.3989 27.107 29.6752 27.0466L29.7048 26.9901C29.6758 26.8697 29.6122 26.7905 29.524 26.7064C29.2246 26.421 28.8024 26.2115 28.4443 26.0034C26.0912 24.6359 24.3519 24.8213 21.7703 24.9112C21.7169 24.8264 21.6994 24.7538 21.6793 24.6578C22.4061 24.3024 23.2878 24.1168 24.0525 23.7563C23.1692 23.8817 22.3915 24.2046 21.5427 24.4377C21.4756 24.3928 21.4487 24.3566 21.4085 24.287C21.4927 24.0595 22.1979 23.0831 22.3765 22.8005Z" fill="#1C1C1C"/>
<path d="M9.84374 47.1034C9.852 47.1062 9.86051 47.1086 9.86858 47.1119C9.95864 47.1495 9.99522 47.1876 10.0325 47.2729C10.0232 47.3741 9.9818 47.4132 9.91626 47.4837C9.83916 47.4472 9.78451 47.4242 9.73419 47.3514C9.74193 47.2394 9.78361 47.1964 9.84374 47.1034Z" fill="white"/>
<path d="M19.9347 46.5419C20.0306 46.5861 20.0581 46.6179 20.1016 46.7099C20.0912 46.8194 20.0523 46.8605 19.9822 46.938C19.8916 46.8756 19.8488 46.8468 19.8053 46.7441C19.8247 46.6437 19.8634 46.6083 19.9347 46.5419Z" fill="white"/>
<path d="M6.5328 43.6677C6.54402 43.6691 6.55538 43.6698 6.56654 43.6717C6.6746 43.6897 6.71531 43.7166 6.77357 43.8036C6.77751 43.9141 6.74589 43.9734 6.69409 44.0695C6.66086 44.0617 6.62751 44.0551 6.59564 44.0422C6.52131 44.012 6.49222 43.9755 6.45751 43.9062C6.45305 43.7948 6.47615 43.7584 6.5328 43.6677Z" fill="white"/>
<path d="M21.379 52.7557C21.4157 52.7622 21.4617 52.7673 21.4965 52.7831C21.5718 52.8172 21.5979 52.8643 21.6312 52.9355C21.6282 53.0483 21.5959 53.0897 21.5286 53.173C21.5123 53.1687 21.4958 53.165 21.4797 53.1601C21.3709 53.1269 21.3286 53.094 21.2759 52.9983C21.2796 52.8876 21.3159 52.8403 21.379 52.7557Z" fill="white"/>
<path d="M8.69601 49.2177C8.77343 49.226 8.86472 49.2323 8.92911 49.2815C9.00382 49.3385 9.01001 49.3781 9.02485 49.4635C8.99782 49.5682 8.95976 49.6114 8.88305 49.6861C8.81195 49.6803 8.72647 49.6743 8.66589 49.6317C8.60589 49.5895 8.56389 49.5301 8.56427 49.4549C8.56479 49.355 8.63305 49.2855 8.69601 49.2177Z" fill="white"/>
<path d="M18.71 52.9281C18.8048 52.9317 18.8902 52.9317 18.9615 53.0072C19.0142 53.0632 19.028 53.1157 19.0285 53.1897C19.0294 53.3147 18.956 53.3851 18.874 53.4662C18.7853 53.4529 18.7002 53.4398 18.6309 53.3763C18.5742 53.3245 18.5492 53.257 18.5546 53.1806C18.5621 53.0736 18.6398 52.9999 18.71 52.9281Z" fill="white"/>
<path d="M10.6897 50.4085C10.7626 50.4399 10.8434 50.4774 10.8929 50.5417C10.9398 50.6026 10.9631 50.6893 10.9454 50.7649C10.9137 50.9012 10.8139 50.9515 10.6997 51.0088C10.5945 50.9614 10.5158 50.9269 10.47 50.8123C10.4384 50.733 10.4425 50.6577 10.478 50.5809C10.5241 50.4812 10.5962 50.4506 10.6897 50.4085Z" fill="white"/>
<path d="M5.79375 45.6356C5.89507 45.6456 6.00451 45.6561 6.08566 45.7249C6.14851 45.7782 6.189 45.8468 6.18689 45.9317C6.1844 46.0315 6.12147 46.1089 6.06059 46.1811C5.96643 46.1955 5.8695 46.2025 5.78435 46.1508C5.71658 46.1099 5.67291 46.0447 5.66387 45.9655C5.64854 45.8313 5.71359 45.7347 5.79375 45.6356Z" fill="white"/>
<path d="M10.1176 48.928C10.218 48.9251 10.316 48.9241 10.3997 48.9887C10.4652 49.0393 10.5061 49.113 10.5044 49.1968C10.5018 49.3301 10.4264 49.4111 10.3327 49.4944C10.2612 49.4842 10.1817 49.4749 10.1192 49.4357C10.0491 49.3919 9.99598 49.34 9.98353 49.2544C9.9645 49.1233 10.0434 49.0248 10.1176 48.928Z" fill="white"/>
<path d="M12.0183 48.7023C12.1209 48.7088 12.2151 48.7103 12.3035 48.7703C12.3599 48.8086 12.4006 48.8645 12.4109 48.9316C12.4322 49.0703 12.3662 49.1482 12.2864 49.2504C12.1897 49.2665 12.1043 49.2791 12.0193 49.2223C11.9413 49.1703 11.9106 49.1132 11.8993 49.0195C11.8839 48.891 11.9409 48.7976 12.0183 48.7023Z" fill="white"/>
<path d="M12.2162 51.0963C12.3051 51.1124 12.3983 51.1333 12.463 51.2017C12.5161 51.2579 12.5405 51.3315 12.5284 51.4083C12.5072 51.5439 12.4191 51.6109 12.3167 51.6873C12.2007 51.6593 12.0912 51.6279 12.0268 51.5164C11.9862 51.4462 11.9774 51.3692 12.006 51.2926C12.043 51.1937 12.1293 51.1446 12.2162 51.0963Z" fill="white"/>
<path d="M15.9904 48.6098C16.0999 48.6084 16.1997 48.6061 16.288 48.6841C16.3454 48.7348 16.372 48.7975 16.3679 48.874C16.3605 49.0117 16.2857 49.0843 16.1914 49.1723C16.0789 49.1762 15.975 49.1578 15.8967 49.069C15.8472 49.013 15.8315 48.9457 15.8363 48.8724C15.8443 48.7501 15.9063 48.687 15.9904 48.6098Z" fill="white"/>
<path d="M20.1594 52.0595C20.2689 52.0588 20.379 52.0715 20.4536 52.1612C20.5061 52.2243 20.5313 52.2863 20.5279 52.3692C20.523 52.4913 20.4669 52.5591 20.3824 52.6408C20.2909 52.6339 20.1859 52.6266 20.1099 52.5695C20.0474 52.5225 20.0007 52.4477 19.999 52.3683C19.9961 52.2353 20.0734 52.1481 20.1594 52.0595Z" fill="white"/>
<path d="M4.94937 43.64C5.05117 43.6419 5.16733 43.6476 5.25195 43.7118C5.31574 43.7601 5.36281 43.8172 5.36697 43.8994C5.37405 44.039 5.30447 44.1096 5.21363 44.2014C5.12999 44.2098 5.04285 44.2223 4.96514 44.1818C4.88623 44.1407 4.84608 44.0741 4.82952 43.989C4.80428 43.8596 4.87688 43.7392 4.94937 43.64Z" fill="white"/>
<path d="M7.18082 46.4799C7.1996 46.4785 7.21837 46.4768 7.23715 46.4757C7.34424 46.4692 7.4534 46.4834 7.52927 46.5676C7.58585 46.6304 7.60553 46.7055 7.59566 46.7885C7.58237 46.8997 7.50902 46.9659 7.42998 47.0364C7.34831 47.0311 7.24908 47.032 7.1785 46.9857C7.11121 46.9415 7.05779 46.8874 7.04521 46.8043C7.02521 46.6725 7.09998 46.5731 7.18082 46.4799Z" fill="white"/>
<path d="M15.503 44.5752C15.6216 44.5834 15.7207 44.5919 15.8067 44.687C15.8627 44.7487 15.8919 44.8243 15.8799 44.9079C15.8619 45.0337 15.787 45.096 15.6918 45.1648C15.5863 45.1572 15.476 45.1472 15.3994 45.0637C15.3425 45.0015 15.3101 44.9384 15.3191 44.8519C15.3324 44.7243 15.4108 44.6517 15.503 44.5752Z" fill="white"/>
<path d="M18.6991 51.1268C18.816 51.1191 18.9036 51.1137 19.0036 51.1865C19.0773 51.2403 19.1243 51.3086 19.1294 51.4023C19.1363 51.5336 19.0704 51.6027 18.9843 51.6871C18.8889 51.7024 18.7985 51.7026 18.7134 51.651C18.6352 51.6035 18.599 51.5452 18.5815 51.4552C18.5556 51.3224 18.623 51.2256 18.6991 51.1268Z" fill="white"/>
<path d="M13.6083 47.4772C13.7084 47.4841 13.8006 47.5013 13.8783 47.5707C13.942 47.6275 13.9738 47.7007 13.9639 47.7863C13.9473 47.9304 13.8513 47.9934 13.7415 48.0681C13.6342 48.0685 13.5463 48.0547 13.4686 47.9725C13.4079 47.9084 13.3847 47.8295 13.3981 47.7425C13.4193 47.6054 13.5019 47.5478 13.6083 47.4772Z" fill="white"/>
<path d="M8.25858 47.8398C8.38361 47.828 8.486 47.8195 8.5882 47.9076C8.65078 47.9614 8.68916 48.0319 8.68607 48.1165C8.68097 48.2557 8.60097 48.3252 8.49884 48.4023C8.40478 48.4108 8.31568 48.4037 8.2351 48.3486C8.16465 48.3003 8.12361 48.235 8.116 48.1495C8.10368 48.0119 8.17219 47.9328 8.25858 47.8398Z" fill="white"/>
<path d="M4.6397 41.6368C4.75104 41.6314 4.84299 41.6254 4.93595 41.7009C5.0003 41.7532 5.03837 41.823 5.03802 41.907C5.03745 42.0467 4.95966 42.1278 4.86257 42.2161C4.75306 42.2191 4.65466 42.212 4.56572 42.137C4.50401 42.0849 4.46746 42.0118 4.46784 41.9305C4.46848 41.7907 4.54085 41.7199 4.6397 41.6368Z" fill="white"/>
<path d="M8.37492 44.3798C8.50176 44.3903 8.61253 44.4012 8.69627 44.511C8.70217 44.5187 8.70763 44.5266 8.71266 44.5347C8.71769 44.5429 8.72225 44.5514 8.72634 44.5601C8.73047 44.5688 8.7341 44.5776 8.73724 44.5867C8.74038 44.5958 8.74303 44.605 8.74518 44.6144C8.74733 44.6238 8.74898 44.6332 8.75014 44.6428C8.75126 44.6523 8.75186 44.6619 8.75195 44.6716C8.75204 44.6812 8.75161 44.6907 8.75066 44.7003C8.74971 44.7099 8.74825 44.7194 8.74627 44.7288C8.71737 44.8616 8.63182 44.9185 8.52324 44.9826C8.41079 44.9718 8.31131 44.9581 8.23814 44.8599C8.18685 44.7912 8.16266 44.7258 8.1784 44.6392C8.20137 44.5124 8.27789 44.451 8.37492 44.3798Z" fill="white"/>
<path d="M13.9958 51.6668C14.1046 51.6817 14.2104 51.7071 14.2887 51.7908C14.3473 51.8536 14.3727 51.9279 14.3628 52.0132C14.3464 52.1545 14.265 52.2181 14.1596 52.2979C14.0466 52.2868 13.9548 52.2692 13.8741 52.1788C13.8166 52.1145 13.7928 52.0394 13.8014 51.9537C13.8155 51.8138 13.8936 51.7474 13.9958 51.6668Z" fill="white"/>
<path d="M17.7404 52.3148C17.8509 52.3109 17.946 52.3115 18.0358 52.3892C18.0982 52.4431 18.1288 52.5106 18.1269 52.5932C18.1237 52.7384 18.045 52.8157 17.9402 52.9035C17.8389 52.9077 17.7455 52.9124 17.6589 52.8477C17.5844 52.7921 17.5571 52.7283 17.555 52.637C17.5518 52.497 17.6454 52.4027 17.7404 52.3148Z" fill="white"/>
<path d="M7.2003 40.5368C7.23165 40.543 7.26326 40.5487 7.29404 40.5574C7.3941 40.5855 7.4703 40.6467 7.51217 40.743C7.54559 40.82 7.53713 40.9037 7.50455 40.9795C7.4603 41.0826 7.38236 41.1183 7.28649 41.1645C7.18171 41.1466 7.08578 41.1273 7.01668 41.0362C6.96481 40.9677 6.95075 40.8877 6.96926 40.8052C7.0012 40.6627 7.08262 40.6076 7.2003 40.5368Z" fill="white"/>
<path d="M19.8113 42.6114C19.9087 42.6075 19.9963 42.605 20.0766 42.6696C20.1426 42.7226 20.1799 42.7948 20.1816 42.8798C20.1845 43.0219 20.1146 43.1078 20.0196 43.2032C19.8877 43.2064 19.7814 43.2044 19.6823 43.1047C19.6278 43.0498 19.6048 42.9843 19.6107 42.9072C19.6217 42.7627 19.707 42.6959 19.8113 42.6114Z" fill="white"/>
<path d="M20.1145 49.1568C20.2312 49.1522 20.3479 49.1504 20.4443 49.2298C20.513 49.2865 20.5496 49.3393 20.5514 49.4311C20.5543 49.5759 20.4738 49.6523 20.3787 49.7466C20.2603 49.7519 20.1689 49.733 20.0766 49.6564C20.0084 49.5999 19.9741 49.5267 19.9713 49.4382C19.9673 49.3122 20.033 49.2417 20.1145 49.1568Z" fill="white"/>
<path d="M15.5743 52.3473C15.6945 52.3461 15.7962 52.3482 15.8927 52.4314C15.9565 52.4864 15.998 52.5625 15.9943 52.6488C15.989 52.7769 15.9173 52.8595 15.8303 52.9439C15.6996 52.9442 15.5605 52.9408 15.4667 52.8342C15.4165 52.7772 15.4003 52.7159 15.4031 52.6412C15.4076 52.5162 15.4911 52.4308 15.5743 52.3473Z" fill="white"/>
<path d="M11.582 44.0572C11.6138 44.0626 11.6459 44.0672 11.6772 44.0752C11.7774 44.1005 11.8586 44.166 11.9037 44.259C11.9357 44.325 11.935 44.3974 11.9132 44.4663C11.8753 44.5863 11.7916 44.6377 11.6857 44.6934C11.5619 44.6787 11.4667 44.6603 11.3859 44.5529C11.3338 44.4837 11.3178 44.4092 11.3364 44.3246C11.368 44.1808 11.4645 44.1258 11.582 44.0572Z" fill="white"/>
<path d="M13.5987 49.6748C13.7286 49.6824 13.8378 49.6904 13.9346 49.7901C13.9982 49.8554 14.0176 49.9229 14.0139 50.0123C14.0078 50.1573 13.9078 50.2417 13.807 50.3296C13.7955 50.3295 13.784 50.3298 13.7725 50.3292C13.6491 50.3235 13.5451 50.2941 13.4637 50.1972C13.4038 50.1259 13.376 50.0379 13.3932 49.9454C13.4174 49.815 13.4974 49.7472 13.5987 49.6748Z" fill="white"/>
<path d="M15.5493 39.5132C15.5676 39.515 15.586 39.5164 15.6043 39.5185C15.7205 39.5321 15.8111 39.5635 15.8788 39.6672C15.9292 39.7443 15.9357 39.8122 15.9209 39.9013C15.8975 40.0426 15.8085 40.1084 15.6989 40.1849C15.6631 40.1839 15.6703 40.1848 15.6272 40.1796C15.508 40.1652 15.4146 40.1343 15.3461 40.0264C15.2973 39.9496 15.2922 39.8808 15.3084 39.7932C15.3347 39.6514 15.4345 39.5842 15.5493 39.5132Z" fill="white"/>
<path d="M16.7765 33.6123C16.8232 33.6121 16.873 33.6099 16.9195 33.6181C17.0159 33.6352 17.1105 33.7083 17.1595 33.7921C17.2115 33.8809 17.2205 33.9836 17.1879 34.0814C17.1428 34.2168 17.0576 34.27 16.934 34.3289C16.8101 34.3289 16.6846 34.3132 16.5993 34.2131C16.5342 34.1368 16.5123 34.0472 16.529 33.9494C16.5574 33.7823 16.6472 33.7081 16.7765 33.6123Z" fill="white"/>
<path d="M4.80602 37.3148C4.85845 37.3205 4.91342 37.3256 4.96418 37.3403C5.06092 37.3683 5.14573 37.455 5.18373 37.5471C5.22313 37.6427 5.21657 37.7467 5.17526 37.8402C5.11859 37.9684 5.02719 38.0169 4.90344 38.0701C4.78502 38.0418 4.67902 38.0138 4.60099 37.9128C4.53793 37.8313 4.51265 37.734 4.53508 37.6319C4.5699 37.4734 4.67511 37.3962 4.80602 37.3148Z" fill="white"/>
<path d="M6.59306 33.6416C6.72448 33.6428 6.86493 33.6737 6.95377 33.7809C7.02293 33.8644 7.04487 33.9619 7.02932 34.0677C7.00448 34.2367 6.90461 34.3253 6.77713 34.4271C6.71248 34.4284 6.64358 34.4317 6.57958 34.4216C6.48887 34.4073 6.41306 34.3426 6.36057 34.271C6.29724 34.1846 6.29302 34.0635 6.31849 33.9633C6.36098 33.7963 6.45139 33.7288 6.59306 33.6416Z" fill="white"/>
<path d="M12.7351 41.4521C12.7818 41.4562 12.8286 41.4602 12.8748 41.4684C12.8886 41.4709 12.9022 41.4741 12.9157 41.4779C12.9292 41.4818 12.9424 41.4864 12.9554 41.4917C12.9684 41.497 12.9811 41.5029 12.9934 41.5095C13.0058 41.5161 13.0178 41.5233 13.0294 41.5311C13.041 41.539 13.0521 41.5475 13.0629 41.5565C13.0736 41.5655 13.0838 41.5751 13.0935 41.5852C13.1032 41.5953 13.1124 41.6059 13.121 41.617C13.1296 41.628 13.1376 41.6395 13.145 41.6514C13.1981 41.7362 13.2111 41.8375 13.1841 41.9339C13.1405 42.0895 13.0374 42.1581 12.9023 42.2324C12.8594 42.2315 12.8163 42.2304 12.7736 42.2256C12.666 42.2136 12.57 42.1541 12.5081 42.0644C12.4498 41.9798 12.4357 41.8728 12.4592 41.774C12.4963 41.6179 12.6041 41.5313 12.7351 41.4521Z" fill="white"/>
<path d="M15.8434 50.4554C15.8989 50.466 15.9583 50.4762 16.0109 50.4973C16.091 50.5294 16.1737 50.6139 16.2058 50.6939C16.2446 50.7906 16.2377 50.8888 16.2006 50.9846C16.1372 51.1483 16.0223 51.2096 15.8711 51.2832C15.8463 51.2732 15.8217 51.2629 15.7972 51.2521C15.6568 51.1895 15.5445 51.0997 15.4953 50.9483C15.462 50.8459 15.4692 50.7586 15.5208 50.6625C15.5876 50.5381 15.7167 50.4926 15.8434 50.4554Z" fill="white"/>
<path d="M9.64432 37.5814C9.69484 37.5766 9.74613 37.574 9.79691 37.5766C9.91181 37.5823 10.007 37.6363 10.0796 37.725C10.1591 37.8221 10.1826 37.9458 10.1614 38.0679C10.1326 38.2334 10.041 38.3235 9.91187 38.421C9.85516 38.4277 9.80052 38.4322 9.74323 38.4301C9.63852 38.4261 9.53155 38.3673 9.46594 38.2868C9.39671 38.2019 9.376 38.0932 9.38884 37.9863C9.41071 37.8044 9.50936 37.6949 9.64432 37.5814Z" fill="white"/>
<path d="M20.0902 37.9362C20.1615 37.9355 20.2404 37.9312 20.3099 37.9481C20.4095 37.9723 20.5095 38.0546 20.5616 38.1419C20.6273 38.2519 20.632 38.3736 20.5988 38.495C20.5492 38.6768 20.4251 38.7687 20.2704 38.8609C20.2283 38.8614 20.2276 38.8626 20.1797 38.8564C20.0506 38.8398 19.9308 38.7744 19.8546 38.6681C19.7793 38.5632 19.7619 38.4341 19.7873 38.3091C19.8244 38.1274 19.9413 38.0315 20.0902 37.9362Z" fill="white"/>
<path d="M10.562 33.5773C10.7265 33.6183 10.8923 33.7026 10.9774 33.8562C10.9846 33.8694 10.9912 33.883 10.997 33.8969C11.0028 33.9108 11.0079 33.9251 11.0122 33.9396C11.0165 33.9541 11.0199 33.9687 11.0226 33.9836C11.0253 33.9984 11.0272 34.0133 11.0283 34.0284C11.0294 34.0435 11.0297 34.0585 11.0291 34.0736C11.0286 34.0887 11.0272 34.1037 11.0251 34.1187C11.0229 34.1336 11.02 34.1484 11.0162 34.163C11.0124 34.1776 11.0079 34.192 11.0026 34.2061C10.9357 34.3881 10.7996 34.4719 10.6348 34.5565C10.5856 34.5544 10.5334 34.5541 10.4852 34.5419C10.3652 34.5115 10.2483 34.419 10.1938 34.3078C10.1351 34.1879 10.145 34.0512 10.1871 33.9279C10.2519 33.7383 10.3907 33.661 10.562 33.5773Z" fill="white"/>
<path d="M38.2268 31.3974C38.3459 31.3909 38.465 31.3859 38.5841 31.3824C38.7033 31.3789 38.8225 31.3769 38.9417 31.3763C39.0609 31.3757 39.1801 31.3766 39.2994 31.379C39.4185 31.3813 39.5377 31.3852 39.6568 31.3905C39.7759 31.3958 39.8949 31.4026 40.0138 31.4108C40.1327 31.4191 40.2515 31.4288 40.3703 31.44C40.4889 31.4512 40.6074 31.4638 40.7258 31.4779C40.8442 31.492 40.9624 31.5076 41.0804 31.5246C41.1984 31.5417 41.3161 31.5602 41.4337 31.5801C41.5512 31.6 41.6685 31.6214 41.7855 31.6443C41.9025 31.6671 42.0192 31.6914 42.1356 31.7171C42.252 31.7428 42.3681 31.77 42.4839 31.7985C42.5996 31.8271 42.715 31.8571 42.8299 31.8885C42.9449 31.92 43.0595 31.9528 43.1737 31.9871C43.2879 32.0213 43.4017 32.057 43.515 32.0941C43.6283 32.1311 43.7411 32.1696 43.8535 32.2094C43.9658 32.2493 44.0777 32.2905 44.189 32.3331C44.3004 32.3757 44.4112 32.4197 44.5214 32.465C44.6317 32.5104 44.7414 32.5571 44.8505 32.6052C44.9596 32.6532 45.0681 32.7026 45.1759 32.7534C45.2838 32.8041 45.3911 32.8561 45.4977 32.9095C45.6043 32.9629 45.7102 33.0176 45.8154 33.0736C45.9207 33.1296 46.0252 33.1869 46.129 33.2454C46.2329 33.304 46.336 33.3638 46.4383 33.425C46.5407 33.4861 46.6423 33.5485 46.7431 33.6121C46.8439 33.6757 46.9439 33.7406 47.0431 33.8067C47.1423 33.8728 47.2407 33.9401 47.3383 34.0086C47.4358 34.0772 47.5325 34.1469 47.6283 34.2178C47.7241 34.2887 47.8191 34.3608 47.9132 34.4341C48.0072 34.5074 48.1003 34.5818 48.1925 34.6574C48.2847 34.7329 48.376 34.8096 48.4663 34.8874C48.5566 34.9652 48.646 35.0441 48.7344 35.1241C48.8348 35.2143 48.9341 35.3057 49.0323 35.3983C49.1305 35.4909 49.2275 35.5846 49.3234 35.6796C49.4192 35.7746 49.5139 35.8708 49.6074 35.9681C49.7009 36.0655 49.7931 36.164 49.8842 36.2636C49.9752 36.3632 50.065 36.4639 50.1535 36.5657C50.2421 36.6676 50.3294 36.7705 50.4154 36.8745C50.5014 36.9785 50.5861 37.0836 50.6695 37.1897C50.753 37.2957 50.8351 37.4028 50.9158 37.511C50.9966 37.6191 51.076 37.7282 51.1541 37.8383C51.2321 37.9484 51.3088 38.0594 51.3842 38.1714C51.4595 38.2834 51.5334 38.3963 51.6059 38.5101C51.6785 38.6239 51.7496 38.7386 51.8193 38.8542C51.889 38.9697 51.9573 39.0861 52.0241 39.2034C52.0909 39.3207 52.1563 39.4387 52.2201 39.5576C52.284 39.6765 52.3465 39.7961 52.4074 39.9165C52.4684 40.0369 52.5278 40.1581 52.5857 40.28C52.6437 40.4019 52.7001 40.5244 52.755 40.6477C52.81 40.771 52.8633 40.8949 52.9152 41.0195C52.967 41.1441 53.0173 41.2694 53.0661 41.3952C53.1148 41.5211 53.162 41.6475 53.2077 41.7745C53.2533 41.9015 53.2973 42.0291 53.3398 42.1572C53.3823 42.2852 53.4232 42.4139 53.4625 42.543C53.5018 42.6721 53.5395 42.8017 53.5755 42.9317C53.6116 43.0617 53.6461 43.1922 53.679 43.3231C53.7118 43.454 53.7431 43.5853 53.7727 43.717C53.8023 43.8486 53.8303 43.9806 53.8566 44.113C53.883 44.2454 53.9077 44.378 53.9308 44.511C53.9539 44.644 53.9753 44.7772 53.9951 44.9107C54.0149 45.0442 54.033 45.1779 54.0495 45.3119C54.066 45.4458 54.0808 45.5799 54.0939 45.7143C54.1071 45.8486 54.1186 45.983 54.1284 46.1176C54.1382 46.2522 54.1464 46.3869 54.1529 46.5217C54.1601 46.6465 54.1658 46.7714 54.1701 46.8963C54.1742 47.0212 54.1769 47.1461 54.178 47.271C54.1791 47.396 54.1787 47.521 54.1768 47.6459C54.1748 47.7709 54.1714 47.8958 54.1664 48.0206C54.1614 48.1455 54.1548 48.2703 54.1468 48.395C54.1387 48.5198 54.1291 48.6444 54.118 48.7688C54.1069 48.8933 54.0942 49.0176 54.0801 49.1418C54.0659 49.266 54.0502 49.39 54.033 49.5137C54.0158 49.6375 53.9971 49.7611 53.9768 49.8844C53.9566 50.0077 53.9348 50.1308 53.9116 50.2535C53.8883 50.3763 53.8636 50.4988 53.8374 50.621C53.8111 50.7432 53.7833 50.865 53.7541 50.9865C53.7248 51.108 53.6941 51.2292 53.6619 51.3499C53.6297 51.4707 53.596 51.591 53.5608 51.7109C53.5257 51.8309 53.489 51.9503 53.451 52.0694C53.4129 52.1884 53.3733 52.3069 53.3323 52.425C53.2913 52.543 53.2489 52.6606 53.205 52.7775C53.1611 52.8946 53.1158 53.0111 53.0691 53.127C53.0223 53.2429 52.9742 53.3582 52.9246 53.4729C52.8751 53.5876 52.8241 53.7017 52.7717 53.8152C52.7194 53.9287 52.6657 54.0415 52.6105 54.1536C52.5554 54.2658 52.4989 54.3773 52.441 54.4881C52.3832 54.5988 52.324 54.7089 52.2634 54.8182C52.2029 54.9275 52.141 55.036 52.0777 55.1439C52.0145 55.2517 51.95 55.3587 51.8841 55.4649C51.8183 55.5711 51.7511 55.6765 51.6827 55.7811C51.6143 55.8857 51.5446 55.9894 51.4736 56.0923C51.4026 56.1951 51.3304 56.2971 51.257 56.3982C51.1835 56.4993 51.1088 56.5994 51.0329 56.6987C50.9569 56.798 50.8798 56.8963 50.8015 56.9937C50.7232 57.0911 50.6436 57.1875 50.5629 57.2829C50.4822 57.3783 50.4004 57.4727 50.3174 57.5661C47.344 60.8574 43.3109 62.7086 38.8875 62.9202C34.4523 63.1323 29.8953 61.6619 26.5963 58.6532C25.9059 58.0234 25.2521 57.3325 24.6946 56.5814C22.8515 54.0974 21.7845 50.8846 21.651 47.8024C21.6453 47.6728 21.6413 47.5432 21.6389 47.4135C21.6365 47.2838 21.6356 47.1541 21.6364 47.0245C21.6371 46.8948 21.6395 46.7651 21.6434 46.6354C21.6473 46.5058 21.6528 46.3762 21.6599 46.2467C21.6671 46.1172 21.6758 45.9878 21.6861 45.8585C21.6963 45.7292 21.7082 45.6001 21.7217 45.4711C21.7351 45.3421 21.7502 45.2133 21.7668 45.0846C21.7834 44.956 21.8016 44.8277 21.8214 44.6995C21.8412 44.5713 21.8626 44.4433 21.8855 44.3157C21.9084 44.188 21.9329 44.0607 21.9589 43.9336C21.985 43.8066 22.0126 43.6798 22.0417 43.5535C22.0709 43.4271 22.1016 43.3011 22.1338 43.1755C22.1661 43.0498 22.1998 42.9246 22.2352 42.7998C22.2705 42.675 22.3074 42.5507 22.3457 42.4268C22.3841 42.3029 22.424 42.1795 22.4654 42.0566C22.5068 41.9337 22.5497 41.8113 22.5941 41.6894C22.6386 41.5676 22.6845 41.4463 22.7319 41.3256C22.7792 41.2048 22.8281 41.0847 22.8785 40.9652C22.9288 40.8456 22.9806 40.7267 23.0338 40.6085C23.0871 40.4902 23.1418 40.3726 23.1979 40.2557C23.2541 40.1388 23.3116 40.0226 23.3706 39.9071C23.4297 39.7916 23.4901 39.6768 23.5519 39.5628C23.6137 39.4488 23.6769 39.3355 23.7415 39.223C23.8061 39.1106 23.872 38.9989 23.9394 38.8881C24.0067 38.7772 24.0754 38.6672 24.1454 38.5581C24.2155 38.4489 24.2869 38.3406 24.3595 38.2332C24.4322 38.1258 24.5062 38.0193 24.5815 37.9137C24.6569 37.8081 24.7335 37.7034 24.8114 37.5997C24.8892 37.496 24.9684 37.3933 25.0488 37.2915C25.1292 37.1897 25.2108 37.089 25.2937 36.9892C25.3766 36.8894 25.4606 36.7907 25.5459 36.693C25.6313 36.5953 25.7178 36.4987 25.8054 36.4031C25.8908 36.3101 25.9772 36.2181 26.0648 36.1272C26.1525 36.0363 26.2412 35.9465 26.331 35.8577C26.4208 35.7691 26.5117 35.6815 26.6037 35.595C26.6957 35.5085 26.7888 35.4232 26.8828 35.339C26.9769 35.2549 27.0721 35.1719 27.1682 35.0901C27.2644 35.0082 27.3615 34.9276 27.4596 34.8481C27.5578 34.7687 27.6569 34.6905 27.7569 34.6135C27.857 34.5366 27.958 34.4608 28.0599 34.3863C28.1618 34.3118 28.2646 34.2386 28.3684 34.1666C28.4721 34.0947 28.5768 34.024 28.6823 33.9546C28.7877 33.8853 28.894 33.8173 29.0012 33.7505C29.1083 33.6838 29.2163 33.6183 29.3251 33.5543C29.4339 33.4902 29.5434 33.4274 29.6537 33.3661C29.7641 33.3046 29.8751 33.2446 29.9869 33.186C30.0987 33.1274 30.2112 33.0701 30.3244 33.0143C30.4377 32.9584 30.5515 32.9039 30.6661 32.8508C30.7807 32.7978 30.8959 32.7462 31.0117 32.6959C31.1276 32.6457 31.244 32.597 31.361 32.5496C31.4781 32.5023 31.5957 32.4564 31.7138 32.412C31.832 32.3675 31.9507 32.3245 32.0699 32.283C32.1892 32.2415 32.3089 32.2015 32.4291 32.163C32.5493 32.1244 32.67 32.0873 32.7912 32.0517C32.9123 32.0162 33.0338 31.9821 33.1558 31.9495C33.2778 31.9169 33.4001 31.8859 33.5228 31.8563C33.6456 31.8268 33.7687 31.7987 33.8921 31.7722C34.0156 31.7457 34.1393 31.7207 34.2634 31.6972C34.3874 31.6737 34.5117 31.6518 34.6363 31.6314C34.7609 31.611 34.8857 31.5922 35.0108 31.5748C35.1358 31.5575 35.2611 31.5418 35.3865 31.5275C35.512 31.5133 35.6376 31.5006 35.7633 31.4895C35.8891 31.4783 36.0149 31.4688 36.141 31.4608C36.2669 31.4527 36.393 31.4463 36.5192 31.4414C36.6437 31.8374 36.7717 32.2357 36.8363 32.6466C36.138 32.6638 35.5879 32.4857 34.9308 32.2693C34.7654 32.2148 34.5511 32.1148 34.3795 32.1077C34.3265 32.1056 34.343 32.1066 34.3023 32.1492C34.4426 32.3236 35.4779 32.6779 35.7592 32.8108C35.4399 32.9641 35.2921 33.0872 35.1292 33.4045C32.8934 33.0111 30.3147 33.4243 28.3938 34.6852C28.3066 34.7424 28.2313 34.7984 28.2101 34.9062C28.2494 34.9649 28.2803 34.9537 28.3449 34.938C28.6143 34.8724 28.8844 34.6853 29.138 34.5678C29.4444 34.4286 29.7574 34.3061 30.0769 34.2005C31.7101 33.6592 33.7234 33.3921 35.3816 33.9139L34.9113 34.1153C34.4238 34.3115 33.9387 34.5136 33.4561 34.7216C30.9939 35.7999 28.9308 37.2445 27.0615 39.1677C26.6136 39.6285 26.111 40.0884 25.8733 40.6979C26.2258 40.483 26.5115 40.1094 26.7941 39.8096C27.1171 39.467 27.4421 39.1259 27.7874 38.8056C30.0105 36.743 32.8681 35.0475 35.8294 34.3247C35.9984 34.4025 36.1628 34.4862 36.3272 34.5734C35.5894 35.7595 34.8846 36.9437 34.292 38.2106C33.4881 39.9293 32.9192 41.795 32.7397 43.6874C32.7166 43.9321 32.6396 44.3029 32.7238 44.5351L32.7725 44.5497C32.8972 44.4653 32.9006 44.365 32.9277 44.2261C33.587 40.8461 34.5784 37.3826 36.7795 34.6509C37.0655 34.686 37.3559 34.6847 37.6437 34.6914C38.0613 35.0829 38.4188 35.6124 38.7339 36.0899C38.8931 36.3337 39.0475 36.5805 39.1972 36.8303C39.3469 37.08 39.4918 37.3326 39.6318 37.5879C39.7718 37.8432 39.9068 38.1011 40.0369 38.3616C40.167 38.6221 40.292 38.8851 40.412 39.1504C40.532 39.4157 40.6468 39.6832 40.7565 39.953C40.8662 40.2227 40.9707 40.4945 41.0699 40.7682C41.1692 41.042 41.2631 41.3175 41.3518 41.5949C41.4405 41.8723 41.5237 42.1512 41.6017 42.4318C41.7345 42.9074 41.838 43.4052 41.9294 43.8903C41.9838 44.1788 42.0128 44.4932 42.1119 44.7693C42.1521 44.8812 42.1946 44.9688 42.3051 45.0191L42.3622 44.9839C42.3846 44.9366 42.399 44.893 42.4059 44.841C42.464 44.4023 42.3357 43.8448 42.2541 43.4079C41.6715 40.291 39.9783 37.1446 38.1055 34.6202C38.3661 34.5281 38.6109 34.4205 38.8569 34.2949C40.6615 34.6363 42.3492 35.3436 43.9664 36.2037C44.7564 36.6237 45.5525 37.071 46.2882 37.5814C46.6212 37.8124 47.5797 38.6172 47.9139 38.6657C47.9926 38.6418 47.9941 38.6492 48.0333 38.5781C48.0339 38.5303 48.0338 38.4874 48.0121 38.4432C47.8781 38.1699 47.3835 37.8999 47.1357 37.7242C45.4005 36.4941 43.2017 35.3352 41.2087 34.5885C40.5634 34.3467 39.9045 34.1578 39.2458 33.9576C39.2917 33.9429 39.3377 33.9286 39.3838 33.9146C39.8806 33.765 40.4083 33.7348 40.9243 33.7112C42.6604 33.6316 44.3492 33.8479 45.9674 34.5008C46.3433 34.6525 46.7198 34.8159 47.0723 35.0166C47.2473 35.1162 47.4172 35.2534 47.599 35.3371C47.6726 35.371 47.7134 35.3777 47.7868 35.347L47.8005 35.2912C47.74 35.1214 47.499 34.9719 47.3526 34.8752C45.2963 33.516 42.0952 32.9609 39.6808 33.4551C39.5206 33.2152 39.3503 33.0473 39.1254 32.8699C39.2394 32.8189 39.3545 32.7707 39.4708 32.7253C39.5872 32.6799 39.7046 32.6373 39.823 32.5977C39.9414 32.5581 40.0607 32.5213 40.1809 32.4875C40.3011 32.4537 40.422 32.4228 40.5437 32.395C40.6655 32.3671 40.7878 32.3422 40.9108 32.3203C41.0337 32.2984 41.1571 32.2795 41.281 32.2636C41.4048 32.2477 41.529 32.2349 41.6535 32.2251C41.778 32.2153 41.9026 32.2086 42.0274 32.2049C42.407 32.1917 42.7914 32.2215 43.1692 32.1812L43.2127 32.1763C42.0545 31.877 40.7404 32.1592 39.5921 32.4112C39.1634 32.5052 38.7299 32.6258 38.2895 32.6417C38.2394 32.2342 38.2272 31.8077 38.2268 31.3974Z" fill="#1C1C1C"/>
<path d="M27.5749 56.7322C27.5858 56.7355 27.5969 56.7384 27.6076 56.7424C27.7043 56.7777 27.7425 56.8119 27.7858 56.9008C27.781 56.9972 27.7496 57.0439 27.6978 57.1207C27.6016 57.076 27.5295 57.0524 27.4771 56.9531C27.4879 56.8452 27.514 56.8192 27.5749 56.7322Z" fill="white"/>
<path d="M39.3008 60.2858C39.3398 60.2848 39.3979 60.279 39.4375 60.2869C39.5274 60.3049 39.5373 60.3248 39.5875 60.395C39.5926 60.5059 39.5676 60.5826 39.5306 60.6864C39.4876 60.6859 39.4259 60.6901 39.3855 60.6766C39.2979 60.6474 39.2857 60.6152 39.2449 60.5399C39.2446 60.4373 39.2615 60.3808 39.3008 60.2858Z" fill="white"/>
<path d="M51.4709 51.0592C51.5055 51.0581 51.5401 51.056 51.5746 51.0574C51.678 51.0615 51.7253 51.1008 51.7904 51.1763C51.8098 51.2844 51.7906 51.3292 51.7433 51.4224C51.7026 51.4271 51.6541 51.4357 51.6126 51.4316C51.5229 51.4228 51.4917 51.3902 51.4376 51.3238C51.4195 51.218 51.4376 51.1572 51.4709 51.0592Z" fill="white"/>
<path d="M38.0027 59.9463C38.0477 59.9648 38.1016 59.9837 38.1407 60.0128C38.2121 60.0661 38.2174 60.1256 38.2274 60.2074C38.1932 60.3117 38.1516 60.3485 38.0695 60.4141C38.0566 60.4076 38.0434 60.4016 38.0307 60.3946C37.9373 60.3432 37.8827 60.2996 37.8546 60.1949C37.8736 60.0815 37.9266 60.0294 38.0027 59.9463Z" fill="white"/>
<path d="M47.5156 54.6978C47.563 54.7016 47.6337 54.7017 47.6767 54.7203C47.7585 54.7558 47.7665 54.792 47.7978 54.8681C47.7884 54.9776 47.7553 55.031 47.6933 55.1205C47.642 55.1204 47.5925 55.1128 47.5416 55.1067C47.4766 55.0601 47.4331 55.0409 47.421 54.954C47.4073 54.8558 47.4645 54.7747 47.5156 54.6978Z" fill="white"/>
<path d="M25.5225 53.791C25.5909 53.7987 25.6649 53.8077 25.728 53.837C25.8072 53.8736 25.8242 53.9339 25.8456 54.0106C25.8278 54.1173 25.7872 54.1682 25.7215 54.2491C25.6751 54.2458 25.6043 54.247 25.5619 54.2292C25.4774 54.1938 25.4698 54.1506 25.4385 54.0728C25.4467 53.9573 25.4657 53.8923 25.5225 53.791Z" fill="white"/>
<path d="M43.3801 60.8033C43.4621 60.8005 43.557 60.793 43.6294 60.8411C43.6904 60.8816 43.7241 60.9376 43.7261 61.0107C43.7287 61.1086 43.6684 61.1848 43.614 61.2592C43.5569 61.2528 43.4877 61.2463 43.4348 61.2233C43.3571 61.1895 43.3321 61.1395 43.2973 61.0672C43.2953 60.9537 43.3227 60.8999 43.3801 60.8033Z" fill="white"/>
<path d="M24.292 52.2721C24.3537 52.2879 24.4314 52.3203 24.4806 52.3619C24.5406 52.4126 24.5709 52.4826 24.5665 52.5614C24.561 52.6587 24.4842 52.7271 24.4198 52.7909C24.3476 52.7779 24.2664 52.7579 24.2105 52.7065C24.1516 52.6521 24.1308 52.5808 24.1391 52.5027C24.1497 52.4014 24.2227 52.3371 24.292 52.2721Z" fill="white"/>
<path d="M41.5546 59.1863C41.6406 59.1822 41.7368 59.1744 41.8161 59.2159C41.901 59.2605 41.9119 59.2983 41.9404 59.3819C41.9263 59.4946 41.8895 59.5409 41.8162 59.6259C41.759 59.633 41.7105 59.631 41.6533 59.6279C41.5788 59.5808 41.5358 59.5614 41.5088 59.4705C41.4794 59.3716 41.5192 59.2772 41.5546 59.1863Z" fill="white"/>
<path d="M35.1733 53.4394C35.2375 53.4547 35.2825 53.4825 35.3383 53.5171C35.3671 53.5696 35.3953 53.5985 35.3923 53.6608C35.385 53.8067 35.3022 53.8815 35.1957 53.9692C35.1367 53.9521 35.0646 53.9241 35.0207 53.8799C34.9651 53.824 34.949 53.7557 34.9661 53.6799C34.9907 53.5712 35.0909 53.5038 35.1733 53.4394Z" fill="white"/>
<path d="M29.7016 56.7023C29.7829 56.7034 29.8782 56.6998 29.9476 56.7504C30.008 56.7945 30.0496 56.8538 30.0468 56.9308C30.0431 57.0327 29.9791 57.0957 29.9103 57.1612C29.8381 57.1618 29.7597 57.1603 29.6955 57.1216C29.6327 57.0838 29.6007 57.027 29.5949 56.9545C29.5873 56.8594 29.6511 56.7764 29.7016 56.7023Z" fill="white"/>
<path d="M52.307 49.0168C52.3958 49.0161 52.4875 49.0108 52.5637 49.0671C52.6264 49.1134 52.6621 49.1756 52.6607 49.2547C52.6588 49.3582 52.5943 49.4251 52.5255 49.4926C52.4662 49.4848 52.3913 49.4792 52.3366 49.4544C52.2577 49.4187 52.2378 49.3644 52.2094 49.2889C52.2175 49.1743 52.2474 49.1141 52.307 49.0168Z" fill="white"/>
<path d="M47.6568 58.0179C47.737 58.0182 47.8302 58.0144 47.9021 58.0565C47.9663 58.094 48.0155 58.1458 48.0252 58.2218C48.0379 58.3209 47.9766 58.3975 47.9219 58.4716C47.8436 58.4885 47.7889 58.4879 47.7097 58.4772C47.6681 58.4457 47.6318 58.43 47.6112 58.3798C47.5589 58.252 47.6021 58.1358 47.6568 58.0179Z" fill="white"/>
<path d="M48.6081 53.12C48.686 53.1208 48.7695 53.1213 48.8373 53.1668C48.9047 53.2121 48.9358 53.2707 48.9461 53.3497C48.9581 53.4428 48.8898 53.532 48.8375 53.5997C48.7557 53.5983 48.6541 53.6029 48.5832 53.5547C48.519 53.511 48.4811 53.455 48.4795 53.3764C48.4775 53.2732 48.5473 53.1952 48.6081 53.12Z" fill="white"/>
<path d="M52.309 47.4134C52.3905 47.4217 52.4852 47.4252 52.5486 47.4856C52.6122 47.5463 52.6295 47.6047 52.626 47.6904C52.6218 47.7902 52.5398 47.8696 52.4726 47.9331C52.3874 47.919 52.3161 47.9052 52.2469 47.8473C52.1908 47.8003 52.1591 47.7203 52.1656 47.6482C52.1747 47.5469 52.241 47.4809 52.309 47.4134Z" fill="white"/>
<path d="M50.3866 48.2796C50.4676 48.2942 50.555 48.3095 50.6145 48.3734C50.6685 48.4314 50.685 48.5008 50.6701 48.5774C50.6495 48.683 50.5649 48.7458 50.4869 48.8101C50.3947 48.7892 50.2879 48.7715 50.23 48.6876C50.1825 48.6186 50.1724 48.551 50.1965 48.471C50.2243 48.3787 50.311 48.3286 50.3866 48.2796Z" fill="white"/>
<path d="M38.96 55.3789C39.0629 55.3854 39.1711 55.3834 39.2482 55.4653C39.3059 55.5266 39.3211 55.5915 39.3096 55.6737C39.2961 55.7694 39.2145 55.8366 39.1483 55.8988C39.0641 55.8993 38.9865 55.8938 38.9173 55.8383C38.8568 55.7897 38.8208 55.7107 38.8261 55.6329C38.8336 55.522 38.8895 55.4587 38.96 55.3789Z" fill="white"/>
<path d="M43.4209 58.9876C43.5194 59.0115 43.6012 59.0345 43.6665 59.1183C43.7171 59.1832 43.7316 59.2585 43.7125 59.3378C43.6867 59.445 43.6178 59.4908 43.5337 59.5498C43.4319 59.5234 43.3314 59.5039 43.2672 59.4101C43.2225 59.3448 43.2134 59.2724 43.235 59.1969C43.2632 59.0987 43.3423 59.0437 43.4209 58.9876Z" fill="white"/>
<path d="M28.4442 57.7615C28.5385 57.7752 28.6278 57.7926 28.7007 57.8599C28.76 57.9146 28.7908 57.9803 28.7878 58.0621C28.7842 58.1624 28.7048 58.2292 28.6382 58.2935C28.5364 58.2903 28.4264 58.2873 28.35 58.2085C28.2952 58.1521 28.2771 58.0793 28.2875 58.0028C28.3018 57.8979 28.3721 57.8312 28.4442 57.7615Z" fill="white"/>
<path d="M50.9321 52.7684C51.0315 52.7637 51.1314 52.7563 51.2142 52.823C51.2788 52.8749 51.3036 52.9405 51.3031 53.0223C51.3026 53.1251 51.2312 53.2043 51.1701 53.279C51.0528 53.2969 50.9955 53.2891 50.8937 53.2329C50.8559 53.1872 50.826 53.1532 50.8166 53.0921C50.7953 52.9557 50.8542 52.8707 50.9321 52.7684Z" fill="white"/>
<path d="M28.9943 59.1276C29.0999 59.1248 29.2079 59.1161 29.2986 59.181C29.3647 59.2285 29.4003 59.2843 29.4048 59.3667C29.4099 59.4594 29.3502 59.537 29.2988 59.6076C29.1975 59.634 29.0899 59.6512 29.0003 59.5812C28.9382 59.5328 28.9144 59.4818 28.9014 59.407C28.881 59.2894 28.9302 59.2172 28.9943 59.1276Z" fill="white"/>
<path d="M33.6766 60.9851C33.7591 60.9925 33.8416 61.0061 33.9072 61.0614C33.9698 61.1141 34.0162 61.1911 34.0134 61.2752C34.0098 61.3848 33.9507 61.449 33.8832 61.5266C33.7815 61.5267 33.6815 61.5234 33.5972 61.4587C33.5343 61.4103 33.5005 61.3512 33.5019 61.2709C33.5042 61.1369 33.5849 61.0669 33.6766 60.9851Z" fill="white"/>
<path d="M42.3586 60.2176C42.455 60.2498 42.5577 60.2812 42.612 60.3752C42.6519 60.4443 42.6593 60.5149 42.6322 60.5901C42.5968 60.6888 42.5025 60.7325 42.4166 60.7783C42.4035 60.7758 42.3904 60.7739 42.3775 60.771C42.2792 60.7485 42.2004 60.7092 42.1546 60.6137C42.1193 60.5399 42.1228 60.4616 42.1559 60.3881C42.199 60.2925 42.2699 60.2596 42.3586 60.2176Z" fill="white"/>
<path d="M30.8526 60.3825C30.984 60.3909 31.0865 60.4078 31.1728 60.5186C31.2204 60.5799 31.2411 60.6499 31.2221 60.7258C31.1958 60.8313 31.1292 60.8678 31.0475 60.9249C30.9377 60.9038 30.8403 60.8865 30.7609 60.8001C30.7095 60.7441 30.6767 60.6742 30.692 60.5973C30.7122 60.4963 30.7778 60.4433 30.8526 60.3825Z" fill="white"/>
<path d="M48.6342 56.6168C48.7513 56.5999 48.8838 56.5845 48.9814 56.6682C49.0379 56.7167 49.0624 56.7767 49.0587 56.8505C49.0535 56.9532 48.977 57.0281 48.9126 57.0998C48.8179 57.1192 48.7064 57.1408 48.6234 57.074C48.5582 57.0214 48.5271 56.9561 48.5241 56.8728C48.5204 56.7681 48.5739 56.6955 48.6342 56.6168Z" fill="white"/>
<path d="M47.1536 56.9299C47.244 56.9534 47.3374 56.9786 47.4006 57.0523C47.4537 57.1144 47.4813 57.1974 47.4629 57.2784C47.433 57.4103 47.3385 57.4672 47.2293 57.5266C47.1337 57.4824 47.0492 57.4434 46.9871 57.3545C46.9421 57.2899 46.9335 57.2052 46.9575 57.1313C46.9883 57.0366 47.0757 56.982 47.1536 56.9299Z" fill="white"/>
<path d="M43.5637 52.1607C43.6547 52.1609 43.751 52.1542 43.834 52.1979C43.9012 52.2332 43.9625 52.2954 43.9782 52.3718C44.0029 52.4919 43.9381 52.5839 43.8721 52.6747C43.7849 52.6859 43.681 52.6939 43.5992 52.6567C43.5318 52.6259 43.4702 52.561 43.4562 52.4876C43.4298 52.3504 43.4861 52.2654 43.5637 52.1607Z" fill="white"/>
<path d="M44.9947 59.6084C45.0096 59.6085 45.0245 59.6081 45.0392 59.6086C45.148 59.6128 45.2373 59.6289 45.309 59.7192C45.3611 59.7847 45.3634 59.8558 45.3455 59.9341C45.3215 60.0395 45.2451 60.0967 45.1613 60.1551C45.1474 60.1551 45.1334 60.1557 45.1195 60.155C45.0114 60.1495 44.9214 60.1143 44.8563 60.0236C44.807 59.9547 44.8005 59.875 44.8221 59.7947C44.8474 59.7007 44.919 59.6581 44.9947 59.6084Z" fill="white"/>
<path d="M33.2466 56.6024C33.3517 56.6064 33.4477 56.6148 33.5311 56.689C33.5888 56.7402 33.621 56.8141 33.6146 56.8915C33.6034 57.0287 33.5148 57.0999 33.4166 57.181C33.3339 57.175 33.2407 57.1544 33.1754 57.1003C33.1156 57.0507 33.0786 56.9762 33.0805 56.898C33.0835 56.7672 33.1585 56.6865 33.2466 56.6024Z" fill="white"/>
<path d="M31.5038 58.4451C31.6177 58.4363 31.7464 58.4377 31.8313 58.5277C31.8722 58.5711 31.8872 58.6137 31.8912 58.6711C31.9009 58.8121 31.8207 58.8924 31.7307 58.9878C31.6342 58.9982 31.5482 58.9961 31.4657 58.9372C31.3991 58.8899 31.3615 58.8239 31.3562 58.7423C31.3474 58.6072 31.4144 58.5315 31.5038 58.4451Z" fill="white"/>
<path d="M30.3163 58.9998C30.43 58.9853 30.5335 58.9754 30.6362 59.0412C30.704 59.0847 30.7528 59.147 30.7624 59.2286C30.7775 59.357 30.712 59.4381 30.6317 59.5253C30.532 59.5429 30.4365 59.5522 30.3435 59.5041C30.2692 59.4655 30.2146 59.4057 30.1992 59.3209C30.1752 59.1879 30.2393 59.0977 30.3163 58.9998Z" fill="white"/>
<path d="M38.5047 61.3179C38.6218 61.3288 38.737 61.3465 38.8165 61.4447C38.8709 61.5121 38.9015 61.579 38.8876 61.6672C38.8674 61.795 38.7855 61.8495 38.6857 61.9134C38.5891 61.9081 38.498 61.8981 38.4212 61.8326C38.3605 61.781 38.3263 61.714 38.3267 61.6335C38.3274 61.493 38.4078 61.4076 38.5047 61.3179Z" fill="white"/>
<path d="M33.745 58.6687C33.8333 58.6917 33.937 58.7278 33.9931 58.8053C34.0462 58.8785 34.0675 58.94 34.0461 59.0304C34.0141 59.1652 33.9235 59.2203 33.8134 59.2852C33.7042 59.267 33.604 59.2415 33.5338 59.1478C33.4851 59.0828 33.4719 59.0077 33.4944 58.9297C33.533 58.7955 33.6304 58.7342 33.745 58.6687Z" fill="white"/>
<path d="M35.0581 42.6379C35.0787 42.6416 35.0994 42.645 35.12 42.6489C35.229 42.6698 35.3215 42.7145 35.3751 42.8176C35.4112 42.8869 35.4135 42.9567 35.3903 43.0305C35.3517 43.1525 35.2664 43.1959 35.1617 43.2514C35.0668 43.237 34.9712 43.2122 34.909 43.1328C34.8557 43.065 34.8277 42.9987 34.8406 42.9109C34.8608 42.7737 34.9484 42.7076 35.0581 42.6379Z" fill="white"/>
<path d="M40.4542 61.0661C40.5804 61.0572 40.687 61.0457 40.7899 61.1367C40.85 61.1899 40.8833 61.2614 40.8774 61.3423C40.8675 61.4763 40.7835 61.5466 40.6867 61.6243C40.5839 61.6371 40.4926 61.6432 40.4039 61.5754C40.3391 61.5261 40.307 61.4559 40.304 61.3753C40.2989 61.2364 40.3656 61.1595 40.4542 61.0661Z" fill="white"/>
<path d="M35.2821 60.7692C35.3833 60.7787 35.4841 60.795 35.559 60.8708C35.6237 60.9362 35.6397 61.0047 35.6279 61.0937C35.6098 61.23 35.5038 61.3087 35.3989 61.3806C35.3814 61.3803 35.3638 61.3806 35.3462 61.3799C35.2568 61.3763 35.1713 61.3347 35.1165 61.2626C35.0578 61.1852 35.0508 61.0886 35.0752 60.9971C35.1069 60.8788 35.1853 60.8295 35.2821 60.7692Z" fill="white"/>
<path d="M26.6634 56.4758C26.7582 56.4793 26.8503 56.4909 26.9324 56.5418C27.0113 56.5908 27.0776 56.6666 27.0865 56.7627C27.0989 56.8963 27.0208 56.9726 26.9334 57.0566C26.8008 57.0698 26.7095 57.0846 26.5961 56.9987C26.5881 56.9926 26.5805 56.986 26.5733 56.979C26.5661 56.972 26.5594 56.9645 26.553 56.9567C26.5467 56.9489 26.5408 56.9407 26.5355 56.9322C26.5301 56.9237 26.5253 56.9149 26.521 56.9058C26.5166 56.8967 26.5128 56.8874 26.5096 56.8779C26.5064 56.8683 26.5037 56.8586 26.5017 56.8488C26.4996 56.839 26.4981 56.829 26.4972 56.819C26.4963 56.809 26.496 56.799 26.4963 56.7889C26.4995 56.6559 26.5721 56.5632 26.6634 56.4758Z" fill="white"/>
<path d="M26.4074 50.737C26.4974 50.7577 26.5978 50.7934 26.6548 50.8709C26.7034 50.9369 26.71 51.0108 26.686 51.0878C26.6424 51.2279 26.5517 51.2821 26.4312 51.3486C26.377 51.3414 26.3098 51.3372 26.2589 51.3177C26.1751 51.2857 26.1422 51.2343 26.1002 51.1596C26.0914 51.0925 26.0889 51.0537 26.1119 50.9881C26.1613 50.8473 26.2833 50.7978 26.4074 50.737Z" fill="white"/>
<path d="M46.1955 58.4538C46.3121 58.481 46.4057 58.506 46.4665 58.6222C46.5081 58.7018 46.4999 58.771 46.4715 58.853C46.4262 58.9839 46.3207 59.0356 46.2054 59.0927C46.0895 59.0422 45.9753 58.9901 45.9242 58.8641C45.8939 58.7896 45.8833 58.7196 45.9183 58.6439C45.973 58.526 46.0815 58.4901 46.1955 58.4538Z" fill="white"/>
<path d="M24.5199 54.2197C24.6198 54.239 24.7161 54.2711 24.7859 54.3484C24.8452 54.4142 24.8724 54.4902 24.8601 54.5795C24.8412 54.7176 24.7535 54.7813 24.6499 54.8575C24.6133 54.8539 24.5766 54.8502 24.5404 54.8434C24.4402 54.8246 24.355 54.7635 24.3075 54.6724C24.2712 54.6028 24.2659 54.5279 24.2878 54.4531C24.3257 54.3242 24.4089 54.2791 24.5199 54.2197Z" fill="white"/>
<path d="M32.2796 59.9261C32.401 59.9184 32.5231 59.9199 32.6165 60.011C32.6797 60.0727 32.7091 60.1332 32.7059 60.223C32.7011 60.3612 32.6223 60.4363 32.5299 60.5265C32.4084 60.5376 32.3199 60.5386 32.2207 60.4519C32.1586 60.3976 32.1272 60.3263 32.1247 60.244C32.1202 60.1056 32.1872 60.0195 32.2796 59.9261Z" fill="white"/>
<path d="M38.9099 50.9928C38.9459 50.9968 38.9729 50.9987 39.0072 51.0058C39.1067 51.0262 39.1935 51.0973 39.2379 51.1885C39.2748 51.2643 39.2733 51.3528 39.2443 51.4307C39.2054 51.5351 39.1335 51.5769 39.0414 51.6296C39.0208 51.6273 39.0003 51.6253 38.9797 51.6226C38.8663 51.6078 38.7613 51.5577 38.7021 51.4546C38.6645 51.389 38.6617 51.3151 38.6819 51.2435C38.7179 51.1168 38.8029 51.0592 38.9099 50.9928Z" fill="white"/>
<path d="M36.7326 61.5459C36.8657 61.5371 36.9761 61.5312 37.0776 61.6352C37.1427 61.7019 37.161 61.7768 37.1544 61.8675C37.1443 62.0071 37.0475 62.0997 36.945 62.1807C36.9276 62.1809 36.9102 62.1814 36.8928 62.1811C36.7892 62.1797 36.7019 62.1363 36.6337 62.0593C36.5715 61.9891 36.5519 61.9057 36.5601 61.8146C36.5717 61.6877 36.6438 61.6245 36.7326 61.5459Z" fill="white"/>
<path d="M25.9044 55.2516C25.9181 55.2531 25.9318 55.2541 25.9454 55.256C26.0599 55.2727 26.1702 55.3048 26.235 55.4108C26.2788 55.4826 26.2968 55.5512 26.2756 55.6346C26.2425 55.7646 26.1529 55.8256 26.0419 55.8862C25.9074 55.8688 25.7814 55.8459 25.6981 55.7268C25.6532 55.6627 25.6405 55.5865 25.6604 55.511C25.6959 55.3771 25.7945 55.3194 25.9044 55.2516Z" fill="white"/>
<path d="M35.9372 57.2193C36.059 57.2364 36.1707 57.2585 36.2476 57.3663C36.3037 57.445 36.3201 57.5293 36.2929 57.6226C36.2516 57.7642 36.1516 57.8143 36.0297 57.8759C35.9108 57.8463 35.7992 57.8132 35.7241 57.7081C35.6766 57.6416 35.66 57.5574 35.6827 57.4784C35.7209 57.3454 35.8261 57.2846 35.9372 57.2193Z" fill="white"/>
<path d="M34.6695 48.449C34.7982 48.4397 34.9193 48.4357 35.0194 48.5336C35.0862 48.5988 35.1123 48.6561 35.1172 48.7494C35.1243 48.8854 35.0385 48.9808 34.9483 49.0692C34.818 49.0754 34.7014 49.0818 34.5952 48.9907C34.5275 48.9325 34.5021 48.8675 34.4989 48.7799C34.4939 48.6429 34.5829 48.543 34.6695 48.449Z" fill="white"/>
<path d="M30.7042 53.4205C30.8499 53.4163 30.9718 53.4138 31.0801 53.5288C31.087 53.5362 31.0936 53.5439 31.0998 53.552C31.106 53.5601 31.1117 53.5685 31.117 53.5772C31.1222 53.5859 31.127 53.5949 31.1314 53.6041C31.1357 53.6133 31.1395 53.6227 31.1428 53.6323C31.1462 53.6419 31.149 53.6517 31.1513 53.6616C31.1536 53.6715 31.1553 53.6815 31.1566 53.6916C31.1578 53.7017 31.1585 53.7118 31.1587 53.722C31.1588 53.7322 31.1585 53.7423 31.1576 53.7525C31.1463 53.8916 31.0641 53.9752 30.9651 54.0628C30.9567 54.0637 30.9483 54.065 30.9398 54.0656C30.8171 54.0745 30.709 54.0726 30.6141 53.9816C30.5429 53.9133 30.5123 53.8294 30.5207 53.7312C30.5328 53.5914 30.6052 53.5111 30.7042 53.4205Z" fill="white"/>
<path d="M39.7306 57.6779C39.8658 57.7072 39.966 57.7338 40.0432 57.8607C40.0913 57.9396 40.0968 58.0214 40.0772 58.1098C40.0481 58.2415 39.943 58.3178 39.8344 58.382C39.8218 58.3799 39.8092 58.3782 39.7967 58.3758C39.6745 58.3516 39.5738 58.3145 39.5055 58.2056C39.4533 58.1223 39.4365 58.0236 39.4698 57.9292C39.516 57.7976 39.6104 57.7345 39.7306 57.6779Z" fill="white"/>
<path d="M42.9312 48.1248C43.0643 48.133 43.1696 48.1373 43.2607 48.2519C43.3169 48.3225 43.3337 48.3992 43.3216 48.487C43.3013 48.6333 43.2221 48.7052 43.1124 48.795C42.9708 48.7821 42.8247 48.7762 42.7345 48.6477C42.6849 48.5768 42.6597 48.5036 42.6812 48.4168C42.7152 48.2792 42.8191 48.1987 42.9312 48.1248Z" fill="white"/>
<path d="M49.9572 54.6066C49.9866 54.6037 50.016 54.6005 50.0455 54.5992C50.1701 54.594 50.2837 54.6263 50.3691 54.722C50.425 54.7847 50.4513 54.8624 50.4455 54.9462C50.436 55.0863 50.3601 55.1675 50.2611 55.257C50.1118 55.2656 49.9921 55.271 49.8757 55.1646C49.8115 55.1061 49.7782 55.0281 49.7802 54.9407C49.7837 54.797 49.8641 54.7062 49.9572 54.6066Z" fill="white"/>
<path d="M28.0411 54.1616C28.0765 54.1704 28.0931 54.1737 28.1296 54.187C28.2395 54.227 28.3296 54.2952 28.3766 54.4052C28.412 54.4879 28.4105 54.5776 28.3737 54.6596C28.3116 54.7979 28.2094 54.8341 28.0754 54.8799C28.0365 54.8695 28.0212 54.8661 27.9805 54.8513C27.8661 54.8096 27.7759 54.7465 27.7305 54.629C27.6973 54.5432 27.7056 54.4652 27.743 54.3818C27.7986 54.2577 27.9215 54.2044 28.0411 54.1616Z" fill="white"/>
<path d="M49.8551 50.6129C49.9834 50.647 50.1023 50.7034 50.1663 50.8262C50.2148 50.9196 50.2121 51.0117 50.1717 51.1085C50.117 51.2399 49.9953 51.2878 49.8708 51.3316C49.8247 51.3178 49.8235 51.3184 49.7734 51.2985C49.6601 51.2534 49.5689 51.181 49.5259 51.064C49.4957 50.9816 49.5019 50.8932 49.5449 50.8159C49.6135 50.6923 49.7278 50.6527 49.8551 50.6129Z" fill="white"/>
<path d="M35.9695 59.3535C36.0162 59.3504 36.0659 59.345 36.1129 59.3503C36.2184 59.3623 36.3289 59.4381 36.3825 59.5286C36.4293 59.6075 36.4389 59.7058 36.42 59.7946C36.3886 59.9421 36.3016 60.0015 36.1829 60.0797C36.1735 60.0803 36.1642 60.0815 36.1548 60.0813C36.0229 60.0801 35.8878 60.0324 35.8069 59.9234C35.7522 59.8495 35.7358 59.7574 35.7471 59.6679C35.7664 59.515 35.854 59.4442 35.9695 59.3535Z" fill="white"/>
<path d="M23.386 47.7721C23.4277 47.7675 23.4574 47.7632 23.5006 47.7634C23.6172 47.7641 23.7222 47.8082 23.7959 47.9002C23.8544 47.9733 23.8743 48.0613 23.8655 48.1526C23.8505 48.3073 23.7687 48.3868 23.6569 48.4852C23.6231 48.4916 23.5893 48.4988 23.5551 48.5028C23.4523 48.515 23.3516 48.489 23.2753 48.4162C23.2116 48.3553 23.1807 48.2671 23.1806 48.1802C23.1806 47.9959 23.2554 47.8917 23.386 47.7721Z" fill="white"/>
<path d="M31.7417 50.6727C31.7767 50.6699 31.8117 50.6663 31.8468 50.6661C31.9502 50.6658 32.0628 50.709 32.1282 50.7925C32.191 50.8727 32.2161 50.9622 32.203 51.0638C32.1834 51.2156 32.0965 51.3067 31.9828 51.3996C31.8528 51.4025 31.7081 51.4 31.6077 51.3038C31.5341 51.2332 31.4961 51.1532 31.5032 51.0498C31.5152 50.8748 31.6154 50.7809 31.7417 50.6727Z" fill="white"/>
<path d="M43.8999 55.4835C43.9485 55.4802 43.9972 55.477 44.0458 55.4775C44.1571 55.4786 44.2535 55.5264 44.3235 55.6139C44.3854 55.6911 44.4069 55.7879 44.3902 55.8849C44.3634 56.0407 44.2683 56.1244 44.1425 56.2077C44.1007 56.2111 44.0582 56.2157 44.0162 56.2116C43.9042 56.2006 43.7831 56.1273 43.7223 56.0328C43.6725 55.9557 43.6585 55.8571 43.6751 55.7679C43.7021 55.6232 43.7863 55.5627 43.8999 55.4835Z" fill="white"/>
<path d="M28.8149 43.1891C28.8522 43.1981 28.8895 43.2073 28.926 43.2192C29.0369 43.2555 29.1219 43.3275 29.1723 43.4335C29.219 43.5316 29.2164 43.6446 29.1779 43.7449C29.1163 43.9054 29.0089 43.9686 28.8596 44.039C28.8399 44.0346 28.8201 44.0307 28.8005 44.0261C28.6827 43.998 28.574 43.9284 28.5163 43.8194C28.4652 43.723 28.4636 43.6142 28.4974 43.5118C28.5539 43.3401 28.6614 43.2707 28.8149 43.1891Z" fill="white"/>
<path d="M24.7055 43.672C24.7633 43.6678 24.8244 43.6675 24.8821 43.6754C24.9871 43.6899 25.0862 43.7555 25.1456 43.8428C25.2069 43.933 25.2198 44.0439 25.1958 44.1489C25.1572 44.3176 25.059 44.3876 24.9195 44.4771C24.7867 44.4843 24.6732 44.4678 24.5717 44.3734C24.494 44.301 24.4644 44.2007 24.4684 44.0973C24.4757 43.9074 24.5687 43.7927 24.7055 43.672Z" fill="white"/>
<path d="M38.812 46.551C38.8738 46.5482 38.9298 46.5498 38.9899 46.5648C39.1037 46.593 39.2229 46.6653 39.2763 46.7741C39.3226 46.8686 39.3243 46.9773 39.2931 47.0771C39.2437 47.2353 39.1169 47.3069 38.9806 47.3837C38.9196 47.3859 38.8588 47.3764 38.7997 47.3613C38.6895 47.3331 38.5889 47.263 38.5332 47.1625C38.4811 47.0686 38.476 46.9576 38.506 46.8558C38.5538 46.6933 38.6697 46.6253 38.812 46.551Z" fill="white"/>
<path d="M28.1949 47.1897C28.2365 47.1922 28.2784 47.195 28.3198 47.2009C28.4468 47.219 28.5671 47.2947 28.64 47.4006C28.7142 47.5084 28.732 47.6372 28.7073 47.7642C28.6678 47.9677 28.5389 48.0782 28.3708 48.1838C28.312 48.1787 28.2508 48.1741 28.1936 48.1593C28.0721 48.1281 27.9548 48.029 27.8943 47.9204C27.8869 47.9067 27.88 47.8927 27.8739 47.8783C27.8678 47.8639 27.8624 47.8493 27.8578 47.8344C27.8531 47.8195 27.8491 47.8044 27.8459 47.7891C27.8428 47.7738 27.8403 47.7584 27.8387 47.7428C27.837 47.7273 27.8361 47.7117 27.836 47.6961C27.8359 47.6804 27.8365 47.6649 27.838 47.6493C27.8394 47.6337 27.8415 47.6182 27.8445 47.6029C27.8474 47.5876 27.8511 47.5724 27.8556 47.5574C27.909 47.3705 28.0325 47.2804 28.1949 47.1897Z" fill="white"/>
</g>
<defs>
<clipPath id="clip0_107_4636">
<rect width="66" height="66" rx="10" fill="white"/>
</clipPath>
</defs>
</svg>
