<svg width="66" height="66" viewBox="0 0 66 66" fill="none" xmlns="http://www.w3.org/2000/svg">
<g clip-path="url(#clip0_107_4615)">
<path d="M0 0H66V66H0V0Z" fill="#1C1C1C"/>
<path d="M32.7704 7.67483C32.8357 7.66973 32.9019 7.66484 32.9675 7.66774C33.3762 7.68591 33.8303 7.98349 34.1626 8.19864C34.6952 8.54359 35.2152 8.90872 35.6906 9.3303C36.58 10.119 37.3491 11.0512 38.2002 11.8828C38.8536 12.5212 39.5752 13.0917 40.202 13.7564C40.6131 14.1925 40.9489 14.6923 41.3808 15.1106C42.0229 15.7324 42.8702 16.1611 43.438 16.8533C44.0036 17.543 44.0887 18.6093 44.6287 19.1733C45.3028 19.8771 46.3604 20.0728 47.0881 20.984C47.9023 22.0035 48.2849 23.5576 48.9396 24.7068C49.177 25.1234 49.6922 25.2985 49.9983 25.6613C50.3657 26.0966 50.3089 26.6987 50.6073 27.0726C50.8648 27.3954 51.3639 27.5362 51.6812 27.8143C52.1794 28.251 52.485 28.8094 52.9394 29.2712C53.3894 29.4389 53.8692 29.4302 54.3194 29.6396C54.7007 29.8169 55.0331 30.0758 55.3194 30.3824C56.3788 31.5171 55.9095 32.5059 56.7105 33.4155C57.3881 34.1849 58.4547 34.4711 59.0414 35.3552C59.3896 35.88 59.3048 36.578 59.6784 37.0583C59.8784 37.3154 60.1604 37.5191 60.407 37.7296C61.3115 38.5018 61.2601 39.05 61.9034 39.7878C62.2571 40.1934 62.8042 40.4721 63.0087 40.9921C63.2155 41.5181 63.0189 42.1578 63.2903 42.6449C63.7339 43.4408 64.3814 43.2252 64.4789 44.5671C64.5563 45.6282 63.9433 47.2615 62.9986 47.8221C62.5198 48.1061 61.9474 48.1842 61.5819 48.6434C60.9845 49.3937 61.106 50.3577 60.2211 50.9541C59.8152 51.2276 59.3476 51.3276 58.8734 51.4115C57.5886 51.6386 56.7229 52.0166 55.8336 53.0151C55.6186 53.2565 55.4316 53.5219 55.2186 53.7653C54.5835 54.4905 53.5899 54.895 52.6378 54.9472C52.047 54.9795 51.4628 54.9383 50.884 55.091C49.8972 55.3514 49.3293 56.2271 48.298 56.4992C47.5108 56.707 46.6819 56.6089 45.8833 56.7449C45.3322 56.8386 44.7956 57.0342 44.2625 57.1976C43.2934 57.4947 42.3984 57.6172 41.3874 57.5864C40.1465 57.5485 38.9369 57.1569 37.6943 57.2515C36.7763 57.3213 35.9204 57.6268 35.034 57.8464C34.76 57.9152 34.4834 57.971 34.2043 58.0138C33.9251 58.0567 33.6445 58.0865 33.3626 58.1031C32.6227 58.1354 31.893 58.1368 31.155 58.0666C30.2473 57.9802 29.3475 57.8184 28.4347 57.784C27.5598 57.7509 26.3185 57.9534 25.5423 57.7985C24.671 57.6245 24.1968 56.9019 23.0728 56.7638C22.2323 56.6605 21.3883 56.7003 20.5443 56.7039C19.2888 56.709 18.0965 56.5782 16.8937 56.2043C15.8586 55.8825 15.0056 55.309 14.0641 54.8025C13.7769 54.6461 13.4826 54.5041 13.1814 54.3764C12.8802 54.2487 12.5736 54.1361 12.2614 54.0383C11.7774 53.8881 11.2851 53.7737 10.7845 53.6953C10.0516 53.5847 9.21347 53.5836 8.53529 53.2643C8.01799 53.0208 7.82792 52.4661 7.50804 52.0351C7.35181 51.8248 7.16077 51.6393 6.95445 51.4786C6.05562 50.7785 4.85864 50.5953 3.90128 49.9969C3.39175 49.6785 2.97898 49.2434 2.83035 48.6483C2.78444 48.4645 2.75402 48.2234 2.65009 48.0644C2.53918 47.8948 2.3821 47.7705 2.23183 47.6378C1.788 47.2458 1.48037 46.8423 1.35269 46.2506C1.15649 45.3414 1.58898 44.4529 2.31746 43.9143C2.66768 43.6553 3.07265 43.4683 3.3195 43.0929C3.48031 42.8482 3.57947 42.5674 3.69106 42.2983C3.90849 41.7738 4.16669 41.2407 4.55332 40.8178C4.90586 40.4323 5.73272 40.0143 5.93136 39.6684C6.1189 39.3419 6.1404 38.8862 6.2402 38.5228C6.36543 38.0667 6.95935 36.8254 7.25055 36.4508C7.60859 35.9903 8.36475 36.029 8.76745 35.4265C9.34599 34.5607 9.39851 33.4527 10.0583 32.6272C10.3554 32.2555 10.75 31.9295 11.2019 31.7677C11.4894 31.6647 11.8002 31.5963 12.034 31.3881C12.6625 30.8285 12.6164 29.9471 13.08 29.311C13.3945 28.8795 13.9525 28.7652 14.2625 28.2838C15.1288 26.9385 15.0789 25.1104 15.9677 23.7303C16.6046 22.7414 17.0496 22.8069 18.0813 22.5822C18.5037 21.7197 18.703 20.8983 19.3894 20.1631C19.6961 19.8347 20.1728 19.621 20.4129 19.2431C20.8259 18.5931 20.9878 17.7808 21.3646 17.0999C21.7266 16.4457 22.0947 16.1528 22.7792 15.8775C23.009 15.785 23.2135 15.6889 23.3964 15.5168C24.1038 14.8516 24.4637 13.8761 25.2049 13.2347C25.6717 12.8309 26.335 12.6803 26.6716 12.3541C27.4854 11.5656 27.961 10.4428 28.8581 9.73565C29.4237 9.28989 29.9279 9.65109 30.4222 9.38393C30.6227 9.27552 30.8073 9.07971 30.9705 8.9218C31.5133 8.39644 32.0235 7.88907 32.7704 7.67483Z" fill="white"/>
<path d="M42.8157 45.5767C42.9756 45.6641 43.2972 46.0046 43.331 46.1839C43.3478 46.2735 43.3175 46.2922 43.2663 46.3598C43.0918 46.3834 42.9168 46.3787 42.7412 46.3776C42.7622 46.1103 42.787 45.8433 42.8157 45.5767Z" fill="#1C1C1C"/>
<path d="M62.3743 42.5629C62.5242 42.7379 62.5576 43.031 62.7101 43.2263C62.9562 43.5418 63.3387 43.73 63.55 44.0803C63.7857 44.471 63.7516 45.027 63.6419 45.4556C63.5621 45.7676 63.4305 46.0661 63.2815 46.3508C62.5708 47.7079 61.7004 47.2066 60.9349 48.2168C60.468 48.8331 60.4106 49.7917 59.8443 50.2818C59.3838 50.6803 58.4907 50.656 57.9171 50.7994C57.4662 50.9121 57.0158 51.0848 56.6126 51.3172C56.1543 51.5814 55.7374 51.9496 55.3829 52.3401C54.8983 52.8741 54.4862 53.5662 53.8095 53.8777C52.702 54.3877 51.43 54.0218 50.3021 54.4546C49.6468 54.706 49.2187 55.2008 48.6283 55.5389C47.7846 56.022 46.7391 55.7894 45.8145 55.9583C45.2962 56.0529 44.8001 56.2267 44.2972 56.3797C43.4807 56.6283 42.6726 56.785 41.8162 56.7867C41.3376 56.7877 40.8481 56.7593 40.3744 56.6902C39.6254 56.5808 38.891 56.4116 38.1298 56.4067C36.9439 56.399 35.8506 56.826 34.71 57.085C34.3425 57.1648 33.9718 57.2244 33.5978 57.2638C33.2237 57.3031 32.8487 57.322 32.4726 57.3204C31.1006 57.3227 29.7546 57.0617 28.3878 56.9949C27.5857 56.9556 26.5183 57.1536 25.7813 56.9888C25.4082 56.9054 25.083 56.7082 24.748 56.5334C24.2143 56.255 23.6761 56.0369 23.0753 55.9591C22.1395 55.838 21.1882 55.9008 20.2475 55.8985C19.3579 55.8962 18.4285 55.8031 17.569 55.5723C15.899 55.1237 14.5628 53.991 12.9514 53.3979C12.1931 53.1189 11.3565 52.9428 10.554 52.846C10.0949 52.7906 9.58974 52.7866 9.14534 52.6567C8.65981 52.5149 8.33084 51.8514 8.03571 51.4689C7.87621 51.2605 7.69789 51.0696 7.50075 50.8964C6.41769 49.9551 4.75634 49.8384 3.91166 49.0443C3.54408 48.6987 3.63104 48.1769 3.36781 47.7664C3.04997 47.2707 2.50021 47.0032 2.2199 46.471C2.03659 46.1229 2.00234 45.7699 2.11281 45.3945C2.39135 44.8203 2.82721 44.4927 3.32975 44.1253C3.31619 44.2694 3.29914 44.4163 3.29867 44.5612C3.29363 46.0939 4.47511 45.705 5.08548 46.4493C5.45667 46.9019 5.45294 47.5361 5.89954 47.9605C6.4755 48.5079 7.65828 48.5798 8.39575 48.9241C9.52581 49.4517 10.9079 50.998 12.1015 51.1215C13.1493 51.23 14.066 50.5393 15.0845 50.5108C16.1954 50.4796 16.1951 51.6859 16.8535 52.2755C17.248 52.6288 18.1568 52.6752 18.6661 52.7751C19.36 52.9112 20.0748 53.2785 20.7738 53.3212C22.1078 53.4028 23.5718 52.2065 25.2145 52.1979C26.6081 52.1906 27.7952 52.8661 28.9283 53.6027C29.353 53.8788 29.7947 54.1903 30.2983 54.2991C30.3349 54.3068 30.3718 54.3135 30.4089 54.3191C31.2816 54.4581 31.8363 53.9921 32.5844 53.6638C32.6898 53.6175 32.7974 53.5768 32.9071 53.5416C33.0167 53.5063 33.1278 53.4768 33.2405 53.4529C33.3532 53.4289 33.4667 53.4108 33.5813 53.3985C33.6958 53.3862 33.8106 53.3797 33.9258 53.3791C35.7442 53.3659 36.8165 54.5969 38.9225 54.4242C39.8421 54.3488 40.618 53.9261 41.37 53.4199C41.7572 53.1593 42.1261 52.9019 42.5749 52.7554C43.9049 52.3213 44.9432 53.0957 46.1876 52.9977C47.2926 52.9107 47.8628 51.9323 48.6671 51.3119C48.7314 51.2633 48.7969 51.2164 48.8635 51.1712C48.9302 51.126 48.998 51.0825 49.067 51.0408C49.1359 50.999 49.2058 50.9591 49.2768 50.9211C49.3478 50.883 49.4198 50.8467 49.4927 50.8123C49.5655 50.778 49.6393 50.7455 49.7138 50.7149C49.7884 50.6843 49.8636 50.6557 49.9397 50.629C50.0157 50.6024 50.0924 50.5777 50.1697 50.555C50.247 50.5323 50.3248 50.5116 50.4032 50.4929C51.7524 50.1598 52.9893 50.4444 54.335 50.4107C55.81 50.3738 56.5339 49.7558 57.1468 48.4644C57.3348 48.0683 57.5198 47.6456 57.8825 47.3756C58.2749 47.0834 58.7965 47.0702 59.2518 46.9406C60.0269 46.7199 61.3934 46.0854 61.9433 45.4852C62.6915 44.6687 61.9886 44.1302 61.9749 43.3628C61.9686 43.0164 62.1466 42.7967 62.3743 42.5629Z" fill="#1C1C1C"/>
<path d="M59.2216 37.7529C59.3713 37.8057 59.5169 37.9531 59.6401 38.0525C60.5975 38.8253 60.587 39.4343 61.2792 40.2485C61.568 40.5882 62.0227 40.8097 62.2641 41.1833C62.3225 41.2736 62.3526 41.3661 62.369 41.472C62.4691 42.116 61.7103 42.4427 61.5746 43.1001C61.4468 43.7194 61.9353 44.2793 61.7977 44.8511C61.7608 45.0043 61.676 45.1327 61.5635 45.2414C61.1003 45.6893 59.8607 46.2989 59.247 46.4912C58.8027 46.6304 58.3154 46.6496 57.8921 46.8495C56.6304 47.4451 56.8396 49.2215 55.3461 49.8019C54.3868 50.1747 53.1948 49.8973 52.1941 49.8618C51.9326 49.8536 51.6713 49.8598 51.4104 49.8802C51.1495 49.9006 50.8905 49.9353 50.6335 49.9841C49.7016 50.1671 48.7857 50.5625 48.0805 51.2074C47.5873 51.6584 47.1339 52.2789 46.4763 52.4899C45.3289 52.8579 43.9174 51.7119 42.2003 52.414C41.6386 52.6437 41.1568 53.057 40.6386 53.3696C37.7745 55.0973 36.2275 52.7583 33.6069 52.928C32.3275 53.0109 31.5215 54.0897 30.3755 53.8311C29.8319 53.7085 29.3718 53.346 28.9129 53.0476C27.948 52.4201 26.7657 51.8487 25.6044 51.774C24.5133 51.7039 23.6145 52.0051 22.6182 52.4018C22.0712 52.6196 21.5356 52.8377 20.9373 52.8489C20.2145 52.8624 19.5838 52.4754 18.8912 52.3304C18.4759 52.2435 18.0327 52.2665 17.6252 52.1552C16.9775 51.9781 16.7917 51.3706 16.4951 50.8505C16.2947 50.4991 16.0279 50.1978 15.6258 50.0813C14.4123 49.7297 13.2806 50.9122 12.0735 50.6385C10.9581 50.3856 9.80846 49.1252 8.77753 48.5798C8.19836 48.2734 7.56362 48.1745 6.94017 48.0031C5.9093 47.7197 5.98214 47.0649 5.53129 46.293L5.50879 46.2551C5.09375 45.6341 4.38398 45.6851 4.05638 45.174C3.81105 44.7913 3.86181 44.2381 3.95876 43.8133C4.14723 42.9874 4.55349 41.9111 5.14195 41.2951C5.35579 41.0712 5.60915 40.9072 5.87025 40.7443C5.85989 41.0037 5.85015 41.2593 5.94354 41.507C6.3043 42.4639 7.58637 42.6395 8.22717 43.3556C8.66919 43.8496 8.87872 44.56 9.49902 44.8778C10.5501 45.4164 11.9338 44.4714 13.1153 44.876C14.5339 45.3619 15.0877 47.1218 16.7509 47.4571C17.6832 47.645 18.533 47.1934 19.4091 46.9544C19.9469 46.8076 20.4972 46.7295 21.0551 46.7615C22.3588 46.8361 23.3164 47.5425 24.357 48.2444C24.7109 48.4831 25.0761 48.7287 25.4928 48.8422C26.6006 49.1438 27.458 48.2374 28.7028 48.4619C29.6685 48.6362 30.5535 49.1838 31.4394 49.5841C34.1465 50.8075 34.5452 49.6066 36.742 48.3524C37.4935 47.9234 38.3078 47.7448 39.0965 47.419C39.6222 47.2019 40.0587 46.8562 40.6419 46.7978C42.2211 46.6395 43.6321 48.3183 45.2107 47.6786C46.6825 47.0823 47.2211 45.1389 48.5576 44.3516C49.3307 43.8961 49.868 44.3515 50.4912 44.0858C50.7308 43.9837 50.9181 43.7734 51.1034 43.5965C51.5607 43.1598 52.1149 42.6804 52.7545 42.557C52.7734 42.5534 52.7924 42.5501 52.8115 42.5473C53.7267 42.4139 54.6176 43.1647 55.5354 42.8189C56.5985 42.4182 56.5914 40.9847 57.3888 40.5026C57.7245 40.2997 58.3017 40.396 58.7103 40.2332C59.1223 40.0691 59.4577 39.773 59.6321 39.3597C59.8969 38.7325 59.4441 38.3273 59.2345 37.7878C59.2301 37.7763 59.2259 37.7646 59.2216 37.7529Z" fill="#1C1C1C"/>
<path d="M57.0783 43.5737C57.1198 43.5696 57.1606 43.5655 57.2025 43.5657C57.3422 43.5665 57.4896 43.6285 57.5853 43.7313C57.6462 43.7966 57.6767 43.8845 57.6618 43.9735C57.644 44.0796 57.5528 44.1458 57.4767 44.212C57.4235 44.2168 57.3679 44.2221 57.3147 44.2167C57.1686 44.202 56.9831 44.0893 56.9088 43.9611C56.8668 43.8887 56.8485 43.8105 56.8799 43.7293C56.9169 43.6334 56.9939 43.6151 57.0783 43.5737Z" fill="white"/>
<path d="M32.8543 8.50723C34.0456 8.46901 36.4076 11.2429 37.2558 12.0604C37.967 12.7457 38.7384 13.3651 39.4101 14.0915C39.8983 14.6194 40.284 15.2508 40.8025 15.7463C41.4222 16.3389 42.2711 16.6329 42.8248 17.3127C43.3925 18.0099 43.3612 19.0644 43.9551 19.7169C44.6481 20.4785 45.7949 20.6135 46.4268 21.463C47.0373 22.2839 47.4683 23.4364 47.8714 24.3809C48.0045 24.693 48.115 25.0444 48.287 25.3357C48.5278 25.7435 49.1731 25.8588 49.445 26.3174C49.6931 26.7357 49.6573 27.2655 49.9909 27.6428C50.3368 28.0341 50.8695 28.1612 51.2539 28.5046C51.7573 28.9543 52.0308 29.7027 52.6221 30.04C53.2927 30.4228 53.8576 30.0967 54.5776 30.7827C55.5559 31.7147 55.1511 32.8512 56.0971 33.9496C56.7246 34.6783 57.4223 34.7949 58.0703 35.3581C58.295 35.5534 58.464 35.7917 58.564 36.0732C58.7529 36.6047 58.6402 37.1553 58.7686 37.694C58.877 38.1484 59.2196 38.5629 59.2682 39.0196C59.27 39.0362 59.2729 39.053 59.2714 39.0697C59.2628 39.1628 59.1895 39.2958 59.1408 39.3742C58.6761 40.1229 57.734 39.7297 57.1132 40.1421C56.3374 40.6575 56.274 41.8718 55.5158 42.3235C54.9584 42.6555 54.2255 42.3098 53.6577 42.1697C51.9736 41.7542 51.4236 42.9772 50.187 43.7294C49.7674 43.7232 49.352 43.6152 48.9345 43.7151C47.195 44.1312 46.4734 46.8249 44.9056 47.3134C44.176 47.5407 43.3848 47.1632 42.7492 46.8316C43.0182 46.8564 43.2498 46.8189 43.5005 46.7156C43.6365 46.6595 43.7597 46.5681 43.8109 46.4254C43.8686 46.2649 43.8198 46.0932 43.7433 45.9479C43.5643 45.6081 43.1399 45.0997 42.7638 44.9943C42.665 44.9667 42.6115 44.9834 42.5261 45.0348C42.3584 45.2949 42.2602 46.2105 42.1733 46.5786C41.9193 46.5128 41.6649 46.4455 41.4068 46.3977C40.1733 46.1693 39.8812 46.6284 38.8373 47.0525C38.2872 47.276 37.703 47.407 37.1554 47.639C36.3249 47.9908 35.5922 48.5814 34.8548 49.0928C34.6804 49.205 34.5041 49.3137 34.3184 49.4063C32.4963 50.3144 30.4671 48.1987 28.5254 47.9832C28.4436 47.9744 28.3616 47.9692 28.2794 47.9676C28.1971 47.9659 28.115 47.9678 28.0329 47.9733C27.9508 47.9788 27.8691 47.9878 27.7878 48.0004C27.7065 48.013 27.6259 48.0291 27.5461 48.0488C26.9614 48.1967 26.2872 48.6129 25.67 48.4397C25.241 48.3194 24.8392 48.0466 24.4746 47.799C23.6104 47.2122 22.7501 46.5812 21.6978 46.3935C21.6016 46.3765 21.5049 46.362 21.4079 46.3502C21.3109 46.3384 21.2136 46.3292 21.116 46.3226C21.0185 46.316 20.9208 46.3121 20.8231 46.3107C20.7254 46.3093 20.6277 46.3106 20.53 46.3146C20.4323 46.3185 20.3348 46.325 20.2375 46.3342C20.1401 46.3433 20.0431 46.3551 19.9465 46.3695C19.8497 46.3839 19.7535 46.4008 19.6577 46.4204C19.5619 46.44 19.4668 46.4621 19.3722 46.4867C18.5704 46.6953 17.7331 47.1701 16.8818 47.0085C15.3131 46.7107 14.7257 44.9502 13.278 44.4357C12.0433 43.9968 10.7452 44.854 9.82533 44.5137C9.23861 44.2967 9.06968 43.6536 8.71802 43.2028C8.13885 42.4604 6.69278 42.0922 6.39348 41.4C6.20904 40.9734 6.54292 40.5165 6.66042 40.1166C6.74846 39.8169 6.7756 39.4944 6.85094 39.1899C6.98881 38.6328 7.43682 37.4678 7.8189 37.0344C8.24629 36.5496 8.8809 36.5737 9.41031 35.8078C9.86748 35.1462 9.98872 34.3757 10.3033 33.6557C10.6907 32.7691 11.124 32.6262 11.9668 32.291C12.6738 32.0098 13.0649 31.4199 13.3163 30.7259C13.4063 30.4774 13.4736 30.2057 13.6069 29.9768C13.7884 29.6647 14.1523 29.491 14.418 29.2564C14.6308 29.0685 14.8056 28.8423 14.9487 28.598C15.6552 27.3922 15.7569 25.9299 16.3057 24.6584C16.6032 23.9691 16.9638 23.5394 17.7466 23.446C17.9658 23.4199 18.2 23.4096 18.4052 23.3218C18.5268 23.2698 18.6343 23.1873 18.7099 23.0783C18.993 22.6707 19.1529 21.7703 19.5005 21.214C19.9079 20.5619 20.2581 20.5883 20.6709 20.1794C21.1173 19.7373 21.4593 18.7002 21.7187 18.1024C21.8851 17.7186 22.1042 17.223 22.402 16.9237C22.809 16.5146 23.4309 16.621 23.8506 16.2289C24.579 15.5482 25.01 14.5179 25.7015 13.7874C26.0765 13.3912 26.6247 13.4673 27.0027 13.1363C27.8388 12.4041 28.6487 10.6309 29.5804 10.2616C29.802 10.3112 30.0496 10.3983 30.2772 10.3624C30.8876 10.2662 31.5946 9.39874 32.0751 9.00493C32.3183 8.80571 32.5711 8.64303 32.8543 8.50723Z" fill="#1C1C1C"/>
<path d="M51.9597 31.258C51.9922 31.2566 52.0247 31.2549 52.0572 31.2551C52.2214 31.2556 52.3205 31.3048 52.4333 31.4248C52.5804 31.5812 52.7134 31.8136 52.6808 32.038C52.6641 32.153 52.6188 32.1684 52.5351 32.2357C52.5179 32.2388 52.5009 32.2424 52.4836 32.2452C52.3654 32.2647 52.2552 32.2391 52.1609 32.1654C51.9839 32.0271 51.8778 31.8255 51.8554 31.6033C51.8402 31.4529 51.8649 31.3739 51.9597 31.258Z" fill="white"/>
<path d="M28.5668 43.7661C28.6521 43.7647 28.7448 43.772 28.8261 43.8003C28.9071 43.8284 28.9728 43.8945 29.0029 43.9746C29.0473 44.0926 29.013 44.222 28.9608 44.3309C28.853 44.5558 28.7018 44.6675 28.4709 44.7462C28.4197 44.7342 28.3698 44.722 28.3196 44.7061C28.1951 44.6668 28.1009 44.609 28.0496 44.4825C28.0038 44.3696 28.0234 44.2468 28.0767 44.141C28.1803 43.9357 28.3534 43.8286 28.5668 43.7661Z" fill="white"/>
<path d="M19.6536 34.6106C19.8217 34.6094 19.9708 34.6065 20.0997 34.7317C20.1907 34.8202 20.2254 34.9425 20.2196 35.0671C20.2068 35.3409 20.0584 35.5034 19.8622 35.672C19.7852 35.6797 19.7111 35.6855 19.6349 35.6677C19.5252 35.6421 19.438 35.5598 19.3846 35.4632C19.3008 35.3118 19.2972 35.1288 19.345 34.9655C19.3982 34.784 19.4901 34.6966 19.6536 34.6106Z" fill="white"/>
<path d="M32.346 38.09C32.415 38.0905 32.488 38.0894 32.5552 38.1063C32.6963 38.1419 32.8027 38.2603 32.8678 38.3857C32.9538 38.5512 32.9703 38.7538 32.9019 38.9287C32.84 39.0872 32.7188 39.1507 32.5717 39.2188C32.3942 39.1922 32.2387 39.1569 32.1246 39.0084C32.1131 38.9934 32.1025 38.9779 32.0927 38.9618C32.0828 38.9457 32.0738 38.9291 32.0657 38.9121C32.0575 38.8951 32.0502 38.8777 32.0438 38.86C32.0374 38.8422 32.0319 38.8242 32.0274 38.8059C32.0228 38.7876 32.0192 38.7691 32.0165 38.7504C32.0139 38.7318 32.0122 38.713 32.0115 38.6942C32.0107 38.6753 32.0109 38.6564 32.012 38.6376C32.0132 38.6188 32.0153 38.6001 32.0184 38.5815C32.0516 38.3681 32.1717 38.2095 32.346 38.09Z" fill="white"/>
<path d="M23.6177 30.9013C23.6624 30.9011 23.7068 30.9003 23.7514 30.9055C23.9011 30.9227 24.0241 30.9784 24.117 31.0996C24.2096 31.2203 24.2326 31.3753 24.2074 31.5227C24.1657 31.7666 24.0429 31.8984 23.8435 32.0316C23.7813 32.05 23.7124 32.0736 23.6467 32.067C23.5476 32.0569 23.4579 31.9907 23.4022 31.911C23.2864 31.7454 23.2824 31.5083 23.323 31.3176C23.3638 31.1256 23.4573 31.0085 23.6177 30.9013Z" fill="white"/>
<path d="M25.5263 17.1374C25.5711 17.1382 25.6314 17.1339 25.6741 17.146C25.7476 17.167 25.7588 17.1974 25.7955 17.258C25.8079 17.601 25.2219 18.0423 25.0015 18.2731C24.8638 18.4175 24.7401 18.5764 24.6169 18.7332C24.5299 18.7292 24.4431 18.7309 24.3784 18.6605C24.3398 18.6185 24.3245 18.5795 24.3246 18.5242C24.3251 18.138 25.2305 17.4215 25.5263 17.1374Z" fill="white"/>
<path d="M25.4684 22.3346C25.5498 22.3292 25.6323 22.3232 25.7126 22.3408C25.8392 22.3685 25.94 22.4476 26.0065 22.558C26.0821 22.6833 26.0928 22.8452 26.0571 22.9851C26.0024 23.1993 25.8817 23.3139 25.6993 23.4268C25.6294 23.437 25.5548 23.4502 25.4843 23.4419C25.3625 23.4276 25.2579 23.3543 25.1915 23.2528C25.0891 23.096 25.0884 22.8964 25.134 22.7205C25.1873 22.5152 25.2931 22.4412 25.4684 22.3346Z" fill="white"/>
<path d="M39.5983 26.1115C39.6791 26.0986 39.7673 26.0857 39.8492 26.0969C40.0196 26.1203 40.1971 26.2534 40.289 26.3947C40.3675 26.5153 40.4012 26.6568 40.365 26.798C40.3202 26.9722 40.2202 27.0587 40.0692 27.1438C39.9932 27.1571 39.9155 27.1709 39.8381 27.1645C39.6881 27.152 39.556 27.0513 39.4681 26.9337C39.4553 26.9169 39.4433 26.8993 39.4322 26.8812C39.4211 26.8631 39.4109 26.8445 39.4017 26.8253C39.3925 26.8062 39.3843 26.7867 39.377 26.7667C39.3697 26.7467 39.3635 26.7264 39.3583 26.7058C39.3531 26.6853 39.349 26.6645 39.3459 26.6434C39.3427 26.6224 39.3407 26.6013 39.3397 26.5801C39.3387 26.5589 39.3388 26.5376 39.34 26.5164C39.3412 26.4952 39.3434 26.4741 39.3466 26.4531C39.3728 26.288 39.4692 26.2052 39.5983 26.1115Z" fill="white"/>
<path d="M31.9192 32.4825C31.9684 32.4914 32.0181 32.5005 32.066 32.5151C32.2029 32.5567 32.3132 32.6585 32.3746 32.7868C32.4463 32.9367 32.4389 33.107 32.3804 33.2598C32.2995 33.4707 32.1572 33.5576 31.96 33.6479C31.9101 33.6469 31.8575 33.6465 31.8087 33.636C31.6813 33.6086 31.5589 33.4927 31.5018 33.3795C31.4222 33.2219 31.4361 33.0328 31.496 32.8714C31.575 32.6579 31.7214 32.5743 31.9192 32.4825Z" fill="white"/>
<path d="M31.6325 17.2987C31.6737 17.3006 31.6792 17.2988 31.7248 17.3131C31.8862 17.3637 32.0483 17.5093 32.1172 17.6631C32.1258 17.683 32.1336 17.7033 32.1403 17.7239C32.147 17.7446 32.1528 17.7655 32.1575 17.7867C32.1622 17.808 32.1659 17.8294 32.1685 17.8509C32.1712 17.8725 32.1728 17.8942 32.1734 17.9159C32.1739 17.9376 32.1734 17.9593 32.1719 17.981C32.1703 18.0027 32.1678 18.0242 32.1642 18.0457C32.1605 18.0671 32.1559 18.0883 32.1502 18.1093C32.1446 18.1303 32.1379 18.1509 32.1303 18.1713C32.0634 18.3462 31.9302 18.4322 31.7665 18.5057C31.7323 18.5037 31.7143 18.5037 31.6826 18.4989C31.539 18.4773 31.3963 18.379 31.3129 18.2622C31.2144 18.1242 31.1957 17.952 31.2298 17.7887C31.2828 17.5342 31.4233 17.4301 31.6325 17.2987Z" fill="white"/>
<path d="M54.9209 36.1902C54.9722 36.1884 55.0248 36.1868 55.0758 36.1931C55.2609 36.2159 55.4328 36.3511 55.5362 36.5006C55.6319 36.6388 55.681 36.803 55.642 36.9699C55.6037 37.1335 55.5097 37.2018 55.3704 37.2827C55.2939 37.2854 55.2153 37.2896 55.139 37.283C54.976 37.269 54.8076 37.1565 54.711 37.0284C54.6232 36.9118 54.5827 36.7588 54.607 36.6143C54.6426 36.4023 54.7496 36.3055 54.9209 36.1902Z" fill="white"/>
<path d="M47.222 33.0298C47.2764 33.0318 47.3325 33.034 47.3859 33.0456C47.5743 33.0864 47.7829 33.234 47.8862 33.3962C47.9651 33.5203 47.9995 33.6676 47.9643 33.8123C47.9212 33.9896 47.7785 34.0944 47.6347 34.1897C47.595 34.1911 47.5964 34.1924 47.5505 34.1866C47.3663 34.1632 47.157 34.0041 47.051 33.8572C46.9521 33.72 46.8913 33.537 46.927 33.3677C46.9624 33.2006 47.0856 33.1149 47.222 33.0298Z" fill="white"/>
<path d="M14.5999 40.8972C14.8009 40.9497 14.949 41.0161 15.0597 41.2013C15.157 41.3641 15.1893 41.5593 15.1368 41.7426C15.0765 41.9531 14.9552 42.0534 14.7714 42.1579C14.7046 42.1694 14.6108 42.1836 14.5435 42.1671C14.4542 42.1453 14.382 42.0944 14.3282 42.0208C14.2054 41.8524 14.2058 41.6117 14.2474 41.4163C14.2997 41.1711 14.3899 41.0296 14.5999 40.8972Z" fill="white"/>
<path d="M45.3368 22.5626C45.4258 22.5555 45.5345 22.5464 45.6213 22.5694C45.7938 22.615 45.9713 22.7883 46.0537 22.9415C46.1209 23.0664 46.1499 23.212 46.1 23.3485C46.044 23.5015 45.9199 23.5641 45.7801 23.628C45.6978 23.641 45.5998 23.6508 45.5178 23.6344C45.3601 23.6028 45.2057 23.4659 45.123 23.3328C45.0371 23.1948 44.9981 23.0252 45.047 22.8668C45.0943 22.7132 45.2041 22.6396 45.3368 22.5626Z" fill="white"/>
<path d="M42.5394 28.518C42.6204 28.5155 42.7106 28.5085 42.7898 28.5273C42.9613 28.5679 43.1302 28.7457 43.206 28.8982C43.2696 29.0259 43.2946 29.178 43.2464 29.3151C43.1909 29.4733 43.0722 29.5438 42.9294 29.615C42.851 29.6202 42.7684 29.6281 42.6903 29.6181C42.5269 29.5972 42.3693 29.4796 42.2801 29.3446C42.1952 29.2159 42.1637 29.059 42.2006 28.9086C42.2497 28.7084 42.3712 28.6206 42.5394 28.518Z" fill="white"/>
<path d="M46.6574 27.0374C46.7082 27.0468 46.7599 27.0568 46.8087 27.0741C46.8294 27.0816 46.8497 27.0901 46.8695 27.0996C46.8893 27.1091 46.9086 27.1195 46.9275 27.1309C46.9463 27.1423 46.9645 27.1545 46.9822 27.1676C46.9998 27.1808 47.0167 27.1947 47.033 27.2096C47.0493 27.2244 47.0648 27.2399 47.0796 27.2562C47.0943 27.2725 47.1082 27.2895 47.1213 27.3072C47.1344 27.3248 47.1467 27.3431 47.158 27.3619C47.1693 27.3807 47.1797 27.4001 47.1891 27.4199C47.2624 27.575 47.2752 27.7482 47.2094 27.9082C47.1434 28.0687 47.0264 28.1443 46.8702 28.2034C46.7623 28.2041 46.6472 28.2048 46.5471 28.1585C46.4021 28.0915 46.2925 27.9347 46.2462 27.7856C46.1939 27.617 46.2038 27.4308 46.2884 27.2741C46.372 27.1191 46.4968 27.0829 46.6574 27.0374Z" fill="white"/>
<path d="M48.7774 40.3521C48.8487 40.3531 48.9148 40.3573 48.9843 40.3745C49.1321 40.4115 49.2813 40.5049 49.3571 40.6405C49.4212 40.7552 49.4235 40.8852 49.3836 41.0082C49.3151 41.2193 49.1308 41.3015 48.9455 41.3916C48.8103 41.4158 48.6778 41.4318 48.548 41.3743C48.4329 41.3232 48.3497 41.2221 48.3108 41.1034C48.2592 40.9459 48.2838 40.7664 48.3632 40.6225C48.4609 40.4455 48.592 40.4045 48.7774 40.3521Z" fill="white"/>
<path d="M10.4144 38.6084C10.456 38.6114 10.5175 38.6119 10.5583 38.6266C10.6829 38.6714 10.772 38.7923 10.8284 38.9069C10.9266 39.1064 10.9355 39.3635 10.8515 39.5696C10.7806 39.7437 10.6528 39.8148 10.4867 39.8828C10.3911 39.8815 10.2922 39.8829 10.2012 39.8502C10.0829 39.8077 9.99444 39.6832 9.95441 39.5692C9.8888 39.3824 9.92064 39.1644 10.0046 38.9886C10.0964 38.7963 10.214 38.6781 10.4144 38.6084Z" fill="white"/>
<path d="M29.0086 14.149C29.114 14.1411 29.2125 14.1322 29.3119 14.1748C29.5278 14.2673 29.7077 14.4736 29.7868 14.6928C29.8334 14.8217 29.843 14.9822 29.7732 15.1054C29.7038 15.2283 29.5761 15.2671 29.4519 15.3115L29.4098 15.3066C29.1517 15.2747 28.9143 15.202 28.7548 14.982C28.6726 14.8687 28.6355 14.7289 28.6627 14.5906C28.7031 14.3845 28.8403 14.2588 29.0086 14.149Z" fill="white"/>
<path d="M21.3122 23.9482C21.3763 23.9711 21.4021 23.9972 21.4469 24.0477C21.4586 24.1068 21.4715 24.1249 21.4484 24.1836C21.3316 24.4809 20.6943 24.7952 20.4572 25.0517C20.1578 25.3757 20.0219 25.8164 19.8245 26.1997C19.7741 26.2977 19.7525 26.3085 19.6472 26.339C19.5646 26.3132 19.5223 26.3043 19.4664 26.2339C19.3955 25.9723 19.5269 25.7366 19.6479 25.5114C19.9913 24.872 20.593 24.1645 21.3122 23.9482Z" fill="white"/>
<path d="M15.1144 34.8323C15.1681 34.8304 15.1996 34.8373 15.2495 34.8569C15.3296 34.9633 15.326 35.1188 15.3397 35.2477C15.2428 35.291 15.1438 35.3333 15.0529 35.3885C14.5985 35.6644 14.3034 36.1164 14.1467 36.6176C14.093 36.7896 14.0702 36.9713 14.0174 37.1433C13.991 37.2293 13.9753 37.2529 13.8951 37.2916C13.7914 37.2906 13.6678 37.3055 13.5763 37.2563C13.564 36.974 13.6674 36.6241 13.7587 36.3565C13.9992 35.6515 14.4498 35.1568 15.1144 34.8323Z" fill="white"/>
<path d="M17.8138 29.4586C17.8922 29.47 17.9791 29.4791 18.0522 29.5108C18.2097 29.5793 18.337 29.7571 18.4001 29.9111C18.4918 30.1349 18.5068 30.4027 18.4046 30.6253C18.3164 30.8174 18.1698 30.8822 17.982 30.956C17.898 30.9655 17.8067 30.9691 17.7231 30.9526C17.5957 30.9274 17.4915 30.848 17.4251 30.738C17.2976 30.5265 17.3228 30.2397 17.3911 30.013C17.4675 29.7594 17.5806 29.5852 17.8138 29.4586Z" fill="white"/>
<path d="M17.8865 30.0237C17.9587 30.0926 18.0339 30.1924 18.0431 30.2939C18.0526 30.3983 17.9998 30.4624 17.9421 30.5413C17.8827 30.5187 17.8172 30.496 17.7938 30.4324C17.7441 30.2967 17.8326 30.1469 17.8865 30.0237Z" fill="#1C1C1C"/>
<path d="M39.4469 19.1593C39.5057 19.1699 39.561 19.1791 39.6135 19.2094C39.9534 19.4051 40.3306 20.066 40.4342 20.4382C40.475 20.5847 40.4973 20.7916 40.4024 20.9242C40.3176 21.0426 40.2288 21.0661 40.0937 21.0935C39.7996 21.0424 39.388 20.9894 39.1704 20.7702C39.047 20.6458 39.0088 20.4812 39.0127 20.3108C39.0212 19.9339 39.1679 19.4178 39.4469 19.1593Z" fill="white"/>
<path d="M39.5572 19.8099C39.5613 19.8139 39.5658 19.8175 39.5695 19.8218C39.7381 20.0149 40.0222 20.3651 40.0146 20.6307C39.814 20.5862 39.6479 20.5236 39.467 20.4288C39.4794 20.2175 39.5158 20.0172 39.5572 19.8099Z" fill="#1C1C1C"/>
<path d="M35.3548 22.6804C35.4472 22.6803 35.5358 22.6905 35.615 22.7411C35.9277 22.9406 36.2444 23.4974 36.3171 23.8601C36.3446 23.9971 36.3429 24.1655 36.2555 24.2823C36.1615 24.4079 36.0237 24.4292 35.8784 24.4572C35.7882 24.457 35.6982 24.4519 35.6085 24.4419C35.3659 24.417 35.0234 24.4021 34.8601 24.2002C34.8065 24.007 34.8512 23.8266 34.8926 23.6352C34.9641 23.3049 35.0551 22.873 35.3548 22.6804Z" fill="white"/>
<path d="M35.464 23.2825C35.4807 23.2928 35.5055 23.3068 35.5211 23.3206C35.6467 23.4315 35.8428 23.777 35.8565 23.9437L35.8045 23.9881C35.717 23.9855 35.6201 23.988 35.5347 23.9677C35.4656 23.9514 35.3946 23.9226 35.3623 23.8544C35.2889 23.6989 35.414 23.4369 35.464 23.2825Z" fill="#1C1C1C"/>
<path d="M44.0087 38.2131C44.0623 38.2213 44.116 38.2307 44.168 38.2462C44.6208 38.3815 45.1789 38.8501 45.4072 39.2636C45.4724 39.3817 45.5217 39.5246 45.4699 39.6578C45.418 39.7914 45.2974 39.8241 45.175 39.8677C44.9731 39.9188 44.7709 39.9719 44.5675 40.0166C44.414 40.0504 44.2659 40.0913 44.1274 40.0019C43.9279 39.6789 43.8518 38.9501 43.8591 38.5697C43.8623 38.403 43.8857 38.3269 44.0087 38.2131Z" fill="white"/>
<path d="M44.3058 38.8419C44.4596 38.9073 44.5959 39.0018 44.7202 39.1131C44.821 39.2034 44.9635 39.341 44.9718 39.4835C44.8051 39.52 44.6366 39.5354 44.4672 39.5532C44.4065 39.3175 44.3561 39.08 44.3058 38.8419Z" fill="#1C1C1C"/>
<path d="M40.1358 32.8393C40.2752 32.8382 40.3863 32.8339 40.4905 32.9409C40.6978 33.1536 40.9837 34.0875 40.9756 34.3729C40.9721 34.4993 40.9294 34.6188 40.8307 34.7022C40.6869 34.8237 40.4794 34.7887 40.3088 34.7676C39.9032 34.6819 39.63 34.5067 39.3546 34.2002C39.4858 33.7854 39.7871 33.104 40.1358 32.8393Z" fill="white"/>
<path d="M40.2345 33.4399C40.3812 33.5979 40.4483 34.0643 40.4989 34.2832L40.4758 34.3133L40.2819 34.2881C40.1509 34.2329 40.0317 34.1542 39.9104 34.0806C40.0068 33.8615 40.1226 33.6514 40.2345 33.4399Z" fill="#1C1C1C"/>
<path d="M32.3935 9.6369C32.5546 9.64412 32.7057 9.6545 32.8385 9.75453C33.1193 9.96593 33.3525 10.4444 33.3816 10.7949C33.3909 10.906 33.377 11.0431 33.2905 11.1234C33.1215 11.2801 32.7738 11.2535 32.5589 11.262C32.3751 11.2547 32.1902 11.2423 32.0105 11.2012C31.8635 11.1676 31.6787 11.1077 31.6065 10.9613C31.549 10.8446 31.5787 10.7033 31.6189 10.5863C31.7484 10.2096 32.029 9.8068 32.3935 9.6369Z" fill="white"/>
<path d="M32.3936 10.1357C32.4499 10.1352 32.502 10.1348 32.5557 10.1555C32.7854 10.244 32.8695 10.5513 32.9503 10.7584L32.617 10.7889C32.4989 10.7945 32.3109 10.8227 32.2023 10.7729C32.121 10.7356 32.1128 10.7026 32.0864 10.6254C32.1216 10.427 32.2644 10.2819 32.3936 10.1357Z" fill="#1C1C1C"/>
<path d="M35.1505 12.2062C35.2223 12.204 35.3097 12.1957 35.3766 12.2256C35.7505 12.3932 35.9151 13.2561 36.1368 13.6C36.6821 14.4458 38.2286 14.6689 38.6757 15.9945C38.7375 16.1775 38.7542 16.2772 38.6678 16.4538C38.6097 16.4616 38.5533 16.4606 38.4946 16.4612C38.2607 16.3359 38.0663 15.7089 37.853 15.4798C37.1692 14.7455 36.1057 14.5168 35.6111 13.5904C35.5216 13.4229 35.1435 12.6122 35.1126 12.4438C35.0981 12.3646 35.1274 12.2813 35.1505 12.2062Z" fill="white"/>
<path d="M35.2213 41.7955C35.3054 41.8031 35.3909 41.8094 35.4646 41.8547C35.8268 42.0774 36.24 42.6738 36.341 43.0818C36.3838 43.2549 36.3788 43.4387 36.279 43.5922C36.1708 43.7586 35.9961 43.7886 35.8155 43.8278C35.6025 43.8374 35.3786 43.8377 35.1705 43.7869C34.9862 43.7418 34.795 43.6477 34.7017 43.4738C34.5686 43.2256 34.6721 42.8952 34.7476 42.6431C34.8404 42.3329 34.9178 41.9572 35.2213 41.7955Z" fill="white"/>
<path d="M35.3262 42.4609C35.4941 42.612 35.6562 42.7701 35.7801 42.9604C35.8484 43.0652 35.9045 43.167 35.8795 43.2947L35.7995 43.3437C35.562 43.3498 35.3636 43.3324 35.1372 43.2596C35.1582 42.9693 35.219 42.7311 35.3262 42.4609Z" fill="#1C1C1C"/>
<path d="M31.001 25.7457C31.0205 25.7449 31.04 25.7438 31.0595 25.7433C31.2239 25.739 31.3007 25.797 31.4129 25.9088C31.684 26.179 32.0491 26.7139 32.0326 27.1046C32.0274 27.2279 31.98 27.3384 31.886 27.4199C31.6546 27.6204 31.2773 27.5729 30.9939 27.5587C30.7515 27.5501 30.1907 27.5557 30.0177 27.3713C29.974 27.3246 29.9575 27.2498 29.9618 27.1868C29.9925 26.738 30.6718 26.0128 31.001 25.7457Z" fill="white"/>
<path d="M31.1074 26.2845C31.347 26.4591 31.4846 26.8338 31.5923 27.099C31.3832 27.1116 31.1711 27.1036 30.9616 27.1023C30.8171 27.0959 30.6717 27.0715 30.5281 27.0535C30.6075 26.9132 30.6956 26.7788 30.7925 26.6501C30.8895 26.5213 30.9945 26.3995 31.1074 26.2845Z" fill="#1C1C1C"/>
<path d="M25.4633 37.5425C25.5909 37.5282 25.7015 37.5248 25.8089 37.6067C26.1224 37.8455 26.2952 38.3779 26.346 38.7577C26.3701 38.9385 26.3837 39.2115 26.2495 39.3576C26.1094 39.51 25.5438 39.4555 25.3226 39.4832C25.2015 39.5022 25.0801 39.519 24.9584 39.5339C24.833 39.5481 24.6654 39.5381 24.571 39.4401C24.5019 39.3682 24.4986 39.2538 24.5108 39.1607C24.5807 38.6316 25.0446 37.8612 25.4633 37.5425Z" fill="white"/>
<path d="M25.5555 38.0789C25.558 38.0802 25.5606 38.0812 25.5628 38.0827C25.7809 38.2298 25.8432 38.6922 25.8932 38.9356C25.735 38.9483 25.577 38.9627 25.4191 38.9787L25.0283 39.0167C25.1681 38.6825 25.3316 38.3645 25.5555 38.0789Z" fill="#1C1C1C"/>
<path d="M21.1714 43.1851C21.2292 43.1828 21.2903 43.1791 21.3475 43.1906C21.4865 43.2187 21.5886 43.34 21.6649 43.4512C21.9165 43.8184 22.1467 44.5978 22.0586 45.0355C22.0389 45.133 22.0059 45.1979 21.9196 45.2526C21.6921 45.2801 21.3815 45.1515 21.1622 45.089C20.8892 45.0461 20.5236 45.1495 20.2811 45.0681C20.2267 45.0498 20.2002 45.0328 20.1722 44.9831C20.106 44.8656 20.1332 44.7283 20.1727 44.6058C20.3239 44.1369 20.7182 43.4114 21.1714 43.1851Z" fill="white"/>
<path d="M21.2814 43.7205C21.4817 43.9718 21.5381 44.391 21.5902 44.6966C21.4122 44.6558 21.234 44.6161 21.0556 44.5776L20.7123 44.5569C20.8545 44.2487 21.0525 43.9696 21.2814 43.7205Z" fill="#1C1C1C"/>
</g>
<defs>
<clipPath id="clip0_107_4615">
<rect width="66" height="66" rx="10" fill="white"/>
</clipPath>
</defs>
</svg>
