<svg width="68" height="68" viewBox="0 0 68 68" fill="none" xmlns="http://www.w3.org/2000/svg">
<rect width="68" height="68" rx="12" fill="#1C1C1C"/>
<path d="M34.3398 18.9796C36.7085 18.9212 39.1147 19.0496 41.4727 19.2778C45.8752 19.7039 51.0859 20.5407 55.0226 22.6523C55.9038 23.1249 56.7929 23.6704 57.4313 24.4548C57.8957 25.0254 58.2004 25.7222 58.1198 26.4694C58.0395 27.2138 57.8454 27.9649 57.6731 28.6928C56.6852 32.8678 54.627 36.6589 51.4321 39.5562C50.8224 40.1116 50.1794 40.6253 49.503 41.0973C49.1399 41.3466 48.691 41.555 48.3674 41.8505C47.9607 42.2219 47.4959 42.9574 47.1098 43.4164C46.4296 44.2249 45.633 44.8892 44.816 45.5524L49.8228 56.1546C50.597 57.7713 51.3549 59.3956 52.0964 61.0275C52.3469 61.5811 52.7007 62.201 52.8999 62.7614C53.0109 63.0737 53.0549 63.3978 52.9746 63.7247C52.9688 63.7478 52.9624 63.7709 52.9554 63.7941C52.9484 63.8172 52.9408 63.8401 52.9327 63.8629C52.9245 63.8852 52.9158 63.9075 52.9066 63.9298C52.8973 63.9517 52.8874 63.9736 52.8771 63.9956C52.8666 64.0171 52.8557 64.0384 52.8442 64.0595C52.8327 64.0806 52.8207 64.1015 52.8081 64.1222C52.7956 64.1425 52.7826 64.1625 52.769 64.1824C52.7554 64.2023 52.7413 64.2218 52.7268 64.2409C52.7122 64.2599 52.6972 64.2788 52.6817 64.2975C52.6662 64.3157 52.6502 64.3336 52.6338 64.351C52.6173 64.3685 52.6005 64.3855 52.5832 64.4022C52.5659 64.4188 52.5482 64.435 52.53 64.4509C52.5119 64.4667 52.4934 64.4821 52.4745 64.4971C52.4556 64.5117 52.4363 64.526 52.4167 64.5398C52.397 64.554 52.3771 64.5673 52.3568 64.5799C52.3364 64.5929 52.3158 64.6053 52.2949 64.6171C52.2741 64.6292 52.2529 64.6408 52.2315 64.6518C52.2101 64.6627 52.1884 64.6731 52.1664 64.6828C52.1445 64.6925 52.1223 64.7019 52.0999 64.7108C52.0775 64.7193 52.0549 64.7274 52.0321 64.7351C52.0092 64.7425 51.9862 64.7494 51.9631 64.7558C51.9399 64.7623 51.9165 64.7682 51.8931 64.7735C51.8696 64.7788 51.846 64.7834 51.8223 64.7875C51.7986 64.7916 51.7748 64.795 51.7509 64.7978C51.727 64.8007 51.7031 64.8029 51.6791 64.8045C51.6551 64.8062 51.6311 64.8072 51.607 64.8076C51.583 64.808 51.5589 64.8078 51.5349 64.807C51.5109 64.8058 51.4869 64.8041 51.4629 64.8021C51.4389 64.8001 51.415 64.7974 51.3912 64.7942C51.3674 64.791 51.3436 64.7873 51.32 64.7832C51.2964 64.7788 51.2729 64.7737 51.2494 64.768C51.2261 64.7623 51.2029 64.7561 51.1798 64.7492C50.9131 64.6688 50.652 64.5081 50.4866 64.2817C50.2318 63.9329 50.0598 63.4945 49.8754 63.1041L48.8938 60.9793L46.3275 55.5039C45.8253 54.4287 45.3648 53.3023 44.7957 52.262C44.2945 52.4677 43.8094 52.6948 43.2962 52.8726C41.1418 53.6189 38.8555 53.9069 36.5888 54.0309L36.5895 57.4467C36.5909 58.0098 36.6626 58.9708 36.5408 59.4749C36.4876 59.6955 36.3261 59.9348 36.1715 60.0953C35.905 60.372 35.5368 60.548 35.1497 60.5486C35.1257 60.5485 35.1016 60.5478 35.0775 60.5465C35.0535 60.5452 35.0295 60.5433 35.0055 60.5408C34.9816 60.5383 34.9577 60.5352 34.9339 60.5315C34.9101 60.5278 34.8864 60.5235 34.8629 60.5186C34.8393 60.5137 34.8159 60.5082 34.7925 60.5021C34.7692 60.4961 34.7461 60.4894 34.7231 60.4821C34.7002 60.4749 34.6774 60.4671 34.6548 60.4587C34.6323 60.4503 34.6099 60.4413 34.5878 60.4318C34.5657 60.4222 34.5438 60.4122 34.5223 60.4016C34.5006 60.3909 34.4793 60.3798 34.4583 60.368C34.4372 60.3564 34.4165 60.3441 34.3961 60.3314C34.3756 60.3187 34.3555 60.3054 34.3357 60.2916C34.316 60.2779 34.2966 60.2636 34.2776 60.2489C34.2585 60.2341 34.2399 60.2189 34.2215 60.2033C34.2033 60.1876 34.1854 60.1715 34.168 60.1549C34.1505 60.1383 34.1334 60.1213 34.1168 60.1039C33.6973 59.6712 33.7336 59.1392 33.7379 58.5849L33.7343 54.0245C31.0621 53.8535 27.8989 53.6387 25.5458 52.214C24.3328 54.9313 23.0193 57.6114 21.7498 60.3032C21.3758 61.0922 21.006 61.8833 20.6406 62.6764C20.4149 63.1691 20.212 63.707 19.9293 64.1684C19.7479 64.4643 19.5341 64.6907 19.2083 64.8319C18.8575 64.9841 18.4551 65.0006 18.1009 64.8502C17.7137 64.6858 17.4154 64.3443 17.2704 63.9529C17.1591 63.6523 17.1273 63.3121 17.2252 63.0039C17.4142 62.4097 17.7734 61.8088 18.0446 61.2441L19.6637 57.8384L23.1258 50.4113C23.8795 48.7966 24.6572 47.1914 25.3945 45.5694C24.6104 44.9352 23.8625 44.2402 23.2211 43.4598C22.9328 43.1091 22.6971 42.6541 22.3722 42.3446C22.1334 42.1171 21.8473 41.9322 21.58 41.7399C21.1412 41.4241 20.7019 41.1107 20.2801 40.7722C18.6717 39.4812 17.353 38.0008 16.1268 36.3497C15.6642 36.2452 15.1822 36.1966 14.7147 36.1097C14.2629 36.0288 13.8159 35.9273 13.3735 35.8051C12.9312 35.683 12.4954 35.5407 12.0661 35.3783C10.6914 34.864 9.1876 34.0459 8.56 32.6416C8.54145 32.6004 8.52396 32.5589 8.50752 32.5168C8.49107 32.4748 8.47569 32.4324 8.46139 32.3896C8.44708 32.3468 8.43387 32.3036 8.42174 32.2601C8.40961 32.2167 8.39858 32.1729 8.38865 32.1289C8.37873 32.0849 8.36992 32.0406 8.36223 31.9962C8.35453 31.9517 8.34797 31.9071 8.34252 31.8623C8.33708 31.8175 8.33277 31.7726 8.3296 31.7276C8.32642 31.6825 8.32438 31.6374 8.32348 31.5923C8.32257 31.5472 8.3228 31.5021 8.32418 31.457C8.32555 31.4119 8.32806 31.3668 8.3317 31.3219C8.33534 31.2769 8.34012 31.232 8.34602 31.1873C8.35193 31.1425 8.35896 31.098 8.36711 31.0536C8.37526 31.0092 8.38453 30.965 8.39491 30.9211C8.40529 30.8772 8.41677 30.8335 8.42935 30.7902C8.44193 30.7469 8.45559 30.7039 8.47034 30.6612C8.48509 30.6186 8.5009 30.5763 8.51778 30.5345C9.12867 28.9892 10.9231 28.0388 12.3744 27.4079C12.322 27.0593 12.2711 26.7119 12.2647 26.3585C12.2474 25.4031 12.6473 24.6367 13.3019 23.9601C14.2001 23.0317 15.3448 22.4551 16.5111 21.9428C21.6837 19.6709 28.7141 19.0581 34.3398 18.9796Z" fill="#1C1C1C"/>
<path d="M28.4397 21.2016C28.5805 21.1836 28.7266 21.1828 28.8686 21.1749C28.69 21.264 28.5349 21.3871 28.37 21.4983C28.2847 21.5557 28.2476 21.5981 28.1444 21.5782L27.6132 21.2894C27.8878 21.2551 28.1644 21.2307 28.4397 21.2016Z" fill="white"/>
<path d="M26.317 21.4722C26.3265 21.4696 26.3358 21.4662 26.3456 21.4646C26.5616 21.4306 27.3578 21.9617 27.5647 22.105C27.2409 22.4103 26.9177 22.7151 26.6079 23.0349C26.3551 22.9199 26.1092 22.7858 25.8618 22.6595C25.3055 22.35 24.7036 22.1165 24.1559 21.7957C24.8711 21.6589 25.5953 21.5673 26.317 21.4722Z" fill="white"/>
<path d="M36.353 30.2079C36.391 30.2069 38.2264 31.4539 38.437 31.5898C37.6083 31.5909 36.7811 31.6566 35.952 31.6585L35.6146 31.6557C35.037 31.2092 34.4173 30.8195 33.8402 30.3732C34.6935 30.3874 35.5082 30.3279 36.353 30.2079Z" fill="white"/>
<path d="M42.4729 29.2578C42.5273 29.2481 42.5723 29.2557 42.6229 29.2776C42.9599 29.4232 43.289 29.6418 43.6096 29.8239L45.3814 30.8224C44.8351 30.9237 44.2855 31.0007 43.7324 31.0533C43.613 31.0672 43.4591 31.0996 43.3419 31.0692C42.7211 30.9082 41.3713 30.0029 40.7658 29.6374C41.3362 29.5172 41.9053 29.3906 42.4729 29.2578Z" fill="white"/>
<path d="M47.4207 27.7305C47.981 27.9468 48.5304 28.2396 49.072 28.5016C49.7196 28.8149 50.379 29.1139 51.0085 29.4622L49.7439 29.8784C49.6869 29.8955 49.5953 29.9249 49.536 29.9237C49.4441 29.9218 46.5232 28.3648 46.189 28.1955C46.6062 28.058 47.0168 27.903 47.4207 27.7305Z" fill="white"/>
<path d="M39.5335 29.842C39.6009 29.832 39.6608 29.8233 39.7279 29.8417C40.0497 29.9299 41.6821 31.0601 42.1052 31.3073C41.4147 31.3942 40.7072 31.4482 40.0119 31.4784C39.8549 31.4957 39.6953 31.4998 39.5376 31.5086C39.2323 31.3384 38.9437 31.1204 38.6554 30.9223C38.2712 30.6584 37.8787 30.4014 37.5126 30.1124C38.1874 30.0308 38.861 29.9407 39.5335 29.842Z" fill="white"/>
<path d="M45.1508 28.5232C45.4467 28.5786 48.0246 30.0043 48.4143 30.2363C47.8981 30.3675 47.3704 30.4676 46.8473 30.5681C46.7408 30.58 46.6342 30.6045 46.5287 30.6243C45.6068 30.0232 44.5932 29.5221 43.6268 28.9931C44.1228 28.8089 44.6433 28.6728 45.1508 28.5232Z" fill="white"/>
<path d="M23.0077 22.0206C23.1926 22.0724 23.5541 22.3047 23.7414 22.4006C24.5239 22.801 25.3014 23.2232 26.1016 23.5861C25.8664 23.8895 25.6612 24.2098 25.4578 24.5347C25.2039 24.4209 24.9544 24.2965 24.7038 24.1756C23.5414 23.5706 22.3431 23.0351 21.1808 22.4306C21.7706 22.2493 22.398 22.1146 23.0077 22.0206Z" fill="white"/>
<path d="M34.5126 48.851C34.9457 48.8653 35.3723 48.867 35.8053 48.8505L35.7955 52.7529C35.3697 52.7649 34.9439 52.7704 34.5179 52.7694L34.5126 48.851Z" fill="white"/>
<path d="M25.7721 51.7402C26.076 51.8056 26.3999 51.9778 26.6959 52.0828C27.2151 52.2631 27.7422 52.4156 28.2775 52.5401C31.4781 53.2882 34.9373 53.3873 38.2017 53.0958C39.7694 52.9559 41.4121 52.7183 42.9186 52.2549C43.1511 52.1834 44.3618 51.7317 44.5152 51.7771L44.506 51.8413L44.5285 51.8175C44.4979 51.864 44.4566 51.8906 44.4132 51.9254C42.1489 53.0931 38.1939 53.5391 35.6753 53.5637C32.7774 53.5921 29.4059 53.4179 26.6961 52.2979C26.4222 52.1847 25.9741 52.0376 25.767 51.8343L25.7721 51.7402Z" fill="white"/>
<path d="M12.7438 29.6729C12.8586 29.7635 13.1262 30.7869 13.2008 31.0004C13.4765 31.7713 13.7866 32.528 14.1311 33.2707C13.6913 33.1664 13.2623 33.0194 12.8383 32.8643C12.2672 32.6463 11.4457 32.2865 11.0973 31.7529C10.9936 31.5942 10.9469 31.4131 10.9891 31.2258C11.1421 30.5466 12.207 30.0101 12.7438 29.6729Z" fill="white"/>
<path d="M48.0215 25.9417C48.9671 26.3554 49.9099 26.7755 50.8499 27.2018C51.7473 27.6151 52.6369 28.0483 53.5528 28.4195C53.3472 28.5173 53.1385 28.6098 52.9314 28.7048C52.6156 28.8347 52.306 28.9779 51.9956 29.1203C51.5389 28.8272 51.0141 28.5985 50.5257 28.3609L47.9543 27.1303C48.1067 26.7347 48.1349 26.3502 48.0215 25.9417Z" fill="white"/>
<path d="M14.7254 25.9067C16.7782 26.9463 18.8417 27.9644 20.9157 28.961L23.0453 29.9714C23.481 30.1732 23.9957 30.3552 24.3879 30.6228C24.0838 30.5929 23.7386 30.4668 23.4371 30.394C22.5157 30.1714 21.5576 29.9781 20.6658 29.6547C19.9456 29.3936 19.2473 28.9938 18.5516 28.6697C17.4635 28.1629 16.3375 27.6937 15.2759 27.135C15.1638 27.0759 15.056 27.0216 14.9722 26.9242C14.7249 26.6369 14.6993 26.267 14.7254 25.9067Z" fill="white"/>
<path d="M20.0337 22.7421C20.0995 22.7283 20.1395 22.7397 20.1996 22.7666C20.6358 22.9614 21.0614 23.1956 21.4889 23.4101C22.6904 24.0129 23.8851 24.6433 25.1083 25.2008C24.9492 25.5458 24.8259 25.9123 24.6935 26.2687C24.4753 26.1927 24.2702 26.0781 24.0648 25.9731C22.2774 24.9882 20.39 24.177 18.5931 23.2084C19.0707 23.0457 19.5473 22.8766 20.0337 22.7421Z" fill="white"/>
<path d="M34.5204 54.0564L35.8018 54.063L35.8012 57.5859C35.8017 58.0717 35.8604 58.7419 35.7809 59.206C35.7552 59.3555 35.6703 59.4645 35.5833 59.5842C35.4647 59.6869 35.3568 59.7618 35.1958 59.7737C35.0211 59.7867 34.8391 59.7284 34.7128 59.6052C34.612 59.5069 34.542 59.3734 34.5232 59.2334C34.4592 58.7602 34.5128 58.0953 34.5136 57.5982L34.5204 54.0564Z" fill="white"/>
<path d="M45.4765 23.181C45.7177 23.2219 45.9944 23.3739 46.2235 23.4691C46.8695 23.7376 47.5074 24.0195 48.1484 24.2997C49.7648 24.9952 51.3692 25.7173 52.9617 26.4659C53.6483 26.7844 54.3791 27.0605 55.0311 27.4428L54.771 27.6423C54.6086 27.7535 54.443 27.8595 54.2741 27.9604C52.7505 27.214 51.1803 26.5417 49.6319 25.8482C49.0853 25.6033 48.2357 25.2982 47.7537 24.9999C47.3636 24.7585 47.1079 24.3438 46.7202 24.0836C46.1541 23.7037 45.9187 23.7709 45.4765 23.181Z" fill="white"/>
<path d="M26.7762 29.2155C27.3388 29.2115 27.902 29.2576 28.4636 29.2875C28.893 29.3104 29.3379 29.3131 29.7636 29.372C30.4054 29.4609 31.0897 29.6154 31.716 29.7825C32.4244 30.5088 33.5008 31.0192 34.3521 31.5887C33.8496 31.6023 31.0565 31.4621 30.716 31.3588C30.4433 31.2762 30.176 31.0889 29.9268 30.9494L28.503 30.1528C27.9332 29.839 27.3191 29.5725 26.7762 29.2155Z" fill="white"/>
<path d="M17.7442 23.5898C18.6551 24.104 19.5999 24.5566 20.5338 25.0273C21.8679 25.7095 23.208 26.3796 24.5541 27.0375C24.5196 27.4216 24.4919 27.8062 24.4711 28.1913L23.6997 27.7984C21.9969 26.9154 20.2617 26.0746 18.5381 25.2322C17.8336 24.888 17.1227 24.5607 16.4266 24.1995C16.8331 23.9403 17.2955 23.762 17.7442 23.5898Z" fill="white"/>
<path d="M37.9297 19.8534C38.6921 19.8012 39.8105 20.041 40.521 20.2704C40.6068 20.2989 40.6922 20.3288 40.7771 20.3601C40.862 20.3913 40.9464 20.424 41.0302 20.4579C41.1141 20.4919 41.1974 20.5272 41.2801 20.5639C41.3628 20.6006 41.4449 20.6385 41.5264 20.6779C41.6079 20.7172 41.6887 20.7578 41.7689 20.7997C41.8491 20.8416 41.9286 20.8848 42.0073 20.9292C42.0862 20.9737 42.1642 21.0194 42.2415 21.0664C42.3189 21.1134 42.3954 21.1616 42.4712 21.211C42.547 21.2605 42.6219 21.3111 42.6961 21.363C42.7702 21.4149 42.8435 21.4679 42.9159 21.5221C42.9883 21.5763 43.0599 21.6317 43.1305 21.6882C43.2012 21.7448 43.2709 21.8024 43.3397 21.8612C43.4084 21.9199 43.4763 21.9798 43.5432 22.0407C43.61 22.1017 43.6759 22.1637 43.7407 22.2268C43.8056 22.2898 43.8695 22.3539 43.9323 22.419C43.9951 22.4841 44.0568 22.5503 44.1175 22.6174C44.3 22.8175 44.5209 23.033 44.6448 23.2741L44.6148 23.308C43.3471 23.0591 42.1069 22.9787 40.8224 23.143C40.1745 21.7639 39.2471 20.641 37.9297 19.8534Z" fill="white"/>
<path d="M15.6749 24.6799C15.9609 24.76 16.2858 24.9637 16.559 25.0962C17.4901 25.5475 18.4035 26.0323 19.3325 26.4875L23.9292 28.745C24.4268 28.9834 24.9416 29.179 25.4398 29.4135C26.6046 29.9616 27.7553 30.5822 28.8722 31.2215L28.3013 31.1618C27.8349 31.129 27.0748 31.1213 26.6508 30.9763C26.1901 30.8187 25.748 30.407 25.2882 30.1959C23.2137 29.2294 21.1509 28.2386 19.0997 27.2235C17.7606 26.5708 16.3753 25.9573 15.0881 25.2089C15.2647 25.015 15.4702 24.8431 15.6749 24.6799Z" fill="white"/>
<path d="M36.1641 19.7704C36.4658 19.7629 36.7324 19.7707 37.0198 19.8777C38.4131 20.3966 39.716 21.8672 40.3284 23.19C39.9219 23.2594 39.5122 23.3056 39.1065 23.3818C38.4869 23.4982 37.8728 23.6504 37.2592 23.7947C37.2006 23.6925 37.1399 23.5916 37.0772 23.4918C37.0146 23.3921 36.9499 23.2936 36.8832 23.1965C36.8166 23.0993 36.748 23.0035 36.6775 22.9091C36.607 22.8147 36.5347 22.7218 36.4605 22.6303C36.3862 22.5388 36.3102 22.4489 36.2324 22.3604C36.1545 22.272 36.0749 22.1852 35.9936 22.1C35.9123 22.0147 35.8292 21.9312 35.7445 21.8493C35.6598 21.7674 35.5735 21.6872 35.4856 21.6088C35.3977 21.5304 35.3082 21.4538 35.2171 21.379C35.1262 21.3042 35.0337 21.2312 34.9398 21.1601C34.8458 21.089 34.7505 21.0198 34.6538 20.9526C34.5571 20.8853 34.459 20.82 34.3596 20.7567C34.2603 20.6933 34.1597 20.632 34.0579 20.5728C33.9561 20.5135 33.8532 20.4563 33.749 20.4012C33.6449 20.346 33.5397 20.293 33.4335 20.2421C33.3272 20.1912 33.22 20.1424 33.1118 20.0959C34.1287 19.8984 35.1288 19.7961 36.1641 19.7704Z" fill="white"/>
<path d="M28.5032 22.2229C28.8692 22.222 29.2255 22.2418 29.5848 22.3152C31.2556 22.6562 32.7733 23.8351 33.7036 25.2424C32.9212 25.7175 32.2292 26.2605 31.7209 27.0311C31.5948 27.238 31.4927 27.4497 31.3978 27.6725C31.3227 27.0383 31.042 26.3945 30.6952 25.8632C29.9238 24.6816 28.4123 23.7108 27.0398 23.4193C27.477 22.9858 27.9564 22.5117 28.5032 22.2229Z" fill="white"/>
<path d="M43.936 21.4862C44.3726 21.4872 44.8507 21.6061 45.2816 21.6805C46.2051 21.8345 47.1216 22.0228 48.031 22.2454C48.9404 22.468 49.8402 22.7244 50.7304 23.0145C52.0967 23.4578 54.9122 24.4243 55.5684 25.7705C55.7351 26.1123 55.7084 26.3703 55.5941 26.7169L55.5399 26.7706C55.2114 26.6815 54.887 26.5032 54.5791 26.3572C54.125 26.1403 53.6696 25.9263 53.2128 25.7151C51.5946 24.9705 49.9692 24.2419 48.3367 23.5293C47.5336 23.1806 46.7174 22.803 45.89 22.5165C45.5675 22.4049 45.2015 22.4079 44.8901 22.2707C44.5597 22.1252 44.2168 21.7228 43.936 21.4862Z" fill="white"/>
<path d="M32.2449 20.3386C32.2835 20.3375 32.3173 20.337 32.3555 20.3442C32.6112 20.3927 32.8763 20.5205 33.1169 20.6187C34.7345 21.2786 35.8655 22.5459 36.8406 23.9455C35.9208 24.2463 35.0466 24.5772 34.1662 24.9793C34.0808 24.962 34.0679 24.9185 34.0151 24.8533C32.7453 23.1351 31.2816 22.1205 29.1544 21.7538C30.1496 21.1522 31.1017 20.6209 32.2449 20.3386Z" fill="white"/>
<path d="M12.4048 28.2099C12.4259 28.2076 12.4467 28.2177 12.4673 28.2227C12.5351 28.4378 12.5699 28.6669 12.6133 28.8883C11.9547 29.2331 11.3212 29.6048 10.8032 30.1479C10.4788 30.4879 10.2052 30.9023 10.2249 31.3925C10.3313 34.0363 17.1651 34.6109 19.0998 34.6925C19.7245 34.7188 20.3575 34.7159 20.9826 34.7021C21.3305 34.6944 21.6936 34.6589 22.0404 34.6854C22.2259 34.6995 22.3961 34.7423 22.5327 34.8756C22.5449 34.8877 22.5566 34.9004 22.5676 34.9137C22.5786 34.927 22.589 34.9407 22.5987 34.955C22.6084 34.9693 22.6174 34.984 22.6257 34.9992C22.634 35.0143 22.6415 35.0299 22.6482 35.0457C22.655 35.0616 22.661 35.0778 22.6662 35.0942C22.6713 35.1107 22.6757 35.1273 22.6793 35.1442C22.6829 35.1611 22.6856 35.1781 22.6875 35.1953C22.6895 35.2125 22.6906 35.2297 22.6908 35.2469C22.6924 35.3888 22.6334 35.5216 22.5319 35.6199C22.32 35.825 22.0451 35.799 21.7722 35.8001C18.9019 35.9172 15.5188 35.7811 12.7754 34.8584C11.4988 34.429 9.88642 33.6863 9.26856 32.4164C9.03281 31.9319 9.00152 31.3978 9.1845 30.8905C9.66204 29.5668 11.2014 28.7699 12.4048 28.2099Z" fill="white"/>
<path d="M26.7155 23.7914C27.7238 23.9825 29.1749 24.8478 29.864 25.593C30.6477 26.4405 31.047 27.5047 30.9976 28.6581C30.495 28.6947 29.9751 28.6509 29.4726 28.6221C28.0314 28.5854 26.5916 28.4801 25.1512 28.4224L25.1409 28.2768C25.0338 26.687 25.6704 24.9859 26.7155 23.7914Z" fill="white"/>
<path d="M44.1337 46.0233C44.1609 46.0488 44.1895 46.1001 44.2081 46.1328C44.7239 47.0396 45.1259 48.0408 45.5777 48.9832C46.5858 51.0834 47.5791 53.1906 48.5577 55.3047L51.1371 60.7888C51.4511 61.4696 51.8084 62.1423 52.0849 62.8389C52.1774 63.0718 52.2844 63.3372 52.2022 63.5878C52.1492 63.7496 52.0304 63.8799 51.8793 63.9566C51.6781 64.0588 51.5113 64.0418 51.3042 63.9724C51.1884 63.9 51.0815 63.7989 51.0177 63.6772C50.7576 63.1801 50.5427 62.6507 50.3044 62.1418C49.7534 60.9779 49.2104 59.8104 48.6753 58.6391L45.5427 52.0186L44.0125 48.789C43.6929 48.1019 43.3947 47.4065 43.0603 46.726C43.4251 46.5025 43.7829 46.2683 44.1337 46.0233Z" fill="white"/>
<path d="M26.0351 46.0728C26.4276 46.3239 26.8233 46.5698 27.2221 46.8105C26.9803 47.2621 26.7834 47.7366 26.5679 48.201L25.3263 50.867L21.9948 57.9298C21.3869 59.2586 20.7679 60.5822 20.1376 61.9005C19.8512 62.5113 19.595 63.1974 19.247 63.7741C19.1861 63.8745 19.1149 63.9488 19.0262 64.0255C18.9902 64.045 18.954 64.0638 18.9166 64.0803C18.7218 64.1655 18.5416 64.1381 18.3521 64.0523C18.1772 63.9731 18.0022 63.8167 17.9457 63.6283C17.8872 63.433 17.9775 63.2475 18.0515 63.0698C18.4933 62.009 19.0388 60.9749 19.5342 59.9369L21.6917 55.3482C23.1551 52.2644 24.5353 49.1395 26.0351 46.0728Z" fill="white"/>
<path d="M31.1306 19.8602C31.2007 19.8504 31.2685 19.8569 31.3386 19.8618L31.3249 19.8827C30.9824 19.9846 30.665 20.1678 30.3163 20.248C29.9063 20.3423 29.4443 20.3408 29.0243 20.3831C28.1949 20.4654 27.3672 20.562 26.5411 20.6727C24.4195 20.9601 22.3194 21.3232 20.251 21.8827C18.4977 22.357 15.1847 23.4278 14.2519 25.0813C13.9636 25.5923 13.8588 26.1521 14.0223 26.7213C14.3024 27.6969 15.1331 28.3078 15.9791 28.7819C17.44 29.6006 19.1055 30.091 20.7142 30.5226C22.1977 30.9206 23.688 31.2797 25.2059 31.5217C26.2534 31.6887 27.317 31.7847 28.3723 31.8892C29.3716 31.9916 30.3727 32.0729 31.3754 32.133C32.3782 32.1931 33.3817 32.232 34.3861 32.2497C35.3905 32.2674 36.3948 32.2638 37.3991 32.2389C38.4034 32.2141 39.4066 32.168 40.4089 32.1007C43.5382 31.9046 46.7372 31.5167 49.7621 30.6655C51.5752 30.1553 55.2432 28.8723 56.1674 27.1976C56.4247 26.7314 56.5304 26.2196 56.3717 25.6983C55.5884 23.1257 48.6047 21.5463 46.2645 21.0808C45.522 20.9385 44.7762 20.8167 44.0271 20.7153C43.56 20.6497 43.0048 20.6299 42.5611 20.4745C42.269 20.3721 41.9739 20.1834 41.6971 20.0397L43.4726 20.2436C47.042 20.7139 50.6775 21.3909 53.9538 22.9408C54.7194 23.303 55.4824 23.7029 56.1498 24.2291C56.6993 24.6623 57.2894 25.3191 57.3625 26.0479C57.4145 26.5669 57.1707 27.0872 56.8508 27.4817C56.3845 28.0568 55.7464 28.4857 55.1191 28.8671C51.8465 30.8569 47.0858 31.7978 43.2951 32.2023C41.6182 32.38 39.9373 32.5001 38.2522 32.5628C36.5671 32.6254 34.8819 32.6304 33.1965 32.5778C28.5226 32.4465 23.8413 31.9459 19.3718 30.5106C17.6202 29.9482 15.6538 29.1708 14.2144 27.9998C13.6897 27.573 13.0893 26.9682 13.0306 26.2553C12.9791 25.63 13.2624 25.1064 13.6663 24.6509C14.4281 23.7918 15.5081 23.2103 16.5401 22.7345C20.8918 20.728 26.3671 20.1313 31.1306 19.8602Z" fill="white"/>
<path d="M46.6594 42.7092L46.6778 42.7246C46.6584 42.7905 46.6732 42.7645 46.6255 42.8201C46.1929 43.324 45.6819 43.799 45.1827 44.2371C45.1058 44.3058 45.0281 44.3737 44.9498 44.4407C44.8714 44.5078 44.7924 44.5741 44.7128 44.6396C44.6331 44.705 44.5528 44.7697 44.4718 44.8336C44.3908 44.8974 44.3091 44.9604 44.2269 45.0226C44.1446 45.0848 44.0617 45.1461 43.9782 45.2066C43.8947 45.2671 43.8106 45.3268 43.7258 45.3855C43.6411 45.4443 43.5558 45.5023 43.4699 45.5593C43.384 45.6164 43.2976 45.6726 43.2106 45.728C43.1235 45.7832 43.0359 45.8376 42.9478 45.8912C42.8596 45.9447 42.7709 45.9974 42.6817 46.0491C42.5925 46.1008 42.5028 46.1516 42.4125 46.2015C42.3223 46.2515 42.2316 46.3005 42.1403 46.3485C42.0491 46.3966 41.9574 46.4437 41.8652 46.49C41.773 46.5361 41.6803 46.5814 41.5872 46.6258C41.4941 46.6701 41.4005 46.7134 41.3065 46.7558C41.2125 46.7983 41.1181 46.8398 41.0233 46.8803C40.9284 46.9208 40.8332 46.9603 40.7376 46.9989C40.6419 47.0375 40.5459 47.0751 40.4495 47.1117C40.3531 47.1483 40.2564 47.184 40.1592 47.2187C40.0621 47.2533 39.9646 47.287 39.8668 47.3197C39.769 47.3524 39.6709 47.3841 39.5725 47.4148C39.474 47.4455 39.3753 47.4752 39.2762 47.5038C39.1771 47.5325 39.0778 47.5602 38.9782 47.5869C38.8785 47.6135 38.7787 47.6392 38.6785 47.6639C38.5784 47.6885 38.478 47.7121 38.3774 47.7347C38.2768 47.7573 38.1759 47.7789 38.0749 47.7995C37.9738 47.8201 37.8726 47.8396 37.7711 47.8581C37.6697 47.8766 37.568 47.8941 37.4662 47.9105C37.3644 47.927 37.2625 47.9424 37.1603 47.9568C37.0582 47.9712 36.956 47.9845 36.8536 47.9968C36.7512 48.0091 36.6487 48.0203 36.5461 48.0306C36.4434 48.0408 36.3407 48.05 36.2379 48.0581C36.119 48.0681 36 48.0767 35.8808 48.0838C35.7617 48.0909 35.6426 48.0965 35.5233 48.1008C35.404 48.105 35.2847 48.1078 35.1654 48.1091C35.0461 48.1104 34.9267 48.1103 34.8074 48.1087C34.6881 48.1071 34.5688 48.1041 34.4496 48.0996C34.3303 48.0951 34.2111 48.0892 34.092 48.0818C33.9729 48.0745 33.8539 48.0657 33.735 48.0554C33.6161 48.0451 33.4973 48.0334 33.3788 48.0203C33.2601 48.0071 33.1417 47.9925 33.0234 47.9765C32.9052 47.9605 32.7871 47.943 32.6693 47.9242C32.5515 47.9053 32.4339 47.8849 32.3165 47.8632C32.1992 47.8415 32.0821 47.8183 31.9654 47.7937C31.8486 47.7691 31.7322 47.7431 31.616 47.7157C31.4999 47.6882 31.3841 47.6594 31.2686 47.6292C31.1532 47.5989 31.0381 47.5673 30.9234 47.5343C30.8088 47.5013 30.6945 47.4669 30.5806 47.431C30.4668 47.3952 30.3534 47.3581 30.2405 47.3195C30.1275 47.281 30.0151 47.241 29.9031 47.1997C29.7912 47.1585 29.6797 47.1158 29.5688 47.0718C29.4579 47.0278 29.3475 46.9824 29.2377 46.9358C29.1278 46.8891 29.0186 46.8411 28.9099 46.7918C28.8012 46.7425 28.6932 46.6918 28.5858 46.6398C28.4784 46.5879 28.3716 46.5346 28.2654 46.4801C28.1593 46.4255 28.0538 46.3697 27.9491 46.3126C27.8443 46.2555 27.7402 46.1971 27.6368 46.1374C27.5335 46.0778 27.4308 46.0169 27.3289 45.9548C27.227 45.8926 27.1259 45.8293 27.0256 45.7647C26.9253 45.7001 26.8257 45.6343 26.727 45.5672C26.6282 45.5002 26.5303 45.4321 26.4332 45.3627C26.3361 45.2933 26.2399 45.2227 26.1445 45.151C26.0491 45.0793 25.9546 45.0064 25.861 44.9323C25.7674 44.8584 25.6747 44.7832 25.5829 44.7069C24.9148 44.1361 24.2812 43.5464 23.7333 42.8562C23.9644 42.9314 24.1962 43.0043 24.4287 43.0749C24.6612 43.1455 24.8944 43.2137 25.1282 43.2795C25.3621 43.3454 25.5966 43.409 25.8318 43.4702C26.0669 43.5313 26.3027 43.5902 26.539 43.6467C26.7754 43.7031 27.0122 43.7572 27.2496 43.8088C27.4871 43.8605 27.725 43.9099 27.9634 43.9568C28.2018 44.0037 28.4406 44.0482 28.6799 44.0904C28.9193 44.1325 29.159 44.1722 29.399 44.2095C29.6392 44.2468 29.8796 44.2817 30.1204 44.3142C30.3612 44.3467 30.6023 44.3768 30.8437 44.4044C31.0851 44.432 31.3268 44.4573 31.5687 44.4801C31.8106 44.5029 32.0527 44.5232 32.295 44.5412C32.5374 44.5591 32.7798 44.5746 33.0225 44.5877C33.2651 44.6008 33.5078 44.6114 33.7507 44.6196C33.9935 44.6278 34.2364 44.6335 34.4794 44.6369C34.7223 44.6402 34.9653 44.641 35.2083 44.6395C35.4512 44.638 35.6942 44.634 35.9371 44.6275C36.18 44.6211 36.4228 44.6122 36.6655 44.6009C36.9082 44.5896 37.1508 44.5758 37.3932 44.5597C37.6357 44.5435 37.878 44.5249 38.12 44.5039C38.3621 44.4828 38.6039 44.4593 38.8455 44.4334C39.0871 44.4075 39.3284 44.3792 39.5695 44.3485C39.8105 44.3177 40.0512 44.2846 40.2915 44.249C40.5319 44.2134 40.7719 44.1755 41.0115 44.1351C41.2511 44.0947 41.4903 44.0519 41.729 44.0067C41.9678 43.9615 42.206 43.9139 42.4438 43.864C42.6816 43.814 42.9189 43.7616 43.1556 43.7069C43.3923 43.6522 43.6285 43.5951 43.8641 43.5356C44.0997 43.4761 44.3346 43.4143 44.569 43.3501C44.8033 43.2859 45.037 43.2194 45.2701 43.1505C45.5031 43.0816 45.7354 43.0104 45.9669 42.9368C46.1985 42.8633 46.4293 42.7874 46.6594 42.7092Z" fill="white"/>
<path d="M41.7503 23.6955C43.0131 23.6488 45.1334 23.8635 46.2149 24.5224C46.7906 24.8732 47.2586 25.4942 47.4048 26.1572C47.4619 26.4163 47.4681 26.7483 47.3055 26.9735C47.2329 27.0741 47.1183 27.1279 47.0085 27.178C46.5859 27.3711 46.0954 27.4939 45.6516 27.6364C44.7043 27.949 43.7488 28.2343 42.7852 28.4925C42.0601 28.6804 41.3299 28.8457 40.5946 28.9885C39.5479 29.1877 38.4852 29.2901 37.4317 29.4474C37.1705 29.4842 36.9091 29.5188 36.6474 29.551C35.567 29.6804 33.1274 30.0117 32.2467 29.2853C32.0197 29.0981 31.8892 28.8411 31.8736 28.5472C31.8412 27.9365 32.1892 27.3403 32.5827 26.9011C34.4498 24.8172 39.05 23.8479 41.7503 23.6955Z" fill="white"/>
<path d="M33.4405 27.9418C33.5052 27.9447 33.5722 27.9516 33.6346 27.97C33.7612 28.0075 33.8787 28.1112 33.9302 28.2329C33.9931 28.3819 33.9772 28.5556 33.9092 28.6999C33.818 28.894 33.6778 28.973 33.4824 29.0405C33.3775 29.0433 33.2666 29.0496 33.1685 29.0062C33.0581 28.9573 32.9669 28.8701 32.9257 28.7553C32.8777 28.6212 32.8997 28.4716 32.9582 28.3446C33.0612 28.121 33.2202 28.0303 33.4405 27.9418Z" fill="#1C1C1C"/>
<path d="M44.9868 24.7824C45.3298 24.7411 45.6162 24.7952 45.8985 25.0025C46.1019 25.1518 46.4015 25.4593 46.4173 25.7212C46.4222 25.8043 46.4062 25.8601 46.348 25.9209C46.2763 25.9959 46.1796 26.0019 46.0826 26.0055C45.9159 25.8319 45.806 25.6074 45.6336 25.4368C45.4112 25.2167 45.2164 25.3001 44.9343 25.3017C44.8163 25.3025 44.7514 25.2912 44.666 25.2075C44.6522 25.1434 44.6515 25.1006 44.6727 25.0388C44.7263 24.8834 44.8503 24.8449 44.9868 24.7824Z" fill="#1C1C1C"/>
<path d="M40.5864 24.728C41.5596 24.6441 42.1928 25.2526 43.06 25.5185C43.3814 25.6169 43.7185 25.621 44.0495 25.6622C44.2108 25.6823 44.3852 25.7443 44.4829 25.8817C44.5931 26.0365 44.5815 26.2494 44.5479 26.4269C44.4803 26.7833 44.3158 27.3781 44.0016 27.5821C43.5656 27.8654 43.0914 27.5539 42.6555 27.4605C42.0005 27.32 41.1894 28.1101 40.677 28.4495C40.1331 28.8098 39.4676 28.914 38.8277 28.7959C38.5269 28.7404 38.2325 28.6589 37.9233 28.6786C37.3751 28.7136 36.8998 29.0541 36.3317 28.9255C36.1634 28.8875 35.073 28.4283 35.0051 28.3185C34.9877 28.239 34.9813 28.1742 35.0186 28.0978C35.0489 28.0358 35.116 28.002 35.1786 27.9812C35.5477 27.8584 35.9564 28.28 36.2724 28.4135C36.8072 28.6393 37.2952 28.251 37.819 28.1915C38.3865 28.127 38.9252 28.4147 39.5065 28.368C40.5007 28.288 41.1492 27.3727 42.0453 27.0215C42.6011 26.8766 42.875 27.0813 43.3859 27.1637C43.5271 27.1865 43.6818 27.1708 43.796 27.0773C44.0275 26.8877 44.0573 26.4631 44.0895 26.1847C43.659 26.1388 43.255 26.0858 42.8451 25.9362C42.0663 25.6518 41.3743 25.1035 40.4984 25.2233C40.0622 25.283 39.4618 25.4801 39.2721 25.9099C39.1802 26.1182 39.1342 26.3523 38.9883 26.5334C38.6637 26.9362 36.4959 27.5718 35.9672 27.6277C35.5062 27.6765 34.8859 27.5887 34.5174 27.2869C34.4179 27.2053 34.3287 27.1114 34.2019 27.0775C34.0868 27.1667 34.0878 27.3233 33.9965 27.4313C33.9514 27.4846 33.8999 27.519 33.8271 27.514C33.7414 27.5082 33.685 27.461 33.6286 27.4018C33.5945 27.3172 33.58 27.255 33.5989 27.163C33.6384 26.97 33.7703 26.7601 33.9376 26.6529C34.3304 26.401 34.9334 27.0415 35.3373 27.1212C35.5671 27.1665 35.8199 27.1526 36.0496 27.1121C36.5781 27.0188 38.2442 26.492 38.6598 26.2023C38.6689 26.1959 38.6779 26.1893 38.6869 26.1828C38.7763 25.9073 38.8511 25.6462 39.0365 25.4171C39.4062 24.9603 40.0298 24.7978 40.5864 24.728Z" fill="#1C1C1C"/>
<path d="M13.2474 28.2054C13.7251 28.5772 14.1692 28.9499 14.6889 29.2668C19.32 32.0909 26.3383 33.0343 31.6728 33.3335C38.4736 33.7149 51.8066 33.0431 56.9785 28.4228C56.9508 28.5505 56.9218 28.678 56.8915 28.8052C56.8613 28.9323 56.8299 29.0592 56.7972 29.1858C56.7645 29.3124 56.7305 29.4386 56.6954 29.5645C56.6602 29.6904 56.6239 29.816 56.5863 29.9412C56.5487 30.0664 56.5098 30.1912 56.4698 30.3156C56.4298 30.4401 56.3885 30.5641 56.3461 30.6878C56.3037 30.8114 56.26 30.9346 56.2152 31.0574C56.1703 31.1802 56.1243 31.3026 56.0771 31.4245C56.0299 31.5464 55.9815 31.6678 55.9319 31.7888C55.8823 31.9097 55.8316 32.0302 55.7797 32.1502C55.7277 32.2701 55.6746 32.3896 55.6203 32.5085C55.5661 32.6275 55.5107 32.7459 55.4542 32.8637C55.3976 32.9816 55.3399 33.0989 55.2811 33.2156C55.2223 33.3324 55.1623 33.4485 55.1012 33.564C55.0401 33.6796 54.9779 33.7946 54.9145 33.9089C54.8512 34.0233 54.7867 34.137 54.7212 34.2501C54.6557 34.3632 54.589 34.4757 54.5213 34.5875C54.4536 34.6994 54.3847 34.8105 54.3148 34.9209C54.2449 35.0314 54.174 35.1412 54.1019 35.2503C54.0299 35.3594 53.9568 35.4677 53.8827 35.5754C53.8085 35.6831 53.7334 35.79 53.6572 35.8962C53.5809 36.0024 53.5036 36.1079 53.4254 36.2126C53.3471 36.3173 53.2678 36.4212 53.1875 36.5244C53.1072 36.6275 53.0259 36.7299 52.9437 36.8315C52.8614 36.9331 52.7781 37.0338 52.6938 37.1338C52.6096 37.2337 52.5244 37.3329 52.4382 37.4311C52.352 37.5294 52.2649 37.6269 52.1768 37.7235C52.0887 37.8201 51.9997 37.9158 51.9098 38.0107C51.8198 38.1056 51.729 38.1996 51.6372 38.2927C51.5455 38.3858 51.4528 38.478 51.3592 38.5693C51.2657 38.6606 51.1712 38.751 51.0759 38.8404C50.9806 38.9299 50.8844 39.0184 50.7874 39.106C50.2297 39.5891 49.6527 40.048 49.0566 40.4827C48.5095 40.8797 47.8516 41.3457 47.248 41.6419C46.301 42.1064 45.2055 42.4059 44.1899 42.6794C39.1084 44.0475 33.7104 44.1442 28.5298 43.3045C26.9328 43.0457 24.9058 42.5654 23.4397 41.8965C21.1319 40.8435 18.6363 38.4982 17.1654 36.4584C18.0921 36.5422 22.1646 36.7872 22.8345 36.372C23.129 36.1894 23.339 35.8734 23.4028 35.5337C23.4728 35.1608 23.3776 34.7549 23.155 34.4484C22.9705 34.1943 22.7093 34.015 22.4011 33.9493C21.9276 33.8484 20.6851 33.97 20.107 33.9617C18.4687 33.9379 16.8035 33.8284 15.1873 33.5478C14.2135 31.8958 13.618 30.0786 13.2474 28.2054Z" fill="white"/>
<path d="M24.3823 9.91669C24.389 9.92223 24.3962 9.92728 24.4025 9.9333C24.6703 10.1873 24.8489 10.7551 24.9614 11.0969C25.3707 12.3409 25.2697 13.5969 24.6502 14.7522C24.2991 15.4073 23.8856 16.0085 23.5958 16.6991C23.2586 17.5027 23.1345 18.3003 23.1332 19.1657L23.1259 19.1808L23.0951 19.1796C23.0139 18.9608 22.9407 18.7393 22.8753 18.5153C22.4938 17.216 22.6289 15.8286 23.3358 14.6632C23.6023 14.224 23.9415 13.8315 24.1858 13.3778C24.7946 12.2471 24.7343 11.1115 24.3823 9.91669Z" fill="white"/>
<path d="M48.3577 9.2713C48.5906 9.47035 48.7723 9.97712 48.8744 10.2604C49.801 12.8318 47.8827 14.7441 47.3375 17.0985C47.1615 17.8588 47.2108 18.57 47.3269 19.3319C47.125 19.048 47.0116 18.6063 46.906 18.2727C46.2279 16.1302 46.8673 15.0948 47.825 13.251C48.4961 11.9588 48.8073 10.6891 48.3577 9.2713Z" fill="white"/>
<path d="M41.6292 5.66669C41.9277 6.01216 42.1637 6.58374 42.3223 7.00923C42.9126 8.59301 42.4562 10.4115 41.7183 11.865C41.2806 12.7272 40.7614 13.4998 40.4717 14.4367C40.1584 15.4502 40.1267 16.4641 40.3144 17.5046L40.3113 17.569C40.1386 17.3369 39.8672 16.2067 39.8102 15.9113C39.0096 11.7645 41.8148 10.8086 41.9343 7.6991C41.961 7.00345 41.8089 6.33311 41.6292 5.66669Z" fill="white"/>
<path d="M34.1773 4.25C34.4228 4.47571 34.6239 5.07761 34.744 5.40028C35.9071 8.524 33.4787 10.2355 32.7944 12.9511C32.6061 13.698 32.5907 14.4877 32.6858 15.2495C32.7217 15.5369 32.7937 15.8283 32.8089 16.1166L32.7701 16.0902C32.4853 15.5651 32.2726 14.9673 32.1084 14.3929C31.6201 12.6849 31.7882 11.2116 32.7171 9.69908C33.045 9.16493 33.4344 8.66553 33.7355 8.11518C34.415 6.87267 34.5712 5.60636 34.1773 4.25Z" fill="white"/>
</svg>
