<svg width="66" height="66" viewBox="0 0 66 66" fill="none" xmlns="http://www.w3.org/2000/svg">
<g clip-path="url(#clip0_107_4642)">
<path d="M0 0H66V66H0V0Z" fill="#1C1C1C"/>
<path d="M33.7595 1.97887C35.4232 1.8529 36.875 2.79938 38.5088 2.86096C39.1883 2.88657 39.9114 2.79433 40.566 2.61122C41.3297 2.39758 42.0849 2.09394 42.8758 1.99402C44.1499 1.83307 45.4009 2.15132 46.2663 3.13492C46.6467 3.56727 46.9929 4.06771 47.5511 4.28111C47.8377 4.3907 48.1628 4.40642 48.4655 4.43342C49.2789 4.506 50.4023 4.51327 51.0625 5.05065C51.2836 5.2306 51.4307 5.48484 51.4552 5.77109C51.5532 6.91562 49.7507 10.3892 48.9629 11.3032C48.1826 12.2086 47.1782 12.904 46.4126 13.8292C46.7354 14.113 47.0008 14.4062 47.165 14.8095C47.4423 15.4903 47.335 16.0839 47.0549 16.7412C49.4286 18.1903 51.7526 19.8324 53.8054 21.7101C54.14 22.0222 54.4652 22.3439 54.7808 22.6752C55.0964 23.0066 55.402 23.347 55.6975 23.6964C55.993 24.0458 56.2779 24.4036 56.5522 24.7699C56.8265 25.1362 57.0898 25.5102 57.3419 25.8921C58.2847 27.3198 59.0739 28.8466 59.8156 30.3862C61.7032 34.3047 62.9995 37.9524 63.6307 42.2709C63.8539 43.7979 64.007 45.3304 63.7921 46.8671C63.6251 48.0613 63.2707 49.246 62.8174 50.3615C62.6512 50.7706 62.4739 51.1865 62.2617 51.5739C62.08 51.906 61.8387 52.2406 61.7027 52.5921C61.6466 52.737 61.6124 52.8887 61.6235 53.0447C61.6527 53.4532 62.0176 53.6519 62.2928 53.8995C62.7154 54.2797 63.0105 54.9495 63.032 55.5148C63.0534 56.0789 62.8272 56.5965 62.4464 57.0059C61.0639 58.4925 58.2583 58.5597 56.3911 59.0932C55.5315 59.3388 54.6938 59.6794 53.8519 59.9792C52.9051 60.3114 51.9487 60.6134 50.9827 60.8851C47.2799 61.9139 43.4767 62.5401 39.6761 63.0751C37.1665 63.4283 34.6385 63.7763 32.1036 63.8587C31.2227 63.9131 30.3262 63.8986 29.4435 63.8788C25.7552 63.7967 21.402 63.2621 17.827 62.3476C16.9697 62.1284 16.1087 61.8863 15.2662 61.6161C14.3611 61.3258 13.4824 60.9981 12.5444 60.8247C11.4602 60.6242 10.353 60.4778 9.25721 60.3534C7.8366 60.1921 6.30999 60.1544 4.98071 59.5763C4.32018 59.2891 3.53733 58.7636 3.27529 58.0604C3.16786 57.772 3.16828 57.4569 3.30216 57.1766C3.52615 56.7077 4.04555 56.5904 4.49074 56.4248C4.91558 56.2669 5.38319 56.0196 5.57284 55.5826C5.75921 55.1531 5.64021 54.6015 5.50401 54.1728C5.25194 53.3794 4.80794 52.6413 4.42243 51.9063C3.86745 50.8482 3.32046 49.7812 2.90399 48.6595C1.00844 43.5537 2.40913 37.9515 4.59192 33.182C5.59653 30.9869 6.93677 28.8723 8.56473 27.0854C9.67307 25.8687 10.9689 24.8179 12.2955 23.8506C14.1828 22.4745 16.0387 21.3449 18.1252 20.2954C18.9489 19.8811 19.791 19.4582 20.6552 19.1361C20.4934 18.8855 20.3575 18.597 20.3002 18.3029C20.2198 17.8897 20.3132 17.5041 20.5441 17.1579C19.141 16.6032 17.6477 15.9016 16.4647 14.9504C16.0923 14.651 15.7527 14.2677 15.7087 13.7699C15.6842 13.4931 15.7549 13.2112 15.866 12.9586C16.5831 11.3273 18.6583 11.3454 19.686 10.06C20.4594 9.09253 20.069 7.80005 20.995 6.68649C21.9877 5.4928 23.8708 5.28166 25.3265 5.26045C25.8801 5.25238 26.4661 5.29885 27.0149 5.2306C27.4931 5.17113 27.9512 5.03271 28.3902 4.83529C30.6036 3.83989 30.997 2.22304 33.7595 1.97887Z" fill="white"/>
<path d="M18.0889 13.0427C18.1252 13.0447 18.1629 13.0447 18.1987 13.0517C18.3866 13.0889 18.8892 13.294 19.0061 13.455L18.8927 13.4729C18.5975 13.4934 18.2398 13.5587 17.9616 13.4441C17.9268 13.4049 17.8962 13.3907 17.8966 13.3348C17.8974 13.2076 18.0041 13.1236 18.0889 13.0427Z" fill="#1C1C1C"/>
<path d="M49.3128 5.0919C49.6788 5.06973 50.1233 5.11197 50.4402 5.30388C50.584 5.39096 50.773 5.5183 50.8135 5.69271L50.7737 5.73801L50.3336 5.88071C49.9853 5.63057 49.6377 5.37179 49.3128 5.0919Z" fill="#1C1C1C"/>
<path d="M21.6362 17.3155C22.1443 17.3899 25.8774 18.5784 26.2386 18.8452C25.1153 18.838 23.255 18.4057 22.2854 17.8906C22.0703 17.7764 21.7094 17.5586 21.6362 17.3155Z" fill="#1C1C1C"/>
<path d="M45.9814 14.3919C46.0346 14.4104 46.083 14.4273 46.1281 14.4623C46.4018 14.6743 46.6168 15.0989 46.6543 15.4403C46.7102 15.9491 46.4986 16.453 46.1849 16.8441C44.3824 19.0912 36.5178 20.1091 33.677 20.4236C30.2515 20.8028 24.3121 21.2843 21.4714 19.0108C21.3352 18.8828 21.2047 18.7419 21.1134 18.5774C20.9191 18.2272 20.9774 17.9073 21.0783 17.5427C22.539 19.0274 24.981 19.3615 26.9798 19.4769C29.0216 19.5948 31.0794 19.4367 33.1093 19.2215C36.212 18.8926 39.3118 18.3966 42.2972 17.4671C43.3065 17.1528 44.5166 16.8047 45.3128 16.0842C45.8272 15.6186 45.9497 15.0549 45.9814 14.3919Z" fill="#1C1C1C"/>
<path d="M33.5829 2.62046C35.0574 2.53873 36.1497 3.14441 37.5364 3.42551C38.0836 3.53643 38.654 3.55861 39.2102 3.52025C40.2761 3.44673 41.2361 3.07081 42.2575 2.80805C43.561 2.47277 44.8856 2.58675 45.8189 3.6398C46.1418 4.00406 46.411 4.42379 46.8266 4.69321C47.3916 5.05954 48.0416 4.97625 48.6206 5.24602C49.0059 5.42553 49.2427 5.80636 49.6089 6.01879C49.6205 6.02548 49.6321 6.03191 49.6438 6.03848C49.052 6.20358 48.4558 6.35105 47.8552 6.48089C47.2547 6.6107 46.6508 6.72265 46.0437 6.81675C45.4365 6.91081 44.8271 6.98687 44.2154 7.04492C43.6037 7.10293 42.9909 7.14282 42.3768 7.16461C42.9464 6.14275 43.2311 5.31679 43.3042 4.14188C42.8559 5.05447 42.3507 6.42452 41.7158 7.17357C40.5999 7.20837 39.4841 7.13689 38.3742 7.02442C35.3495 6.71782 32.1484 6.15674 29.412 7.8781C28.1691 8.65998 27.019 9.82949 25.8371 10.7352C25.254 9.63793 24.0152 9.57876 23.0793 8.90007C22.6346 8.57768 22.3698 8.23453 22.0627 7.79264L22.0162 7.83943C21.9874 8.02596 22.1123 8.25921 22.2021 8.42125C23.0399 9.933 24.6437 9.80448 25.4239 10.91C25.4312 10.9203 25.4382 10.9307 25.4453 10.941C25.2464 11.0848 25.0438 11.2232 24.8375 11.3561C24.6313 11.4891 24.4216 11.6164 24.2085 11.738C23.9953 11.8597 23.7791 11.9755 23.5597 12.0855C23.3403 12.1956 23.1182 12.2997 22.8932 12.3977C22.6683 12.4958 22.4409 12.5878 22.211 12.6737C21.9811 12.7596 21.7491 12.8392 21.5149 12.9127C21.2807 12.9861 21.0448 13.0531 20.807 13.1138C20.5692 13.1745 20.33 13.2288 20.0893 13.2767C19.5638 12.9331 18.6955 12.4567 18.0468 12.5739C17.8514 12.6092 17.6739 12.714 17.5618 12.8798C17.4507 13.044 17.4145 13.2544 17.456 13.4475C17.4914 13.6116 17.5858 13.7685 17.7322 13.8558C18.2138 14.1431 19.1329 14.0271 19.6595 13.971C22.2887 13.691 24.8712 12.3296 26.9153 10.6987C28.5009 9.43362 29.7521 8.08358 31.8118 7.5898C34.2941 6.99464 36.9116 7.63595 39.4083 7.79219C39.7941 7.81466 40.1802 7.82985 40.5666 7.83776C40.953 7.84566 41.3395 7.84628 41.7259 7.83962C42.1123 7.83301 42.4984 7.81909 42.8843 7.79786C43.2702 7.77668 43.6556 7.74821 44.0404 7.71246C44.4252 7.67675 44.8092 7.6338 45.1924 7.58362C45.5756 7.53339 45.9577 7.47598 46.3387 7.4114C46.7198 7.34682 47.0995 7.27506 47.4778 7.19612C47.8561 7.11723 48.2328 7.03123 48.6079 6.93812C49.3235 6.71298 50.0463 6.53374 50.7503 6.27015C50.1863 7.71942 49.6247 9.19424 48.7035 10.4607C48.1705 11.1934 47.5079 11.7718 46.878 12.4142C45.7023 13.6133 44.4129 14.9776 43.4934 16.3798C43.0936 16.5522 42.6593 16.6734 42.2444 16.8069C40.7099 17.3004 39.1452 17.6597 37.5631 17.9624C37.8213 17.3977 38.148 16.86 38.4208 16.3011C39.4054 14.2834 40.2104 12.0587 40.1386 9.7796C39.7465 10.8152 39.5373 12.013 39.1646 13.09C38.9026 13.8474 38.6206 14.5971 38.2823 15.3239C37.8428 16.2682 37.3343 17.1694 36.8659 18.0978C35.8013 18.2705 34.7331 18.4178 33.6615 18.5398C32.9165 16.5777 29.6836 16.6277 28.4708 13.5873C28.4653 13.6574 28.4612 13.7276 28.4586 13.7979C28.3742 15.7202 30.5745 16.6325 31.9206 17.4832C32.4186 17.7978 32.874 18.137 33.2747 18.5711C31.8288 18.7104 30.3916 18.8492 28.9386 18.8904C28.519 18.9023 28.0533 18.9486 27.637 18.8965C27.248 18.8477 26.6852 18.4688 26.3013 18.2993C25.9774 18.1597 25.65 18.0287 25.3191 17.9064C22.3765 16.7975 19.8898 16.5556 17.206 14.6521C16.8949 14.4313 16.4745 14.1092 16.4198 13.706C16.3934 13.5111 16.4689 13.2975 16.5587 13.1278C17.0269 12.2433 18.0937 11.9474 18.9158 11.5038C19.0794 11.4158 19.2378 11.3194 19.3911 11.2146C19.5444 11.1098 19.6918 10.9972 19.8331 10.8767C21.2351 9.67332 20.5875 8.28351 21.5199 7.09435C22.7504 5.52507 25.3627 6.09586 27.0686 5.90564C27.6095 5.84532 28.1464 5.67626 28.6399 5.4497C29.2932 5.14975 29.9234 4.71987 30.48 4.26503C31.5793 3.36666 32.0896 2.81287 33.5829 2.62046Z" fill="#1C1C1C"/>
<path d="M45.8379 18.0418C45.8939 18.0429 45.9186 18.0593 45.9651 18.0888C46.2136 18.2465 46.4494 18.4739 46.6743 18.6646C47.1857 19.1005 47.691 19.5433 48.1905 19.9928C49.829 21.4399 51.4258 22.9318 52.9808 24.4683C53.4444 24.9314 54.0415 25.4522 54.4412 25.9632C54.6866 26.277 54.8176 26.6788 54.9153 27.0599C55.2756 28.4673 55.1892 29.9971 54.9034 31.4098C54.2152 34.8121 52.3106 37.6884 50.1557 40.3452C48.9515 41.8298 47.7369 43.2373 46.7543 44.8872C44.8569 44.17 43.0054 43.8437 41.0098 43.5352C38.9565 43.2178 36.8971 42.9681 34.8546 42.5815C30.0708 41.676 26.0985 40.5089 22.2893 37.3399C21.9268 37.0396 21.5751 36.7269 21.2342 36.4021C20.8934 36.0772 20.5642 35.7409 20.2468 35.3931C19.9294 35.0454 19.6244 34.687 19.3319 34.318C19.0394 33.949 18.7601 33.5703 18.494 33.1819C17.5233 31.7554 16.1049 29.1533 16.4516 27.4099C16.5398 26.9662 16.7696 26.6386 17.1086 26.3511C17.5908 25.9421 18.1962 25.6224 18.741 25.3026C19.4368 24.901 20.1249 24.4866 20.8052 24.0593C22.2633 23.1398 23.6396 22.1037 25.0749 21.1504C25.6603 21.2306 26.2402 21.3029 26.8292 21.3549C26.2259 21.7814 25.6643 22.3037 25.1193 22.8005C23.2625 24.493 21.3135 26.556 20.809 29.1014C21.9474 26.2627 25.1771 23.1168 27.6366 21.3997C29.2158 21.4312 30.7919 21.3742 32.3648 21.2286C32.1134 21.4663 31.8567 21.699 31.6027 21.9341C29.3477 23.9209 27.1231 26.8833 26.0015 29.6801C25.4697 31.0062 25.1806 32.4799 25.7649 33.8416C25.7379 33.6733 25.7201 33.5041 25.7115 33.3339C25.7029 33.1636 25.7035 32.9934 25.7134 32.8233C25.8726 29.7776 28.3184 26 30.3421 23.8016C31.2109 22.8577 32.1716 22.0394 33.1211 21.1815C34.6019 21.0011 36.0826 20.8615 37.5509 20.5893C37.8924 20.9658 38.2016 21.3782 38.5088 21.7826C40.7506 24.7339 41.8804 27.9391 42.7287 31.5042C43.1767 33.3871 43.5098 35.246 43.7092 37.1714C44.1903 33.9101 42.6385 28.6221 41.3557 25.6403C40.9935 24.8086 40.5844 24.0007 40.1285 23.2165C39.5672 22.2368 38.8221 21.4138 38.1914 20.4877C39.4932 20.2933 40.7905 19.9813 42.0586 19.6334C45.5173 21.7772 48.4839 25.237 50.5201 28.7318C50.8683 29.3296 51.1679 29.9609 51.484 30.5762C51.8219 31.2243 52.1666 31.8687 52.5181 32.5096C51.2666 27.5125 46.9949 22.1723 42.7018 19.4264C43.7859 19.0636 44.8805 18.6788 45.8379 18.0418Z" fill="#1C1C1C"/>
<path d="M46.6809 17.3648C46.7924 17.397 46.8821 17.4422 46.9814 17.5006C47.663 17.9009 48.3156 18.3657 48.9674 18.8128C51.0462 20.2385 53.1415 21.8093 54.8095 23.714C57.2942 26.5513 59.0325 30.0535 60.4465 33.526C61.0009 34.857 61.4861 36.2127 61.9022 37.5931C62.1499 38.4567 62.364 39.3286 62.5446 40.2086C62.7252 41.0887 62.8717 41.9744 62.9842 42.8657C63.0769 43.6512 63.1703 44.4555 63.1556 45.2476C63.1499 45.519 63.1354 45.79 63.1119 46.0604C63.0885 46.3308 63.0563 46.6002 63.0152 46.8686C62.974 47.1369 62.9242 47.4036 62.8656 47.6686C62.8071 47.9337 62.7399 48.1966 62.6641 48.4572C62.5238 48.9374 62.3573 49.4082 62.1647 49.8698C61.8225 50.701 60.9669 52.3102 61.1114 53.1558C61.2477 53.9531 62.152 54.3214 62.3596 55.1872C62.4504 55.5661 62.3657 55.9202 62.158 56.2446C61.3707 57.4741 58.4066 57.9051 57.0346 58.2052C58.4938 57.448 59.5658 56.6709 60.3544 55.196C59.8693 55.6915 59.3753 56.1521 58.8061 56.5517C58.0781 57.0629 57.2726 57.4323 56.4801 57.8291C55.6282 58.2557 54.7928 58.6868 53.9049 59.0372C53.0065 59.3915 52.098 59.7174 51.1793 60.015C50.2606 60.3126 49.3335 60.5812 48.3981 60.821C46.1239 61.3908 43.7895 61.7713 41.4722 62.1204C38.9404 62.5018 36.3835 62.9223 33.8285 63.1034C28.5515 63.4774 23.24 62.8671 18.0925 61.7138L16.0925 61.2466C15.5575 61.1262 15.0104 61.0285 14.4844 60.8728C13.8702 60.6862 13.2701 60.462 12.684 60.2001C11.1356 59.5261 9.12108 58.5865 8.08403 57.2126C7.65471 56.6439 7.37182 55.9931 7.11227 55.3344C7.12161 55.6308 7.19271 55.9375 7.27147 56.2223C7.75989 57.9885 9.09788 58.9828 10.6197 59.8342C8.83671 59.5595 5.82091 59.5135 4.41646 58.3829C4.23754 58.2389 3.90197 57.9311 3.90034 57.691C3.89938 57.5487 3.97315 57.4622 4.08661 57.3898C4.24855 57.2865 4.45379 57.2338 4.63326 57.1686C5.15812 56.9777 5.7064 56.7157 6.06145 56.2682C6.38457 55.8608 6.46277 55.342 6.39419 54.8391C6.22668 53.611 5.16876 51.8768 4.58143 50.7349C4.30167 50.1859 4.04167 49.6277 3.80142 49.0602C3.68166 48.7771 3.5717 48.4902 3.47156 48.1995C3.37141 47.9088 3.2813 47.615 3.20123 47.3182C3.12116 47.0214 3.05132 46.7221 2.9917 46.4205C2.93208 46.1189 2.88283 45.8156 2.84394 45.5106C2.23266 41.139 3.65484 36.5868 5.59762 32.7138C6.49294 30.9289 7.5559 29.2296 8.88718 27.7348C11.1138 25.2348 14.1885 23.2 17.1035 21.5952C18.4344 20.8624 19.8142 20.1637 21.2581 19.6844C22.4162 20.4329 23.1383 20.5968 24.3791 21.0229C23.0718 22.1782 21.3865 22.9673 19.8134 23.6855C16.8614 25.0333 13.8691 26.4191 11.7525 28.9704C13.2516 27.7239 14.9085 26.6087 16.6746 25.7773C16.1819 26.2092 15.8201 26.8089 15.7257 27.4616C15.4296 29.5073 17.2351 32.6598 18.4284 34.2694C18.6812 34.6073 18.9437 34.9374 19.216 35.2598C19.4883 35.5821 19.7699 35.8962 20.0608 36.2019C20.3516 36.5076 20.6513 36.8045 20.9597 37.0925C21.2681 37.3805 21.5847 37.6592 21.9096 37.9285C27.7678 42.8313 34.8645 43.239 42.0441 44.4041C43.1368 44.5818 44.2163 44.8191 45.2828 45.116C45.7515 45.2509 46.4466 45.6197 46.8927 45.6661C46.9712 45.6742 47.0536 45.6848 47.1126 45.6245C47.4013 45.3294 47.5837 44.8376 47.8069 44.4832C48.1268 43.9754 48.4841 43.4825 48.8548 43.0109C49.9142 41.6624 51.0506 40.376 52.0681 38.995C54.1984 36.1034 55.8655 32.6311 55.8179 28.9676C55.8059 28.0449 55.7136 26.8235 55.2804 26.0052C54.898 25.283 54.1518 24.677 53.5775 24.1078C52.1082 22.6521 50.5977 21.2405 49.0458 19.8731C48.1838 19.1081 47.2632 18.3803 46.4384 17.5776L46.6809 17.3648Z" fill="#1C1C1C"/>
<path d="M8.39922 33.715C8.47067 33.7085 8.5423 33.7045 8.6141 33.703C8.68586 33.7016 8.75758 33.7028 8.82925 33.7065C8.90092 33.7102 8.97238 33.7164 9.04362 33.7253C9.11482 33.7341 9.18563 33.7454 9.25606 33.7593C9.32648 33.7732 9.39633 33.7896 9.46559 33.8086C9.53482 33.8275 9.60329 33.8488 9.671 33.8726C9.73872 33.8964 9.8055 33.9226 9.87133 33.9512C9.93715 33.9798 10.0019 34.0107 10.0655 34.0439C10.8731 34.4586 11.4174 35.137 11.6428 36.0145C11.733 36.3655 11.7765 36.7272 11.8919 37.0718L11.9073 37.1171C12.5194 36.7803 13.2004 36.4526 13.9219 36.543C14.0386 36.5575 14.1651 36.6032 14.2295 36.7091C14.3731 36.9449 14.0973 37.5539 14.0162 37.7969C14.7138 37.5637 15.37 37.3917 16.112 37.3875C16.2571 37.3867 16.4781 37.3785 16.6037 37.4601C16.6756 37.5067 16.7067 37.5435 16.7268 37.6273C16.7974 37.9227 16.4074 38.3961 16.2456 38.6342C16.2935 38.6867 16.342 38.7402 16.3799 38.8006C16.5944 39.1422 16.4337 39.6284 16.3473 39.9886C16.3576 39.985 16.3677 39.9812 16.3782 39.9779C17.3997 39.6544 18.6015 39.7025 19.5594 40.2038C19.7822 40.3204 20.242 40.5891 20.2899 40.8506C20.3075 40.9465 20.2605 41.0238 20.1968 41.0904C19.4627 41.8587 18.3092 42.0584 17.2966 42.0525C17.5619 42.2642 17.7703 42.5217 17.9812 42.7858C18.1078 42.7759 18.2346 42.7723 18.3616 42.7751C19.3903 42.8029 20.3775 43.3723 21.0716 44.1046C21.3771 44.4269 21.9 45.0592 21.8893 45.5227C21.8638 45.5741 21.8617 45.595 21.8118 45.628C21.4667 45.8569 20.3857 45.7054 19.9912 45.6291C20.4072 46.0463 20.6419 46.5093 20.8775 47.0405C21.1882 46.9607 21.5046 46.8669 21.8224 46.822C22.7823 46.6863 23.6658 47.0483 24.4225 47.624C24.6844 47.8232 25.3999 48.4719 25.4143 48.803C25.4192 48.9136 25.3863 48.99 25.3089 49.0655C24.9115 49.4528 24.0148 49.4097 23.4935 49.4124C23.7556 49.9188 23.8916 50.3881 23.9944 50.9452C24.6543 50.5437 25.3141 50.2726 26.0951 50.2387C26.3662 50.227 26.954 50.1638 27.1507 50.3892C27.2102 50.4574 27.2289 50.5502 27.2211 50.6381C27.1729 51.1801 26.4167 51.9364 26.0097 52.2589C26.8465 52.7382 27.4768 53.276 28.0336 54.0664C28.9442 54.1627 29.7695 54.4194 30.4983 54.9914C30.727 55.1709 31.2196 55.5898 31.2279 55.8995C31.2302 55.9816 31.1759 56.0491 31.118 56.1016C30.6153 56.5574 29.6743 56.7192 29.0197 56.6743C27.966 56.602 27.2624 56.219 26.5803 55.4326C26.4266 55.5945 26.2593 55.7408 26.0784 55.8716C25.1454 56.5539 24.2051 56.7007 23.0814 56.5291C23.517 56.852 23.9713 57.197 24.2252 57.6871C24.2479 57.7597 24.2535 57.8176 24.2544 57.8935C24.2056 57.9966 24.1279 58.0543 24.0297 58.1082C23.4045 58.4512 22.4078 58.385 21.7484 58.1776C20.8425 57.8927 20.3421 57.3975 19.9143 56.569C19.2707 56.5632 18.7437 56.5065 18.1339 56.2877C18.4259 56.6999 18.8313 57.2218 18.9107 57.7294C18.9229 57.8075 18.9293 57.9308 18.8759 57.994C18.7893 58.0963 18.6375 58.1123 18.5115 58.1182C17.3974 58.17 16.262 57.4799 15.4702 56.7585L15.4683 56.8104C15.4514 57.2204 15.3763 57.9368 15.0428 58.2177C14.9473 58.2982 14.8331 58.2895 14.7171 58.2708C14.1343 58.177 13.5397 57.7314 13.1972 57.264C12.7455 56.6478 12.6246 55.9807 12.7384 55.2372C12.2401 55.4042 11.6979 55.5119 11.1828 55.3465C10.8411 55.2368 10.6076 55.029 10.4457 54.7124C10.1678 54.7049 9.88828 54.7008 9.61119 54.678C9.215 54.6453 8.50266 54.5543 8.23969 54.2206C8.16699 54.1283 8.13947 54.0163 8.16125 53.901C8.25368 53.4112 9.13824 52.76 9.53739 52.4681C8.86792 52.1114 7.99393 52.1689 7.40889 51.669C7.59162 51.1361 7.86722 50.7822 8.22564 50.3569C8.0475 50.3999 7.86696 50.4496 7.68604 50.479C7.57763 50.4966 7.44222 50.5239 7.3494 50.4525C7.18724 50.328 7.14702 50.0991 7.12975 49.9079C7.0468 48.9903 7.33851 47.982 7.93103 47.2706C7.40844 47.4464 6.17787 47.6371 5.68505 47.3984C5.62299 47.3218 5.61717 47.3041 5.61196 47.2055C5.58035 46.6069 6.25274 45.8462 6.6749 45.4794C6.85421 45.3236 7.09282 45.191 7.25047 45.0178L7.22578 44.968C6.9244 44.8943 5.80199 45.4254 5.23546 45.3229C5.1721 45.2626 5.14526 45.2052 5.13607 45.1187C5.11773 44.9458 5.17912 44.7538 5.22672 44.5885C5.45895 43.7818 5.8687 43.0895 6.4126 42.4562C5.55027 42.4031 4.77919 42.1088 4.09842 41.5762C3.97344 41.4783 3.79563 41.3365 3.79227 41.1617C3.79059 41.0736 3.84555 40.9955 3.90484 40.9355C4.05422 40.7843 4.27981 40.6812 4.47012 40.5902C5.35379 40.1675 6.25354 40.0089 7.22746 40.0216C6.99072 39.8822 6.72337 39.7073 6.57635 39.4684C6.5108 39.3619 6.46949 39.2365 6.50404 39.1119C6.54632 38.9595 6.68753 38.8518 6.81915 38.7778C7.88804 38.1771 9.03195 38.3393 10.1474 38.669C10.4048 38.5895 10.6621 38.5357 10.9282 38.4954C11.0687 38.1415 11.264 37.8143 11.4547 37.486C10.94 37.3408 10.4513 37.1776 9.97716 36.9247C9.15899 36.4881 8.43795 35.849 8.1666 34.9336C8.08578 34.6609 7.9746 34.0903 8.13251 33.8436C8.19168 33.7511 8.30028 33.7381 8.39922 33.715Z" fill="white"/>
<path d="M11.6452 41.8322C11.6766 41.8392 11.6608 41.831 11.685 41.8675C11.6637 41.9772 11.6516 42.0627 11.5814 42.1519C11.4864 42.188 11.4746 42.1681 11.383 42.1325C11.3145 42.0986 11.2516 42.0756 11.2103 42.0076C11.2792 41.9178 11.5265 41.8703 11.6452 41.8322Z" fill="#1C1C1C"/>
<path d="M12.7445 52.8203C12.8967 52.8747 13.0524 52.8962 13.201 52.9654L13.2033 53.0005L13.0556 53.0542C12.9765 53.076 12.9077 53.0942 12.8241 53.0853C12.7233 53.0747 12.6516 53.0558 12.5891 52.9776C12.6189 52.8865 12.6668 52.8734 12.7445 52.8203Z" fill="#1C1C1C"/>
<path d="M22.3022 52.1249C22.4542 52.1244 22.6068 52.1327 22.7586 52.1372C22.6777 52.2145 22.5927 52.2879 22.5095 52.3627L22.2346 52.556C22.2528 52.4112 22.2759 52.2684 22.3022 52.1249Z" fill="#1C1C1C"/>
<path d="M13.6983 40.1985L13.7394 40.201C13.7275 40.3284 13.6375 40.4516 13.5763 40.5639L13.3251 40.4084C13.2156 40.3468 13.0897 40.3062 12.9728 40.2603C13.2201 40.2536 13.4542 40.2413 13.6983 40.1985Z" fill="#1C1C1C"/>
<path d="M22.9753 51.1352C23.2139 51.1743 23.4596 51.1714 23.7009 51.1775C23.6228 51.2802 23.5312 51.3739 23.4443 51.4693L23.2067 51.7048C23.142 51.5086 23.0604 51.3233 22.9753 51.1352Z" fill="#1C1C1C"/>
<path d="M15.2723 41.4952C15.3668 41.5279 15.4682 41.6084 15.554 41.6615C15.5276 41.8375 15.5204 42.0214 15.4716 42.1926L15.4393 42.1853C15.3074 42.0334 15.1601 41.8912 15.0201 41.7465L15.2723 41.4952Z" fill="#1C1C1C"/>
<path d="M18.6214 52.9888L18.6378 52.9976C18.6068 53.0552 18.6196 53.0387 18.5891 53.0769C18.4703 53.2259 18.3815 53.3973 18.2871 53.5625L18.0203 53.3761L17.7578 53.214C18.0462 53.1412 18.3341 53.0661 18.6214 52.9888Z" fill="#1C1C1C"/>
<path d="M20.0013 48.9994C20.1328 49.0761 20.3039 49.0339 20.4527 49.0604C20.5781 49.1491 20.6428 49.3036 20.7166 49.4354L20.7012 49.4527C20.5147 49.4865 20.2443 49.4157 20.0528 49.3892C20.0307 49.2599 20.0168 49.1296 20.0013 48.9994Z" fill="#1C1C1C"/>
<path d="M12.3936 39.7964C12.4221 39.821 12.4241 39.8168 12.427 39.874C12.4369 40.0688 12.2039 40.326 12.0909 40.4731L11.877 40.3605C11.7961 40.3085 11.7171 40.253 11.6374 40.1992C11.8943 40.0743 12.1433 39.9341 12.3936 39.7964Z" fill="#1C1C1C"/>
<path d="M11.562 51.4342C11.5681 51.435 11.5745 51.4348 11.5803 51.4366C12.0394 51.5791 12.4213 51.6062 12.898 51.5967C12.7154 52.0168 12.4976 52.3915 12.0863 52.6208C11.8646 52.5687 11.6445 52.5061 11.4243 52.448C10.9054 52.31 10.4293 52.2452 9.89508 52.3074C10.4407 51.9699 10.9662 51.6763 11.562 51.4342Z" fill="#1C1C1C"/>
<path d="M16.5702 44.7606C16.9701 44.7335 17.2738 45.1767 17.5757 45.3972C17.7056 45.492 17.8517 45.5528 17.9989 45.6153C18.008 45.8383 18.0479 46.0601 18.0807 46.2807C17.8963 46.3915 17.7151 46.4931 17.5181 46.5799C17.3556 46.6028 17.1867 46.5995 17.0227 46.6042C16.7322 46.2525 16.4035 46.088 15.9983 45.8943C15.997 45.7881 15.998 45.6833 16.0166 45.5783C16.0802 45.2204 16.276 44.9634 16.5702 44.7606Z" fill="#1C1C1C"/>
<path d="M13.9295 53.213C14.0113 53.227 14.0683 53.232 14.1365 53.2826C14.0786 53.5803 13.2116 54.4825 12.921 54.6832C12.434 55.0196 11.9393 55.1227 11.359 55.0157C11.2389 54.9782 11.1238 54.9256 11.008 54.8766C11.7658 53.9466 12.7714 53.4715 13.9295 53.213Z" fill="#1C1C1C"/>
<path d="M15.964 50.0392C17.3523 50.0653 17.3724 49.9383 18.6928 50.5476C18.2947 50.6902 17.8925 50.8059 17.507 50.9823L16.925 51.2873C16.311 51.1749 15.7071 51.0264 15.1026 50.8716C15.4605 50.6336 15.713 50.3898 15.964 50.0392Z" fill="#1C1C1C"/>
<path d="M20.8729 48.3532C21.4169 48.8652 22.124 49.0947 22.8309 49.2821C23.1306 49.6186 23.3706 50.064 23.4977 50.4959C23.5309 50.6087 23.5754 50.7322 23.5178 50.8378C23.337 50.7998 23.153 50.7579 22.9766 50.7029C22.1784 50.4542 21.1572 49.5217 20.7645 48.786L20.8729 48.3532Z" fill="#1C1C1C"/>
<path d="M12.948 40.7517C13.0607 40.7519 13.1558 40.7671 13.2456 40.8421C13.3057 40.8923 13.3345 40.9505 13.3483 41.0265C13.3994 41.3067 13.3109 41.6205 13.335 41.9068C13.3526 42.1163 13.4741 42.3217 13.4745 42.5303C13.4754 42.9483 12.8026 43.685 12.5275 43.9735L12.4997 43.9975L12.456 43.9862C12.3037 43.5298 12.066 43.0281 12.071 42.541C12.0781 41.8629 12.4744 41.2091 12.948 40.7517Z" fill="#1C1C1C"/>
<path d="M8.89752 42.0178C9.67921 42.1175 10.4354 42.0317 11.1264 42.4865C11.7303 42.8839 11.956 43.5729 12.0997 44.2486C11.654 44.204 11.1502 43.7201 10.713 43.5324C10.4171 43.4054 10.086 43.3671 9.78968 43.2422C9.31357 43.0417 9.08083 42.4598 8.89752 42.0178Z" fill="#1C1C1C"/>
<path d="M16.0021 38.9559C16.0278 38.9732 16.0539 39.0045 16.0762 39.0264C16.1572 39.2424 16.0531 39.4972 15.9821 39.706C15.61 40.8009 14.8746 41.4902 13.8545 41.9973C13.8107 41.9812 13.8021 41.9544 13.7749 41.9177C13.7224 41.6634 13.7616 41.3629 13.8154 41.1102C13.995 40.2674 14.3354 39.9617 15.0552 39.5382C15.3762 39.3528 15.6918 39.1587 16.0021 38.9559Z" fill="#1C1C1C"/>
<path d="M10.5536 40.4207C10.9737 40.3758 11.5126 40.4677 11.8701 40.7089C11.9488 40.7619 12.0264 40.8365 12.0336 40.9371C12.0393 41.0168 11.9981 41.0898 11.9461 41.1468C11.5544 41.577 10.6208 41.7016 10.0749 41.735C9.52612 41.7424 8.97196 41.7508 8.44305 41.5837L8.47979 41.5302C9.04118 40.7259 9.6288 40.591 10.5536 40.4207Z" fill="#1C1C1C"/>
<path d="M15.6825 37.8143C15.8339 37.8029 16.092 37.753 16.229 37.8179C16.2753 37.8398 16.2709 37.8663 16.2861 37.9108C16.2704 37.967 16.2537 38.0113 16.22 38.0598C15.6882 38.8233 14.3137 39.6329 13.4174 39.8268C13.1994 39.8612 12.9889 39.8677 12.7685 39.8694C13.0198 39.3466 13.4556 38.8808 13.7566 38.3751C14.3892 38.0675 14.9835 37.8933 15.6825 37.8143Z" fill="#1C1C1C"/>
<path d="M11.5894 45.0889L11.631 45.0961C11.8449 45.3831 12.099 45.6315 12.3563 45.8788C12.2422 46.4445 11.9917 46.9002 11.7122 47.3983C11.4988 47.2715 11.2698 47.1709 11.0453 47.0654C10.6383 46.8911 10.2176 46.7622 9.79333 46.6376C9.93197 46.5274 10.0785 46.4255 10.2214 46.3207C10.3538 45.929 10.3948 45.6018 10.6894 45.283C10.9918 45.2295 11.2964 45.1835 11.5894 45.0889Z" fill="#1C1C1C"/>
<path d="M14.2431 51.3468C15.03 51.2797 15.7464 51.4397 16.5079 51.6131C16.0907 52.0166 15.6008 52.3704 15.0748 52.6149C14.368 52.8579 13.5784 52.6806 12.897 52.4328C12.9816 52.2548 13.0801 52.0848 13.1926 51.9229C13.4649 51.5329 13.797 51.4234 14.2431 51.3468Z" fill="#1C1C1C"/>
<path d="M18.2711 43.1821C19.1712 43.2465 19.8814 43.5873 20.546 44.1965C20.7542 44.3873 21.4038 45.0464 21.4166 45.3179C21.3942 45.321 21.3718 45.3235 21.3493 45.3254C20.2665 45.4196 19.2667 44.9692 18.449 44.3023C18.4664 43.891 18.4323 43.5656 18.2711 43.1821Z" fill="#1C1C1C"/>
<path d="M21.4855 56.1086C21.6578 56.1981 21.8479 56.2617 22.0231 56.3487C22.7163 56.693 23.3884 57.1518 23.8678 57.7673C23.4896 57.8831 23.1183 57.9108 22.7248 57.9109C22.4035 57.8884 22.08 57.8383 21.7731 57.7387C21.1369 57.5322 20.6345 57.1377 20.3257 56.5417C20.7072 56.3789 21.1069 56.2867 21.4855 56.1086Z" fill="#1C1C1C"/>
<path d="M12.9394 44.1079C13.7512 44.1331 14.2771 44.7524 14.8214 45.2617C15.0323 45.4591 15.2602 45.6341 15.4725 45.8289C15.1248 45.7956 14.7772 45.7955 14.4294 45.8285C14.1419 45.8588 13.8558 45.9499 13.5725 46.0102C12.9807 45.8223 12.4608 45.5229 12.0319 45.0724C12.2623 44.5133 12.5229 44.4995 12.9394 44.1079Z" fill="#1C1C1C"/>
<path d="M8.08704 41.9212C8.1029 41.9207 8.11882 41.9181 8.13461 41.9197C8.23786 41.9305 8.33602 42.0501 8.40679 42.1186C8.37618 42.5108 8.3406 42.8767 8.22136 43.2542C7.96536 43.3481 7.70374 43.4336 7.45199 43.5383C7.1992 43.6434 6.89717 43.7841 6.79547 44.0584C6.7296 44.2359 6.81429 44.3942 6.88957 44.5531C6.57884 44.6887 6.2624 44.7965 5.93688 44.8905L5.55023 44.9773C5.57282 44.816 5.60827 44.6574 5.65657 44.5017C6.12578 42.9792 6.7615 42.6146 8.08704 41.9212Z" fill="#1C1C1C"/>
<path d="M25.6133 52.531C25.7132 52.5733 25.8115 52.6191 25.9082 52.6683C26.0049 52.7174 26.0997 52.7699 26.1927 52.8257C26.2857 52.8815 26.3767 52.9405 26.4656 53.0026C26.5545 53.0648 26.6411 53.13 26.7254 53.1982C26.8097 53.2664 26.8916 53.3375 26.971 53.4115C27.0503 53.4854 27.127 53.562 27.201 53.6413C27.275 53.7206 27.3462 53.8024 27.4145 53.8866C27.4828 53.9709 27.548 54.0575 27.6103 54.1463C26.843 54.3286 26.5584 54.1736 25.8214 54.1187C25.1533 54.1076 24.5649 54.2319 23.9403 54.4635C24.3248 53.9661 24.5674 53.4565 24.7348 52.8516C25.0484 52.7911 25.3252 52.6645 25.6133 52.531Z" fill="#1C1C1C"/>
<path d="M25.932 50.6719C26.2262 50.64 26.5153 50.6683 26.808 50.7017C26.7412 50.8316 26.6675 50.9575 26.587 51.0794C26.5066 51.2013 26.4197 51.3185 26.3265 51.4309C25.7581 52.108 24.9573 52.485 24.081 52.5579C23.7425 52.5956 23.4421 52.5906 23.1041 52.5448C23.2093 52.3718 23.3182 52.2088 23.4421 52.0484C24.0663 51.2403 24.9265 50.7994 25.932 50.6719Z" fill="#1C1C1C"/>
<path d="M13.8963 49.7064C14.4117 49.6547 14.9806 49.793 15.4687 49.9463C14.8717 50.6739 14.0622 51.0589 13.14 51.1718C12.7094 51.1932 11.9357 51.2801 11.5813 51.0121C11.5775 50.8416 11.7026 50.7064 11.8094 50.5816C12.3549 49.9436 13.09 49.7735 13.8963 49.7064Z" fill="#1C1C1C"/>
<path d="M8.04569 38.7788C8.34173 38.733 8.69113 38.7435 8.98999 38.7751C9.61442 38.8411 10.3032 39.0812 10.7064 39.5852C10.4101 39.8813 10.0351 40.0704 9.63337 40.1767C9.20881 40.2549 8.77575 40.1963 8.3659 40.0714C8.04576 39.9738 7.11338 39.6517 6.98956 39.3088C6.96256 39.234 6.97777 39.1809 7.02192 39.1178C7.17467 38.8996 7.79677 38.8176 8.04569 38.7788Z" fill="#1C1C1C"/>
<path d="M15.9428 41.7405C16.8057 42.0763 17.3196 42.359 17.8047 43.1941C18.1371 43.7662 18.0351 44.2844 17.8775 44.8844L17.8394 44.9424C17.8287 44.9431 17.818 44.9453 17.8073 44.9446C17.5289 44.9235 16.7108 44.2019 16.5191 43.9422C16.0778 43.3443 15.8304 42.4769 15.9428 41.7405Z" fill="#1C1C1C"/>
<path d="M22.7969 52.7804C22.7991 52.781 22.8014 52.7812 22.8033 52.7823C23.2596 53.0565 23.7996 52.991 24.3094 52.9393C23.9936 53.7948 23.6141 54.3131 22.8222 54.7827C22.4159 54.9983 22.0213 55.1215 21.5681 55.1973C21.5483 54.9329 21.5358 54.6673 21.5768 54.4043C21.6923 53.6602 22.2199 53.1981 22.7969 52.7804Z" fill="#1C1C1C"/>
<path d="M19.55 49.7711C19.6538 49.7617 19.7578 49.7572 19.8621 49.7576C19.9663 49.7581 20.0703 49.7634 20.1741 49.7736C20.2778 49.7839 20.3808 49.799 20.4831 49.819C20.5855 49.839 20.6866 49.8637 20.7866 49.8932C21.6895 50.1634 22.3067 50.7805 22.7472 51.5949C22.5101 51.6035 22.2721 51.5967 22.0349 51.594C21.7889 51.5698 21.5453 51.5303 21.3043 51.4756C20.2825 51.2405 19.4166 50.7799 18.8478 49.8753C19.083 49.8213 19.3096 49.7914 19.55 49.7711Z" fill="#1C1C1C"/>
<path d="M14.7021 41.9863C14.9213 42.0655 15.2936 42.6684 15.4127 42.8713C16.0105 43.889 15.8012 44.2817 15.52 45.3453L15.2817 45.1134C15.07 44.9437 14.8603 44.7585 14.6677 44.5677C14.0363 43.9425 13.8639 43.2824 13.8632 42.4106C14.1643 42.3043 14.432 42.1551 14.7021 41.9863Z" fill="#1C1C1C"/>
<path d="M14.8625 48.1255C16.2539 47.9291 16.7026 48.6796 17.7244 49.3843C17.3133 49.5611 16.9122 49.6422 16.4663 49.6683C16.3122 49.67 16.1559 49.6705 16.0023 49.6569C15.1458 49.581 14.1473 49.261 13.5826 48.5828C13.9735 48.3017 14.3913 48.1888 14.8625 48.1255Z" fill="#1C1C1C"/>
<path d="M18.6615 45.1945C18.766 45.2033 18.8524 45.2322 18.9479 45.2755C19.5996 45.5711 20.092 46.234 20.3397 46.889C20.5116 47.3433 20.6558 48.1153 20.4457 48.5741L20.3884 48.5807C20.2278 48.4986 20.0674 48.416 19.9176 48.3152C19.246 47.8632 18.6114 47.1411 18.456 46.3254C18.3806 45.9295 18.4306 45.5299 18.6615 45.1945Z" fill="#1C1C1C"/>
<path d="M10.2822 52.6981C10.9908 52.6326 11.8334 52.9372 12.4257 53.3088C12.1106 53.4645 11.8158 53.6464 11.5259 53.845C11.3357 53.9754 11.1252 54.1518 10.9152 54.2454C10.8245 54.2858 10.7085 54.2854 10.6105 54.2918C10.2469 54.3127 9.86972 54.3121 9.50724 54.2765C9.23956 54.2501 8.7262 54.2269 8.54399 54.0048C8.52768 53.9079 8.52961 53.8593 8.58427 53.7754C8.93638 53.2347 9.66064 52.817 10.2822 52.6981Z" fill="#1C1C1C"/>
<path d="M16.6639 47.0278C16.7937 47.0145 16.9245 47.0003 17.0551 47.0101C17.8578 47.0703 18.691 47.6451 19.1875 48.2527C19.4148 48.5308 19.7203 49.0312 19.6836 49.4022C19.4819 49.4149 19.2788 49.4306 19.0767 49.4339C18.4527 49.4443 17.7897 49.0523 17.3558 48.6251C16.9354 48.2112 16.6694 47.6188 16.6639 47.0278Z" fill="#1C1C1C"/>
<path d="M25.6078 54.5418C25.9756 54.5287 26.3613 54.5418 26.7184 54.637C26.5882 54.8126 26.4579 54.9862 26.305 55.1429C25.597 55.8689 24.7789 56.1926 23.7749 56.2052C23.3813 56.1889 23.0168 56.1148 22.6381 56.0092C22.74 55.8265 22.8564 55.6522 22.9966 55.4968C23.6503 54.7723 24.6809 54.5909 25.6078 54.5418Z" fill="#1C1C1C"/>
<path d="M17.2611 40.1641C17.294 40.1602 17.3269 40.1563 17.36 40.1548C18.2098 40.1169 19.1849 40.3025 19.8313 40.8949C19.4133 41.221 18.8991 41.3895 18.3935 41.5237C18.2311 41.5602 18.0671 41.5858 17.9014 41.6005C17.1148 41.6746 16.4322 41.6087 15.811 41.0896C15.8526 41.0089 15.8945 40.9267 15.9468 40.8522C16.2533 40.4162 16.7584 40.2404 17.2611 40.1641Z" fill="#1C1C1C"/>
<path d="M8.02582 45.216C8.67802 45.3444 9.31727 45.3793 9.97965 45.3731C9.45494 46.1347 8.65559 46.6469 7.78096 46.9181C7.18967 47.0894 6.57092 47.1241 5.95898 47.1294C6.00671 47.0032 6.0551 46.877 6.11506 46.756C6.5133 45.9522 7.19657 45.4971 8.02582 45.216Z" fill="#1C1C1C"/>
<path d="M10.3468 49.9322C10.8112 49.9028 11.2846 49.9493 11.7397 50.041C11.7032 50.1027 11.6638 50.1625 11.6215 50.2203C11.0618 50.9833 10.2513 51.5838 9.30612 51.729C8.80049 51.7903 8.31148 51.7316 7.83691 51.5489C7.95106 51.3215 8.09015 51.1015 8.25463 50.9071C8.80062 50.2618 9.52539 50.0019 10.3468 49.9322Z" fill="#1C1C1C"/>
<path d="M8.741 43.5822C8.76014 43.5805 8.77928 43.5787 8.79849 43.5773C9.72417 43.508 10.7504 43.821 11.4513 44.4317C10.963 44.7987 10.4939 44.9127 9.89477 44.9865C9.35221 45.0044 8.82775 44.9673 8.29859 44.8413C7.90601 44.7478 7.37227 44.5961 7.14868 44.2329C7.14843 44.1853 7.13728 44.1599 7.17028 44.1209C7.40888 43.8378 8.36343 43.6246 8.741 43.5822Z" fill="#1C1C1C"/>
<path d="M18.8682 54.5717C18.921 54.5679 18.9738 54.5655 19.0267 54.5644C19.7138 54.5479 20.3518 54.8493 20.9417 55.1662C21.089 55.2453 21.2776 55.3302 21.3946 55.4526C21.4511 55.5119 21.4742 55.5437 21.4729 55.6254C21.1991 55.9028 20.4835 56.0504 20.103 56.1073C19.6577 56.1835 19.1625 56.1468 18.7282 56.0267C18.1244 55.8597 17.7073 55.5347 17.4016 54.9875C17.8883 54.8067 18.3469 54.6221 18.8682 54.5717Z" fill="#1C1C1C"/>
<path d="M14.7674 54.7788C15.1608 54.7951 15.5921 54.923 15.9551 55.0702C17.1137 55.54 18.0534 56.6225 18.5309 57.7568C18.2743 57.7338 18.0204 57.7028 17.7707 57.6371C16.8831 57.404 15.9603 56.8392 15.4614 56.052C15.2056 55.6485 15.0099 55.1942 14.7674 54.7788Z" fill="#1C1C1C"/>
<path d="M8.38904 34.0842C9.14772 34.1196 9.84368 34.2934 10.4266 34.8073C10.9908 35.3047 11.3177 36.0812 11.3666 36.8235C10.6148 36.7996 9.879 36.4732 9.31523 35.9792C8.73986 35.475 8.43873 34.8424 8.38904 34.0842Z" fill="#1C1C1C"/>
<path d="M9.60706 47.0047C9.71384 47.0288 9.82008 47.055 9.92578 47.0833C11.0481 47.3884 12.069 47.8608 12.6595 48.9165C12.7368 49.0547 12.8919 49.3217 12.847 49.4776L12.7866 49.5039C12.5096 49.5505 12.2313 49.6005 11.9496 49.6025C11.3851 49.6065 10.9158 49.3193 10.5296 48.9293C10.0486 48.4436 9.60526 47.704 9.60706 47.0047Z" fill="#1C1C1C"/>
<path d="M13.663 36.9124C13.7229 36.9106 13.7665 36.9189 13.8248 36.931L13.8606 36.9923C13.851 37.3629 13.5578 37.8794 13.3715 38.1976C12.8865 39.0262 12.2178 39.6512 11.2705 39.8996C11.1851 39.9072 11.1193 39.9194 11.04 39.8777C11.0571 39.1436 11.1922 38.436 11.669 37.8522C12.1682 37.241 12.9019 36.9934 13.663 36.9124Z" fill="#1C1C1C"/>
<path d="M27.7796 54.5361C27.9849 54.5151 28.19 54.5161 28.3951 54.5393C29.3066 54.6506 30.2299 55.1674 30.7953 55.891C30.5191 56.0353 30.2369 56.1212 29.9351 56.1952C29.4784 56.2764 29.0212 56.3063 28.5633 56.2138C27.8229 56.0642 27.3025 55.6914 26.8908 55.065C27.1382 54.775 27.3996 54.5995 27.7796 54.5361Z" fill="#1C1C1C"/>
<path d="M20.8746 52.0561C21.0451 52.0305 21.3209 52.0043 21.4861 52.0362C21.5846 52.0553 21.6725 52.1013 21.7229 52.1921C21.7966 52.3254 21.7676 52.5414 21.7332 52.6828C21.5517 53.4296 20.7717 54.0071 20.1471 54.3713L19.8114 54.315C19.4436 54.2638 19.1001 54.2279 18.7286 54.257C18.7952 53.8024 18.9465 53.394 19.22 53.0215C19.6426 52.4462 20.18 52.1633 20.8746 52.0561Z" fill="#1C1C1C"/>
<path d="M13.7875 54.4597C14.3206 54.7173 14.7054 55.2988 14.913 55.8364C15.1785 56.5242 15.1195 57.2478 14.8232 57.9125L14.5883 57.8304C14.2369 57.6768 13.9193 57.4649 13.6583 57.1821C13.2801 56.7723 13.072 56.2538 13.1018 55.6932C13.1314 55.1367 13.3906 54.8129 13.7875 54.4597Z" fill="#1C1C1C"/>
<path d="M19.0661 50.8963C19.0904 50.8962 19.1156 50.8897 19.1391 50.8959C19.2215 50.9178 19.3778 51.0674 19.4544 51.1241C19.676 51.288 19.8901 51.4183 20.1403 51.535C20.0621 51.6261 19.9775 51.7066 19.8871 51.7853C19.0245 52.5368 18.1877 52.8938 17.0397 52.8177C16.6606 52.7669 16.2785 52.6749 15.9001 52.6112C16.9736 51.6477 17.6016 51.124 19.0661 50.8963Z" fill="#1C1C1C"/>
<path d="M22.0133 47.2244C22.1483 47.219 22.2831 47.222 22.4178 47.2334C22.5524 47.2449 22.6858 47.2647 22.8179 47.2929C23.7324 47.492 24.46 48.0738 24.9612 48.8484C24.6637 48.928 24.3677 48.9946 24.0604 49.0198C23.1701 49.0292 22.2958 48.8892 21.5385 48.3899C21.3361 48.2564 21.1016 48.0664 21.0598 47.8131C21.0424 47.7078 21.0663 47.607 21.1336 47.5237C21.3162 47.298 21.7419 47.254 22.0133 47.2244Z" fill="#1C1C1C"/>
<path d="M14.6043 46.1614C15.2902 46.0884 16.0516 46.2067 16.6495 46.555C15.8197 47.1834 15.2893 47.5643 14.2397 47.7232C13.5874 47.7924 12.8129 47.7768 12.203 47.511C12.2783 47.3897 12.3578 47.2695 12.4504 47.1607C12.9973 46.5169 13.7844 46.2306 14.6043 46.1614Z" fill="#1C1C1C"/>
<path d="M15.1805 53.0211C15.298 53.0095 15.4158 53.0033 15.5339 53.0025C15.652 53.0016 15.7699 53.0061 15.8876 53.0159C16.0052 53.0257 16.1222 53.0408 16.2385 53.0612C16.3548 53.0817 16.4699 53.1073 16.5839 53.1382C17.2334 53.3177 17.894 53.6785 18.2335 54.2813C17.9083 54.4366 17.5435 54.5359 17.1994 54.6424C17.0132 54.6764 16.8207 54.7025 16.6316 54.7127C15.7706 54.7586 14.8422 54.4288 14.2004 53.8566C14.2427 53.7417 14.2928 53.6303 14.3505 53.5223C14.4082 53.4144 14.473 53.3109 14.5449 53.2119C14.7513 53.1178 14.9585 53.0628 15.1805 53.0211Z" fill="#1C1C1C"/>
<path d="M6.53919 40.3928C7.25487 40.3038 8.04017 40.4827 8.74406 40.6014C8.68438 40.6929 8.62122 40.7791 8.55019 40.862C8.0053 41.4982 7.28807 41.9758 6.43986 42.0389C5.57609 42.0358 4.85175 41.7138 4.20135 41.1629C4.89818 40.7054 5.71748 40.4799 6.53919 40.3928Z" fill="#1C1C1C"/>
<path d="M9.49582 46.4754C9.48512 46.6045 9.30542 46.77 9.22318 46.8662C9.2683 47.9442 9.76259 48.7173 10.3967 49.5534C9.74319 49.6107 9.11509 49.7314 8.48287 49.9043C8.17732 49.982 7.87141 50.0582 7.56513 50.1328C7.52194 49.7942 7.48868 49.4549 7.52581 49.1139C7.66599 47.8267 8.56247 47.216 9.49582 46.4754Z" fill="#1C1C1C"/>
</g>
<defs>
<clipPath id="clip0_107_4642">
<rect width="66" height="66" rx="10" fill="white"/>
</clipPath>
</defs>
</svg>
