<svg width="68" height="68" viewBox="0 0 68 68" fill="none" xmlns="http://www.w3.org/2000/svg">
<rect width="68" height="68" rx="12" fill="#1C1C1C"/>
<path d="M50.1586 7.56425C50.5938 7.54543 51.0334 7.55036 51.4687 7.56159C53.2867 7.6085 56.8777 7.87197 58.1855 9.27313C58.3484 9.44765 58.5111 9.66654 58.5484 9.90711C58.5859 10.1484 58.5638 10.4184 58.5682 10.663C58.5796 11.0981 58.5944 11.5331 58.6125 11.9679C58.6306 12.5202 58.6597 13.072 58.6998 13.6232C58.7232 13.969 58.7638 14.3202 58.7636 14.6668C58.7633 15.2213 58.7094 15.7839 58.6856 16.3387L58.5647 19.5792L58.0755 31.9132C57.9962 33.5995 57.9302 35.2863 57.8774 36.9735C60.0109 38.098 62.2116 39.6641 63.2901 41.8922C63.311 41.9349 63.3314 41.9778 63.3512 42.021C63.3711 42.0641 63.3903 42.1075 63.4091 42.1512C63.4279 42.1948 63.4461 42.2387 63.4638 42.2828C63.4814 42.3268 63.4985 42.3712 63.5151 42.4157C63.5317 42.4602 63.5477 42.505 63.5631 42.5499C63.5786 42.5948 63.5935 42.6399 63.6078 42.6852C63.6221 42.7305 63.6359 42.776 63.6491 42.8216C63.6622 42.8672 63.6749 42.913 63.6869 42.9589C63.699 43.0049 63.7105 43.051 63.7216 43.0972C63.7322 43.1435 63.7423 43.1898 63.7521 43.2363C63.7618 43.2828 63.7711 43.3294 63.7801 43.3762C63.7886 43.4229 63.7965 43.4697 63.8038 43.5167C63.8111 43.5636 63.818 43.6106 63.8245 43.6576C63.8306 43.7047 63.8363 43.7519 63.8415 43.7992C63.8464 43.8464 63.8509 43.8937 63.8549 43.941C63.8586 43.9883 63.8618 44.0357 63.8647 44.0832C63.8675 44.1306 63.8697 44.178 63.8714 44.2255C63.8726 44.273 63.8734 44.3205 63.8738 44.368C63.8742 44.4155 63.874 44.463 63.8732 44.5105C63.8724 44.558 63.871 44.6055 63.8689 44.653C63.8669 44.7004 63.8643 44.7478 63.861 44.7952C63.8578 44.8426 63.8541 44.89 63.8501 44.9373C63.8456 44.9846 63.8405 45.0318 63.8348 45.079C63.8292 45.1262 63.8231 45.1733 63.8166 45.2203C63.8097 45.2673 63.8024 45.3143 63.7947 45.3611C63.7865 45.408 63.778 45.4547 63.7691 45.5013C63.7602 45.548 63.7506 45.5945 63.7405 45.6409C63.7299 45.6873 63.719 45.7335 63.7076 45.7796C63.6964 45.8258 63.6845 45.8718 63.672 45.9176C63.6595 45.9634 63.6464 46.0091 63.6327 46.0546C63.6191 46.1001 63.6048 46.1454 63.5901 46.1905C63.5753 46.2357 63.56 46.2807 63.5441 46.3254C62.6553 48.8589 60.2878 50.8089 58.005 52.0728C57.0938 52.5772 56.1459 52.9886 55.1824 53.3813C54.6701 53.59 54.1536 53.7741 53.6287 53.9489C53.2906 54.0616 52.9198 54.1531 52.6021 54.3154C52.2539 54.4933 51.9634 54.8513 51.6419 55.0848C51.2227 55.393 50.7906 55.6819 50.3457 55.9515C49.9007 56.2211 49.4446 56.4704 48.9774 56.6993C41.0105 60.5229 29.0515 60.6825 20.8636 57.5071C19.4997 56.9782 18.1611 56.3407 16.9544 55.5083C16.7142 55.3426 16.4743 55.1727 16.2508 54.9849C16.0537 54.8194 15.8571 54.6026 15.6333 54.4765C15.1874 54.2254 14.556 54.0761 14.0668 53.9043C13.0531 53.5348 12.0784 53.1222 11.1068 52.6541C8.57943 51.4365 5.42159 49.3338 4.46303 46.5584C3.91565 44.9736 4.01408 43.3911 4.7501 41.8839C5.8363 39.6596 8.72571 37.4379 11.0381 36.6471C11.0241 36.5961 11.0107 36.545 10.9981 36.4937C10.7232 35.3826 10.3925 33.166 10.5823 32.0809C10.6367 31.7697 10.7539 31.4837 10.9191 31.2151C11.9633 29.517 14.5056 28.6805 16.351 28.2397C16.5814 27.2391 17.2085 26.2167 18.0072 25.5701C18.0565 25.5296 18.1069 25.4904 18.1582 25.4525C18.2095 25.4145 18.2617 25.3778 18.3149 25.3425C18.368 25.3071 18.4221 25.2731 18.4769 25.2405C18.5318 25.2079 18.5875 25.1766 18.6439 25.1468C18.7003 25.117 18.7575 25.0886 18.8154 25.0617C18.8732 25.0347 18.9317 25.0092 18.9909 24.9852C19.05 24.9612 19.1098 24.9387 19.17 24.9177C19.2303 24.8967 19.2911 24.8772 19.3523 24.8592C19.4136 24.8413 19.4753 24.8249 19.5373 24.81C19.5994 24.7952 19.6618 24.7819 19.7246 24.7701C19.7874 24.7584 19.8504 24.7483 19.9136 24.7398C19.9769 24.7312 20.0403 24.7242 20.1039 24.7189C20.1676 24.7135 20.2313 24.7098 20.2951 24.7076C20.3589 24.7054 20.4227 24.7049 20.4865 24.7059C20.5503 24.707 20.6141 24.7096 20.6778 24.7139C20.7415 24.7181 20.805 24.724 20.8684 24.7314C21.9661 24.8535 22.8959 25.4186 23.581 26.2746C24.1312 26.0433 24.6757 25.8764 25.2791 25.9022C26.579 25.9576 27.5215 26.7296 28.3606 27.6451C28.5567 27.664 28.7526 27.6855 28.9481 27.7098C31.2936 28.0106 35.3886 29.0081 36.8927 30.9761C37.3573 31.584 37.498 32.2031 37.4006 32.9525C38.791 32.9761 40.1624 33.0495 41.5415 33.241C42.2693 33.342 42.9893 33.4893 43.7117 33.6225C43.7098 33.5366 43.7043 33.4508 43.6996 33.365C43.5022 29.6631 43.4471 25.9517 43.2897 22.2477L43.0649 17.0907C43.0238 16.2036 42.9387 15.3003 42.9435 14.4132C42.9454 14.0604 42.9935 13.7002 43.0271 13.3488C43.0971 12.6153 43.1817 11.8815 43.2399 11.1471C43.2731 10.7289 43.209 10.2499 43.2975 9.84581C43.3446 9.63069 43.4763 9.44065 43.6226 9.28025C44.9022 7.87755 48.3403 7.64881 50.1586 7.56425Z" fill="#1C1C1C"/>
<path d="M43.2654 41.1988C43.398 41.1945 43.5961 41.1584 43.704 41.2366C43.7218 41.296 43.7289 41.3332 43.7199 41.396C43.6928 41.5841 43.5293 41.7803 43.3736 41.8794C43.1452 42.0247 42.9179 42.0276 42.6626 41.9649C42.6029 41.9387 42.5462 41.9112 42.4896 41.8783C42.3623 41.8042 42.2583 41.7488 42.2198 41.5974C42.2369 41.527 42.2419 41.4968 42.295 41.4437C42.5287 41.2098 42.9567 41.1995 43.2654 41.1988Z" fill="white"/>
<path d="M33.067 40.3563C33.3651 40.3799 34.6737 40.7023 34.8164 40.9185C34.8541 40.9756 34.8571 41.0376 34.8296 41.0991C34.7877 41.1928 34.6889 41.2382 34.6039 41.2845C34.5635 41.2972 34.5226 41.3082 34.4813 41.3176C34.0457 41.4136 33.3989 41.2949 33.0339 41.0382C32.9381 40.9709 32.8548 40.8766 32.8461 40.7545C32.8353 40.6017 32.9724 40.4601 33.067 40.3563Z" fill="white"/>
<path d="M39.657 40.385C39.9192 40.5794 40.2181 40.7417 40.4631 40.9554C40.5441 41.0261 40.6351 41.1278 40.6266 41.2438C40.6186 41.3531 40.5242 41.4413 40.4385 41.4978C40.2023 41.6537 39.8931 41.5785 39.6357 41.5262C39.2521 41.4075 38.8735 41.2694 38.4942 41.1373C38.9024 40.9201 39.2776 40.648 39.657 40.385Z" fill="white"/>
<path d="M45.0991 39.7201C45.1087 39.7186 45.1182 39.7165 45.1278 39.7155C45.3253 39.6953 45.5039 39.8241 45.6449 39.9496C45.8134 40.0996 46.0072 40.3248 46.0134 40.5634C46.0163 40.6708 45.9749 40.7658 45.8995 40.8413C45.6252 41.1161 45.0357 41.1278 44.6715 41.1297C44.2216 41.0883 44.2861 40.6617 43.6912 40.6241C44.1182 40.2928 44.6042 39.9382 45.0991 39.7201Z" fill="white"/>
<path d="M19.1202 47.2767C19.6322 47.4018 20.1847 47.7403 20.7168 47.9072C22.6381 48.51 24.5281 48.5234 26.5038 48.2358C26.5546 48.5882 26.6323 48.9197 26.7352 49.2607C26.1396 49.3637 25.5384 49.4499 24.9343 49.4821C23.3257 49.5676 20.7503 49.2513 19.5467 48.1521C19.2658 47.8955 19.136 47.6561 19.1202 47.2767Z" fill="white"/>
<path d="M29.162 29.4695C30.9653 29.6763 34.0278 30.4374 35.2428 31.8087C35.4474 32.0396 35.5972 32.3195 35.568 32.6367C35.5319 33.0279 35.2291 33.2949 34.9527 33.5376C34.7271 33.727 34.4774 33.8914 34.2247 34.0419C34.2003 33.8619 34.1729 33.6788 34.1294 33.5023C33.8696 32.4467 33.2129 31.591 32.2854 31.0315C31.3416 30.4621 30.3455 30.3772 29.2911 30.6402C29.2723 30.2473 29.2293 29.857 29.162 29.4695Z" fill="white"/>
<path d="M16.1563 30.0831C16.2413 30.3017 16.2206 30.5524 16.3152 30.7807C16.1735 30.9616 16.0372 31.1489 15.9224 31.3482C15.2972 32.4334 15.2676 33.56 15.5804 34.7445C14.9134 34.5147 14.2907 34.2114 13.6828 33.8551C13.2414 33.5733 12.6336 33.1527 12.5255 32.6001C12.4695 32.3142 12.5872 32.0492 12.7517 31.8212C13.3105 31.0464 14.2865 30.6768 15.1543 30.3726C15.4821 30.2578 15.8123 30.1375 16.1563 30.0831Z" fill="white"/>
<path d="M28.783 28.4167C30.3059 28.5415 32.3766 29.088 33.7951 29.685C34.836 30.1231 36.2228 30.8362 36.6664 31.9492C36.8322 32.3651 36.8128 32.8228 36.63 33.2288C36.1422 34.3123 34.3424 35.1771 33.2535 35.584C28.0673 37.5219 19.2038 37.6194 14.1545 35.3088C13.14 34.8445 11.7469 34.0655 11.3544 32.9511C11.2106 32.5429 11.2335 32.1382 11.4236 31.7492C12.0168 30.5355 13.7278 29.8183 14.9445 29.4013C15.2706 29.2983 15.5993 29.1956 15.9318 29.1154C16.0044 29.098 16.1359 29.0544 16.1978 29.0932L16.1777 29.3785C15.2155 29.5562 13.912 30.0532 13.0991 30.5761C12.5599 30.923 11.9898 31.4503 11.8601 32.1067C11.7684 32.5707 11.9128 33.017 12.1793 33.3951C13.3245 35.0207 16.8273 35.9109 18.72 36.224C22.8666 36.9102 27.3226 36.8573 31.4051 35.8156C32.6812 35.49 34.058 35.035 35.1338 34.2582C35.6282 33.9013 36.0755 33.4287 36.167 32.8013C36.2399 32.3007 36.087 31.8282 35.7826 31.4339C34.5262 29.8063 30.9074 29.0467 28.9395 28.7989L28.783 28.4167Z" fill="white"/>
<path d="M20.2424 25.3375C20.3521 25.3269 20.4619 25.3309 20.5718 25.3365C21.5414 25.3856 22.4149 25.9208 23.0493 26.6268C21.9535 27.3815 21.2971 28.5897 20.955 29.8463C20.3563 29.5518 19.8604 29.4098 19.193 29.3835C18.2802 29.4208 17.5113 29.7215 16.8024 30.2976C16.7816 29.0004 16.958 27.7461 17.7935 26.6973C18.4235 25.9065 19.2438 25.4557 20.2424 25.3375Z" fill="white"/>
<path d="M30.1029 31.1496C30.8636 31.0511 31.6796 31.3411 32.2765 31.8032C33.1215 32.4575 33.5057 33.3276 33.6412 34.3653C32.7594 34.7394 31.8596 35.0148 30.9327 35.2517C30.1234 35.4282 29.3113 35.61 28.485 35.6863C28.5205 34.4867 28.3866 33.6756 27.7551 32.6345C28.3824 31.8198 29.0589 31.2963 30.1029 31.1496Z" fill="white"/>
<path d="M18.9496 30.0539C19.154 30.0361 19.358 30.0387 19.5618 30.0617C20.619 30.1911 21.3891 30.8753 22.0244 31.6777C21.852 31.8459 21.6849 32.0176 21.5286 32.2011C20.6296 33.2568 20.3861 34.4587 20.492 35.8096C20.1135 35.7491 19.7341 35.6948 19.3539 35.6467C18.3214 35.4821 17.3211 35.2867 16.3253 34.9635C16.201 34.613 16.0871 34.2618 16.0396 33.8915C16.0323 33.8343 16.0264 33.7769 16.0219 33.7193C16.0175 33.6617 16.0144 33.6041 16.0129 33.5464C16.0113 33.4887 16.0111 33.431 16.0124 33.3733C16.0136 33.3156 16.0163 33.2579 16.0205 33.2003C16.0246 33.1427 16.0302 33.0853 16.0371 33.028C16.0442 32.9707 16.0526 32.9136 16.0624 32.8567C16.0722 32.7998 16.0835 32.7432 16.0961 32.6869C16.1087 32.6305 16.1227 32.5746 16.1381 32.5189C16.1536 32.4633 16.1704 32.4081 16.1885 32.3533C16.2067 32.2985 16.2262 32.2441 16.247 32.1903C16.2679 32.1365 16.2901 32.0832 16.3136 32.0305C16.3371 31.9778 16.3619 31.9257 16.388 31.8742C16.414 31.8227 16.4414 31.7718 16.47 31.7217C16.4986 31.6715 16.5285 31.6221 16.5596 31.5735C16.5906 31.5248 16.6228 31.477 16.6563 31.4299C16.6897 31.3828 16.7243 31.3366 16.7601 31.2913C17.3227 30.5796 18.0491 30.1623 18.9496 30.0539Z" fill="white"/>
<path d="M24.3195 31.4248C24.4896 31.4203 24.6591 31.4289 24.828 31.4505C25.7327 31.5626 26.5367 32.087 27.09 32.7991C27.7868 33.6962 27.9435 34.6967 27.8074 35.7962C26.7888 35.966 25.701 35.9925 24.669 36.0172C23.4826 36.0322 22.3141 35.9628 21.1321 35.8729C21.0674 34.6118 21.1753 33.623 22.0109 32.6141C22.6069 31.8946 23.3976 31.5084 24.3195 31.4248Z" fill="white"/>
<path d="M25.0069 26.5548C25.0268 26.5529 25.0467 26.55 25.0667 26.549C25.9024 26.507 26.7346 26.9478 27.3217 27.5134C28.2514 28.4091 28.6586 29.6326 28.6838 30.8996C28.1414 31.2666 27.741 31.6045 27.3481 32.1326C26.8649 31.6382 26.4266 31.3055 25.7898 31.031C25.6605 30.9829 25.5306 30.9343 25.3974 30.8977C24.4346 30.6332 23.4103 30.8119 22.5507 31.3044C22.2325 30.9147 21.9123 30.5411 21.5322 30.2095C21.7461 29.3639 22.0473 28.609 22.6038 27.9267C23.236 27.1516 24.0009 26.6592 25.0069 26.5548Z" fill="white"/>
<path d="M50.9707 15.0516C51.9373 15.0451 52.9045 15.2004 53.8462 15.4078C54.5363 15.5597 56.5247 16.0523 56.8595 16.6205C56.9358 16.7501 56.9332 16.8629 56.8933 17.0033C56.7496 17.1466 56.1272 17.2667 55.9169 17.3283C55.3716 17.4878 54.8357 17.6782 54.2864 17.8244C53.1685 18.1221 52.0353 18.2348 50.8806 18.2387C49.0046 18.2439 47.825 17.891 46.0492 17.3904C45.7701 17.3118 45.2175 17.2134 44.9852 17.0599C44.9142 17.0129 44.8795 16.9483 44.8695 16.8639C44.8532 16.727 44.9584 16.5727 45.0449 16.4775C45.7526 15.6979 47.5655 15.7174 48.5548 15.5191C49.3762 15.3545 50.1242 15.0952 50.9707 15.0516Z" fill="white"/>
<path d="M37.2682 34.0319C39.5242 33.9917 41.5478 34.266 43.7352 34.7868C43.7847 35.3991 43.7917 36.0182 43.8137 36.6322L43.9068 39.2221C43.5373 39.155 43.1722 39.1096 42.7984 39.0772C42.4463 38.6477 42.072 38.2384 41.6756 37.8493C41.4791 37.6845 41.2596 37.5546 40.9973 37.541C40.3044 37.5048 39.6731 38.3563 39.199 38.7762C38.1164 38.3459 37.7415 38.8521 36.8413 39.1963C36.5083 39.3237 36.1032 39.3626 35.7521 39.4282C36.5796 37.7009 37.1729 35.9597 37.2682 34.0319Z" fill="white"/>
<path d="M50.0512 54.9747L50.1396 54.974C50.0535 55.0889 49.7802 55.1951 49.6489 55.2659C48.642 55.8085 47.6411 56.2844 46.5626 56.6712C40.2968 58.9184 32.9963 59.2889 26.4724 58.0382C24.0775 57.5791 21.7731 56.9162 19.5654 55.8722C19.1003 55.6515 18.6547 55.4036 18.2126 55.1403C19.48 55.5036 20.7909 55.7774 22.0861 56.0224C30.9433 57.6982 41.3419 57.257 50.0512 54.9747Z" fill="white"/>
<path d="M52.4979 45.7753C52.606 46.0208 52.5136 46.594 52.4651 46.8562C52.1808 48.3924 51.0063 49.7129 49.754 50.5684C45.5096 53.4673 39.2224 54.1856 34.258 53.2447C31.9184 52.8013 29.0847 51.6694 27.7046 49.6477C27.4363 49.1977 27.2944 48.7946 27.1788 48.2866C28.0082 49.5099 29.3757 50.3328 30.7424 50.8339C31.9163 51.2644 33.132 51.5045 34.3674 51.6737C34.5647 51.7014 34.7623 51.7268 34.9603 51.7499C35.1582 51.7729 35.3564 51.7936 35.5548 51.812C35.7532 51.8303 35.9518 51.8463 36.1506 51.8599C36.3494 51.8735 36.5484 51.8848 36.7474 51.8936C36.9465 51.9025 37.1457 51.909 37.3449 51.9132C37.5441 51.9173 37.7434 51.9191 37.9427 51.9184C38.1419 51.9178 38.3411 51.9149 38.5404 51.9095C38.7395 51.9041 38.9386 51.8964 39.1376 51.8863C39.3367 51.8762 39.5355 51.8637 39.7343 51.8489C39.933 51.8341 40.1315 51.8169 40.3298 51.7974C40.5281 51.7778 40.7261 51.7559 40.9239 51.7316C41.1217 51.7074 41.3192 51.6807 41.5164 51.6518C41.7135 51.6228 41.9103 51.5915 42.1067 51.5578C42.3031 51.5242 42.4991 51.4882 42.6946 51.4499C42.8902 51.4115 43.0852 51.3709 43.2798 51.3279C43.4744 51.285 43.6685 51.2397 43.8619 51.1921C45.3124 50.8479 46.7009 50.4085 48.0549 49.7781C50.0034 48.8711 51.7201 47.9027 52.4979 45.7753Z" fill="white"/>
<path d="M50.0297 8.26792C51.852 8.16054 56.0198 8.38645 57.488 9.55409C57.6747 9.70256 57.8547 9.90058 57.8728 10.15C57.8861 10.3333 57.8032 10.5069 57.6835 10.6412C56.7338 11.7063 53.1727 11.9685 51.7764 12.0479C49.9606 12.0826 45.6334 11.9315 44.247 10.702C44.0931 10.5654 43.9342 10.3998 43.9254 10.182C43.9176 9.99165 44.0288 9.82175 44.157 9.69033C45.2546 8.56553 48.5042 8.31752 50.0297 8.26792Z" fill="white"/>
<path d="M47.8879 41.3898C48.0682 41.3988 48.2531 41.4658 48.4246 41.5193C49.5878 41.8823 51.2238 42.699 51.8017 43.8143C52.1134 44.4159 52.0515 45.0399 51.8483 45.665C51.2995 47.3527 49.6881 48.2803 48.1985 49.0419C46.2596 50.033 43.9265 50.6842 41.7796 51.0066C38.6555 51.476 34.4671 51.3861 31.4415 50.3974C29.9988 49.926 28.2758 49.0403 27.576 47.6339C27.3341 47.1477 27.237 46.6488 27.4117 46.1245C27.8334 45.1679 28.7476 44.57 29.64 44.0985C29.7284 44.288 29.7944 44.4742 29.8542 44.6745C29.6306 45.2323 29.1103 45.6387 28.9402 46.2244C28.8797 46.4325 28.8739 46.656 28.9873 46.8475C29.2494 47.2897 29.8879 47.4592 30.3494 47.5874C30.506 47.849 30.6391 48.1366 30.819 48.3822C30.8951 48.4862 30.9862 48.5777 31.1235 48.5691C31.3234 48.5565 31.5168 48.463 31.7193 48.4538C32.4516 48.4205 33.2045 48.6551 33.8607 48.9597C34.2475 49.1393 34.6266 49.3338 35.0461 49.4263C35.6651 49.5627 36.1776 49.2072 36.77 49.2565C37.2435 49.2959 37.6148 49.6704 38.0836 49.7242C38.5361 49.7762 38.9462 49.5046 39.2871 49.2432C39.5399 49.3287 39.8143 49.4422 40.086 49.3907C40.5589 49.3012 41.0186 48.7859 41.5905 48.6546C42.1912 48.5168 42.7777 48.7537 43.3816 48.6848C43.9687 48.6178 44.4145 48.241 44.9649 48.082C45.3806 47.9618 45.8254 48.0772 46.2509 47.963C47.0535 47.7475 46.9017 47.2327 47.3426 46.7952C47.9155 46.2266 48.7286 46.6238 49.3576 45.5605L49.3775 45.5268C49.5211 45.2796 49.7702 45.1316 49.9083 44.8931C50.0299 44.683 50.0728 44.4546 50.008 44.218C49.9069 43.8494 49.6402 43.667 49.3303 43.4852C49.4033 43.2852 49.4531 43.0884 49.441 42.8737C49.3923 42.0126 48.4144 41.8864 47.9094 41.4107C47.9021 41.4039 47.8951 41.3968 47.8879 41.3898Z" fill="white"/>
<path d="M57.851 11.26C57.8885 11.2946 58.0317 13.7566 58.0509 14.0851C58.0762 14.5171 58.0248 14.9668 58.0027 15.3994C57.9612 16.1461 57.93 16.8931 57.9091 17.6406C57.804 21.2214 57.6665 24.8009 57.4966 28.3791L57.0403 39.2633C57.0001 40.136 56.9679 41.009 56.9437 41.8823C56.9272 42.4172 56.9325 42.961 56.8732 43.4933C56.8244 43.9311 56.6798 44.4217 56.3732 44.7516C55.6438 45.5369 54.1675 45.7328 53.153 45.7859C53.0628 44.9366 52.6659 44.2486 52.3406 43.4738C53.6031 43.4506 55.2032 43.13 56.2247 42.3408C56.3742 42.2254 56.5874 42.0516 56.6085 41.8559C56.6673 41.3111 56.6688 40.7632 56.6871 40.2157L56.7715 37.888L57.0495 30.2717C57.19 26.958 57.3068 23.6435 57.4 20.3282C57.4254 19.1275 57.5127 17.916 57.4661 16.7152C57.4595 16.5428 57.3783 16.3685 57.2838 16.2265C56.7048 15.356 54.1555 14.8118 53.1423 14.6199C52.3465 14.483 51.5416 14.3683 50.7319 14.4004C49.8871 14.4339 49.0765 14.7247 48.2541 14.8917C47.3196 15.0813 46.344 15.1369 45.4488 15.488C45.3723 15.5188 45.2978 15.5538 45.2252 15.593C45.1526 15.6322 45.0825 15.6753 45.0148 15.7224C44.9471 15.7696 44.8823 15.8203 44.8203 15.8747C44.7584 15.9292 44.6997 15.9869 44.6442 16.048C44.4581 16.2542 44.3209 16.4651 44.2968 16.7502C44.2364 17.465 44.3114 18.2272 44.3326 18.947C44.3688 20.3709 44.4134 21.7946 44.4663 23.218C44.6188 28.5203 44.8325 33.82 45.1074 39.1173C44.9692 39.1548 44.8348 39.2066 44.7001 39.2547C44.6649 37.5379 44.5684 35.8245 44.5043 34.1088L44.0152 22.0191C43.9484 20.4469 43.8885 18.8717 43.8005 17.3007C43.7484 16.3703 43.6401 15.4134 43.6442 14.4821C43.646 14.0837 43.6949 13.6793 43.7276 13.2823L43.8988 11.2664C45.1453 12.1158 46.7777 12.4039 48.2538 12.5714C50.7091 12.8499 55.8494 12.8547 57.851 11.26Z" fill="white"/>
<path d="M40.8934 38.1711C41.0008 38.1885 41.1133 38.2229 41.203 38.2859C41.6913 38.629 42.6069 39.8441 43.0821 40.3557L42.9894 40.5766C42.8799 40.5982 42.7708 40.6219 42.6622 40.6474C42.2912 40.7379 41.8589 40.9046 41.6616 41.2537C41.5684 41.4184 41.55 41.6066 41.6073 41.7867C41.7061 42.0966 41.9843 42.3291 42.2685 42.4662C42.2916 42.4774 42.315 42.4881 42.3386 42.4981C42.3623 42.5082 42.3861 42.5177 42.4102 42.5266C42.4343 42.5354 42.4587 42.5436 42.4832 42.5513C42.5077 42.5589 42.5324 42.5659 42.5574 42.5723C42.5822 42.5786 42.6073 42.5844 42.6324 42.5895C42.6576 42.5946 42.6829 42.5991 42.7083 42.603C42.7337 42.6068 42.7592 42.61 42.7847 42.6125C42.8103 42.6151 42.8359 42.617 42.8615 42.6182C42.8872 42.6195 42.9129 42.6201 42.9386 42.6201C42.9643 42.62 42.99 42.6193 43.0156 42.618C43.0413 42.6167 43.0669 42.6147 43.0924 42.612C43.118 42.6094 43.1434 42.6061 43.1688 42.6022C43.1942 42.5983 43.2195 42.5937 43.2447 42.5885C43.2698 42.5833 43.2948 42.5775 43.3197 42.571C43.3445 42.5645 43.3692 42.5575 43.3938 42.5498C43.4183 42.542 43.4426 42.5337 43.4666 42.5248C43.8488 42.3789 44.0888 42.1032 44.2529 41.7395C44.7427 41.7784 45.5461 41.7768 45.9828 41.5249C46.1723 41.4156 46.3789 41.2338 46.5852 41.17C47.0196 41.0358 47.3391 41.7585 47.6271 41.9758C47.829 42.128 48.0838 42.2105 48.3038 42.3345C49.3564 42.928 48.5022 43.28 48.6868 43.7718C48.7575 43.9598 49.0101 44.0029 49.1778 44.0663C49.2751 44.1032 49.3238 44.1404 49.368 44.2379C49.3813 44.3843 49.3268 44.6022 49.2593 44.7333C49.1228 44.9981 48.9036 44.7988 48.6899 44.8644C48.6031 44.9302 48.5468 45.0156 48.5301 45.1258C48.5075 45.2745 48.6128 45.3945 48.69 45.5126C48.1567 45.9086 47.2066 45.928 46.7979 46.4632C46.6735 46.6262 46.6114 46.8392 46.5191 47.0216C46.437 47.1837 46.3343 47.3083 46.1585 47.3701C45.7729 47.5058 45.3233 47.3715 44.9198 47.4731C44.3388 47.6193 43.8367 48.0373 43.2354 48.1031C42.6201 48.1703 42.097 47.9104 41.4419 48.0586C40.8559 48.1912 40.4439 48.5656 39.9008 48.7393C39.7254 48.7006 39.5534 48.6338 39.3756 48.6086C38.7213 48.5154 38.761 48.9597 38.2848 49.0433C37.8363 49.122 37.4739 48.6881 37.0286 48.633C36.4528 48.5618 35.9011 48.7497 35.3338 48.8102C34.8694 48.7497 34.5135 48.522 34.1045 48.3156C33.2063 47.8625 32.2631 47.7499 31.2735 47.8271C31.0742 47.5214 30.9481 46.9934 30.546 46.9293C30.3609 46.8998 30.1586 46.8925 29.9829 46.8236C29.8611 46.7758 29.742 46.679 29.7009 46.55C29.5948 46.2173 30.3956 45.4444 30.5376 45.0642C30.733 44.5411 30.275 43.8938 30.062 43.4256C30.6396 43.0857 31.3335 42.9721 31.951 42.7182C32.4648 42.507 32.8964 42.1651 33.3375 41.8352C33.4107 41.8529 33.4843 41.8696 33.5581 41.885C34.0693 41.9927 34.6071 41.9844 35.0553 41.6789C35.2468 41.5484 35.4122 41.362 35.4466 41.1255C35.4882 40.8395 35.36 40.6001 35.2019 40.375L35.427 40.1265C35.9885 40.0328 36.6363 40.0768 37.1596 39.8353C37.383 39.7323 37.5854 39.5752 37.7992 39.4531C38.1705 39.2409 38.4614 39.2454 38.8591 39.3518C38.9163 39.5842 38.9652 39.6911 39.1713 39.829L39.2031 39.8498L39.1943 39.8573L39.2361 39.8751C39.0768 40.213 38.1907 40.5457 37.9367 40.7519C37.8601 40.8142 37.8093 40.8974 37.8033 40.9974C37.7943 41.1476 37.876 41.2985 37.9718 41.4083C38.3219 41.81 39.4326 42.1618 39.968 42.1829C40.3341 42.1974 40.7212 42.0847 40.987 41.8239C41.1489 41.665 41.313 41.4229 41.3092 41.1865C41.3017 40.7135 40.4937 40.2216 40.1247 39.9928C39.9727 39.8986 39.7587 39.8019 39.6393 39.6693C39.5739 39.5967 39.545 39.5284 39.546 39.4302C39.7982 38.9926 40.4293 38.3721 40.8934 38.1711Z" fill="white"/>
<path d="M32.6745 43.3801C32.7802 43.3689 32.8971 43.3575 33.0012 43.384C33.3122 43.4629 34.1512 44.1696 34.308 44.4565C34.3866 44.6002 34.4085 44.761 34.3561 44.9178C34.2588 45.2091 33.9687 45.3926 33.709 45.5252C33.5276 45.5827 33.3941 45.601 33.2148 45.5245C32.7928 45.3445 32.2591 44.7328 32.1006 44.3032C32.0361 44.1284 32.0277 43.9408 32.1138 43.7714C32.2292 43.5441 32.4441 43.4535 32.6745 43.3801Z" fill="#1C1C1C"/>
<path d="M32.6705 43.9543C33.0294 44.0084 33.4895 44.4176 33.7107 44.7008C33.7154 44.7923 33.6675 44.8184 33.6116 44.8867C33.5327 44.9304 33.5147 44.9397 33.4254 44.9404C33.3006 44.8819 33.2026 44.7934 33.1087 44.6942C32.9485 44.525 32.6652 44.1908 32.6705 43.9543Z" fill="white"/>
<path d="M38.8195 43.4669C39.0656 43.4387 39.3796 43.5072 39.6122 43.5881C39.8057 43.6555 40.0005 43.7687 40.0864 43.964C40.1735 44.162 40.1282 44.389 40.0479 44.5813C39.8714 45.0041 39.5303 45.3069 39.1128 45.4792C38.8699 45.5452 38.572 45.5655 38.3292 45.4839C38.1549 45.4253 38.0056 45.3079 37.9247 45.1407C37.8277 44.9403 37.8527 44.728 37.9275 44.5252C38.0893 44.0862 38.3932 43.6711 38.8195 43.4669Z" fill="#1C1C1C"/>
<path d="M38.9495 44.0918C39.0469 44.0906 39.161 44.0988 39.2572 44.1165C39.3444 44.1325 39.3887 44.1653 39.4403 44.2377C39.4524 44.2993 39.4576 44.3372 39.4396 44.399C39.3778 44.6112 39.141 44.7768 38.9595 44.8819C38.8514 44.9051 38.7046 44.9468 38.5952 44.9163C38.5124 44.8932 38.5053 44.8647 38.4776 44.793C38.5089 44.5337 38.7627 44.2632 38.9495 44.0918Z" fill="white"/>
<path d="M36.9149 42.2887C36.9569 42.2909 36.9987 42.2955 37.0405 42.3C37.2441 42.322 37.432 42.3969 37.5589 42.5652C37.6838 42.7309 37.7179 42.939 37.6775 43.1398C37.5931 43.5598 37.2025 44.2008 36.8414 44.4358C36.5977 44.5944 36.3976 44.6083 36.1199 44.5466C36.088 44.53 36.0576 44.5139 36.0273 44.4943C35.7457 44.3128 35.3353 44.0339 35.2675 43.6853C35.2349 43.5176 35.2853 43.3603 35.3816 43.2229C35.6697 42.8122 36.4238 42.3625 36.9149 42.2887Z" fill="#1C1C1C"/>
<path d="M36.8549 42.8855C36.91 42.8831 36.9582 42.8892 37.0127 42.8961L37.0534 42.9549C37.0581 43.0308 37.0514 43.0866 37.0277 43.1594C36.9548 43.3835 36.6942 43.882 36.4583 43.9617C36.3732 43.9904 36.3164 43.9498 36.2422 43.9164C36.1081 43.8161 35.9935 43.7037 35.8753 43.5856C36.1476 43.2858 36.4966 43.0676 36.8549 42.8855Z" fill="white"/>
<path d="M41.0834 44.5693C41.1015 44.571 41.1196 44.5723 41.1377 44.5745C41.3419 44.5997 41.514 44.6957 41.6312 44.8669C41.8156 45.1364 41.8145 45.5014 41.7466 45.8084C41.6503 46.2441 41.3574 46.8475 40.9655 47.0835C40.6935 47.2472 40.3963 47.1388 40.1131 47.0672C39.9051 47.0028 39.6554 46.9614 39.4677 46.8506C39.3643 46.7897 39.2853 46.71 39.2628 46.5881C39.2151 46.33 39.3983 46.0516 39.5404 45.8491C39.8976 45.3403 40.4381 44.6839 41.0834 44.5693Z" fill="#1C1C1C"/>
<path d="M40.9972 45.186C41.0457 45.1979 41.0692 45.1971 41.1076 45.2327C41.1796 45.2996 41.2034 45.3814 41.1993 45.477C41.1833 45.852 40.9195 46.303 40.6416 46.543C40.4891 46.5274 40.3452 46.5 40.1963 46.4657L39.9033 46.3603C40.2067 45.9281 40.5636 45.4911 40.9972 45.186Z" fill="white"/>
<path d="M35.6942 45.3595C35.8246 45.3456 35.9584 45.335 36.0892 45.3498C36.3886 45.3836 36.6728 45.5652 36.8593 45.7969C37.059 46.0448 37.1613 46.3635 37.1232 46.6815C37.0951 46.9159 36.9907 47.1259 36.802 47.2713C36.3849 47.5927 35.839 47.4699 35.3627 47.3959C34.9466 47.3002 34.4912 47.2151 34.1189 46.9955C33.9562 46.8995 33.7895 46.7564 33.7446 46.5643C33.7157 46.4406 33.7462 46.3185 33.8123 46.2119C34.1271 45.7043 35.1551 45.4689 35.6942 45.3595Z" fill="#1C1C1C"/>
<path d="M35.9071 45.9116C35.9291 45.9137 35.951 45.9161 35.9729 45.919C36.1491 45.9433 36.2767 46.0304 36.3814 46.1729C36.4669 46.2893 36.5671 46.4817 36.532 46.6321C36.5128 46.7146 36.4743 46.7715 36.4019 46.8154C36.1079 46.9937 35.5372 46.8161 35.2179 46.7458C34.919 46.6744 34.6395 46.5789 34.3604 46.4501C34.7796 46.2331 35.4417 45.9968 35.9071 45.9116Z" fill="white"/>
<path d="M45.6447 41.699C45.6681 41.7077 45.6917 41.7162 45.7145 41.7264C45.8217 41.7741 45.9159 41.8336 45.9554 41.9501C46.042 42.2054 45.8236 42.5197 45.7078 42.733C46.0514 42.8259 46.4243 42.9082 46.7366 43.083C46.9213 43.1864 47.1015 43.3431 47.1539 43.5569C47.1884 43.698 47.1553 43.84 47.0779 43.9607C46.8492 44.3176 46.353 44.4804 45.9562 44.5561C45.3863 44.6647 44.6961 44.6586 44.1995 44.3232C44.0532 44.5568 43.8879 44.7761 43.6501 44.9241C43.4046 45.0771 43.1787 45.0989 42.9012 45.037C42.5637 44.8669 42.2521 44.5799 41.9471 44.3519C41.7028 44.1692 41.3864 43.9369 41.3507 43.6096C41.3334 43.4507 41.3889 43.3055 41.4949 43.1879C41.688 42.9738 41.9834 42.8557 42.2682 42.8485C42.8517 42.8335 43.7144 42.9993 44.1438 43.4214C44.3431 43.1263 44.6298 42.9831 44.8388 42.7135C45.0426 42.4507 45.1211 42.0963 45.3546 41.855C45.4365 41.7703 45.5355 41.7362 45.6447 41.699Z" fill="#1C1C1C"/>
<path d="M45.2671 43.2464C45.5975 43.2428 46.3207 43.521 46.606 43.7038C46.4034 43.8085 46.2041 43.8813 45.9851 43.9437C45.6818 44.01 45.1018 44.0907 44.8261 43.9282C44.7498 43.8833 44.7355 43.8455 44.7122 43.7636C44.7713 43.5131 45.065 43.3745 45.2671 43.2464Z" fill="white"/>
<path d="M42.1863 43.472C42.5389 43.4593 43.3285 43.5068 43.5893 43.7714C43.6429 43.8258 43.6752 43.8942 43.6705 43.972C43.6602 44.1445 43.509 44.2682 43.3911 44.3756C43.322 44.418 43.2487 44.4683 43.1633 44.4549C42.9975 44.4287 42.0981 43.7406 41.9777 43.6013C42.0197 43.5269 42.1113 43.504 42.1863 43.472Z" fill="white"/>
<path d="M11.3154 34.1356C11.4075 34.218 11.4866 34.3242 11.5758 34.4116C14.3773 37.1565 20.8504 37.7251 24.5728 37.6797C27.8852 37.6392 34.1386 36.8864 36.5752 34.3856C36.5559 34.5713 36.5326 34.7565 36.5054 34.9413C36.4781 35.126 36.4469 35.31 36.4117 35.4933C36.3765 35.6767 36.3374 35.8592 36.2944 36.0409C36.2513 36.2225 36.2044 36.4032 36.1536 36.5829C36.1028 36.7626 36.0482 36.9411 35.9897 37.1184C35.9313 37.2957 35.869 37.4717 35.8029 37.6463C35.7369 37.8209 35.6671 37.9941 35.5937 38.1657C35.5202 38.3373 35.443 38.5073 35.3622 38.6756C35.1198 39.18 34.8356 39.6608 34.5826 40.1596C34.1228 40.0232 33.4236 39.6777 32.9509 39.7941C32.6644 39.8646 32.5249 40.0484 32.3816 40.2876C32.262 40.5194 32.141 40.8231 32.2227 41.0844C32.2947 41.3145 32.468 41.4099 32.6689 41.5109C32.0146 42.1352 31.1791 42.3105 30.3556 42.5919C30.1144 42.6743 29.8376 42.7699 29.6353 42.9296C29.448 43.0777 29.4143 43.2827 29.3875 43.5083C29.1469 43.6195 28.9095 43.7335 28.6784 43.8636C27.7716 44.3744 26.7746 45.2074 26.672 46.3179C26.6335 46.7351 26.6956 47.1209 26.5792 47.5331C26.0571 47.6906 25.446 47.7199 24.9008 47.7466C21.6519 47.9055 18.7954 46.7368 16.4042 44.564C14.1623 42.5268 12.6851 39.9113 11.8515 37.0156C11.5861 36.0938 11.3608 35.0953 11.3154 34.1356Z" fill="white"/>
<path d="M44.9612 17.7014C46.1089 18.0719 47.2544 18.4589 48.4396 18.6939C50.1476 19.0327 52.0391 19.0278 53.739 18.642C54.7705 18.4078 55.7727 18.0419 56.7955 17.7713C56.7838 19.5457 56.6999 21.3298 56.6373 23.1037C56.5518 25.9073 56.4508 28.7104 56.3342 31.5129C56.2097 34.5994 56.1713 37.6939 56.0115 40.7781C56.0089 41.0898 56.005 41.4004 55.9888 41.7117C54.9071 42.6092 53.1321 42.8148 51.7802 42.7636C50.7803 41.6762 49.2903 41.0773 47.8955 40.6737C47.4822 40.5542 47.0603 40.4668 46.6496 40.3389C46.4034 39.8902 46.2007 39.5993 45.7944 39.2726L44.9612 17.7014Z" fill="white"/>
<path d="M11.2577 37.4666C11.2742 37.4726 11.295 37.472 11.3073 37.4846C11.3206 37.4981 11.5208 38.1711 11.5555 38.2656C11.794 38.9151 12.0391 39.5715 12.3379 40.1961C12.4065 40.3375 12.4771 40.4778 12.5499 40.6171C12.6226 40.7563 12.6974 40.8945 12.7742 41.0317C12.851 41.1688 12.9297 41.3047 13.0105 41.4395C13.0913 41.5743 13.174 41.7079 13.2587 41.8402C13.3434 41.9726 13.43 42.1037 13.5186 42.2335C13.6071 42.3634 13.6976 42.4918 13.7898 42.619C13.8822 42.7462 13.9763 42.872 14.0724 42.9964C14.1683 43.1208 14.2661 43.2437 14.3658 43.3653C14.4654 43.4868 14.5668 43.6069 14.6699 43.7255C14.773 43.844 14.8778 43.961 14.9844 44.0765C15.091 44.192 15.1992 44.3059 15.3091 44.4182C15.419 44.5305 15.5306 44.6412 15.6437 44.7502C15.7569 44.8593 15.8716 44.9666 15.9879 45.0723C16.1042 45.178 16.222 45.2819 16.3414 45.3842C16.4607 45.4864 16.5816 45.5868 16.7039 45.6855C16.8261 45.7842 16.9499 45.881 17.075 45.9761C17.5613 46.3416 18.0756 46.6598 18.5924 46.9798C18.5076 47.2452 18.4661 47.5036 18.5275 47.7796C18.6436 48.3002 19.0971 48.6726 19.5225 48.9504C21.6438 50.3356 24.6399 50.3451 27.0329 49.8326C27.1176 49.9628 27.2052 50.0909 27.2959 50.217C28.9381 52.4738 32.233 53.5752 34.8863 53.9835C35.1404 54.0223 35.3951 54.057 35.6504 54.0876C35.9056 54.1183 36.1613 54.1448 36.4174 54.1671C36.6735 54.1895 36.9299 54.2077 37.1866 54.2218C37.4433 54.2359 37.7001 54.2458 37.9571 54.2516C38.2141 54.2574 38.4711 54.2591 38.7282 54.2566C38.9853 54.2541 39.2422 54.2474 39.4991 54.2367C39.7559 54.2259 40.0125 54.2109 40.2689 54.1919C40.5252 54.1728 40.7812 54.1496 41.0368 54.1223C41.2924 54.0949 41.5475 54.0635 41.8021 54.0279C42.0567 53.9923 42.3107 53.9527 42.564 53.9089C42.8173 53.8651 43.0699 53.8173 43.3217 53.7654C43.5734 53.7135 43.8243 53.6575 44.0742 53.5975C44.3242 53.5375 44.5732 53.4734 44.8211 53.4054C45.069 53.3373 45.3157 53.2653 45.5613 53.1893C45.8068 53.1133 46.0511 53.0333 46.2941 52.9494C46.5371 52.8656 46.7787 52.7778 47.0189 52.6861C48.2098 52.2205 49.364 51.6551 50.3966 50.8952C51.9669 49.7397 52.8595 48.3795 53.1549 46.4528C54.2872 46.4478 55.8334 46.0743 56.7181 45.3324C57.1021 45.0103 57.3071 44.6114 57.4403 44.1338C57.6533 43.3704 57.6196 42.5311 57.6447 41.7436C57.6827 40.5524 57.6939 39.3433 57.7971 38.1562C59.212 38.8275 61.0277 40.3036 61.9047 41.5946C62.6999 42.765 62.9978 44.0298 62.7275 45.4208C62.6922 45.5852 62.648 45.7471 62.5949 45.9066C61.7284 48.5867 59.0186 50.3869 56.6282 51.5966C53.823 53.016 50.6848 53.8456 47.621 54.4938C38.6447 56.3931 28.8643 56.5835 19.8998 54.5411C18.4312 54.2136 16.9802 53.8206 15.547 53.3621C12.1882 52.2588 7.32531 50.1004 5.65811 46.76C5.06958 45.5808 4.95345 44.2665 5.37789 43.0132C6.28582 40.3321 8.85085 38.664 11.2577 37.4666Z" fill="white"/>
<path d="M61.5401 45.1395C61.6493 45.1353 61.7502 45.1357 61.8483 45.1928C61.9197 45.2344 61.9666 45.2962 61.9804 45.3793C62.0308 45.6829 61.5211 46.6187 61.3407 46.9046C60.1857 48.7337 58.2717 49.8505 56.3781 50.7731C54.4434 51.7157 52.478 52.4121 50.3818 52.8961C50.3293 52.9017 50.275 52.9085 50.2222 52.9077C50.1222 52.906 50.0279 52.8283 49.9615 52.7576C49.9043 52.6968 49.9033 52.6547 49.9046 52.5752C50.0922 52.2158 50.9796 52.1289 51.3421 52.025C51.9686 51.8457 52.5917 51.6755 53.2063 51.4569C55.4626 50.6541 58.7853 49.1083 60.2947 47.1722C60.6039 46.7755 60.8929 46.3634 61.1131 45.9098C61.2119 45.7063 61.2783 45.4795 61.387 45.2828C61.4229 45.2179 61.4794 45.1795 61.5401 45.1395Z" fill="#1C1C1C"/>
<path d="M7.9236 41.2386C8.00315 41.2534 8.07864 41.2745 8.14878 41.3164C8.22641 41.3627 8.2955 41.4258 8.30737 41.521C8.34541 41.8262 7.68762 42.4718 7.51428 42.7596C7.00987 43.5972 6.7934 44.5471 7.03333 45.5071C7.60732 47.8039 10.3951 49.3618 12.3954 50.2973C12.7719 50.4733 13.7384 50.8159 13.9921 51.0021C14.049 51.0439 14.0794 51.0858 14.0854 51.1585C14.0992 51.3283 13.9512 51.4947 13.8487 51.6123C13.7778 51.6024 13.7138 51.5862 13.6457 51.5633C13.197 51.4125 12.7582 51.2087 12.326 51.0166C10.2728 50.1043 7.71073 48.6278 6.68278 46.5302C6.65256 46.4696 6.62389 46.4082 6.59676 46.3461C6.56962 46.2841 6.54406 46.2213 6.52008 46.158C6.4961 46.0946 6.47372 46.0307 6.45295 45.9662C6.43218 45.9017 6.41304 45.8367 6.39553 45.7713C6.37802 45.7059 6.36217 45.64 6.34797 45.5737C6.33377 45.5075 6.32124 45.441 6.31039 45.3741C6.29953 45.3072 6.29036 45.2401 6.28288 45.1728C6.2754 45.1054 6.26961 45.038 6.26551 44.9703C6.26142 44.9027 6.25902 44.835 6.25833 44.7673C6.25764 44.6995 6.25864 44.6318 6.26136 44.5641C6.26407 44.4964 6.26847 44.4288 6.27458 44.3613C6.28068 44.2939 6.28847 44.2266 6.29796 44.1595C6.30745 44.0925 6.31861 44.0256 6.33145 43.9591C6.34429 43.8926 6.35879 43.8264 6.37496 43.7607C6.39112 43.6949 6.40893 43.6295 6.42838 43.5646C6.44782 43.4997 6.46889 43.4353 6.49157 43.3715C6.70482 42.7547 7.31903 41.531 7.9236 41.2386Z" fill="#1C1C1C"/>
</svg>
