<svg width="66" height="66" viewBox="0 0 66 66" fill="none" xmlns="http://www.w3.org/2000/svg">
<g clip-path="url(#clip0_107_4623)">
<path d="M0 0H66V66H0V0Z" fill="#1C1C1C"/>
<path d="M35.63 5.19914C36.1186 5.15512 36.5809 5.17194 37.0325 5.38223C37.7215 5.70308 38.1883 6.3476 38.4471 7.04725C39.3811 7.17454 39.8347 7.42894 40.5721 7.99335C40.6497 7.93625 40.7295 7.88209 40.8112 7.83087C40.8929 7.77965 40.9764 7.7315 41.0616 7.68643C41.1469 7.6414 41.2337 7.59957 41.322 7.56094C41.4104 7.52227 41.5001 7.48695 41.5911 7.45498C41.682 7.42296 41.774 7.39435 41.8671 7.36912C41.9602 7.3439 42.0541 7.32216 42.1488 7.3039C42.2435 7.28564 42.3387 7.2709 42.4345 7.25968C42.5303 7.24843 42.6263 7.24073 42.7227 7.23661C43.2696 7.21734 43.8059 7.33677 44.214 7.72819C44.6822 8.17743 44.782 8.76834 44.803 9.38535C45.1263 9.41152 45.4469 9.45534 45.7609 9.53881C46.6874 9.78515 47.4687 10.2717 47.9535 11.1137C48.0911 11.1174 48.2283 11.1269 48.3652 11.1423C49.4658 11.2568 50.266 11.8465 50.9448 12.6812C55.0589 13.6933 61.2961 15.781 63.7582 19.4748C64.178 20.1047 64.4924 20.8307 64.6271 21.5772C64.7535 22.278 64.7154 23.0114 64.7006 23.7206C64.6924 24.301 64.6707 24.8809 64.6355 25.4603C64.6007 26.0397 64.5524 26.618 64.4905 27.1952C64.4289 27.7724 64.354 28.3479 64.2659 28.9216C64.1776 29.4953 64.0763 30.0667 63.9618 30.6358C63.9229 30.8284 63.8825 31.0208 63.8405 31.2128C63.7986 31.4048 63.7552 31.5964 63.7102 31.7878C63.6653 31.9791 63.6188 32.1701 63.5709 32.3606C63.5229 32.5512 63.4735 32.7414 63.4225 32.9312C63.3715 33.121 63.3191 33.3104 63.2651 33.4995C63.2112 33.6884 63.1557 33.877 63.0988 34.065C63.0419 34.2531 62.9835 34.4408 62.9236 34.628C62.8637 34.8152 62.8024 35.0019 62.7395 35.1881C62.6767 35.3743 62.6124 35.56 62.5466 35.7453C62.4809 35.9305 62.4137 36.1151 62.345 36.2992C62.2764 36.4834 62.2062 36.667 62.1347 36.85C62.0631 37.0331 61.9901 37.2155 61.9156 37.3974C61.8412 37.5793 61.7653 37.7606 61.688 37.9412C61.6107 38.122 61.532 38.302 61.4518 38.4815C61.3717 38.6609 61.2901 38.8397 61.2072 39.0179C61.1242 39.196 61.0398 39.3735 60.9541 39.5504C60.8683 39.7272 60.7811 39.9033 60.6926 40.0788C60.604 40.2542 60.5141 40.429 60.4228 40.603C60.3315 40.777 60.2388 40.9503 60.1448 41.1229C60.0507 41.2955 59.9553 41.4673 59.8586 41.6384C59.7619 41.8095 59.6638 41.9797 59.5643 42.1493C59.4649 42.3188 59.3641 42.4875 59.262 42.6555C59.16 42.8234 59.0565 42.9905 58.9518 43.1568C58.8471 43.3231 58.741 43.4885 58.6337 43.6532C58.5264 43.8178 58.4177 43.9816 58.3078 44.1445C58.1978 44.3074 58.0866 44.4694 57.9741 44.6306C57.8617 44.7917 57.7479 44.952 57.6329 45.1114C57.5179 45.2708 57.4016 45.4292 57.2841 45.5867C57.1666 45.7443 57.0479 45.9009 56.9279 46.0565C56.8079 46.2122 56.6867 46.3669 56.5643 46.5206C56.4419 46.6743 56.3183 46.8271 56.1934 46.9789C56.0686 47.1307 55.9426 47.2815 55.8153 47.4313C55.233 48.1316 54.6224 48.8064 53.9837 49.4557C53.345 50.1051 52.6804 50.7267 51.9899 51.3206C50.9401 52.2127 49.8297 52.9733 48.6848 53.7352C48.6856 53.814 48.6831 53.8928 48.6772 53.9715C48.5836 55.2697 47.8301 56.3538 46.8637 57.1847C43.002 60.5047 35.394 61.0815 30.5521 60.7215C29.9506 60.6948 29.3504 60.6496 28.7516 60.5858C28.1528 60.5219 27.5566 60.4395 26.963 60.3386C26.3693 60.2378 25.7794 60.1186 25.1931 59.9812C24.6069 59.8438 24.0254 59.6883 23.4488 59.5148C21.4542 58.8955 18.8162 57.7424 17.8097 55.799C17.5026 55.206 17.4543 54.6547 17.6556 54.0201C17.222 53.6908 16.7376 53.4162 16.2901 53.1031C15.3767 52.4593 14.4966 51.7728 13.6499 51.0434C13.5124 50.9219 13.3758 50.7993 13.2401 50.6757C13.1045 50.552 12.9698 50.4274 12.8361 50.3017C12.7024 50.1759 12.5697 50.0492 12.438 49.9214C12.3062 49.7936 12.1754 49.6648 12.0457 49.5351C11.9159 49.4053 11.7872 49.2745 11.6594 49.1427C11.5317 49.0108 11.405 48.8781 11.2793 48.7443C11.1537 48.6106 11.029 48.4759 10.9055 48.3402C10.7819 48.2045 10.6593 48.0678 10.5379 47.9303C10.4164 47.7927 10.296 47.6542 10.1767 47.5147C10.0574 47.3752 9.93911 47.2349 9.82193 47.0936C9.7048 46.9523 9.58876 46.8101 9.47382 46.6671C9.35883 46.524 9.24499 46.38 9.13228 46.2352C9.01957 46.0903 8.90798 45.9446 8.79751 45.7981C8.68704 45.6515 8.57771 45.5041 8.46951 45.3559C8.36136 45.2076 8.25434 45.0585 8.14847 44.9086C8.04259 44.7586 7.93788 44.6079 7.83432 44.4564C7.73081 44.3048 7.62846 44.1525 7.52727 43.9994C7.42608 43.8463 7.32609 43.6924 7.22731 43.5377C7.12852 43.383 7.03092 43.2276 6.93449 43.0714C6.83812 42.9152 6.74296 42.7583 6.64903 42.6006C6.55506 42.443 6.46232 42.2846 6.37081 42.1255C6.2793 41.9664 6.18903 41.8066 6.1 41.6461C6.01097 41.4856 5.92319 41.3245 5.83665 41.1626C5.75012 41.0007 5.66484 40.8382 5.58082 40.6751C5.49681 40.5119 5.41406 40.3481 5.33258 40.1836C5.2511 40.0192 5.17089 39.8541 5.09197 39.6884C5.01304 39.5227 4.9354 39.3564 4.85905 39.1895C4.78271 39.0226 4.70765 38.8551 4.6339 38.6871C4.56014 38.519 4.48769 38.3504 4.41655 38.1812C4.34541 38.012 4.27558 37.8423 4.20706 37.672C4.13854 37.5018 4.07135 37.331 4.00548 37.1597C3.93961 36.9884 3.87507 36.8166 3.81186 36.6443C3.29856 35.297 2.86536 33.9244 2.51226 32.5265C1.79705 29.5945 1.54144 26.954 1.42338 23.9471C1.39002 23.0974 1.29722 22.1926 1.43211 21.3492C1.54199 20.6622 1.81043 20.0175 2.17392 19.4265C4.64696 15.4059 11.7968 13.4003 16.1452 12.3564C16.1853 12.2857 16.2287 12.217 16.2752 12.1504C16.3218 12.0838 16.3713 12.0195 16.4239 11.9574C16.4764 11.8954 16.5317 11.836 16.5898 11.7791C16.6479 11.7223 16.7085 11.6683 16.7717 11.617C17.3987 11.1061 18.0917 10.9817 18.8793 11.0583C18.8834 11.0493 18.8872 11.0403 18.8915 11.0315C19.3441 10.0888 20.2523 9.37213 21.2329 9.04188C22.138 8.73701 23.2587 8.66489 24.1334 9.1024C24.6751 8.45104 25.3976 7.85942 26.2015 7.56983C26.2613 7.54779 26.3215 7.52725 26.3823 7.50821C26.443 7.48918 26.5042 7.47167 26.5658 7.45569C26.6274 7.4397 26.6894 7.42528 26.7518 7.41244C26.8141 7.39955 26.8768 7.38825 26.9397 7.37853C27.0026 7.36878 27.0657 7.36064 27.1291 7.35411C27.1924 7.34753 27.2559 7.34255 27.3194 7.33915C27.383 7.33576 27.4466 7.33398 27.5103 7.3338C27.5739 7.33359 27.6376 7.33499 27.7012 7.33799C27.7648 7.34096 27.8282 7.34554 27.8916 7.35172C27.955 7.35791 28.0182 7.36567 28.0811 7.37499C28.1441 7.38431 28.2068 7.39523 28.2692 7.40773C28.3317 7.42019 28.3938 7.43422 28.4555 7.44982C28.5172 7.46542 28.5785 7.48254 28.6394 7.50119C28.7002 7.51984 28.7606 7.54001 28.8205 7.56171C28.8803 7.58341 28.9396 7.60659 28.9983 7.63126C29.057 7.65588 29.115 7.68198 29.1724 7.70957C30.2717 7.0883 31.4402 6.76153 32.7078 6.9594L32.7336 6.92453C32.7768 6.86686 32.8214 6.81027 32.8674 6.75476C32.9133 6.69924 32.9606 6.64489 33.0093 6.59169C33.0579 6.5385 33.1078 6.48653 33.1589 6.43579C33.2101 6.38503 33.2625 6.33555 33.3161 6.28735C33.3696 6.23915 33.4244 6.19229 33.4802 6.14676C33.5361 6.10124 33.5931 6.0571 33.6511 6.01436C33.7091 5.97161 33.7681 5.93031 33.8282 5.89045C33.8882 5.85059 33.9492 5.81221 34.0111 5.77533C34.073 5.73845 34.1358 5.7031 34.1995 5.66928C34.2631 5.63546 34.3275 5.60322 34.3927 5.57255C34.458 5.54187 34.5239 5.51281 34.5905 5.48536C34.6572 5.45791 34.7245 5.4321 34.7924 5.40794C34.8602 5.38377 34.9287 5.36127 34.9977 5.34045C35.0667 5.31963 35.1361 5.3005 35.2061 5.28307C35.276 5.26564 35.3463 5.24993 35.417 5.23593C35.4877 5.22193 35.5587 5.20967 35.63 5.19914Z" fill="white"/>
<path d="M54.4869 16.0902C55.3558 16.3017 56.5521 16.8916 57.3812 17.2859C59.1543 18.1294 61.4836 19.4487 62.1602 21.3948C62.4642 22.269 62.3329 22.994 61.9435 23.8086C61.8672 23.9557 61.7718 24.0939 61.6826 24.2335C61.6904 24.002 61.6914 23.7808 61.6535 23.5518C61.5731 23.0656 61.3625 22.5562 60.9415 22.2704C60.5626 22.013 60.1265 22.0051 59.6932 22.088C59.6592 21.9484 59.6224 21.8054 59.5432 21.6836C59.3035 21.3153 58.8394 21.2561 58.4446 21.1658C58.1753 20.7535 57.9886 20.4915 57.5166 20.2887C57.5289 20.1826 57.5386 20.0764 57.5458 19.9698C57.6003 19.084 57.3256 18.3369 56.7347 17.6756C56.223 17.1027 55.5161 16.6994 54.7402 16.6595C54.6637 16.4666 54.5669 16.282 54.4869 16.0902Z" fill="#1C1C1C"/>
<path d="M13.2797 15.4104L13.3561 15.4054C13.3969 15.5235 13.2268 15.9429 13.2 16.0876C13.1496 16.3601 13.1483 16.6372 13.1495 16.9133C12.7403 16.9525 12.3565 16.9978 11.977 17.1666C11.2544 17.4881 10.8038 18.0362 10.5279 18.7646C10.0482 18.7802 9.58387 18.817 9.11736 18.936C8.43016 19.1113 7.74657 19.4489 7.37732 20.0828C7.11957 20.5254 7.06814 21.0196 7.19672 21.5116C7.08154 21.5205 6.96572 21.5266 6.85119 21.5423C6.37325 21.6078 5.89158 21.8541 5.60121 22.2442C5.28454 22.6697 5.28922 23.1112 5.36158 23.609C5.00956 23.7967 4.80303 24.0115 4.56757 24.3258C4.49008 24.1886 4.39794 24.058 4.31133 23.9263C4.09096 23.5497 3.90496 23.1668 3.79595 22.7424C3.58263 21.9116 3.76093 21.1493 4.19881 20.4248C5.69155 17.9548 10.587 16.0591 13.2797 15.4104Z" fill="#1C1C1C"/>
<path d="M15.6683 13.3173L15.6875 13.3203L15.7116 13.3576C15.6616 13.5547 15.6152 13.7527 15.5722 13.9515C15.0942 13.9459 14.7038 14.144 14.2511 14.2663C13.7831 14.3926 13.3107 14.4974 12.8446 14.6324C11.0542 15.1508 9.2841 15.8022 7.62108 16.6459C5.85567 17.5417 3.73447 18.9144 3.10036 20.8893C2.7739 21.9061 2.93795 22.9596 3.42992 23.8947C5.04581 26.9659 9.20193 28.6593 12.3291 29.6171C16.3469 30.8478 20.5195 31.5244 24.6975 31.9129C25.9401 32.0207 27.1843 32.1048 28.4302 32.1652C29.676 32.2254 30.9225 32.2619 32.1697 32.2747C33.4169 32.2874 34.6639 32.2763 35.9107 32.2413C37.1575 32.2065 38.4032 32.1478 39.6478 32.0653C43.6396 31.8037 47.4594 31.3627 51.3601 30.4319C53.6447 29.8868 55.993 29.1827 58.0741 28.0743C59.809 27.1503 62.3574 25.2254 62.9335 23.2976C63.235 22.2887 63.0702 21.2339 62.5668 20.319C61.3682 18.1405 58.1473 16.5398 55.9002 15.7061C55.1458 15.4262 54.372 15.2269 53.6121 14.9694C53.296 14.8623 52.9994 14.6795 52.6942 14.5434C52.3041 14.3693 51.9026 14.2506 51.4928 14.134C51.4419 13.9862 51.4055 13.834 51.3663 13.6828C51.8766 13.8059 52.3847 13.9372 52.8908 14.0767C55.2768 14.8026 57.5461 15.6412 59.6741 16.9622C61.383 18.023 63.3526 19.5218 63.822 21.5819C64.0749 22.6916 63.7231 23.7023 63.1339 24.6395C63.0386 24.7932 62.9377 24.9431 62.8309 25.0891C62.7242 25.2351 62.6121 25.3768 62.4946 25.5142C62.377 25.6516 62.2544 25.7843 62.1268 25.9124C61.9991 26.0404 61.8667 26.1633 61.7295 26.2812C58.9176 28.7408 53.8355 30.2911 50.2177 31.1173C46.8552 31.8852 43.3649 32.2526 39.9285 32.4812C31.0363 33.0726 20.9035 32.7279 12.3537 30.0358C10.1564 29.344 7.9739 28.4931 6.01906 27.2594C4.43956 26.2626 2.6655 24.7509 2.24966 22.8564C2.01946 21.8077 2.27058 20.789 2.84937 19.8973C5.1269 16.3887 11.7556 14.1651 15.6683 13.3173Z" fill="#1C1C1C"/>
<path d="M47.8271 54.0528C47.8482 54.0645 47.8598 54.0886 47.8745 54.1078C47.8395 54.7928 47.2639 55.6093 46.8102 56.0996C44.1967 58.9244 38.3182 59.7784 34.6817 59.8987C30.2827 60.0442 22.6747 59.5392 19.2916 56.3721C19.1363 56.2235 18.9884 56.0675 18.8583 55.896C18.5176 55.4468 18.3452 54.9816 18.4264 54.4162C20.1991 55.2412 22.1061 55.6618 24.0095 56.0689C25.318 56.3487 26.6273 56.6297 27.9536 56.8133C28.2487 56.8538 28.5442 56.8908 28.8402 56.9242C29.1363 56.9576 29.4326 56.9875 29.7294 57.0138C30.0261 57.0402 30.3231 57.063 30.6204 57.0822C30.9176 57.1014 31.2151 57.1171 31.5127 57.1292C31.8104 57.1413 32.1081 57.1498 32.406 57.1548C32.7038 57.1598 33.0017 57.1612 33.2996 57.159C33.5974 57.1569 33.8952 57.1511 34.193 57.1418C34.4907 57.1326 34.7883 57.1197 35.0858 57.1032C35.3832 57.0868 35.6804 57.0669 35.9774 57.0434C36.2744 57.0198 36.571 56.9927 36.8673 56.9621C37.1636 56.9314 37.4595 56.8972 37.755 56.8595C38.0505 56.8217 38.3455 56.7805 38.64 56.7357C38.9345 56.6909 39.2284 56.6426 39.5217 56.5908C39.8151 56.5389 40.1078 56.4836 40.3998 56.4247C40.6918 56.3659 40.9831 56.3036 41.2736 56.2378C41.5642 56.1719 41.8538 56.1026 42.1427 56.0299C43.3583 55.7283 44.6226 55.4231 45.7935 54.9765C46.498 54.7078 47.0751 54.1955 47.8271 54.0528Z" fill="#1C1C1C"/>
<path d="M2.29159 24.8719C2.5533 25.117 2.82162 25.5472 3.07361 25.8277C3.78873 26.6237 4.6005 27.2857 5.49375 27.8709C12.3497 32.362 23.7752 33.3977 31.8683 33.4971C34.4007 33.5328 36.9309 33.4755 39.4591 33.3253C40.3646 33.2728 41.2688 33.2035 42.1717 33.1174C43.0746 33.0314 43.9757 32.9285 44.8748 32.809C45.7739 32.6894 46.6705 32.5532 47.5645 32.4004C48.4585 32.2476 49.3494 32.0782 50.2372 31.8922C54.0274 31.0995 59.5302 29.3892 62.4288 26.7439C62.9648 26.2547 63.4061 25.7061 63.8019 25.1006C63.7804 25.8019 63.7029 27.7982 63.4269 28.3237C63.0533 28.9892 62.5181 29.5957 61.9692 30.1218C60.8731 31.1722 59.5232 31.9495 58.1724 32.6226C50.6816 36.3552 39.4136 37.2138 31.0676 37.0419C23.7804 36.8917 14.7299 35.8099 8.11812 32.6913C6.49655 31.9265 4.87704 31.0047 3.62755 29.6987C3.27323 29.3284 2.84304 28.9005 2.61659 28.4403C2.36868 27.9365 2.27697 25.5345 2.29159 24.8719Z" fill="#1C1C1C"/>
<path d="M63.2204 29.8998C63.2238 30.0186 63.1905 30.1595 63.1681 30.2762C61.5668 38.6126 56.594 47.114 49.4887 51.8953C48.1334 52.8073 46.6917 53.6522 45.1703 54.2562C44.0199 54.7129 42.7821 55.0216 41.5779 55.2993C41.2556 55.3747 40.9325 55.4458 40.6084 55.5125C40.2842 55.5793 39.9593 55.6418 39.6335 55.6998C39.3078 55.7579 38.9813 55.8117 38.654 55.861C38.3268 55.9105 37.999 55.9555 37.6706 55.9961C37.3422 56.0368 37.0133 56.0731 36.6839 56.1049C36.3545 56.1369 36.0248 56.1644 35.6947 56.1874C35.3646 56.2106 35.0342 56.2292 34.7036 56.2435C34.373 56.2578 34.0423 56.2677 33.7114 56.2732C33.3805 56.2787 33.0496 56.2797 32.7187 56.2764C32.3878 56.273 32.057 56.2653 31.7263 56.2531C31.3956 56.241 31.0652 56.2244 30.7349 56.2034C30.4047 56.1824 30.0747 56.157 29.7452 56.1273C29.4156 56.0975 29.0865 56.0634 28.7578 56.0248C28.4291 55.9863 28.1011 55.9434 27.7735 55.896C27.446 55.8488 27.1192 55.7971 26.793 55.7411C26.4669 55.6851 26.1416 55.6248 25.817 55.5601C23.8001 55.164 21.3946 54.7165 19.4993 53.9383C18.2798 53.4376 17.1689 52.7006 16.1128 51.9195C12.8425 49.5007 10.2767 46.567 8.0166 43.2008C7.74869 42.7755 7.48925 42.3452 7.23827 41.9097C6.98724 41.4743 6.74483 41.0341 6.51104 40.5892C6.2773 40.1443 6.05236 39.6949 5.83621 39.2411C5.62006 38.7873 5.41289 38.3295 5.2147 37.8677C5.0165 37.4058 4.82743 36.9402 4.64748 36.4709C4.46754 36.0016 4.29686 35.529 4.13544 35.053C3.97402 34.577 3.822 34.0981 3.67936 33.6161C3.53672 33.1342 3.40358 32.6496 3.27994 32.1625C3.09228 31.4175 2.90425 30.6788 2.78278 29.9197C3.12222 30.3131 3.48977 30.6782 3.88543 31.0151C6.0637 32.8774 8.82001 34.0459 11.5127 34.939C20.6637 37.9743 31.6117 38.3505 41.1536 37.5886C47.7552 37.0615 58.7819 35.1087 63.2204 29.8998Z" fill="#1C1C1C"/>
<path d="M60.199 34.3201C60.2145 34.3216 60.2302 34.3214 60.2454 34.3246C60.3372 34.3437 60.3531 34.369 60.41 34.4383C60.4759 34.692 60.1077 36.2452 60.0031 36.5629C59.7178 37.4289 59.2521 38.2612 58.8523 39.0806C57.8041 41.2292 56.496 43.2041 55.0268 45.0861C54.4082 45.8785 53.7916 46.6467 53.077 47.3568C52.5537 47.8769 51.982 48.3331 51.4054 48.7913C50.0709 49.8519 48.6712 50.8515 47.1422 51.6142C46.0126 52.1777 44.856 52.6565 43.6757 53.101C41.0082 54.1056 38.1762 54.9295 35.2988 54.8813C34.7074 54.8715 34.0366 54.8587 33.4753 54.6712C34.0523 54.5678 34.6574 54.5484 35.2415 54.4943C36.165 54.4124 37.0837 54.2933 37.9976 54.1371C41.643 53.4943 46.6016 51.6667 49.6029 49.4796C50.7652 48.6326 51.773 47.6354 52.7663 46.6014C53.9124 45.3759 55.0116 44.1172 55.9692 42.7367C56.3523 42.1844 56.6762 41.5907 57.0402 41.0257C58.2125 39.2065 59.3242 37.4364 59.7517 35.2774C59.1963 35.5019 58.6831 35.8562 58.1528 36.1358C57.3798 36.5434 56.5845 36.8808 55.77 37.1962C55.4707 37.3096 55.1703 37.4199 54.8687 37.5271C54.5671 37.6344 54.2645 37.7385 53.9608 37.8395C53.6571 37.9405 53.3524 38.0385 53.0467 38.1332C52.7409 38.228 52.4343 38.3196 52.1267 38.4081C51.819 38.4965 51.5106 38.5818 51.2012 38.6639C50.8919 38.746 50.5817 38.8249 50.2707 38.9007C49.9598 38.9764 49.648 39.0489 49.3356 39.1183C49.0231 39.1876 48.71 39.2537 48.3961 39.3166C48.0823 39.3795 47.7678 39.4392 47.4528 39.4956C47.1377 39.552 46.8221 39.6052 46.506 39.6551C46.1899 39.7051 45.8732 39.7518 45.5561 39.7952C45.239 39.8386 44.9215 39.8788 44.6036 39.9157C44.2856 39.9526 43.9673 39.9862 43.6487 40.0166C43.3301 40.047 43.0112 40.074 42.692 40.0978C42.3728 40.1216 42.0535 40.1422 41.7339 40.1595C41.4143 40.1767 41.0945 40.1906 40.7746 40.2013C39.479 40.2412 38.1303 40.2537 36.846 40.0517C37.4305 39.949 38.0522 39.939 38.6444 39.8907C39.8811 39.7897 41.1198 39.6963 42.3551 39.5793C46.4842 39.1883 50.5347 38.4592 54.4729 37.138C55.7802 36.6994 57.0101 36.2466 58.205 35.5528C58.7924 35.2116 59.5618 34.5473 60.1555 34.3351C60.17 34.33 60.1845 34.3251 60.199 34.3201Z" fill="white"/>
<path d="M35.8256 6.00303C35.9767 5.99024 36.1255 5.9792 36.277 5.99494C36.9658 6.06647 37.4115 6.63309 37.6297 7.24649C37.7087 7.46892 37.7649 7.75722 37.9234 7.93524C37.9798 7.99866 38.0483 8.04107 38.1364 8.03534C38.2847 8.02567 38.3809 7.91255 38.4783 7.81452C39.1238 7.97391 39.6022 8.19589 40.0911 8.65325C40.1279 8.85054 40.1458 9.02875 40.3175 9.15611C40.4166 9.17738 40.4221 9.18634 40.5097 9.12859C40.6863 9.01225 40.8451 8.83739 41.0118 8.70404C41.4267 8.37217 42.0073 8.14304 42.531 8.06756C42.9285 8.01026 43.3239 8.03798 43.652 8.29321C43.8922 8.48006 43.9931 8.78267 44.0333 9.07445C44.0816 9.42456 44.1269 10.1384 43.8945 10.4222C43.7858 10.5551 43.6266 10.6454 43.53 10.7892C43.4825 10.8599 43.4716 10.9198 43.4852 11.0037C43.5158 11.0546 43.5372 11.0865 43.5928 11.1141C43.7369 11.1857 43.8859 11.1402 44.0236 11.0767C44.4024 10.9019 44.5813 10.5506 44.7245 10.1825C45.6134 10.2303 46.76 10.5956 47.2247 11.4214C47.3526 11.6488 47.3616 12.0337 47.5989 12.1716C47.6704 12.2131 47.742 12.2266 47.8214 12.1951C47.9657 12.138 48.0346 12.0023 48.105 11.8741C49.3871 12.0994 50.3039 12.7299 50.6265 14.0527C50.6725 14.2411 50.6904 14.5863 50.8282 14.7301C51.0007 14.9101 51.7822 15.0594 52.0514 15.1645C52.478 15.331 52.9049 15.5495 53.2448 15.8612C53.5387 16.1307 53.7911 16.4684 53.9485 16.8358C54.1137 17.2212 54.1416 17.8324 54.4757 18.1063C54.5448 18.1203 54.5645 18.1329 54.6242 18.0847C54.7951 17.9467 54.8012 17.6901 54.8101 17.492C55.4196 17.6511 55.9959 18.0012 56.3572 18.5259C56.6373 18.9328 56.8111 19.484 56.7471 19.9809C56.7213 20.1809 56.6548 20.3758 56.6204 20.5749C56.5676 20.8802 56.6473 21.0023 56.8155 21.2442C56.5951 21.9463 56.1974 21.4856 55.8833 21.7546C55.8503 21.9649 56.075 22.1633 56.1677 22.3474C56.4054 22.8195 56.2918 23.4408 56.4964 23.7451C56.5387 23.7635 56.5601 23.7882 56.6059 23.7669C56.697 23.7246 56.7653 23.6233 56.8067 23.5348C57.0197 23.0784 56.8548 22.5232 56.6966 22.0767C56.8846 21.9626 57.0897 21.8267 57.2124 21.6406C57.3191 21.4787 57.3056 21.22 57.4622 21.1032C57.5223 21.1151 57.5539 21.1269 57.6014 21.1683C57.7968 21.3388 57.8739 21.7461 58.1522 21.8053C58.3372 21.8445 58.5382 21.7913 58.7178 21.8674C58.7497 21.8811 58.7793 21.8988 58.8065 21.9203C58.8337 21.9418 58.8577 21.9665 58.8785 21.9943C59.0508 22.2294 58.889 22.6298 59.1183 22.8169C59.3848 23.0345 59.7832 22.7284 60.0822 22.7043C60.3184 22.6853 60.5553 22.7781 60.7251 22.9404C60.9797 23.1838 61.0949 23.5495 61.0992 23.8947C61.1077 24.5691 60.703 25.1795 60.2397 25.6366C58.9714 26.8881 57.018 27.7697 55.3677 28.3845C53.5936 29.0453 51.7854 29.5224 49.9372 29.925C44.1124 31.1939 38.1626 31.4629 32.2185 31.4466C26.0219 31.4095 19.7246 30.8062 13.7376 29.1548C11.1994 28.4547 8.05477 27.3887 5.98803 25.6971C5.71454 25.4733 5.34745 25.1791 5.17998 24.8611C4.94124 24.4077 5.70938 24.2173 5.88904 23.8969C6.04032 23.627 5.78672 23.1934 5.89149 22.8646C6.20088 21.894 7.46992 22.2388 7.82396 22.0243C7.97239 21.9344 7.58896 21.1466 7.63415 20.8939C7.70762 20.4829 7.99412 20.1259 8.33424 19.8991C8.93346 19.4995 10.2373 19.219 10.9412 19.3745C11.2324 19.4388 11.4879 19.6074 11.7796 19.6649C11.8669 19.6461 11.9166 19.6259 11.9711 19.551C12.0184 19.4858 12.0326 19.4005 12.0046 19.3245C11.9049 19.0526 11.3724 18.8787 11.1274 18.7871C11.4212 18.1182 12.114 17.5499 12.8501 17.4675C13.0962 17.4399 13.4099 17.4862 13.6363 17.3848C13.6854 17.3304 13.6975 17.2775 13.7033 17.2062C13.7503 16.6258 13.6317 16.318 13.8497 15.7234C14.0207 15.2572 14.3388 14.9345 14.7891 14.7323C15.0484 14.6159 15.3966 14.5755 15.6651 14.6851C15.758 14.7231 15.8495 14.7891 15.8787 14.8906C15.9428 15.1127 15.5482 15.5824 15.4506 15.8109C15.3007 16.1617 15.1309 16.8061 15.2958 17.1672C15.3356 17.2546 15.3853 17.3011 15.4723 17.3373L15.507 17.3232C15.5613 17.3012 15.5895 17.2546 15.6167 17.204C15.8062 16.8525 15.7624 16.2313 16.0655 15.7146C16.1836 15.5134 16.4161 15.4129 16.5468 15.2262C16.5861 15.17 16.6014 15.1078 16.5867 15.0404C16.5652 14.941 16.4609 14.8819 16.384 14.826C16.3916 14.2212 16.4418 13.6676 16.6838 13.1059C17.0091 12.3504 17.6517 11.8523 18.4842 11.795C18.7243 11.7785 19.1568 11.8541 19.3577 11.7175C19.5476 11.5883 19.6603 11.3058 19.7833 11.1158C20.3442 10.2498 21.2233 9.81218 22.2207 9.64924C22.592 9.58853 23.048 9.6165 23.4132 9.71189C23.6122 9.7639 24.1685 10.0425 24.3342 10.0172C24.51 9.99033 25.1626 9.17564 25.4035 8.97435C25.4758 8.91351 25.5505 8.85563 25.6275 8.80072C25.7045 8.74585 25.7835 8.69411 25.8646 8.64551C25.9457 8.59696 26.0286 8.55171 26.1134 8.50978C26.1981 8.46784 26.2844 8.42934 26.3722 8.39428C27.4314 7.97353 28.2225 8.1549 29.226 8.58918C29.5115 8.48805 29.7786 8.28451 30.0537 8.14987C31.1517 7.61239 31.7918 7.65345 32.9439 7.88084C33.1432 7.783 33.2394 7.59822 33.3632 7.42303C33.9058 6.65533 34.9197 6.16011 35.8256 6.00303Z" fill="#1C1C1C"/>
<path d="M33.8178 27.0394C33.9183 27.0366 33.9868 27.0428 34.0818 27.0766C34.1437 27.1398 34.1471 27.1386 34.155 27.2259C34.088 27.3911 33.9869 27.4458 33.8331 27.5273C33.7992 27.5265 33.7652 27.5264 33.7315 27.5235C33.6287 27.5147 33.5756 27.4791 33.5105 27.4024C33.4971 27.3281 33.4902 27.3047 33.5233 27.2332C33.5791 27.113 33.7028 27.0808 33.8178 27.0394Z" fill="white"/>
<path d="M54.707 24.0518C54.8684 24.0498 55.0487 24.0685 55.2001 24.1265C55.2205 24.1343 55.2407 24.1425 55.2606 24.1512C55.2805 24.1599 55.3003 24.1691 55.3198 24.1788C55.3392 24.1885 55.3585 24.1987 55.3775 24.2093C55.3964 24.22 55.4152 24.2311 55.4336 24.2426C55.452 24.2542 55.4702 24.2662 55.488 24.2787C55.5059 24.2911 55.5234 24.304 55.5406 24.3173C55.5578 24.3306 55.5747 24.3444 55.5912 24.3585C55.6078 24.3727 55.624 24.3873 55.6398 24.4022C55.6556 24.4172 55.671 24.4325 55.6861 24.4482C55.7011 24.4639 55.7158 24.48 55.7301 24.4964C55.7443 24.5128 55.7582 24.5296 55.7717 24.5467C55.7851 24.5639 55.7981 24.5813 55.8106 24.599C55.8232 24.6168 55.8354 24.6349 55.8471 24.6533C55.8588 24.6716 55.87 24.6902 55.8808 24.7091C55.8916 24.728 55.9018 24.7472 55.9116 24.7666C55.9215 24.786 55.9308 24.8057 55.9397 24.8256C56.0427 25.0602 56.0691 25.3166 55.9694 25.557C55.9345 25.6411 55.8992 25.711 55.813 25.7497C55.6265 25.6852 55.466 25.1292 55.3365 24.9472L55.3098 24.9103C55.2287 24.8287 55.0785 24.7251 54.9638 24.7023C54.5403 24.618 54.6141 25.3589 54.3296 25.5223C54.2569 25.5283 54.2208 25.5165 54.1615 25.4719C54.0408 25.3814 53.9633 25.2357 53.9397 25.0886C53.9005 24.8441 53.98 24.5687 54.1265 24.3718C54.2848 24.159 54.4521 24.0941 54.707 24.0518Z" fill="white"/>
<path d="M28.3843 12.6449C28.4138 12.6423 28.4432 12.6401 28.4727 12.6382C28.8059 12.6181 29.6786 12.6928 29.9019 12.9559C29.955 13.0185 29.9396 13.051 29.9232 13.122C29.7431 13.2683 28.7831 13.2248 28.4822 13.2741C28.1733 13.3249 27.89 13.4146 27.5988 13.5284C27.3521 13.6432 27.1341 13.7905 26.8979 13.9233C26.783 13.9878 26.6853 14.0498 26.5529 14.0129L26.5325 13.9381C26.5677 13.7688 26.6359 13.645 26.741 13.508C27.1521 12.9714 27.7304 12.7312 28.3843 12.6449Z" fill="white"/>
<path d="M26.6584 21.4061C27.2365 21.3293 27.9595 21.6118 28.4466 21.9116C28.5823 21.9951 28.733 22.0928 28.7712 22.254C28.563 22.4224 27.6971 22.0745 27.4074 22.0307C27.1657 21.9942 26.934 22.0012 26.6954 22.0533L26.6522 22.0631C25.8329 22.3853 25.8583 23.0797 25.4849 23.3444C25.4468 23.3267 25.4183 23.3249 25.4 23.2836C25.3176 23.0976 25.4311 22.6844 25.5034 22.4939C25.7014 21.973 26.1629 21.6301 26.6584 21.4061Z" fill="white"/>
<path d="M36.8798 9.12687C37.0801 9.11617 37.2651 9.1134 37.4634 9.1542C37.4938 9.16022 37.524 9.167 37.554 9.17457C37.5841 9.18209 37.6139 9.19036 37.6435 9.19938C37.6732 9.2084 37.7026 9.21816 37.7318 9.22864C37.7609 9.23908 37.7898 9.25028 37.8184 9.26222C37.847 9.27413 37.8753 9.28671 37.9032 9.29999C37.9312 9.31331 37.9588 9.32732 37.9861 9.34202C38.0134 9.35671 38.0403 9.37205 38.0668 9.38803C38.0933 9.40406 38.1194 9.42073 38.1451 9.43805C38.1708 9.45537 38.1961 9.47331 38.2209 9.49187C38.2456 9.51043 38.27 9.5296 38.2938 9.54936C38.3177 9.56913 38.341 9.58947 38.3638 9.6104C38.3867 9.63132 38.409 9.65281 38.4308 9.67485C38.4525 9.69689 38.4737 9.71945 38.4944 9.74253C38.5151 9.76564 38.5351 9.78923 38.5546 9.8133C38.5741 9.8374 38.5929 9.86196 38.6112 9.88697C38.6294 9.91197 38.6471 9.93743 38.6641 9.96334C38.8243 10.2097 38.9708 10.523 38.91 10.8202C38.8524 10.8943 38.8582 10.8919 38.7655 10.9055C38.5426 10.8355 38.4339 10.6426 38.3024 10.4629C37.7233 9.70824 37.2008 9.70282 36.3286 9.849C36.2035 9.87002 36.025 9.90791 35.9036 9.8675C35.8615 9.85352 35.875 9.85152 35.8562 9.80157C35.8711 9.74511 35.886 9.70237 35.9194 9.65352C36.1376 9.33396 36.5152 9.19487 36.8798 9.12687Z" fill="white"/>
<path d="M29.9493 8.99763C30.3879 8.96341 30.7495 8.9995 31.1253 9.25093C31.2971 9.36592 31.6588 9.65789 31.6646 9.88019C31.6667 9.96256 31.6312 9.99504 31.5821 10.0525C31.4241 10.0572 31.1621 9.8555 31.0022 9.78705C30.4757 9.56173 30.0068 9.60852 29.4886 9.8196C29.3209 9.9081 29.137 9.99375 28.9916 10.1162C28.8003 10.2772 28.6001 10.5652 28.3783 10.6705C28.3158 10.7001 28.3016 10.6904 28.2404 10.6692C28.2182 10.6316 28.2126 10.6263 28.1982 10.5793C28.1369 10.3801 28.2463 10.1234 28.3557 9.96185C28.7052 9.44513 29.3531 9.12048 29.9493 8.99763Z" fill="white"/>
<path d="M45.8969 17.7369C46.4617 17.6763 47.0732 17.788 47.5834 18.0349C48.0727 18.2718 48.5836 18.7383 48.753 19.2676C48.7904 19.3845 48.8394 19.5261 48.7799 19.6382L48.7037 19.65C48.4532 19.5648 48.2576 19.3412 48.0726 19.1604C47.3019 18.4484 46.4964 18.2811 45.4672 18.3325C45.2714 18.3422 44.9477 18.4092 44.7625 18.3566C44.7024 18.3395 44.7123 18.333 44.6833 18.2835C44.6966 18.2403 44.6955 18.2355 44.7227 18.1916C44.9122 17.8859 45.5646 17.7732 45.8969 17.7369Z" fill="white"/>
<path d="M49.8316 21.629C50.4073 21.5803 50.8779 21.7349 51.3157 22.1087C51.4332 22.209 51.561 22.3532 51.6943 22.4246C51.8683 22.5178 52.0785 22.5348 52.2454 22.6466C52.4958 22.8143 52.6745 23.122 52.7275 23.4153C52.7656 23.6264 52.7478 23.8585 52.6122 24.0331C52.5525 24.1099 52.4825 24.17 52.3866 24.1805C52.2737 23.9339 52.2862 23.6385 52.1849 23.3792C52.0895 23.234 51.989 23.1318 51.8597 23.0191C51.7451 23.0315 51.631 23.0676 51.5146 23.0545C51.0701 23.0047 50.9429 22.3188 50.1407 22.2273C49.7595 22.1838 49.2286 22.6362 48.9099 22.5437C48.8284 22.5202 48.7845 22.491 48.7508 22.4107C48.7202 22.3378 48.7426 22.2645 48.7777 22.1987C48.9386 21.8976 49.5135 21.6987 49.8316 21.629Z" fill="white"/>
<path d="M47.395 26.5958C47.4288 26.5925 47.4626 26.5892 47.4965 26.5871C48.2914 26.5394 48.6787 26.8791 49.2385 27.3673C49.2869 27.3617 49.3353 27.3565 49.3837 27.3517C49.7967 27.3105 50.2858 27.3305 50.6155 27.6155C50.7143 27.701 50.7694 27.7827 50.7775 27.9153C50.7612 27.9507 50.7457 27.9953 50.7127 28.019C50.4746 28.1901 49.9693 27.8893 49.6896 27.8899C49.6364 27.9899 49.6822 28.1854 49.6889 28.303C49.6955 28.4193 49.7016 28.5888 49.5995 28.6711C49.526 28.7304 49.4915 28.7208 49.4063 28.7078C49.1771 28.5464 49.0993 28.2209 48.9646 27.9787C48.7298 27.6489 48.3395 27.3066 47.9358 27.2249C47.0265 27.0411 46.6628 27.9453 46.0127 28.3288C45.923 28.3817 45.8659 28.4034 45.7649 28.3757C45.7596 28.366 45.7531 28.3569 45.7491 28.3466C45.6969 28.212 45.8017 27.9552 45.8691 27.8375C46.2081 27.2458 46.7394 26.7848 47.395 26.5958Z" fill="white"/>
<path d="M43.4009 21.152C43.4523 21.1473 43.5028 21.1431 43.5545 21.1423C43.8729 21.1375 44.1842 21.1814 44.4205 21.4164C44.7122 21.7066 44.7474 22.1024 44.7564 22.4902C44.8523 22.5444 44.9496 22.5959 45.0362 22.6647C45.4134 22.9647 45.6815 23.4939 45.7158 23.9772C45.7278 24.1457 45.6993 24.3405 45.5782 24.4682C45.5154 24.5344 45.4836 24.5485 45.3945 24.5472C45.203 24.3985 45.1671 23.8399 45.1003 23.5988C44.9381 23.0127 44.5024 23.2635 44.1207 23.0151C43.8236 22.8218 44.1587 22.5714 44.1884 22.3629C44.1986 22.2909 44.167 22.182 44.1514 22.1098L44.1408 22.0616C44.1248 22.0328 44.1091 22.0037 44.0917 21.9758C44.0064 21.8399 43.9007 21.7811 43.7448 21.7494C43.3915 21.6775 42.9659 21.7982 42.6696 21.9936C42.1317 22.3484 42.1389 22.9004 42.031 23.4647C41.9686 23.5258 41.9553 23.5442 41.8611 23.5444C41.6277 23.5447 41.1348 23.3873 40.9745 23.2178C40.966 23.1681 40.9484 23.1485 40.9825 23.1052C41.0927 22.965 41.3544 22.9547 41.5196 22.9267C41.641 22.548 41.6857 22.1884 41.9418 21.8609C42.3025 21.3997 42.8446 21.2276 43.4009 21.152Z" fill="white"/>
<path d="M43.7681 12.7098C43.9467 12.6978 44.154 12.7175 44.3221 12.7792C44.6252 12.8906 44.8572 13.1125 44.9913 13.4056C45.1616 13.7777 45.1347 14.1199 45.0012 14.4929C45.1727 14.6141 45.3488 14.7414 45.4784 14.9084C45.6737 15.16 45.7755 15.4538 45.7286 15.7732C45.7016 15.9565 45.6259 16.1643 45.4648 16.2718C45.3532 16.3463 45.2571 16.3392 45.1306 16.3159C44.9439 16.1471 45.2097 15.678 45.1014 15.4183C44.9522 15.06 44.4211 15.0577 44.3175 14.8005C44.2235 14.5668 44.3627 14.2196 44.4391 13.9945C44.4505 13.9581 44.4618 13.9216 44.4701 13.8843C44.4946 13.7736 44.4647 13.6253 44.4005 13.5316C44.3266 13.4239 44.2014 13.3768 44.0783 13.3535C43.8123 13.3032 43.5325 13.3508 43.2839 13.452C42.2843 13.8587 42.1884 14.9239 41.8821 15.0704C41.8239 15.0984 41.7607 15.1025 41.7047 15.067C41.611 15.0074 41.5579 14.8648 41.5472 14.7584C41.5155 14.4423 41.8781 13.7877 42.0846 13.5396C42.501 13.0394 43.1316 12.7728 43.7681 12.7098Z" fill="white"/>
<path d="M33.6076 13.2565C33.6709 13.2495 33.7371 13.2485 33.8009 13.2462C34.7155 13.2131 35.3612 13.6358 36.0087 14.2367C36.9535 13.9266 37.9831 13.8352 38.9386 14.1732C39.2158 14.2712 39.6132 14.4835 39.7136 14.7824C39.7422 14.8673 39.7384 14.8837 39.7001 14.9571C39.5059 15.0221 38.3719 14.6316 38.0701 14.5871C37.7027 14.5329 37.359 14.5384 36.9907 14.5784C36.5339 14.6227 36.2274 14.8644 35.8809 14.903C35.7538 14.8334 35.6696 14.6972 35.5724 14.5917C35.2011 14.188 34.5261 13.9047 33.9823 13.8814C33.0327 13.8407 32.3353 14.5398 31.6893 15.1331C31.6288 14.76 31.7202 14.4376 31.9468 14.1329C32.3413 13.6024 32.9697 13.3382 33.6076 13.2565Z" fill="white"/>
<path d="M36.9268 25.3744C36.9334 25.3738 36.94 25.3729 36.9466 25.3725C37.5751 25.3327 38.4317 25.429 38.9157 25.8728C39.3092 26.2336 39.3882 26.6426 39.4156 27.1472C39.7026 27.2653 39.976 27.4686 40.1883 27.6937C40.5318 28.0581 40.7297 28.5308 40.7026 29.0359C40.6761 29.528 40.4483 30.0183 40.0659 30.3341C39.9347 30.4425 39.677 30.5648 39.5037 30.5414C39.4468 30.5338 39.4619 30.5322 39.4198 30.4837C39.3888 30.269 39.74 29.9634 39.8575 29.7785C40.0681 29.4474 40.1509 29.0691 40.0697 28.6853L40.0547 28.6443C39.7847 27.9211 39.5423 27.9314 38.9293 27.6435C38.8555 27.6089 38.7766 27.5613 38.7525 27.4786C38.71 27.3321 38.8047 27.2142 38.8752 27.0923C38.8288 26.7693 38.7499 26.5044 38.48 26.2963C38.0689 25.9794 37.3483 25.9382 36.8501 26.009C36.5159 26.0565 36.1842 26.1896 35.9851 26.4755C35.844 26.6782 35.8026 26.9213 35.844 27.1622C35.8577 27.2418 35.8656 27.3106 35.8657 27.3913C35.8296 27.4535 35.8198 27.4838 35.7409 27.4955C35.6933 27.5025 35.6391 27.4846 35.6006 27.4575C35.4548 27.3551 35.3658 27.1125 35.3444 26.9428C35.3016 26.6054 35.3769 26.2716 35.5901 26.0033C35.9251 25.5816 36.4159 25.4381 36.9268 25.3744Z" fill="white"/>
<path d="M34.0456 18.5731C34.9763 18.5205 35.5903 18.931 36.3199 19.4524C36.4818 19.3591 36.6062 19.2975 36.7953 19.2901C37.1665 19.2756 37.5333 19.4397 37.8008 19.6923C37.9406 19.8243 38.1977 20.1425 38.1697 20.3535C38.1586 20.4369 38.1396 20.4449 38.0749 20.4864C37.7353 20.528 37.3538 20.1412 37.0786 19.9659C36.9433 19.8797 36.8212 19.8226 36.6595 19.8567C36.4445 20.05 36.6557 20.3265 36.5339 20.5544C36.4589 20.5936 36.4579 20.5909 36.3775 20.5474C36.2385 20.4719 36.122 20.3118 36.0169 20.1949C35.5991 19.7299 35.1739 19.4097 34.5637 19.2452C34.4633 19.23 34.3617 19.2145 34.26 19.2128C34.2319 19.2125 34.2039 19.213 34.1759 19.2141C34.1479 19.2152 34.1199 19.217 34.092 19.2194C34.0641 19.2219 34.0362 19.225 34.0085 19.2288C33.9807 19.2326 33.9531 19.2371 33.9255 19.2422C33.8979 19.2474 33.8705 19.2532 33.8433 19.2597C33.816 19.2662 33.7889 19.2733 33.7619 19.2811C33.735 19.2889 33.7083 19.2973 33.6818 19.3064C33.6553 19.3155 33.629 19.3252 33.6029 19.3356C33.5769 19.3459 33.5511 19.3569 33.5256 19.3685C33.5001 19.3801 33.4748 19.3924 33.4499 19.4052C33.425 19.418 33.4004 19.4315 33.3762 19.4455C33.3519 19.4595 33.328 19.4741 33.3044 19.4893C33.2808 19.5045 33.2576 19.5202 33.2348 19.5365C33.212 19.5528 33.1896 19.5696 33.1677 19.587C33.1457 19.6044 33.1241 19.6223 33.103 19.6408C33.0819 19.6592 33.0612 19.6781 33.041 19.6975C32.5679 20.1573 32.3461 20.9519 32.6024 21.5726C32.6926 21.791 32.9938 22.0282 32.9865 22.2623L32.9257 22.2764C32.7797 22.2365 32.6446 22.1676 32.5204 22.0815C32.181 21.8462 31.9351 21.4911 31.8768 21.0788C31.7993 20.5306 32.0025 19.935 32.3391 19.5046C32.7612 18.9648 33.3735 18.6582 34.0456 18.5731Z" fill="white"/>
<path d="M22.4621 15.4746C22.7651 15.4385 23.0666 15.4844 23.3559 15.5764C24.1577 15.8317 24.669 16.3474 25.0504 17.0781C25.4009 17.1018 25.8524 17.0514 26.1656 17.2217C26.3688 17.3322 26.7383 17.6205 26.7717 17.8697C26.7831 17.9547 26.767 17.975 26.7232 18.0425C26.5747 18.1099 26.383 17.9681 26.2477 17.9C26.011 17.7808 25.6125 17.5651 25.3422 17.562C25.171 17.5602 25.0002 17.6172 24.8251 17.6181C24.6484 17.5373 24.4903 16.9534 24.224 16.6866C23.8303 16.2922 23.2782 16.0463 22.7169 16.0536C22.0991 16.0617 21.6246 16.3995 21.2169 16.8284C21.0987 16.9852 21.0003 17.1537 20.9216 17.3337C20.7465 17.731 20.6628 18.2038 20.7815 18.6276C20.8313 18.8055 20.9248 18.9698 20.9817 19.1449C21.0123 19.239 21.0073 19.2707 20.9639 19.3578C20.7535 19.4832 20.3624 19.3471 20.0009 19.5701C19.6972 19.7575 19.3204 20.473 19.019 20.5252L18.9732 20.481C18.9567 20.3563 18.973 20.2488 19.0053 20.1272C19.1793 19.4707 19.718 19.1789 20.2629 18.8749C20.1208 18.1525 20.2378 17.4616 20.6224 16.832C21.0504 16.1317 21.665 15.6667 22.4621 15.4746Z" fill="white"/>
<path d="M15.1842 19.5432C15.3948 19.5407 15.6113 19.5564 15.8178 19.5992C16.7607 19.7945 17.281 20.3884 17.7834 21.1573C18.176 21.0523 18.5515 20.9591 18.961 21.0044C19.7605 21.0929 20.5019 21.565 20.9948 22.1893C21.0811 22.2986 21.1654 22.3916 21.1475 22.5364C20.971 22.5995 19.8067 21.8141 19.5055 21.7088C19.0828 21.561 18.2635 21.3277 17.9797 21.8086C17.9196 21.9106 17.8711 22.1001 17.7674 22.1501C17.5655 22.0184 17.4673 21.672 17.3623 21.463C17.0569 20.8547 16.5232 20.3439 15.8697 20.1319C15.4555 19.9976 14.9518 20.0051 14.564 20.2179C14.3337 20.3443 14.165 20.5386 14.0946 20.7938C14.0384 20.9979 14.0496 21.2117 14.0928 21.417C14.2412 22.1226 14.6855 21.9081 14.9395 22.378C14.9451 22.3884 14.9504 22.3988 14.9558 22.4092C14.9257 22.4884 14.8928 22.5823 14.8135 22.6251C14.6385 22.7195 14.2865 22.5848 14.0967 22.5447C13.4683 22.7581 13.2382 23.3712 13.1802 23.9882C13.1516 24.2915 13.1865 24.6447 13.0122 24.9073C12.9665 24.9343 12.9383 24.9637 12.883 24.9612C12.7208 24.9537 12.6421 24.8593 12.5411 24.7438L12.4905 24.7293C12.4248 24.7102 12.3594 24.6906 12.2927 24.6756C11.0901 24.4045 11.2278 25.7853 10.7618 26.0053C10.6791 26.0443 10.6096 26.0331 10.525 26.0119C10.2891 25.8523 10.3278 25.4415 10.1816 25.2051C10.0444 24.9835 9.7867 25.017 9.56801 24.947C9.4821 24.9195 9.46341 24.8716 9.42493 24.7958C9.43144 24.7076 9.4324 24.6761 9.49305 24.6052C9.58632 24.4963 9.76098 24.458 9.89672 24.464C10.2417 24.4792 10.461 24.6505 10.6818 24.8949C10.8444 24.6607 11.0299 24.4472 11.2754 24.2963C11.6932 24.0394 12.1246 24.0415 12.5831 24.1527C12.6185 23.9593 12.6583 23.7668 12.7026 23.5752C12.8594 22.911 13.1388 22.4384 13.7289 22.0712C13.6362 21.8026 13.5483 21.5409 13.5222 21.2564C13.4842 20.8428 13.5894 20.4322 13.8662 20.1162C14.2081 19.7258 14.6851 19.579 15.1842 19.5432Z" fill="white"/>
<path d="M27.3521 24.8575C27.444 24.8617 27.5354 24.871 27.6262 24.8855C27.717 24.8999 27.8067 24.9195 27.8953 24.944C27.9839 24.9687 28.0709 24.9982 28.1561 25.0326C28.2414 25.067 28.3245 25.1061 28.4054 25.1499C28.8574 25.3971 29.1899 25.7656 29.3338 26.264C29.4912 26.2504 29.6521 26.2464 29.8097 26.2599C30.4724 26.3162 31.1541 26.7364 31.5737 27.2402L31.6018 27.2745L31.6398 27.2384L31.6215 27.3012C31.6475 27.3382 31.6748 27.3752 31.696 27.4152C31.7292 27.478 31.7853 27.5657 31.764 27.6338C31.3197 27.8763 30.3122 26.8394 29.776 26.7668C29.4458 26.7222 29.2552 26.9498 28.9523 26.9775C28.9079 26.9611 28.873 26.9601 28.8469 26.917C28.7579 26.7695 28.8243 26.5188 28.8476 26.3567C28.6419 25.9445 28.3548 25.7129 27.9333 25.5464C27.6781 25.4456 27.2979 25.3428 27.0397 25.4657C26.57 25.6896 26.8318 26.2024 26.6873 26.5286C26.6651 26.5786 26.5685 26.5768 26.5186 26.5739C25.9533 26.5409 25.6434 26.1879 25.0234 26.4469C24.1947 26.793 24.7303 27.2587 24.5326 27.6597C24.4699 27.7867 23.9778 27.7547 23.8278 27.8075C23.6694 27.8633 23.5539 28.0078 23.4837 28.1556C23.083 29.0007 23.8944 29.2627 23.962 29.5923C23.9776 29.6683 23.9466 29.6967 23.9053 29.7533C23.8244 29.7887 23.7838 29.8065 23.6957 29.7846C23.4141 29.7145 23.178 29.4442 23.0379 29.2079C22.9169 28.9392 22.8637 28.6944 22.8304 28.4023C22.2964 28.0908 21.6361 27.9102 21.0258 28.0824C20.8222 28.1398 20.6317 28.2585 20.422 28.2875C20.2898 28.2032 20.2356 28.0139 20.1369 27.8934C19.9638 27.6816 19.6514 27.5665 19.3865 27.542C19.1728 27.5222 18.9348 27.5529 18.7694 27.7019C18.2781 28.1445 18.9032 28.8049 18.8454 29.1956C18.8314 29.2896 18.8189 29.3001 18.748 29.3536C18.6068 29.3648 18.5042 29.337 18.3966 29.2404C18.1643 29.0314 18.0761 28.6269 18.0565 28.3239C18.0327 27.9551 18.1232 27.5668 18.3805 27.2906C18.5738 27.083 18.8361 26.9732 19.119 26.9741C19.7111 26.9761 20.2324 27.2557 20.6327 27.6734C21.5074 27.4323 22.1719 27.5557 22.9921 27.9089C23.2898 27.6052 23.5414 27.3699 23.9265 27.1762C24.0152 26.8005 24.1816 26.4158 24.4956 26.1754C24.9725 25.8103 25.5999 25.8508 26.1611 25.9197C26.2381 25.7012 26.3121 25.4944 26.4556 25.3082C26.6856 25.0098 26.9925 24.9041 27.3521 24.8575Z" fill="white"/>
</g>
<defs>
<clipPath id="clip0_107_4623">
<rect width="66" height="66" rx="10" fill="white"/>
</clipPath>
</defs>
</svg>
