<svg width="68" height="68" viewBox="0 0 68 68" fill="none" xmlns="http://www.w3.org/2000/svg">
<rect width="68" height="68" rx="12" fill="#1C1C1C"/>
<path d="M23.8588 55.2382C24.2494 55.2411 25.0253 55.4796 25.4607 55.5542C26.365 55.7091 27.2827 55.7973 28.1964 55.8707C30.1261 56.0157 32.0584 56.0803 33.9933 56.0647C37.089 56.0646 40.2624 55.96 43.315 55.4057C43.0942 55.5081 42.8716 55.6062 42.6471 55.6998C42.3768 55.8056 42.1032 55.9016 41.8264 55.9879C37.3817 57.382 28.0314 57.4907 23.8588 55.2382Z" fill="white"/>
<path d="M50.5705 30.7252C52.4681 30.7004 55.2623 30.7691 57.109 31.2221C57.3363 31.2778 57.8218 31.3542 57.9447 31.5584L57.9188 31.6236C57.0799 32.2816 51.9247 32.3364 50.6189 32.3337C48.8081 32.3278 44.6696 32.3169 43.1709 31.5439C44.2893 30.7968 49.0406 30.7448 50.5705 30.7252Z" fill="white"/>
<path d="M59.7381 39.3608C59.7824 39.356 59.8267 39.3521 59.8712 39.3493C60.4658 39.3098 61.0355 39.5226 61.476 39.9312C61.9764 40.3953 62.2409 41.0526 62.2733 41.7359C62.3751 43.8886 60.5005 46.3318 59.1432 47.854C58.7238 48.3175 58.2988 48.8137 57.7952 49.1832C57.9989 48.0452 58.1605 46.8967 58.3466 45.7553C58.4728 44.9816 58.6517 44.1785 58.7079 43.3984C58.7396 42.9572 58.7178 42.5033 58.716 42.0609C58.7125 41.3015 58.7131 40.5421 58.7179 39.7827C59.0409 39.5755 59.3662 39.4445 59.7381 39.3608Z" fill="white"/>
<path d="M59.9311 37.3554C60.4239 37.3121 60.8863 37.3565 61.3589 37.5086C62.4778 37.8687 63.3256 38.6452 63.8579 39.7061C64.4948 40.9754 64.4506 42.4709 64.032 43.7993C63.0982 46.7653 60.787 49.5023 58.4008 51.3739C57.9469 51.73 57.4641 52.1256 56.9528 52.3927L56.9061 52.3698C57.081 51.665 57.3008 50.9684 57.4863 50.2656C57.8909 50.0193 58.2814 49.6383 58.6292 49.3135C60.2898 47.7627 61.6896 45.8972 62.5504 43.7644C62.9493 42.7758 63.0715 41.5215 62.6571 40.5164C62.6375 40.4701 62.6169 40.4242 62.5951 40.3789C62.5733 40.3336 62.5504 40.2889 62.5265 40.2447C62.5025 40.2005 62.4775 40.157 62.4514 40.1141C62.4254 40.0712 62.3983 40.029 62.3702 39.9875C62.342 39.9459 62.3129 39.9052 62.2828 39.8651C62.2527 39.825 62.2217 39.7858 62.1897 39.7473C62.1576 39.7088 62.1247 39.6712 62.0908 39.6344C62.057 39.5976 62.0223 39.5617 61.9867 39.5266C61.9512 39.4915 61.9147 39.4574 61.8775 39.4242C61.8402 39.391 61.8022 39.3587 61.7634 39.3275C61.7246 39.2962 61.685 39.2659 61.6448 39.2366C61.6044 39.2073 61.5635 39.1791 61.5218 39.1519C61.4802 39.1247 61.4379 39.0985 61.395 39.0735C61.352 39.0484 61.3085 39.0245 61.2644 39.0016C61.2203 38.9787 61.1757 38.957 61.1306 38.9364C61.0854 38.9158 61.0398 38.8964 60.9937 38.8781C60.1848 38.55 59.4867 38.69 58.7153 39.0341C58.6916 38.6045 58.7015 38.1693 58.7083 37.7393C59.0964 37.5284 59.4976 37.4175 59.9311 37.3554Z" fill="white"/>
<path d="M10.2656 32.0319C10.72 32.0182 11.1405 32.0658 11.5803 32.1834C11.7877 33.6047 11.8858 35.0508 12.0167 36.4814L12.4144 40.5733C12.554 42.0848 12.6749 43.6039 12.8565 45.1105C12.3708 44.6343 11.9024 44.1409 11.4512 43.6304C9.5761 41.515 7.60666 38.5763 7.39195 35.6454C7.32509 34.7326 7.51597 33.71 8.124 33.0049C8.68094 32.359 9.44104 32.0815 10.2656 32.0319Z" fill="white"/>
<path d="M9.69907 29.4746C10.2112 29.4 10.8278 29.4507 11.3291 29.5629C11.4123 30.1908 11.4678 30.8257 11.5368 31.4557C11.0506 31.3827 10.5607 31.3275 10.0692 31.3694C9.11447 31.4508 8.23866 31.8402 7.62064 32.6023C6.87812 33.518 6.66215 34.7031 6.76859 35.8618C7.04825 38.906 9.00153 41.7963 10.93 44.0235C11.5573 44.7481 12.2258 45.4814 12.9569 46.0979C13.084 46.9177 13.1231 47.758 13.2398 48.582C13.2334 48.6302 13.2418 48.6057 13.2078 48.6527C13.1724 48.638 13.1597 48.6345 13.1242 48.6097C13.0225 48.5385 12.9289 48.4334 12.8331 48.3525C12.4835 48.0571 12.1399 47.7546 11.8024 47.4449C8.78432 44.7032 5.31033 40.0581 4.91275 35.8077C4.76263 34.2029 5.08958 32.473 6.12551 31.2109C7.02744 30.112 8.32792 29.594 9.69907 29.4746Z" fill="white"/>
<path d="M29.9744 26.0524C30.0589 26.0506 30.109 26.0379 30.1838 26.0866C30.4182 26.2391 30.6377 26.5074 30.8363 26.7068C31.2525 27.1328 31.675 27.5523 32.1037 27.9652C32.0518 29.2416 31.8575 30.533 31.7273 31.8051L31.129 37.9976C30.9748 39.7524 30.8111 41.5064 30.6378 43.2594C30.5695 43.9249 30.5558 44.6277 30.4319 45.2825C30.365 45.6362 30.1057 45.9919 29.9336 46.3079C29.1138 46.5723 28.4917 46.9311 27.9721 47.6412C27.7434 47.9921 27.5131 48.6671 27.3125 48.8957C27.2499 48.967 27.2015 48.9872 27.1096 48.9889C27.1242 48.9178 27.1263 48.844 27.132 48.7716L27.0836 48.7607C27.1777 48.2283 27.1664 47.2782 27.1898 46.71C27.2552 45.1359 27.3102 43.5613 27.3548 41.9865L27.9305 28.1093C28.5678 27.3969 29.2781 26.7049 29.9744 26.0524Z" fill="white"/>
<path d="M43.0921 32.2454C45.641 33.2308 52.7665 33.104 55.5415 32.8014C56.3942 32.7084 57.2137 32.5498 58.0444 32.3339C58.0911 33.9775 58.0423 35.6248 58.0556 37.2691L58.0576 37.9093C53.0716 37.9888 48.0805 37.8712 43.0938 37.9201C43.0759 36.7698 43.0699 35.6194 43.0759 34.469C43.0769 33.7293 43.0608 32.9844 43.0921 32.2454Z" fill="white"/>
<path d="M19.7663 21.0532C19.7957 21.0698 19.8256 21.0859 19.8545 21.1033C20.4716 21.4746 21.0625 21.619 21.7665 21.4796C21.9132 21.7091 22.065 21.9353 22.2475 22.137C22.2866 22.1802 22.3268 22.2224 22.3679 22.2636C22.4091 22.3048 22.4513 22.3449 22.4945 22.384C22.5376 22.423 22.5817 22.4609 22.6267 22.4977C22.6717 22.5345 22.7176 22.5701 22.7644 22.6045C22.8111 22.6389 22.8587 22.6722 22.9071 22.7042C22.9554 22.7362 23.0046 22.7669 23.0545 22.7964C23.1044 22.8259 23.1549 22.8541 23.2062 22.881C23.2575 22.908 23.3094 22.9336 23.3619 22.9579C23.4145 22.9821 23.4676 23.005 23.5212 23.0266C23.5749 23.0481 23.629 23.0683 23.6836 23.0871C23.7383 23.1059 23.7934 23.1233 23.8489 23.1393C23.9043 23.1552 23.9601 23.1698 24.0164 23.1829C24.0726 23.196 24.1291 23.2077 24.1858 23.218C24.2426 23.2282 24.2996 23.237 24.3568 23.2443C24.4141 23.2516 24.4714 23.2575 24.5289 23.2619C24.5864 23.2663 24.6439 23.2692 24.7016 23.2707C25.6929 23.302 26.5672 22.8789 27.2804 22.1974C27.9276 22.5322 28.5618 22.7985 29.3013 22.7903C30.5229 22.7768 31.2158 22.2024 32.0284 21.3582C32.2955 21.403 32.5667 21.4003 32.8367 21.405C33.4572 22.6993 33.7508 24.0603 33.8148 25.4942C33.8648 26.6145 33.7221 27.744 33.6054 28.8558L33.176 32.7901L31.9518 44.3575C31.6479 44.4625 31.408 44.5974 31.1406 44.7788L32.7203 28.3471C32.7499 28.0107 32.778 27.8171 32.5471 27.5423C32.3488 27.3063 32.1007 27.0988 31.8843 26.8789C31.559 26.5485 30.9064 25.7968 30.5655 25.5707C30.4348 25.484 30.2724 25.4292 30.1168 25.4191C29.9221 25.4066 29.7451 25.4674 29.5813 25.5722C29.2908 25.7582 29.054 26.0389 28.8129 26.2852C28.4227 26.6839 28.0394 27.0963 27.6254 27.4693C27.2909 27.1306 26.9369 26.8112 26.6008 26.4736C26.331 26.2025 26.057 25.8622 25.7522 25.6361C25.597 25.521 25.4229 25.4416 25.2289 25.4348C25.0291 25.4277 24.8428 25.4964 24.6768 25.6064C24.382 25.8018 24.1359 26.1029 23.8838 26.3524L22.7005 27.5079C22.2743 27.1234 21.8706 26.696 21.4682 26.2851C21.2418 26.0541 21.0153 25.7901 20.7519 25.6031C20.5947 25.4914 20.4105 25.4044 20.2157 25.4034C20.0422 25.4025 19.8756 25.4626 19.7287 25.5537C19.2917 25.8245 18.1898 27.0306 17.743 27.4782C17.2974 27.0516 16.2714 25.8624 15.8448 25.6017C15.58 25.4399 15.3488 25.4207 15.0541 25.4937C14.9334 25.5424 14.829 25.6026 14.728 25.6864C14.4437 25.9221 12.8814 27.4911 12.7519 27.7562C12.7487 28.1829 12.8144 28.6239 12.8519 29.0495C12.9283 29.9181 13.0102 30.7862 13.0976 31.6537L13.7713 38.687L14.6042 47.3136L14.8895 50.2381C14.9392 50.7202 14.9661 51.2236 15.0557 51.6994C15.1361 52.126 15.3567 52.5539 15.6545 52.8638C15.903 53.1223 16.2374 53.3181 16.5822 53.4044C17.1789 53.5537 18.1271 53.4719 18.7532 53.4699C19.7956 53.4662 20.8379 53.469 21.8802 53.4783C21.9206 54.0455 22.1406 54.3505 22.5448 54.7105C20.9656 54.677 19.3818 54.7096 17.8022 54.716C17.1861 54.7185 15.8438 54.8094 15.3086 54.6424C14.963 54.5346 14.6438 54.2443 14.4778 53.9182C14.4505 53.8647 14.427 53.8095 14.4073 53.7526C14.3877 53.6957 14.3721 53.6376 14.3605 53.5784C14.3117 53.3258 14.3054 53.0512 14.2806 52.7946L14.1336 51.3341L13.6365 46.4164L12.1738 31.5052C12.0606 30.3545 11.9292 29.206 11.7795 28.0597C11.7058 27.4853 11.5746 26.8969 11.567 26.3178C11.5458 24.7009 11.919 23.0033 12.423 21.4793C13.0215 21.6072 13.6727 21.535 14.1926 21.1928C15.0528 21.9166 15.9955 22.4439 17.1433 22.3829C18.1624 22.3288 19.09 21.8213 19.7663 21.0532Z" fill="white"/>
<path d="M33.0124 44.8151C33.3137 44.8007 33.6129 44.8081 33.9109 44.8603C34.6238 44.9852 35.2602 45.3191 35.6867 45.9294C35.9003 45.9172 36.1113 45.9104 36.3218 45.9568C36.9115 46.0869 37.2108 46.4763 37.5205 46.9623C38.7102 46.9427 39.1674 48.1427 39.4227 49.1378C39.4768 49.3485 39.4784 49.6398 39.6519 49.7872C39.7283 49.793 39.7524 49.7942 39.8157 49.7398C40.1277 49.4719 39.6028 48.6718 39.6535 48.3572C39.6621 48.3527 39.6704 48.3474 39.6794 48.3436C39.7939 48.2952 39.917 48.3115 40.0261 48.3656C40.4863 48.5939 40.6849 49.1157 40.8364 49.5772C41.2429 49.6256 41.6491 49.6796 41.9574 49.9862C42.3236 50.3504 42.3586 50.8211 42.3742 51.3097C42.8987 51.4141 43.3549 51.4703 43.7912 51.8152C44.1465 52.0958 44.3044 52.428 44.3629 52.8723C44.4779 52.9421 44.5926 53.0148 44.6974 53.1001C44.8665 53.2375 45.0599 53.4498 45.0758 53.6799C45.0854 53.8187 45.025 53.9404 44.9352 54.0411C43.9328 55.1662 37.9202 55.3541 36.2664 55.4011C34.6363 55.4456 33.0062 55.4441 31.3761 55.3968C29.185 55.3353 26.958 55.2134 24.804 54.7817C24.3256 54.6859 23.814 54.5993 23.3623 54.4087C23.0474 54.2757 22.7073 54.0477 22.5794 53.7117C22.4942 53.4877 22.5546 53.2308 22.6552 53.0222C22.9292 52.4537 23.5841 52.2123 24.1301 52.0165C24.1735 51.7511 24.2264 51.5109 24.351 51.2709C24.8073 50.3926 25.9522 49.8937 26.8476 49.6688C27.0868 49.6087 27.3457 49.6088 27.5783 49.5307C27.9797 49.3958 28.0548 48.7615 28.22 48.4104C28.5003 47.8146 28.9901 47.3062 29.6082 47.0832C29.8389 47.0001 30.0817 46.9635 30.3128 46.8796L30.3462 46.8672C30.6228 46.471 30.7609 46.0026 31.0848 45.6317C31.5762 45.0689 32.2975 44.8589 33.0124 44.8151Z" fill="white"/>
<path d="M26.1273 50.2538C26.2131 50.2534 26.2521 50.2431 26.3264 50.2896L26.3258 50.3542C26.2407 50.4904 26.1199 50.5675 25.9731 50.6208C25.8846 50.6153 25.8374 50.6139 25.7601 50.5641C25.7448 50.5173 25.736 50.5246 25.7573 50.4852C25.83 50.3512 25.9953 50.3017 26.1273 50.2538Z" fill="white"/>
<path d="M40.9136 50.1083C40.9724 50.1155 41.0217 50.1208 41.0764 50.1467C41.1898 50.2006 41.2965 50.3337 41.3446 50.4489C41.4046 50.5928 41.3808 50.6564 41.3241 50.7935C41.2596 50.7986 41.2079 50.792 41.1478 50.7648C41.0335 50.7132 40.9436 50.6058 40.8987 50.4883C40.8427 50.3415 40.8498 50.249 40.9136 50.1083Z" fill="white"/>
<path d="M25.2003 51.5859C25.241 51.5876 25.2728 51.599 25.3115 51.6111C25.3748 51.6829 25.3852 51.6943 25.4024 51.7883C25.3407 52.0203 24.9357 52.153 24.7599 52.3087C24.4145 52.6147 24.3524 53.1303 24.0827 53.3669C23.9914 53.3411 23.9263 53.3153 23.886 53.2213C23.8484 53.1336 23.8712 53.0276 23.8983 52.9407C24.0949 52.3112 24.6447 51.8641 25.2003 51.5859Z" fill="white"/>
<path d="M31.0617 47.4003C31.2104 47.3857 31.3674 47.3726 31.4991 47.4621C31.5657 47.5073 31.5739 47.5187 31.5834 47.5933C31.4493 47.8398 31.0305 47.7906 30.7781 47.8686C30.1895 48.0505 29.853 48.4521 29.5748 48.9896C29.559 49.0145 29.5551 49.0237 29.5298 49.045C29.4648 49.0995 29.4104 49.1241 29.3315 49.1064C29.2926 49.0624 29.256 49.0257 29.2444 48.9649C29.1997 48.7294 29.3868 48.4356 29.5211 48.2587C29.9218 47.7308 30.4214 47.4805 31.0617 47.4003Z" fill="white"/>
<path d="M33.061 45.1475C33.1615 45.1398 33.2614 45.1353 33.3621 45.1388C33.6174 45.1477 34.2393 45.2067 34.3958 45.4347C34.4421 45.5023 34.426 45.5454 34.4134 45.6197C34.3556 45.69 34.3285 45.7335 34.2287 45.7289C34.067 45.7213 33.9019 45.639 33.7472 45.5929C33.2553 45.4463 32.7797 45.546 32.3265 45.7659C32.1276 45.883 32.0091 46.0252 31.8512 46.1866C31.7437 46.2966 31.6386 46.4151 31.4765 46.4144C31.4076 46.3779 31.401 46.37 31.3613 46.3016C31.3645 46.1746 31.4161 46.0867 31.4909 45.9869C31.8753 45.4746 32.4487 45.2252 33.061 45.1475Z" fill="white"/>
<path d="M31.3742 49.9857C31.699 49.9503 32.0799 50.0074 32.3444 50.212C32.3666 50.229 32.3878 50.2472 32.4081 50.2665C32.4285 50.2858 32.4477 50.3062 32.4659 50.3276C32.4841 50.3489 32.5012 50.3712 32.5171 50.3945C32.533 50.4177 32.5476 50.4417 32.561 50.4665C32.5744 50.4914 32.5865 50.5168 32.5972 50.5429C32.608 50.5691 32.6174 50.5957 32.6254 50.6228C32.6334 50.6499 32.6399 50.6774 32.6451 50.7053C32.6503 50.7331 32.654 50.7612 32.6562 50.7894C32.676 51.0294 32.5855 51.2545 32.4322 51.4336C32.1308 51.7854 31.6669 51.9278 31.226 51.9683C30.9049 51.9823 30.5662 51.9434 30.2916 51.7588C30.1167 51.6412 29.9879 51.4731 29.9513 51.2596C29.9112 51.0255 29.9921 50.7931 30.1309 50.6078C30.4294 50.2097 30.9096 50.0563 31.3742 49.9857Z" fill="white"/>
<path d="M31.3263 50.5609C31.5031 50.5477 31.7142 50.5394 31.8857 50.5934C31.991 50.6265 32.0511 50.6731 32.1059 50.7729C32.1151 50.8458 32.1166 50.8946 32.0799 50.9607C31.9407 51.2113 31.5786 51.31 31.3221 51.3709C31.1168 51.3983 30.9028 51.4178 30.7023 51.3482C30.6102 51.3162 30.5545 51.273 30.5087 51.1833C30.4991 51.1128 30.5003 51.0646 30.5347 51.0002C30.6785 50.7311 31.0561 50.6322 31.3263 50.5609Z" fill="white"/>
<path d="M33.0476 51.9318C33.5689 51.8905 34.0462 52.0431 34.4734 52.3483C34.7752 52.5638 35.039 52.8843 35.0978 53.2652C35.1228 53.4271 35.1009 53.5865 34.9999 53.7181C34.8368 53.9306 34.5632 54.0041 34.314 54.038C33.8985 54.054 33.5289 54.0057 33.1551 53.8098C32.7808 53.6137 32.4328 53.2848 32.3113 52.863C32.2638 52.698 32.2661 52.5281 32.3516 52.3762C32.4948 52.1217 32.7833 52.0023 33.0476 51.9318Z" fill="white"/>
<path d="M32.9533 52.5074L32.9937 52.5043C33.4954 52.4683 33.9627 52.6142 34.3382 52.9624C34.4212 53.0394 34.5551 53.1859 34.5407 53.3103C34.5297 53.4058 34.5009 53.4208 34.4307 53.4727C33.9054 53.4988 33.3527 53.3749 32.9589 52.9903C32.8799 52.9131 32.81 52.8111 32.8233 52.6935C32.8339 52.5989 32.89 52.566 32.9533 52.5074Z" fill="white"/>
<path d="M39.4908 51.8078C39.8921 51.7643 40.262 51.8256 40.6225 52.0125C41.0447 52.2314 41.4803 52.6086 41.6192 53.0858C41.6709 53.2634 41.6737 53.4515 41.5782 53.6146C41.4483 53.8366 41.2283 53.9201 40.9983 53.984C40.5278 54.0231 40.0944 53.9591 39.6764 53.7244C39.3008 53.5136 38.9869 53.1757 38.8719 52.746C38.8205 52.554 38.8135 52.3448 38.9169 52.1691C39.0475 51.9473 39.2557 51.8633 39.4908 51.8078Z" fill="white"/>
<path d="M39.4354 52.387C39.6919 52.3652 39.9106 52.3673 40.1588 52.4469C40.4596 52.5432 40.8537 52.7697 40.9955 53.0681C41.0554 53.1943 41.0634 53.2705 41.0222 53.4014C40.9522 53.4121 40.8818 53.4184 40.811 53.4203C40.7402 53.4222 40.6696 53.4197 40.5991 53.4127C40.5287 53.4057 40.4589 53.3944 40.3898 53.3786C40.3207 53.3629 40.2528 53.343 40.1861 53.3187C39.9158 53.2227 39.5701 53.0376 39.4484 52.7625C39.3905 52.6315 39.3856 52.52 39.4354 52.387Z" fill="white"/>
<path d="M36.0672 49.8315C36.5066 49.8082 36.8846 49.8354 37.2934 50.0167C37.6735 50.1851 38.0609 50.488 38.2088 50.8952C38.264 51.0469 38.2706 51.2076 38.1968 51.3543C38.0571 51.6321 37.7746 51.7471 37.4995 51.8297C37.4364 51.8422 37.373 51.852 37.3091 51.8591C37.2452 51.8662 37.1812 51.8706 37.1169 51.8723C37.0527 51.8741 36.9885 51.8731 36.9244 51.8694C36.8603 51.8656 36.7964 51.8592 36.7327 51.8501C36.6691 51.841 36.6059 51.8292 36.5433 51.8148C36.4806 51.8004 36.4186 51.7833 36.3574 51.7636C36.2961 51.744 36.2357 51.7217 36.1761 51.697C36.1167 51.6722 36.0583 51.6449 36.001 51.6152C35.698 51.4554 35.4146 51.2099 35.3147 50.8654C35.2568 50.6654 35.2599 50.4437 35.3692 50.2622C35.5231 50.0069 35.7922 49.8897 36.0672 49.8315Z" fill="white"/>
<path d="M36.1288 50.3756C36.2979 50.364 36.4642 50.3581 36.6311 50.394C36.9151 50.455 37.4905 50.6764 37.6234 50.9569C37.6598 51.0338 37.6412 51.0632 37.6134 51.136C37.5276 51.2203 37.4459 51.2442 37.3336 51.2797C37.0673 51.3283 36.7757 51.2932 36.5175 51.2135C36.3088 51.1492 35.8994 50.9596 35.8186 50.7404C35.8019 50.6952 35.8006 50.6503 35.8202 50.6069C35.8798 50.4744 36.0038 50.4259 36.1288 50.3756Z" fill="white"/>
<path d="M33.5662 46.8817C34.1336 46.8627 34.7223 47.007 35.1693 47.3792C35.4467 47.6102 35.685 47.9467 35.7102 48.3209C35.7215 48.4877 35.6811 48.6484 35.5694 48.774C35.4034 48.9606 35.1479 49.0245 34.912 49.035C34.3369 49.0434 33.8055 48.9098 33.3181 48.5871C33.0284 48.3954 32.7561 48.1183 32.6902 47.7599C32.6581 47.5858 32.68 47.4108 32.7884 47.2677C32.9767 47.0189 33.2744 46.9216 33.5662 46.8817Z" fill="white"/>
<path d="M33.4306 47.4893C33.5773 47.476 33.7207 47.4671 33.8677 47.4806C34.2542 47.5161 34.761 47.6674 35.0106 47.9879C35.0964 48.098 35.1455 48.2328 35.1305 48.3737C35.0832 48.444 35.0079 48.4548 34.9321 48.478C34.906 48.4793 34.8799 48.4802 34.8539 48.4808C34.3817 48.4902 33.6121 48.1849 33.2888 47.8275C33.2309 47.7635 33.2254 47.7296 33.227 47.645C33.2806 47.5499 33.3366 47.5297 33.4306 47.4893Z" fill="white"/>
<path d="M27.6251 51.7841C27.9763 51.7496 28.4151 51.784 28.7031 52.0122C28.8486 52.1275 28.9339 52.2935 28.9506 52.4799C28.9742 52.7449 28.8579 52.9951 28.6914 53.192C28.3208 53.6302 27.6858 53.8584 27.135 53.9073C26.7637 53.9101 26.3561 53.8583 26.0402 53.6439C25.8698 53.5283 25.7397 53.3621 25.7075 53.1519C25.6719 52.919 25.7539 52.686 25.8949 52.5045C26.2972 51.9866 27.0187 51.8452 27.6251 51.7841Z" fill="white"/>
<path d="M27.7057 52.3626C27.8734 52.3471 28.0921 52.3632 28.2548 52.4056C28.3249 52.4239 28.3823 52.4505 28.4195 52.5167C28.4174 52.6221 28.3936 52.6783 28.3227 52.7562C27.9998 53.1119 27.4584 53.2743 26.9983 53.3033C26.7963 53.3051 26.5647 53.2935 26.3873 53.1842C26.3038 53.1328 26.2555 53.0801 26.2339 52.9813C26.2483 52.923 26.2599 52.8902 26.3009 52.8447C26.5667 52.5493 27.3276 52.3931 27.7057 52.3626Z" fill="white"/>
<path d="M28.2008 54.0284C28.8399 54.0697 29.4762 54.1417 30.1163 54.1778C31.7953 54.2731 33.4753 54.3028 35.1564 54.2668C35.9601 54.2528 36.7662 54.241 37.5688 54.1922C37.987 54.1668 38.7359 54.0452 39.1134 54.0974C39.1812 54.1067 39.2246 54.1418 39.2754 54.1854C39.3038 54.2425 39.3127 54.2696 39.3078 54.3356C39.2977 54.4695 39.2188 54.5423 39.1246 54.6224C37.9488 54.7262 36.7712 54.7958 35.5915 54.831C34.4119 54.8663 33.2322 54.8671 32.0526 54.8337C31.1975 54.8022 30.3433 54.7553 29.4898 54.693C29.1285 54.6653 28.7258 54.6608 28.3725 54.578C28.2542 54.5502 28.0732 54.502 27.9988 54.3933C27.9805 54.3666 27.964 54.3219 27.9718 54.2884C27.9968 54.1811 28.1151 54.0864 28.2008 54.0284Z" fill="white"/>
<path d="M25.3498 13.222C26.4318 13.1102 27.5792 13.7152 28.2993 14.5052C28.4943 14.7192 28.635 15.0471 28.867 15.2161C29.0832 15.3737 29.418 15.3914 29.6703 15.4796C29.8495 15.5423 30.0197 15.6458 30.1755 15.7546C30.3406 15.8699 30.7744 16.3467 30.8879 16.3887C31.0881 16.4626 31.6751 16.1084 31.9094 16.0529C32.3133 15.9572 32.7216 15.9601 33.1197 16.0843C33.1587 16.0963 33.1975 16.1094 33.2359 16.1233C33.2743 16.1373 33.3124 16.1522 33.3501 16.1681C33.3878 16.184 33.4251 16.2008 33.462 16.2186C33.4989 16.2364 33.5353 16.255 33.5713 16.2746C33.6073 16.2942 33.6428 16.3147 33.6778 16.3361C33.7128 16.3574 33.7473 16.3797 33.7812 16.4028C33.8152 16.4259 33.8485 16.4499 33.8813 16.4747C33.9141 16.4995 33.9462 16.5251 33.9778 16.5514C34.0093 16.5778 34.0402 16.605 34.0705 16.6329C34.1007 16.6609 34.1302 16.6896 34.1591 16.7191C34.188 16.7485 34.2161 16.7786 34.2435 16.8095C34.2709 16.8403 34.2975 16.8718 34.3234 16.904C34.3493 16.9362 34.3744 16.969 34.3987 17.0025C34.423 17.0359 34.4464 17.07 34.4691 17.1046C34.4918 17.1392 34.5136 17.1744 34.5345 17.2101C34.5555 17.2458 34.5756 17.2821 34.5948 17.3188C34.8883 17.8884 34.9726 18.5876 34.7816 19.2053C34.7708 19.2401 34.7591 19.2746 34.7466 19.3088C34.7341 19.343 34.7208 19.3768 34.7067 19.4104C34.6925 19.4439 34.6775 19.477 34.6618 19.5098C34.646 19.5426 34.6294 19.5749 34.6121 19.6069C34.5948 19.6388 34.5767 19.6702 34.5578 19.7012C34.5389 19.7322 34.5193 19.7627 34.499 19.7928C34.4786 19.8228 34.4576 19.8522 34.4358 19.8811C34.414 19.9101 34.3915 19.9385 34.3683 19.9663C34.3452 19.9941 34.3213 20.0213 34.2968 20.0479C34.2723 20.0745 34.2472 20.1004 34.2215 20.1257C34.1957 20.1511 34.1694 20.1757 34.1425 20.1997C34.1155 20.2237 34.088 20.247 34.0599 20.2696C34.0318 20.2922 34.0032 20.3141 33.974 20.3352C33.9449 20.3563 33.9152 20.3767 33.8851 20.3963C33.855 20.416 33.8244 20.4348 33.7933 20.4529C33.7622 20.471 33.7307 20.4883 33.6989 20.5048C33.3434 20.6918 32.7224 20.8617 32.3332 20.7363C32.3264 20.5932 32.3267 20.4765 32.2509 20.3516C32.1879 20.3144 32.1651 20.2954 32.0895 20.3023C31.8128 20.3276 31.5072 20.9913 31.3019 21.219C30.5528 22.0503 29.3794 22.3939 28.3302 22.0035C27.9893 21.8766 27.7152 21.6656 27.3966 21.4993C27.3407 21.4702 27.2332 21.4196 27.1703 21.4432C27.0391 21.4923 26.8852 21.6839 26.7834 21.7818C26.2535 22.2909 25.6232 22.614 24.8862 22.6398C24.8589 22.6407 24.8316 22.6411 24.8043 22.6412C24.7769 22.6413 24.7496 22.641 24.7223 22.6402C24.695 22.6395 24.6677 22.6384 24.6404 22.6368C24.6131 22.6353 24.5859 22.6334 24.5586 22.631C24.5314 22.6286 24.5042 22.6259 24.4771 22.6227C24.45 22.6196 24.4229 22.616 24.3958 22.6121C24.3688 22.6081 24.3418 22.6038 24.3149 22.599C24.2879 22.5943 24.2611 22.5891 24.2343 22.5836C24.2075 22.578 24.1808 22.5721 24.1542 22.5657C24.1276 22.5594 24.1011 22.5527 24.0747 22.5455C24.0483 22.5384 24.022 22.5309 23.9958 22.523C23.9696 22.5151 23.9435 22.5068 23.9175 22.4981C23.8915 22.4895 23.8657 22.4804 23.84 22.471C23.8143 22.4615 23.7887 22.4517 23.7633 22.4415C23.7379 22.4313 23.7126 22.4207 23.6874 22.4098C23.6623 22.3989 23.6374 22.3876 23.6126 22.3759C23.5877 22.3642 23.5631 22.3521 23.5386 22.3397C23.5142 22.3273 23.4899 22.3145 23.4657 22.3014C23.4417 22.2883 23.4177 22.2748 23.394 22.261C23.3703 22.2471 23.3468 22.2329 23.3235 22.2184C23.3002 22.2038 23.2771 22.1889 23.2542 22.1737C23.2313 22.1585 23.2086 22.143 23.1861 22.1271C23.1637 22.1112 23.1415 22.095 23.1195 22.0784C23.0975 22.0618 23.0757 22.045 23.0542 22.0278C23.0327 22.0106 23.0114 21.9931 22.9904 21.9753C22.9694 21.9575 22.9486 21.9393 22.9282 21.9209C22.9077 21.9024 22.8874 21.8837 22.8675 21.8647C22.8475 21.8456 22.8278 21.8263 22.8084 21.8067C22.7889 21.7871 22.7698 21.7672 22.751 21.7469C22.7321 21.7268 22.7135 21.7063 22.6953 21.6856C22.677 21.6649 22.659 21.6438 22.6414 21.6226C22.6237 21.6013 22.6063 21.5798 22.5892 21.558C22.397 21.3134 22.2502 21.008 22.021 20.7987C22.013 20.7913 22.0046 20.7844 21.9964 20.7773C21.5675 20.8281 21.2354 20.9764 20.7917 20.8579C20.6101 20.8095 20.2488 20.6929 20.1543 20.5283C20.1557 20.4232 20.1873 20.3663 20.2382 20.2756C20.2644 20.229 20.2572 20.2129 20.2565 20.1604C20.2056 20.0633 20.1462 20.0207 20.0584 19.9577L20.0241 19.9334C19.9074 19.937 19.8296 19.944 19.7346 20.0241C19.6066 20.132 19.4912 20.3504 19.3897 20.4905C19.3472 20.5488 19.3027 20.6055 19.2564 20.6607C19.21 20.7158 19.1619 20.7693 19.1119 20.8211C19.0619 20.8728 19.0103 20.9228 18.9569 20.9709C18.9035 21.019 18.8486 21.0651 18.7921 21.1094C18.7356 21.1536 18.6777 21.1958 18.6184 21.236C18.559 21.2761 18.4984 21.3141 18.4364 21.35C18.3745 21.3859 18.3115 21.4195 18.2473 21.4509C18.1831 21.4823 18.1179 21.5115 18.0517 21.5383C18.0207 21.5504 17.9896 21.562 17.9582 21.5732C17.9269 21.5842 17.8954 21.5948 17.8637 21.6049C17.832 21.615 17.8002 21.6245 17.7683 21.6335C17.7363 21.6426 17.7042 21.651 17.672 21.659C17.6397 21.667 17.6074 21.6744 17.5749 21.6813C17.5424 21.6882 17.5098 21.6945 17.4772 21.7004C17.4445 21.7062 17.4117 21.7115 17.3789 21.7162C17.346 21.721 17.3131 21.7252 17.2801 21.7288C17.2471 21.7325 17.2141 21.7356 17.181 21.7381C17.148 21.7407 17.1149 21.7427 17.0817 21.7441C17.0486 21.7456 17.0154 21.7465 16.9823 21.7469C16.9491 21.7473 16.9159 21.7472 16.8828 21.7465C16.8496 21.7457 16.8165 21.7445 16.7834 21.7426C16.7502 21.7408 16.7171 21.7385 16.6841 21.7356C16.651 21.7327 16.618 21.7293 16.5851 21.7253C16.5521 21.7213 16.5193 21.7167 16.4865 21.7116C16.4537 21.7066 16.421 21.701 16.3884 21.6948C16.3557 21.6887 16.3232 21.682 16.2908 21.6748C16.2584 21.6675 16.2261 21.6598 16.194 21.6515C16.1618 21.6432 16.1298 21.6344 16.0979 21.6251C16.066 21.6157 16.0343 21.6058 16.0027 21.5954C15.9711 21.585 15.9397 21.5742 15.9085 21.5627C15.8773 21.5513 15.8463 21.5394 15.8154 21.527C15.7846 21.5145 15.7539 21.5015 15.7235 21.4881C15.693 21.4746 15.6628 21.4607 15.6329 21.4462C15.6028 21.4317 15.5731 21.4168 15.5435 21.4014C15.514 21.3859 15.4848 21.37 15.4558 21.3536C15.4267 21.3372 15.398 21.3203 15.3695 21.3029C15.341 21.2856 15.3128 21.2678 15.2849 21.2495C15.2569 21.2312 15.2293 21.2125 15.202 21.1933C15.1747 21.1741 15.1476 21.1545 15.1209 21.1344C15.0942 21.1143 15.0678 21.0938 15.0418 21.0728C14.8315 20.9034 14.6023 20.5896 14.3509 20.4949C14.1268 20.4104 13.8085 20.6676 13.606 20.7649C13.2203 20.9503 12.7844 20.9504 12.3869 20.8062C12.351 20.7933 12.3153 20.7794 12.28 20.7647C12.2447 20.75 12.2097 20.7344 12.1752 20.718C12.1407 20.7015 12.1065 20.6842 12.0728 20.666C12.0391 20.6478 12.0059 20.6287 11.9731 20.6088C11.9403 20.589 11.908 20.5683 11.8762 20.5468C11.8444 20.5253 11.8131 20.503 11.7824 20.4799C11.7517 20.4568 11.7216 20.4329 11.692 20.4083C11.6625 20.3837 11.6335 20.3584 11.6052 20.3323C11.5769 20.3062 11.5492 20.2795 11.5222 20.252C11.4952 20.2246 11.4688 20.1964 11.4431 20.1676C11.4174 20.1388 11.3925 20.1094 11.3682 20.0793C11.344 20.0493 11.3205 20.0187 11.2977 19.9874C11.275 19.9562 11.253 19.9244 11.2318 19.892C11.2106 19.8597 11.1902 19.8268 11.1706 19.7934C11.1509 19.76 11.1321 19.7262 11.1141 19.6918C11.0961 19.6575 11.079 19.6227 11.0627 19.5876C11.0454 19.5495 11.0291 19.5109 11.0137 19.472C10.9983 19.433 10.9838 19.3938 10.9703 19.3541C10.9568 19.3145 10.9442 19.2745 10.9326 19.2342C10.921 19.1939 10.9103 19.1534 10.9007 19.1126C10.891 19.0717 10.8823 19.0307 10.8745 18.9895C10.8668 18.9483 10.8601 18.9068 10.8543 18.8652C10.8486 18.8237 10.8439 18.782 10.8401 18.7402C10.8364 18.6984 10.8336 18.6565 10.8319 18.6145C10.8301 18.5726 10.8294 18.5306 10.8296 18.4886C10.8299 18.4466 10.8311 18.4047 10.8334 18.3627C10.8357 18.3208 10.8389 18.279 10.8432 18.2372C10.8474 18.1954 10.8527 18.1538 10.859 18.1123C10.8652 18.0708 10.8725 18.0295 10.8807 17.9883C10.8889 17.9472 10.8981 17.9063 10.9082 17.8656C10.9184 17.8249 10.9296 17.7845 10.9417 17.7444C10.9538 17.7043 10.9669 17.6645 10.9809 17.625C11.1991 17.0015 11.6551 16.5252 12.2392 16.2461C12.92 15.9209 13.6849 15.9201 14.3862 16.1754C14.2611 16.4179 14.1026 16.798 14.1233 17.0741C14.1297 17.1601 14.1608 17.2268 14.2301 17.2798C14.3015 17.3344 14.4005 17.3659 14.4893 17.3458C14.7196 17.2937 14.9005 16.5304 15.1135 16.2725C15.4575 15.856 15.8341 15.8026 16.3275 15.7578C16.404 15.7509 16.5133 15.739 16.5788 15.6967C16.7303 15.5991 16.8294 15.1865 16.9213 15.0243C17.0199 14.8508 17.1334 14.6881 17.2618 14.5362C18.3243 13.2769 20.1009 12.9618 21.5731 13.5843C21.8166 13.6873 22.0786 13.8169 22.2929 13.9731C22.4262 14.0703 22.544 14.188 22.6882 14.2698C22.736 14.297 22.8002 14.3234 22.8557 14.3147C23.0848 14.2789 23.5876 13.7887 23.8403 13.6429C24.2811 13.3887 24.8486 13.2606 25.3498 13.222Z" fill="white"/>
<path d="M23.4597 15.0787C24.1503 15.0916 24.7901 15.266 25.3527 15.6865C25.7194 15.9607 26.2729 16.5303 26.3307 17.01C26.3414 17.0988 26.3283 17.195 26.2665 17.2633C26.1779 17.3612 26.0529 17.3636 25.9323 17.3701C25.7888 17.2594 25.711 17.0966 25.6169 16.9431C25.3212 16.4614 24.9482 16.0587 24.4105 15.8624C23.9905 15.7092 23.5258 15.7962 23.1188 15.6549C23.0657 15.6048 23.0113 15.5388 22.9937 15.4646C22.9744 15.3831 22.9887 15.3224 23.0361 15.2547C23.1394 15.1072 23.2981 15.093 23.4597 15.0787Z" fill="white"/>
<path d="M43.0912 38.5721L58.0491 38.564L58.0495 41.5739C58.0516 42.1455 58.082 42.732 58.0429 43.3017C58.0194 43.6422 57.9423 43.9856 57.8881 44.3226L57.6654 45.7757C57.4999 46.7911 57.3462 47.8158 57.1353 48.8223C56.9219 49.8066 56.6773 50.7828 56.4017 51.7509C56.1261 52.719 55.8199 53.6769 55.4833 54.6247C55.2866 55.1368 55.1111 55.6878 54.8655 56.1762C54.7118 56.4821 54.4926 56.7357 54.1609 56.8366C53.8396 56.9345 51.5387 56.8799 51.0116 56.8807L48.5515 56.8839C48.073 56.8844 47.5883 56.8998 47.1105 56.875C46.9271 56.8656 46.6629 56.8458 46.5033 56.7518C45.9783 56.4429 45.5365 55.1239 45.367 54.5374C45.5556 54.305 45.6981 54.0495 45.7005 53.7382C45.7044 53.2256 45.4732 52.9391 45.1385 52.5974C44.6349 52.0832 44.4609 51.1448 44.2794 50.4653C43.1811 46.354 43.0834 42.7835 43.0912 38.5721Z" fill="white"/>
<path d="M23.0702 28.0787C23.4031 27.7288 24.8972 26.1522 25.1923 26.0544C25.5246 26.1553 26.9249 27.6947 27.2729 28.0503C27.2772 28.9753 27.2127 29.9044 27.1748 30.8287C27.1172 32.4649 27.0502 34.1006 26.974 35.736L26.4339 49.1677C25.9917 49.2781 25.5721 49.428 25.1703 49.6482C24.3535 50.0957 23.8965 50.5691 23.6301 51.4805C22.9182 51.7656 22.3752 52.0771 22.012 52.79C21.1159 52.7795 20.2198 52.7767 19.3236 52.7815C18.6874 52.776 17.3423 52.8649 16.7971 52.756C16.7439 52.7459 16.6916 52.7326 16.6401 52.7159C16.5885 52.6992 16.5382 52.6794 16.489 52.6565C16.4398 52.6335 16.3922 52.6076 16.3462 52.5786C16.3002 52.5498 16.256 52.5181 16.2138 52.4836C15.9724 52.2859 15.7752 51.9557 15.7049 51.6485C15.581 51.1069 15.5452 50.1578 15.4854 49.5547L15.0617 45.4334L14.014 34.5355C13.811 32.3492 13.6409 30.155 13.3862 27.9743C13.6894 27.6495 15.0326 26.1313 15.3547 26.0621C15.6692 26.1626 17.0936 27.7356 17.4376 28.0704C17.5323 28.7385 17.5286 29.4543 17.566 30.1292L17.7862 34.4599L18.4786 48.5469C18.5061 49.0514 18.5478 51.3243 18.6921 51.6172C18.7362 51.7068 18.7851 51.7505 18.8808 51.7794C18.996 51.7688 19.0875 51.7515 19.1677 51.6587C19.2337 51.5822 19.2392 51.482 19.2426 51.3848C19.2554 51.0256 19.2105 50.6506 19.194 50.2902L19.1029 48.348L18.8276 42.9646C18.6047 37.9935 18.3562 33.0237 18.0821 28.0552C18.4779 27.6414 19.7426 26.2433 20.1382 26.0209C20.202 26.0283 20.2635 26.0401 20.3189 26.0749C20.5498 26.2202 20.7748 26.4864 20.9708 26.6798C21.4529 27.1558 21.9213 27.6574 22.429 28.1048C22.4595 28.846 22.4374 29.5971 22.4377 30.3393L22.4386 34.4372L22.4413 46.7652C22.4414 47.3644 22.368 51.1819 22.4962 51.5163C22.5275 51.5978 22.5849 51.6953 22.6706 51.7247C22.7505 51.752 22.8115 51.7238 22.8842 51.6939L22.8638 51.6762L22.9051 51.6817L22.8853 51.6528L22.938 51.659C22.9618 51.6376 22.9857 51.6163 23.0081 51.5934C23.0475 51.5535 23.0734 51.5267 23.0902 51.4699C23.1542 51.2527 23.0898 50.219 23.0879 49.933L23.0866 46.9777L23.0702 28.0787Z" fill="white"/>
</svg>
