<svg width="66" height="66" viewBox="0 0 66 66" fill="none" xmlns="http://www.w3.org/2000/svg">
<g clip-path="url(#clip0_107_4627)">
<path d="M0 0H66V66H0V0Z" fill="#1C1C1C"/>
<path d="M40.86 1.65161C41.246 1.61245 41.6256 1.67067 41.9588 1.87969C42.4183 2.16802 42.6736 2.69062 42.788 3.20595C43.1407 4.79553 42.439 6.65466 41.6447 8.01733C41.3185 8.57684 40.9331 9.10162 40.5843 9.64741C41.731 10.7559 42.5956 12.0509 43.0605 13.5878C43.9494 16.5258 43.3468 19.8951 42.679 22.8157C42.3771 24.1358 42.0313 25.4612 41.5766 26.7378C41.2263 27.7168 40.8196 28.6718 40.3567 29.6029C39.4526 31.4449 38.377 33.2096 37.3355 34.9765C36.9579 35.6171 36.5593 36.2453 36.2089 36.9015C37.0017 36.3416 37.8317 35.498 38.2942 34.6425C38.6665 33.9541 38.9065 33.3145 39.3646 32.6569C39.8815 31.9147 40.482 31.2359 41.118 30.5946C41.8042 29.9028 42.6575 29.2524 43.1225 28.3817C43.6391 27.4146 43.5282 26.2848 43.9049 25.2756C44.3174 24.1703 45.3564 23.6062 45.8056 22.6028C46.1754 21.7768 46.1416 20.781 46.3104 19.8984C46.7303 17.7024 48.3857 15.4448 49.9603 13.8915C51.0514 12.8151 52.6484 11.9532 54.2153 11.9633C54.2489 11.735 54.2764 11.4962 54.3482 11.2761C54.6294 10.4138 55.6825 10.2309 56.1666 9.50439C56.5127 8.98496 56.587 8.32515 57.2094 8.02919C57.6806 7.80515 58.3978 7.84227 58.8795 8.01874C59.3945 8.20733 59.7674 8.58232 59.9939 9.07636C60.5607 10.3126 60.4927 12.0041 60.0216 13.2568L60.1101 13.3277C62.0254 14.8767 62.7991 17.2211 63.0492 19.5902C63.4215 23.1163 62.8576 26.5915 61.9978 30.0038C61.8279 30.6779 61.7333 31.3526 61.6011 32.0331C61.4757 32.6773 61.3178 33.3133 61.1273 33.9413C60.2336 36.9768 58.7194 39.9448 57.0655 42.6339C56.4993 43.5545 55.8661 44.4318 55.3005 45.3513C55.0348 45.7832 54.7828 46.2373 54.5697 46.6975C54.3037 47.2722 54.0927 47.8861 53.7135 48.3993C53.1974 49.0978 52.375 49.4825 51.7426 50.0577C51.2424 50.5128 50.8675 51.1016 50.4437 51.6262C49.0014 53.384 47.3709 54.8964 45.5801 56.2957C42.368 58.8059 38.6125 61.0466 34.7694 62.4312C33.3993 62.9248 32.004 63.2885 30.5932 63.6415C28.7552 64.1015 26.9989 64.5208 25.0866 64.2801C23.7876 64.1164 21.9101 63.6336 20.8399 62.8929C20.2554 62.4883 19.7559 61.968 19.234 61.4881C18.6027 60.9075 17.9731 60.3319 17.4496 59.6483C16.2861 58.1291 15.9338 56.1768 16.1864 54.3091C14.4219 54.7254 12.7003 55.0661 10.8833 54.7638C9.91585 54.6028 8.50536 54.1708 7.6897 53.6202C7.35519 53.3944 7.10673 53.0716 6.75514 52.8607C6.19116 52.5225 5.55701 52.3774 5.15893 51.8111C4.69638 51.153 4.57309 50.316 4.25223 49.5923C3.98812 48.9967 3.57431 48.4829 3.30196 47.8903C2.56347 46.2835 2.59054 44.2271 2.88766 42.5059C3.88507 36.7278 8.9109 31.27 13.4331 27.8447C15.6994 26.1282 18.1968 24.631 19.9004 22.2983C20.8028 21.0629 21.3962 19.6675 21.9453 18.2484C23.6404 13.8681 24.4339 10.5757 28.4803 7.72838C28.5339 7.69005 28.5879 7.65239 28.6424 7.6154C28.6969 7.5784 28.7518 7.54207 28.8071 7.50641C28.8625 7.47074 28.9183 7.43579 28.9746 7.40154C29.0308 7.36725 29.0874 7.33367 29.1445 7.3008C29.2015 7.26793 29.259 7.23577 29.3168 7.20431C29.3747 7.17282 29.4329 7.14207 29.4916 7.11208C29.5502 7.08205 29.6091 7.05274 29.6685 7.02417C29.7278 6.99559 29.7874 6.96775 29.8475 6.94064C29.9075 6.91352 29.9678 6.88716 30.0285 6.86155C30.0892 6.83594 30.1502 6.81106 30.2114 6.78692C30.2727 6.76281 30.3343 6.73946 30.3961 6.71686C30.458 6.69425 30.5201 6.67243 30.5825 6.65137C30.6449 6.63032 30.7075 6.61001 30.7704 6.59046C30.8333 6.57096 30.8964 6.55222 30.9598 6.53426C31.0231 6.51626 31.0867 6.49907 31.1504 6.4827C31.2143 6.46628 31.2782 6.45066 31.3424 6.43581C31.4065 6.42099 31.4709 6.40695 31.5354 6.39371C31.5999 6.38046 31.6645 6.36801 31.7294 6.35636C31.7942 6.34471 31.8591 6.33386 31.9242 6.32381C31.9893 6.31375 32.0544 6.3045 32.1198 6.29606C32.1851 6.28761 32.2505 6.27997 32.316 6.27314C32.3815 6.2663 32.4471 6.26028 32.5127 6.25506C32.5783 6.24984 32.644 6.24543 32.7098 6.24183C32.7756 6.23823 32.8414 6.23544 32.9072 6.23346C32.973 6.23148 33.0388 6.23031 33.1047 6.22996C33.1705 6.2296 33.2364 6.23005 33.3022 6.23132C33.3681 6.23258 33.4339 6.23466 33.4997 6.23754C33.5655 6.24043 33.6312 6.24412 33.6969 6.24863C33.7626 6.25313 33.8283 6.25845 33.8938 6.26457C33.9594 6.27069 34.0249 6.27762 34.0903 6.28536C34.1557 6.29309 34.221 6.30163 34.2862 6.31098C34.3513 6.32032 34.4164 6.33046 34.4813 6.34141C34.6301 6.07871 34.7785 5.83442 34.9964 5.62227C35.9416 4.70158 37.4933 4.92916 38.6927 3.75961C39.0658 3.39587 39.2654 2.94574 39.5547 2.52244C39.8773 2.05061 40.2945 1.76214 40.86 1.65161Z" fill="white"/>
<path d="M18.6241 58.7256C18.8088 58.8309 18.9796 58.9597 19.1528 59.0826C19.2033 59.5925 19.308 60.0356 19.4984 60.5126C19.3 60.3524 19.081 60.1668 18.9111 59.9767C18.5625 59.5866 18.6005 59.2069 18.6241 58.7256Z" fill="#1C1C1C"/>
<path d="M17.0276 55.9354C17.3218 56.1113 17.6203 56.2554 17.9371 56.3864C18.066 57.0805 18.0408 57.7466 18.3552 58.3961C18.2924 58.6565 18.2682 58.9217 18.2396 59.1875C17.7826 58.8267 17.5651 58.141 17.3537 57.6212C17.405 57.503 17.4659 57.3796 17.4371 57.249C17.3738 57.1672 17.3248 57.1647 17.2285 57.1318C17.0354 56.9372 17.048 56.2148 17.0276 55.9354Z" fill="#1C1C1C"/>
<path d="M17.8391 51.5219C17.8803 51.7239 17.7619 52.0899 17.7328 52.3041C17.5959 53.3115 17.7556 54.3921 18.2881 55.2656C18.1836 55.4644 18.0765 55.9041 17.8747 55.9929L17.7396 55.9363C17.5082 55.8019 17.2908 55.6879 17.0261 55.6347C16.9329 54.0008 17.161 53.008 17.8391 51.5219Z" fill="#1C1C1C"/>
<path d="M5.86638 49.3848C6.01334 49.3527 6.19004 49.3938 6.32893 49.4448C6.8267 49.6277 7.19557 50.243 7.39608 50.7071C7.53117 51.0197 7.67445 51.4405 7.52918 51.7707C7.48812 51.8639 7.42089 51.9359 7.31951 51.9633C7.21078 51.9927 7.1063 51.9296 7.01091 51.8846C6.77862 51.7695 6.5259 51.7072 6.28697 51.6085C6.16118 51.5565 6.03837 51.4921 5.94636 51.39C5.55779 50.9588 5.35703 49.9813 5.12323 49.4267C5.37324 49.4306 5.61768 49.4086 5.86638 49.3848Z" fill="#1C1C1C"/>
<path d="M20.4341 59.045C20.4545 59.0499 20.4768 59.0497 20.4953 59.0595C20.5189 59.072 21.0192 59.8582 21.14 60.0059C22.2785 61.3975 24.2486 62.8689 26.0086 63.2752C26.4933 63.3871 27.0037 63.3602 27.4974 63.4079C27.2053 63.4676 26.9048 63.4849 26.6073 63.4911C25.0657 63.5034 22.431 62.9972 21.2111 62.0668C20.1861 61.285 19.6929 60.4229 19.5158 59.1522C19.8421 59.1689 20.1179 59.1259 20.4341 59.045Z" fill="#1C1C1C"/>
<path d="M19.3833 54.9866C19.6409 54.9542 19.8828 54.9573 20.1292 55.0488C20.5289 55.1973 20.8019 55.5107 20.9808 55.8879C21.238 56.4302 21.4526 57.2992 21.23 57.8804C21.0663 58.3082 20.6244 58.4647 20.2367 58.6333C19.9214 58.7569 19.5511 58.7939 19.2366 58.6494C18.9195 58.5038 18.692 58.2009 18.5824 57.8757C18.4538 57.494 18.3475 56.6223 18.3682 56.229C18.3705 56.1787 18.3754 56.1287 18.3829 56.0789C18.3905 56.0291 18.4006 55.9799 18.4133 55.9312C18.426 55.8825 18.4412 55.8345 18.4589 55.7874C18.4766 55.7403 18.4967 55.6942 18.5192 55.6492C18.7064 55.2791 19.0034 55.1086 19.3833 54.9866Z" fill="#1C1C1C"/>
<path d="M57.6756 8.80225C57.9528 8.77086 58.2539 8.76764 58.5206 8.85864C58.8641 8.97595 59.0976 9.23524 59.246 9.55957C59.7056 10.564 59.5311 11.8624 59.1679 12.8652C58.6913 12.6456 58.2141 12.4607 57.7154 12.2986C56.9011 12.0728 56.1062 11.9494 55.2632 11.8962C55.5511 11.074 56.3977 10.6459 56.8975 9.95834C57.1693 9.58452 57.2717 9.06393 57.6756 8.80225Z" fill="#1C1C1C"/>
<path d="M17.2848 50.5667C17.3064 50.7072 17.0443 51.1354 16.976 51.277C16.8247 51.5973 16.6905 51.9244 16.5733 52.2586C16.4562 52.5928 16.3567 52.9321 16.2748 53.2767C15.2836 53.6009 14.293 53.8428 13.2504 53.9201C11.6563 54.0382 9.77449 53.8058 8.38791 52.9625C8.06017 52.7632 7.77251 52.5122 7.48267 52.2631C7.66371 52.2127 7.81415 52.145 7.96967 52.0396C8.43619 52.3606 8.87543 52.7033 9.36476 52.992C9.60904 53.1247 10.0833 53.3848 10.3605 53.343C10.4389 53.3311 10.4463 53.3035 10.4851 53.2423C10.4806 53.151 10.4806 53.0977 10.3991 53.0377C10.184 52.8792 9.83463 52.8128 9.58642 52.7091C9.13331 52.5197 8.31933 51.9412 7.99771 51.572L8.00673 51.5362C8.14666 51.5339 9.27363 52.0836 9.55271 52.178C12.4436 53.1557 14.7788 51.7967 17.2848 50.5667Z" fill="#1C1C1C"/>
<path d="M41.0162 2.55079C41.0385 2.54958 41.0607 2.54936 41.083 2.55014C41.1052 2.55092 41.1274 2.55269 41.1495 2.55546C41.1716 2.55822 41.1935 2.56197 41.2152 2.56669C41.237 2.57143 41.2586 2.57712 41.2798 2.58377C41.301 2.59042 41.3219 2.59801 41.3425 2.60653C41.3631 2.61505 41.3833 2.62448 41.403 2.6348C41.4227 2.64513 41.4419 2.65632 41.4607 2.66836C41.4794 2.68041 41.4976 2.69327 41.5151 2.70694C41.8139 2.93468 41.9091 3.30586 41.9495 3.66193C42.1768 5.67059 40.8041 7.85411 39.5979 9.3647C38.6222 9.46731 37.7644 9.28903 36.9029 8.8222C36.3537 8.48756 35.4592 7.75917 35.3053 7.10787C35.0591 6.06627 36.8148 5.78345 37.4787 5.53692C37.9167 5.37425 38.3557 5.16573 38.7411 4.8997C39.1654 4.60674 39.6604 4.16956 39.9183 3.7151C40.0307 3.51713 40.1133 3.30178 40.2332 3.10816C40.4265 2.79594 40.6624 2.63559 41.0162 2.55079Z" fill="#1C1C1C"/>
<path d="M40.0607 10.5193C40.597 10.7301 41.5197 12.2801 41.7714 12.8098C43.4848 16.4159 41.9797 22.8255 40.6905 26.4181C40.3158 27.4625 39.902 28.4671 39.4003 29.4569C38.3487 31.5317 37.0615 33.4629 35.888 35.4672C35.6454 35.8814 34.5878 37.8792 34.407 38.0308C34.0422 38.3366 33.5237 38.551 33.0987 38.772C31.5732 39.5652 30.0027 40.273 28.448 41.0067L27.345 41.5238C28.2285 40.4144 29.3471 39.5158 30.2532 38.4245C31.4548 36.9774 32.5362 35.3821 33.5798 33.8183C34.4168 32.5642 35.2752 31.284 36.0003 29.9614C36.4825 29.082 36.8883 28.1631 37.328 27.2623C37.6632 26.5755 38.0705 25.9177 38.345 25.203C38.9423 23.647 39.3487 21.9959 39.8318 20.4005C40.172 19.2768 40.6476 18.1766 40.9183 17.0357C41.4228 14.9092 40.9332 12.493 40.0607 10.5193Z" fill="#1C1C1C"/>
<path d="M34.1955 36.3157C34.2141 36.3163 34.2326 36.3165 34.2511 36.3173C34.3617 36.3226 34.4646 36.3597 34.5307 36.4539C34.5801 36.5245 34.5842 36.6176 34.5647 36.699C34.5214 36.8794 34.4065 36.979 34.2531 37.0693C34.1514 37.0477 34.0289 37.0145 33.9586 36.932C33.8986 36.8616 33.8824 36.7991 33.8928 36.7076C33.9129 36.5318 34.0634 36.4115 34.1955 36.3157Z" fill="white"/>
<path d="M40.2596 24.5168C40.2772 24.5177 40.2948 24.5181 40.3123 24.5194C40.326 24.5202 40.3396 24.5218 40.3532 24.5242C40.3666 24.5266 40.38 24.5297 40.3932 24.5335C40.4063 24.5374 40.4192 24.542 40.4319 24.5473C40.4446 24.5526 40.4569 24.5586 40.4689 24.5653C40.4809 24.572 40.4925 24.5793 40.5036 24.5872C40.5148 24.5952 40.5255 24.6038 40.5357 24.613C40.5459 24.6222 40.5556 24.6319 40.5647 24.6421C40.5739 24.6524 40.5824 24.6631 40.5903 24.6743C40.6463 24.7541 40.6532 24.8533 40.6296 24.9455C40.5889 25.1045 40.4902 25.1733 40.3541 25.2511C40.2993 25.2508 40.2389 25.2533 40.1849 25.244C40.0988 25.2293 40.0313 25.1917 39.9831 25.1166C39.9341 25.0401 39.9258 24.9504 39.9477 24.8641C39.9955 24.6764 40.0995 24.6073 40.2596 24.5168Z" fill="white"/>
<path d="M37.7372 29.2621C37.7764 29.2633 37.8146 29.2665 37.8533 29.2736C37.9755 29.296 38.0774 29.345 38.1445 29.4539C38.2277 29.5887 38.2146 29.7636 38.1791 29.9112C38.099 30.2449 37.9043 30.5513 37.6143 30.7363C37.5779 30.7411 37.5493 30.7461 37.5117 30.7455C37.4081 30.7438 37.2987 30.6996 37.2389 30.6113C37.1407 30.4664 37.1735 30.2492 37.2105 30.0904C37.2891 29.7532 37.4412 29.4509 37.7372 29.2621Z" fill="white"/>
<path d="M37.7823 29.596C37.8229 29.6199 37.8657 29.6556 37.8761 29.703C37.9231 29.9192 37.6949 30.1994 37.5793 30.3694L37.5274 30.3764L37.51 30.3212C37.5603 30.0592 37.6367 29.8215 37.7823 29.596Z" fill="#1C1C1C"/>
<path d="M41.4772 18.8278C41.4883 18.8294 41.4994 18.8309 41.5105 18.8327C41.6709 18.8588 41.7831 18.9146 41.8752 19.0533C41.9809 19.2127 41.9699 19.425 41.9277 19.6032C41.842 19.9654 41.631 20.2584 41.3178 20.4549C41.242 20.4618 41.159 20.4602 41.09 20.4228C40.9882 20.3676 40.9323 20.283 40.8999 20.1746C40.8013 19.8452 40.913 19.3986 41.086 19.1115C41.1898 18.9393 41.2841 18.8744 41.4772 18.8278Z" fill="white"/>
<path d="M41.4566 19.1551L41.5403 19.1732C41.6048 19.2294 41.6344 19.2609 41.6459 19.3489C41.6804 19.6127 41.4861 19.9305 41.3286 20.1274C41.2742 20.1366 41.272 20.1261 41.2246 20.1027C41.2095 20.0705 41.2047 20.0645 41.1979 20.0242C41.1475 19.7281 41.2885 19.387 41.4566 19.1551Z" fill="#1C1C1C"/>
<path d="M60.0929 33.9589C60.0938 33.9721 60.0959 33.9853 60.0955 33.9984C60.088 34.2792 59.7306 35.1034 59.6185 35.3975C58.7757 37.6084 57.6791 39.7816 56.4421 41.7999C55.694 43.0204 54.8615 44.1923 54.1457 45.4315C53.7257 46.1586 53.4358 47.1569 52.9582 47.7891C52.4195 48.5022 51.5664 48.8671 50.9546 49.5033C50.5933 49.879 50.2899 50.3167 49.9684 50.7269C49.4439 51.3962 48.9008 52.0655 48.3094 52.6768C47.1547 53.8704 45.8864 54.8881 44.5718 55.8975C39.826 59.5417 33.7316 62.9175 27.6138 63.008C27.0776 63.0159 26.5413 63.0076 26.0155 62.8895C24.576 62.5663 23.0399 61.4397 21.989 60.4173C21.5331 59.9573 21.1634 59.4485 20.8472 58.884C21.0852 58.7529 21.2809 58.5827 21.4747 58.3943C21.8104 58.6325 22.1455 58.8353 22.5231 59.0021C23.489 59.4287 24.5997 59.7363 25.6507 59.8398C26.3783 59.9115 27.1097 59.8611 27.8363 59.8024C29.981 59.6289 31.9978 59.1926 34.0048 58.4038C34.7625 58.106 35.5249 57.7815 36.2421 57.3953C37.4462 56.747 38.574 55.9639 39.7337 55.2414C42.2184 53.6938 44.7104 52.2032 46.9787 50.3386C47.536 49.8805 48.04 49.3679 48.5477 48.8565C49.5939 47.7817 50.6174 46.6856 51.6181 45.5683C52.6958 44.386 53.841 43.2635 54.9051 42.0683C55.1758 41.7697 55.4402 41.4656 55.6983 41.156C55.9563 40.8463 56.2077 40.5314 56.4526 40.2113C56.6974 39.8911 56.9354 39.5659 57.1667 39.2358C57.3979 38.9056 57.6221 38.5708 57.8393 38.2313C58.0565 37.8918 58.2665 37.5479 58.4694 37.1996C58.6721 36.8512 58.8676 36.4988 59.0556 36.1423C59.2437 35.7858 59.4242 35.4255 59.5972 35.0615C59.7701 34.6974 59.9354 34.3299 60.0929 33.9589Z" fill="#1C1C1C"/>
<path d="M52.839 45.5701C52.9135 45.5677 53.0059 45.5704 53.0769 45.5971C53.1552 45.6268 53.2195 45.6716 53.2506 45.7526C53.3026 45.8876 53.2285 46.0588 53.164 46.1766C53.0198 46.4393 52.7818 46.7053 52.4884 46.793C52.4172 46.7858 52.3526 46.7771 52.2849 46.7524C52.1778 46.7136 52.0792 46.6429 52.0416 46.5302C51.9986 46.4015 52.043 46.2582 52.1036 46.143C52.2559 45.8537 52.5332 45.6641 52.839 45.5701Z" fill="white"/>
<path d="M52.8107 45.9546C52.8114 45.9857 52.8137 45.9972 52.8035 46.0309C52.7492 46.2116 52.6235 46.3837 52.4499 46.4582C52.4227 46.3914 52.4065 46.3331 52.429 46.261C52.4806 46.0954 52.6667 46.0187 52.8107 45.9546Z" fill="#1C1C1C"/>
<path d="M41.8788 56.4623C41.9413 56.4692 42.0077 56.4788 42.0667 56.5011C42.1824 56.5448 42.2796 56.6242 42.3177 56.7442C42.3614 56.8819 42.2739 57.0672 42.2042 57.1813C42.0118 57.4963 41.7198 57.697 41.3654 57.7816C41.2762 57.7808 41.1638 57.7885 41.0815 57.7491C41.0055 57.7127 40.95 57.67 40.9239 57.5865C40.8855 57.4636 40.9405 57.3262 40.9968 57.2177C41.1749 56.8747 41.5082 56.5717 41.8788 56.4623Z" fill="white"/>
<path d="M41.8588 56.7723C41.9202 56.7817 41.9523 56.7923 42.0033 56.828C42.0261 56.8955 42.0316 56.8732 42.0091 56.9333C41.9114 57.1955 41.6175 57.3561 41.3747 57.4571C41.3388 57.4542 41.3118 57.442 41.2783 57.4294L41.2659 57.3669C41.3937 57.1034 41.6108 56.9178 41.8588 56.7723Z" fill="white"/>
<path d="M47.8633 51.0097C47.9176 51.0067 47.9726 51.0036 48.0263 51.0151C48.1417 51.0397 48.2604 51.1169 48.3142 51.2238C48.3968 51.3878 48.3278 51.6422 48.2627 51.8012C48.1163 52.1592 47.8181 52.4288 47.4682 52.578C47.3985 52.5841 47.324 52.593 47.2547 52.5802C47.1635 52.5633 47.0676 52.5146 47.0231 52.4297C46.9797 52.347 46.9875 52.2439 47.0081 52.1558C47.1078 51.7307 47.497 51.2303 47.8633 51.0097Z" fill="white"/>
<path d="M47.8902 51.3197C47.9337 51.3309 47.9599 51.3479 47.9979 51.3711C48.0217 51.4182 48.0405 51.4547 48.0346 51.5096C48.0023 51.8079 47.6867 52.0975 47.4558 52.2569C47.3763 52.2602 47.4129 52.2701 47.3459 52.2276C47.3445 52.2166 47.3417 52.2057 47.3416 52.1946C47.3392 51.9227 47.6981 51.5009 47.8902 51.3197Z" fill="white"/>
<path d="M35.3165 59.2424C35.4729 59.2455 35.6188 59.2613 35.7523 59.3493C35.8433 59.4092 35.904 59.4935 35.9225 59.6018C35.954 59.7865 35.8667 59.9828 35.753 60.1241C35.5447 60.3833 35.2933 60.4762 34.9719 60.5033C34.7982 60.4961 34.6234 60.4957 34.4735 60.3944C34.3894 60.3375 34.3285 60.2536 34.316 60.1506C34.2951 59.9782 34.3866 59.8029 34.4915 59.6729C34.7093 59.4031 34.9826 59.2852 35.3165 59.2424Z" fill="white"/>
<path d="M35.3441 59.5234C35.3963 59.5295 35.4566 59.541 35.5054 59.5604C35.5801 59.5901 35.6076 59.62 35.6405 59.6908C35.6307 59.753 35.6205 59.7956 35.586 59.8498C35.4386 60.0819 35.1826 60.1597 34.933 60.2124C34.8998 60.2077 34.8662 60.2039 34.8333 60.1972C34.7391 60.178 34.6911 60.1448 34.6412 60.0643C34.6436 60.0306 34.643 60.0072 34.6572 59.9742C34.7533 59.75 35.128 59.5897 35.3441 59.5234Z" fill="white"/>
<path d="M32.7321 7.13534C33.2727 7.07166 33.876 7.15339 34.4081 7.2493C34.4952 7.42018 34.5802 7.59212 34.6629 7.76512C32.6142 8.13566 31.2666 8.56195 29.6879 10.0126C28.0727 11.4968 26.9833 13.6006 26.2056 15.624C25.9524 16.2828 25.7469 16.9534 25.5099 17.6171C25.3674 18.0163 24.9644 18.8019 24.9602 19.2003C24.9594 19.2781 24.9618 19.2913 25.0124 19.345C25.1405 19.3167 25.2252 19.1591 25.2841 19.053C25.7311 18.2475 25.9942 17.2845 26.303 16.4169C26.9298 14.6562 27.7466 12.8744 28.9122 11.4003C30.4725 9.42691 32.4934 8.3974 34.9666 8.11174C35.3694 8.32367 35.662 8.68873 36.011 8.97316C36.9132 9.70851 38.2675 10.2729 39.4483 10.1597C39.9284 10.8739 40.319 12.2443 40.5001 13.0992C40.7911 14.4718 40.821 15.9166 40.4596 17.2792C40.3141 17.8275 40.1064 18.3568 39.9199 18.8919C39.7585 19.3651 39.6063 19.8412 39.4632 20.3202C38.9699 21.9326 38.6036 23.6011 37.9738 25.1671C37.669 25.9251 37.2547 26.6349 36.8953 27.3679C36.4374 28.302 35.9881 29.2291 35.4754 30.1352C34.4872 31.8819 33.3404 33.5769 32.1881 35.22C31.4481 36.2752 30.6932 37.3471 29.857 38.3281C29.3047 38.9762 28.6678 39.5428 28.0897 40.1667C27.5883 40.7077 27.1142 41.2867 26.5887 41.8036C26.2292 42.1573 25.7366 42.3935 25.303 42.6471C24.7096 42.9943 24.1093 43.3327 23.5243 43.6939C22.372 44.4055 21.4241 45.3499 20.4877 46.3152C20.0617 46.7543 19.6312 47.1872 19.2505 47.6673C18.6637 48.4075 18.1509 49.1938 17.6362 49.9844C16.122 50.7541 13.8812 51.9477 12.2097 52.097C12.1366 52.1041 12.0634 52.11 11.9902 52.1145C11.9169 52.1191 11.8436 52.1224 11.7702 52.1245C11.6968 52.1265 11.6234 52.1273 11.55 52.1268C11.4766 52.1263 11.4033 52.1245 11.3299 52.1214C11.2566 52.1184 11.1833 52.114 11.1101 52.1084C11.0369 52.1028 10.9638 52.096 10.8909 52.0878C10.818 52.0797 10.7452 52.0703 10.6725 52.0596C10.5999 52.0489 10.5275 52.037 10.4553 52.0238C10.3831 52.0106 10.3111 51.9962 10.2394 51.9805C10.1677 51.9648 10.0963 51.9479 10.0251 51.9297C9.95403 51.9116 9.88324 51.8922 9.81277 51.8715C9.74234 51.8509 9.67228 51.8291 9.60259 51.8061C9.53289 51.783 9.4636 51.7587 9.39472 51.7333C9.32589 51.7078 9.2575 51.6812 9.18957 51.6533C9.12168 51.6255 9.05426 51.5965 8.98732 51.5663C8.92041 51.5361 8.85405 51.5048 8.78822 51.4723C8.54291 51.3524 8.25577 51.2046 8.05352 51.0186C7.98662 50.9572 7.96051 50.9212 7.95297 50.8315C8.15555 50.817 8.36902 50.8476 8.57295 50.8536C8.94027 50.8646 9.33491 50.782 9.6838 50.6726C10.6603 50.3664 11.4858 49.7711 12.3192 49.1963C13.2428 48.5592 14.1632 47.907 15.0346 47.1998C16.1289 46.3116 17.1604 45.3551 18.2143 44.4203C19.6073 43.1849 21.0415 41.9467 22.3162 40.5878C22.9236 39.9401 23.4381 39.2374 23.98 38.5366C24.3177 38.0999 24.6765 37.6794 25.0122 37.2414C25.3699 36.7747 25.6566 36.2495 25.8854 35.7088C26.0508 35.3182 26.1783 34.8338 26.4421 34.4994C26.6894 34.1858 27.2334 34.0699 27.564 33.8345C28.5821 33.1095 29.3187 32.0808 29.9812 31.0374C30.1413 30.7847 30.2945 30.5279 30.4409 30.267C30.5873 30.0062 30.7266 29.7416 30.859 29.4734C30.9914 29.2051 31.1165 28.9336 31.2345 28.6587C31.3525 28.3838 31.4631 28.106 31.5663 27.8252C31.8688 26.9833 32.0907 25.8958 32.5703 25.1425C32.8478 24.7066 33.3236 24.4119 33.6716 24.0345C34.3349 23.3151 34.7814 22.4708 35.2266 21.6096L35.3591 21.3248C35.9327 20.0792 36.3256 18.7711 36.7011 17.4553C37.2351 15.5844 37.8487 13.5614 37.6143 11.5949C37.5925 11.4118 37.5887 11.0826 37.5072 10.9251C37.4693 10.8516 37.4311 10.8299 37.3555 10.8047L37.2931 10.8432C37.2519 10.9257 37.2269 10.9984 37.2213 11.0914C37.2075 11.3183 37.2574 11.5615 37.2741 11.7885C37.2967 12.0982 37.2919 12.4183 37.2805 12.7285C37.2525 13.4887 37.1355 14.2535 36.9671 14.9944C36.3988 17.4959 35.559 20.7861 34.0812 22.9012C33.849 23.2335 33.579 23.5889 33.2878 23.873C32.9326 24.2196 32.4949 24.481 32.2481 24.9254C31.7993 25.7334 31.5639 26.6897 31.2546 27.5601C31.0695 28.088 30.8572 28.6048 30.6175 29.1103C30.3779 29.6159 30.1124 30.1074 29.821 30.585C29.188 31.6416 28.3358 32.8173 27.3224 33.5253C26.9779 33.766 26.4776 33.8945 26.2045 34.2168C25.8343 34.654 25.6347 35.3868 25.3801 35.9123C25.1331 36.4219 24.8168 36.8851 24.47 37.3312C23.7499 38.2575 23.0642 39.2355 22.2754 40.1034C21.0378 41.4651 19.6259 42.6705 18.2519 43.8904C17.2675 44.7644 16.3039 45.668 15.2957 46.5143C14.009 47.5942 12.6129 48.6123 11.1901 49.5057C10.3973 50.0036 9.02631 50.6829 8.06164 50.4396C7.63051 50.3309 7.33558 49.7698 7.11147 49.4119C7.20731 49.0573 7.82987 47.5662 7.75388 47.3443L7.70444 47.336C7.24425 47.623 6.91438 48.7142 6.73816 49.2278C6.44029 49.0398 6.18482 48.9183 5.83709 48.8506C5.63622 48.4098 5.42725 47.9644 5.30829 47.4932C4.90776 45.9067 5.58307 43.6558 6.30477 42.2054C6.41097 41.992 6.52179 41.7796 6.64896 41.5778C6.75234 41.4138 6.92333 41.2146 6.99352 41.0382C7.02208 40.9663 6.98456 40.9303 6.94944 40.872C6.90219 40.8503 6.87976 40.8263 6.8264 40.8416C6.52611 40.9272 6.17446 41.6673 6.04434 41.9304C5.36638 43.3008 4.57058 45.6201 4.83998 47.1353C4.95003 47.7543 5.22834 48.2967 5.42617 48.8841L5.39975 48.9197C5.26889 48.9199 5.19731 48.8914 5.09682 48.8076C4.14894 48.0163 3.79343 46.4762 3.69072 45.3108C3.14698 39.1415 8.70965 32.7887 13.1992 29.2046C15.8114 27.1192 18.8043 25.4633 20.781 22.6887C21.4268 21.7823 21.9013 20.7632 22.3333 19.7419C22.8708 18.4711 23.3443 17.1701 23.832 15.8795C24.2824 14.6878 24.7428 13.4684 25.3906 12.3667C25.7309 11.7878 26.1367 11.244 26.5686 10.7305C28.1807 8.8139 30.1683 7.35964 32.7321 7.13534Z" fill="#1C1C1C"/>
<path d="M24.6173 39.8303C24.7298 39.8579 24.8434 39.8892 24.9053 39.9971C24.9582 40.089 24.9584 40.1925 24.9174 40.2886C24.8491 40.4488 24.7394 40.5195 24.586 40.5885C24.4719 40.5722 24.36 40.5297 24.2988 40.4253C24.2554 40.3515 24.2585 40.2708 24.279 40.1909C24.3249 40.0122 24.463 39.9108 24.6173 39.8303Z" fill="white"/>
<path d="M28.0138 36.2512C28.0864 36.248 28.1596 36.243 28.2283 36.2719C28.3058 36.3046 28.3697 36.3733 28.3977 36.4525C28.4281 36.5385 28.414 36.6297 28.3806 36.7122C28.3211 36.8596 28.2298 36.8962 28.0914 36.9557C28.0446 36.9583 28.0002 36.9594 27.9538 36.9506C27.8582 36.9327 27.7686 36.8971 27.7191 36.8065C27.682 36.7388 27.6844 36.6636 27.7039 36.591C27.7512 36.4144 27.8649 36.3425 28.0138 36.2512Z" fill="white"/>
<path d="M38.2466 18.7556C38.381 18.766 38.5282 18.7867 38.6156 18.9035C38.6648 18.9694 38.6712 19.0409 38.6566 19.1195C38.6228 19.3025 38.4637 19.4117 38.3191 19.5048C38.2687 19.5123 38.2069 19.5256 38.1564 19.5208C38.0672 19.5122 38.0271 19.4766 37.9711 19.4119C37.9355 19.3141 37.9242 19.2453 37.9516 19.1429C37.9992 18.9649 38.0859 18.8437 38.2466 18.7556Z" fill="white"/>
<path d="M33.1997 30.0656C33.2586 30.0609 33.3285 30.0508 33.387 30.0586C33.4667 30.0694 33.5417 30.1111 33.588 30.178C33.6411 30.2548 33.6499 30.3468 33.6346 30.4362C33.6003 30.635 33.5029 30.7401 33.3457 30.8564C33.314 30.8641 33.2922 30.8703 33.2614 30.875C33.1559 30.8908 33.0835 30.8632 32.9979 30.8016C32.9617 30.7449 32.9433 30.7093 32.9358 30.6408C32.9104 30.4096 33.0522 30.2222 33.1997 30.0656Z" fill="white"/>
<path d="M19.0913 44.7285C19.1425 44.7299 19.1929 44.731 19.2429 44.7437C19.3347 44.7671 19.4105 44.8411 19.4552 44.9225C19.5157 45.0325 19.5149 45.1656 19.474 45.2826C19.4207 45.435 19.3238 45.502 19.1825 45.5666C19.0426 45.5391 18.9195 45.5054 18.8298 45.3863C18.7689 45.3055 18.7485 45.2055 18.771 45.1074C18.8141 44.9189 18.9347 44.8255 19.0913 44.7285Z" fill="white"/>
<path d="M8.8912 36.152C8.92685 36.1451 8.93381 36.1415 8.97506 36.1461C9.05543 36.155 9.14128 36.2015 9.19504 36.2594C9.21779 36.3278 9.2214 36.3762 9.20747 36.4461C9.1137 36.9171 8.71093 37.3332 8.33046 37.5911C8.30068 37.5993 8.24171 37.6174 8.21193 37.6176C8.13678 37.6181 8.11416 37.5833 8.07452 37.5309C8.07258 37.4922 8.07129 37.458 8.07929 37.4197C8.14864 37.0881 8.61773 36.3447 8.8912 36.152Z" fill="white"/>
<path d="M19.6926 26.6904C19.7235 26.6862 19.7743 26.6782 19.8042 26.6799C19.8869 26.6846 19.9135 26.7103 19.9706 26.7624C19.969 26.8568 19.9401 26.8864 19.8618 26.9406C19.7086 27.0468 19.4656 27.1027 19.2903 27.1699C19.2283 27.1934 19.167 27.2186 19.1064 27.2455C19.0459 27.2723 18.986 27.3008 18.927 27.331C18.868 27.3611 18.8098 27.3928 18.7525 27.4261C18.6953 27.4594 18.6389 27.4942 18.5835 27.5306C18.5281 27.567 18.4737 27.6048 18.4204 27.6441C18.3671 27.6835 18.3149 27.7243 18.2637 27.7665C18.2126 27.8087 18.1627 27.8522 18.114 27.8971C18.0652 27.942 18.0177 27.9882 17.9716 28.0358C17.9141 28.0635 17.8642 28.0847 17.8017 28.0983L17.7748 28.0631C17.7765 28.0463 17.7817 28.0022 17.781 27.9872C17.777 27.8887 17.8011 27.8376 17.8538 27.7543C18.2265 27.1651 19.0379 26.8383 19.6926 26.6904Z" fill="white"/>
<path d="M22.4088 21.9715C22.4478 21.9719 22.488 21.9709 22.5266 21.9779C22.6041 21.992 22.6869 22.0469 22.7283 22.1154C22.8194 22.2664 22.782 22.4543 22.735 22.6137C22.6197 23.0045 22.3705 23.5215 22.0012 23.7163C21.9466 23.711 21.8837 23.7085 21.8312 23.693C21.7497 23.669 21.6877 23.6154 21.6477 23.5411C21.5716 23.3998 21.5937 23.2291 21.6338 23.0808C21.7495 22.6522 22.0217 22.1966 22.4088 21.9715Z" fill="white"/>
<path d="M22.4167 22.2618C22.4474 22.3159 22.4578 22.3456 22.4571 22.4096C22.4539 22.6952 22.1421 23.2575 21.9433 23.4504C21.9144 23.3959 21.8962 23.3624 21.8912 23.2999C21.867 22.9989 22.2021 22.4693 22.4167 22.2618Z" fill="#1C1C1C"/>
<path d="M35.2252 9.5874C35.2536 9.59043 35.2933 9.59275 35.3191 9.60474C35.3997 9.64232 35.4178 9.69207 35.4505 9.76697C35.4507 9.85585 35.4231 9.90432 35.374 9.97483C35.141 10.3091 34.8547 10.6181 34.5968 10.9336C34.1482 11.4816 33.7131 12.04 33.2912 12.6088C33.2395 12.6248 33.2031 12.6224 33.1496 12.6213C33.1103 12.5829 33.0981 12.5896 33.1002 12.5292C33.1168 12.0589 34.848 9.96387 35.2252 9.5874Z" fill="white"/>
<path d="M24.9423 27.0759C25.0325 27.064 25.1209 27.0541 25.2118 27.0635C25.3318 27.0759 25.4455 27.1185 25.5152 27.2233C25.6068 27.3609 25.5789 27.552 25.5343 27.7007C25.527 27.7251 25.5191 27.7494 25.5106 27.7734C25.5021 27.7974 25.4931 27.8212 25.4834 27.8448C25.4738 27.8684 25.4636 27.8917 25.4527 27.9148C25.4419 27.9378 25.4306 27.9606 25.4187 27.9831C25.4068 28.0056 25.3943 28.0278 25.3813 28.0498C25.3683 28.0717 25.3547 28.0932 25.3406 28.1145C25.3266 28.1357 25.312 28.1566 25.2969 28.1771C25.2818 28.1976 25.2662 28.2177 25.2502 28.2375C25.234 28.2573 25.2175 28.2766 25.2005 28.2955C25.1834 28.3145 25.1659 28.333 25.148 28.3511C25.13 28.3691 25.1116 28.3867 25.0928 28.4039C25.074 28.4211 25.0548 28.4378 25.0351 28.454C25.0155 28.4702 24.9955 28.486 24.9751 28.5012C24.9547 28.5165 24.9339 28.5312 24.9127 28.5454C24.8916 28.5596 24.8701 28.5733 24.8484 28.5865C24.8265 28.5997 24.8044 28.6123 24.782 28.6244C24.6951 28.6389 24.6028 28.6586 24.5154 28.6399C24.4003 28.6153 24.306 28.5496 24.2476 28.447C24.1468 28.27 24.1947 27.972 24.2598 27.7908C24.3842 27.4454 24.615 27.224 24.9423 27.0759Z" fill="white"/>
<path d="M25.0439 27.3585C25.1198 27.3722 25.1663 27.3837 25.2301 27.4279C25.2735 27.5024 25.2844 27.5604 25.2642 27.6444C25.1953 27.9327 24.9254 28.1813 24.6878 28.3399C24.6686 28.3389 24.6494 28.3396 24.6304 28.3367C24.5569 28.3255 24.5235 28.2781 24.4811 28.2234C24.4599 28.1187 24.4684 28.0415 24.5075 27.941C24.6085 27.6818 24.7911 27.4723 25.0439 27.3585Z" fill="#1C1C1C"/>
<path d="M14.3648 30.3901C14.3718 30.3899 14.3787 30.3898 14.3856 30.3895C14.4394 30.3875 14.4963 30.3846 14.5491 30.3971C14.658 30.423 14.8107 30.4949 14.8528 30.6058C14.9144 30.7685 14.8035 31.0006 14.7254 31.1391C14.503 31.5331 14.1077 31.8133 13.6801 31.9402C13.6172 31.9431 13.5498 31.9481 13.4876 31.9362C13.381 31.9157 13.2245 31.8457 13.1743 31.7438C13.1125 31.6185 13.1684 31.4503 13.2231 31.3324C13.4238 30.8992 13.9259 30.5435 14.3648 30.3901Z" fill="white"/>
<path d="M14.3387 30.7372C14.4378 30.7364 14.4489 30.7296 14.5274 30.7876C14.5251 30.8094 14.5256 30.8317 14.5207 30.853C14.4452 31.1758 13.9559 31.4821 13.6718 31.5867C13.6008 31.5936 13.5639 31.5783 13.4957 31.5591L13.4783 31.5117C13.6085 31.1879 14.0499 30.9103 14.3387 30.7372Z" fill="#1C1C1C"/>
<path d="M31.5189 14.599C31.6092 14.5904 31.7005 14.5792 31.7882 14.611C31.8984 14.6511 31.9854 14.7435 32.0297 14.8505C32.1442 15.1269 32.0513 15.5471 31.9439 15.8197C31.8211 16.1311 31.6518 16.3511 31.3443 16.4876C31.2956 16.4853 31.247 16.4815 31.1985 16.4763C31.0692 16.4613 30.9552 16.401 30.8776 16.2943C30.7594 16.1314 30.7659 15.92 30.8036 15.7315C30.8914 15.2929 31.1391 14.8427 31.5189 14.599Z" fill="white"/>
<path d="M31.5957 14.9067C31.636 14.9296 31.6705 14.9591 31.707 14.9876C31.7828 15.1455 31.7731 15.3242 31.7306 15.4914C31.6564 15.7834 31.5224 16.0439 31.2553 16.1926C31.2517 16.1896 31.2479 16.1867 31.2445 16.1836C31.16 16.1057 31.1104 16.0527 31.1088 15.9301C31.1043 15.5785 31.3608 15.1583 31.5957 14.9067Z" fill="#1C1C1C"/>
<path d="M26.9143 20.7216C27.0064 20.7142 27.0891 20.7073 27.1793 20.7358C27.2812 20.7681 27.3708 20.8636 27.4163 20.9575C27.5554 21.2447 27.4476 21.6579 27.3398 21.9442C27.2223 22.2563 27.0609 22.5254 26.7475 22.665C26.6922 22.6635 26.6372 22.6619 26.5823 22.6527C26.4568 22.6318 26.3294 22.5565 26.2586 22.4494C26.1321 22.2578 26.1686 21.993 26.2212 21.7835C26.3264 21.3645 26.5366 20.9505 26.9143 20.7216Z" fill="white"/>
<path d="M26.9818 21.0284C27.0494 21.042 27.0661 21.0512 27.1205 21.0889C27.1999 21.2359 27.1665 21.4056 27.1302 21.5618C27.0629 21.8514 26.9379 22.2132 26.6781 22.3761C26.6472 22.3599 26.5945 22.3365 26.5691 22.3098C26.4931 22.2294 26.4799 22.124 26.4858 22.0186C26.5053 21.6727 26.723 21.2532 26.9818 21.0284Z" fill="#1C1C1C"/>
<path d="M20.0007 32.5835C20.1309 32.572 20.2357 32.5649 20.3584 32.6158C20.4753 32.6643 20.5577 32.7176 20.603 32.843C20.6694 33.0266 20.571 33.2968 20.4895 33.46C20.2885 33.8627 19.9599 34.1239 19.5391 34.2613C19.4347 34.2757 19.3424 34.2888 19.2408 34.2528C19.1067 34.2052 19.003 34.1435 18.9455 34.0068C18.8728 33.8343 18.9357 33.571 19.0067 33.4081C19.196 32.9733 19.5757 32.7405 20.0007 32.5835Z" fill="white"/>
<path d="M20.0724 32.903C20.1788 32.9046 20.2111 32.9195 20.2944 32.978C20.3256 33.077 20.3148 33.1165 20.2738 33.2111C20.1122 33.5837 19.8136 33.8151 19.4445 33.9559C19.4314 33.9534 19.4182 33.9519 19.4053 33.9483C19.3272 33.9265 19.2642 33.8767 19.2335 33.8007C19.2113 33.7455 19.226 33.6819 19.247 33.6282C19.3836 33.2795 19.7425 33.0405 20.0724 32.903Z" fill="#1C1C1C"/>
<path d="M15.2326 37.0323C15.3044 37.0277 15.3727 37.028 15.4425 37.0467C15.5754 37.0821 15.7369 37.17 15.7914 37.3037C15.8634 37.4804 15.7962 37.7261 15.7268 37.8928C15.5441 38.3317 15.1678 38.6013 14.7462 38.7816C14.5946 38.8108 14.4653 38.8254 14.3216 38.7581C14.2431 38.7214 14.1841 38.6622 14.1555 38.5797C14.0845 38.3747 14.1633 38.0908 14.2518 37.9025C14.4537 37.4733 14.7929 37.1878 15.2326 37.0323Z" fill="white"/>
<path d="M15.1972 37.3473C15.3137 37.3346 15.3886 37.3587 15.4865 37.4163C15.5319 37.5017 15.5367 37.5461 15.5082 37.6395C15.3865 38.0384 15.054 38.2877 14.7018 38.4694C14.6736 38.477 14.629 38.4905 14.6006 38.4915C14.5232 38.494 14.4936 38.4708 14.4382 38.4255C14.4313 38.3817 14.4275 38.3738 14.434 38.3231C14.4836 37.9301 14.8794 37.5438 15.1972 37.3473Z" fill="#1C1C1C"/>
<path d="M11.6616 43.0607C11.8478 43.0447 12.0002 43.0426 12.1817 43.099C12.3303 43.1452 12.4806 43.2167 12.552 43.3637C12.6249 43.5136 12.6018 43.6899 12.5377 43.8383C12.3691 44.2282 11.9124 44.4131 11.54 44.5487C11.3314 44.596 11.1064 44.6213 10.9068 44.524C10.792 44.4681 10.7074 44.3696 10.6719 44.2468C10.6152 44.0505 10.6623 43.8322 10.761 43.6574C10.957 43.3102 11.294 43.1581 11.6616 43.0607Z" fill="white"/>
<path d="M11.7111 43.3849C11.762 43.3797 11.8121 43.3772 11.8633 43.3775C12.0097 43.3782 12.1533 43.3778 12.2629 43.4869C12.2862 43.5748 12.2912 43.6145 12.2472 43.6974C12.0987 43.9771 11.7501 44.1218 11.469 44.2283C11.3687 44.2493 11.226 44.2883 11.1241 44.2608C11.0343 44.2366 11.0203 44.2149 10.9696 44.1434C10.9592 44.0562 10.9707 44.0008 11.0084 43.9232C11.1491 43.6324 11.4177 43.481 11.7111 43.3849Z" fill="#1C1C1C"/>
<path d="M54.7728 12.841C56.6146 12.7893 58.6092 13.2629 60.0133 14.5091C61.613 15.9289 62.1124 18.4328 62.2369 20.4872C62.3853 22.9322 62.1144 25.2883 61.6213 27.6795C61.4014 28.7459 61.1678 29.8066 60.8557 30.8507C59.6205 34.983 57.4485 38.6985 54.5884 41.9129C53.4662 43.1739 52.2757 44.3815 51.1225 45.6145C49.8327 46.9936 48.586 48.4054 47.1675 49.6579C45.1496 51.4397 42.8563 52.8615 40.5696 54.2674C39.1215 55.1576 37.7294 56.1304 36.2372 56.9491C34.3509 57.984 31.9668 58.8092 29.8494 59.192C28.9193 59.3602 27.9604 59.4467 27.0171 59.4998C25.3785 59.5921 22.8955 59.1345 21.6372 58.0105C21.6433 57.9729 21.6486 57.9353 21.6542 57.8977C21.7173 57.476 21.691 57.0473 21.6715 56.623C22.4746 56.0388 23.5055 56.0499 24.4522 55.9114C25.0068 55.8308 25.5571 55.7278 26.1033 55.6024C26.9958 55.4004 27.8834 55.1041 28.7449 54.7981C30.2878 54.2502 31.8345 53.618 33.2771 52.8408C34.4563 52.2056 35.5751 51.4714 36.7129 50.7666C38.0182 49.958 39.331 49.1888 40.5629 48.2675C41.3781 47.6579 42.1364 46.9708 42.8863 46.2834C43.2514 45.9487 43.613 45.6052 43.9091 45.2058C44.3507 44.6102 44.6436 44.023 45.2209 43.5309C45.8419 43.0015 46.5242 42.5478 47.1869 42.0732C48.7045 40.9864 50.0438 39.9399 51.226 38.4807C52.6555 36.7163 53.7055 34.7756 54.7635 32.7783C55.4569 31.4693 56.1564 30.1601 56.7167 28.7866C57.731 26.2997 58.8451 22.3457 59.1011 19.6621C59.1785 18.851 59.1873 18.0192 59.0984 17.2087C59.0387 16.6646 58.8107 15.2343 58.4038 14.9098C58.3164 14.8904 58.3125 14.8928 58.2302 14.9291C58.2068 15.0095 58.2215 15.0768 58.2381 15.1571C58.2855 15.3861 58.3793 15.6139 58.4449 15.8391C58.5478 16.2012 58.6327 16.5675 58.6997 16.9379C58.7638 17.2901 58.7809 17.658 58.7971 18.0153C58.8782 19.8126 58.4901 21.5711 58.0602 23.3041C58.0173 23.5323 57.9555 23.76 57.8998 23.9853C57.5845 25.2596 57.2191 26.5479 56.7484 27.7744C56.1285 29.3897 55.3389 30.9218 54.5343 32.4502C53.1625 35.0556 51.766 37.6869 49.5883 39.7249C48.8137 40.4499 47.9417 41.0873 47.075 41.6958C46.2716 42.2597 45.4365 42.819 44.7225 43.4968C44.3105 43.888 44.0607 44.3393 43.7405 44.7984C43.513 45.1246 43.2434 45.4385 42.9563 45.7137C41.9182 46.7087 40.809 47.6588 39.6286 48.4817C38.4947 49.2722 37.2848 49.9708 36.1107 50.7008C34.5583 51.6663 33.0258 52.6343 31.3475 53.3722C29.7589 54.0706 28.0943 54.7082 26.4161 55.1534C25.8207 55.3071 25.2188 55.4291 24.6106 55.5195C23.5691 55.6727 22.473 55.6953 21.5501 56.2511C21.3969 55.9061 21.2465 55.5598 21.0988 55.2124C21.2149 54.7324 21.4262 54.3326 21.7483 53.9572C21.9676 53.7015 22.3111 53.5234 22.3924 53.1803C22.378 53.1125 22.3909 53.1032 22.3316 53.061C22.2351 53.0446 22.1354 53.0726 22.0499 53.1189C21.9011 53.1996 21.7661 53.3617 21.6555 53.4873C21.2485 53.9493 20.9596 54.3727 20.7788 54.9645C20.4544 54.7374 20.101 54.5823 19.7097 54.5125C19.5817 53.6956 19.5456 52.881 19.7766 52.0775C20.2244 50.5192 21.8797 48.2577 23.2466 47.3647C23.7599 47.0294 24.3583 46.8546 24.8827 46.5472C24.9696 46.4962 25.0856 46.4366 25.1144 46.3332L25.0739 46.2636C25.0074 46.2285 24.9609 46.2134 24.8847 46.2231C24.6514 46.2528 24.4388 46.3819 24.2245 46.4703C22.8702 47.0289 21.8573 47.9749 20.9757 49.1248C19.5906 50.9318 19.0084 52.2477 19.3141 54.5607C19.0294 54.6583 18.81 54.7879 18.5667 54.9626C18.2193 54.4596 18.0952 53.8948 18.0729 53.2897C18.0411 52.4268 18.1927 51.6089 18.478 50.796C18.9965 49.3188 19.9654 48.1161 21.0428 47.0097C21.7987 46.2333 22.5575 45.4694 23.4392 44.8333C24.1435 44.3252 24.9003 43.908 25.6555 43.4818C26.2842 43.1269 26.9111 42.7589 27.5556 42.4334C29.3423 41.5311 31.1867 40.7501 32.974 39.8485C34.7883 38.9334 36.54 38.0106 37.9854 36.5524C38.3862 36.148 38.7575 35.7183 39.0457 35.2251C39.244 34.8857 39.3814 34.5075 39.5504 34.1527C39.7861 33.6576 40.0759 33.2099 40.4091 32.7759C40.859 32.1896 41.3545 31.6502 41.8781 31.1294C42.5618 30.4494 43.3406 29.7937 43.8418 28.9614C44.5643 27.7613 44.3157 26.5527 44.8481 25.4068C45.3001 24.4337 46.2686 23.8202 46.6903 22.8142C47.0309 22.0019 47.0197 21.0731 47.1672 20.215C47.5117 18.2125 49.0142 16.1623 50.3915 14.704C51.6169 13.4065 53.0201 12.8902 54.7728 12.841Z" fill="#1C1C1C"/>
<path d="M28.661 43.0921C28.7543 43.0788 28.843 43.0677 28.9315 43.1071C28.9898 43.133 28.98 43.146 29.0003 43.2008C28.986 43.2333 28.9813 43.2721 28.9574 43.2983C28.9176 43.3415 27.8821 43.7154 27.6944 43.8189C27.5977 43.8622 27.5771 43.8777 27.4687 43.8635L27.4228 43.8008C27.4245 43.7371 27.4289 43.7012 27.4621 43.6449C27.6571 43.3145 28.309 43.1883 28.661 43.0921Z" fill="white"/>
<path d="M31.194 55.1995C31.2983 55.2161 31.3621 55.2575 31.4323 55.3342C31.4376 55.4019 31.4456 55.4163 31.4162 55.4815C31.2784 55.7867 30.8589 56.012 30.5586 56.1138C30.4574 56.1156 30.3985 56.1071 30.3214 56.0386L30.3182 55.9561C30.4825 55.5997 30.8422 55.3478 31.194 55.1995Z" fill="white"/>
<path d="M37.9523 53.364C37.9922 53.3658 38.0176 53.3652 38.058 53.3762C38.1327 53.3964 38.1729 53.444 38.2084 53.5074C38.2073 53.5531 38.2043 53.5942 38.1867 53.6372C38.0585 53.9509 37.6637 54.2212 37.3615 54.3353C37.2604 54.3307 37.2159 54.3254 37.136 54.2633C37.1264 54.2105 37.1153 54.1879 37.1328 54.1352C37.232 53.8353 37.6799 53.505 37.9523 53.364Z" fill="white"/>
<path d="M49.7734 43.2797C49.8505 43.2783 49.9392 43.2745 50.0125 43.3021C50.0947 43.3331 50.1642 43.3948 50.1872 43.4817C50.216 43.5907 50.1768 43.7163 50.1304 43.8146C49.9991 44.0928 49.7773 44.3051 49.4881 44.407C49.4426 44.4073 49.4368 44.4084 49.3868 44.4035C49.2754 44.3929 49.156 44.347 49.09 44.2539C49.0455 44.191 49.0432 44.096 49.0635 44.0232C49.1585 43.6826 49.4825 43.4481 49.7734 43.2797Z" fill="white"/>
<path d="M58.1876 32.5767C58.2191 32.5813 58.2181 32.5804 58.2545 32.5904C58.391 32.6276 58.5103 32.6956 58.5785 32.824C58.6542 32.9666 58.6335 33.135 58.5789 33.2811C58.4699 33.5725 58.2461 33.7837 57.9655 33.906C57.9169 33.9056 57.872 33.8988 57.8252 33.886C57.7103 33.8546 57.6083 33.7832 57.5578 33.6724C57.4966 33.5377 57.5301 33.3742 57.5789 33.2414C57.6924 32.9321 57.8955 32.7183 58.1876 32.5767Z" fill="white"/>
<path d="M58.1597 32.9518C58.1989 32.9629 58.2214 32.9796 58.2548 33.0022C58.2644 33.0345 58.2742 33.0594 58.2727 33.0948C58.2658 33.2589 58.112 33.4242 57.9983 33.5275L57.9024 33.5036L57.8751 33.4234C57.9099 33.2234 58.0178 33.0911 58.1597 32.9518Z" fill="#1C1C1C"/>
<path d="M51.3413 15.2155C51.412 15.2076 51.481 15.1993 51.552 15.2078C51.6627 15.2211 51.7752 15.2723 51.8368 15.369C51.915 15.4918 51.8885 15.6637 51.8478 15.795C51.7467 16.1211 51.5355 16.3245 51.2457 16.4836C51.1541 16.5102 51.0506 16.5408 50.9545 16.5212C50.8732 16.5047 50.8037 16.4719 50.7607 16.3972C50.6919 16.2781 50.7194 16.1123 50.7515 15.9865C50.8385 15.6453 51.0467 15.3979 51.3413 15.2155Z" fill="white"/>
<path d="M51.4288 15.5127L51.5 15.5505C51.5394 15.6152 51.5549 15.6314 51.5447 15.7102C51.5202 15.8997 51.3068 16.0704 51.1637 16.1742L51.0796 16.165C51.0535 16.1273 51.0321 16.1159 51.0385 16.0671C51.0678 15.8465 51.2625 15.6432 51.4288 15.5127Z" fill="#1C1C1C"/>
<path d="M54.7284 38.3815C54.8366 38.3758 54.9318 38.3737 55.0342 38.4143C55.1307 38.4525 55.208 38.5148 55.2432 38.6163C55.2919 38.7564 55.2358 38.9372 55.175 39.0647C55.031 39.3664 54.7868 39.5308 54.4838 39.6467C54.4219 39.6605 54.3719 39.665 54.3094 39.6563C54.2109 39.6426 54.0841 39.6204 54.0314 39.5261C53.9781 39.4311 53.9916 39.3178 54.0175 39.2172C54.1142 38.8415 54.4009 38.567 54.7284 38.3815Z" fill="white"/>
<path d="M54.8089 38.6927C54.8719 38.7169 54.8791 38.7291 54.92 38.7798C54.929 38.8367 54.929 38.8665 54.9087 38.9221C54.8373 39.1169 54.6202 39.2564 54.441 39.3332C54.4035 39.3248 54.3827 39.3123 54.35 39.2931L54.3513 39.2139C54.4531 39.001 54.6273 38.8382 54.8089 38.6927Z" fill="#1C1C1C"/>
<path d="M43.1284 40.5079C43.1688 40.514 43.2089 40.5196 43.2483 40.5309C43.3875 40.5707 43.4969 40.6626 43.5641 40.7904C43.6682 40.9888 43.6519 41.2408 43.5782 41.4462C43.4874 41.6992 43.3372 41.8646 43.0931 41.9732C43.043 41.9688 42.9911 41.9643 42.9425 41.9514C42.8057 41.9149 42.6885 41.8133 42.6245 41.6887C42.5232 41.4917 42.5511 41.2381 42.6278 41.0379C42.7269 40.779 42.879 40.6213 43.1284 40.5079Z" fill="white"/>
<path d="M43.1371 40.8149C43.1638 40.834 43.191 40.8525 43.216 40.8738C43.2982 40.9435 43.3307 41.0315 43.3341 41.1371C43.3401 41.3192 43.2102 41.488 43.0985 41.6173C43.0249 41.6145 42.9968 41.6087 42.9381 41.5634C42.8945 41.4909 42.8764 41.4374 42.8793 41.3534C42.8867 41.1388 42.9879 40.9611 43.1371 40.8149Z" fill="#1C1C1C"/>
<path d="M60.8204 19.2391C60.8816 19.2446 60.9463 19.2523 61.0047 19.2725C61.1559 19.3248 61.2626 19.4819 61.3205 19.6231C61.4227 19.8726 61.4301 20.1986 61.3211 20.447C61.2443 20.622 61.1376 20.6971 60.9638 20.764C60.9165 20.7552 60.916 20.7562 60.8633 20.7405C60.6845 20.6872 60.5631 20.5695 60.4802 20.4049C60.367 20.1803 60.3557 19.8895 60.4356 19.6527C60.5087 19.4358 60.6189 19.337 60.8204 19.2391Z" fill="white"/>
<path d="M60.8746 19.5739C60.8893 19.5835 60.9042 19.5925 60.9185 19.6024C61.0172 19.6702 61.0451 19.7834 61.0632 19.8958C61.0947 20.0927 61.0561 20.285 60.9348 20.4426C60.8047 20.3187 60.7294 20.1835 60.7207 19.999C60.7129 19.8302 60.7664 19.7001 60.8746 19.5739Z" fill="#1C1C1C"/>
<path d="M33.6101 41.1297C33.7361 41.1333 33.8377 41.1523 33.9518 41.2084C34.0427 41.2532 34.1276 41.3107 34.1508 41.4172C34.1766 41.5351 34.1135 41.6674 34.0466 41.761C33.8181 42.0814 33.4613 42.1608 33.0976 42.22C32.9372 42.2232 32.7763 42.2022 32.6368 42.116C32.573 42.0765 32.526 42.0177 32.5166 41.9414C32.5039 41.8395 32.575 41.7133 32.6349 41.635C32.8628 41.3371 33.2495 41.1842 33.6101 41.1297Z" fill="white"/>
<path d="M33.507 41.4445C33.6021 41.4305 33.73 41.4284 33.8128 41.4818C33.8241 41.5327 33.8339 41.5266 33.8089 41.5671C33.6842 41.7694 33.3867 41.8425 33.1721 41.8963C33.0708 41.9099 32.9969 41.9226 32.8975 41.8867L32.8787 41.8444C32.8831 41.8334 32.8863 41.822 32.8919 41.8116C32.9989 41.6194 33.3073 41.5098 33.507 41.4445Z" fill="#1C1C1C"/>
<path d="M59.7267 26.2847C59.7703 26.2835 59.8137 26.2837 59.8569 26.2908C59.9629 26.3082 60.0581 26.3864 60.1164 26.4741C60.2694 26.704 60.2547 27.0702 60.2 27.3303C60.1358 27.6353 60.0292 27.8347 59.7662 28.0033C59.7499 28.0039 59.7337 28.0049 59.7175 28.0051C59.5939 28.0069 59.4755 27.9537 59.3896 27.8657C59.266 27.7393 59.2445 27.5405 59.2514 27.3725C59.2678 26.9729 59.4318 26.5582 59.7267 26.2847Z" fill="white"/>
<path d="M59.805 26.701C59.8715 26.7536 59.8922 26.7894 59.906 26.8749C59.9465 27.1269 59.8754 27.4417 59.7171 27.6417C59.658 27.6109 59.6256 27.584 59.6014 27.5193C59.5155 27.2896 59.6876 26.8964 59.805 26.701Z" fill="#1C1C1C"/>
<path d="M42.1776 33.7751C42.2474 33.7791 42.3432 33.788 42.4065 33.8212C42.5201 33.8807 42.595 34.0078 42.6371 34.125C42.7443 34.4234 42.7067 34.8273 42.5631 35.1078C42.4726 35.2845 42.358 35.3568 42.1743 35.4193C42.1375 35.4146 42.1008 35.4097 42.0644 35.4022C41.9383 35.3764 41.8402 35.3055 41.7728 35.1958C41.6292 34.962 41.6644 34.6397 41.7379 34.3891C41.8154 34.1254 41.9329 33.9088 42.1776 33.7751Z" fill="white"/>
<path d="M42.2383 34.1166C42.2453 34.1217 42.2525 34.1263 42.2591 34.1318C42.3532 34.21 42.3719 34.3638 42.378 34.4796C42.3907 34.7193 42.3216 34.9334 42.1666 35.1143C42.1376 35.0975 42.1115 35.0839 42.0855 35.0616C42.0221 35.0074 41.996 34.9202 41.9857 34.8402C41.9517 34.5751 42.0752 34.3166 42.2383 34.1166Z" fill="#1C1C1C"/>
<path d="M39.2238 37.9033C39.2892 37.8938 39.3621 37.8846 39.4279 37.8941C39.5621 37.9133 39.6976 37.9971 39.7703 38.1119C39.8771 38.281 39.8783 38.5157 39.8374 38.7052C39.7727 39.0052 39.6296 39.2156 39.3768 39.3845C39.3156 39.3954 39.2506 39.4046 39.1884 39.4012C39.0654 39.3945 38.9408 39.3336 38.8668 39.2342C38.7361 39.0588 38.739 38.779 38.7801 38.5747C38.8409 38.2719 38.9652 38.0692 39.2238 37.9033Z" fill="white"/>
<path d="M39.2913 38.205C39.3548 38.2068 39.424 38.2135 39.4722 38.2592C39.5363 38.3199 39.5546 38.3957 39.5536 38.4816C39.5508 38.7106 39.4345 38.9248 39.2806 39.0861C39.202 39.0791 39.1949 39.0645 39.1323 39.0216C39.0953 38.9594 39.0733 38.9127 39.0683 38.8392C39.0526 38.6052 39.145 38.3816 39.2913 38.205Z" fill="#1C1C1C"/>
<path d="M51.818 28.8725C51.8717 28.885 51.9283 28.8973 51.9791 28.9194C52.0938 28.9691 52.1765 29.1049 52.2142 29.2187C52.3144 29.5208 52.2255 29.97 52.0866 30.2499C51.9522 30.5207 51.7877 30.6855 51.5011 30.7833C51.4895 30.7806 51.4777 30.7779 51.4661 30.775C51.3302 30.7409 51.2219 30.7043 51.1508 30.5736C51.0401 30.3704 51.0958 30.0945 51.1608 29.8865C51.2706 29.5349 51.4796 29.0501 51.818 28.8725Z" fill="white"/>
<path d="M51.839 29.2436C51.8505 29.2507 51.8632 29.256 51.8733 29.2648C51.9663 29.3457 51.9477 29.5509 51.936 29.6593C51.9031 29.9657 51.7663 30.2762 51.5233 30.4685C51.4672 30.4371 51.4426 30.4066 51.4054 30.3547C51.3509 29.976 51.6264 29.5425 51.839 29.2436Z" fill="#1C1C1C"/>
<path d="M47.2561 27.2921C47.2946 27.2961 47.3328 27.2995 47.3703 27.3096C47.5245 27.3514 47.652 27.4784 47.7266 27.6156C47.8594 27.8599 47.8488 28.2092 47.7729 28.4688C47.6853 28.7682 47.5397 28.9472 47.2714 29.0989C47.2005 29.1016 47.1158 29.1099 47.0475 29.0886C46.9211 29.049 46.8166 28.8994 46.7684 28.7828C46.641 28.4747 46.6739 28.0511 46.8022 27.7484C46.9015 27.5141 47.0215 27.3865 47.2561 27.2921Z" fill="white"/>
<path d="M47.293 27.6046C47.3262 27.6265 47.3571 27.6512 47.3859 27.6786C47.4954 27.7848 47.5299 27.978 47.5284 28.1245C47.5259 28.3699 47.4522 28.563 47.2747 28.7293C47.1817 28.7177 47.1281 28.7229 47.065 28.6433C46.9967 28.5573 46.9901 28.3995 46.9956 28.2952C47.0097 28.0285 47.0978 27.7873 47.293 27.6046Z" fill="#1C1C1C"/>
<path d="M25.011 50.5405C25.0984 50.5477 25.1675 50.5541 25.2439 50.5999C25.3304 50.6518 25.3799 50.7084 25.3945 50.811C25.4168 50.9678 25.2604 51.1984 25.1733 51.3163C24.8869 51.7038 24.4801 51.9387 24.0094 52.016C23.9462 52.0028 23.878 51.9916 23.8185 51.9662C23.7269 51.927 23.6179 51.8106 23.5984 51.7113C23.5665 51.5492 23.6927 51.358 23.7833 51.2351C24.0706 50.8453 24.5383 50.6094 25.011 50.5405Z" fill="white"/>
<path d="M24.8474 50.8213C24.9507 50.8253 24.9678 50.8162 25.0505 50.8845C25.0518 50.9164 25.0545 50.9259 25.0425 50.9604C24.9238 51.3021 24.3892 51.6179 24.0705 51.7379C24.0469 51.7405 23.998 51.7471 23.9755 51.7439C23.9161 51.7354 23.9002 51.6955 23.8719 51.6505C23.8784 51.5972 23.8859 51.5541 23.9105 51.5056C24.0898 51.1516 24.4916 50.9462 24.8474 50.8213Z" fill="#1C1C1C"/>
<path d="M44.8504 47.1506C44.9873 47.1429 45.1041 47.1457 45.2332 47.1973C45.312 47.2288 45.3722 47.278 45.3985 47.3619C45.4297 47.4615 45.3751 47.6017 45.3333 47.6921C45.1269 48.139 44.6381 48.4705 44.184 48.6275C44.0371 48.6609 43.9055 48.6738 43.7587 48.6287C43.6996 48.6106 43.6464 48.5731 43.6219 48.5151C43.5666 48.3844 43.6295 48.2197 43.6854 48.0986C43.9128 47.606 44.3601 47.3284 44.8504 47.1506Z" fill="white"/>
<path d="M44.8862 47.4692C44.9327 47.4776 44.9582 47.4921 44.9992 47.5144L45.0166 47.5872C44.8592 47.9272 44.4166 48.1977 44.0815 48.3423C44.0026 48.329 44.0071 48.3195 43.9523 48.2674C43.9506 48.2288 43.9551 48.2049 43.9742 48.1708C44.1513 47.8528 44.5451 47.5733 44.8862 47.4692Z" fill="#1C1C1C"/>
<path d="M30.4137 46.6717C30.6036 46.6594 30.7675 46.6649 30.9343 46.7671C31.0771 46.8545 31.1713 46.9905 31.2026 47.155C31.2348 47.3239 31.1899 47.4979 31.0896 47.6362C30.9133 47.8794 30.6576 47.9402 30.3775 47.9763C30.2003 47.9621 30.0237 47.9469 29.8598 47.8711C29.7331 47.8124 29.6184 47.7086 29.5778 47.5716C29.5358 47.43 29.5753 47.2808 29.6508 47.158C29.8209 46.8815 30.1115 46.7475 30.4137 46.6717Z" fill="white"/>
<path d="M30.4968 46.9961C30.5911 47.0004 30.681 47.0056 30.7676 47.0472C30.8626 47.0929 30.8811 47.1463 30.9107 47.2387C30.8975 47.327 30.8767 47.3793 30.8185 47.4486C30.6789 47.6147 30.5044 47.6301 30.3001 47.6428C30.2136 47.6306 30.1168 47.6193 30.0341 47.5916C29.9529 47.5644 29.9286 47.5185 29.8945 47.446C29.8989 47.3836 29.9063 47.3539 29.9418 47.3002C30.059 47.1236 30.2987 47.0306 30.4968 46.9961Z" fill="white"/>
<path d="M49.2813 20.7838C49.3466 20.7855 49.4142 20.787 49.4777 20.8035C49.6517 20.8485 49.8016 21.0021 49.8914 21.1512C50.0563 21.4247 50.1141 21.8056 50.0214 22.1128C49.9501 22.3495 49.8224 22.4695 49.6103 22.585C49.5333 22.6 49.4475 22.6125 49.3691 22.5995C49.2026 22.5719 49.0505 22.4512 48.9654 22.3088C48.808 22.0457 48.7845 21.6786 48.8562 21.3854C48.9245 21.106 49.0398 20.9363 49.2813 20.7838Z" fill="white"/>
<path d="M49.3505 21.1236C49.4074 21.1393 49.4667 21.1521 49.5142 21.1894C49.6587 21.3029 49.7259 21.5278 49.7347 21.7037C49.7459 21.93 49.7079 22.1189 49.552 22.2861C49.4644 22.2732 49.3992 22.2718 49.326 22.2177C49.203 22.1268 49.1482 21.916 49.1416 21.7724C49.1301 21.5224 49.1838 21.3108 49.3505 21.1236Z" fill="#1C1C1C"/>
<path d="M53.505 16.887C53.5309 16.8919 53.5568 16.8976 53.5826 16.9038C53.8687 16.974 54.1068 17.21 54.2492 17.4601C54.3867 17.7018 54.4545 17.9954 54.3707 18.2669C54.3011 18.492 54.1585 18.6249 53.9573 18.736C53.8524 18.744 53.7573 18.745 53.6586 18.7026C53.4107 18.596 53.2462 18.292 53.1643 18.0497C53.0694 17.7687 53.0264 17.4264 53.1691 17.1533C53.2486 17.0012 53.3456 16.9394 53.505 16.887Z" fill="white"/>
<path d="M53.4863 17.2555C53.5763 17.2737 53.6611 17.2933 53.7366 17.3486C53.7606 17.3664 53.7838 17.3853 53.806 17.4053C53.8281 17.4253 53.8493 17.4465 53.8693 17.4686C53.8894 17.4908 53.9082 17.5139 53.926 17.538C53.9437 17.5621 53.9602 17.587 53.9754 17.6127C53.9907 17.6384 54.0046 17.6649 54.0171 17.692C54.0297 17.7191 54.0409 17.7468 54.0507 17.7751C54.0605 17.8033 54.0688 17.832 54.0757 17.8611C54.0826 17.8902 54.0881 17.9196 54.092 17.9492C54.1155 18.1349 54.0646 18.2285 53.9529 18.3729C53.8797 18.3999 53.8234 18.4057 53.7499 18.3705C53.6279 18.312 53.554 18.1841 53.5069 18.0626C53.404 17.7975 53.365 17.5173 53.4863 17.2555Z" fill="#1C1C1C"/>
<path d="M37.3221 43.2851C37.4675 43.2652 37.5884 43.2543 37.7173 43.3395C37.8224 43.4091 37.8765 43.5178 37.8941 43.6403C37.9399 43.9604 37.7923 44.3428 37.6 44.5937C37.398 44.857 37.166 44.9942 36.8399 45.0436C36.769 45.0396 36.6963 45.0364 36.6263 45.0243C36.5123 45.0047 36.3857 44.9361 36.3268 44.8333C36.2528 44.7044 36.2834 44.5382 36.3281 44.4052C36.4853 43.9371 36.8824 43.4973 37.3221 43.2851Z" fill="white"/>
<path d="M37.3389 43.5998C37.35 43.5994 37.3611 43.5983 37.3721 43.5984C37.4795 43.599 37.5101 43.629 37.5803 43.7025C37.6283 43.8521 37.5876 43.9933 37.522 44.1323C37.3842 44.4241 37.2027 44.6082 36.9013 44.7177C36.7942 44.7056 36.723 44.7128 36.6436 44.6371C36.6323 44.5902 36.624 44.5488 36.6329 44.5004C36.6919 44.1813 37.0815 43.7852 37.3389 43.5998Z" fill="#1C1C1C"/>
<path d="M47.0583 33.9326C47.1355 33.9337 47.2205 33.9323 47.2936 33.9597C47.4298 34.0107 47.5355 34.131 47.5892 34.2635C47.724 34.5962 47.6374 35.0542 47.4999 35.3769C47.3684 35.6858 47.1968 35.893 46.8843 36.019C46.807 36.0156 46.7284 36.0121 46.653 35.9942C46.5126 35.9609 46.393 35.866 46.3215 35.7414C46.2039 35.5364 46.2314 35.2805 46.2887 35.0617C46.4008 34.6343 46.6739 34.1593 47.0583 33.9326Z" fill="white"/>
<path d="M47.1038 34.2374C47.1291 34.2409 47.1438 34.2417 47.169 34.2517C47.2345 34.2776 47.2713 34.329 47.3006 34.3908C47.4102 34.6217 47.3258 34.9622 47.2389 35.1919C47.1436 35.4437 47.0527 35.5996 46.8061 35.713C46.7412 35.6939 46.6751 35.6749 46.6261 35.625C46.5654 35.5632 46.5447 35.4738 46.5436 35.3898C46.5387 35.0185 46.8548 34.5008 47.1038 34.2374Z" fill="#1C1C1C"/>
<path d="M53.8562 21.1409C53.9309 21.1436 53.9998 21.152 54.07 21.1784C54.2374 21.2415 54.3576 21.4173 54.4279 21.5739C54.6211 22.0043 54.6336 22.6767 54.4555 23.1111C54.3594 23.3459 54.2419 23.4728 54.007 23.5663C53.9252 23.5655 53.8399 23.5666 53.7617 23.5394C53.5936 23.481 53.4695 23.3194 53.3961 23.1639C53.1984 22.7459 53.2083 22.0979 53.3742 21.6709C53.4777 21.4047 53.5977 21.2584 53.8562 21.1409Z" fill="white"/>
<path d="M53.8803 21.4772C53.9619 21.5124 54.0168 21.5369 54.0712 21.6119C54.2782 21.8985 54.2674 22.513 54.1917 22.8444C54.1457 23.0467 54.1004 23.1588 53.9209 23.267C53.8712 23.2349 53.8167 23.2049 53.7752 23.1618C53.5943 22.9736 53.5568 22.6184 53.5614 22.3684C53.5673 22.0438 53.6425 21.7101 53.8803 21.4772Z" fill="#1C1C1C"/>
</g>
<defs>
<clipPath id="clip0_107_4627">
<rect width="66" height="66" rx="10" fill="white"/>
</clipPath>
</defs>
</svg>
