<svg width="66" height="66" viewBox="0 0 66 66" fill="none" xmlns="http://www.w3.org/2000/svg">
<g clip-path="url(#clip0_107_4622)">
<path d="M0 0H66V19.5756V21.3908V66H0V31.7403V31.0962V0Z" fill="white"/>
<path d="M23.5675 31.5069C23.653 31.7585 23.6774 32.0573 23.721 32.3206L23.9749 33.8755C23.7271 33.957 23.4766 34.0254 23.2249 34.0936C23.1082 34.1241 22.9753 34.157 22.8633 34.1062C22.8682 33.8906 23.1426 33.1873 23.2185 32.9153C23.3459 32.4486 23.4622 31.9791 23.5675 31.5069Z" fill="#1C1C1C"/>
<path d="M22.5623 34.7428C22.7181 34.7597 22.8736 34.7791 23.0288 34.8009C23.2713 35.3159 23.3931 35.9055 23.3261 36.4738C23.264 37.0015 23.0477 37.4369 22.6268 37.7703L22.2495 37.5536C21.919 37.3556 21.5911 37.149 21.2833 36.9171C21.7971 36.2319 22.2109 35.524 22.5623 34.7428Z" fill="#1C1C1C"/>
<path d="M47.7182 25.4233C47.7187 25.5556 47.7207 25.6898 47.7531 25.8189C47.8627 26.2551 48.1209 26.5071 48.494 26.7294C47.5214 27.0772 46.9837 27.3662 46.2072 28.0384C46.0829 27.9883 45.9637 27.9184 45.8449 27.8564C45.483 27.6506 45.134 27.4238 44.783 27.2004C45.7485 26.5868 46.753 26.0385 47.7182 25.4233Z" fill="#1C1C1C"/>
<path d="M46.3538 23.748L46.3768 23.7477C46.4461 23.7894 46.4815 24.2393 46.5261 24.362C46.6782 24.7807 47.143 25.0244 47.5231 25.195C46.4443 25.6991 45.4264 26.3142 44.4248 26.9551L43.8411 26.5883C43.2779 26.2319 42.7361 25.8169 42.1951 25.4269C43.5434 24.7838 44.9627 24.2879 46.3538 23.748Z" fill="#1C1C1C"/>
<path d="M29.2607 8.7663C29.253 8.93246 28.4881 9.5525 28.3265 9.7046C26.0698 11.8287 24.0603 14.3884 23.1878 17.3995C22.7891 17.3656 22.3886 17.3658 21.9887 17.3602C21.972 17.3479 21.9662 17.3254 21.9559 17.3074C21.9638 17.2773 21.9712 17.2472 21.9804 17.2176C22.1419 16.7016 22.3961 16.1887 22.6364 15.7053C23.798 13.3676 25.2388 11.7151 27.289 10.1185C27.9061 9.6379 28.5724 9.13742 29.2607 8.7663Z" fill="#1C1C1C"/>
<path d="M53.7534 37.1767C53.8742 37.2312 54.3583 38.2284 54.4844 38.4405C54.7403 38.8776 55.0178 39.3005 55.3168 39.7093C56.3972 41.1894 57.7302 42.6545 59.3043 43.6165C60.4922 44.3425 61.985 44.8889 63.3839 44.5541C63.6532 45.0752 63.9664 45.6852 64.0949 46.2568C64.114 46.3415 64.1366 46.3968 64.0879 46.4734C63.659 46.4309 63.2469 46.3413 62.8357 46.212C62.1006 45.9809 61.4009 45.6453 60.7222 45.2832C58.1764 43.9247 56.4482 42.1247 54.8776 39.7327C54.3925 38.9939 53.9123 38.2177 53.5056 37.4328L53.7534 37.1767Z" fill="#1C1C1C"/>
<path d="M60.6366 32.4667L60.7789 32.4611L60.8241 32.5032C60.8116 32.8585 60.694 33.2375 60.646 33.5928C60.5505 34.2999 60.5155 35.0008 60.4986 35.7136C59.0421 35.7997 57.7554 35.3689 56.4205 34.8485C56.0076 34.677 55.6 34.4935 55.1978 34.2982C55.2066 34.0196 55.2032 33.7405 55.2034 33.4618C56.9133 32.755 58.8102 32.5828 60.6366 32.4667Z" fill="#1C1C1C"/>
<path d="M44.5684 20.6229C44.6174 20.6252 44.5943 20.6168 44.6355 20.6542L44.6225 20.7119C44.4984 21.2728 44.5224 21.8133 44.8453 22.3123C45.229 22.9053 45.8328 23.231 46.5077 23.3731C45.1818 23.7641 43.858 24.2098 42.5894 24.7598C42.3867 24.8477 42.1974 24.9623 41.9966 25.053C41.8996 25.0968 41.8641 25.1154 41.7631 25.0784C41.3189 24.7482 40.8697 24.425 40.4154 24.1087C40.1685 23.934 39.8956 23.7672 39.673 23.5626C40.9487 22.3445 42.9727 21.3599 44.5684 20.6229Z" fill="#1C1C1C"/>
<path d="M65.1267 20.2079L65.1956 20.2023L65.2349 20.2505C65.2833 21.3198 64.9739 22.3703 64.6175 23.3663C63.834 23.1187 62.985 23.106 62.1829 23.2712C58.7779 23.9723 55.96 28.0293 54.1419 30.791L54.1023 30.8307C54.0242 30.8077 54.0144 30.7848 53.9587 30.7286C53.9471 30.631 53.9601 30.5803 54.0068 30.4929C54.1143 30.2916 54.2942 30.1151 54.424 29.9254L55.6418 28.1425C58.3423 24.2147 60.5515 21.8057 65.1267 20.2079Z" fill="#1C1C1C"/>
<path d="M41.9577 18.1482C42.0837 18.2985 42.2121 18.7459 42.3552 18.9642C42.889 19.7784 43.6917 20.1327 44.6141 20.3305C42.7418 20.8757 41.0071 21.9536 39.5013 23.1705C39.4436 23.2257 39.3864 23.2713 39.322 23.3179C39.2437 23.3227 37.1824 21.9902 36.942 21.8423C38.4673 20.3834 40.1944 19.2888 41.9577 18.1482Z" fill="#1C1C1C"/>
<path d="M55.1067 34.7654C56.8291 35.5892 58.5707 36.3294 60.5167 36.0128C60.5276 37.1167 60.7319 38.2877 61.038 39.3459C61.0772 39.4815 61.3154 40.1441 61.2625 40.2438L61.1419 40.2524C60.5836 40.2438 60.0404 40.1613 59.5204 39.9506C57.73 39.2253 56.1258 37.0689 54.7836 35.6995C54.9151 35.3932 55.0268 35.0894 55.1067 34.7654Z" fill="#1C1C1C"/>
<path d="M46.2124 41.0707C46.4888 41.0601 46.8569 41.0632 47.0823 41.243C47.3489 41.4557 47.4626 41.8212 47.4874 42.149C47.5423 42.8738 47.208 43.5987 46.7415 44.1371C46.2221 44.7366 45.536 45.1769 44.7323 45.2293C43.3569 45.3192 41.9626 44.7387 40.7693 44.1077C40.4879 43.9589 40.1689 43.8075 39.9282 43.5991L40.5492 43.3174C42.3199 43.9326 44.2109 44.2913 46.042 43.703L46.078 43.6873C46.062 43.6775 44.9155 43.7838 44.7737 43.7818C43.4838 43.7643 42.2842 43.4366 41.044 43.1208C41.3428 42.9597 41.6536 42.8145 41.9577 42.663C43.5963 42.8003 45.3657 42.6584 46.8721 41.9609C46.1871 42.1039 45.5055 42.239 44.8066 42.293C44.0981 42.3478 43.3767 42.319 42.6664 42.311C43.255 42.0327 43.8204 41.6517 44.418 41.4048C44.952 41.1841 45.6405 41.1052 46.2124 41.0707Z" fill="#1C1C1C"/>
<path d="M62.47 27.6884C62.5333 27.6758 62.5451 27.6737 62.6098 27.6932C62.5833 27.8774 61.8784 29.2762 61.7472 29.5954C61.3943 30.4535 61.1201 31.3004 60.9013 32.2018C58.8946 32.1145 57.0324 32.3733 55.152 33.0982C55.0669 32.8519 55.0227 32.5791 54.9543 32.3257C57.2729 30.171 59.3001 28.4083 62.47 27.6884Z" fill="#1C1C1C"/>
<path d="M39.1241 15.4961C39.1778 15.5526 39.1477 15.7071 39.1494 15.7896C39.1504 15.8231 39.1522 15.8566 39.1548 15.89C39.1574 15.9235 39.1609 15.9568 39.1651 15.9901C39.1693 16.0233 39.1744 16.0564 39.1802 16.0894C39.1861 16.1224 39.1927 16.1553 39.2001 16.188C39.2076 16.2207 39.2158 16.2532 39.2248 16.2855C39.2338 16.3178 39.2436 16.3498 39.2541 16.3817C39.2647 16.4135 39.276 16.445 39.2881 16.4763C39.3002 16.5076 39.3131 16.5385 39.3266 16.5692C39.3402 16.5998 39.3545 16.6301 39.3696 16.6601C39.3847 16.6901 39.4004 16.7196 39.4169 16.7488C39.4334 16.778 39.4506 16.8068 39.4684 16.8352C39.4863 16.8635 39.5049 16.8914 39.5241 16.9189C39.5433 16.9464 39.5632 16.9733 39.5838 16.9998C39.6043 17.0263 39.6255 17.0523 39.6473 17.0778C39.6691 17.1033 39.6915 17.1282 39.7145 17.1525C39.7375 17.1769 39.7611 17.2008 39.7852 17.224C40.385 17.8012 41.1608 17.8983 41.9571 17.8843C39.8639 18.9682 38.2347 19.9531 36.5729 21.6422C35.6365 21.0961 34.6777 20.5929 33.6964 20.1325C34.117 19.6276 34.6115 19.1564 35.0901 18.7073C36.3557 17.5198 37.6912 16.4738 39.1241 15.4961Z" fill="#1C1C1C"/>
<path d="M54.5361 36.1445C54.8715 36.3501 55.1928 36.7816 55.4744 37.0649C56.529 38.1256 57.7461 39.4828 59.0872 40.1612C59.8095 40.5266 60.5691 40.6369 61.3442 40.387C61.6113 41.1396 61.9252 41.912 62.3083 42.6132C62.6136 43.1719 63.0399 43.7383 63.2576 44.3339C63.196 44.3821 63.114 44.3573 63.0371 44.3533C62.3208 44.3349 61.6096 44.2369 60.9294 44.0058C57.9814 43.004 55.4025 39.4576 54.0726 36.7635C54.2436 36.5698 54.388 36.3557 54.5361 36.1445Z" fill="#1C1C1C"/>
<path d="M35.8327 12.8254C35.8861 12.8886 35.911 13.0459 35.9403 13.128C36.0613 13.4677 36.2 13.759 36.4432 14.0277C37.2034 14.8676 38.2795 15.0686 39.3594 15.1235C38.7876 15.4686 38.1835 15.7597 37.6115 16.1083C36.086 17.0381 34.8178 18.1855 33.6251 19.5079C33.5011 19.6502 33.3862 19.7984 33.271 19.9477C32.4094 19.534 31.5 19.2158 30.6025 18.89C30.914 18.2826 31.375 17.7096 31.7985 17.177C33.0376 15.6188 34.4145 14.2174 35.8327 12.8254Z" fill="#1C1C1C"/>
<path d="M34.404 45.5716C34.4663 45.5634 34.4502 45.5584 34.5003 45.5723C34.8724 45.6754 35.2404 45.7707 35.62 45.8437C36.2939 45.9734 37.4726 46.0319 38.011 46.4512C38.3562 46.7199 38.3818 47.266 38.4391 47.6629C38.6096 48.8428 39.1071 50.0634 39.9563 50.9209C40.2137 51.1808 40.5054 51.396 40.7977 51.6143C40.6464 51.6365 40.4945 51.65 40.3417 51.6549C38.0403 51.747 35.563 50.6638 33.889 49.1076C33.3971 48.6502 31.9076 46.8273 31.8828 46.1738L31.9205 46.1345C32.127 46.1997 32.9185 47.1797 33.1608 47.426C33.5331 47.8047 33.9219 48.1522 34.3347 48.4858C35.4605 49.3563 36.7577 50.0811 38.1043 50.5468C38.2868 50.6099 38.5657 50.7343 38.7576 50.7134C38.2701 50.5352 37.7929 50.2981 37.3328 50.0585C35.3259 49.0139 33.9562 47.7235 32.5138 46.0044C32.6845 45.9812 32.8549 45.9428 33.0243 45.9106C33.5134 46.1566 33.985 46.4454 34.4685 46.7036C35.4443 47.2298 36.4441 47.7054 37.468 48.1305C36.2497 47.2382 34.8763 46.5595 33.5816 45.7875L34.404 45.5716Z" fill="#1C1C1C"/>
<path d="M63.0288 23.5064C63.5289 23.4539 64.0423 23.5218 64.5395 23.5783C64.0559 24.8891 63.4191 26.1521 62.7811 27.3932C62.2033 27.4401 61.6441 27.4991 61.081 27.6461C58.8534 28.2273 57.009 29.8403 55.325 31.331C55.1287 31.5011 54.9466 31.6895 54.7611 31.8712L54.3929 31.26C55.2597 29.9247 56.1437 28.5451 57.1671 27.3241C58.5768 25.6424 60.7712 23.7048 63.0288 23.5064Z" fill="#1C1C1C"/>
<path d="M29.4127 9.11542C29.4729 9.18851 29.5172 9.29253 29.5715 9.37252C29.7477 9.6322 30.0156 9.85792 30.2928 10.0038C31.1044 10.431 31.952 10.2321 32.7793 9.97754C32.6223 10.1001 32.4672 10.225 32.3138 10.3522C32.1605 10.4794 32.0091 10.6087 31.8596 10.7403C31.7101 10.872 31.5625 11.0057 31.4169 11.1416C31.2713 11.2775 31.1278 11.4156 30.9862 11.5557C30.8447 11.6959 30.7052 11.838 30.5679 11.9823C30.4305 12.1265 30.2953 12.2727 30.1621 12.4209C30.0291 12.5691 29.8982 12.7192 29.7695 12.8712C29.6408 13.0233 29.5144 13.1772 29.3902 13.3329C29.2661 13.4887 29.1442 13.6462 29.0247 13.8055C28.9051 13.9648 28.7879 14.1259 28.6731 14.2886C28.5583 14.4513 28.4458 14.6157 28.3358 14.7818C28.2258 14.9478 28.1182 15.1155 28.0131 15.2847C27.9081 15.4539 27.8055 15.6246 27.7054 15.7968C27.6053 15.969 27.5078 16.1426 27.4128 16.3177C27.3178 16.4928 27.2254 16.6692 27.1355 16.847C27.0457 17.0248 26.9586 17.2038 26.874 17.3842L26.6921 17.8212C25.6876 17.6081 24.6332 17.4837 23.6082 17.4248C24.5327 14.1188 27.0217 11.4498 29.4127 9.11542Z" fill="#1C1C1C"/>
<path d="M32.7743 10.368C32.8502 10.4215 33.1242 11.1012 33.2288 11.2662C33.2848 11.3539 33.3451 11.4386 33.4096 11.5203C33.4741 11.6019 33.5426 11.6801 33.6151 11.7548C33.6875 11.8295 33.7635 11.9004 33.8431 11.9675C33.9227 12.0345 34.0055 12.0973 34.0914 12.156C34.6656 12.5446 35.2103 12.6152 35.8831 12.4849C35.3697 12.8565 34.904 13.2939 34.4321 13.7159C32.8118 15.1646 31.2526 16.7464 30.2259 18.6859L30.1652 18.7312C29.6963 18.6383 29.2304 18.4701 28.7717 18.3348C28.2305 18.1715 27.6823 18.0362 27.1272 17.9292C27.9969 15.7712 29.4496 13.7276 31.0407 12.0419C31.5926 11.4571 32.1848 10.9142 32.7743 10.368Z" fill="#1C1C1C"/>
<path d="M63.0013 18.2534C63.4773 18.2101 64.0506 18.2992 64.4518 18.5702C64.8109 18.8127 65.0087 19.1727 65.0964 19.5874C64.2406 19.7973 63.3883 20.1333 62.5899 20.5038C58.2384 22.5234 56.1208 26.26 53.4093 29.9776L53.2594 30.1799C52.6762 29.851 52.0928 29.7205 51.4297 29.6746C52.3226 28.7737 52.9779 27.5734 53.6669 26.5138C54.3459 25.4534 55.0902 24.4409 55.8995 23.4763C57.5316 21.5443 60.3295 18.4789 63.0013 18.2534Z" fill="#1C1C1C"/>
<path d="M52.8804 37.962C53.0607 38.1524 53.1961 38.4866 53.3294 38.7167C53.5206 39.0429 53.7157 39.3668 53.9145 39.6884C54.7343 41.0243 55.6889 42.3242 56.8299 43.4065C58.8514 45.3239 61.3229 46.7725 64.1901 46.6955C64.2232 47.2539 64.2577 47.9028 63.9178 48.3842C63.6187 48.8079 63.142 48.9509 62.6595 49.0413C62.3174 49.0839 61.9908 49.0947 61.6486 49.0439C60.8088 48.9194 59.9812 48.5267 59.2507 48.1021C56.2628 46.3649 54.9307 44.0254 53.1282 41.2138C52.5414 40.2995 51.9215 39.4083 51.2686 38.54C51.8301 38.3659 52.3535 38.233 52.8804 37.962Z" fill="#1C1C1C"/>
<path d="M19.6625 43.8604C19.793 43.8535 19.8811 43.855 20.0016 43.9093C21.2193 44.458 21.8797 45.9797 22.7534 46.9322C23.2553 47.4793 23.851 47.9184 24.4707 48.3225C24.9766 48.6524 25.6142 48.9539 26.0043 49.4245C26.6588 50.2143 26.119 51.5049 25.988 52.4124C25.9469 52.6888 25.9208 52.9666 25.9095 53.2457C25.8983 53.5249 25.9021 53.804 25.9208 54.0828C25.9773 54.9966 26.3171 55.7974 26.6493 56.6357C26.5162 56.5768 26.3841 56.5156 26.2532 56.452C26.1222 56.3884 25.9925 56.3224 25.8639 56.2542C25.7353 56.186 25.6079 56.1154 25.4819 56.0426C25.3558 55.9698 25.2311 55.8948 25.1077 55.8175C24.9843 55.7402 24.8624 55.6608 24.7418 55.5791C24.6213 55.4975 24.5023 55.4138 24.3847 55.3279C24.2672 55.242 24.1512 55.154 24.0368 55.064C23.9224 54.9739 23.8097 54.8819 23.6986 54.7878C23.5875 54.6937 23.4781 54.5977 23.3705 54.4997C23.2628 54.4017 23.1569 54.3018 23.0528 54.2C22.9487 54.0982 22.8465 53.9946 22.7461 53.8892C22.6457 53.7837 22.5473 53.6765 22.4507 53.5675C22.3542 53.4586 22.2596 53.348 22.1671 53.2356C22.0745 53.1232 21.9839 53.0093 21.8954 52.8937C21.8069 52.7781 21.7205 52.661 21.6362 52.5423C21.5518 52.4236 21.4697 52.3035 21.3897 52.1819C20.153 50.3024 19.4169 47.9828 19.2413 45.7456C19.2081 45.3224 19.1531 44.8408 19.2478 44.4253C19.3104 44.1512 19.4242 44.0044 19.6625 43.8604Z" fill="#1C1C1C"/>
<path d="M20.0935 44.6349C20.318 44.639 20.4971 44.6985 20.6329 44.8873C21.0477 45.4641 21.3833 46.3473 21.7304 46.9923C22.5868 48.5833 23.6821 49.9793 24.9669 51.243C23.2925 50.2721 22.0236 48.461 21.1339 46.7816C20.8851 46.3119 20.6941 45.8005 20.4363 45.3408C20.3816 45.2433 20.3312 45.1729 20.2196 45.1423C20.1488 45.1662 20.125 45.1705 20.0974 45.2485C19.9133 45.7702 20.608 47.8256 20.8182 48.4142C21.4765 50.2665 22.6526 51.9696 24.0039 53.3828C24.3856 53.7821 24.799 54.154 25.1997 54.5342C24.8654 54.355 24.5539 54.1055 24.2564 53.8702C22.5373 52.5098 21.1791 50.6147 20.3691 48.5833C20.0944 47.8945 19.3771 45.6029 19.6853 44.9479C19.7728 44.7619 19.9087 44.7027 20.0935 44.6349Z" fill="white"/>
<path d="M32.9072 32.5639C33.9556 32.5618 35.2616 32.6563 36.1771 33.2055C36.4166 33.3492 36.6282 33.55 36.6889 33.8326C36.7763 34.2402 36.4307 34.8005 36.2094 35.1269C35.1271 36.7226 31.617 40.6821 29.7283 41.0214C29.3784 41.0842 29.0359 41.0408 28.6961 40.9458C27.4471 40.5965 25.3614 39.3903 24.1989 38.6943C23.89 38.5094 23.5684 38.3404 23.2726 38.1348L23.2732 38.0802L23.3361 38.0314C23.618 38.0071 27.8688 39.4466 28.5239 39.6457C29.255 39.8677 29.983 40.0764 30.733 40.2254L23.6155 37.5428L23.7983 37.1762C24.88 37.392 25.9961 37.4998 27.0898 37.6425C28.7042 37.8532 30.3214 38.0786 31.9446 38.2095C31.1444 37.9561 30.0808 37.8292 29.2365 37.6754C27.4672 37.3375 25.6559 37.0995 23.9034 36.6895C23.9051 36.5766 23.9118 36.4689 23.9281 36.3572C24.082 36.2787 24.7852 36.2876 25.024 36.2688C26.6062 36.144 28.1826 36.0063 29.7695 35.951C30.4697 35.9278 31.17 35.9093 31.8704 35.8955C32.3204 35.887 32.7781 35.8969 33.2261 35.8544C32.2758 35.768 31.3108 35.7576 30.3567 35.739C28.9393 35.7026 27.5218 35.7025 26.1043 35.7386C25.6104 35.7519 25.113 35.7699 24.6195 35.7952C24.4452 35.8041 24.2539 35.8581 24.0813 35.8453C24.0313 35.8416 23.9916 35.8201 23.9488 35.7963C23.8881 35.7162 23.8826 35.6619 23.8746 35.5659C23.8911 35.5475 23.9018 35.5214 23.9241 35.5106C24.096 35.4271 24.5849 35.356 24.8005 35.3053C26.1035 34.9989 27.4025 34.6919 28.7243 34.4739C29.5582 34.3366 30.3957 34.2275 31.237 34.1467C31.7739 34.0904 32.3121 34.0529 32.8517 34.0344C33.1821 34.0208 33.5786 34.0475 33.8996 33.9799C33.9146 33.9768 33.9295 33.9732 33.9445 33.9699C32.1304 33.7448 29.3684 34.0162 27.5403 34.2916C27.0466 34.366 23.9018 35.0002 23.7601 34.9747C23.7138 34.9664 23.7005 34.9141 23.6779 34.8765C23.6899 34.8587 23.7001 34.8394 23.714 34.8229C23.8184 34.6984 24.6504 34.4442 24.8579 34.3668C27.5784 33.3517 29.9791 32.639 32.9072 32.5639Z" fill="#1C1C1C"/>
<path d="M21.4843 18.2554C22.6067 18.2359 24.3136 18.3039 25.3966 18.5175C26.0107 19.0939 26.5462 19.7389 27.0568 20.407C29.5744 23.7006 31.061 27.7693 31.5854 31.8625C30.0096 32.0348 28.5151 32.4016 26.998 32.8442C26.0467 33.1165 25.132 33.4849 24.1975 33.8062C24.1962 33.706 24.192 33.6059 24.1846 33.506C23.9105 29.3451 23.29 25.9551 20.9928 22.4107C20.063 20.9759 19.0267 19.7608 17.741 18.6351C18.3588 18.5218 18.9801 18.4334 19.605 18.3701C20.2299 18.3067 20.8564 18.2685 21.4843 18.2554Z" fill="#1C1C1C"/>
<path d="M17.1986 18.7273C17.2698 18.7269 17.2417 18.7181 17.3024 18.752C17.683 18.9648 18.0642 19.4013 18.3722 19.7107C20.4407 21.7886 22.087 24.5538 22.8606 27.3844C22.4316 26.6334 21.8395 26.0118 21.0572 25.6254C19.9127 25.06 18.7133 25.1456 17.539 25.5467C16.8165 24.6071 15.983 24.0679 14.8838 23.6528C15.6304 24.2314 16.6123 24.9793 16.9618 25.8823C16.6583 26.2313 16.3453 26.5062 16.1572 26.9389C16.6947 26.533 17.2187 26.2095 17.8814 26.0558C18.91 25.8174 20.0307 25.9552 20.9303 26.526C21.8423 27.1046 22.3152 28.0763 22.5365 29.1058C23.0307 31.4035 22.1923 33.93 20.9475 35.8617C19.8563 37.5551 18.2022 39.3175 16.1621 39.7457C15.1402 39.9601 13.5598 39.7774 12.6728 39.202C12.7387 39.1912 12.8043 39.1796 12.8699 39.1671C14.3096 38.8919 15.3615 37.9525 16.161 36.7645C17.6744 34.5159 18.2478 31.0762 18.1187 28.4123C18.0974 27.9736 18.0759 27.533 17.9916 27.1012C17.8638 27.974 17.7861 28.8534 17.6525 29.7262C17.2488 32.3624 16.4995 35.2727 14.6649 37.2917C14.5221 37.4382 14.3695 37.5736 14.207 37.6979C14.0445 37.8223 13.8739 37.9341 13.6951 38.0336C12.5223 38.6758 11.0836 38.4486 9.85913 38.0882C7.03576 37.2574 3.95322 34.982 1.91096 32.8986C1.5759 32.5568 1.09276 32.1337 0.877784 31.7079C0.796889 31.5477 0.7694 31.3451 0.838364 31.1759C0.885357 31.0606 0.974657 30.9664 1.09261 30.9239C1.38158 30.8199 1.72958 31.035 1.98696 31.1518C2.80037 31.5208 3.5624 31.9538 4.28518 32.4796C4.89777 32.9253 5.53465 33.5126 6.22433 33.8261C6.52459 33.9625 6.90351 34.0485 7.2212 33.9201C7.40643 33.8452 7.53934 33.6917 7.60566 33.505C7.71736 33.1904 7.66296 32.8511 7.51124 32.5597C7.18826 31.9394 6.62816 31.6212 5.9844 31.4234C6.4524 31.7399 6.82616 32.0888 7.06812 32.6086C7.16493 32.8167 7.24466 33.0923 7.15339 33.3162C7.11923 33.4 7.05755 33.4666 6.97266 33.5014C6.77853 33.581 6.5262 33.4912 6.34978 33.4055C5.58322 33.0332 4.3823 31.8374 3.6225 31.2708C3.14035 30.9113 2.54201 30.6512 2.0989 30.2552C1.84909 30.0319 1 29.0831 0.914045 28.8033C0.870842 28.6627 0.868155 28.5093 0.942721 28.3787C1.06637 28.162 1.31447 28.0875 1.53936 28.0286C1.80118 28.3488 2.19536 28.5776 2.52187 28.8287C2.93301 29.1451 3.34013 29.4769 3.71489 29.8358C4.62421 30.7067 5.37579 31.7371 6.22041 32.6708C5.49414 31.072 4.25792 29.5411 2.75253 28.6115C2.38237 28.3829 1.98094 28.2033 1.58084 28.0344C2.36351 27.7693 3.29985 27.6941 4.01407 27.2759C4.60054 26.9324 5.03723 26.3104 5.48398 25.8105C5.81728 25.4331 6.16398 25.0685 6.52407 24.7166C6.61512 24.6251 6.70697 24.5343 6.79961 24.4443C6.89225 24.3543 6.98566 24.2651 7.07985 24.1768C7.17404 24.0884 7.26898 24.0008 7.36467 23.9141C7.46036 23.8274 7.55678 23.7415 7.65393 23.6564C7.75113 23.5714 7.84906 23.4872 7.94771 23.4038C8.04633 23.3204 8.14567 23.2379 8.24574 23.1563C8.34582 23.0746 8.44658 22.9938 8.54803 22.9139C8.64948 22.834 8.75161 22.755 8.85444 22.6769C8.95731 22.5988 9.06082 22.5215 9.16497 22.4452C9.26913 22.3688 9.37395 22.2934 9.47944 22.2189C9.58488 22.1443 9.691 22.0707 9.79777 21.998C9.90451 21.9253 10.0119 21.8536 10.1198 21.7827C10.2278 21.7119 10.3364 21.642 10.4457 21.5731C10.5548 21.5041 10.6646 21.4361 10.775 21.3691C10.8854 21.302 10.9963 21.2359 11.1078 21.1708C11.2194 21.1056 11.3314 21.0414 11.444 20.9782C11.5567 20.9151 11.6699 20.8529 11.7836 20.7916C11.8973 20.7304 12.0115 20.6701 12.1263 20.6108C12.241 20.5516 12.3562 20.4933 12.472 20.436C12.5878 20.3788 12.704 20.3226 12.8208 20.2673C12.9375 20.2121 13.0547 20.1578 13.1723 20.1046C13.29 20.0514 13.4081 19.9992 13.5267 19.9479C13.6453 19.8968 13.7643 19.8466 13.8837 19.7975C14.0032 19.7484 14.123 19.7003 14.2433 19.6533C14.3636 19.6062 14.4842 19.5602 14.6053 19.5153C14.7264 19.4703 14.8478 19.4264 14.9697 19.3835C15.0915 19.3407 15.2137 19.2989 15.3362 19.2582C15.4588 19.2174 15.5817 19.1777 15.7049 19.1391C15.8281 19.1005 15.9517 19.0629 16.0756 19.0265C16.1995 18.99 16.3237 18.9546 16.4482 18.9202C16.5727 18.8859 16.6975 18.8527 16.8226 18.8205C16.9477 18.7883 17.073 18.7573 17.1986 18.7273Z" fill="#1C1C1C"/>
<path d="M10.5868 23.6353C11.4144 23.5613 12.3479 23.9013 12.9851 24.4196C13.7093 25.0085 14.189 25.9176 14.2837 26.8445C14.2901 26.9046 14.295 26.9649 14.2985 27.0253C14.3019 27.0857 14.3039 27.1462 14.3044 27.2067C14.3048 27.2672 14.3037 27.3276 14.3011 27.3881C14.2986 27.4485 14.2945 27.5089 14.2889 27.5691C14.2834 27.6293 14.2763 27.6894 14.2677 27.7493C14.2592 27.8092 14.2492 27.8689 14.2376 27.9283C14.2261 27.9877 14.2132 28.0467 14.1987 28.1055C14.1843 28.1642 14.1684 28.2226 14.151 28.2805C14.1337 28.3385 14.1149 28.396 14.0947 28.453C14.0744 28.5101 14.0528 28.5666 14.0298 28.6225C14.0068 28.6785 13.9824 28.7338 13.9566 28.7886C13.9308 28.8433 13.9037 28.8974 13.8753 28.9508C13.8468 29.0042 13.8171 29.0568 13.786 29.1087C13.7549 29.1606 13.7226 29.2117 13.689 29.262C13.6554 29.3123 13.6205 29.3618 13.5844 29.4103C13.5484 29.4589 13.5111 29.5066 13.4726 29.5533C12.8491 30.3137 12.021 30.7101 11.0519 30.8023C10.1455 30.8396 9.31684 30.5778 8.61185 30.001C7.87734 29.4 7.36842 28.462 7.28566 27.5152C7.2051 26.5935 7.46008 25.6386 8.06374 24.9285C8.73302 24.1414 9.56028 23.716 10.5868 23.6353Z" fill="white"/>
<path d="M10.3659 24.209C11.1131 24.1369 11.8629 24.2773 12.4818 24.7181C12.5215 24.747 12.5606 24.7768 12.5988 24.8075C12.6372 24.8383 12.6747 24.87 12.7114 24.9026C12.7482 24.9352 12.7841 24.9687 12.8193 25.003C12.8544 25.0374 12.8886 25.0726 12.922 25.1086C12.9554 25.1446 12.9879 25.1814 13.0195 25.2191C13.0511 25.2567 13.0818 25.295 13.1116 25.3341C13.1413 25.3732 13.1701 25.413 13.1979 25.4535C13.2257 25.494 13.2525 25.5352 13.2783 25.577C13.3041 25.6188 13.3289 25.6612 13.3526 25.7042C13.3763 25.7472 13.399 25.7908 13.4206 25.8349C13.4422 25.8791 13.4627 25.9237 13.4822 25.9688C13.5016 26.0139 13.52 26.0595 13.5371 26.1055C13.5544 26.1515 13.5705 26.1979 13.5854 26.2447C13.6004 26.2915 13.6142 26.3386 13.6269 26.3861C13.6395 26.4336 13.651 26.4813 13.6613 26.5293C13.6717 26.5774 13.6808 26.6256 13.6888 26.6741C13.6975 26.7247 13.705 26.7754 13.7113 26.8263C13.7175 26.8773 13.7225 26.9283 13.7263 26.9795C13.7301 27.0307 13.7325 27.0819 13.7338 27.1332C13.735 27.1845 13.735 27.2358 13.7337 27.2871C13.7325 27.3384 13.73 27.3896 13.7262 27.4408C13.7224 27.4919 13.7174 27.543 13.711 27.5939C13.7048 27.6448 13.6972 27.6956 13.6885 27.7462C13.6797 27.7967 13.6697 27.847 13.6585 27.8971C13.6473 27.9472 13.6348 27.9969 13.6211 28.0464C13.6075 28.0958 13.5926 28.1449 13.5765 28.1936C13.5605 28.2424 13.5432 28.2907 13.5248 28.3385C13.5063 28.3865 13.4867 28.4339 13.466 28.4808C13.4452 28.5277 13.4233 28.5741 13.4003 28.6199C13.3772 28.6658 13.3531 28.711 13.3279 28.7557C13.3026 28.8004 13.2763 28.8444 13.2488 28.8877C13.2214 28.9311 13.193 28.9738 13.1635 29.0158C12.6652 29.7148 11.9961 30.0812 11.1588 30.219C10.4997 30.328 9.76168 30.1138 9.21325 29.7495C9.17023 29.7208 9.12793 29.6909 9.08634 29.6601C9.04479 29.6292 9.00401 29.5973 8.964 29.5645C8.924 29.5316 8.88481 29.4978 8.84644 29.463C8.80811 29.4282 8.77064 29.3925 8.73404 29.3559C8.69747 29.3193 8.66181 29.2818 8.62704 29.2435C8.59228 29.2051 8.55847 29.1659 8.52559 29.1259C8.49277 29.0859 8.46093 29.045 8.43007 29.0034C8.39922 28.9619 8.36942 28.9196 8.34068 28.8765C8.31189 28.8335 8.2842 28.7898 8.2576 28.7454C8.23096 28.701 8.20543 28.656 8.18103 28.6103C8.15662 28.5646 8.13333 28.5184 8.11116 28.4716C8.08899 28.4248 8.068 28.3775 8.04819 28.3297C8.02834 28.2819 8.00967 28.2336 7.99218 28.1849C7.97473 28.1362 7.95847 28.087 7.94339 28.0375C7.92835 27.988 7.91451 27.9381 7.90188 27.8879C7.88925 27.8377 7.87786 27.7872 7.86772 27.7364C7.85835 27.6888 7.85015 27.641 7.8431 27.5929C7.83605 27.545 7.83019 27.4968 7.8255 27.4485C7.82086 27.4002 7.81738 27.3518 7.81506 27.3033C7.81274 27.2548 7.8116 27.2063 7.81165 27.1578C7.81169 27.1093 7.81294 27.0608 7.81539 27.0123C7.81779 26.9638 7.8214 26.9154 7.82621 26.8671C7.83098 26.8188 7.83696 26.7707 7.84413 26.7227C7.85126 26.6747 7.85958 26.6269 7.86907 26.5794C7.87853 26.5317 7.88916 26.4844 7.90098 26.4373C7.91275 26.3903 7.92569 26.3435 7.93978 26.2971C7.95387 26.2506 7.96908 26.2045 7.98541 26.1589C8.00174 26.1131 8.01919 26.0679 8.03775 26.023C8.05631 25.9782 8.07595 25.9338 8.09666 25.8899C8.11737 25.846 8.13913 25.8027 8.16195 25.7598C8.18481 25.717 8.20868 25.6748 8.23356 25.6331C8.25848 25.5915 8.28439 25.5505 8.31129 25.5101C8.7943 24.7973 9.53106 24.3714 10.3659 24.209Z" fill="#1C1C1C"/>
<path d="M10.2214 24.7906C10.7617 24.7444 11.2595 24.7877 11.7406 25.0561C12.2901 25.3627 12.7355 25.9095 12.9031 26.5177C12.9137 26.5554 12.9232 26.5933 12.9319 26.6314C12.9405 26.6695 12.9482 26.7078 12.955 26.7463C12.9617 26.7849 12.9674 26.8236 12.9722 26.8624C12.977 26.9012 12.9808 26.94 12.9836 26.979C12.9865 27.018 12.9883 27.0571 12.9892 27.0962C12.9901 27.1352 12.9901 27.1743 12.989 27.2134C12.9879 27.2525 12.9859 27.2915 12.9829 27.3305C12.9799 27.3695 12.9759 27.4084 12.9709 27.4471C12.966 27.4859 12.9601 27.5246 12.9532 27.5631C12.9463 27.6015 12.9384 27.6398 12.9296 27.6779C12.9209 27.716 12.9111 27.7539 12.9004 27.7915C12.8897 27.8291 12.8781 27.8664 12.8656 27.9035C12.853 27.9405 12.8395 27.9771 12.8251 28.0135C12.8107 28.0498 12.7954 28.0858 12.7793 28.1214C12.7631 28.157 12.746 28.1922 12.728 28.2269C12.7101 28.2616 12.6913 28.2959 12.6716 28.3297C12.3274 28.9345 11.81 29.2866 11.1478 29.4684C10.5563 29.55 9.95338 29.477 9.43781 29.1601C8.91961 28.8416 8.56802 28.3192 8.43022 27.7303C8.27424 27.0632 8.39058 26.3922 8.75654 25.8145C9.11226 25.253 9.57678 24.9333 10.2214 24.7906Z" fill="white"/>
<path d="M9.97374 25.2743C10.2085 25.2588 10.4196 25.269 10.6281 25.3889C10.8459 25.5141 10.9936 25.7308 11.0519 25.9731C11.1169 26.2429 11.0778 26.5291 10.9264 26.7634C10.7653 27.0126 10.5341 27.1321 10.2519 27.1944C10.0595 27.2064 9.87648 27.1853 9.70026 27.1024C9.46552 26.992 9.28647 26.799 9.20101 26.5533C9.19005 26.5218 9.18071 26.4898 9.17297 26.4574C9.16528 26.4249 9.15926 26.3922 9.15492 26.3591C9.15058 26.326 9.14794 26.2929 9.147 26.2596C9.14605 26.2262 9.14682 26.1929 9.14932 26.1597C9.15177 26.1264 9.15593 26.0934 9.16182 26.0605C9.16766 26.0277 9.17518 25.9953 9.18438 25.9632C9.19353 25.9311 9.20432 25.8996 9.21673 25.8687C9.22915 25.8378 9.24312 25.8075 9.25863 25.778C9.41551 25.4862 9.67126 25.3637 9.97374 25.2743Z" fill="#1C1C1C"/>
<path d="M26.0402 18.6455C26.3883 18.6613 26.7726 18.7849 27.1141 18.8628C29.229 19.3455 31.7586 20.1574 33.6902 21.1381C34.2924 22.0764 34.7874 23.0622 35.2552 24.0733C37.0383 27.9276 38.0256 32.1033 37.7855 36.3586C37.7528 36.9473 37.7006 37.5341 37.6287 38.1192C37.5569 38.7044 37.4655 39.2865 37.3547 39.8655C37.3175 40.059 37.2044 40.3119 37.2274 40.5002C37.3124 40.2818 37.3674 40.05 37.4294 39.824C37.7403 38.6907 37.9156 37.5466 38.0225 36.3784C38.5127 31.0208 36.9691 26.0813 34.3382 21.4626C34.749 21.6415 35.15 21.8831 35.5453 22.0965C37.114 22.9435 38.5977 23.9066 40.0543 24.9332C40.481 25.2339 40.9633 25.5255 41.3484 25.8777C41.6786 26.1798 41.8204 26.7239 41.9732 27.1352C42.9264 29.7026 43.258 32.4807 43.2164 35.2052C43.2077 35.7986 43.1714 36.3903 43.1073 36.9802C43.0666 37.3528 42.971 37.7715 42.9896 38.1429C43.0064 38.1154 43.0101 38.1116 43.023 38.0768C43.1688 37.6825 43.259 37.0345 43.3351 36.6029C43.9003 33.401 43.6367 29.5922 42.3299 26.5905C43.936 27.7644 45.5791 28.8871 47.4426 29.6148C48.079 32.2265 48.0838 34.8308 47.6042 37.4723C48.3145 35.7431 48.3823 33.0643 48.2169 31.2194C48.1752 30.7533 48.0913 30.2874 48.0184 29.8252C48.5213 29.9792 49.0312 30.1047 49.5481 30.2018C50.464 30.3659 51.9639 30.4618 52.7203 30.8933C53.4703 31.3211 54.0333 32.0781 54.2518 32.9116C54.4994 33.8559 54.3098 34.8507 53.8152 35.6816C53.6191 36.011 53.3771 36.3155 53.1169 36.5965C52.3674 37.4062 51.7927 37.514 50.7521 37.7147C50.3405 37.794 49.9355 37.8965 49.5299 38.0014C47.846 38.4073 46.3535 39.2125 44.8443 40.0323C44.0281 40.4784 43.2061 40.9139 42.3785 41.3386C37.4875 43.8514 31.8557 45.8663 26.31 45.9641C25.1137 45.9852 23.9091 45.9288 22.7322 45.7C22.0833 44.8814 21.3669 43.7412 20.3675 43.3381C20.0284 43.2013 19.6388 43.1603 19.2984 43.3164C18.8821 43.5075 18.6886 43.8993 18.538 44.3048C14.194 42.8891 11.0421 40.957 7.47638 38.1629C8.22056 38.4928 8.9735 38.8051 9.76472 39.0048C10.1817 39.11 10.6468 39.1293 11.048 39.2759C11.3863 39.3995 11.6953 39.6954 12.0049 39.8847C13.0929 40.5503 14.3957 40.808 15.6611 40.6811C17.8182 40.4648 19.562 39.1479 20.888 37.5111C22.5932 38.5277 24.247 39.6002 26.0034 40.5311C26.8206 40.9641 27.7007 41.4378 28.6053 41.6502C29.8027 41.9313 30.6351 41.5086 31.6325 40.8933C31.4508 41.5305 31.2543 42.1631 31.0428 42.7911C30.9041 43.1918 30.7419 43.5835 30.6119 43.9872C31.255 42.9389 31.6602 41.7655 32.022 40.5966C32.5461 40.252 33.0319 39.7954 33.4808 39.359C34.248 38.6133 34.9384 37.792 35.6273 36.975C36.0756 36.4434 36.5647 35.9115 36.9188 35.3105C37.1576 34.9052 37.3904 34.3896 37.3873 33.9112C37.3849 33.5212 37.2041 33.1736 36.9296 32.9041C35.8485 31.8431 33.427 31.8282 31.9831 31.8517C31.211 26.664 29.628 22.5424 26.0402 18.6455Z" fill="#1C1C1C"/>
<path d="M0 0H66V19.5756C65.7441 18.8001 65.398 18.1508 64.6368 17.7708C63.7327 17.3198 62.5822 17.3971 61.6504 17.7137C58.5492 18.7671 55.1108 22.9617 53.3332 25.6052C52.6772 26.5808 51.3887 28.8644 50.4643 29.3962C49.212 29.303 47.8107 28.8871 46.688 28.3231C47.7514 27.3379 49.4093 26.8579 50.8156 26.6859C50.6363 26.6085 50.4634 26.5459 50.2721 26.5054C49.7375 26.3924 48.5775 26.3505 48.3353 25.7429C48.27 25.5793 48.3096 25.4029 48.3844 25.2498C48.4576 25.0998 48.5652 24.9767 48.6745 24.8526C48.1208 24.7657 47.4356 24.6798 47.0874 24.1797C46.9591 23.9956 46.9152 23.7764 46.9582 23.5568C47.005 23.317 47.122 23.1452 47.261 22.9516C46.5633 22.8484 45.84 22.6536 45.3958 22.0579C45.161 21.7429 45.1007 21.3836 45.1582 21.0004C45.2213 20.5783 45.4425 20.1939 45.6972 19.8589C44.7912 19.9025 43.8872 19.6781 43.2 19.0606C42.8558 18.7512 42.6812 18.4032 42.5904 17.9514C42.6774 17.6181 42.8174 17.3924 43.0348 17.1295C42.1271 17.2363 41.0288 17.4517 40.2474 16.8359C39.9546 16.6051 39.7749 16.2776 39.7417 15.9055C39.7005 15.4414 39.9391 15.0081 40.2357 14.6688C40.3626 14.5237 40.5092 14.3934 40.6504 14.2623C39.4759 14.4823 38.3521 14.6793 37.2928 13.9615C36.9088 13.7013 36.5684 13.3099 36.4854 12.8419C36.4065 12.3975 36.5773 11.9916 36.8019 11.6208C36.1123 11.8787 35.4528 12.1566 34.7287 11.8235C34.214 11.5867 33.7297 11.1139 33.5311 10.5777C33.4173 10.2707 33.4037 9.90806 33.5492 9.60848C33.6703 9.35905 33.8846 9.1294 34.059 8.91516C32.9424 9.27526 31.5903 9.98314 30.4462 9.39598C30.2553 9.29801 30.0917 9.17426 30.0183 8.96472C29.8918 8.6043 30.0875 8.19199 30.2343 7.86554C29.3293 8.19741 28.4144 8.58935 27.5803 9.07545C24.9889 10.5857 22.9869 12.9999 21.734 15.7024C21.4822 16.2453 21.2032 16.8252 21.0576 17.4067C15.0321 17.5525 9.48486 20.4175 5.37139 24.7325C4.93147 25.194 4.04977 26.3664 3.58827 26.6395C2.59573 27.2268 0.0680561 26.9672 0.074803 28.6259C0.0770305 29.1734 0.448694 29.6512 0.829318 30.0101C0.893471 30.0703 0.958558 30.1294 1.02458 30.1875C0.64457 30.2854 0.373398 30.4138 0.160787 30.7633C0.0961486 30.8696 0.0476182 30.9817 0 31.0962V0Z" fill="#1C1C1C"/>
<path d="M66 21.3908V66H0V31.7403C0.0427873 31.8454 0.0857433 31.9516 0.139233 32.0518C0.374005 32.4918 0.753044 32.8571 1.09889 33.2102C1.62086 33.7501 2.16205 34.2702 2.72245 34.7702C3.03838 35.0519 3.37696 35.3123 3.68665 35.5997C3.98374 35.8755 4.21458 36.2357 4.49278 36.533C5.0673 37.147 5.68758 37.7218 6.30755 38.2895C6.52675 38.4876 6.74856 38.6827 6.97299 38.8749C7.19742 39.067 7.4244 39.2561 7.65394 39.4422C7.88343 39.6283 8.1154 39.8113 8.34984 39.9911C8.58423 40.1709 8.82101 40.3476 9.06018 40.5211C9.29934 40.6946 9.5408 40.8648 9.78456 41.0319C10.0283 41.1989 10.2742 41.3626 10.5224 41.523C10.7705 41.6834 11.0207 41.8405 11.273 41.9942C11.5254 42.1479 11.7798 42.2981 12.0361 42.445C12.2925 42.5919 12.5508 42.7353 12.811 42.8752C13.0712 43.0151 13.3333 43.1515 13.5972 43.2844C13.861 43.4173 14.1267 43.5467 14.3941 43.6724C14.6614 43.7982 14.9304 43.9204 15.201 44.039C15.4716 44.1575 15.7438 44.2724 16.0176 44.3837C16.2913 44.4949 16.5664 44.6025 16.843 44.7063C17.1196 44.8102 17.3976 44.9103 17.6768 45.0068C17.9561 45.1032 18.2367 45.1958 18.5185 45.2847C18.5226 45.4429 18.5292 45.601 18.5383 45.759C18.5474 45.917 18.559 46.0748 18.5731 46.2325C18.5871 46.3901 18.6036 46.5475 18.6226 46.7046C18.6416 46.8617 18.6631 47.0185 18.687 47.175C18.7108 47.3314 18.7372 47.4874 18.766 47.643C18.7948 47.7987 18.826 47.9538 18.8597 48.1084C18.8933 48.2631 18.9294 48.4172 18.9679 48.5707C19.0064 48.7242 19.0473 48.877 19.0906 49.0293C19.1338 49.1815 19.1795 49.333 19.2275 49.4838C19.2755 49.6346 19.3259 49.7846 19.3787 49.9338C19.4314 50.083 19.4865 50.2314 19.5439 50.3789C19.6012 50.5264 19.6609 50.6729 19.7229 50.8186C19.7849 50.9642 19.8491 51.1088 19.9156 51.2524C19.9821 51.396 20.0509 51.5385 20.1219 51.68C20.1929 51.8214 20.2661 51.9617 20.3415 52.1009C20.4168 52.2401 20.4944 52.378 20.5741 52.5147C21.8526 54.6839 23.9385 56.4127 26.2605 57.3616C26.8658 57.6089 27.4972 57.7886 28.1295 57.9516C27.024 56.2483 26.4372 54.4435 26.6949 52.3953C26.7816 51.7073 26.9892 51.0314 26.9793 50.333C26.9598 48.9668 25.9731 48.5133 24.9655 47.8508C24.4641 47.5213 23.9984 47.1753 23.5661 46.7567C24.1659 46.7683 24.7628 46.8214 25.3633 46.8209C25.8452 46.8198 26.3268 46.8073 26.8082 46.7834C27.2895 46.7595 27.77 46.7242 28.2496 46.6774C28.7293 46.6307 29.2075 46.5727 29.6844 46.5032C30.1613 46.4338 30.6363 46.3532 31.1093 46.2612C31.9681 48.1595 33.2552 49.7451 35.0236 50.8687C36.5623 51.8463 38.4969 52.453 40.3211 52.3556C41.0328 52.3176 41.7139 52.1686 42.4074 52.0159C42.357 51.993 42.307 51.9694 42.2573 51.9451C42.2077 51.9207 42.1584 51.8957 42.1095 51.8699C42.0605 51.8441 42.012 51.8176 41.9638 51.7903C41.9157 51.7631 41.868 51.7352 41.8206 51.7066C41.7733 51.6779 41.7264 51.6486 41.68 51.6186C41.6335 51.5886 41.5875 51.5579 41.5419 51.5266C41.4964 51.4952 41.4513 51.4632 41.4066 51.4305C41.362 51.3978 41.3179 51.3644 41.2743 51.3304C41.2306 51.2965 41.1875 51.2618 41.1449 51.2266C41.1023 51.1913 41.0602 51.1555 41.0186 51.119C40.9771 51.0825 40.936 51.0453 40.8956 51.0077C40.8551 50.9699 40.8152 50.9316 40.7759 50.8927C40.7365 50.8539 40.6978 50.8144 40.6596 50.7744C40.6214 50.7344 40.5838 50.6938 40.5468 50.6527C40.5099 50.6116 40.4735 50.5699 40.4377 50.5277C40.4019 50.4855 40.3668 50.4428 40.3323 50.3995C40.2978 50.3563 40.264 50.3126 40.2307 50.2684C40.1975 50.2241 40.165 50.1794 40.1331 50.1343C40.1012 50.0891 40.0699 50.0434 40.0394 49.9973C40.0088 49.9512 39.979 49.9047 39.9498 49.8577C39.9206 49.8107 39.8921 49.7633 39.8643 49.7154C39.8365 49.6676 39.8095 49.6194 39.7831 49.5708C39.7567 49.5222 39.7311 49.4732 39.7062 49.4238C39.6812 49.3744 39.657 49.3247 39.6336 49.2746C39.6101 49.2245 39.5873 49.1741 39.5654 49.1234C39.5434 49.0726 39.5222 49.0215 39.5017 48.9702C39.4812 48.9188 39.4615 48.8671 39.4425 48.8151C39.4236 48.7631 39.4054 48.7109 39.388 48.6584C39.3706 48.6059 39.3539 48.5532 39.3381 48.5002C39.3222 48.4472 39.3071 48.394 39.2928 48.3406C39.2785 48.2871 39.265 48.2335 39.2523 48.1797C39.2396 48.1259 39.2276 48.0719 39.2165 48.0177C39.0933 47.4041 39.0774 46.6918 38.6818 46.1774C38.1199 45.4468 36.3991 45.3317 35.5362 45.2202C36.7514 44.7939 37.9789 44.4421 39.145 43.8799C39.5165 44.1042 39.8694 44.3626 40.2389 44.5915C41.4482 45.3408 42.7821 45.865 44.2194 45.9088C45.285 45.9413 46.2124 45.6173 46.9886 44.8773C47.6589 44.2383 48.1665 43.3481 48.1808 42.4048C48.1892 41.85 48.0419 41.2123 47.6365 40.8107C47.2232 40.4013 46.7096 40.3659 46.163 40.3779C47.4758 39.6195 48.9054 39.1319 50.3555 38.7176C51.0665 39.5231 51.6585 40.4175 52.2438 41.316C54.1027 44.1693 55.4849 46.6956 58.4664 48.5588C59.2997 49.0795 60.1964 49.5532 61.1619 49.7695C62.08 49.9753 63.1761 49.9147 63.9842 49.3927C64.4705 49.0784 64.7709 48.6216 64.9114 48.063C65.3684 46.2454 64.2455 44.445 63.401 42.9241C63.0554 42.3017 62.7179 41.6674 62.4272 41.017C62.3023 40.7316 62.1873 40.4422 62.0823 40.1489C61.9772 39.8557 61.8823 39.5591 61.7975 39.2593C61.7127 38.9595 61.6383 38.6572 61.5743 38.3523C61.5102 38.0474 61.4565 37.7407 61.4135 37.4322C60.9265 34.0538 61.8117 31.1477 63.2977 28.1428C63.9898 26.7433 64.7432 25.3549 65.293 23.8911C65.5991 23.075 65.8124 22.2408 66 21.3908Z" fill="#1C1C1C"/>
</g>
<defs>
<clipPath id="clip0_107_4622">
<rect width="66" height="66" rx="10" fill="white"/>
</clipPath>
</defs>
</svg>
