<svg width="66" height="66" viewBox="0 0 66 66" fill="none" xmlns="http://www.w3.org/2000/svg">
<g clip-path="url(#clip0_107_4640)">
<path d="M0 0H66V66.0645H0V32.529V31.4622V0Z" fill="white"/>
<path d="M17.264 31.4803C17.4723 31.568 17.682 31.7337 17.8762 31.8541C18.2561 32.0897 18.6272 32.2819 19.0448 32.4424C18.7653 32.4668 18.4607 32.4203 18.1832 32.3808C17.8877 32.0701 17.565 31.786 17.264 31.4803Z" fill="#1C1C1C"/>
<path d="M35.9315 39.4968C36.2083 39.6337 36.4924 39.7553 36.7749 39.8799C36.6867 39.9191 36.5945 39.9526 36.5048 39.9886C36.2838 40.0744 36.0615 40.1564 35.8378 40.2349C35.8876 39.9922 35.9063 39.743 35.9315 39.4968Z" fill="#1C1C1C"/>
<path d="M39.8203 55.1196C39.8702 55.3294 39.8101 55.777 39.8782 56.1189C39.4202 56.3383 39.0496 56.7298 38.6826 57.0717L38.6589 57.079C38.6585 57.0612 38.6543 57.043 38.6576 57.0254C38.677 56.9224 38.9798 56.5446 39.0552 56.4281C39.3285 56.006 39.5596 55.551 39.8203 55.1196Z" fill="#1C1C1C"/>
<path d="M32.8466 42.5534L32.8746 42.5568L32.8628 42.5903C32.1157 42.9847 31.2647 43.1437 30.4474 43.3198L30.0544 43.1075L29.7045 42.9434C30.8956 42.9457 31.6827 42.8639 32.8466 42.5534Z" fill="#1C1C1C"/>
<path d="M32.5997 43.2275L32.6273 43.2524C32.5491 43.461 32.4135 43.6668 32.3082 43.8637C32.1394 44.1789 31.9759 44.4969 31.8177 44.8175C31.7233 44.6544 31.6181 44.4987 31.5133 44.342C31.3568 44.1143 31.1733 43.9244 30.9742 43.7343C31.5387 43.6075 32.0698 43.463 32.5997 43.2275Z" fill="#1C1C1C"/>
<path d="M11.1683 16.8199C11.9415 16.723 12.8821 16.8378 13.6493 16.9759C13.6322 17.1533 13.5938 17.3222 13.5542 17.4955C12.496 17.2624 11.4536 17.1393 10.3689 17.1928C9.53379 17.2355 8.70841 17.4375 7.89868 17.6338C8.91801 17.1328 10.0434 16.9119 11.1683 16.8199Z" fill="#1C1C1C"/>
<path d="M32.7037 31.1555C32.7115 31.2262 32.7139 31.2005 32.7026 31.2655C32.5925 31.8974 32.5533 32.5128 32.5414 33.1529C32.3138 33.2841 32.086 33.411 31.8515 33.5294L31.3145 33.1311L30.8959 32.8503C31.5338 32.316 32.1677 31.7979 32.7037 31.1555Z" fill="#1C1C1C"/>
<path d="M21.1895 39.0719C21.3335 39.1008 22.1704 39.85 22.3541 39.9896C22.8928 40.3991 23.4481 40.7961 24.0246 41.151C24.9317 41.7096 25.972 42.1269 26.9686 42.4975L26.9961 42.5435C26.6789 42.5663 26.3625 42.6093 26.0455 42.6279C24.6226 41.9737 23.333 41.1797 22.1765 40.1172C21.8299 39.7988 21.549 39.3599 21.1895 39.0719Z" fill="#1C1C1C"/>
<path d="M4.52132 47.5364C4.63669 47.8393 4.60069 48.257 4.55415 48.5727C4.46225 49.196 4.23003 49.9119 3.694 50.2932C3.28247 50.5859 2.86246 50.5615 2.39187 50.4844L2.26349 50.4394C2.27274 50.3721 2.94656 49.9425 3.07169 49.8316C3.75675 49.2243 4.22449 48.3935 4.52132 47.5364Z" fill="#1C1C1C"/>
<path d="M33.7516 17.034L33.7836 17.0403C33.5835 17.22 33.0093 17.4408 32.7413 17.607C32.5011 17.7568 32.2661 17.9144 32.0364 18.08C31.8067 18.2455 31.5828 18.4185 31.3646 18.5991C31.1465 18.7797 30.9346 18.9673 30.7291 19.1621C30.5235 19.3568 30.3247 19.5582 30.1326 19.7663C29.855 20.0653 29.5896 20.3748 29.3364 20.6948C29.0833 21.0147 28.8431 21.3442 28.6158 21.6831C28.4857 21.8739 28.2288 22.4462 28.0679 22.5521L28.0267 22.5061C27.9477 22.2999 27.88 22.0895 27.8101 21.8801C27.8517 21.8099 27.894 21.7402 27.9371 21.6709C27.9801 21.6017 28.024 21.5329 28.0686 21.4646C28.1132 21.3963 28.1585 21.3285 28.2046 21.2612C28.2507 21.1939 28.2975 21.1271 28.3451 21.0608C28.3926 20.9946 28.4409 20.9288 28.4899 20.8636C28.5389 20.7984 28.5886 20.7337 28.6391 20.6696C28.6895 20.6055 28.7406 20.542 28.7924 20.479C28.8442 20.416 28.8967 20.3536 28.9499 20.2917C29.0031 20.2299 29.057 20.1687 29.1115 20.1081C29.166 20.0474 29.2212 19.9874 29.2771 19.928C29.3329 19.8686 29.3895 19.8097 29.4466 19.7515C29.5038 19.6934 29.5616 19.6359 29.62 19.579C29.6784 19.5221 29.7374 19.4658 29.7971 19.4102C29.8568 19.3546 29.917 19.2996 29.9779 19.2454C30.0387 19.1911 30.1002 19.1375 30.1622 19.0846C30.2243 19.0317 30.2869 18.9794 30.3501 18.9279C30.4133 18.8763 30.477 18.8255 30.5413 18.7754C30.6056 18.7252 30.6705 18.6758 30.7359 18.6271C30.8013 18.5784 30.8672 18.5304 30.9336 18.4832C31.0001 18.4359 31.0671 18.3894 31.1345 18.3436C31.202 18.2978 31.27 18.2528 31.3385 18.2085C31.4069 18.1642 31.4759 18.1207 31.5453 18.0779C31.6147 18.0352 31.6846 17.9932 31.755 17.952C31.8253 17.9107 31.8961 17.8703 31.9673 17.8306C32.0385 17.791 32.1102 17.7521 32.1823 17.714C32.2544 17.6759 32.3269 17.6387 32.3998 17.6022C32.4727 17.5657 32.5461 17.53 32.6197 17.4952C32.6934 17.4603 32.7675 17.4262 32.8419 17.393C32.9164 17.3597 32.9912 17.3273 33.0663 17.2957C33.1415 17.2642 33.217 17.2334 33.2928 17.2035C33.3687 17.1735 33.4448 17.1444 33.5213 17.1162C33.5978 17.0879 33.6745 17.0605 33.7516 17.034Z" fill="#1C1C1C"/>
<path d="M44.8231 43.6976C45.1322 43.8422 45.4296 44.0313 45.7342 44.1881C46.3844 44.5228 47.0552 44.7749 47.7603 44.967C47.4034 45.1773 47.0637 45.4152 46.7211 45.6478C46.2916 45.9592 45.8807 46.2887 45.4687 46.6228C45.3344 45.6143 45.1137 44.6729 44.8231 43.6976Z" fill="#1C1C1C"/>
<path d="M6.8949 19.9286C7.05616 20.1934 7.17346 20.505 7.3074 20.7856C7.54269 21.2864 7.80152 21.7747 8.08386 22.2505C9.20225 24.1235 11.3408 26.524 13.1314 27.7625C13.5931 28.0817 14.0814 28.3329 14.5888 28.5684C14.7493 28.8229 14.9059 29.0798 15.0585 29.339C14.6908 29.1838 14.3096 28.8474 13.9826 28.6166C13.2341 28.0884 12.4846 27.5449 11.7166 27.0463C11.393 26.8362 11.0308 26.761 10.7047 26.5748C10.4086 26.4058 10.1567 26.0406 9.94772 25.7727C8.73851 24.2225 7.38236 21.8231 6.8949 19.9286Z" fill="#1C1C1C"/>
<path d="M64.6652 26.0576C64.6691 26.0942 64.6716 26.1004 64.6652 26.1423C64.6098 26.5182 64.3676 26.9631 64.2212 27.3157C63.046 30.147 60.7426 32.4962 58.2293 34.184L57.9369 33.8618L57.5988 33.4966C57.7519 33.4031 57.9038 33.3076 58.0544 33.21C58.2049 33.1125 58.3542 33.0129 58.5021 32.9112C58.65 32.8096 58.7965 32.706 58.9416 32.6005C59.0867 32.4949 59.2303 32.3874 59.3725 32.2779C59.5147 32.1685 59.6554 32.0571 59.7946 31.9439C59.9338 31.8306 60.0714 31.7155 60.2075 31.5985C60.3436 31.4815 60.4781 31.3627 60.611 31.2421C60.7438 31.1215 60.8751 30.9991 61.0046 30.875C61.1342 30.7508 61.2621 30.625 61.3883 30.4973C61.5145 30.3697 61.6389 30.2404 61.7616 30.1094C61.8843 29.9785 62.0052 29.8458 62.1243 29.7116C62.2434 29.5773 62.3607 29.4415 62.4762 29.3041C62.5916 29.1666 62.7052 29.0277 62.8169 28.8872C62.9286 28.7467 63.0384 28.6047 63.1462 28.4613C63.2541 28.3178 63.36 28.1729 63.464 28.0266C63.5679 27.8803 63.6699 27.7326 63.7699 27.5835C64.0963 27.0914 64.3791 26.5736 64.6652 26.0576Z" fill="#1C1C1C"/>
<path d="M64.7902 24.6388C64.7954 24.6837 64.7908 24.7124 64.7773 24.757C64.6665 25.123 64.4026 25.5073 64.2202 25.8481C64.1352 26.0036 64.048 26.1579 63.9587 26.311C63.8694 26.464 63.7779 26.6158 63.6842 26.7663C63.5906 26.9168 63.4949 27.0659 63.3971 27.2137C63.2993 27.3615 63.1994 27.5079 63.0975 27.6528C62.9955 27.7978 62.8915 27.9413 62.7855 28.0833C62.6795 28.2253 62.5715 28.3658 62.4616 28.5048C62.3516 28.6438 62.2397 28.7812 62.1259 28.917C62.0121 29.0528 61.8964 29.187 61.7788 29.3195C61.6611 29.452 61.5416 29.5829 61.4203 29.7121C61.299 29.8412 61.1759 29.9686 61.051 30.0943C60.9262 30.22 60.7995 30.3439 60.6711 30.4661C60.5427 30.5882 60.4126 30.7084 60.2808 30.8268C60.149 30.9453 60.0156 31.0618 59.8806 31.1765C59.7455 31.2912 59.6088 31.4039 59.4706 31.5147C59.3323 31.6255 59.1925 31.7343 59.0512 31.8411C58.9099 31.948 58.7671 32.0528 58.6228 32.1557C58.1586 32.4913 57.6884 32.8427 57.1781 33.1056L56.7113 32.736L56.33 32.4472C59.7548 30.6466 62.6255 27.8281 64.7902 24.6388Z" fill="#1C1C1C"/>
<path d="M34.0204 36.2539C34.8233 36.8201 35.702 37.4803 36.6235 37.8245C38.1852 38.4077 39.7123 37.999 41.1709 37.3357C41.0969 37.873 41.0502 38.3938 41.1243 38.9348C41.1495 39.1346 41.1776 39.334 41.2085 39.533C39.2755 39.7362 37.4672 39.5288 35.7836 38.4876C34.8978 37.9397 34.2628 37.2871 34.0204 36.2539Z" fill="#1C1C1C"/>
<path d="M30.8689 52.9991C30.8886 53.0279 30.882 53.0137 30.8926 53.0504C31.0254 53.4977 31.1828 53.9362 31.3648 54.3659C30.7468 54.8322 30.185 55.3732 29.559 55.8367C27.667 57.2375 25.3731 58.2517 23.0865 58.7848C23.2528 58.7973 23.417 58.8022 23.5834 58.7884C24.1939 58.7375 24.7841 58.5547 25.3628 58.3626C27.6534 57.6022 29.816 56.2833 31.3846 54.4315C31.5191 54.647 31.6362 54.8739 31.7572 55.0971C30.758 56.1575 29.6623 56.9954 28.4042 57.7242C26.7174 58.6683 24.8488 59.344 22.9047 59.4406C21.2239 59.524 20.101 59.1094 18.5958 58.4588C18.1338 58.259 17.6673 58.0988 17.2879 57.7568C18.7007 58.4516 20.4 58.5627 21.9454 58.3781C25.5036 57.9531 28.6919 55.77 30.8689 52.9991Z" fill="#1C1C1C"/>
<path d="M25.0937 8.41427C25.1146 8.41407 25.1355 8.41356 25.1563 8.41369C25.2983 8.4144 25.4097 8.45594 25.5077 8.56078C25.9162 8.99807 26 9.88878 26.0966 10.4572C26.625 13.5678 26.6072 16.3446 26.5628 19.4765C26.3016 19.0217 25.9879 18.6068 25.6533 18.2048C24.779 17.1534 23.8942 16.4598 22.847 15.6078C22.9529 15.0299 23.0011 14.4428 23.1152 13.8645C23.4086 12.3783 24.2326 9.63749 25.0937 8.41427Z" fill="#1C1C1C"/>
<path d="M9.83607 17.5941C11.0422 17.4815 12.2889 17.7856 13.4501 18.0746C13.4014 18.747 13.2647 19.4383 13.1782 20.1084C13.0773 19.9997 12.9709 19.8969 12.8588 19.7998C12.7467 19.7028 12.6297 19.6121 12.5078 19.5279C11.4912 18.8165 9.95292 18.2879 8.7055 18.5247C8.55042 18.5541 8.3695 18.5838 8.2772 18.721L8.29751 18.8008C8.57569 19.0841 9.01113 19.0672 9.38225 19.1015C10.9271 19.244 12.1251 19.7964 13.1183 20.9917C13.102 21.9489 13.0266 22.8425 13.1752 23.7976C12.5726 23.1148 11.8918 22.5439 11.2174 21.9354C10.3386 21.1425 9.29305 20.0855 8.2192 19.5723C8.0569 19.4947 7.92136 19.4522 7.74824 19.514C7.68958 19.5711 7.65214 19.5974 7.64872 19.6865C7.64215 19.8585 7.78981 20.0283 7.89519 20.1478C8.64652 20.7657 9.44632 21.336 10.2056 21.9471C10.9581 22.5526 11.6863 23.2107 12.3932 23.8687C12.6785 24.1342 13.0859 24.451 13.2705 24.7947C13.4795 25.1839 13.5391 25.7079 13.6677 26.1348C13.815 26.6232 13.9955 27.1036 14.1674 27.5838C13.5486 27.1466 12.9287 26.7138 12.3492 26.2245C12.2259 26.12 12.104 26.014 11.9834 25.9064C11.8628 25.7989 11.7436 25.6898 11.6259 25.5792C11.5081 25.4686 11.3917 25.3564 11.2768 25.2429C11.1618 25.1293 11.0484 25.0142 10.9364 24.8978C10.8244 24.7813 10.7139 24.6634 10.6049 24.5441C10.4959 24.4248 10.3885 24.3041 10.2825 24.1821C10.1766 24.06 10.0723 23.9366 9.96955 23.8119C9.86677 23.6872 9.7656 23.5612 9.66604 23.4339C9.56648 23.3066 9.46856 23.1781 9.37226 23.0483C9.27597 22.9185 9.18135 22.7875 9.08841 22.6552C8.99547 22.523 8.90423 22.3896 8.81468 22.2551C8.72517 22.1206 8.63737 21.9849 8.55126 21.8481C8.46519 21.7113 8.38087 21.5735 8.29828 21.4345C8.21574 21.2956 8.13496 21.1556 8.05594 21.0146C7.97696 20.8736 7.89977 20.7316 7.82436 20.5886C7.74899 20.4456 7.67545 20.3017 7.60373 20.1569C7.33593 19.6055 7.02572 19.0074 6.85324 18.4174C6.83403 18.3516 6.77976 18.1665 6.8243 18.1065C7.01412 17.8515 9.36717 17.6341 9.83607 17.5941Z" fill="#1C1C1C"/>
<path d="M25.6343 6.70432C25.81 6.71309 25.9564 6.7867 26.1023 6.87967C26.4908 7.12741 26.846 7.44902 27.2008 7.74225C29.9709 10.031 31.6926 13.2156 32.4545 16.6948C32.151 16.8586 31.8432 17.0101 31.5326 17.1596C31.3996 16.6088 31.3464 16.0308 31.2313 15.4742C31.1651 15.1657 31.0904 14.8593 31.0072 14.5549C30.9241 14.2505 30.8326 13.9486 30.7328 13.6493C30.633 13.35 30.525 13.0536 30.4089 12.7603C30.2927 12.4669 30.1685 12.177 30.0363 11.8905C29.4852 10.6947 28.7941 9.52406 27.8759 8.57393C27.7497 8.44328 27.5613 8.22406 27.3861 8.16761C27.3172 8.14541 27.3045 8.15502 27.2432 8.18438C27.228 8.2687 27.2518 8.31225 27.2974 8.38464C27.4717 8.66064 27.6899 8.92109 27.8776 9.18993C28.1409 9.56709 28.3821 9.96012 28.6255 10.3504C30.1963 12.8693 30.6065 14.5432 31.0196 17.4355C30.6999 17.6216 30.3994 17.8564 30.1076 18.083C30.0437 14.9861 29.2427 10.9697 27.1576 8.57709C27.0726 8.47741 26.9863 8.36051 26.8464 8.35173C26.7653 8.34664 26.7035 8.36915 26.6419 8.41644C26.6239 8.48864 26.6336 8.54864 26.6516 8.61967C26.7712 9.09419 27.0988 9.49354 27.345 9.90657C27.528 10.2136 27.6933 10.5416 27.845 10.8652C28.9386 13.1963 29.4658 15.9318 29.4934 18.4963C28.7324 19.2507 28.0237 20.0532 27.4638 20.9719C27.3578 20.7599 27.292 20.5968 27.2724 20.3558C27.2119 19.6088 27.3023 18.7999 27.3187 18.0468C27.3408 16.7285 27.3253 15.4106 27.2721 14.0931C27.2072 12.7759 27.072 11.4733 26.804 10.1811C26.6878 9.6207 26.5881 8.97232 26.3023 8.47051C26.046 8.02044 25.6008 7.7689 25.1198 7.6287C24.9938 7.66599 24.8608 7.71032 24.7537 7.78819C24.3919 8.05115 24.1817 8.58541 23.9902 8.97902C22.9284 11.1616 22.5392 12.8036 22.1572 15.1808C21.82 14.9544 21.4781 14.7356 21.1313 14.5243C21.1537 14.005 21.2789 13.4504 21.4127 12.948C21.9596 10.8943 23.171 8.93219 24.7068 7.47619C24.9904 7.20728 25.2964 6.90064 25.6343 6.70432Z" fill="#1C1C1C"/>
<path d="M35.9628 16.4461C35.9885 16.4608 35.9975 16.4639 36.0202 16.4887C36.2117 16.6983 36.5012 17.3438 36.661 17.6255C37.8168 19.6631 38.7393 21.6442 38.8413 24.0304L38.2138 24.3219C38.3244 23.6709 38.3135 22.9203 38.2613 22.263C38.226 21.8181 37.8953 19.8769 37.497 19.6256C37.4199 19.5768 37.4008 19.5877 37.318 19.6081C37.2603 19.8036 37.5287 20.4176 37.5938 20.6432C37.9532 21.8889 38.0686 23.2656 37.8571 24.5487C37.3636 24.8328 36.9016 25.1503 36.4724 25.5254C36.8844 24.129 37.4896 20.6124 36.8256 19.3503C36.7712 19.2467 36.6897 19.1311 36.5665 19.1075C36.4884 19.0925 36.4324 19.1188 36.3675 19.1573C36.2724 19.3527 36.3944 20.7157 36.3937 21.0543C36.3908 22.4147 36.1874 23.7277 35.8971 25.053C35.8235 25.3892 35.7703 25.7621 35.6342 26.0779C35.4957 26.3991 35.1707 26.6701 34.9448 26.9353C34.7088 27.2124 34.4772 27.4994 34.2668 27.7966C33.7773 28.4879 33.4644 29.2484 33.0317 29.9681C32.4105 31.0013 31.5642 31.9063 30.7154 32.7525C30.434 32.5768 30.1444 32.4149 29.8564 32.2505C29.6433 32.1401 29.4231 32.0414 29.2061 31.9387C29.5428 31.5117 29.957 31.1389 30.3086 30.721C31.082 29.8019 31.7381 28.799 32.3373 27.7599C33.1382 26.3709 36.3819 19.7056 35.9547 18.2583C35.8918 18.045 35.7621 17.8505 35.5583 17.7504C35.2348 17.5915 34.8283 17.6588 34.5007 17.7717C32.5543 18.4425 30.7503 20.8765 29.7147 22.5951C29.2506 23.3654 28.852 24.1614 28.4623 24.9708C28.4376 24.2355 28.2777 23.5548 28.1012 22.8448C28.44 22.2305 28.928 21.6547 29.3773 21.1187C30.3806 19.922 31.5462 18.8203 32.8933 18.0164C33.4552 17.6811 34.0505 17.4164 34.6374 17.1292C35.0839 16.9108 35.5186 16.6692 35.9628 16.4461Z" fill="#1C1C1C"/>
<path d="M34.9635 18.391C35.0554 18.3869 35.0975 18.3745 35.1792 18.4198C35.2253 18.4997 35.2406 18.5688 35.2471 18.6612C35.334 19.9064 32.8272 25.5451 32.1415 26.9835C31.8595 27.5674 31.5594 28.1418 31.2411 28.7067C30.6059 29.8317 29.9049 30.9122 29.0468 31.8794C28.4382 31.6076 27.7969 31.3997 27.1591 31.209C26.8068 31.1145 26.4505 31.037 26.0947 30.9573C26.9719 30.1138 27.571 29.1257 27.9781 27.9823C28.1199 27.5841 28.2277 27.1741 28.3756 26.778C28.6602 26.0156 29.0217 25.262 29.3968 24.5403C30.4761 22.4633 32.6578 19.1219 34.9635 18.391Z" fill="#1C1C1C"/>
<path d="M34.2758 6.594C34.4327 6.57549 34.5981 6.58033 34.7558 6.5851C37.6453 6.67233 40.5497 8.86594 42.4509 10.8923C42.2011 11.041 41.9589 11.2064 41.7143 11.3636C40.8898 10.2685 40.0471 9.51916 38.9154 8.76484C38.7004 8.62155 38.4499 8.41536 38.2088 8.32833C38.1573 8.30968 38.1734 8.32523 38.1537 8.30181C39.5971 9.36013 40.4469 10.0044 41.4996 11.5167C41.2743 11.6918 41.0603 11.8817 40.8441 12.0678C40.3867 11.5241 39.9486 10.9644 39.4184 10.4878C38.3201 9.50071 36.6865 8.80433 35.2257 8.5942C36.7862 9.14575 38.259 10.0065 39.4087 11.2086C39.7816 11.5986 40.0974 12.0286 40.4405 12.4434C40.0842 12.7601 39.7517 13.0963 39.4195 13.4379C38.9141 13.9831 38.3932 14.5216 37.986 15.1463C36.8519 13.3376 35.7716 12.0615 34.131 10.6941C33.8156 10.4312 33.4336 10.0783 33.0672 9.90413C33.1266 10.0054 34.4019 11.2156 34.5678 11.3868C35.8695 12.7303 36.7444 14.0936 37.5409 15.7749C37.3622 16.0407 37.1895 16.3044 37.035 16.5855C36.8688 16.2852 36.7851 15.8524 36.4989 15.6437C36.0072 15.5181 33.8391 16.2025 33.2728 16.4138C32.8548 14.3712 32.0716 12.8237 30.9945 11.0601C30.6223 10.4506 30.2138 9.846 29.881 9.21446C30.4115 8.82349 30.9535 8.52968 31.5822 8.33071C31.7125 8.06052 31.8359 7.80213 32.0292 7.57091C32.5795 6.91258 33.4522 6.66129 34.2758 6.594Z" fill="#1C1C1C"/>
<path d="M58.4837 21.4979C60.2213 21.3441 63.6317 21.9115 64.9784 23.0164C64.9894 23.1921 64.9784 23.3535 64.9597 23.5279C64.6407 23.9057 64.2942 24.2611 63.9755 24.6403C63.5062 25.1988 63.0619 25.7775 62.5828 26.3281C60.4797 28.7449 58.3774 30.5014 55.522 31.963C54.4117 31.178 53.0195 30.7017 51.723 30.3389C52.4035 30.1748 53.0583 29.9497 53.719 29.7208C54.395 29.4814 55.0636 29.2229 55.7248 28.9453C56.386 28.6676 57.0388 28.3712 57.683 28.0562C58.3273 27.7411 58.962 27.4079 59.5872 27.0565C60.2124 26.7051 60.8271 26.336 61.4312 25.9494C62.0724 25.5292 63.3194 24.7488 63.7599 24.1403C63.8296 24.044 63.877 23.9541 63.8581 23.8319C63.8165 23.7743 63.7995 23.7463 63.7308 23.7183C63.6016 23.6659 63.4349 23.7372 63.3184 23.7923C62.75 24.0613 62.1743 24.5848 61.6486 24.9484C60.9867 25.4063 60.2919 25.8083 59.5919 26.2042C58.0093 27.0995 56.3302 27.8504 54.6648 28.5761C53.4085 29.1235 52.1557 29.6695 50.8815 30.1748C50.0932 30.045 49.3038 29.9693 48.5082 29.9031C48.382 29.2057 48.3162 28.679 48.0805 27.9923C48.4327 27.0227 49.1172 26.041 49.8037 25.2712C51.9324 22.8839 55.348 21.669 58.4837 21.4979Z" fill="#1C1C1C"/>
<path d="M58.6666 21.8871C60.3462 21.7304 62.226 22.0676 63.8124 22.6008C63.7499 22.6153 63.7661 22.6202 63.7143 22.6075C62.1486 22.2227 60.5401 21.8937 58.9182 21.9939C57.2659 22.0335 55.7073 22.4675 54.1559 23.0018L54.1613 23.0508L54.1576 22.985L54.0746 23.0239C54.2484 22.9104 54.4676 22.8357 54.6599 22.7571C55.9181 22.2428 57.3146 21.9765 58.6666 21.8871Z" fill="white"/>
<path d="M57.8629 22.6985C57.9952 22.7933 58.0812 22.9314 58.2364 22.9993C59.4695 23.5388 61.4141 22.3365 63.2333 23.1959C63.2971 23.2261 63.3641 23.248 63.3875 23.3175C63.2804 23.3927 63.1144 23.3988 62.9868 23.4121C62.4481 23.4682 61.9016 23.4566 61.3607 23.491C60.8358 23.5244 60.3166 23.6066 59.7936 23.6578C59.3029 23.7058 58.7774 23.6831 58.3164 23.8805C57.7633 24.1172 57.462 24.5364 57.2471 25.0842L57.2435 25.1062L57.2124 25.0551C56.7617 24.8 56.494 24.7448 55.9799 24.8266C55.3294 24.9302 54.5875 25.1837 54.1957 25.7497C53.8608 26.2337 53.9406 26.7003 54.0484 27.2393C53.8708 26.9232 53.7707 26.7571 53.4121 26.6394C52.2836 26.5237 50.1988 27.6941 49.2902 28.3655L49.2559 28.3555C49.2661 28.3208 49.264 28.321 49.2863 28.2845C49.3759 28.1378 49.6323 27.9965 49.7722 27.8976C50.8371 27.1457 52.3724 26.2534 53.6476 26.0011C53.7743 25.8462 53.869 25.6679 53.9725 25.497C54.2802 24.9887 54.6331 24.8497 55.1505 24.6232C55.0327 24.4091 54.879 24.2072 54.7411 24.0051C55.4075 24.3345 55.7757 24.4578 56.5209 24.3066C57.0002 24.2094 57.63 23.9532 57.9009 23.5235C58.1082 23.1947 57.9423 23.0595 57.8698 22.7316L57.8629 22.6985Z" fill="white"/>
<path d="M41.9586 24.175C43.1749 24.1219 44.2716 24.5979 45.1958 25.3642C46.5939 26.5235 47.5013 28.121 47.67 29.9407C46.0729 30.1063 44.9175 30.3516 43.6069 31.3541C42.5355 32.1736 41.9238 33.2538 41.7483 34.5834C40.7624 35.0904 39.7666 35.4879 38.6927 35.7673C38.053 35.9337 37.3978 36.049 36.7657 36.2428C38.5655 36.421 40.105 35.9177 41.7308 35.2066C41.7554 35.9248 41.4321 36.4926 41.2088 37.1671C40.4335 37.4031 39.6544 37.6354 38.8421 37.6981C37.7213 37.7844 36.7036 37.5025 35.7581 36.8995C35.4374 36.695 35.1414 36.4548 34.8231 36.2479C34.4955 36.035 34.1213 35.8926 33.8223 35.6371C33.9432 35.641 34.0641 35.6433 34.1851 35.6441C34.6466 35.6474 35.1601 35.6157 35.5908 35.4337C35.9205 35.2944 36.2202 35.0731 36.5186 34.8785C36.9706 34.5795 37.4251 34.2844 37.8822 33.9931C38.7826 33.4282 39.6736 32.8462 40.5804 32.2916C42.574 31.072 44.7618 29.7811 46.4313 28.1268C44.0452 29.5424 41.6668 30.9528 39.3358 32.4601L36.6532 34.2259C36.2507 34.4929 35.8468 34.8258 35.4112 35.0339C34.9524 35.2531 34.4205 35.2355 33.9251 35.2251C34.3026 34.5005 34.8871 33.8139 35.4012 33.181C37.1375 30.9975 39.5128 29.1551 41.9354 27.797C42.4432 27.5124 42.9691 27.2535 43.4907 26.9953C43.7429 26.8705 44.0851 26.7641 44.2978 26.5866C41.2497 27.6126 38.0421 29.3327 35.904 31.7859C35.0494 32.7665 34.3619 33.8395 33.6891 34.9485C33.8837 33.966 33.9994 32.9986 34.3304 32.0462C35.2784 29.3183 37.2068 26.9397 39.8025 25.644C40.2155 25.4378 40.6487 25.2396 41.0869 25.0946C41.3623 25.0034 41.6949 24.9474 41.9515 24.8171C41.9692 24.8082 41.9866 24.7987 42.0041 24.7895C40.5917 25.0071 39.3669 25.4124 38.1952 26.2531C35.5109 28.1793 33.9436 31.2059 33.4052 34.4195C33.3532 34.1461 33.3096 33.8746 33.2906 33.5968C33.1302 31.2588 34.1228 29.1113 35.6399 27.3893C37.2753 25.533 39.4696 24.3293 41.9586 24.175Z" fill="#1C1C1C"/>
<path d="M17.9841 33.0703C19.0745 33.3655 19.94 33.2916 20.8675 32.6271C21.223 32.3724 21.5687 32.0893 21.9609 31.8923C22.4131 31.6651 22.9385 31.5536 23.4403 31.5164C26.2011 31.3122 30.9802 33.0955 32.6527 35.333C32.9495 35.7301 33.1948 36.1758 33.337 36.652C33.4005 36.8643 33.4422 37.0934 33.5301 37.2967C33.8297 37.9887 34.4953 38.5134 35.0483 38.9937C35.129 39.4142 35.1528 39.8466 34.9871 40.2511C34.6793 41.0027 33.8498 41.527 33.1335 41.8293C30.173 43.0784 26.2352 41.7566 23.5967 40.2515C23.2293 40.0444 22.8685 39.8264 22.5143 39.5975C22.1995 39.3934 21.6258 38.9467 21.2859 38.835C21.2104 38.8102 21.1733 38.8101 21.1062 38.8496C21.1042 38.9531 21.1369 38.9848 21.1895 39.0719C21.1966 39.0937 21.2039 39.1155 21.2123 39.1369C21.3504 39.4893 21.7187 39.8533 21.9837 40.1144C23.0999 41.2145 24.3246 42.0269 25.7519 42.6646C25.2564 42.7654 24.7546 42.8315 24.26 42.9404C23.3607 43.1383 22.5253 43.4519 21.6817 43.8172C21.4311 43.7006 21.1939 43.5532 20.9656 43.3979C19.4429 42.3623 18.3305 40.7789 17.9866 38.9557C17.8469 38.2148 18.0087 37.9819 18.4107 37.3949C18.5711 37.6946 18.7876 38.0605 19.0557 38.2764C19.1236 38.3312 19.159 38.3535 19.2452 38.3414L19.2205 38.3307C19.2627 38.2881 19.2771 38.2886 19.2761 38.2288C19.2652 37.6039 18.8215 37.0667 18.628 36.497C18.4801 36.0618 18.4599 35.5977 18.2541 35.1775C18.1474 34.9595 17.985 34.79 17.8155 34.6204C17.8102 34.3672 17.8241 34.1127 17.8323 33.8595C18.1004 34.1208 18.3921 34.3907 18.7454 34.5303C19.4228 34.7979 19.9854 34.2879 20.5829 34.0477L20.6235 34.0317C21.1975 34.3912 21.68 34.7363 22.3442 34.9304C23.5065 35.2699 24.7485 35.1979 25.8149 34.6061C25.9537 35.0876 26.2364 35.4951 26.6624 35.7634C27.4201 36.2407 28.3652 36.2074 29.204 36.0146C29.3435 36.3899 29.5051 36.7137 29.8254 36.9712C30.6339 37.621 32.161 37.7128 33.1406 37.589C32.2571 37.4664 31.1857 37.3392 30.3968 36.9077C29.9565 36.6669 29.7369 36.3347 29.5977 35.8635C30.0781 35.5527 30.5735 35.3815 31.1313 35.2701C29.614 35.0763 28.7113 36.2016 27.0071 35.5028C26.5003 35.224 26.2924 34.8343 26.1095 34.3127C26.2195 34.1733 26.3243 34.0487 26.345 33.8668L26.307 33.8276C26.0859 33.8615 25.8117 34.097 25.6048 34.1989C25.3961 34.3009 25.1797 34.3826 24.9556 34.4438C23.5689 34.8254 22.4957 34.3981 21.3025 33.7181C21.3459 33.7178 21.3893 33.7171 21.4327 33.7161C21.9964 33.7015 22.3324 33.4789 22.7074 33.0841C22.404 33.2095 22.1116 33.3129 21.7797 33.3212C21.3994 33.3306 21.0088 33.2238 20.6345 33.3279C20.0963 33.4777 19.7492 33.9283 19.1805 34.035C19.1702 34.0324 19.1599 34.0298 19.1497 34.027C18.5837 33.8721 18.2675 33.5735 17.9841 33.0703Z" fill="#1C1C1C"/>
<path d="M20.8467 34.9241C20.8665 34.9245 20.8863 34.9245 20.9061 34.9252C21.3094 34.9398 21.3674 35.4343 21.5197 35.7166C21.5973 35.8604 21.7092 35.9899 21.8209 36.1084C24.0323 38.4536 28.7363 40.0525 31.9118 40.083C32.3627 40.0874 32.8335 40.067 33.2756 39.9718C33.581 39.9061 33.9538 39.7087 34.2591 39.7188L34.2796 39.7577C34.2187 39.8808 34.1192 39.9582 34.0187 40.0481C33.4936 40.3859 32.9248 40.5478 32.3049 40.6027C29.0745 40.8887 24.5181 39.2331 22.0483 37.161C21.5348 36.7301 20.7455 36.0565 20.6983 35.3319C20.6862 35.1459 20.7286 35.0641 20.8467 34.9241Z" fill="white"/>
<path d="M26.7691 43.2397C27.7015 43.2493 28.6614 43.2893 29.5211 43.6914C30.3682 44.0877 31.0748 44.9034 31.3914 45.7786C31.0434 46.9995 30.7808 48.178 30.6131 49.437C30.1887 50.0141 29.1878 50.7503 28.6051 51.2072C26.3632 52.9653 23.655 55.0836 20.9499 56.0112C20.309 56.231 19.6274 56.3708 18.9532 56.4428C18.635 56.4768 17.9777 56.4281 17.7229 56.6288C17.6546 56.6826 17.6163 56.7343 17.6108 56.823C17.6066 56.8914 17.6369 56.9838 17.6926 57.0252C17.9505 57.2167 18.6254 57.1597 18.9496 57.1478C20.074 57.1068 21.2265 56.7808 22.2514 56.3185C24.5119 55.2988 27.0005 53.2823 28.8455 51.6335C29.4468 51.0961 30.041 50.5652 30.5917 49.9752C30.5877 50.633 30.5893 51.3129 30.6907 51.9637C30.6121 52.0752 30.5314 52.1853 30.4487 52.2938C28.3606 55.0411 25.2381 57.1006 21.7929 57.567C20.6549 57.7549 19.1519 57.6727 18.0606 57.3157C17.634 57.1761 17.3863 56.9317 17.1914 56.5368C17.1199 56.3919 16.8467 55.6306 16.9403 55.506C16.9838 55.4481 17.1277 55.4356 17.1792 55.3584C17.3039 55.1714 17.3206 54.6772 17.3582 54.4454C17.4073 54.1233 17.4697 53.8039 17.5457 53.4871C17.6216 53.1703 17.7108 52.8573 17.8131 52.5481C18.7723 49.7332 20.753 47.5922 23.3451 46.1945C23.9007 45.8986 24.4659 45.6224 25.0408 45.366C25.3427 45.2319 25.6535 45.1177 25.9499 44.9716C23.7466 45.4139 21.8462 46.1387 20.1425 47.6612C18.4786 49.1482 17.1188 51.3391 16.7319 53.5544C16.6695 53.9114 16.6254 54.2815 16.6177 54.6442C16.6142 54.8045 16.6395 54.9645 16.6307 55.1242C16.5693 55.1296 16.5779 55.1418 16.5362 55.1074C16.2687 54.8865 16.1589 53.8555 16.1485 53.5166C16.0993 51.9074 17.0815 49.5389 17.9273 48.175C18.2956 47.581 18.7581 47.0079 19.2363 46.4977C21.1278 44.4797 24.0285 43.3239 26.7691 43.2397Z" fill="#1C1C1C"/>
<path d="M28.8937 46.882C29.2793 46.8214 29.7171 46.8714 30.1041 46.9018C29.766 46.981 29.4202 47.0278 29.0815 47.1086C27.7777 47.4201 26.5065 48.0864 25.3583 48.7654C23.1995 50.0419 21.2349 51.5197 19.7339 53.5532C19.2561 54.2006 18.8403 54.8861 18.4187 55.5706C18.3084 55.7384 18.1805 55.9855 17.9733 56.0475C17.8837 56.0744 17.8584 56.0623 17.7764 56.0294C17.7406 55.9835 17.7238 55.9465 17.7153 55.8895C17.6066 55.1611 18.7551 53.6303 19.2099 53.0342C21.0078 50.6773 23.3312 48.9623 26.0325 47.7789C26.9425 47.3803 27.9041 47.0148 28.8937 46.882Z" fill="white"/>
<path d="M13.3987 40.8523C14.0753 40.7894 14.8446 40.8298 15.4973 41.0227C15.2376 41.1282 14.9025 41.2523 14.7444 41.4947C14.7485 41.549 14.7354 41.5486 14.77 41.5762C14.9793 41.7431 15.5838 41.6008 15.8391 41.5815C15.9787 41.571 16.1407 41.5633 16.2757 41.6021C16.6179 41.7005 17.1915 42.1824 17.4759 42.4318C17.8631 42.7712 17.9081 42.9141 17.9424 43.4185C17.9685 43.8027 18.07 44.2738 18.3558 44.5503C18.486 44.6764 18.645 44.7705 18.7792 44.892C18.8853 44.9881 18.9816 45.1025 18.9828 45.2532C18.9843 45.4316 18.8718 45.6334 18.7778 45.7801C18.47 46.2603 18.0322 46.6496 17.6945 47.1085C17.3902 47.5221 17.0772 48.181 16.7577 48.5204C16.4224 48.8765 16.0068 49.189 15.6186 49.4857C14.059 50.6775 12.2489 51.7067 10.2991 52.0615C9.62514 52.1841 8.97913 52.1465 8.3016 52.1725C8.6791 52.2831 9.05306 52.3548 9.44751 52.3625C11.4882 52.4021 13.7149 51.1292 15.326 49.9576C15.7493 49.6498 16.1702 49.3457 16.5479 48.9814C15.8716 50.6067 15.4391 52.0047 15.4681 53.7898C13.3655 55.0616 10.6946 56.0524 8.22664 55.5258C6.60822 55.1804 5.12203 54.3618 4.21047 52.9477C4.48775 53.1772 4.79525 53.3676 5.15375 53.4358C5.80516 53.5596 6.28685 53.1884 6.79784 52.8545C5.93071 52.9075 5.23956 52.9339 4.50969 52.3842C4.28833 52.2175 4.08628 52.0155 3.8288 51.9062C3.3533 51.7043 2.86511 51.721 2.41681 51.4246C2.57362 51.3917 2.73001 51.3569 2.88597 51.3201C3.91949 51.07 4.43049 50.5492 4.9697 49.6582C5.32966 50.0837 5.77668 50.3369 6.33433 50.3916C8.25468 50.5797 12.0565 48.5978 13.6987 47.5356C14.1851 47.2209 14.6376 46.8728 15.0861 46.5065C16.0189 45.7327 16.8272 44.8868 17.4675 43.8508L17.0099 43.8139C16.9342 43.901 16.8577 43.9873 16.7805 44.0729C16.7033 44.1585 16.6252 44.2435 16.5464 44.3276C16.4675 44.4118 16.3879 44.4952 16.3076 44.5779C16.2272 44.6606 16.1461 44.7425 16.0642 44.8238C15.9823 44.9049 15.8997 44.9853 15.8163 45.065C15.7329 45.1446 15.6488 45.2235 15.564 45.3016C15.4791 45.3797 15.3935 45.457 15.3073 45.5335C15.221 45.61 15.1341 45.6857 15.0464 45.7606C14.9587 45.8355 14.8704 45.9095 14.7813 45.9828C14.6923 46.056 14.6025 46.1285 14.5122 46.2001C14.4218 46.2716 14.3307 46.3424 14.239 46.4123C14.1473 46.4822 14.055 46.5513 13.962 46.6194C13.8691 46.6876 13.7755 46.7549 13.6812 46.8214C13.587 46.8878 13.4922 46.9534 13.3967 47.0181C13.3013 47.0828 13.2053 47.1466 13.1087 47.2095C13.0121 47.2724 12.9149 47.3344 12.8171 47.3955C12.7193 47.4566 12.621 47.5168 12.5221 47.5761C12.4232 47.6353 12.3238 47.6937 12.2239 47.7511C12.1239 47.8085 12.0234 47.865 11.9224 47.9206C11.8214 47.9762 11.7199 48.0308 11.6179 48.0845C11.5159 48.1382 11.4133 48.1909 11.3103 48.2427C11.2073 48.2945 11.1039 48.3453 11 48.3952C10.8961 48.445 10.7917 48.4939 10.6868 48.5418C10.582 48.5898 10.4767 48.6367 10.371 48.6827C10.2652 48.7287 10.1591 48.7737 10.0526 48.8177C9.94603 48.8617 9.83909 48.9047 9.73175 48.9467C9.62441 48.9887 9.51669 49.0298 9.40858 49.0698C9.30047 49.1098 9.19202 49.1488 9.08322 49.1868C8.97438 49.2248 8.86522 49.2618 8.75573 49.2978C8.64621 49.3338 8.53636 49.3687 8.42619 49.4027C8.31606 49.4366 8.20561 49.4695 8.09483 49.5014C7.98406 49.5333 7.87301 49.5642 7.76168 49.594C7.18308 49.7452 6.47068 49.8412 5.93618 49.5135C5.63276 49.3274 5.33682 48.9592 5.25529 48.604C5.24418 48.5556 5.2347 48.4816 5.26457 48.4381C5.40199 48.2381 6.26546 48.0834 6.54435 47.9415C7.16226 47.627 7.35833 46.9688 7.6969 46.4197C8.15149 45.6824 8.86253 45.9235 9.56507 45.7528C10.3507 45.562 10.8641 45.037 11.2717 44.3645C11.6192 44.3544 11.9718 44.3418 12.3152 44.2859C13.5023 44.0927 14.3643 43.3825 15.0495 42.427C13.7871 43.4064 13.0595 43.8548 11.4353 43.966C11.6661 43.3075 11.906 42.6975 12.2675 42.097C11.3275 42.9333 11.0671 44.483 10.0275 45.0481C9.3487 45.4171 8.57546 45.263 7.90057 45.6238C8.06699 44.6756 8.21098 43.8932 8.74968 43.075C7.80937 43.9028 7.70489 45.0387 7.29967 46.1448C7.08988 46.7176 6.77793 47.3195 6.2039 47.5976C5.90118 47.7442 5.571 47.8377 5.26383 47.9815C5.18625 47.6293 5.08646 47.2392 4.80995 46.9867C4.72939 46.913 4.64025 46.8638 4.52744 46.877C4.45358 46.8857 4.38246 46.9336 4.3408 46.9931C4.2019 47.1914 4.09837 47.435 3.98062 47.6475C3.73714 48.0867 3.44695 48.5348 3.1146 48.9103C3.15444 47.2654 3.98254 45.7058 5.05002 44.4927C6.96787 42.313 10.5531 41.0258 13.3987 40.8523Z" fill="#1C1C1C"/>
<path d="M18.2274 45.3481C18.2526 45.3892 18.2579 45.4124 18.2576 45.4626C18.2508 46.4693 16.69 48.1924 15.9653 48.8022C14.2412 50.2528 10.4784 52.1066 8.19342 51.9111C8.15849 51.9019 8.17924 51.9101 8.1358 51.8768C8.29661 51.759 8.91794 51.6633 9.13012 51.6102C9.82286 51.437 10.4762 51.2228 11.1344 50.9464C13.2887 50.0418 15.2169 48.9385 16.7755 47.1664C16.9945 46.9174 17.2109 46.6661 17.4075 46.3988C17.6536 46.0642 17.897 45.6471 18.2034 45.369C18.2112 45.3619 18.2194 45.355 18.2274 45.3481Z" fill="white"/>
<path d="M41.408 40.2234C41.6575 40.3346 41.8802 40.4891 42.0828 40.6716C42.5156 41.0616 42.8365 41.5816 43.1308 42.0801C44.1348 43.7813 44.5647 45.2685 44.6805 47.2363C43.9945 47.9444 43.3381 48.6791 42.7114 49.4404C42.743 49.3087 42.7721 49.1764 42.799 49.0436C42.8258 48.9108 42.8502 48.7775 42.8722 48.6438C42.8943 48.5102 42.914 48.3762 42.9312 48.2417C42.9485 48.1074 42.9633 47.9727 42.9758 47.8378C42.9882 47.7029 42.9982 47.5678 43.0058 47.4325C43.0134 47.2973 43.0186 47.1619 43.0213 47.0265C43.0241 46.891 43.0245 46.7555 43.0223 46.6201C43.0203 46.4846 43.0158 46.3492 43.0088 46.2139C43.0019 46.0786 42.9926 45.9434 42.9808 45.8085C42.969 45.6735 42.9548 45.5388 42.9382 45.4043C42.9217 45.2698 42.9027 45.1357 42.8813 45.0019C42.8599 44.8681 42.8361 44.7348 42.81 44.6018C42.7838 44.4689 42.7553 44.3365 42.7244 44.2046C42.6936 44.0727 42.6603 43.9414 42.6247 43.8107C42.5891 43.6799 42.5512 43.5499 42.5109 43.4205C42.4707 43.2911 42.4282 43.1625 42.3833 43.0347L42.3211 43.1303L42.4016 43.1356C42.8674 45.1943 42.742 46.9101 42.3428 48.9541C42.262 49.3678 42.2039 49.8494 42.0539 50.2428C41.8766 50.7083 41.2806 51.4963 41.0083 52.0308C40.7834 52.472 40.6023 53.1128 40.3354 53.4949C39.641 54.4886 38.1006 56.5379 37.8363 57.6576C37.8111 57.7646 37.8119 57.855 37.8702 57.9488C37.9283 57.9682 37.9743 57.9763 38.0348 57.9687C38.8597 57.8641 39.5809 57.2112 40.0584 56.573L40.5 56.9326C40.1251 57.161 39.7684 57.4196 39.3775 57.6208C38.2694 58.1915 36.6564 58.6711 35.4257 58.8474C35.2862 58.6979 35.1665 58.5475 35.0509 58.3787C35.3792 57.1829 34.5089 55.9128 34.0325 54.8803C32.7224 52.0486 33.0712 47.7812 33.9189 44.8429C33.8899 44.888 33.8619 44.9338 33.8349 44.9801C32.2087 47.7391 31.879 51.5812 33.0628 54.5717C33.4835 55.6344 34.2305 56.5283 34.5172 57.6494C34.2421 57.1415 33.9449 56.6283 33.5874 56.1738C33.2276 55.7165 32.8205 55.3059 32.4971 54.8186C31.2573 52.9498 31.2252 50.1071 31.6588 47.9525C32.1572 45.4759 33.3981 42.7873 35.5703 41.3588C36.4548 40.7772 37.7456 40.2956 38.8178 40.4745C39.1873 40.5361 39.5367 40.6882 39.9033 40.7627C40.5092 40.8859 40.9341 40.5366 41.408 40.2234Z" fill="#1C1C1C"/>
<path d="M38.5724 41.451L38.5914 41.4664L38.5437 41.525L38.6085 41.5257L38.5582 41.5122C37.7059 42.2964 37.0927 43.3693 36.6432 44.4297C35.407 47.3462 34.9941 51.6564 35.6476 54.7444C35.8129 55.5258 36.0935 56.2615 36.391 57.0001C36.9951 56.0168 37.4293 54.9593 37.8204 53.8766C38.7818 51.2144 39.3535 48.4082 39.8672 45.6292C40.0599 44.5864 40.2238 43.5348 40.4381 42.4965C40.4534 43.0434 40.4509 43.5903 40.4307 44.137C40.3997 44.6799 40.359 45.2221 40.3085 45.7636C40.1786 47.0517 39.9984 48.3327 39.768 49.6066C39.391 51.5935 38.2707 56.3652 36.6787 57.6262C36.5697 57.7124 36.4343 57.794 36.2902 57.7654C36.0136 57.7105 35.7429 57.2652 35.6105 57.0345C33.9726 54.1794 34.5353 49.4313 35.3661 46.387C35.8754 44.521 36.8306 42.449 38.5724 41.451Z" fill="white"/>
<path d="M48.2034 30.7239C49.5766 30.6921 50.9479 30.9375 52.2571 31.3388C52.3357 31.3631 52.4141 31.3881 52.4923 31.4139C52.5704 31.4397 52.6483 31.4663 52.7258 31.4937C52.8034 31.5211 52.8807 31.5493 52.9577 31.5783C53.0348 31.6073 53.1115 31.6371 53.1879 31.6677C53.2643 31.6983 53.3404 31.7296 53.4161 31.7617C53.4919 31.7939 53.5674 31.8268 53.6424 31.8604C53.7175 31.8941 53.7923 31.9286 53.8667 31.9638C53.941 31.999 54.0151 32.035 54.0887 32.0717C54.1623 32.1085 54.2356 32.146 54.3085 32.1842C54.3814 32.2224 54.4538 32.2614 54.5259 32.3012C54.598 32.3409 54.6697 32.3813 54.7409 32.4225C54.8122 32.4637 54.883 32.5057 54.9534 32.5483C55.0238 32.5909 55.0937 32.6343 55.1633 32.6784C55.2327 32.7225 55.3018 32.7673 55.3704 32.8128C55.439 32.8583 55.5071 32.9045 55.5747 32.9514C55.6424 32.9983 55.7095 33.0459 55.7761 33.0942C55.8428 33.1424 55.909 33.1914 55.9747 33.241C56.0403 33.2907 56.1055 33.341 56.1701 33.3919C56.2348 33.4429 56.2989 33.4946 56.3624 33.5468C56.426 33.5991 56.489 33.6521 56.5515 33.7057C56.614 33.7593 56.6759 33.8135 56.7373 33.8683C56.7987 33.9232 56.8595 33.9786 56.9197 34.0348C56.98 34.0909 57.0396 34.1476 57.0987 34.2049C57.1578 34.2622 57.2163 34.3202 57.2742 34.3787C57.3321 34.4372 57.3894 34.4964 57.4461 34.5561C57.5028 34.6158 57.5589 34.676 57.6143 34.7369C57.6697 34.7978 57.7245 34.8592 57.7788 34.9212C57.833 34.9831 57.8865 35.0457 57.9394 35.1087C57.9923 35.1718 58.0446 35.2354 58.0962 35.2995C58.1478 35.3637 58.1987 35.4284 58.249 35.4936C58.2993 35.5588 58.3489 35.6245 58.3978 35.6907C58.4468 35.7569 58.495 35.8236 58.5426 35.8908C58.9099 36.4157 59.2098 36.9699 59.5093 37.5353C59.2923 37.8538 58.9879 38.0985 58.6564 38.2892C58.2004 38.5516 57.6889 38.7269 57.1976 38.9116C53.7573 40.2051 49.8924 39.989 46.4769 38.7264C46.014 38.5552 45.5681 38.3452 45.1241 38.1303C44.8733 38.0088 44.136 37.5468 43.9326 37.5221C43.8436 37.5113 43.8135 37.5379 43.7498 37.5886C43.7128 37.6919 43.685 37.7863 43.7369 37.893C43.9635 38.3588 46.3258 39.3884 46.9077 39.6044C47.0204 39.6468 47.1338 39.6878 47.2476 39.7274C47.3614 39.767 47.4756 39.8052 47.5904 39.842C47.7051 39.8788 47.8203 39.9142 47.9359 39.9481C48.0515 39.9821 48.1675 40.0147 48.2839 40.0458C48.4003 40.0769 48.5171 40.1066 48.6343 40.1349C48.7514 40.1631 48.8688 40.1899 48.9867 40.2154C49.1044 40.2407 49.2225 40.2646 49.3409 40.2871C49.4593 40.3096 49.5779 40.3306 49.6968 40.3502C49.8157 40.3698 49.9348 40.3879 50.0541 40.4045C50.1735 40.4212 50.293 40.4363 50.4127 40.45C50.5324 40.4637 50.6523 40.476 50.7723 40.4868C50.8923 40.4975 51.0124 40.5068 51.1326 40.5146C51.2529 40.5225 51.3732 40.5288 51.4936 40.5337C51.614 40.5386 51.7344 40.542 51.8548 40.5439C51.9753 40.5458 52.0958 40.5463 52.2163 40.5452C52.3368 40.5441 52.4572 40.5416 52.5777 40.5377C52.6981 40.5337 52.8184 40.5282 52.9387 40.5212C53.059 40.5143 53.1792 40.5059 53.2993 40.496C53.4193 40.4861 53.5393 40.4747 53.6591 40.4619C53.7789 40.449 53.8985 40.4347 54.018 40.419C54.1374 40.4032 54.2567 40.3859 54.3757 40.3672C54.4947 40.3485 54.6135 40.3284 54.7321 40.3068C54.8506 40.2851 54.9688 40.2621 55.0868 40.2375C55.2048 40.213 55.3224 40.1871 55.4398 40.1597C55.5571 40.1323 55.6741 40.1034 55.7907 40.0732C55.9073 40.0429 56.0236 40.0112 56.1395 39.9781C56.2553 39.9449 56.3708 39.9104 56.4858 39.8744C56.6008 39.8385 56.7153 39.8011 56.8294 39.7624C56.9435 39.7236 57.0571 39.6834 57.1702 39.6419C57.2833 39.6003 57.3959 39.5574 57.5079 39.513C57.62 39.4687 57.7315 39.423 57.8425 39.376C57.9534 39.3289 58.0637 39.2805 58.1735 39.2308C56.0487 40.8616 54.0462 41.4123 51.4232 41.4499C50.041 41.4461 48.5932 41.2919 47.2706 40.8732C46.8597 40.7431 45.2127 40.0357 44.9858 40.053L44.9777 40.0985C45.3809 40.5811 47.1569 41.2835 47.792 41.4763C48.2553 41.6123 48.7254 41.718 49.2022 41.7935C51.8125 42.2332 54.576 42.0726 56.9471 40.8076C57.3994 40.5663 57.8167 40.2737 58.2332 39.9766C58.1929 40.1087 58.1523 40.2413 58.1037 40.3706C57.6238 41.6486 56.7313 42.4014 55.5179 42.9597C55.2641 43.0764 54.969 43.2473 54.6894 43.2739C54.3818 43.3033 54.0436 43.2392 53.7341 43.223C53.2577 43.1982 52.7681 43.2278 52.2957 43.296C51.0901 43.4699 49.9759 43.8709 48.8748 44.3777C47.3205 44.1721 45.4076 43.2812 44.2656 42.2394C43.795 41.81 43.4991 41.2484 43.1078 40.7532C42.8033 40.3675 42.3549 40.0039 42.1403 39.5635C41.9724 39.2187 41.9241 38.7843 41.9094 38.4054C41.8691 37.3719 42.2692 36.827 42.4967 35.9043C42.5808 35.5631 42.5554 35.2187 42.5644 34.871C42.5883 33.9478 42.9437 33.134 43.5754 32.4624C44.7686 31.1935 46.5235 30.7796 48.2034 30.7239Z" fill="#1C1C1C"/>
<path d="M54.0567 42.5307L54.154 42.528C52.8522 43.0454 51.1735 43.205 49.7852 43.0954C49.7727 43.0929 49.7592 43.0932 49.7475 43.0879C49.6853 43.0603 49.6755 43.0182 49.654 42.9604L49.6828 42.9124C49.9282 42.789 50.6763 42.9014 50.982 42.891C52.024 42.8558 53.029 42.6884 54.0567 42.5307Z" fill="white"/>
<path d="M53.2467 32.7386C54.0053 32.8463 55.5129 33.7107 56.1876 34.1363C57.0689 34.6922 58.6374 36.032 58.8746 37.0776C58.6934 36.9729 58.4979 36.6385 58.3525 36.4651C58.0189 36.0674 57.643 35.7044 57.2635 35.3507C56.0821 34.2495 54.6755 33.4662 53.2467 32.7386Z" fill="white"/>
<path d="M42.6457 38.1843C42.7628 38.6369 42.8743 39.0545 43.1001 39.4695C43.8428 40.834 45.4297 41.6132 46.8582 42.045C47.2291 42.157 47.6179 42.2119 47.9838 42.3255C48.0983 42.361 48.2177 42.4165 48.2678 42.5337C48.3118 42.637 48.277 42.7235 48.2428 42.8219C48.1772 42.8678 48.1291 42.903 48.0459 42.9016C47.7849 42.897 47.5102 42.7896 47.2638 42.711C45.998 42.3073 44.6432 41.6309 43.7011 40.6668C43.0203 39.9702 42.6339 39.1684 42.6457 38.1843Z" fill="white"/>
<path d="M48.0603 32.9824C48.8726 32.9588 49.7038 33.0519 50.5051 33.1781C51.271 33.2937 52.0239 33.466 52.764 33.695C54.553 34.2503 57.2423 35.4624 58.3537 37.0052C58.4477 37.1357 58.5747 37.2825 58.5482 37.4497L58.4878 37.4883C57.9418 37.5355 57.4425 36.9283 57.0574 36.6119C56.8358 36.4297 56.5992 36.2627 56.368 36.0928C53.6396 34.2388 49.7596 33.2994 46.4836 33.3485C45.8245 33.3583 45.1993 33.5012 44.5483 33.5483L44.5098 33.5508C45.6539 33.1743 46.861 33.0134 48.0603 32.9824Z" fill="white"/>
<path d="M44.3208 35.5299C47.6459 35.3408 51.6265 36.564 54.9297 37.1564C55.5921 37.2751 56.2589 37.3891 56.9261 37.477C57.4937 37.5517 58.1254 37.5701 58.6708 37.7445C58.579 37.8875 58.4754 38.0012 58.3577 38.1219C58.3116 38.1593 58.263 38.192 58.2115 38.2219C58.0393 38.3216 57.8279 38.3467 57.632 38.3445C56.7294 38.3343 55.7739 38.0882 54.8908 37.9115C52.4391 37.4206 50.0202 36.7858 47.5839 36.2242C46.5074 35.9761 45.3797 35.8354 44.3208 35.5299Z" fill="white"/>
<path d="M48.1615 9.62613C49.1788 9.54375 50.3899 9.7362 51.2279 10.3553C51.6631 10.6769 52.2482 11.3486 52.1861 11.9303C52.163 12.1461 52.0324 12.3648 52.0645 12.5807C52.198 12.6585 52.3343 12.7292 52.4692 12.8042C52.8894 13.0379 53.275 13.8852 53.4034 14.3399C53.9822 16.389 52.749 19.4716 51.8941 21.3534C51.6482 21.8949 51.3855 22.5468 51.0256 23.021C50.7498 23.3845 50.251 23.6432 49.9149 23.9607C48.9752 24.8484 48.2628 25.9008 47.6349 27.0226C47.3733 26.5878 47.0854 26.1695 46.8019 25.7488C49.5676 23.0043 51.4836 20.2837 52.3313 16.4222C51.4624 18.8392 50.2588 21.1276 48.5529 23.062C47.8702 23.8362 47.122 24.5408 46.366 25.2418C45.9129 24.8174 45.4299 24.4895 44.9358 24.1205C47.1574 21.6183 49.3653 18.5422 50.7924 15.5132L50.7562 15.5121C50.0141 16.6857 49.2321 17.8319 48.4101 18.9509C47.5881 20.0699 46.7282 21.1588 45.8303 22.2177C45.3637 22.7646 44.8718 23.3976 44.3121 23.8516C42.6794 23.1119 41.2253 23.3073 39.5528 23.7854C39.5057 22.4241 39.1126 21.0848 38.6735 19.8072C39.1433 18.6989 39.8332 17.6408 40.4981 16.6416C41.9179 14.5078 43.4351 12.3657 45.6218 10.9581C45.6121 10.961 45.6024 10.9638 45.5928 10.967C45.0296 11.1565 44.5391 11.5331 44.0788 11.8988C41.6336 13.8417 39.9222 16.6826 38.5251 19.4274C38.2358 18.7294 37.8661 18.0735 37.4999 17.4141C38.0797 16.389 38.7093 15.4335 39.4831 14.5437C41.4915 12.2343 45.0404 9.84233 48.1615 9.62613Z" fill="#1C1C1C"/>
<path d="M46.8212 10.9037L46.8425 10.9186C46.6621 11.1295 46.3275 11.2898 46.104 11.4658C45.796 11.7082 45.5091 11.9809 45.2286 12.2543C43.5948 13.847 42.2876 15.6021 41.1264 17.5651L41.1 17.5372C42.4674 14.9839 44.2795 12.395 46.8212 10.9037Z" fill="white"/>
<path d="M49.6178 11.7772L49.6504 11.7814L49.6571 11.8014C49.5273 11.8546 49.3987 11.9106 49.2712 11.9693C49.1437 12.028 49.0176 12.0894 48.8928 12.1535C48.7679 12.2176 48.6444 12.2843 48.5224 12.3536C48.4004 12.4229 48.2799 12.4948 48.161 12.5693C48.042 12.6437 47.9246 12.7207 47.809 12.8001C47.6933 12.8796 47.5793 12.9614 47.4671 13.0457C47.3549 13.13 47.2445 13.2166 47.1359 13.3056C47.0274 13.3946 46.9208 13.4858 46.8161 13.5794C45.8176 14.4874 45.0459 15.6112 44.2818 16.715C43.0527 18.4901 41.9285 20.2955 40.9343 22.2135L40.9151 22.2422C40.8912 21.7319 42.1403 19.3283 42.4415 18.7785C43.6431 16.5848 45.2204 13.886 47.4451 12.6192C48.1347 12.2266 48.8616 11.9982 49.6178 11.7772Z" fill="white"/>
<path d="M16.4998 12.4544C16.5637 12.4507 16.6288 12.447 16.6928 12.4519C16.9274 12.4698 17.2177 12.6533 17.4135 12.7784C18.1631 13.2577 18.8287 13.8721 19.5693 14.371C20.6852 15.1226 21.8929 15.7539 22.9555 16.5804C23.3021 16.8445 23.634 17.126 23.9511 17.4249C24.2682 17.7238 24.5688 18.0385 24.853 18.369C26.5473 20.3282 27.8583 23.1467 27.6581 25.7846C27.5186 27.6232 26.7042 29.362 25.3033 30.5686C25.3788 30.4694 25.4534 30.3695 25.527 30.2689C26.5264 28.8968 26.6595 27.0785 26.4005 25.4508C26.0385 23.1755 24.4919 19.8869 22.6227 18.5274C23.3439 19.4035 24.0163 20.3472 24.5722 21.3375C25.7855 23.4989 26.5565 25.9811 25.8517 28.4516C25.622 29.2568 25.1738 30.3167 24.3988 30.7452C22.7571 30.7292 21.1534 30.7592 19.68 29.9172C19.5069 29.8056 19.3399 29.6854 19.1792 29.5566C19.0184 29.4277 18.8648 29.2909 18.7182 29.1461C16.2313 26.7182 15.4103 22.5366 15.3021 19.1991C15.2823 18.6004 15.2852 18.0018 15.3106 17.4034C15.3268 17.0064 15.3659 16.6084 15.3618 16.211C15.3519 16.2483 15.3424 16.2844 15.3358 16.3224C15.1639 17.3074 15.1128 18.3324 15.1086 19.3312C15.095 22.5328 15.6832 25.8934 17.5529 28.5581C18.7007 30.194 19.7994 30.8003 21.7229 31.1361C21.1601 31.4076 20.6525 31.7777 20.1315 32.12C19.8892 32.048 19.6513 31.9633 19.418 31.866C17.236 30.9655 15.7111 29.2719 14.8179 27.1179C13.5567 24.0765 13.7183 20.8921 14.3452 17.7246C14.5928 16.4735 14.8921 15.2242 15.383 14.0432C15.6014 13.5179 15.9335 12.6866 16.4998 12.4544Z" fill="#1C1C1C"/>
<path d="M17.2383 13.8997C17.6583 14.3228 18.0113 14.8847 18.3524 15.3728C19.1126 16.4609 19.9258 17.5842 20.4899 18.7896C20.694 19.2258 20.622 19.739 20.8832 20.1452C21.3188 20.8225 22.1251 21.2018 22.461 21.9609C22.6731 22.4402 22.5448 22.8282 22.3735 23.2902C22.936 23.8498 23.5607 24.3017 23.9703 25.004C24.73 26.3067 23.8823 26.7479 23.9645 27.8068C24.0443 28.8344 24.7342 29.0421 24.4155 30.2893C24.2432 30.2412 24.092 30.1887 23.941 30.0908C23.8597 30.2058 23.7827 30.32 23.6613 30.3964C23.3687 30.5805 22.8918 30.5437 22.565 30.4659C22.2233 30.3846 21.9281 30.2064 21.7014 29.9375C21.167 29.3034 21.0388 28.4068 20.5591 27.7249C20.1676 27.1683 19.4159 26.8369 19.1256 26.2308C18.8511 25.6577 19.1087 24.9297 18.7838 24.3911C18.6292 24.135 18.363 23.9574 18.1463 23.7577C17.9103 23.5403 17.7104 23.3006 17.5454 23.0248C17.03 22.1634 17.0407 21.3376 17.278 20.3899C16.2812 19.0111 16.3826 17.9812 16.5795 16.3625C16.6847 15.9643 16.6832 15.4628 16.707 15.0508C16.7675 15.3932 16.745 15.735 16.7339 16.0804C16.7 17.1338 16.602 18.3034 17.1938 19.2337C17.3917 19.5448 17.6664 19.7825 17.8965 20.0666L17.9182 20.0938C17.8564 20.2729 17.7885 20.4555 17.7439 20.6397C17.5253 21.5428 17.8642 22.6841 18.54 23.3208C18.8074 23.5728 19.1608 23.7354 19.3459 24.067C19.6602 24.6305 19.4487 25.3121 19.7164 25.8596C19.8147 26.0605 19.9864 26.2307 20.145 26.385C20.6694 26.895 21.1124 27.3443 21.4347 28.0138C21.623 28.4048 21.7832 28.8179 22.0096 29.1889C22.2398 29.566 22.548 29.8132 22.9846 29.904C23.1906 29.9468 23.3778 29.9001 23.5509 29.7843C24.181 29.3625 23.3177 28.6368 23.3009 27.8796C23.2889 27.3416 23.5492 26.8961 23.6398 26.384C23.7901 25.5354 23.05 24.6551 22.4586 24.1322C22.2588 23.9554 21.9573 23.7765 21.8163 23.5557C21.6552 23.3034 21.9591 22.6906 22.018 22.3895C21.8283 21.6737 21.1424 21.3301 20.6785 20.8121C20.2118 20.2912 20.2516 19.8898 20.1093 19.2518C20.0457 18.967 19.9321 18.6889 19.8108 18.4245C19.3069 17.3255 18.6655 16.2467 18.0424 15.2112C17.7825 14.7792 17.4489 14.3563 17.2383 13.8997Z" fill="white"/>
<path d="M5.787 26.3029C6.02194 26.2833 6.25722 26.2775 6.49285 26.2854C9.30732 26.3677 13.2925 28.947 15.3842 30.7208C16.0972 31.3254 16.7286 31.9907 17.3699 32.6687C17.2686 32.869 17.203 33.069 17.1446 33.2852C16.5247 32.7096 15.9733 32.0615 15.3423 31.4941C13.2009 29.5684 9.83661 27.238 6.82291 27.3995C7.02155 27.4139 7.21953 27.4346 7.41684 27.4615C7.6142 27.4884 7.8105 27.5214 8.00575 27.5606C8.20105 27.5998 8.3949 27.6451 8.58731 27.6965C8.77973 27.7479 8.97036 27.8052 9.15921 27.8686C11.1312 28.5472 13.6859 30.2033 15.2811 31.5708C15.9367 32.1329 16.5102 32.7756 17.1571 33.3442C17.1439 33.8088 16.9698 34.2945 17.057 34.7563C17.1203 35.0912 17.3337 35.2878 17.5055 35.5648C17.7102 35.8949 17.8006 36.3878 17.786 36.7753C17.7561 37.5698 16.9292 37.6811 17.183 39.1364C17.4663 40.7605 18.3671 42.293 19.5893 43.3895C19.9544 43.717 20.3547 43.9954 20.7552 44.2769C20.4204 44.4723 20.1019 44.6933 19.7808 44.9102C19.6541 44.6714 19.5362 44.4421 19.361 44.2339C19.2106 44.0552 19.0126 43.8809 18.8884 43.6851C18.7357 43.4443 18.7111 43.0979 18.6473 42.822C18.5012 42.1905 17.7471 41.759 17.3019 41.3351C17.3899 40.733 17.3825 40.2745 17.0535 39.7478C16.7968 40.0361 16.5818 40.3361 16.2991 40.6054C16.0212 40.4383 15.7468 40.2965 15.4424 40.1834C14.1021 39.8343 12.7323 40.0547 11.3928 40.2833C9.49462 39.3014 8.02896 38.0701 6.47925 36.6142L6.46771 36.6265C6.81053 37.065 7.21201 37.4479 7.61775 37.8268C8.69463 38.8327 9.77383 39.6209 11.0354 40.3736L10.4299 40.5599C9.80515 40.1965 9.18892 39.8315 8.5993 39.4127C6.66958 38.042 4.94928 36.5374 3.52423 34.637C3.41248 34.4879 3.07651 34.1225 3.05026 33.9675L3.06369 34.0245C3.04097 33.9927 3.03094 33.9615 2.99269 33.9496C3.13149 34.2601 3.34871 34.5594 3.52868 34.8492C4.65924 36.6699 6.11771 38.15 7.79686 39.4643C8.39756 39.9344 9.00665 40.3876 9.66284 40.7778C9.06478 40.9437 8.47929 41.2247 7.91591 41.482C7.0619 40.9685 6.25472 40.3457 5.49848 39.6981C3.61564 38.0858 1.90996 35.9927 1.05976 33.6409C0.877315 33.1362 0.714642 32.6226 0.67653 32.084C0.604168 31.0615 1.01034 30.5059 1.6465 29.7636C1.6215 29.6332 1.59471 29.5021 1.57765 29.3705C1.51809 28.9108 1.75632 28.4677 2.03679 28.1199C2.88768 27.065 4.47194 26.4387 5.787 26.3029Z" fill="#1C1C1C"/>
<path d="M4.70754 28.5592C5.40081 28.5323 6.07983 28.5334 6.76792 28.6436C8.73734 28.9593 10.6109 30.0916 12.1792 31.2857C12.9935 31.9057 16.7542 35.2732 16.8727 36.1435L16.8295 36.1106C15.3268 34.1421 12.3967 31.7218 10.262 30.4579C10.0196 30.3124 9.7733 30.1738 9.52309 30.0421C9.27289 29.9104 9.01918 29.7858 8.76197 29.6684C8.5048 29.551 8.24452 29.4409 7.98112 29.3381C7.71772 29.2354 7.45166 29.1401 7.18293 29.0524C6.88546 28.9587 6.58425 28.8792 6.27932 28.8139C5.97436 28.7486 5.66701 28.6979 5.35727 28.6617C5.10343 28.6315 4.81005 28.6495 4.56543 28.5911L4.70754 28.5592Z" fill="white"/>
<path d="M4.83527 31.539C5.152 31.6556 6.14372 32.4867 6.47068 32.7454C8.26557 34.1657 10.0597 35.5826 11.962 36.8585C13.3177 37.7678 14.7327 38.5719 16.1234 39.4234C15.6959 39.3728 15.2099 39.1306 14.8117 38.957C11.6238 37.5665 8.67614 35.0405 6.11937 32.7041C5.69263 32.3141 5.25337 31.9385 4.83527 31.539Z" fill="white"/>
<path d="M53.1598 44.0134C53.7767 43.9599 54.468 44.0176 55.0604 44.2046C55.9375 44.4816 58.6966 46.1371 59.4476 46.7839C59.6216 46.9337 59.7796 47.1051 59.8823 47.3126C60.2611 48.0781 59.1629 49.5975 58.8107 50.2793C58.6084 50.6709 58.4543 51.0678 58.3187 51.4859C58.6311 51.0713 58.941 50.6565 59.2353 50.2287C59.1038 52.0768 58.4048 53.6293 57.1822 55.0087C55.1873 57.2594 52.4576 58.3388 49.5064 58.5141C47.0955 58.5679 44.965 58.0673 42.7356 57.1642C42.1623 56.9319 41.4819 56.678 41.0001 56.2875C40.7535 56.0877 40.6118 55.8717 40.5888 55.5516C40.5527 55.0471 40.8045 54.4999 40.9902 54.0401C41.7204 52.2329 42.6861 50.6719 43.9699 49.2062C46.2613 46.5903 49.5956 44.252 53.1598 44.0134Z" fill="#1C1C1C"/>
<path d="M56.439 51.2494C56.4778 51.2719 56.517 51.3011 56.5542 51.3263C56.5869 51.4243 56.5885 51.4874 56.5425 51.5826C56.391 51.8962 56.0235 52.1814 55.6997 52.2841C55.673 52.2656 55.6246 52.2372 55.6035 52.2103C55.5733 52.172 55.5442 52.128 55.5474 52.0777C55.5621 51.8434 56.2609 51.3966 56.439 51.2494Z" fill="white"/>
<path d="M51.2451 54.4496C51.2823 54.4481 51.3312 54.4427 51.3684 54.4521C51.4457 54.4715 51.501 54.5243 51.5265 54.5994C51.5525 54.6761 51.5363 54.7678 51.4872 54.8296C51.2248 55.1601 49.1812 55.4215 48.7192 55.4868C48.5754 55.5129 48.4266 55.5161 48.2809 55.5252C49.2659 55.1615 50.286 54.8779 51.2451 54.4496Z" fill="white"/>
<path d="M54.7364 52.6774C54.8456 52.6831 54.8966 52.6847 54.9708 52.7642C54.9799 52.8428 54.9899 52.8792 54.9545 52.953C54.762 53.3545 53.251 54.0011 52.7627 54.1983L52.7035 54.214C52.6233 54.1888 52.6228 54.1859 52.5742 54.1167L52.5921 54.0297C52.6561 53.9476 52.7247 53.8911 52.8104 53.8321C53.1179 53.6207 53.4681 53.461 53.7894 53.2692C54.1094 53.0781 54.4111 52.8598 54.7364 52.6774Z" fill="white"/>
<path d="M58.0208 48.6432C58.0451 48.6464 58.0297 48.6424 58.0625 48.6664C57.5539 49.0814 57.0834 49.5404 56.5875 49.9703C55.9915 50.4852 55.3692 50.9661 54.7205 51.4128C51.4094 53.7235 46.1122 55.597 42.1135 56.1085L42.0728 56.0962C42.1947 55.9686 46.4598 54.7623 47.0855 54.5587C47.8769 54.3012 48.6618 54 49.434 53.6903C49.9357 53.4935 50.4315 53.2827 50.9213 53.0579C51.411 52.833 51.894 52.5944 52.3703 52.3422C52.8466 52.0899 53.3154 51.8244 53.7767 51.5455C54.2379 51.2667 54.6909 50.9751 55.1357 50.6706C56.0968 50.0052 56.9866 49.1901 58.0208 48.6432Z" fill="white"/>
<path d="M54.7108 45.5619C54.9882 45.5393 55.2744 45.5421 55.5491 45.5886C56.7556 45.7928 57.5516 46.6763 58.2308 47.6246C58.5675 47.5075 58.8197 47.5183 59.1638 47.5695C58.1302 48.1465 56.9624 49.0143 55.718 48.9043C55.2894 48.8665 54.8962 48.7055 54.4649 48.8444C53.7442 49.0764 53.3564 49.753 52.5915 49.979L52.0001 49.8245C51.377 50.1163 50.9436 50.6807 50.3614 51.039C49.4357 51.6087 48.4632 52.1102 47.5137 52.6392C46.4962 53.2061 45.4919 53.8083 44.4331 54.2952C45.4157 53.4299 46.6559 52.5976 47.7825 51.9274C48.3826 51.5703 49.014 51.2473 49.5973 50.8644C50.1962 50.4714 50.7794 49.605 51.3629 49.3365C51.8728 49.1017 52.3689 49.5303 52.902 49.2546C53.4731 48.9592 53.7991 48.3024 54.437 48.1204C55.0878 47.9346 55.7659 48.3117 56.4368 48.1581L56.4771 48.1484C56.9441 48.0308 57.3846 47.8303 57.8545 47.7161C56.8125 47.0574 56.439 46.0892 54.9718 46.1117C52.8168 46.1449 49.5829 48.034 47.8544 49.2235C46.6521 50.0509 45.4762 50.9865 44.3978 51.9703C43.652 52.6506 43.0928 53.3386 42.4056 54.0538C42.5746 53.7738 42.7546 53.5009 42.9455 53.2354C43.1364 52.9698 43.3376 52.7123 43.5491 52.4628C44.1677 51.7294 44.8707 51.0961 45.5945 50.4695C47.8376 48.5272 51.667 45.8198 54.7108 45.5619Z" fill="white"/>
<path d="M0 0H66V66.0645H0V32.529C0.184126 33.2251 0.314881 33.9143 0.583699 34.5875C1.39631 36.6226 3.07 38.6557 4.69661 40.0942C5.43656 40.7486 6.23434 41.3284 7.04473 41.891C6.49114 42.2224 5.93584 42.5762 5.43794 42.9878C5.17449 43.209 4.92395 43.444 4.68633 43.6928C4.44871 43.9417 4.22543 44.2028 4.01651 44.4762C2.78913 46.0624 2.37591 47.5977 2.19243 49.5511C1.91037 49.7155 1.56684 49.9305 1.4316 50.2397C1.25895 50.6345 1.51204 51.2942 1.68362 51.6721C1.9638 52.289 2.56919 52.3864 3.13296 52.6079C3.31294 52.95 3.48541 53.3015 3.7027 53.6218C4.43829 54.7061 5.54139 55.5044 6.75327 55.9779C9.06507 56.8812 11.4704 56.5586 13.699 55.5965C14.3206 55.3282 14.9065 54.9871 15.5247 54.7174L15.5627 54.7011C15.714 55.0432 15.7349 55.4024 15.835 55.7581C15.9302 56.0971 16.0945 56.415 16.204 56.7494C16.3837 57.299 16.3691 57.9835 16.7977 58.4224C17.2025 58.837 17.7263 58.9994 18.248 59.213C19.7949 59.8461 20.983 60.2395 22.6876 60.2423C26.227 60.2479 29.7749 58.2745 32.2272 55.8228C33.0621 56.5663 33.3037 57.2186 33.8971 58.093C34.1749 58.5025 34.8449 59.6026 35.3142 59.6877C36.3451 59.8746 38.875 58.9102 39.8586 58.3886C40.3718 58.1164 40.8478 57.7755 41.3264 57.4478C45.3006 59.1801 49.3168 60.1415 53.5092 58.5057C56.2631 57.4311 58.8802 55.0866 59.713 52.1773C59.858 51.6508 59.9618 51.1164 60.0243 50.5739C60.0639 50.2568 60.067 49.9327 60.1532 49.6236C60.2273 49.3581 60.3796 49.1064 60.4896 48.8535C60.7607 48.2302 60.8801 47.5572 60.619 46.9086C60.2137 45.9019 56.8459 44.1378 55.8122 43.6958C57.1256 43.2027 58.1072 42.3006 58.7332 41.0446C59.0274 40.4545 59.2514 39.8261 59.5197 39.2234C59.7807 38.6371 60.1207 38.0889 60.4002 37.5113C60.0845 36.6295 59.3262 35.5834 58.7806 34.8126C59.3097 34.4051 59.8606 34.0357 60.3754 33.6075C62.1735 32.1113 63.7595 30.1943 64.7245 28.0522C65.2272 26.9369 66.2172 23.7812 65.766 22.6855C65.5327 22.1181 64.1082 21.529 63.5141 21.303C61.0076 20.3493 58.0456 20.3337 55.4772 21.0547C54.397 21.3579 53.4027 21.7848 52.3823 22.2439C52.9139 21.2251 53.3509 20.1324 53.7092 19.0409C54.2529 17.3845 54.7873 15.2736 54.0616 13.6055C53.8341 13.0827 53.4458 12.6712 53.2082 12.1646C53.0053 11.7318 52.9632 11.2423 52.7403 10.808C52.2975 9.94568 51.3867 9.33535 50.4823 9.05213C48.7134 8.49813 46.6968 8.83974 45.0125 9.5349C44.3898 9.79187 43.7959 10.1115 43.1991 10.4225C42.154 9.36677 41.1055 8.398 39.8599 7.57871C38.068 6.39994 35.6806 5.36903 33.5046 5.83169C32.3486 6.07748 31.5641 6.68026 30.9268 7.65639C30.318 7.86594 29.8373 8.15742 29.3218 8.53548C28.7546 7.82703 26.8367 6.00781 25.9613 5.86426C25.5748 5.80087 25.2226 5.96407 24.9204 6.19117C24.6245 6.41354 24.353 6.67858 24.0822 6.93064C22.1294 8.74845 20.6816 11.2149 20.3155 13.8834C19.9607 13.6809 19.6208 13.456 19.2958 13.2086C18.6445 12.7149 17.8429 11.9275 17.0649 11.7032C16.6695 11.5892 16.2629 11.6424 15.9078 11.8498C14.8095 12.4914 14.1865 14.9457 13.8741 16.1275C13.827 16.1184 13.7798 16.1098 13.7324 16.1018C11.3932 15.7052 9.46455 16.0729 7.30144 16.9808C6.94876 17.1288 6.46259 17.255 6.16028 17.4799C5.97968 17.6144 5.92797 17.7719 5.89515 17.9882C5.81113 18.5422 5.93269 19.1626 6.05341 19.7034C6.57905 22.0578 7.76705 24.2482 9.21241 26.1606C8.39167 25.8099 7.38433 25.5445 6.4952 25.5241C4.81353 25.4857 3.02274 26.2206 1.81465 27.3844C1.1251 28.0487 0.792412 28.777 0.776099 29.7291C0.369729 30.2837 0.156716 30.7928 0 31.4622V0Z" fill="#1C1C1C"/>
</g>
<defs>
<clipPath id="clip0_107_4640">
<rect width="66" height="66" rx="10" fill="white"/>
</clipPath>
</defs>
</svg>
