<svg width="66" height="66" viewBox="0 0 66 66" fill="none" xmlns="http://www.w3.org/2000/svg">
<g clip-path="url(#clip0_107_4630)">
<path d="M0 0H66V66H21.7585H21.6481H0V0Z" fill="white"/>
<path d="M21.8831 11.8794C21.9565 11.9295 23.3273 13.3402 23.346 13.3828L23.2935 13.4002C23.1451 13.4238 23.0065 13.4658 22.8636 13.5101L22.8631 13.5135C22.558 12.9549 22.2253 12.4159 21.8831 11.8794Z" fill="#1C1C1C"/>
<path d="M10.0956 10.0896L10.1574 10.0948C10.1991 10.2321 9.86101 10.9761 9.79211 11.1502L9.53843 10.9366C9.40211 10.8083 9.27584 10.6763 9.15222 10.5357C9.42241 10.2951 9.75383 10.1849 10.0956 10.0896Z" fill="#1C1C1C"/>
<path d="M60.473 41.613C61.108 41.8718 62.2677 42.5466 62.6568 43.1133C62.0082 42.835 61.403 42.5564 60.7092 42.3962C60.5611 42.1261 60.4845 41.9239 60.473 41.613Z" fill="#1C1C1C"/>
<path d="M31.1108 54.0431C31.4105 54.1033 31.72 54.116 32.0244 54.1393C31.7992 54.7084 31.6641 55.2742 31.5529 55.8738C31.4779 55.9599 30.999 56.0277 30.8599 56.0593C30.918 55.387 31.032 54.714 31.1108 54.0431Z" fill="#1C1C1C"/>
<path d="M29.3439 57.8197L29.3934 57.8275C29.2061 58.0348 28.8364 58.2168 28.5927 58.3542C27.8949 58.2298 26.3855 58.3712 25.6681 58.4852C25.21 58.558 24.7945 58.6966 24.3245 58.6962C24.5975 58.3382 25.0338 58.0594 25.4745 57.9782C25.7119 58.1088 25.9321 58.1727 26.2001 58.1981C26.8884 58.2634 28.6448 57.9891 29.3439 57.8197Z" fill="#1C1C1C"/>
<path d="M33.2902 57.0556C33.3165 57.0777 33.3274 57.0807 33.3406 57.1107C33.5398 57.5611 33.1871 59.0185 33.0233 59.4718C32.8371 59.9868 32.5157 60.694 32.0473 61.0078C31.8237 61.1576 31.5525 61.2608 31.3089 61.3744L31.2816 61.3628C32.0089 60.4903 32.6074 59.5785 32.8977 58.4636C33.0242 57.9776 33.0765 57.5174 33.2902 57.0556Z" fill="#1C1C1C"/>
<path d="M27.1617 58.7974L27.7014 58.775C27.5401 58.8814 27.3775 58.9858 27.2135 59.088C26.2392 59.6849 25.1517 59.6766 24.0623 59.4165C23.8542 59.3744 23.6465 59.3302 23.4393 59.284C23.4229 59.2355 23.4406 59.2274 23.4619 59.183C23.7314 58.9836 24.1563 59.1161 24.4776 59.1172C24.9488 59.1187 25.3995 58.9831 25.861 58.9074C26.2922 58.8367 26.7259 58.8144 27.1617 58.7974Z" fill="#1C1C1C"/>
<path d="M32.661 56.2493L32.6656 56.2671L32.6395 56.3084C32.3737 56.4315 32.059 56.6094 31.8351 56.7991C31.3904 57.1759 31.0111 57.6146 30.5898 58.0154C29.6158 58.9421 28.4624 59.323 27.1991 59.6776L27.2122 59.6343C27.8626 59.2324 28.579 58.9475 29.2183 58.5284C29.7627 58.1716 30.2647 57.7296 30.7588 57.3071C31.1264 56.9929 31.4942 56.6299 31.9348 56.4206C32.1723 56.3077 32.4005 56.2667 32.661 56.2493Z" fill="#1C1C1C"/>
<path d="M30.9862 56.5642L31.0286 56.5594L31.0374 56.5853C30.8151 56.7603 30.5878 56.9753 30.3541 57.13C30.2761 57.1816 30.1847 57.2217 30.0934 57.2424C29.9265 57.2803 29.7524 57.2859 29.5839 57.3158C28.9274 57.4321 28.2737 57.5207 27.6125 57.6045C27.2232 57.6539 26.8317 57.7485 26.4395 57.7651C26.246 57.7733 26.0789 57.7383 25.8926 57.6941C25.8148 57.6707 25.725 57.6586 25.6764 57.5884L25.7118 57.528C26.2069 57.2447 27.7464 57.1922 28.397 57.0779C29.2626 56.926 30.1228 56.7307 30.9862 56.5642Z" fill="#1C1C1C"/>
<path d="M28.9305 52.5263C29.0373 52.6503 29.3678 54.7574 29.3986 55.0502C29.4437 55.478 29.4536 55.9107 29.4708 56.3403C29.2745 56.3897 29.0772 56.4354 28.8791 56.4773C28.8792 55.6856 28.7952 54.9112 28.5934 54.1437C28.5008 53.7919 28.375 53.4507 28.2933 53.0958C28.6175 52.9639 28.7607 52.8268 28.9305 52.5263Z" fill="#1C1C1C"/>
<path d="M30.0632 51.3936C30.096 51.5553 30.0815 51.7576 30.0883 51.9248C30.1167 52.6196 30.1636 53.2243 30.579 53.8042C30.4411 54.5748 30.4115 55.3782 30.3407 56.158C30.1858 56.2032 30.0294 56.2292 29.8706 56.2567L29.8426 56.2541C29.8346 56.2409 29.8213 56.2298 29.8186 56.2146C29.7958 56.0873 29.8915 55.6631 29.9029 55.4963C29.915 55.3189 29.9034 55.137 29.8924 54.9598C29.8334 54.0045 29.62 53.0535 29.4617 52.111C29.6972 51.8863 29.8915 51.671 30.0632 51.3936Z" fill="#1C1C1C"/>
<path d="M54.2094 37.8466C55.6939 37.9015 57.1641 38.226 58.2718 39.2748C58.1565 39.4424 58.0324 39.5899 57.8946 39.7394C57.7252 39.9059 57.5575 40.0286 57.3425 40.1283C56.2978 38.8267 55.7777 38.4731 54.2094 37.8466Z" fill="#1C1C1C"/>
<path d="M39.8177 39.47C39.9153 39.6483 39.9268 40.314 39.9626 40.5459C39.9996 40.7747 40.0456 41.0016 40.1006 41.2268C40.1809 41.5538 40.3004 41.8846 40.4227 42.1983C40.5592 42.5488 41.4605 44.5117 41.432 44.6819C41.3725 44.7149 41.3821 44.718 41.3074 44.7127C41.1641 44.5715 41.1019 44.2917 41.0349 44.1031C40.9098 43.8343 40.7414 43.5885 40.5149 43.3949C39.9845 42.9417 39.3916 42.9153 38.728 42.9651C38.8617 42.6895 38.9849 42.4092 39.0977 42.1244C39.2105 41.8395 39.3125 41.5508 39.4037 41.2583C39.4949 40.9659 39.575 40.6704 39.6441 40.3719C39.7132 40.0734 39.7711 39.7728 39.8177 39.47Z" fill="#1C1C1C"/>
<path d="M32.816 57.1679C32.8539 57.5539 32.3114 58.4893 32.0893 58.8077C31.0918 60.2381 29.2019 61.9728 27.4406 62.2912L27.4378 62.2435C27.7135 61.6607 30.2427 59.9656 30.9119 59.3619C31.6314 58.7129 32.1735 57.8886 32.816 57.1679Z" fill="#1C1C1C"/>
<path d="M7.21244 14.9152C7.30461 15.0445 7.28708 15.9762 7.30796 16.2207C7.39401 17.2288 7.62269 18.2167 7.81295 19.2086C7.25666 19.2549 7.08148 19.4324 6.72234 19.8412C6.78157 18.865 6.99549 17.8977 7.0651 16.9216C6.92866 17.0156 6.79659 17.1035 6.68335 17.2261C6.29463 17.984 6.44925 19.2783 6.47413 20.1326L6.25241 20.5061C5.97439 19.1019 6.08959 17.5066 6.59795 16.1712C6.76482 15.7327 6.98757 15.3255 7.21244 14.9152Z" fill="#1C1C1C"/>
<path d="M20.5517 10.2029C20.9645 10.2437 21.3592 10.3783 21.7347 10.5498C22.592 10.9412 24.0346 11.9187 24.552 12.7367C24.7446 13.0409 24.8558 13.411 24.9826 13.7468C24.5497 13.5726 24.1626 13.478 23.7028 13.4185C23.6827 13.3624 23.6579 13.3113 23.6259 13.2609C23.3142 12.7708 22.1408 11.6241 21.6087 11.5017C21.2537 11.0709 20.9014 10.638 20.5517 10.2029Z" fill="#1C1C1C"/>
<path d="M22.8356 11.8839C22.8923 11.8882 22.9497 11.8933 23.0051 11.9061C23.6545 12.055 24.3085 12.8534 24.6354 13.3911C23.9955 13.2417 23.275 12.38 22.8356 11.8839Z" fill="white"/>
<path d="M32.4189 56.8787L32.4404 56.9022C32.3179 57.208 31.2326 58.3675 30.9664 58.6516C30.4473 59.2058 29.1191 60.3157 28.3293 60.341L28.2943 60.2995C28.3211 60.2172 28.3383 60.1684 28.3264 60.0806C28.223 60.0853 26.7481 61.3467 26.4961 61.5235C25.5783 62.1678 24.7901 62.3315 23.6891 62.1366L23.8883 62.0577C24.2778 61.9437 24.6699 61.8163 25.0652 61.7246C25.2691 61.6773 25.478 61.6541 25.6819 61.6076C25.8186 61.5765 26.0006 61.5275 26.0797 61.4024L26.0506 61.3514C25.79 61.2392 25.5406 61.2605 25.2624 61.2648C26.6329 60.0596 28.0709 60.133 29.5391 59.2915C30.1152 58.9613 30.6683 58.5245 31.1475 58.064C31.5691 57.6591 31.9524 57.2355 32.4189 56.8787Z" fill="#1C1C1C"/>
<path d="M54.1269 36.6923C55.8381 36.58 57.5606 36.981 59.116 37.671C58.9533 38.0027 58.801 38.3403 58.6074 38.6553C58.0809 38.2067 57.517 37.9102 56.8709 37.6693C54.9799 36.9999 52.9323 37.1404 50.9869 37.4482C51.9575 36.9916 53.0605 36.7498 54.1269 36.6923Z" fill="#1C1C1C"/>
<path d="M11.715 41.9262C11.9522 41.9202 12.1881 41.9278 12.4252 41.9359C12.5463 42.2279 12.576 42.646 12.8113 42.8725L12.8793 42.8331C12.9367 42.6787 12.9264 42.5157 12.9283 42.3529C13.1919 42.3494 13.5405 42.3032 13.778 42.4331C13.8596 42.4778 13.9372 42.5457 13.9659 42.6359C13.7878 42.8504 13.3836 42.9009 13.1367 43.0306C12.6315 43.2961 12.4129 43.8015 12.2589 44.3187C11.7814 44.0068 11.4258 43.9234 10.8591 43.8965C10.4751 43.9308 10.1531 44.0357 9.80708 44.2017C9.63615 44.0233 9.4239 43.878 9.22797 43.7278C9.41804 43.1409 9.99296 42.9301 10.4691 42.613C10.7384 42.4336 10.9817 42.2277 11.224 42.0145C11.1778 42.2281 11.0869 42.4266 11.0324 42.6381C11.0015 42.7579 10.9426 42.9392 11.0082 43.0489C11.028 43.0417 11.0493 43.0376 11.0677 43.0272C11.1251 42.9943 11.1886 42.8995 11.234 42.8471C11.4924 42.5484 11.6473 42.327 11.715 41.9262Z" fill="#1C1C1C"/>
<path d="M23.5511 59.8156C23.9332 59.7706 24.3355 59.9639 24.7186 59.9996C25.1663 60.0414 25.6307 60.0255 26.0807 60.0323C25.7587 60.2711 25.466 60.5482 25.1424 60.7848C24.5063 61.2499 23.7424 61.6441 23.0178 61.9544C22.421 62.1969 21.8809 62.4841 21.3472 62.8424C21.4466 62.3702 21.5566 61.904 21.7619 61.4645C22.1352 60.6654 22.7229 60.113 23.5511 59.8156Z" fill="#1C1C1C"/>
<path d="M60.7882 39.33C61.4915 39.6928 62.1341 40.2606 62.6594 40.8472C63.876 42.2055 64.8328 43.9589 65.126 45.7674C65.1744 46.0636 65.2324 46.386 65.215 46.6866L65.195 46.6545C65.0951 46.3146 64.9939 45.9734 64.874 45.6398C64.0671 43.3885 62.7633 41.9463 60.588 40.9183C60.6161 40.374 60.6535 39.8601 60.7882 39.33Z" fill="#1C1C1C"/>
<path d="M23.543 14.0935C23.9123 14.0857 24.2323 14.1738 24.5658 14.3248C24.8078 14.8693 24.9468 15.4909 25.1305 16.0589C25.7319 17.919 26.4003 19.6942 26.4573 21.6736C26.4639 21.9035 26.4994 22.2354 26.4392 22.4534L26.3943 22.3253C26.1424 21.536 25.8452 20.7598 25.5625 19.9811C25.1593 18.8706 24.7596 17.7618 24.31 16.669C24.1014 16.1618 23.8838 15.6585 23.6571 15.1592C23.5129 14.8426 23.3198 14.5088 23.2287 14.1762C23.3126 14.1066 23.4376 14.1066 23.543 14.0935Z" fill="#1C1C1C"/>
<path d="M39.097 43.5799C39.4375 43.5759 39.7731 43.6426 40.0451 43.8604C40.4226 44.1626 40.4959 44.597 40.5548 45.0466C39.9573 45.4049 39.4618 45.7982 39.0084 46.3301C37.8439 47.6965 37.0064 49.3203 35.9667 50.781C35.514 51.4102 35.0374 52.0208 34.5369 52.6128C34.1959 53.0224 33.8262 53.4272 33.5287 53.8695C33.3993 54.0618 33.281 54.2607 33.1739 54.4663C33.0668 54.6719 32.9716 54.8828 32.8882 55.0991C32.8141 55.3114 32.7657 55.5334 32.7118 55.7516C32.5065 55.7627 32.3013 55.7753 32.0961 55.7894C32.2345 55.1947 32.4165 54.5944 32.7165 54.0607C34.8295 53.2769 35.5632 49.979 36.29 48.0806C36.6932 47.0277 37.2519 46.062 37.7697 45.0645C37.9521 44.7129 38.0978 44.2844 38.3333 43.9713C38.5361 43.7017 38.7755 43.622 39.097 43.5799Z" fill="#1C1C1C"/>
<path d="M64.1957 33.6056C64.231 33.6063 64.2882 33.6073 64.3222 33.6222C64.4789 33.6907 64.6033 33.9029 64.6729 34.0509C64.7702 34.2587 64.9913 34.6841 64.8849 34.9168C64.843 35.0075 64.3626 34.921 64.2501 34.9309C64.1588 34.9389 64.0634 34.9681 63.9774 34.9985C63.0558 35.3244 62.1844 35.9944 61.5306 36.7103C61.4101 36.8441 61.2957 36.983 61.1875 37.1269C61.0793 37.2709 60.9777 37.4193 60.8827 37.5723C60.7876 37.7252 60.6995 37.8821 60.6183 38.0428C60.5372 38.2035 60.4633 38.3676 60.3967 38.5349C60.3533 38.6397 60.3133 38.7458 60.2765 38.8531C60.2398 38.9604 60.2064 39.0687 60.1764 39.1781C60.1465 39.2875 60.1199 39.3977 60.0968 39.5087C60.0736 39.6198 60.0539 39.7314 60.0377 39.8437C60.0216 39.956 60.0089 40.0686 59.9997 40.1817C59.9906 40.2947 59.9849 40.408 59.9828 40.5213C59.9806 40.6347 59.982 40.7481 59.987 40.8614C59.9919 40.9747 60.0003 41.0878 60.0123 41.2006C60.0448 41.5119 60.1239 41.8192 60.1817 42.1266C60.3876 43.2212 60.5238 44.2988 60.0386 45.3361C60.0679 45.1941 60.0892 45.0509 60.1027 44.9066C60.1162 44.7623 60.1218 44.6177 60.1194 44.4728C60.1089 43.6579 59.8349 42.9939 59.2319 42.4352C59.0718 42.2868 58.8806 42.2611 58.6688 42.2731C57.8745 42.318 57.1281 42.8633 56.6266 43.4439L56.7332 43.1435C56.7994 42.9582 56.8757 42.7771 56.9622 42.6003C57.0487 42.4236 57.1448 42.2523 57.2507 42.0864C57.3823 41.8829 57.5569 41.6735 57.6553 41.454C57.6842 41.3893 57.6893 41.3135 57.6506 41.2507C57.6113 41.1868 57.5488 41.1549 57.4752 41.155C57.2706 41.1551 57.1331 41.3684 57.0166 41.5092C56.937 41.4613 56.8572 41.4139 56.7771 41.367C55.6744 40.7224 54.9675 40.763 53.7715 41.0785C55.4857 39.8718 57.2625 41.0199 58.0828 40.4361C59.1752 39.6589 59.6867 37.6171 60.4857 36.5017C61.267 35.4112 62.9945 34.2286 64.1957 33.6056Z" fill="#1C1C1C"/>
<path d="M32.4994 30.0734C32.6092 30.0533 32.7108 30.0486 32.8202 30.077C33.5747 30.2731 33.5595 31.1162 33.8838 31.6659C34.1809 32.1695 34.781 32.2112 35.2893 32.3474C35.6911 32.455 36.0111 32.6405 36.2256 33.0065C35.8902 34.2597 35.8223 34.387 36.3008 35.6245C36.2365 35.6373 36.1726 35.6517 36.109 35.6675C35.4232 35.8383 34.8105 36.2534 34.4403 36.8607C34.0697 36.4796 33.6323 36.1916 33.1023 36.0937C32.4786 35.9785 31.8885 36.1697 31.3745 36.5192C31.1539 36.6925 30.9506 36.877 30.7479 37.0709C30.5134 36.5966 30.2546 36.2203 29.9065 35.8226C30.2946 35.3626 30.5625 34.8114 30.9785 34.3755C31.2371 34.1045 31.5631 33.8685 31.9533 33.8673C32.5165 33.8656 32.7447 34.2771 33.0929 34.6303C33.0336 34.4851 32.9705 34.3389 32.8867 34.2058C32.7049 33.9172 32.4365 33.6871 32.094 33.6247C31.7121 33.5549 31.4057 33.7036 31.0984 33.9092C31.4201 33.1196 31.686 32.284 31.9161 31.4636C32.0249 31.076 32.1011 30.6771 32.224 30.2939C32.2629 30.1728 32.3938 30.1289 32.4994 30.0734Z" fill="#1C1C1C"/>
<path d="M35.2099 23.7904C35.4482 23.7652 35.7082 23.7806 35.9358 23.8569C36.3211 23.9862 36.5239 24.2448 36.7019 24.5907C36.541 24.9084 36.4128 25.2326 36.3568 25.5861C36.2447 26.2922 36.4709 26.899 36.8811 27.4637C36.446 27.9781 36.0625 28.4503 36.0237 29.1502C35.9789 29.9588 36.4132 30.9351 36.9461 31.5267C36.7425 31.7375 36.625 31.9599 36.4994 32.2204C36.2654 32.0443 36.029 31.9187 35.7613 31.8016C35.3448 31.6492 34.9019 31.6298 34.505 31.4186C34.1289 30.8227 34.0666 30.0975 33.4364 29.6635C33.1 29.4318 32.7549 29.4286 32.3696 29.4978C32.6071 28.3408 32.6368 27.1063 32.6474 25.9294C32.654 25.9219 32.6605 25.9142 32.6674 25.9069C32.6788 25.8948 32.6907 25.883 32.7022 25.871C32.9026 25.6618 33.1696 25.5597 33.3809 25.3694C33.64 25.1359 33.7656 24.7868 33.9637 24.5057C34.2674 24.0753 34.707 23.8787 35.2099 23.7904Z" fill="#1C1C1C"/>
<path d="M43.6616 49.3054C43.7453 49.4521 43.6867 50.214 43.7469 50.4897L43.9428 50.7135C44.0085 51.5031 44.0849 52.2832 44.199 53.0675C43.5799 53.5613 43.0141 54.0746 42.339 54.4983C41.7278 54.8818 41.0625 55.1737 40.4327 55.5244C39.7815 55.8869 39.1534 56.2754 38.4694 56.5765C37.6653 56.9305 36.8338 57.2072 36.0159 57.5254C35.3827 57.7719 34.7628 58.0587 34.1418 58.3346L33.7787 58.5061C33.8349 58.1863 33.8505 57.8663 33.8576 57.5422C34.2536 57.4549 34.6345 57.349 34.9711 57.1133C35.4199 56.7991 35.7684 56.3531 36.1348 55.9505C36.4598 55.5893 36.8065 55.2502 37.1749 54.9332C37.9391 54.2817 38.8063 53.737 39.6151 53.142C41.1414 52.0193 42.4717 50.782 43.6616 49.3054Z" fill="#1C1C1C"/>
<path d="M32.5459 36.7133C32.6874 36.6985 32.8368 36.6916 32.9779 36.7119C33.4606 36.7816 33.8831 37.1082 34.1599 37.4983C34.0568 38.0467 33.8509 38.586 33.7075 39.1267C33.4289 40.1814 33.1958 41.2459 33.0082 42.3205C32.8745 43.0843 32.7698 43.852 32.6939 44.6237C32.5812 45.7775 32.5124 46.9354 32.2996 48.077C31.9706 49.842 31.3644 51.5634 31.2357 53.3591C31.2349 53.3766 31.2357 53.3941 31.2334 53.4115C31.229 53.4436 31.1907 53.4588 31.1667 53.4762C30.9384 53.3544 30.8269 53.1258 30.7531 52.8866C30.6164 52.4436 30.6609 51.9738 30.6424 51.5176C30.6249 51.0845 30.4965 50.6255 30.5217 50.1984C30.545 49.8051 30.6593 49.3876 30.7206 48.9954C30.7846 48.5858 30.8224 48.1711 30.883 47.7603C31.0216 46.8206 31.1813 45.8989 31.1596 44.9448C31.1446 44.2774 31.0602 43.5956 30.9264 42.9416C30.6139 41.4138 29.9512 39.6573 30.7678 38.1843C31.1623 37.4729 31.7633 36.9423 32.5459 36.7133Z" fill="#1C1C1C"/>
<path d="M12.9437 3.62236C13.1112 3.60908 13.2862 3.59616 13.4542 3.61154C13.6374 3.6283 13.8345 3.68158 13.9685 3.81481C14.4079 4.25147 14.5585 5.33499 14.7253 5.92088C14.8196 6.25192 14.9306 6.58201 15.0749 6.89486C15.4107 7.62222 15.9002 8.20345 16.4209 8.80229C16.2972 9.1767 16.1765 9.55181 16.0326 9.91907C15.7471 9.52148 15.4815 9.11095 15.236 8.6875C14.9905 8.26404 14.7662 7.82965 14.5631 7.38432C14.1247 6.42653 13.8296 5.24418 13.1534 4.42947C13.4973 6.43535 14.4845 9.08588 15.8596 10.6035C15.5284 12.2086 15.3666 13.7362 15.3563 15.3751C14.8026 15.0072 14.2373 14.6263 13.7178 14.2118C13.3752 13.2591 13.0978 12.3093 12.8797 11.3201C12.6714 10.4456 12.5256 9.5562 12.3808 8.66945C12.2689 7.98425 11.9504 5.49621 11.6832 5.02406C11.6295 4.92904 11.5795 4.88671 11.4763 4.85502C11.4263 4.88394 11.4103 4.88489 11.3806 4.93798C11.3163 5.0528 11.3144 5.20929 11.3226 5.33722C11.3808 6.24072 11.679 7.26457 11.8562 8.16594C12.0933 9.43524 12.3504 10.7005 12.6276 11.9617C12.7653 12.5807 12.895 13.2063 13.0778 13.8138C12.7464 13.5571 12.4004 13.3083 12.0942 13.022C11.9816 12.5481 11.8819 10.8571 11.5892 10.5695L11.5352 10.5796C11.365 10.8988 11.5136 12.264 11.5489 12.6711C11.1787 12.3995 10.8124 12.1172 10.4897 11.7897C11.0798 10.319 11.347 8.35208 11.0801 6.80005C10.9754 6.19158 10.7612 5.60493 10.6455 4.99719C10.7157 4.83992 10.8007 4.69549 10.9123 4.56389C11.4085 3.9789 12.1992 3.68893 12.9437 3.62236Z" fill="#1C1C1C"/>
<path d="M24.1277 38.9084C24.7237 38.8237 25.274 39.0272 25.7471 39.3748C25.7354 41.4748 26.3591 43.4709 27.0125 45.4447C27.2012 46.0147 27.431 46.5692 27.5896 47.1492C27.9389 48.4262 28.0705 49.7903 28.2455 51.1004C28.2886 51.4229 28.4589 52.209 28.3366 52.4927C28.2859 52.5251 28.2549 52.54 28.1932 52.5437C27.7752 52.5693 27.0899 52.1336 26.7715 51.8797C26.055 51.2584 25.6645 50.2495 25.282 49.402C25.161 49.1339 25.0056 48.8488 24.9401 48.5619C24.8521 48.1763 24.8725 47.7448 24.8245 47.3495C24.6907 46.2455 24.4483 45.1376 24.006 44.114C23.6362 43.2581 23.1715 42.5002 22.537 41.8125C22.3363 41.5951 22.0424 41.4096 21.8857 41.1649C21.894 40.7165 22.0816 40.2835 22.3497 39.9284C22.7893 39.3462 23.4108 39.0078 24.1277 38.9084Z" fill="#1C1C1C"/>
<path d="M28.2429 36.0079C28.5241 35.9979 28.8239 36.0494 29.0818 36.1618C29.7432 36.4503 30.0463 37.059 30.2987 37.6916C30.0777 38.1347 29.8902 38.5671 29.8046 39.0583C29.5174 40.7091 30.4873 42.987 30.5654 44.7965C30.6114 45.8607 30.4153 46.8886 30.274 47.937C30.1585 48.7934 30.0926 49.6957 29.8158 50.5172C29.6753 50.9345 29.489 51.2791 29.1902 51.6028C29.1031 51.6794 29.0109 51.7505 28.9203 51.823C28.7232 50.2172 28.5378 48.3561 28.1105 46.8048C27.9699 46.2945 27.7505 45.8078 27.5812 45.3066C27.1523 44.0369 26.7429 42.7053 26.5363 41.38C26.3144 39.9564 26.2221 37.9059 27.1251 36.6899C27.4123 36.303 27.7635 36.0768 28.2429 36.0079Z" fill="#1C1C1C"/>
<path d="M41.8952 45.1625C42.4822 45.2429 42.9863 45.3352 43.4344 45.7541C43.7911 46.0876 44.036 46.541 44.0522 47.0354C44.0611 47.3094 44.0142 47.5954 43.9006 47.8455C43.7546 48.1665 43.5089 48.4648 43.2946 48.7444C42.1893 50.1868 40.8608 51.4225 39.4219 52.5283C38.5828 53.1732 37.6592 53.7206 36.8513 54.4035C36.1452 55.0004 35.5819 55.7277 34.9467 56.3938C34.6196 56.6884 34.3074 56.8497 33.8667 56.9006C33.7217 56.6856 33.5729 56.5115 33.3636 56.3553L33.3338 56.0778C33.2737 55.5403 33.5365 54.9771 33.804 54.5258C34.4177 53.4906 35.3412 52.6621 36.0479 51.6904C36.6125 50.9145 37.1564 50.1242 37.6795 49.3197C38.1143 48.6456 38.5196 47.9485 38.9938 47.3009C39.6822 46.3607 40.6862 45.3478 41.8952 45.1625Z" fill="#1C1C1C"/>
<path d="M36.6918 36.2352C36.7255 36.2329 36.7592 36.2314 36.7929 36.2306C36.8266 36.2298 36.8603 36.2297 36.8941 36.2304C36.9278 36.2311 36.9615 36.2325 36.9952 36.2347C37.0288 36.2369 37.0624 36.2398 37.096 36.2435C37.1295 36.2471 37.163 36.2515 37.1963 36.2567C37.2296 36.2618 37.2629 36.2677 37.2959 36.2743C37.329 36.281 37.3619 36.2883 37.3947 36.2965C37.4274 36.3045 37.46 36.3133 37.4923 36.3229C37.5247 36.3324 37.5569 36.3426 37.5888 36.3536C37.6207 36.3645 37.6523 36.3762 37.6837 36.3886C37.7151 36.4009 37.7462 36.4139 37.777 36.4277C37.8078 36.4414 37.8383 36.4558 37.8685 36.4709C37.8987 36.486 37.9285 36.5018 37.958 36.5182C37.9875 36.5345 38.0166 36.5516 38.0453 36.5693C38.074 36.587 38.1023 36.6053 38.1302 36.6243C38.1582 36.6433 38.1856 36.6628 38.2127 36.683C38.7773 37.1046 39.0798 37.7706 39.1798 38.4543C39.3141 39.3718 39.0981 40.3094 38.8109 41.1772C38.155 43.159 36.9806 44.8984 36.117 46.7888C35.1547 48.895 34.9969 50.7695 33.5465 52.7043C33.4982 52.7604 33.4489 52.8156 33.3988 52.8701C32.9704 53.3332 32.4344 53.5795 31.8056 53.603C31.7867 51.9067 32.5781 49.8438 32.8879 48.1243C33.1575 46.6277 33.2431 45.1124 33.4315 43.6058C33.5304 42.8333 33.657 42.0654 33.8111 41.302C33.9652 40.5386 34.1465 39.7818 34.3551 39.0315C34.5373 38.3545 34.7377 37.4901 35.1913 36.9455C35.5835 36.4746 36.0975 36.288 36.6918 36.2352Z" fill="#1C1C1C"/>
<path d="M25.1181 14.4538C25.7931 14.7469 26.9629 15.6867 27.5386 16.1775C30.1344 18.3906 31.6863 21.9383 31.9505 25.3041C31.9881 25.8409 31.9994 26.3782 31.9845 26.9161C31.9696 27.4539 31.9285 27.9898 31.8611 28.5237C31.5929 30.6672 30.7322 33.8531 29.315 35.5079C29.0332 35.4518 28.7518 35.4116 28.467 35.3751C28.4294 34.9232 28.3737 34.474 28.3446 34.0211C28.2768 32.9611 28.2646 31.899 28.1985 30.8391C28.1591 30.2078 28.0835 29.5769 28.0182 28.9478C28.0037 28.8533 28.0002 28.7623 28.016 28.6677C28.0623 28.3911 28.1553 28.1148 28.2148 27.8397C28.3593 27.1714 28.4924 26.4917 28.597 25.8159C28.6479 25.4715 28.6844 25.1256 28.7067 24.7782C28.7288 24.4308 28.7366 24.083 28.73 23.735C28.7108 22.3324 28.5464 20.8121 28.0783 19.4871C27.9999 19.2651 27.9042 18.9597 27.7317 18.7916C27.6688 18.9013 27.7132 19.0733 27.7323 19.1952C27.7731 19.4561 27.854 19.7086 27.911 19.9666C28.0721 20.6958 28.2309 21.4245 28.3065 22.1684C28.4847 23.9227 28.36 25.9653 27.8384 27.6532C27.6124 26.2142 27.2 24.7822 26.7256 23.407C27.3927 21.3058 26.5214 18.2471 25.8 16.2188C25.5885 15.6243 25.3225 15.0509 25.1181 14.4538Z" fill="#1C1C1C"/>
<path d="M29.3768 25.3246L29.4108 25.3659C29.6762 26.8301 29.6687 29.2621 29.1674 30.6706L29.1222 30.7705C29.0573 30.5784 29.2216 26.6613 29.2618 26.122C29.2819 25.8536 29.3102 25.5859 29.3768 25.3246Z" fill="white"/>
<path d="M29.1343 19.6447C29.4328 19.8037 29.8583 21.0201 29.9794 21.3694C30.1321 21.8105 30.2659 22.2572 30.381 22.7096C30.496 23.1619 30.5919 23.6183 30.6686 24.0787C31.018 26.2535 31.0467 29.4389 30.0734 31.4389L29.8939 31.7179C30.6036 28.5064 30.7703 25.6934 29.9795 22.4765C29.8463 21.9345 29.6687 21.4081 29.4895 20.8801C29.3586 20.4944 29.1869 20.0851 29.1381 19.6805C29.1366 19.6686 29.1356 19.6566 29.1343 19.6447Z" fill="white"/>
<path d="M15.0648 39.3602C15.2679 39.3279 15.5523 39.3294 15.7512 39.3789C15.9408 39.4261 16.4549 39.58 16.5498 39.7462C16.4043 39.9319 15.9021 40.0191 15.6721 40.1168C14.8588 40.4624 14.2799 40.946 13.9422 41.7737C14.4566 41.1114 15.0947 40.6675 15.9094 40.4474C17.4739 40.0248 19.3542 40.4186 20.7389 41.2142C22.4562 42.2009 23.4295 43.9532 23.9369 45.8173C23.8901 45.7281 23.8416 45.6399 23.7913 45.5527C23.741 45.4654 23.689 45.3792 23.6353 45.294C23.5816 45.2088 23.5262 45.1247 23.4691 45.0417C23.4121 44.9587 23.3534 44.8769 23.2931 44.7963C23.2328 44.7156 23.1709 44.6362 23.1074 44.558C23.044 44.4798 22.979 44.4029 22.9124 44.3273C22.8459 44.2517 22.7779 44.1775 22.7084 44.1046C22.6389 44.0317 22.568 43.9602 22.4957 43.8901C22.4234 43.82 22.3497 43.7514 22.2746 43.6843C22.1996 43.6171 22.1232 43.5515 22.0456 43.4874C21.9679 43.4233 21.889 43.3608 21.8088 43.2998C21.7286 43.2388 21.6473 43.1795 21.5648 43.1217C21.4823 43.064 21.3986 43.008 21.3139 42.9536C21.2291 42.8991 21.1434 42.8464 21.0565 42.7955C20.9696 42.7445 20.8818 42.6952 20.793 42.6477C20.7042 42.6002 20.6145 42.5545 20.5239 42.5106C18.7975 41.6938 17.2994 41.6651 15.5217 42.2996C15.8827 42.2703 16.2414 42.2036 16.6026 42.1697C16.8118 42.1499 17.0214 42.1392 17.2316 42.1375C17.4417 42.1357 17.6515 42.143 17.861 42.1594C18.0705 42.1757 18.2789 42.2011 18.4863 42.2354C18.6936 42.2697 18.899 42.3129 19.1026 42.3649C20.785 42.7986 22.2624 43.8059 23.1514 45.3162C24.2657 47.2089 24.4324 49.5684 23.889 51.6671C23.8268 51.8681 23.7634 52.0674 23.676 52.2591C23.3446 52.9866 22.8129 53.4864 22.0668 53.7638C22.0741 53.6352 22.0791 53.5064 22.0819 53.3776C22.0847 53.2488 22.0852 53.12 22.0835 52.9911C22.0818 52.8623 22.0778 52.7335 22.0716 52.6048C22.0654 52.4761 22.0569 52.3475 22.0461 52.2191C22.0354 52.0908 22.0224 51.9626 22.0072 51.8346C21.992 51.7067 21.9745 51.579 21.9549 51.4516C21.9352 51.3243 21.9133 51.1974 21.8892 51.0708C21.8651 50.9442 21.8387 50.8181 21.8102 50.6924C21.7816 50.5668 21.7509 50.4417 21.718 50.3171C21.6851 50.1925 21.65 50.0685 21.6128 49.9452C21.5755 49.8219 21.5361 49.6992 21.4945 49.5772C21.453 49.4552 21.4094 49.334 21.3636 49.2136C21.3178 49.0931 21.2699 48.9735 21.2199 48.8548C21.1699 48.736 21.1179 48.6182 21.0638 48.5012C21.0097 48.3843 20.9536 48.2683 20.8955 48.1533C20.8373 48.0383 20.7771 47.9244 20.715 47.8115C19.7556 46.0822 18.275 44.388 16.4857 43.5013C15.9026 43.2123 15.2914 43.0325 14.6688 42.8531C14.5828 42.5875 14.4879 42.3364 14.2887 42.1311C13.9803 41.8135 13.5713 41.7962 13.1582 41.7884C12.8922 41.5083 12.6662 41.3306 12.2627 41.3032C11.9088 41.2793 11.4886 41.3092 11.1564 41.4396C10.7315 41.6063 10.4047 41.9547 10.0303 42.2063C9.66495 42.4517 9.26598 42.6337 8.93418 42.9289L8.90201 42.9025C7.93309 42.1197 6.89005 41.7746 5.65253 41.9005C5.71593 41.8326 5.78214 41.7675 5.85117 41.7054C6.08558 41.4944 6.33292 41.3011 6.61277 41.1538C7.34489 40.7683 8.5813 40.4731 9.3626 40.8751C9.59972 40.9972 10.1523 41.6022 10.3164 41.6102L10.3337 41.56C10.2247 41.0853 9.79514 40.6927 9.45889 40.3669C9.86643 40.0769 10.2789 39.8033 10.7631 39.6599C11.3235 39.494 11.8163 39.5434 12.3329 39.8222C12.2815 40.3335 12.4006 40.7571 12.599 41.2227C12.5976 40.7679 12.6207 40.3358 12.7091 39.8887C13.5479 39.8886 14.244 39.4626 15.0648 39.3602Z" fill="#1C1C1C"/>
<path d="M46.1031 19.9933C47.1012 19.9063 47.2505 20.5275 47.8893 20.5792C48.5402 20.632 49.0038 20.1047 49.8421 20.2531C50.4395 20.3587 51.0289 20.8087 51.5417 20.8571C52.0228 20.9026 52.2713 20.3044 52.7165 20.3339C53.024 20.3543 53.4105 20.8734 53.6137 21.085C51.0815 21.6959 49.6586 22.6792 47.5417 24.1349C47.4313 23.4952 47.4974 22.719 47.6068 22.081C47.0201 23.0297 47.2106 23.6052 46.9885 24.5777C46.9856 24.5902 46.9825 24.6025 46.9794 24.6149C46.7948 24.8191 46.5678 24.9948 46.3703 25.1882C46.0048 25.546 45.6547 25.9293 45.3162 26.3128C45.2787 25.1432 45.1718 23.9742 45.1386 22.8023C44.705 24.0362 44.7347 25.4618 44.944 26.7369C44.8003 26.9584 44.6245 27.1554 44.4533 27.3557C43.7879 26.6206 43.0704 26.0373 42.1999 25.5565C42.8664 26.1244 43.6551 27.085 44.1093 27.8421C43.9736 28.0917 43.7931 28.323 43.6301 28.5555C41.2721 31.9298 40.4476 34.8596 39.8963 38.9157C39.6962 38.1414 39.68 37.4401 39.17 36.7764C38.6488 36.0982 37.8672 35.7106 37.0285 35.6052C36.8506 35.2632 36.6299 34.8946 36.5792 34.5061C36.5246 34.088 36.6862 33.6634 36.8006 33.2663C36.8908 32.9535 36.9721 32.6278 37.138 32.3445C37.8169 31.1861 39.4637 31.302 40.2523 30.2667C40.8636 29.4642 40.5693 28.6971 40.4473 27.8046C40.4006 27.4632 40.4101 27.1098 40.5172 26.7803C40.8356 25.8006 42.1252 24.5366 42.864 23.8337C43.1534 23.5583 43.5237 23.2799 43.7509 22.9542C44.1849 22.3319 43.6908 21.564 44.2339 20.8766C44.6864 20.3039 45.4014 20.0641 46.1031 19.9933Z" fill="#1C1C1C"/>
<path d="M37.7609 13.4747C38.3646 13.4351 38.6404 13.906 39.1099 14.1714C39.8214 14.5738 40.4613 14.1453 41.1552 13.9614C41.3267 14.0108 41.4839 14.0701 41.6263 14.181C42.0359 14.5 42.1238 14.9971 42.19 15.4787C41.9132 15.6862 41.6565 15.9161 41.42 16.1684C40.6304 17.0172 40.3546 17.7749 40.3949 18.9216C39.6742 19.4129 39.3743 19.992 39.2111 20.841C38.6985 20.8052 38.2267 20.9246 37.8007 21.2142C37.0103 21.7515 36.7031 22.5635 36.5288 23.4636C36.249 23.2911 35.9167 23.194 35.5906 23.1648C34.8656 23.1001 34.2259 23.3459 33.6735 23.8029C33.3657 24.0978 33.1998 24.4359 33.027 24.8197C32.8691 24.9034 32.714 24.9941 32.558 25.0813C32.5049 24.6915 32.4776 24.299 32.41 23.9111C32.0121 21.6262 31.2419 20.0197 30.0827 18.0438C30.1377 17.8672 30.1908 17.6881 30.2747 17.5227C30.8461 16.3963 31.7034 17.0494 32.3709 16.8092C32.8703 16.6294 32.8859 15.8607 33.0961 15.4426C33.1492 15.3369 33.2123 15.2345 33.2903 15.1453C33.4118 15.0064 33.5614 14.9062 33.7335 14.8408C34.5403 14.5341 35.2917 15.2403 35.9595 15.0101C36.602 14.7887 36.6936 13.8204 37.7609 13.4747Z" fill="#1C1C1C"/>
<path d="M35.8048 18.6326C35.8534 18.63 35.902 18.6266 35.9506 18.6301C36.1359 18.6438 36.2806 18.7637 36.3933 18.9026C36.4975 19.031 36.5734 19.1809 36.5577 19.3489C36.5145 19.4208 36.5065 19.422 36.429 19.4562C36.3051 19.3999 36.2398 19.2081 36.1334 19.1144C36.0619 19.0517 35.9936 19.0132 35.8956 19.0226C35.877 19.0244 35.8586 19.0272 35.8402 19.0295C35.5434 19.2267 35.5931 19.4544 35.3947 19.6647C35.367 19.6941 35.3351 19.6861 35.2973 19.6893L35.2681 19.664C35.2019 19.494 35.2973 19.2312 35.363 19.0661C35.4642 18.8116 35.5596 18.7395 35.8048 18.6326Z" fill="white"/>
<path d="M7.05502 20.493C7.14261 20.6375 7.10329 21.2025 7.1089 21.3882C7.31689 28.2965 9.6575 34.0187 14.7124 38.777L14.6636 38.789C14.0219 38.9424 13.3339 39.376 12.6631 39.2521C12.3682 39.1975 12.088 39.0703 11.7923 39.009L11.7462 38.9996C11.2927 38.9574 10.8817 39.0311 10.44 39.1306C9.83237 38.8848 9.26692 38.5021 8.7326 38.1252C6.34797 36.4431 4.6199 33.8625 4.12874 30.9695C3.48336 27.1681 4.89192 23.5571 7.05502 20.493Z" fill="#1C1C1C"/>
<path d="M8.42789 32.4074C8.62292 32.5277 9.22711 33.8236 9.39984 34.1184C9.60029 34.4672 9.81436 34.8073 10.0421 35.1389C10.2698 35.4704 10.5104 35.7923 10.764 36.1046C11.0623 36.4694 11.3923 36.8097 11.6861 37.1771L11.6513 37.2271C11.5494 37.1743 11.4471 37.1211 11.3499 37.06C10.947 36.8065 10.5712 36.4549 10.2671 36.0902C9.64966 35.3498 8.58103 33.514 8.38702 32.5974C8.3653 32.4947 8.37284 32.4922 8.42789 32.4074Z" fill="white"/>
<path d="M6.59902 28.632C6.74494 28.7567 7.0801 30.759 7.16627 31.1004C7.30566 31.6497 7.47026 32.1913 7.66005 32.7252C7.91625 33.4358 8.20017 34.2185 8.5816 34.8704C8.76503 35.1859 8.96099 35.4935 9.16948 35.7931C9.30947 35.9905 9.80299 36.5467 9.86434 36.722C9.87266 36.7457 9.86879 36.772 9.87098 36.7969C9.8599 36.7935 9.84875 36.7902 9.83766 36.7866C9.00809 36.5181 8.36413 35.382 7.98998 34.6608C7.75232 34.1993 7.54584 33.7241 7.37053 33.2355C7.01468 32.2314 6.29251 29.6006 6.59902 28.632Z" fill="white"/>
<path d="M5.91666 24.0313C5.97668 24.3151 5.7413 25.3265 5.6956 25.6733C5.64561 26.0526 5.61484 26.439 5.58889 26.8207C5.54674 27.4173 5.5315 28.0145 5.54319 28.6124C5.55488 29.2104 5.59344 29.8066 5.65888 30.4011C5.79047 31.5091 6.09563 32.5885 6.47698 33.6347C6.55658 33.8532 7.03386 34.8915 7.02896 35.0129C6.94207 35.01 6.89451 34.9406 6.83031 34.8845C5.97285 33.8739 5.61018 32.5031 5.37055 31.2236C5.00898 29.2931 5.02872 27.1978 5.47073 25.2814C5.56544 24.8708 5.67587 24.3838 5.91666 24.0313Z" fill="white"/>
<path d="M34.6355 1.78536C34.9151 1.74285 35.2466 1.75767 35.5279 1.79008C36.8483 1.94222 37.9484 2.84394 38.3049 4.13281C38.3689 4.3641 38.42 4.92522 38.5752 5.0899C38.661 5.18099 40.0399 4.70545 40.7823 4.68135C41.4945 4.65822 42.2064 4.86425 42.7312 5.36182C43.38 5.97699 43.6326 6.85524 43.6047 7.72935C43.5951 8.02932 43.5343 8.33695 43.5489 8.63647C43.5812 9.29557 44.6465 8.92992 45.096 9.29705C45.5927 9.70278 45.2701 10.3737 45.632 10.8629C45.8178 11.114 46.103 11.2208 46.3238 11.4284C46.6204 11.7073 46.6229 12.1119 46.6236 12.489C46.4992 12.5097 46.3743 12.5304 46.2514 12.5586C45.0454 12.8346 44.3628 13.5578 43.7296 14.571C43.4129 14.7058 43.1071 14.8869 42.7933 15.0324C42.6767 14.4421 42.462 14.0057 41.9989 13.6153C42.0762 13.3383 42.1516 13.0493 42.1725 12.7618C42.2204 12.1044 41.9605 11.6128 41.5436 11.1244C41.6115 10.865 41.6619 10.6134 41.672 10.3446C41.6938 9.75892 41.5499 9.10137 41.1313 8.66753C40.6307 8.14862 39.9451 8.11491 39.2721 8.09068C39.1304 7.64821 38.941 7.22359 38.6373 6.86691C38.3151 6.48844 37.8738 6.21822 37.3687 6.18795C36.757 6.1513 36.3137 6.44172 35.8832 6.83081C35.6543 6.42018 35.4284 6.00741 35.1512 5.62684C34.6751 4.99897 34.0436 4.52405 33.2618 4.36284C32.427 4.19069 31.5459 4.40134 30.84 4.86581C29.9084 5.47872 29.2419 6.40208 29.0217 7.49707C28.6971 7.49391 28.3969 7.50938 28.0839 7.60328C27.3674 7.81836 26.7954 8.30769 26.4474 8.96666C26.1018 9.62099 26.057 10.273 26.2712 10.9739C25.6384 11.198 25.2656 11.4427 24.8815 12.0012C24.2216 11.3063 23.4209 10.6686 22.5654 10.2329C22.2557 10.0752 21.8838 9.99591 21.5996 9.80088C21.5331 9.65296 21.5081 9.49556 21.5257 9.33372C21.583 8.80566 21.9978 8.49802 22.3672 8.18175C22.873 7.74876 22.4401 7.24789 22.4957 6.69037C22.5331 6.31492 22.7387 6.01658 23.0273 5.78455C23.4208 5.46818 23.9016 5.28029 24.4117 5.31538C24.6209 5.32978 24.8275 5.38805 25.0362 5.40939C25.1217 5.41813 25.2622 5.43054 25.3417 5.387C25.5592 5.26789 25.758 4.57154 25.9017 4.33803C25.9399 4.27604 25.9808 4.21579 26.0242 4.15729C26.0676 4.09879 26.1134 4.04225 26.1616 3.98768C26.2099 3.93311 26.2604 3.8807 26.3131 3.83045C26.3658 3.7802 26.4206 3.73229 26.4775 3.68674C27.455 2.90104 29.0265 2.72146 30.0968 3.41952C30.3565 3.58891 30.7915 4.12211 31.054 4.15234C31.2569 4.02851 31.5173 3.44392 31.6921 3.22704C32.4431 2.29492 33.4792 1.91535 34.6355 1.78536Z" fill="#1C1C1C"/>
<path d="M24.6205 5.93143C24.7005 5.92611 24.8061 5.9096 24.884 5.92811C24.9826 5.95153 25.1001 6.04381 25.1455 6.13205L25.1204 6.18941C24.9774 6.25557 24.8662 6.23927 24.7215 6.26952C24.5751 6.3001 24.5019 6.43207 24.4372 6.55332L24.4204 6.58528C24.4121 6.60879 24.4035 6.63216 24.3946 6.65541C24.3557 6.75692 24.3246 6.82279 24.2225 6.86746L24.1679 6.82589C24.1317 6.70903 24.1357 6.60249 24.1667 6.48383C24.2372 6.21456 24.3824 6.06281 24.6205 5.93143Z" fill="white"/>
<path d="M32.6155 4.94167C34.6319 4.84585 35.0182 7.26608 35.6531 7.53594C36.0428 7.70152 36.5981 7.02051 36.9797 6.88561C37.1999 6.80782 37.4255 6.81716 37.638 6.91384C38.3596 7.24223 38.343 7.97113 38.7783 8.50416C38.8931 8.64473 39.0357 8.72517 39.1977 8.80071C39.5868 8.72395 39.9512 8.71073 40.3168 8.89694C40.8642 9.17583 41.1 9.87173 41.0142 10.4577C40.9779 10.7057 40.8205 10.9727 40.884 11.2263C40.9775 11.6 41.3515 11.8561 41.4731 12.2369C41.5902 12.6034 41.5075 13.0003 41.343 13.3375C40.7629 13.3739 40.4593 13.5701 39.9382 13.6682C39.3549 13.7781 39.1551 13.3526 38.7352 13.0697C38.3911 12.8378 37.9778 12.7657 37.5731 12.8519C36.7276 13.032 36.2265 13.7388 35.7775 14.4175C35.458 14.3432 35.1469 14.2462 34.8294 14.1662C34.2488 14.0201 33.7332 14.0444 33.2069 14.3564C32.5484 14.7965 32.3435 15.4789 32.1555 16.208C31.696 16.1279 31.207 16.0826 30.7575 16.2368C30.1876 16.4322 29.8438 16.882 29.5864 17.4001C28.9488 16.5095 28.0013 15.7024 27.1431 15.0334C26.8261 14.7863 26.3889 14.5715 26.1333 14.2645C25.7879 13.8495 25.5352 13.1447 25.4086 12.6266C25.7492 11.424 26.4763 11.9133 26.9672 11.3946C27.0796 11.1192 26.8508 10.6793 26.8108 10.3882C26.7367 9.84749 26.9388 9.35178 27.2667 8.93258C27.6049 8.50016 28.0861 8.22263 28.6343 8.16243C28.8464 8.1391 29.0653 8.15051 29.2758 8.11944C29.374 8.105 29.5358 8.0702 29.6075 7.99511C29.7311 7.86575 29.8038 7.16682 29.8852 6.94388C29.9812 6.68091 30.1271 6.43937 30.3006 6.22043C30.895 5.47063 31.6718 5.04914 32.6155 4.94167Z" fill="#1C1C1C"/>
<path d="M32.9463 8.54581C32.9669 8.54422 32.9875 8.543 33.0081 8.54214C33.2846 8.52873 33.5193 8.56695 33.7258 8.76985C33.839 8.88123 33.9456 9.04062 33.9329 9.20742C33.9266 9.29108 33.9196 9.30739 33.8588 9.35547C33.6073 9.31912 33.5741 9.08 33.3847 8.9616C33.2543 8.88007 33.0866 8.91854 32.9519 8.9627C32.9409 8.9663 32.9301 8.97011 32.9192 8.97385C32.6764 9.16875 32.5706 9.4196 32.3656 9.6343C32.3221 9.6798 32.3098 9.70081 32.245 9.70397C32.2257 9.55934 32.2496 9.41471 32.2966 9.27768C32.4247 8.90443 32.5984 8.717 32.9463 8.54581Z" fill="white"/>
<path d="M7.78411 19.9428C7.84702 19.9443 7.93332 19.9376 7.99313 19.9545C8.15439 20 8.37927 20.6277 8.45597 20.7972C9.8401 23.8558 11.567 26.5149 14.1262 28.7261C15.3595 29.7917 16.7688 30.6684 18.1166 31.5802C19.8578 32.7581 21.5974 33.978 23.143 35.4093C23.6479 35.877 24.1161 36.3803 24.5893 36.8793C25.0158 37.3291 25.4591 37.7661 25.8428 38.2538L25.7816 38.6234C24.9323 38.2338 24.2677 38.0988 23.3582 38.3818C22.7756 38.107 22.2196 37.7732 21.6658 37.4452C20.838 36.9611 20.0319 36.4433 19.2476 35.8916C18.4634 35.3399 17.7036 34.7563 16.9682 34.1408C16.2215 33.5095 15.5212 32.8253 14.7946 32.1713C14.5713 31.9659 14.3331 31.7794 14.0802 31.6119C14.6682 32.3922 15.3586 33.0699 16.0632 33.7434C16.3115 33.9841 16.5636 34.2208 16.8194 34.4535C17.0752 34.6862 17.3346 34.9147 17.5977 35.1392C17.8608 35.3636 18.1274 35.5838 18.3975 35.7998C18.6676 36.0158 18.9411 36.2274 19.2179 36.4347C19.4948 36.6419 19.7748 36.8447 20.0581 37.0431C20.3413 37.2414 20.6276 37.4353 20.9171 37.6245C21.2065 37.8138 21.4989 37.9984 21.7942 38.1784C22.0895 38.3583 22.3876 38.5336 22.6884 38.7041C21.9717 39.2645 21.5039 39.899 21.2499 40.7758C20.007 40.1432 19.0316 39.8326 17.635 39.7102C17.2335 39.2821 16.7816 39.037 16.2259 38.8743C15.9755 38.8009 15.7398 38.7362 15.5225 38.5835C15.0977 38.2852 14.7037 37.8863 14.3382 37.5179C12.7688 35.9364 11.4866 34.1286 10.4094 32.1833C8.75929 29.2034 8.07376 25.8439 7.77838 22.4809C7.71276 21.7341 7.57683 20.6613 7.78411 19.9428Z" fill="#1C1C1C"/>
<path d="M9.63269 25.7072C9.80588 25.9549 9.91364 26.3054 10.0335 26.5834C10.2691 27.1369 10.5121 27.6871 10.7626 28.234C11.4358 29.6738 12.243 31.0256 13.1402 32.3363C13.3699 32.6784 13.6088 33.0138 13.8569 33.3426C14.1052 33.6715 14.3623 33.9932 14.6283 34.3077C14.8943 34.6223 15.1689 34.9293 15.4519 35.2286C15.7349 35.5281 16.026 35.8194 16.3252 36.1026C16.9238 36.6649 17.9003 37.3999 18.3799 38.0041C18.3875 38.0137 18.3949 38.0235 18.4024 38.0333C17.5558 37.799 16.1274 36.5576 15.4709 35.908C13.1367 33.5984 11.3567 30.7115 10.1807 27.6548C9.95077 27.0572 9.63591 26.352 9.63269 25.7072Z" fill="white"/>
<path d="M56.2913 19.9762C56.2984 19.9863 56.3069 19.9955 56.3127 20.0064C56.5885 20.517 56.2526 22.8587 56.1084 23.4538C55.9316 24.1828 55.6604 24.8853 55.488 25.6164C55.3383 26.2517 55.2553 26.9037 55.1392 27.5458C54.967 28.454 54.7732 29.3575 54.5579 30.2564C54.1758 31.821 53.6307 33.3302 53.1091 34.8516C52.94 35.3447 52.8006 35.8468 52.6325 36.3402C51.3865 36.4598 49.8494 37.3096 48.7711 37.9225C48.4995 38.0768 48.1989 38.2288 47.9702 38.444C47.6473 38.7474 47.3949 39.1808 47.1422 39.5454C45.826 41.4445 44.8682 43.4607 44.2555 45.6893C43.7524 45.1261 43.2496 44.7881 42.4941 44.6771C42.6426 44.0795 42.7827 43.4696 42.9615 42.8805C43.3738 41.5225 44.8811 40.8607 46.0297 40.2426C45.0543 40.3935 44.2798 40.7893 43.4814 41.3522C43.6471 40.8995 43.7766 40.3886 43.9918 39.9594C44.1619 39.6202 44.5233 39.3652 44.8071 39.1237C46.6368 37.5667 48.6623 36.8547 50.9065 36.1425C49.159 36.3589 47.4829 36.7203 45.9328 37.5902C45.4797 37.8444 45.0596 38.1578 44.6104 38.4207C45.1753 37.0969 45.707 35.7789 46.3325 34.4802C46.5317 34.0666 46.7179 33.6289 46.9543 33.2351C47.1449 32.9175 47.5172 32.7308 47.817 32.526C47.9601 32.4273 48.1051 32.3315 48.252 32.2386C48.399 32.1457 48.5477 32.0558 48.6982 31.9689C48.8487 31.8819 49.0009 31.798 49.1547 31.717C49.3086 31.6362 49.464 31.5584 49.621 31.4837C49.7779 31.409 49.9363 31.3375 50.0961 31.2692C50.2559 31.2008 50.417 31.1356 50.5794 31.0737C50.7419 31.0118 50.9054 30.9531 51.0702 30.8977C51.2349 30.8423 51.4007 30.7902 51.5676 30.7414C51.9963 30.6185 52.4319 30.5341 52.8647 30.4288C51.4214 30.3491 50.0999 30.696 48.8078 31.3195C48.4355 31.4992 48.0806 31.7241 47.6982 31.8807L47.6607 31.8956C47.8459 31.5169 48.0855 31.1539 48.3039 30.7927C48.6085 30.2888 48.9086 29.7778 49.2369 29.289C49.5899 28.7633 50.0636 28.4952 50.5991 28.1791C51.9774 27.3655 53.1899 26.9277 54.763 26.6142C53.2251 26.3904 51.626 26.8428 50.3348 27.6942C50.5584 27.4151 50.7655 27.1184 50.9784 26.8308C51.9638 25.5545 52.9543 24.2702 54.1866 23.2183C54.6723 22.8036 55.2037 22.4504 55.7089 22.0609C55.2284 22.1838 54.7771 22.359 54.3483 22.6107C52.5911 23.6426 50.9018 25.8974 49.7851 27.5803C49.8237 26.5515 49.7657 25.5359 49.2737 24.6061C49.3029 25.59 49.3819 27.435 49.1051 28.3481C48.9844 28.7465 48.4185 29.47 48.1795 29.8661C47.7842 30.5211 47.4271 31.1977 47.0325 31.8525C47.2616 30.5852 47.1147 28.8404 46.587 27.6804C46.7123 29.0987 46.6848 30.3764 46.5582 31.7915C46.527 32.1401 46.5246 32.5239 46.4334 32.8621C46.3232 33.2702 46.07 33.6751 45.8778 34.05C45.5873 34.6071 45.3068 35.1692 45.0363 35.7362C44.3945 37.1094 43.851 38.5208 43.2558 39.9137C42.8931 37.4957 43.1003 35.8895 42.1773 33.5114C42.1791 34.2725 42.2531 35.0304 42.3162 35.7883C42.3907 36.7294 42.478 37.6694 42.5781 38.6082C42.6451 39.2019 42.9282 40.6796 42.8524 41.1877C42.7885 41.6156 42.5902 42.0445 42.4478 42.4528C42.2676 42.9806 42.0905 43.5095 41.9166 44.0394C41.2896 42.6959 40.5405 41.3715 40.4433 39.8581C40.3721 38.7505 40.6302 37.6318 40.8421 36.5501C41.1397 35.0303 41.5634 33.5136 42.1876 32.0933C42.6739 30.9867 43.3312 29.9417 44.0166 28.9493C45.8702 26.2657 47.7442 24.388 50.6118 22.805C50.9565 22.613 51.3102 22.4395 51.6731 22.2846C52.0361 22.1297 52.4061 21.9943 52.7833 21.8784C53.5823 21.6296 54.4313 21.5164 55.1476 21.0556C55.5975 20.7662 55.9419 20.3745 56.2913 19.9762Z" fill="#1C1C1C"/>
<path d="M52.9267 12.2576C54.2124 12.0332 53.9826 13.0073 54.5508 13.7064C54.871 14.1003 55.3377 14.3342 55.7759 14.5705C56.2954 14.5107 56.9242 14.479 57.4211 14.6742C58.1449 14.9584 58.2185 15.9971 58.863 16.493C59.3695 16.8828 60.0694 16.8821 60.4372 17.4752C60.7983 18.0576 60.6482 18.8264 60.8728 19.4637C61.042 19.9439 61.4414 20.2827 61.6289 20.7473C61.9999 21.6669 61.3502 21.9923 61.0677 22.6479C61.0632 22.6584 61.0591 22.6691 61.0549 22.6796C61.3731 23.026 61.9096 23.3989 61.9861 23.8923C62.0581 24.3568 61.7822 24.7419 61.5239 25.0955C61.4791 26.1634 62.2748 26.7914 62.3646 27.8207C62.4248 28.5108 62.0814 29.1509 61.649 29.6644C61.3736 29.9916 60.9435 30.3878 60.5185 30.4978C60.3351 30.5452 60.1236 30.5497 59.9345 30.5655C59.8777 30.7481 60.2803 31.5392 60.2815 31.8686C60.2842 32.6826 59.0141 32.7277 58.7077 33.0479C58.4875 33.2782 58.5918 33.7085 58.6025 33.998C58.6106 34.2191 58.5526 34.4534 58.3904 34.6126C58.1764 34.8225 57.6777 34.7157 57.3998 34.708C57.4116 35.2292 57.6907 35.9348 57.4694 36.4256C57.336 36.5249 56.77 36.3524 56.5775 36.3191C55.4343 36.1209 54.3656 36.1076 53.2106 36.2007C53.5105 35.3072 53.8634 34.4333 54.1649 33.5413C54.3982 32.8509 54.5867 32.1394 54.7774 31.4361C55.2595 29.6575 55.5259 27.826 55.9026 26.0242C56.108 25.0417 56.4256 24.0877 56.6448 23.1086C56.7632 23.6765 57.0666 24.2043 57.3802 24.6854C57.6109 25.0391 58.0118 25.4905 58.0819 25.9112C58.1707 26.4445 57.7053 26.7487 57.45 27.143C57.0363 27.7816 57.4134 28.3945 57.5421 29.0478C57.6388 29.5391 57.5749 30.0391 57.2843 30.4579C56.7269 31.261 55.6192 31.4464 54.7282 31.6003C54.968 31.7569 55.1716 31.8441 55.4634 31.8448C56.1209 31.8463 56.9534 31.4843 57.4227 31.0255C58.0415 30.4207 58.2078 29.5182 57.986 28.696C57.9085 28.4087 57.7467 28.0736 57.7619 27.7754C57.7762 27.4937 58.0517 27.2931 58.2382 27.1128C59.4675 25.5312 57.5674 24.5015 57.1422 23.072C56.9028 22.267 57.0872 21.3332 56.9828 20.502C56.9419 20.1769 56.8515 19.4606 56.5519 19.2697C56.4557 19.2085 56.3534 19.2231 56.2559 19.2692C56.0922 19.3468 55.9398 19.5357 55.8174 19.6686C55.3794 20.1444 54.91 20.6755 54.2716 20.8695L54.2266 20.8827C53.8877 20.5716 53.4433 19.8748 53.0167 19.7223C52.5113 19.5415 51.9662 20.0606 51.554 20.2726L51.523 20.2882C51.2495 20.1859 50.9946 20.0202 50.7248 19.9047C49.6962 19.4643 48.9767 19.6488 47.9854 20.044C47.5616 19.8514 47.2 19.556 46.7336 19.4621C45.9475 19.3036 45.0335 19.5236 44.371 19.9621C44.3485 19.977 44.3262 19.9922 44.3041 20.0077C43.5532 20.5338 43.3908 21.0713 43.3824 21.9662C43.3806 22.1652 43.391 22.3904 43.2975 22.5722C43.1491 22.8607 42.7328 23.1414 42.4898 23.3697C41.5771 24.2271 40.3327 25.5066 39.9621 26.7135C39.6413 27.7587 40.216 28.6258 40.024 29.4485C39.7865 30.4666 38.2814 30.6982 37.4871 31.1695C37.2753 30.9011 37.0776 30.6161 36.9258 30.309C36.4695 29.3865 36.5752 28.7928 37.252 28.0354C37.3846 27.8869 37.5409 27.7364 37.5985 27.5404C37.6868 27.2401 37.2105 26.7999 37.0785 26.5225C36.674 25.6718 37.2835 25.3296 37.3402 24.6024C37.3539 24.427 37.3155 24.2589 37.2851 24.0871C37.2 23.6068 37.2048 23.2306 37.3815 22.7684C37.6096 22.1717 38.1392 21.5132 38.8279 21.4839C39.0774 21.4733 39.4324 21.5972 39.6605 21.4715C39.9283 21.3239 39.9227 20.4761 40.0564 20.1681C40.2645 19.6887 40.9071 19.4786 41.0402 19.132C41.1357 18.8831 41.0006 18.527 41.0088 18.261C41.0135 18.106 41.0671 17.9426 41.1172 17.7968C41.5903 16.4214 42.9848 15.6658 44.2111 15.0762C44.6384 14.2534 45.2558 13.5215 46.1671 13.2322C46.7291 13.0537 47.2008 13.0911 47.7267 13.3657C47.907 13.2509 48.0933 13.1202 48.2903 13.036C48.9982 12.7334 49.4208 13.156 50.0434 13.3937C50.0546 13.3979 50.0658 13.4019 50.077 13.406C51.0138 12.9374 51.8614 12.397 52.9267 12.2576Z" fill="#1C1C1C"/>
<path d="M50.7444 15.1598C51.4327 15.1167 52.0594 15.2905 52.5903 15.7417C53.1934 16.2543 53.4451 16.8762 53.5059 17.6496C53.5565 17.6133 53.608 17.5784 53.6605 17.5448C54.3128 17.1295 55.2428 16.9225 56.0026 17.1015C57.2666 17.3994 57.3128 18.5054 57.8453 19.4651C58.1399 19.9961 58.5314 20.4723 58.849 20.991C58.1359 20.4776 57.4744 19.8562 57.1385 19.0272C56.9795 18.6347 56.8808 18.2037 56.5762 17.8916C56.2352 17.5422 55.794 17.444 55.3251 17.4445C54.4644 17.5252 53.8572 17.8697 53.2155 18.4334C53.1132 17.8552 53.1687 17.297 52.8929 16.7555C52.6334 16.2459 52.177 15.8907 51.635 15.7202C50.7145 15.4306 49.6977 15.6914 48.8707 16.1303L48.743 16.3927C48.7315 16.3879 48.7201 16.383 48.7086 16.3783C47.6827 15.9669 46.4704 16.0837 45.4673 16.5038C45.8736 16.1884 46.284 15.9203 46.7921 15.8042C47.47 15.6493 48.1195 15.7138 48.7091 16.0897C49.253 15.5104 49.9638 15.2256 50.7444 15.1598Z" fill="white"/>
<path d="M6.31668 42.2943C6.32279 42.2936 6.32887 42.2925 6.33501 42.292C7.23003 42.2215 8.13495 42.5494 8.8293 43.1074C8.72205 43.3742 8.6645 43.6019 8.65593 43.8903C8.349 43.9538 8.03872 44.0629 7.7492 44.1819C6.85891 44.5476 6.2058 45.1947 5.8397 46.0808L6.07861 45.8527C6.78143 45.1849 7.89164 44.3166 8.9274 44.3709C9.03858 44.3767 9.15228 44.4048 9.22576 44.495C9.24079 44.5137 9.25441 44.5335 9.26662 44.5543C9.28479 44.5859 9.2884 44.5985 9.29717 44.6386C9.30948 44.6948 8.94777 45.1956 8.89169 45.2932C8.84258 45.3778 8.79602 45.4638 8.75202 45.5512C8.70807 45.6386 8.66673 45.7272 8.62802 45.817C8.58934 45.9068 8.55336 45.9977 8.52006 46.0897C8.4868 46.1817 8.45631 46.2746 8.4286 46.3684C8.40084 46.4622 8.37592 46.5568 8.35383 46.6521C8.33175 46.7474 8.31252 46.8433 8.29615 46.9397C8.27982 47.0361 8.26635 47.133 8.25574 47.2302C8.24517 47.3275 8.2375 47.4249 8.23273 47.5227C8.80165 46.5684 8.93758 45.6317 9.84405 44.8531C10.2138 44.5355 10.6738 44.3619 11.1653 44.4078C12.0561 44.4911 12.5684 45.1842 13.0864 45.8289C12.9826 45.4939 12.8804 45.1351 12.6991 44.8328C12.7394 44.4571 12.8362 44.0978 13.089 43.8053C13.107 43.7846 13.1255 43.7644 13.1446 43.7446C13.1636 43.7249 13.1832 43.7056 13.2032 43.6869C13.2232 43.6681 13.2437 43.6499 13.2646 43.6322C13.2856 43.6145 13.307 43.5973 13.3288 43.5807C13.3507 43.5641 13.3729 43.5481 13.3955 43.5326C13.4182 43.5171 13.4412 43.5022 13.4646 43.4879C13.488 43.4736 13.5118 43.4599 13.5359 43.4468C13.56 43.4337 13.5844 43.4212 13.6091 43.4093C13.6339 43.3975 13.6589 43.3863 13.6842 43.3757C13.7095 43.3651 13.7351 43.3552 13.7609 43.3459C13.7867 43.3366 13.8127 43.328 13.839 43.3201C13.8652 43.3121 13.8917 43.3048 13.9183 43.2982C13.9449 43.2916 13.9717 43.2857 13.9986 43.2805C14.0255 43.2752 14.0526 43.2706 14.0797 43.2668C14.1069 43.2629 14.1342 43.2598 14.1614 43.2573C14.1888 43.2548 14.2161 43.253 14.2436 43.2519C15.4623 43.206 17.2297 44.2615 18.0979 45.0562C19.4535 46.297 20.6458 48.055 21.1469 49.8336C21.3622 50.598 21.4486 51.4179 21.4805 52.21C21.5431 53.7613 21.239 55.4274 20.1457 56.5957C18.9231 57.902 16.8901 58.2656 15.1818 58.3309C15.5947 57.389 15.816 56.4316 15.8796 55.4059C16.0427 52.7767 15.2651 50.1471 14.0186 47.8512C13.7268 47.3137 13.4183 46.7448 13.0115 46.2859C13.397 47.0213 13.7574 47.7687 14.0927 48.5281C15.2983 51.2814 16.0516 54.6063 14.9001 57.5078C14.6087 58.2422 14.1886 58.8143 13.4449 59.1286C13.397 59.1489 13.3487 59.1681 13.3 59.186C13.2512 59.204 13.202 59.2207 13.1524 59.2362C13.1028 59.2518 13.0528 59.266 13.0025 59.2791C12.9522 59.2921 12.9016 59.3039 12.8507 59.3145C12.7999 59.325 12.7487 59.3343 12.6974 59.3423C12.646 59.3504 12.5945 59.3571 12.5428 59.3626C12.4911 59.3681 12.4393 59.3723 12.3874 59.3752C12.3356 59.3781 12.2836 59.3798 12.2317 59.3801C12.1797 59.3804 12.1278 59.3795 12.0758 59.3773C12.0239 59.3751 11.9721 59.3716 11.9203 59.3668C11.8686 59.3621 11.817 59.356 11.7655 59.3487C11.7141 59.3414 11.6628 59.3328 11.6118 59.3229C11.5608 59.3131 11.51 59.302 11.4595 59.2896C11.409 59.2773 11.3589 59.2637 11.3091 59.2488C11.2593 59.234 11.2099 59.2179 11.1608 59.2007C11.1118 59.1834 11.0632 59.1649 11.0152 59.1452C10.592 58.9697 10.2063 58.7127 9.84425 58.4348C8.82312 57.6508 8.34558 56.8353 7.85696 55.6606C7.25452 53.9439 7.27444 52.0533 7.56557 50.2724C7.6685 49.6426 7.83402 48.9932 7.86605 48.357L7.86818 48.3096C7.4629 49.6277 7.15365 51.1486 7.05749 52.5312C6.90892 54.6669 7.39342 56.7754 8.82196 58.4167C7.99283 58.4544 7.23912 58.3778 6.48875 57.9951C5.18157 57.3283 4.36665 56.0886 3.93164 54.721C3.32013 52.7985 3.49881 50.7726 4.30769 48.9385C4.58222 48.316 4.93307 47.7378 5.24472 47.1352C4.45178 47.9992 3.85768 49.0719 3.49665 50.1855C2.8518 52.1744 3.11644 54.4212 4.06492 56.2635C3.42894 55.5343 3.03804 54.7348 2.81418 53.794C2.79882 53.7299 2.78428 53.6657 2.77056 53.6012C2.75685 53.5367 2.74397 53.4721 2.73191 53.4073C2.71985 53.3425 2.70863 53.2776 2.69823 53.2125C2.68784 53.1475 2.67828 53.0823 2.66956 53.0169C2.66083 52.9516 2.65295 52.8862 2.6459 52.8206C2.63886 52.7551 2.63265 52.6895 2.62729 52.6239C2.62192 52.5582 2.6174 52.4924 2.61372 52.4266C2.61004 52.3608 2.6072 52.295 2.60521 52.2291C2.60322 52.1632 2.60207 52.0973 2.60177 52.0315C2.60146 51.9656 2.602 51.8996 2.60338 51.8337C2.60477 51.7679 2.60699 51.702 2.61007 51.6362C2.61314 51.5704 2.61706 51.5046 2.62182 51.4388C2.62657 51.3731 2.63217 51.3075 2.63861 51.2419C2.64505 51.1763 2.65234 51.1108 2.66046 51.0454C2.66857 50.98 2.67753 50.9147 2.68732 50.8495C2.69711 50.7843 2.70774 50.7193 2.7192 50.6544C2.73066 50.5896 2.74295 50.5248 2.75606 50.4602C2.76918 50.3957 2.78312 50.3312 2.79789 50.267C2.81266 50.2028 2.82825 50.1387 2.84466 50.0749C2.86107 50.0111 2.87829 49.9475 2.89634 49.8841C2.91437 49.8207 2.93322 49.7576 2.95288 49.6947C2.97254 49.6318 2.993 49.5691 3.01426 49.5068C3.03552 49.4444 3.05758 49.3823 3.08043 49.3204C3.10329 49.2587 3.12693 49.1971 3.15136 49.1359C3.1758 49.0747 3.20101 49.0139 3.22699 48.9533C3.25298 48.8927 3.27975 48.8325 3.30728 48.7727C3.33482 48.7128 3.36311 48.6532 3.39217 48.5941C3.42123 48.535 3.45105 48.4762 3.48161 48.4178C3.51218 48.3594 3.54349 48.3014 3.57554 48.2438C3.60759 48.1862 3.64037 48.1291 3.67389 48.0724C3.70741 48.0156 3.74164 47.9593 3.7766 47.9034C3.81156 47.8476 3.84723 47.7922 3.88361 47.7372C4.09886 47.4165 4.33138 47.1129 4.57558 46.8138C4.75086 46.5991 4.95039 46.3876 5.09291 46.1495C5.09858 46.14 5.10395 46.1303 5.10948 46.1208C4.77125 46.4076 4.46871 46.7419 4.17524 47.0737C2.55974 48.9003 2.07937 50.8531 2.22742 53.2393C1.92322 52.8678 1.65998 52.4806 1.45453 52.0453C0.796021 50.6503 0.70386 48.7373 1.23694 47.2881C1.83259 45.6688 3.17464 44.6564 4.68144 43.9527C4.60966 43.9605 4.5382 43.9706 4.46708 43.983C3.07793 44.2302 2.07377 45.2306 1.2971 46.3416C1.54131 45.677 1.86615 45.1122 2.32235 44.5693C3.31895 43.3832 4.74682 42.436 6.31668 42.2943Z" fill="#1C1C1C"/>
<path d="M13.4695 49.1116C13.7834 49.2976 14.2232 50.4081 14.3513 50.7566C15.0766 52.7307 15.2251 55.3483 14.3362 57.2867C14.3091 57.3379 14.2907 57.3634 14.2432 57.3971C14.2245 57.3468 14.5243 56.0464 14.5569 55.8358C14.6377 55.3203 14.6743 54.8017 14.6668 54.28C14.6606 52.968 14.3814 51.5987 13.9529 50.3598C13.8115 49.951 13.587 49.5558 13.4764 49.1391C13.474 49.13 13.4718 49.1208 13.4695 49.1116Z" fill="white"/>
<path d="M18.2218 45.9103C18.235 45.9187 18.2484 45.9267 18.2614 45.9354C18.4961 46.0936 18.775 46.5788 18.9426 46.8257C19.8541 48.1685 20.7535 49.5562 21.0369 51.1856C21.3169 52.7958 21.0666 54.5473 20.115 55.897L20.0518 55.9268C20.0316 55.7991 20.4317 55.062 20.5026 54.8708C21.5573 52.0259 20.5533 49.923 19.1346 47.476C18.8319 46.9537 18.4726 46.4609 18.2218 45.9103Z" fill="white"/>
<path d="M8.26685 47.554C8.33968 47.7638 8.15141 48.9773 8.12943 49.2745C7.94278 51.7979 8.09276 54.6248 9.27747 56.9112C9.44918 57.2479 9.64956 57.5666 9.87863 57.8672C10.0435 58.0832 10.247 58.2975 10.3757 58.5367C10.3939 58.5706 10.3901 58.5531 10.3765 58.5965L10.273 58.5443C9.81888 58.1916 9.45949 57.7548 9.16494 57.262C7.87317 55.101 7.68277 52.4749 7.89018 50.0252C7.96076 49.1916 8.06189 48.3664 8.26685 47.554Z" fill="white"/>
<path d="M17.2476 7.88873C17.6161 7.91832 17.923 8.07217 18.2099 8.29685C18.7326 8.70613 19.1525 9.29916 19.5692 9.81311C20.4182 10.8601 21.2332 11.9205 21.9033 13.0938C23.5512 15.9788 24.9164 19.7925 25.9299 22.9914C26.4033 24.486 26.8704 25.9771 27.1398 27.5248C27.3614 28.8533 27.5092 30.1899 27.5831 31.5347C27.6549 32.845 27.6683 34.1451 27.8299 35.4501C27.6481 35.493 27.4792 35.5486 27.3164 35.6417C26.6681 36.0127 26.2361 36.741 26.042 37.4442C25.7408 37.1185 25.4369 36.7952 25.1304 36.4744C25.2916 35.0954 25.298 33.6607 25.2989 32.2733C25.3009 29.3165 25.163 26.325 24.722 23.3989C24.6121 22.6699 24.0209 19.2304 23.5435 18.8778L23.5042 18.9016C23.4495 19.3975 23.8089 21.0263 23.9048 21.6135C24.0351 22.4112 24.139 23.217 24.2391 24.0191C24.5022 26.1254 24.602 28.2444 24.6695 30.3647C24.7283 32.2089 24.7869 34.0832 24.5788 35.92C24.4256 35.7594 24.1486 35.5393 24.0689 35.3365C23.9191 34.9556 23.8413 34.0439 23.7392 33.5676C23.5403 32.6389 23.243 31.7158 22.9234 30.8226C21.7229 27.4669 19.4802 23.5421 17.148 20.8487C16.8163 20.4656 16.4656 20.0229 16.0769 19.6981C16.0094 19.6418 15.9613 19.5854 15.8719 19.5912C15.8566 19.6759 15.8994 19.7263 15.9445 19.7963C16.2273 20.2354 16.5883 20.6398 16.9124 21.0494C17.3346 21.5787 17.7367 22.1229 18.1189 22.6819C20.3545 25.919 22.7067 30.7409 23.2767 34.6545C22.9204 34.3027 22.5233 33.974 22.1278 33.6666C21.7461 33.37 21.2081 33.0699 20.9231 32.6864C20.7155 32.407 20.578 32.0568 20.4261 31.7446C20.225 31.3312 20.0182 30.9251 19.7896 30.5262C19.2835 29.6216 18.7503 28.7332 18.1899 27.8611C17.6296 26.989 17.0432 26.1348 16.4308 25.2985C16.1239 24.8803 15.81 24.3763 15.4072 24.0447C15.6921 24.8183 16.7104 26.24 17.1995 27.0078C18.2429 28.6459 19.2915 30.3407 20.0878 32.1149C19.1859 31.4551 18.2153 30.8717 17.2799 30.2605C15.7871 29.2854 14.3768 28.1856 13.1377 26.9006C10.7488 24.4232 8.88974 20.998 8.18888 17.6259C7.76787 15.6001 7.58205 12.6815 8.75394 10.897C9.52087 11.6642 10.2732 12.449 11.1287 13.1196C12.1616 13.9292 13.2469 14.6854 14.324 15.4346C15.4918 16.2469 16.6988 17.0774 17.7263 18.0654C18.0739 18.4042 18.4031 18.76 18.7141 19.1326C19.0251 19.5054 19.3162 19.893 19.5874 20.2956C19.8679 20.7125 20.132 21.1396 20.3798 21.5768C20.6275 22.014 20.8581 22.4601 21.0716 22.915C21.2388 23.2737 21.3643 23.6563 21.5371 24.0089L21.5736 24.0003C21.594 23.9419 21.593 23.9538 21.6019 23.8991C21.7113 23.2214 21.631 22.4435 21.5667 21.7612C21.252 18.4213 20.3397 15.7209 19.1061 12.6368C18.6769 11.5641 18.2264 10.3726 17.565 9.41846C17.8514 10.7457 18.3977 11.873 18.8953 13.1236C19.7195 15.1952 20.3832 17.2815 20.7983 19.4739C20.9157 20.0935 21.0461 20.7552 21.0452 21.3872C19.91 18.9243 18.1099 17.4175 15.9825 15.8417C15.9691 13.5941 16.2575 11.5223 16.8235 9.35233C16.95 8.86726 17.0578 8.3526 17.2476 7.88873Z" fill="#1C1C1C"/>
<path d="M12.0917 19.3497C12.1051 19.3569 12.1197 19.3623 12.1319 19.3713C12.2481 19.4565 12.4677 20.0286 12.5429 20.1843C12.7986 20.7136 13.0897 21.2144 13.4101 21.707C13.5343 21.8978 13.7961 22.1569 13.8396 22.375L13.7763 22.4085C13.1058 21.9558 12.19 20.7395 11.9924 19.9598C11.9293 19.7105 11.957 19.5662 12.0917 19.3497Z" fill="white"/>
<path d="M9.90332 13.4842C10.0051 13.5479 10.6644 15.0277 10.81 15.2846C11.3198 16.1844 11.9426 17.0673 12.5723 17.8872C12.995 18.4376 14.0006 19.5563 14.24 20.1465L14.2152 20.2035C14.1568 20.1712 14.1024 20.1374 14.0488 20.0973C12.892 19.2332 9.96642 15.1604 9.80155 13.7425C9.7864 13.6124 9.82939 13.5766 9.90332 13.4842Z" fill="white"/>
<path d="M17.5847 8.45563L17.6019 8.4613C17.7553 8.51054 17.8663 8.62881 17.9809 8.73754C18.2408 8.98395 18.4712 9.26645 18.7084 9.53451C19.9802 10.9719 21.9754 13.6253 22.0355 15.5991L21.958 15.5945C21.9475 15.5883 21.9361 15.5836 21.9265 15.5762C21.7586 15.4464 20.7368 13.2102 20.5175 12.8032C20.0516 11.9384 19.5206 11.08 18.9335 10.2917C18.4854 9.68984 17.9329 9.12381 17.5847 8.45563Z" fill="white"/>
<path d="M9.11009 11.8506C9.1953 11.9344 9.13097 12.2298 9.12324 12.3484C9.02424 13.874 9.31138 15.311 9.72665 16.7687C10.0472 17.8937 10.3963 19.0354 10.8715 20.1063C11.377 21.2456 12.0545 22.2967 12.7109 23.3527C13.0661 23.9241 13.3995 24.5127 13.7674 25.0757C13.9954 25.4204 14.2386 25.7539 14.497 26.0763C14.7225 26.3621 15.2467 26.848 15.3571 27.1626L15.3227 27.1872L15.1926 27.1398C14.8821 26.9533 14.6119 26.7268 14.3668 26.4601C13.144 25.1299 11.2027 21.8978 10.4851 20.2397C10.0425 19.2171 9.71099 18.1227 9.4185 17.0489C9.01837 15.5802 8.31087 13.2478 9.11009 11.8506Z" fill="white"/>
<path d="M50.9794 38.0734C51.4782 38.0337 52.0037 38.078 52.4982 38.1465C53.7735 38.3233 55.4294 38.8003 56.2486 39.8761C55.7266 39.843 55.2596 39.8477 54.7533 39.9936C53.7155 40.2926 51.9473 41.5656 51.4101 42.5266C52.3794 42.3591 53.2595 41.823 54.2204 41.5877C55.0968 41.373 55.8172 41.4461 56.589 41.9163C56.4206 42.2763 56.2343 42.6364 56.1304 43.0215C55.9867 43.554 55.9918 44.1174 55.9236 44.6623C55.8531 45.2246 55.7309 45.7787 55.6125 46.3324C56.2186 45.7852 56.4522 45.0244 56.8259 44.3244C57.1951 43.6327 57.7208 43.1726 58.4858 42.9608C58.6343 42.9197 58.7743 42.931 58.9059 43.0146C59.2205 43.2145 59.4048 43.7167 59.4767 44.0698C59.619 44.7682 59.5096 45.6283 58.9377 46.1123C58.7437 46.2764 58.4537 46.424 58.3138 46.6352C58.3201 46.7251 58.3417 46.7773 58.3789 46.8573C58.4912 46.9353 58.5964 46.9183 58.7307 46.9023C59.4027 46.8225 59.9382 46.4916 60.3537 45.9636C61.0507 45.0777 61.052 44.1706 60.9258 43.1041C61.4091 43.2982 61.9077 43.4587 62.3833 43.6719C63.4411 44.1462 63.9152 44.8775 64.3199 45.9378C64.8998 47.4565 65.0274 48.6117 64.3553 50.1069C64.0048 50.8136 63.5481 51.4992 63.0707 52.1263C61.3797 54.3474 59.0008 55.8974 56.364 56.7586C55.0619 57.1839 53.7534 57.493 52.4885 58.0337C52.1499 58.1783 51.8375 58.3519 51.5268 58.55C51.0469 58.856 50.507 59.3825 49.9298 59.4454C48.8041 59.5682 48.5862 58.5632 47.7582 58.2677C47.2243 58.0772 46.6376 58.2197 46.1635 57.8279C45.8974 57.608 45.6899 57.232 45.5853 56.906C45.4367 56.4433 45.5471 56.0114 45.4697 55.5508C45.3993 55.132 45.2441 54.7155 45.1464 54.3007C44.91 53.2963 44.729 52.2904 44.6478 51.2608C44.4855 49.2001 44.6409 46.5957 45.2605 44.6176C45.5845 43.5835 46.0447 42.6111 46.5631 41.662C46.9573 40.9404 47.3795 40.2051 47.9179 39.5805C48.3864 39.0368 49.0801 38.4184 49.7882 38.2273C50.1721 38.1238 50.5841 38.1036 50.9794 38.0734Z" fill="#1C1C1C"/>
<path d="M0 0H66V66H21.7585C22.2269 64.7509 23.1043 63.1555 24.4695 62.7329C25.0065 62.5666 25.5503 62.5429 26.0725 62.3038C26.7551 61.9913 27.2648 61.4539 27.8744 61.034C27.8026 61.1937 27.5618 61.3662 27.4349 61.4998C27.2143 61.732 27.0479 62.0532 26.8154 62.2644C26.7751 62.301 26.7248 62.3206 26.6755 62.3417C26.5829 62.3813 26.5071 62.4051 26.452 62.4963C26.3315 62.6954 26.5325 62.7458 26.4713 62.9394C26.3083 63.4553 26.0054 64.0256 26.1759 64.5853C26.1951 64.6484 26.1941 64.6523 26.2551 64.6826L26.2393 64.6317L26.2746 64.6678C26.5866 64.1838 26.6654 63.4811 26.9627 62.9495L26.9852 62.9102C27.4498 62.6778 27.9867 62.6326 28.4678 62.4283C29.9937 61.7804 30.6403 60.9813 31.8052 59.9236C31.5568 60.3292 31.2542 60.7231 30.9082 61.0504C30.708 61.2398 30.4781 61.4119 30.295 61.6171C30.1407 61.7899 30.0561 61.9895 29.8732 62.1435C29.4605 62.4911 28.9804 62.7542 28.5955 63.1366C28.0129 63.7154 27.7289 64.4892 27.7266 65.3007C27.9447 64.9617 28.1165 64.5865 28.3236 64.2395C28.7945 63.4506 29.4392 63.0333 30.1548 62.4979C30.1547 62.6565 30.1594 62.8118 30.1846 62.9688C30.2125 63.1435 30.2428 63.3695 30.3916 63.4769C30.5391 63.3993 30.6898 62.7368 30.7616 62.5536C30.9973 61.9524 31.3853 61.8261 31.9202 61.583C32.8683 61.1522 33.2674 60.1379 33.6059 59.2248C34.3423 58.9406 35.0481 58.559 35.7813 58.2598C36.655 57.9032 37.5574 57.6166 38.427 57.2505C39.2132 56.9196 39.9396 56.5039 40.6876 56.0988C42.0793 55.3451 43.1214 54.847 44.3253 53.7741C44.5019 54.4253 44.7761 55.0883 44.8922 55.7492C44.9461 56.0562 44.9149 56.3775 44.9562 56.6872C45.0694 57.5353 45.6124 58.3662 46.4907 58.5538C46.8849 58.638 47.3051 58.6039 47.6722 58.7957C48.0822 59.01 48.318 59.4505 48.6878 59.7246C49.062 60.0019 49.6847 60.1726 50.1536 60.0854C50.7451 59.9754 51.4284 59.4035 51.9535 59.1007C52.3739 58.863 52.8061 58.6494 53.2503 58.46C54.3124 58.0068 55.5258 57.7588 56.6307 57.399C59.6746 56.4076 62.2372 54.5592 64.0511 51.9086C65.4206 49.9072 66.1966 47.9177 65.7241 45.4529C65.3194 43.344 64.1125 41.3007 62.5528 39.8368C62.08 39.393 61.5569 39.0057 61.0211 38.6418C61.1542 38.3088 61.3444 37.9852 61.5458 37.6894C62.0559 36.94 63.0956 35.8246 64.0123 35.6058C64.3466 35.5261 64.6832 35.6114 65.0106 35.5395C65.1847 35.5013 65.3329 35.4066 65.4238 35.2515C65.5785 34.9899 65.5405 34.6658 65.4657 34.3846C65.3406 33.9147 65.0113 33.2518 64.5691 33.0093C64.3998 32.9165 64.2424 32.9143 64.0609 32.9726C63.6761 33.0962 63.3117 33.3982 62.973 33.6149C61.4733 34.5745 60.2197 35.4992 59.401 37.1499C58.951 36.9481 58.5032 36.7673 58.0313 36.6225C58.1862 36.1706 58.1577 35.8465 58.0784 35.3832C58.4072 35.3337 58.7069 35.2432 58.9219 34.9717C59.2463 34.5619 59.1864 33.9826 59.1428 33.4966C59.3283 33.4462 59.5152 33.3884 59.6924 33.3136C60.1527 33.1193 60.5988 32.8137 60.7843 32.3287C60.9716 31.8386 60.8133 31.4154 60.6178 30.963C60.6476 30.9563 60.6772 30.9491 60.7068 30.9416C61.4965 30.7389 62.1521 30.109 62.5586 29.4225C63.0923 28.5212 63.1037 27.5503 62.6718 26.6063C62.4899 26.209 62.2508 25.8186 62.144 25.3927C62.1405 25.3785 62.1373 25.3642 62.1338 25.3501C62.3694 25.0042 62.5509 24.6427 62.5761 24.2174C62.6153 23.5569 62.2787 23.074 61.8687 22.6013C61.968 22.4193 62.0592 22.2334 62.1424 22.0435C62.408 21.42 62.3723 20.75 62.0082 20.1719C61.7989 19.8396 61.5426 19.5397 61.4297 19.1566C61.263 18.5907 61.3409 17.9885 61.1091 17.4313C60.6273 16.2727 59.7415 16.5095 59.114 15.8811C58.5042 15.2703 58.752 14.6055 57.7167 14.144C57.027 13.8367 56.3391 14.083 55.7496 13.828C55.0698 13.5338 54.9556 13.1841 54.6856 12.5503C54.5319 12.1892 54.274 11.885 53.9 11.7432C52.7039 11.2899 51.1008 12.1952 50.031 12.6873C49.8253 12.5923 49.6172 12.4991 49.4025 12.4263C48.7504 12.2054 48.2668 12.3388 47.6669 12.6346C47.5279 12.5822 47.3855 12.5396 47.2439 12.495C47.2501 12.0362 47.2522 11.4168 46.8991 11.0696C46.7746 10.9472 46.6048 10.8627 46.4635 10.7594C46.3437 10.6717 46.22 10.5599 46.151 10.4257C45.9184 9.97328 46.249 9.53797 45.6424 8.92399C45.2436 8.52038 44.7367 8.41751 44.1934 8.40636C44.2869 7.74752 44.2873 7.09294 44.1073 6.44834C43.8691 5.59525 43.3613 4.86461 42.5786 4.43083C41.4643 3.81327 40.2403 4.01103 39.0725 4.34486C38.7765 3.32599 38.3557 2.43729 37.4591 1.81913C36.4653 1.13394 35.1532 0.998263 33.9898 1.21532C32.696 1.45671 31.6398 2.12401 30.8956 3.21272C30.5658 2.96469 30.2379 2.74657 29.8528 2.59289C28.8969 2.21137 27.8287 2.30578 26.8944 2.71075C25.9575 3.11683 25.3812 3.83989 25.0108 4.7736C24.6161 4.63547 24.1942 4.62794 23.7868 4.71814C23.1387 4.86167 22.5281 5.25906 22.1699 5.82212C21.7781 6.43822 21.7696 7.00187 21.9268 7.69325C21.7596 7.80914 21.6042 7.92838 21.4613 8.07378C21.0294 8.51329 20.8477 8.98451 20.851 9.60184C20.7433 9.58048 20.6348 9.56549 20.5254 9.55685C20.416 9.54826 20.3065 9.54609 20.1968 9.55034C19.5941 8.87694 18.9635 8.01629 18.1522 7.59032C17.8392 7.42597 17.4023 7.25729 17.053 7.37685C16.8188 7.45697 16.7703 7.59838 16.6742 7.80598C16.4413 7.56589 16.1778 7.33 15.9725 7.06671C15.5 6.46072 15.2564 5.58451 15.0563 4.85148C14.9478 4.45423 14.8439 4.02949 14.6385 3.66883C14.4568 3.34998 14.2033 3.18252 13.8524 3.08833C13.0233 2.86582 11.9805 3.07931 11.2566 3.51763C10.8669 3.75354 10.2402 4.23081 10.1182 4.68993C9.96252 5.27619 10.3102 6.01366 10.4479 6.58608C10.5316 6.94448 10.5905 7.30692 10.6245 7.6734C10.6781 8.27926 10.6022 8.82222 10.4577 9.41028C10.2113 9.43542 9.97631 9.46733 9.73893 9.54035C8.29067 9.98585 7.66889 11.3468 7.40908 12.7361C7.34521 13.0777 7.3717 13.4742 7.24756 13.7999C7.06645 14.2751 6.62707 14.6686 6.39046 15.1267C5.59001 16.6765 5.29321 18.2651 5.50332 19.9968C5.5556 20.4276 5.62077 20.8721 5.75534 21.2851L5.30643 22.0682C3.57154 25.1405 2.81508 28.8414 3.77584 32.2828C4.6451 35.3966 6.90254 37.9084 9.6846 39.4766C8.90897 40.0844 8.80352 40.0071 7.86876 40.1194C6.86445 40.2401 6.05642 40.6135 5.36374 41.3495C5.13382 41.5939 4.90567 41.8835 4.62895 42.0746C4.38437 42.2435 4.09614 42.3629 3.83938 42.5146C3.06078 42.9745 2.25414 43.5534 1.69944 44.2713C0.486134 45.8417 0.0133072 48.3747 0.262295 50.3216C0.402292 51.4163 0.776106 52.514 1.47881 53.377C1.71477 53.6668 2.01367 53.9215 2.20624 54.243C2.3621 54.5032 2.4372 54.8342 2.55646 55.1148C2.90553 55.936 3.49801 56.6727 4.20295 57.2184C6.07678 58.6688 6.99613 59.3317 9.47803 59.0106C10.1635 59.4668 10.842 59.8989 11.6734 60.0216C12.9233 60.2062 13.8659 59.7396 14.8396 59.0105C15.2794 58.9854 15.7198 58.9898 16.1593 58.9493C17.303 58.8437 18.5633 58.5213 19.5574 57.931C20.7996 57.1933 21.5929 55.9326 21.9427 54.5529C22.4399 54.4258 22.92 54.1541 23.3102 53.8233C24.5217 52.7963 24.7155 51.2554 24.8448 49.7713C25.0591 50.3182 25.3042 50.866 25.6152 51.365C26.0521 52.0662 26.758 52.7702 27.5901 52.96C28.0671 54.2291 28.2942 55.2468 28.3627 56.6113C27.6943 56.7431 27.01 56.771 26.3442 56.9149C25.9457 57.001 25.5736 57.1954 25.1764 57.2836C24.7085 57.3873 24.2511 57.1994 23.8605 56.9546C23.7904 56.9722 23.802 56.9811 23.7657 57.0391C23.7668 57.0832 23.7718 57.1116 23.798 57.1494C24.0036 57.4461 24.4246 57.6049 24.759 57.683C24.3554 57.9519 24.0062 58.2842 23.6149 58.569C23.0441 58.5151 22.4726 58.3617 21.9018 58.2827C21.3819 58.2107 19.7506 58.0898 19.3299 58.4087L19.3403 58.4602C19.4545 58.5245 19.5694 58.5477 19.699 58.5621C20.0879 58.6052 20.4896 58.5941 20.881 58.6171C21.2394 58.6365 21.5962 58.6716 21.9514 58.7224C22.3066 58.7732 22.659 58.8396 23.0083 58.9215C22.9554 59.0253 22.8977 59.1271 22.8419 59.2295C21.5741 59.0984 20.5017 59.4391 19.3955 60.0465C18.959 60.2861 18.2107 60.7357 18.0807 61.2633C18.0529 61.3761 18.0739 61.4678 18.1378 61.5648C18.2667 61.5114 18.5782 61.0637 18.7231 60.9317C19.4179 60.2987 20.5683 59.8324 21.49 59.692C21.8403 59.6387 22.1823 59.6416 22.5354 59.6558C22.2446 59.9552 21.9779 60.2747 21.7352 60.6142C21.2207 61.3446 20.9269 62.1219 21.0831 63.021C20.6527 63.4323 20.1902 63.8103 19.7565 64.2182C19.4452 64.5111 19.1577 64.8315 18.8671 65.1447C19.7373 64.7851 20.4861 64.0255 21.2314 63.4609C21.6969 63.1084 22.2154 62.8013 22.7427 62.5489C22.9884 62.4312 23.3273 62.2771 23.6042 62.3103C23.7077 62.3226 23.7652 62.3612 23.8288 62.4444C23.6333 62.6898 23.2968 62.8923 23.0624 63.113C22.3099 63.8215 21.6803 64.9513 21.6481 66H0V0Z" fill="#1C1C1C"/>
</g>
<defs>
<clipPath id="clip0_107_4630">
<rect width="66" height="66" rx="10" fill="white"/>
</clipPath>
</defs>
</svg>
