<svg width="66" height="66" viewBox="0 0 66 66" fill="none" xmlns="http://www.w3.org/2000/svg">
<g clip-path="url(#clip0_107_4634)">
<path d="M0 0H66V66H0V0Z" fill="#1C1C1C"/>
<path d="M40.4809 2.10291C40.6919 2.09362 40.8842 2.10144 41.0894 2.16188C42.3192 2.52408 41.9374 4.12996 42.0028 5.0979C42.0488 5.77925 42.1586 6.47005 42.313 7.13534C42.3383 7.24791 42.3653 7.36004 42.3941 7.47172C42.4229 7.58344 42.4535 7.69466 42.4858 7.80539C42.5182 7.91612 42.5523 8.02629 42.5881 8.13591C42.624 8.24556 42.6616 8.3546 42.701 8.46301C42.7403 8.57146 42.7814 8.67925 42.8242 8.78637C42.867 8.89349 42.9114 8.9999 42.9576 9.1056C43.0038 9.21135 43.0517 9.3163 43.1012 9.42046C43.1508 9.52466 43.202 9.62802 43.2548 9.73054C43.3076 9.83311 43.3621 9.93479 43.4182 10.0356C43.4742 10.1364 43.5319 10.2363 43.5912 10.3352C43.6505 10.4342 43.7113 10.5322 43.7737 10.6292C43.8361 10.7262 43.9 10.8222 43.9655 10.9173C44.0309 11.0122 44.0979 11.1061 44.1663 11.199C44.2348 11.2918 44.3047 11.3836 44.3761 11.4742C44.4475 11.5648 44.5203 11.6543 44.5946 11.7426C44.6688 11.8308 44.7444 11.9179 44.8214 12.0038C45.1385 12.3548 45.6604 12.6478 45.8738 13.0672C46.0975 13.5068 46.0397 13.9431 45.8943 14.3924C47.01 15.9462 49.1087 17.8242 50.9224 18.4488C51.5499 18.665 52.206 18.739 52.8481 18.8959C54.2797 19.2458 55.5925 19.8959 56.7924 20.7438C60.7184 23.518 62.8271 28.8246 63.6133 33.397C64.8792 40.7584 63.2534 48.7851 58.928 54.904C56.1649 58.8128 52.0217 62.0484 47.2161 62.8703C46.5235 62.9887 44.7588 63.2645 44.1471 63.1269C43.8942 63.0699 43.6608 62.93 43.4521 62.7804C42.6394 62.1976 41.6415 60.9879 41.4971 59.9703C41.4183 59.4145 41.6666 59.0341 41.9896 58.6173C42.0764 57.6179 42.2565 56.8348 42.5429 55.8788C41.1422 56.8182 39.6953 57.6664 38.1594 58.3696C35.0197 59.807 31.289 60.7545 27.8193 60.3667C25.3589 60.1213 23.0356 59.1915 20.8473 58.0857C20.3328 57.8256 19.8035 57.5681 19.307 57.2756C18.4268 56.7571 18.1427 55.872 17.8997 54.9276C17.7866 54.488 17.52 53.5554 17.7817 53.1448C17.96 52.865 18.3459 52.8126 18.6424 52.7462C18.7129 52.5727 18.7975 52.4193 18.8943 52.2592C16.7419 51.8159 14.5 50.203 12.9576 48.6893C12.7672 48.5024 12.5249 48.3365 12.356 48.1324C11.8749 47.5509 11.7363 45.6909 11.815 44.9185C11.8676 44.4021 12.3527 44.1405 12.7251 43.8491C12.2911 43.6979 11.8531 43.565 11.4281 43.3885C11.2451 43.3135 11.0635 43.2351 10.8833 43.1535C10.7032 43.0718 10.5246 42.9869 10.3476 42.8988C10.1705 42.8106 9.99513 42.7192 9.82145 42.6246C9.64773 42.5301 9.47579 42.4324 9.30563 42.3315C9.13552 42.2307 8.96727 42.1267 8.8009 42.0198C8.63457 41.9128 8.47023 41.8028 8.3079 41.6898C8.14556 41.5768 7.98535 41.4609 7.82727 41.342C7.66919 41.2232 7.51332 41.1015 7.35966 40.9769C7.20601 40.8524 7.05469 40.7251 6.90572 40.595C6.7567 40.465 6.61011 40.3322 6.46595 40.1968C6.3218 40.0614 6.18017 39.9234 6.04106 39.7828C5.90195 39.6422 5.76545 39.4991 5.63156 39.3535C5.49767 39.2079 5.36649 39.06 5.23801 38.9096C5.10952 38.7592 4.98383 38.6066 4.86092 38.4516C4.73802 38.2966 4.61798 38.1395 4.5008 37.9802C4.38364 37.8208 4.26942 37.6593 4.15815 37.4959C3.76479 36.9273 3.42039 36.3312 3.09379 35.7224C2.93124 35.4194 2.78851 35.0857 2.60382 34.7969C2.49876 34.6328 2.28904 34.5565 2.17487 34.3982C1.93279 34.0625 2.01103 33.3001 2.06057 32.9087C2.15514 32.1613 2.46605 30.935 3.10871 30.462C3.51647 30.1619 4.11161 30.2346 4.58066 30.3167C7.07568 29.2725 10.063 29.5296 12.651 30.0555C13.7996 30.289 14.9286 30.6055 16.0813 30.8281C17.979 31.1947 19.9994 31.4511 21.9353 31.4288C25.3942 31.3889 28.2247 30.0107 30.6827 27.6368C31.6612 26.692 32.5409 25.6545 33.5522 24.7433C34.1049 24.2398 34.6839 23.7686 35.2892 23.3298C35.9464 22.86 36.6695 22.4376 37.2345 21.8544C38.4703 20.5788 38.6587 18.4826 38.6261 16.7808C38.3979 16.5938 38.2463 16.4214 38.1551 16.1313C38.0452 15.7817 38.0862 15.3909 38.0625 15.028C38.0346 14.6373 37.9717 14.2523 37.8737 13.873C37.5176 12.4466 36.8285 11.1296 36.5299 9.67891C36.1424 7.79643 36.4898 6.13287 37.5488 4.52934C38.1938 3.5527 39.2827 2.34914 40.4809 2.10291Z" fill="white"/>
<path d="M3.86491 30.9822C3.94155 30.9814 4.00603 30.9865 4.08099 31.0027L4.10358 31.0674C3.85545 31.9422 3.43889 32.8293 2.85459 33.5271C2.82433 33.5701 2.80736 33.5854 2.76625 33.6156C2.74984 33.5866 2.74291 33.5787 2.73584 33.5415C2.63398 33.0051 3.07266 31.6208 3.43608 31.2027C3.57507 31.0427 3.65414 31.0001 3.86491 30.9822Z" fill="#1C1C1C"/>
<path d="M18.9583 53.3667C18.9816 53.3725 18.9772 53.3681 18.9959 53.3892C19.4577 53.9075 19.327 55.6275 19.2613 56.2937C19.1917 56.1962 19.1282 56.0936 19.0625 55.9934C18.6862 55.2782 18.4853 54.4434 18.3972 53.6437C18.5738 53.5368 18.7716 53.455 18.9583 53.3667Z" fill="#1C1C1C"/>
<path d="M43.0251 19.4583C43.0655 19.5024 43.09 19.5511 43.1185 19.6035C43.621 20.5291 44.1326 21.7441 44.1374 22.8063C44.139 23.1752 44.071 23.5182 43.968 23.8708C43.9479 23.9329 43.9218 23.9875 43.8921 24.0456C43.6416 23.7601 43.1035 20.023 43.0251 19.4583Z" fill="#1C1C1C"/>
<path d="M13.3027 44.338C13.3157 44.3517 13.3313 44.3634 13.3416 44.3792C13.6395 44.838 13.5196 46.3201 13.386 46.8383C13.3257 47.0721 13.2021 47.5376 12.9881 47.6628L12.907 47.6191C12.4947 46.8267 12.513 45.8379 12.5389 44.9674C12.7901 44.7535 13.0447 44.5437 13.3027 44.338Z" fill="#1C1C1C"/>
<path d="M42.5805 59.1072C42.9995 59.4238 43.3714 59.788 43.6691 60.2223C43.9914 60.6922 44.4068 61.4371 44.2836 62.026C44.2584 62.1466 44.234 62.2656 44.1257 62.3368L44.0392 62.3086C43.6755 62.0886 43.3597 61.8085 43.0789 61.49C42.7191 61.082 42.1423 60.3433 42.1934 59.7624C42.2186 59.4752 42.3687 59.2896 42.5805 59.1072Z" fill="#1C1C1C"/>
<path d="M40.4602 2.87005C40.6453 2.85629 40.8511 2.83082 41.0033 2.95834C41.1576 3.0876 41.2186 3.2936 41.2259 3.48815C41.2606 4.41823 40.5559 6.08933 39.9339 6.77556C39.3931 7.37208 38.7453 7.74417 37.9366 7.78368C37.6198 7.76363 37.4193 7.69537 37.1483 7.53959C37.207 7.00225 37.3681 6.47528 37.5827 5.98052C38.1199 4.74197 39.1694 3.37638 40.4602 2.87005Z" fill="#1C1C1C"/>
<path d="M41.2863 5.14496C41.3879 5.47846 41.3831 6.14649 41.4594 6.54424C41.7904 8.27048 42.3834 9.92674 43.3924 11.3779C43.6437 11.7392 43.9208 12.1038 44.2307 12.4172C44.5258 12.7155 45.0544 13.0867 45.2579 13.4304C45.2865 13.4787 45.2979 13.5169 45.3035 13.5729C45.3477 14.0153 44.9413 14.5523 44.6668 14.8745C43.7385 15.9637 42.2316 16.7319 40.8068 16.8394C40.7411 16.8427 40.6754 16.8441 40.6097 16.8437C40.0627 16.8378 39.4208 16.6346 39.0408 16.227C38.9645 16.1452 38.9003 16.0578 38.8706 15.9487C38.7873 15.6434 38.8273 15.306 38.8093 14.9917C38.7928 14.7019 38.7424 14.4089 38.6899 14.1234C38.5684 13.463 38.3328 12.8159 38.1008 12.1878C37.5893 10.8027 37.0772 9.45719 37.0998 7.95473C37.1961 7.99636 37.2929 8.03575 37.3927 8.06855C38.0149 8.27338 38.6463 8.15357 39.2189 7.85773C40.2892 7.30478 40.9318 6.26381 41.2863 5.14496Z" fill="#1C1C1C"/>
<path d="M41.0391 9.91217C41.1874 10.0326 42.2913 11.9228 42.5235 12.2825C42.9903 13.0059 43.4611 13.7197 43.9727 14.4126C43.9298 14.3975 43.8892 14.3799 43.8503 14.356C42.7453 13.6777 41.379 11.201 41.0391 9.91217Z" fill="white"/>
<path d="M38.3141 8.98425C38.3216 8.99205 38.3295 8.99946 38.3365 9.00771C39.3583 10.2199 40.2369 12.3969 40.4978 13.9551C40.6058 14.6007 40.6227 15.2428 40.589 15.8947C40.4578 15.7433 40.2749 14.6319 40.2144 14.3579C40.0909 13.8104 39.9451 13.2689 39.7768 12.7334C39.6085 12.198 39.4184 11.6704 39.2064 11.1507C38.9096 10.433 38.5527 9.72314 38.3141 8.98425Z" fill="white"/>
<path d="M40.0476 17.2867C40.3475 17.3222 40.6497 17.3163 40.9509 17.3108C41.0644 19.2253 41.103 21.1282 41.0001 23.0443C40.942 24.1267 40.8653 25.2464 40.6412 26.3085C40.1768 28.5093 38.919 30.9322 37.6115 32.7488C34.6002 36.9322 30.6441 39.1278 25.544 39.6795C24.4507 39.7977 23.3553 39.8024 22.2605 39.886C19.5015 40.097 16.6741 40.7201 14.4085 42.3854C14.03 42.6635 13.6879 42.9911 13.3388 43.3045C9.84165 42.3663 6.79792 40.0503 4.76946 37.0796C4.113 36.1555 3.55254 35.1562 2.92749 34.2092C3.35045 33.7232 3.72165 33.2273 4.04403 32.6688C4.55813 32.8588 5.05856 33.1408 5.54169 33.3976C6.27562 33.7964 7.01306 34.1886 7.75402 34.5743C10.9225 36.1967 14.1667 37.4857 17.7386 37.8275C18.5955 37.9095 19.4481 37.9564 20.3082 37.9054C26.7298 37.5247 30.9853 36.1514 35.3336 31.2473C35.4182 31.1535 35.5018 31.0589 35.5844 30.9635C35.6671 30.868 35.7487 30.7717 35.8294 30.6746C35.9101 30.5775 35.9897 30.4796 36.0684 30.3808C36.1471 30.2821 36.2247 30.1825 36.3014 30.0822C36.3781 29.9819 36.4537 29.8808 36.5283 29.779C36.6029 29.6771 36.6764 29.5744 36.7489 29.4711C36.8214 29.3677 36.8928 29.2636 36.9632 29.1588C37.0336 29.054 37.1029 28.9485 37.1711 28.8423C37.2393 28.736 37.3064 28.6291 37.3725 28.5215C37.4385 28.4139 37.5035 28.3056 37.5673 28.1967C37.6311 28.0878 37.6938 27.9782 37.7555 27.868C37.817 27.7578 37.8775 27.647 37.9369 27.5355C37.9962 27.4241 38.0544 27.312 38.1114 27.1994C38.1685 27.0868 38.2244 26.9736 38.2791 26.8599C38.3339 26.7461 38.3875 26.6318 38.44 26.5169C38.4924 26.4021 38.5436 26.2867 38.5937 26.1708C38.6437 26.0549 38.6926 25.9385 38.7403 25.8216C38.788 25.7047 38.8345 25.5873 38.8798 25.4695C38.9251 25.3516 38.9692 25.2333 39.0121 25.1145C39.055 24.9958 39.0967 24.8767 39.1371 24.7571C39.1776 24.6375 39.2168 24.5175 39.2548 24.3971C39.2929 24.2767 39.3296 24.1559 39.3652 24.0348C39.4008 23.9136 39.4351 23.7921 39.4681 23.6703C39.5012 23.5485 39.533 23.4263 39.5636 23.3038C39.5942 23.1813 39.6236 23.0585 39.6516 22.9354C39.6797 22.8123 39.7065 22.689 39.7321 22.5653C39.7577 22.4417 39.782 22.3178 39.805 22.1937C39.828 22.0695 39.8498 21.9452 39.8704 21.8206C39.8909 21.696 39.9101 21.5713 39.928 21.4463C39.946 21.3213 39.9627 21.1962 39.9781 21.0709C39.9935 20.9455 40.0076 20.8201 40.0205 20.6945C40.0334 20.5689 40.0449 20.4432 40.0552 20.3174C40.133 19.2986 40.1094 18.3048 40.0476 17.2867Z" fill="#1C1C1C"/>
<path d="M39.3675 17.0605L39.7593 17.2036C39.7363 20.6012 39.4728 23.6036 37.9357 26.6956C35.7734 31.0453 31.5615 34.878 26.9354 36.419C24.9343 37.0856 22.4778 37.5824 20.3624 37.5517C19.5055 37.5393 18.6404 37.3964 17.7968 37.2556C17.1657 37.1471 16.5385 37.0191 15.9153 36.8716C15.2921 36.7242 14.674 36.5577 14.0612 36.372C13.4483 36.1863 12.8417 35.9819 12.2415 35.7587C11.6412 35.5355 11.0484 35.2939 10.4631 35.034C9.31052 34.5276 8.18949 33.9535 7.06465 33.3891C6.16428 32.9425 5.23764 32.4744 4.26202 32.2175C4.37448 31.8684 4.47237 31.5186 4.56334 31.1633C6.87007 30.0713 9.68957 30.2644 12.1282 30.7555C13.1811 30.9677 14.2166 31.2573 15.2728 31.4554C17.2845 31.8327 19.3102 32.115 21.3584 32.1697C25.1202 32.2702 28.3204 30.9231 31.0335 28.3477C32.0353 27.3967 32.9142 26.3245 33.9333 25.3922C34.5259 24.8577 35.1466 24.358 35.7952 23.893C36.4291 23.4431 37.1065 23.0298 37.6702 22.491C39.1272 21.0985 39.3194 18.9621 39.3675 17.0605Z" fill="#1C1C1C"/>
<path d="M43.31 16.5666C43.562 16.829 44.0448 17.8207 44.2448 18.1924C46.0163 21.4849 47.2088 25.0011 47.3824 28.7522C47.3917 28.9437 47.3987 29.1354 47.4034 29.3271C47.4081 29.5189 47.4104 29.7106 47.4104 29.9025C47.4104 30.0943 47.4081 30.286 47.4034 30.4778C47.3987 30.6695 47.3918 30.8612 47.3824 31.0528C47.3731 31.2443 47.3614 31.4357 47.3474 31.627C47.3334 31.8183 47.3171 32.0094 47.2985 32.2003C47.2798 32.3912 47.2589 32.5818 47.2356 32.7722C47.2123 32.9626 47.1867 33.1527 47.1588 33.3424C47.1309 33.5322 47.1007 33.7216 47.0682 33.9107C47.0356 34.0997 47.0008 34.2883 46.9637 34.4764C46.9266 34.6646 46.8872 34.8523 46.8455 35.0396C46.8039 35.2268 46.7599 35.4135 46.7137 35.5996C46.6675 35.7857 46.619 35.9713 46.5683 36.1563C46.5175 36.3412 46.4645 36.5255 46.4093 36.7092C46.3541 36.8929 46.2966 37.0759 46.237 37.2582C46.1773 37.4404 46.1154 37.622 46.0513 37.8027C45.9872 37.9835 45.9209 38.1635 45.8524 38.3427C45.7839 38.5218 45.7133 38.7001 45.6405 38.8776C45.5676 39.055 45.4927 39.2315 45.4156 39.4071C45.3385 39.5827 45.2592 39.7574 45.1778 39.9311C45.0964 40.1048 45.013 40.2775 44.9274 40.4491C44.8418 40.6207 44.7542 40.7913 44.6644 40.9609C44.5747 41.1304 44.483 41.2988 44.3892 41.4661C44.2953 41.6333 44.1995 41.7994 44.1016 41.9644C44.0038 42.1294 43.9039 42.2931 43.8021 42.4557C43.7002 42.6182 43.5963 42.7794 43.4906 42.9394C43.3848 43.0994 43.2771 43.2581 43.1675 43.4155C43.0578 43.5729 42.9463 43.7289 42.8328 43.8835C42.7194 44.0382 42.6041 44.1915 42.4869 44.3433C42.3698 44.4952 42.2508 44.6455 42.13 44.7945C42.0091 44.9435 41.8865 45.0909 41.7621 45.2369C41.6376 45.3829 41.5114 45.5273 41.3835 45.6702C40.1458 47.026 38.4829 48.57 36.9388 49.5518C34.5552 51.0676 31.7551 51.9396 29.0418 52.6415C28.0928 52.8883 27.1372 53.1063 26.175 53.2953C25.522 53.4295 24.8664 53.5718 24.2026 53.6404C23.1709 53.747 22.1344 53.6893 21.1004 53.7363C20.7014 53.756 20.3086 53.7878 19.9139 53.8507C19.7933 53.4762 19.6245 53.1704 19.4227 52.8354C21.0419 50.8338 23.4865 49.8105 25.8026 48.863C27.0176 48.3721 28.2294 47.8735 29.438 47.3671C31.1715 46.6232 32.8832 45.7621 34.4685 44.7383C34.7715 44.5444 35.0674 44.3402 35.3561 44.1257C35.6449 43.9112 35.9258 43.687 36.1989 43.453C36.4721 43.2189 36.7368 42.9757 36.993 42.7232C37.2492 42.4708 37.4963 42.2097 37.7344 41.9401C39.7621 39.6488 41.6206 36.0041 42.3008 33.0197C42.6681 31.4081 42.7023 29.7348 43.1201 28.133C43.2179 27.7537 43.3308 27.3788 43.4587 27.0084C43.5866 26.6381 43.7291 26.2735 43.8862 25.9145C44.2153 25.1686 44.6539 24.4383 44.8215 23.6337C44.9299 23.1127 44.9209 22.567 44.8243 22.0449C44.5377 20.4962 43.3245 18.2575 42.461 16.9568C42.7448 16.8286 43.0278 16.6985 43.31 16.5666Z" fill="#1C1C1C"/>
<path d="M41.7228 17.1844L41.7751 17.1894C42.0339 17.508 42.606 21.8634 42.7574 22.5891C42.9338 23.4316 43.164 24.2593 43.4479 25.0719C42.7133 26.6095 42.2573 28.0724 42.035 29.7641C41.9476 30.4288 41.9134 31.4063 41.7133 32.0097C41.3687 33.0486 40.1598 34.8005 39.4428 35.6899C36.9582 38.7722 33.6152 41.2009 29.7126 42.0777C28.3449 42.385 26.9544 42.4943 25.5555 42.5307C23.5957 42.5818 21.6361 42.3826 19.6802 42.5965C18.044 42.7755 16.2362 43.2995 14.9484 44.361C14.6184 44.6331 14.3382 44.9524 14.0711 45.285C14.983 44.7155 15.8399 44.1164 16.8444 43.7128C19.4863 42.6516 22.2744 42.9592 25.0493 42.9376C26.8215 42.9238 28.5562 42.7764 30.2789 42.3451C35.0309 41.1552 38.8946 37.6819 41.3663 33.5524C41.2567 33.928 41.1367 34.3002 41.0063 34.6691C40.8758 35.038 40.7352 35.4029 40.5843 35.7639C40.4335 36.1249 40.2726 36.4814 40.1018 36.8334C39.9309 37.1854 39.7504 37.5323 39.5602 37.8742C38.2289 40.3142 36.7022 42.2304 34.4144 43.8323C34.0985 44.0518 33.7768 44.2624 33.4492 44.464C31.3338 45.7538 28.9886 46.6931 26.6979 47.6243C26.1789 47.8352 25.6268 48.154 25.0757 48.2542C24.7536 48.3128 24.4036 48.3159 24.0763 48.334C23.6297 48.3587 23.1828 48.3676 22.7356 48.3608C22.2884 48.3541 21.842 48.3316 21.3964 48.2934C20.9507 48.2551 20.507 48.2013 20.0652 48.1318C19.6233 48.0623 19.1845 47.9774 18.7486 47.8771C18.133 47.7341 17.5262 47.5606 16.928 47.3567C16.1146 47.074 15.3355 46.7497 14.4954 46.5469C16.4472 47.8787 19.3041 48.5468 21.6345 48.7171C22.4484 48.7766 23.2628 48.761 24.0784 48.7574C22.2898 49.4613 20.891 50.4726 19.4188 51.6746C18.8667 51.4757 18.3042 51.3227 17.7612 51.0958C16.1382 50.4177 14.4941 49.2994 13.305 48.0021C13.3225 47.9768 13.3395 47.9511 13.3558 47.925C14.0594 46.8025 13.9693 45.284 13.6942 44.0449C15.8501 41.6822 19.0814 40.9375 22.1436 40.6606C22.9132 40.591 23.6865 40.5727 24.4573 40.5199C25.573 40.4436 26.7022 40.3098 27.799 40.0893C27.9036 40.0683 28.0081 40.0463 28.1123 40.0233C28.2165 40.0002 28.3204 39.9762 28.4242 39.9511C28.5279 39.926 28.6314 39.9 28.7347 39.8729C28.8379 39.8458 28.9408 39.8178 29.0435 39.7887C29.1462 39.7596 29.2486 39.7296 29.3507 39.6985C29.4528 39.6675 29.5546 39.6354 29.6561 39.6024C29.7576 39.5693 29.8587 39.5353 29.9596 39.5003C30.0604 39.4653 30.1608 39.4293 30.261 39.3924C30.3611 39.3554 30.4609 39.3175 30.5603 39.2786C30.6596 39.2397 30.7586 39.1999 30.8573 39.1591C30.9559 39.1183 31.0541 39.0765 31.1519 39.0338C31.2497 38.9911 31.347 38.9475 31.444 38.9029C31.541 38.8582 31.6375 38.8127 31.7335 38.7662C31.8296 38.7197 31.9252 38.6723 32.0203 38.624C32.1155 38.5756 32.2102 38.5264 32.3044 38.4762C32.3985 38.426 32.4922 38.3749 32.5854 38.3229C32.6786 38.2709 32.7713 38.218 32.8635 38.1642C32.9557 38.1104 33.0473 38.0558 33.1384 38.0002C33.2295 37.9446 33.3201 37.8881 33.4101 37.8308C33.5001 37.7735 33.5896 37.7153 33.6784 37.6562C33.7673 37.5971 33.8556 37.5372 33.9433 37.4765C34.0311 37.4157 34.1182 37.354 34.2047 37.2915C34.2912 37.2291 34.3771 37.1658 34.4624 37.1016C34.5477 37.0374 34.6324 36.9725 34.7164 36.9067C34.8005 36.8409 34.8838 36.7743 34.9666 36.7069C35.0493 36.6395 35.1314 36.5713 35.2128 36.5022C35.2942 36.4332 35.375 36.3635 35.455 36.2929C35.5351 36.2223 35.6144 36.151 35.6931 36.0789C35.7718 36.0068 35.8498 35.9339 35.927 35.8602C36.0043 35.7866 36.0808 35.7123 36.1566 35.6372C36.2324 35.562 36.3075 35.4861 36.3819 35.4096C36.4562 35.333 36.5298 35.2557 36.6026 35.1777C38.5716 33.0724 40.1564 30.4047 40.8124 27.5819C41.0602 26.5156 41.1729 25.3954 41.2666 24.3062C41.3948 22.8031 41.44 21.2976 41.4024 19.7895C41.3824 18.9491 41.3012 18.114 41.2742 17.2752L41.7228 17.1844Z" fill="#1C1C1C"/>
<path d="M44.5402 15.7241C44.7312 15.8679 45.141 16.792 45.2963 17.0595C45.9735 18.2256 46.6899 19.4027 47.5571 20.438C48.136 21.129 48.8417 21.4779 49.5847 21.9538C49.73 22.0485 49.8726 22.1471 50.0125 22.2497C50.1523 22.3522 50.2893 22.4585 50.4233 22.5686C50.5573 22.6787 50.6882 22.7924 50.816 22.9097C50.9437 23.027 51.0681 23.1478 51.1891 23.2719C51.3102 23.3961 51.4278 23.5235 51.5418 23.6542C51.6559 23.7848 51.7662 23.9185 51.8729 24.0553C51.9796 24.192 52.0824 24.3316 52.1814 24.474C52.2804 24.6164 52.3754 24.7614 52.4663 24.9091C54.8674 28.8673 54.3439 34.1812 53.2842 38.4658C53.2229 38.7214 53.1576 38.9759 53.0884 39.2293C53.0193 39.4828 52.9462 39.7352 52.8691 39.9864C52.7921 40.2376 52.7112 40.4876 52.6264 40.7363C52.5416 40.985 52.4529 41.2324 52.3605 41.4783C52.268 41.7243 52.1718 41.9687 52.0717 42.2117C51.9716 42.4546 51.8678 42.696 51.7603 42.9358C51.6528 43.1755 51.5415 43.4135 51.4266 43.6498C51.3116 43.8861 51.1931 44.1206 51.0709 44.3532C50.9487 44.5858 50.8229 44.8165 50.6935 45.0452C50.5641 45.2739 50.4312 45.5005 50.2948 45.7251C50.1584 45.9497 50.0186 46.1721 49.8753 46.3923C49.7319 46.6126 49.5852 46.8306 49.4352 47.0463C49.2851 47.2619 49.1317 47.4752 48.975 47.6862C48.8183 47.8971 48.6584 48.1056 48.4952 48.3116C48.332 48.5175 48.1657 48.7209 47.9963 48.9217C47.8267 49.1225 47.6542 49.3206 47.4786 49.5161C46.7712 50.3086 45.9407 50.9841 45.2275 51.7722C44.7556 52.2938 44.3025 52.8509 43.8929 53.4228C43.641 53.7743 43.4265 54.2002 43.1249 54.5083C42.9244 54.713 42.6369 54.8789 42.4002 55.0435C41.7918 55.474 41.1695 55.8836 40.5334 56.2721C37.8561 57.884 34.9408 59.0135 31.8481 59.4955C30.9514 59.6352 30.0591 59.7327 29.1503 59.712C27.9379 59.6842 26.7867 59.4781 25.6128 59.186C25.0808 59.0298 24.5544 58.8565 24.0335 58.6662C23.5127 58.4759 22.9985 58.269 22.4911 58.0454C21.9837 57.8218 21.484 57.582 20.9921 57.326C20.5002 57.0701 20.0171 56.7985 19.5428 56.5112C19.7705 55.8628 19.845 55.1803 19.9186 54.5011C20.6604 54.4736 21.4024 54.4575 22.1446 54.4528C22.7831 54.447 23.4266 54.4557 24.0631 54.3999C25.1232 54.3068 26.1742 54.0927 27.2144 53.874C30.1996 53.2463 33.0932 52.3947 35.7085 50.7869C41.3499 47.3189 45.4825 42.4214 47.0351 35.896C48.7633 28.6321 47.4798 22.7166 43.5966 16.4096C43.9178 16.1884 44.2355 15.9679 44.5402 15.7241Z" fill="#1C1C1C"/>
<path d="M45.3704 14.9725C45.611 15.1172 46.0321 15.7308 46.2565 15.9718C47.2097 16.9953 48.229 17.9313 49.4653 18.6022C50.6285 19.2334 51.2869 19.2908 52.4968 19.5726C52.6067 19.5984 52.7163 19.626 52.8253 19.6553C52.9344 19.6847 53.043 19.7157 53.1512 19.7485C53.2593 19.7813 53.3668 19.8159 53.4738 19.8521C53.5808 19.8883 53.6872 19.9262 53.793 19.9658C53.8988 20.0054 54.004 20.0467 54.1084 20.0896C54.2129 20.1326 54.3167 20.1772 54.4198 20.2234C54.5228 20.2697 54.6251 20.3176 54.7266 20.3671C54.8282 20.4166 54.9289 20.4677 55.0289 20.5204C55.1288 20.5731 55.2278 20.6274 55.326 20.6833C55.4242 20.7391 55.5215 20.7965 55.6178 20.8555C55.7142 20.9145 55.8096 20.975 55.904 21.037C55.9985 21.099 56.0919 21.1625 56.1843 21.2275C56.2767 21.2924 56.368 21.3588 56.4583 21.4267C56.5486 21.4946 56.6378 21.5639 56.7259 21.6346C56.814 21.7053 56.901 21.7774 56.9868 21.8509C57.0726 21.9244 57.1572 21.9992 57.2406 22.0754C61.3134 25.7719 62.9951 31.6644 63.2437 37.0054C63.5645 43.8992 61.4367 51.3462 56.7242 56.5105C53.349 60.2093 49.5261 62.239 44.4947 62.4645C44.5362 62.3903 44.5781 62.3149 44.6141 62.2378C44.7962 61.8492 44.6713 61.3326 44.5252 60.9479C44.2196 60.1431 43.5112 59.0891 42.6999 58.7301C42.7498 58.1427 42.8106 57.5635 42.9558 56.9902C43.5052 54.8206 44.9956 53.0191 46.5345 51.4584C46.9861 51.0004 47.4721 50.5776 47.9127 50.1081C48.9034 49.0521 49.8305 47.8235 50.643 46.6252C50.8851 46.2686 51.1162 45.905 51.3364 45.5344C51.5565 45.1638 51.7652 44.7869 51.9625 44.4037C52.1599 44.0205 52.3455 43.6317 52.5193 43.2373C52.6931 42.8428 52.8549 42.4435 53.0045 42.0393C53.252 41.3654 53.4267 40.6565 53.6912 39.9917L53.7065 39.9542C53.6395 40.4666 53.6132 40.9827 53.537 41.4949C53.3724 42.6022 53.0609 43.7181 52.6538 44.76C51.975 46.4979 50.9739 48.1255 49.7997 49.5715C49.0548 50.4889 48.2121 51.3071 47.4252 52.1856C46.0806 53.6869 44.7013 55.6191 44.1043 57.5619C43.9899 57.9342 43.9271 58.3116 43.8639 58.6949C44.221 58.0778 44.4989 57.3985 44.8103 56.7569C45.0284 56.297 45.2674 55.8482 45.5274 55.4107C45.7875 54.9732 46.0674 54.5488 46.3672 54.1374C46.8265 53.5088 47.3164 52.905 47.8369 52.326C48.3167 51.7986 48.8267 51.2991 49.3036 50.7688C51.5226 48.302 52.9318 45.7879 53.7469 42.5671C53.8514 42.1165 53.9353 41.6622 53.9985 41.204C54.0616 40.7458 54.1039 40.2857 54.1252 39.8237C54.1455 39.3553 54.1102 38.8683 54.16 38.4038C54.2058 37.9761 54.3225 37.5407 54.4066 37.1187C54.5275 36.4978 54.6337 35.8745 54.7255 35.2487C55.2439 31.6441 55.0175 27.3407 52.9539 24.2087C52.4636 23.4646 51.8352 22.7968 51.1663 22.2093C50.791 21.8788 50.3898 21.5832 49.9628 21.3227C49.4788 21.0215 48.9616 20.7428 48.5289 20.3693C48.1142 20.0115 47.7852 19.5748 47.4586 19.1388C48.4441 19.7973 49.5351 20.2703 50.5515 20.8784C53.1254 22.4185 55.1712 24.8155 56.6104 27.4247C56.7044 27.5938 56.7964 27.7641 56.8863 27.9355C56.9761 28.1068 57.0639 28.2793 57.1495 28.4529C57.2351 28.6265 57.3185 28.801 57.3998 28.9767C57.4811 29.1523 57.5602 29.3289 57.6372 29.5065C57.7141 29.684 57.7889 29.8625 57.8614 30.0419C57.9339 30.2213 58.0042 30.4016 58.0723 30.5828C58.1403 30.7639 58.2062 30.9459 58.2697 31.1287C58.3333 31.3115 58.3946 31.495 58.4537 31.6793C58.5127 31.8636 58.5695 32.0486 58.6239 32.2343C58.6784 32.42 58.7305 32.6064 58.7804 32.7933C58.8303 32.9803 58.8779 33.1679 58.9231 33.3561C58.9683 33.5442 59.0112 33.7329 59.0518 33.9221C59.0924 34.1114 59.1306 34.3011 59.1665 34.4912C59.2024 34.6814 59.2359 34.872 59.2671 35.063C59.2983 35.254 59.3271 35.4453 59.3535 35.637C59.38 35.8287 59.4041 36.0207 59.4258 36.213C59.4475 36.4053 59.4668 36.5979 59.4838 36.7906C59.5008 36.9834 59.5153 37.1764 59.5275 37.3695C59.5397 37.5627 59.5495 37.7559 59.557 37.9493C59.5644 38.1427 59.5694 38.3361 59.572 38.5296C59.5747 38.7231 59.5749 38.9166 59.5728 39.1102C59.5706 39.3037 59.5661 39.4971 59.5592 39.6905C59.5522 39.8839 59.5429 40.0772 59.5312 40.2704C59.5196 40.4635 59.5055 40.6565 59.489 40.8494C59.4725 41.0422 59.4537 41.2348 59.4325 41.4271C59.4113 41.6195 59.3877 41.8116 59.3617 42.0033C59.3357 42.1951 59.3074 42.3865 59.2767 42.5776C59.246 42.7687 59.213 42.9594 59.1776 43.1496C59.1422 43.3398 59.1044 43.5296 59.0643 43.719C59.0243 43.9083 58.9818 44.0971 58.937 44.2854C58.8923 44.4737 58.8452 44.6613 58.7958 44.8484C58.7465 45.0356 58.6948 45.222 58.6408 45.4079C57.1302 50.607 53.5358 55.397 48.9234 58.2462C48.4352 58.5479 47.928 58.8324 47.4069 59.0732C46.6668 59.4154 45.9088 59.7019 45.1922 60.0955C46.2545 59.9369 47.2179 59.6138 48.1711 59.1264C53.0018 56.6564 57.1971 51.2959 58.8544 46.1773C58.9187 45.9771 58.9803 45.7761 59.0393 45.5744C59.0983 45.3726 59.1546 45.1701 59.2083 44.9668C59.2619 44.7636 59.3129 44.5597 59.3612 44.355C59.4094 44.1505 59.455 43.9453 59.4978 43.7395C59.5407 43.5336 59.5808 43.3273 59.6182 43.1204C59.6556 42.9136 59.6903 42.7063 59.7222 42.4985C59.7541 42.2907 59.7833 42.0826 59.8098 41.874C59.8362 41.6655 59.8599 41.4566 59.8808 41.2474C59.9018 41.0383 59.9199 40.8288 59.9354 40.6191C59.9507 40.4095 59.9634 40.1997 59.9733 39.9897C59.9831 39.7797 59.9902 39.5696 59.9945 39.3595C59.9989 39.1493 60.0004 38.9391 59.9992 38.7289C59.998 38.5187 59.994 38.3085 59.9872 38.0984C59.9805 37.8883 59.9709 37.6783 59.9586 37.4685C59.9463 37.2586 59.9312 37.049 59.9134 36.8395C59.8956 36.63 59.875 36.4208 59.8516 36.2119C59.8283 36.003 59.8021 35.7944 59.7733 35.5862C59.7444 35.378 59.7128 35.1702 59.6785 34.9628C59.6441 34.7554 59.6071 34.5485 59.5673 34.3421C59.5275 34.1356 59.485 33.9298 59.4397 33.7245C59.3945 33.5192 59.3465 33.3146 59.2959 33.1106C59.2453 32.9065 59.1919 32.7032 59.136 32.5006C59.08 32.2979 59.0213 32.0961 58.96 31.895C58.8986 31.6939 58.8347 31.4937 58.7681 31.2943C58.7015 31.0949 58.6322 30.8965 58.5604 30.6989C58.4885 30.5013 58.4141 30.3048 58.3371 30.1092C58.2601 29.9136 58.1805 29.719 58.0983 29.5255C58.0161 29.332 57.9314 29.1397 57.8442 28.9484C57.7569 28.7572 57.6672 28.5671 57.5749 28.3782C57.4826 28.1893 57.3879 28.0017 57.2907 27.8153C57.1935 27.6289 57.0939 27.4438 56.9918 27.26C56.8897 27.0763 56.7852 26.8939 56.6783 26.7129C55.6294 24.9471 54.3539 23.3025 52.7956 21.9564C52.4001 21.6139 51.9885 21.2919 51.5608 20.9905C51.1332 20.689 50.6917 20.4096 50.2363 20.1521C49.1263 19.5223 47.8315 19.0923 46.9457 18.1349C46.2397 17.3719 45.6237 16.1618 45.1495 15.2325C45.2208 15.1442 45.2968 15.0589 45.3704 14.9725Z" fill="#1C1C1C"/>
</g>
<defs>
<clipPath id="clip0_107_4634">
<rect width="66" height="66" rx="10" fill="white"/>
</clipPath>
</defs>
</svg>
