<svg width="66" height="66" viewBox="0 0 66 66" fill="none" xmlns="http://www.w3.org/2000/svg">
<g clip-path="url(#clip0_107_4632)">
<path d="M0 0H66V66H0V0Z" fill="#1C1C1C"/>
<path d="M34.0998 4.87931C35.0396 4.77319 36.0896 4.86038 37.0239 4.9959C39.3432 5.33232 41.4619 6.28187 42.8865 8.20477C43.9637 9.65871 44.4429 11.584 44.3728 13.3757C44.3514 13.9203 44.2668 14.4636 44.1844 15.0016L44.8206 15.3756C45.0896 13.8592 45.5141 12.4158 46.3444 11.1025C46.5754 10.737 46.8406 10.3504 47.2019 10.1017C47.4657 9.92019 47.7758 9.80643 48.0976 9.87437C48.3952 9.93727 48.6379 10.1354 48.7915 10.3939C48.9899 10.7277 49.0524 11.1746 48.8898 11.536C48.7007 11.9558 48.135 12.2446 47.8274 12.5887C47.0217 13.4897 46.5707 15.1184 46.2846 16.2863C47.9798 16.9836 49.6959 16.5469 51.4477 16.5207C51.5673 16.5192 51.6869 16.5193 51.8065 16.5211C51.926 16.5229 52.0456 16.5265 52.1651 16.5318C52.2846 16.537 52.404 16.544 52.5233 16.5526C52.6426 16.5613 52.7618 16.5716 52.8808 16.5837C52.9998 16.5957 53.1186 16.6095 53.2372 16.6249C53.3558 16.6404 53.4742 16.6575 53.5923 16.6763C53.7105 16.6951 53.8283 16.7156 53.9459 16.7378C54.0634 16.7599 54.1806 16.7837 54.2974 16.8093C54.4143 16.8348 54.5308 16.862 54.6469 16.8908C54.763 16.9196 54.8786 16.9501 54.9938 16.9823C55.109 17.0144 55.2238 17.0481 55.338 17.0835C55.4523 17.1189 55.566 17.1559 55.6793 17.1946C55.7924 17.2332 55.9051 17.2734 56.0171 17.3153C56.1292 17.3571 56.2406 17.4006 56.3514 17.4456C56.4623 17.4906 56.5724 17.5372 56.6819 17.5854C56.7914 17.6336 56.9002 17.6833 57.0082 17.7346C60.1415 19.2092 62.7572 21.896 63.9352 25.1755C65.3162 29.0208 64.8405 33.4007 63.7583 37.255C63.4374 38.398 63.066 39.5575 62.5591 40.6333C62.2455 41.3007 61.9026 41.9527 61.5301 42.5892C61.1577 43.2257 60.7573 43.8441 60.3289 44.4444C58.1822 47.4246 54.5917 50.8033 51.0741 52.0506C49.3661 52.6563 47.6575 52.6467 45.9721 51.9774C45.3586 51.7338 44.7759 51.4353 44.107 51.3828C43.5719 51.3409 43.0448 51.4709 42.5266 51.5862C40.9481 51.9372 39.7537 51.877 38.2785 51.1694C38.0329 51.616 37.7542 52.0472 37.4713 52.4709C35.7212 55.0922 32.4246 58.791 29.1199 59.172C27.9112 59.3113 26.7232 58.8997 25.5244 59.1069C24.1496 59.3445 23.0465 60.2175 21.6815 60.4826C18.5156 61.0976 14.3357 59.2759 11.7518 57.5428C7.51447 54.7511 4.47029 50.7034 2.72513 45.9563C1.2006 41.8093 0.531521 36.8425 2.45305 32.7028C3.88724 29.613 6.39791 27.4479 9.58026 26.2866C8.45478 25.577 7.47174 24.73 6.546 23.7766C5.98477 23.1985 5.4456 22.5464 4.80734 22.0548C3.72583 21.2219 2.17935 20.989 0.848633 21.1668C1.32973 20.5462 1.86059 19.9623 2.39939 19.3917C4.42136 17.2504 6.87954 15.2704 9.84187 14.6968C11.8359 14.3107 14.6363 15.0342 16.2991 16.1678C17.8377 17.2167 18.5491 18.7463 18.8817 20.5279C19.0261 19.6039 19.7568 17.0588 20.3154 16.3813C20.3372 16.355 20.3602 16.3298 20.3845 16.3058C20.4087 16.2818 20.4341 16.259 20.4606 16.2375C20.4871 16.216 20.5146 16.1958 20.5431 16.177C20.5716 16.1582 20.6009 16.1408 20.6311 16.1248C20.6613 16.1089 20.6923 16.0945 20.7239 16.0816C20.7555 16.0687 20.7877 16.0574 20.8204 16.0477C20.8532 16.038 20.8863 16.0299 20.9198 16.0235C20.9534 16.017 20.9872 16.0122 21.0211 16.0091C21.2816 15.9853 21.5183 16.0665 21.7176 16.2343C22.2409 16.6748 22.4513 17.4555 22.5152 18.1075C20.9234 19.5519 20.3724 21.5044 20.1289 23.569C20.4255 23.4983 20.7178 23.444 21.0228 23.4253C21.3671 23.4043 21.7368 23.4266 22.0714 23.3349C22.614 23.1863 23.1369 22.8685 23.6647 22.6635C25.2461 22.0493 26.8322 21.8663 28.5188 21.948C28.6868 21.675 28.9197 21.4188 29.1375 21.1844C30.2049 20.0356 31.5398 19.2536 32.9482 18.5984C31.1773 17.5456 29.8301 16.0855 28.6855 14.3883C28.226 13.7071 27.7916 12.9374 27.2201 12.3449C26.2397 11.3282 24.9495 11.2306 23.6174 11.2136C24.1678 10.5788 24.728 9.9704 25.3476 9.40109C27.0373 7.84886 29.4569 6.21159 31.6214 5.42737C31.8206 5.35407 32.0221 5.28758 32.2257 5.22788C32.4294 5.16818 32.6349 5.11542 32.8421 5.06958C33.0493 5.02376 33.2579 4.98497 33.4677 4.95322C33.6776 4.92147 33.8883 4.89684 34.0998 4.87931Z" fill="white"/>
<path d="M21.0828 16.4338C21.1516 16.4416 21.2245 16.4455 21.2871 16.4781C21.5468 16.6133 21.8656 17.1195 21.9506 17.392C21.9744 17.4682 21.9772 17.4365 21.9417 17.501C21.7752 17.3751 21.6053 17.2499 21.4501 17.11C21.2819 16.9584 21.0347 16.7385 21.022 16.5011L21.0828 16.4338Z" fill="#1C1C1C"/>
<path d="M43.897 15.7462C44.186 16.0575 44.4804 16.3054 44.8329 16.5431L44.8177 17.2935C44.5368 16.8769 44.1768 16.5215 43.8637 16.1294L43.897 15.7462Z" fill="#1C1C1C"/>
<path d="M47.7018 10.382C47.8246 10.3701 47.9688 10.3559 48.0846 10.408C48.2459 10.4805 48.4368 10.6796 48.4868 10.8518C48.5195 10.9645 48.4917 11.0306 48.4392 11.1262C48.3455 11.1555 48.2438 11.1262 48.1474 11.1122C47.9083 11.0524 47.5925 10.9917 47.3981 10.8342C47.3289 10.778 47.3176 10.7405 47.3059 10.6551C47.3756 10.4953 47.5521 10.4446 47.7018 10.382Z" fill="#1C1C1C"/>
<path d="M43.6747 16.6327L44.3373 17.3524C43.9725 17.4489 43.5809 17.4977 43.2088 17.5642C42.9938 17.5995 42.7796 17.6387 42.5662 17.6819C42.9168 17.312 43.3275 17.0113 43.6747 16.6327Z" fill="#1C1C1C"/>
<path d="M39.6714 19.5015C40.2278 19.8293 40.9361 20.8163 41.2301 21.3803C40.9482 21.1713 40.669 20.9646 40.3699 20.7803C39.6905 20.409 39.041 20.145 38.3028 19.9131C38.7537 19.7642 39.2175 19.6431 39.6714 19.5015Z" fill="#1C1C1C"/>
<path d="M47.2954 21.1818C47.5778 21.1816 47.7948 21.3972 47.9951 21.5707C47.6102 21.9832 47.2092 22.3714 46.8385 22.7985C46.7936 22.8682 46.7487 22.9304 46.6953 22.9937C46.5776 23.0559 46.4468 23.0329 46.3177 23.0265C46.3191 22.5752 46.2888 21.9065 46.5653 21.5241C46.7498 21.2688 47.0056 21.2267 47.2954 21.1818Z" fill="#1C1C1C"/>
<path d="M23.0352 27.785L23.0769 27.7899C23.0781 27.8702 23.044 27.9174 23.0084 27.9863C22.352 29.2553 22.1951 29.5703 20.7947 30.0164C20.7739 29.9934 20.7655 29.9876 20.7534 29.9545C20.6458 29.6582 20.7642 28.9102 20.9237 28.6506C21.2497 28.1203 22.4557 27.9358 23.0352 27.785Z" fill="#1C1C1C"/>
<path d="M42.8071 20.7294C42.8698 20.7263 42.9326 20.7252 42.9955 20.7263C43.0584 20.7273 43.1211 20.7303 43.1838 20.7355C43.2464 20.7406 43.3088 20.7478 43.371 20.757C43.4332 20.7663 43.495 20.7775 43.5564 20.7909C43.6179 20.8041 43.6788 20.8194 43.7393 20.8367C43.7997 20.8541 43.8595 20.8733 43.9187 20.8946C43.9778 20.9158 44.0362 20.939 44.0939 20.9641C44.1515 20.9892 44.2083 21.0161 44.2641 21.0449C45.0179 21.4404 45.2683 22.1323 45.5021 22.8965C44.5288 22.6947 43.8508 22.6908 43.1597 21.8942C42.9238 21.6026 42.7436 21.245 42.556 20.9198C42.6739 21.5548 42.7791 22.0342 43.3048 22.4633C42.6698 22.3034 41.9081 22.0702 41.4561 21.5642C41.4903 21.5045 41.5276 21.4468 41.5679 21.391C41.8454 21.0068 42.3551 20.8085 42.8071 20.7294Z" fill="#1C1C1C"/>
<path d="M20.7234 17.0056C21.0232 17.4063 21.3536 17.6498 21.7502 17.9413C20.9279 18.7094 20.3723 19.5924 20.0501 20.6752C19.436 22.7394 19.395 26.651 20.414 28.5326L20.3098 28.9954C20.2647 29.1962 20.2707 29.369 20.2904 29.5709C20.121 29.3094 19.979 29.0336 19.8643 28.7438C19.0416 26.716 19.106 24.5267 19.365 22.3991C19.61 20.3871 19.9227 18.8889 20.7234 17.0056Z" fill="#1C1C1C"/>
<path d="M47.0584 10.9147C47.1085 10.9796 47.1592 11.0451 47.216 11.1042C47.4816 11.3803 47.9237 11.4773 48.2948 11.486C47.9953 11.7335 47.6919 11.9806 47.4361 12.2746C46.7634 13.0474 46.3505 14.1728 46.0682 15.1528C45.6352 16.656 45.3507 18.7231 45.8499 20.2354C45.9667 20.5891 46.1645 20.9154 46.3436 21.2403C46.2338 21.5006 46.1621 21.7582 46.0975 22.0329C46.0639 22.2665 46.0856 22.7923 45.9898 22.968L45.9245 22.9632C45.7402 22.8474 45.6306 22.246 45.576 22.0303C44.855 19.1839 44.8755 15.9256 45.9262 13.1639C46.2256 12.3771 46.6288 11.6369 47.0584 10.9147Z" fill="#1C1C1C"/>
<path d="M44.7653 17.9319C44.8256 17.9979 44.8337 18.8595 44.8464 19.0235C44.9166 19.8798 45.0331 20.7298 45.1958 21.5734C45.1686 21.5365 45.1406 21.5003 45.1116 21.4648C45.0827 21.4292 45.053 21.3944 45.0224 21.3602C44.9919 21.3261 44.9606 21.2927 44.9285 21.26C44.8964 21.2273 44.8635 21.1954 44.8299 21.1643C44.7962 21.1332 44.7619 21.1029 44.7269 21.0734C44.6918 21.0439 44.6561 21.0152 44.6197 20.9873C44.5833 20.9595 44.5463 20.9326 44.5086 20.9065C44.4709 20.8804 44.4327 20.8553 44.3938 20.831C44.355 20.8067 44.3156 20.7834 44.2756 20.7609C44.2357 20.7385 44.1952 20.717 44.1543 20.6965C44.1133 20.676 44.0719 20.6564 44.03 20.6378C43.9881 20.6193 43.9459 20.6017 43.9031 20.5851C43.8604 20.5685 43.8174 20.5529 43.7739 20.5384C43.7305 20.5238 43.6867 20.5103 43.6426 20.4978C43.5985 20.4853 43.5542 20.4739 43.5096 20.4635C43.465 20.453 43.4202 20.4437 43.3751 20.4354C42.7173 20.3079 42.1336 20.4718 41.5875 20.842C41.5437 20.8794 41.5199 20.8943 41.4631 20.9053C41.0376 20.335 40.6369 19.8227 40.1106 19.3368C40.4186 19.1758 40.7288 19.017 41.0319 18.847C41.299 18.6971 41.5763 18.5024 41.8649 18.3993C42.1091 18.312 42.4395 18.3152 42.6986 18.2739C43.3889 18.1641 44.069 18.005 44.7653 17.9319Z" fill="#1C1C1C"/>
<path d="M34.0631 19.2408C34.2914 19.2302 35.2515 19.7122 35.5923 19.8133C36.1652 19.9832 36.7443 20.0167 37.3285 20.1175C38.6101 20.3388 39.8073 20.8941 40.877 21.6168C39.025 21.0456 37.1791 20.8134 35.272 21.3047C34.1671 21.6386 33.2871 22.0988 32.4086 22.8508C31.4977 22.4737 30.5138 22.229 29.5403 22.0897C30.8114 20.688 32.3044 19.8682 34.0631 19.2408Z" fill="#1C1C1C"/>
<path d="M36.8384 21.5405C38.0447 21.3925 39.4847 21.6297 40.6485 21.971C41.1451 22.1166 41.6307 22.305 42.1187 22.4771C39.9369 22.5698 38.8181 23.0646 37.1764 24.4973C36.8775 24.7783 36.6069 25.0815 36.3378 25.3905C35.8409 25.0237 35.3799 24.6114 34.8743 24.2538C34.1953 23.7736 33.4637 23.3982 32.7275 23.0161C33.6976 22.145 35.5624 21.6465 36.8384 21.5405Z" fill="#1C1C1C"/>
<path d="M27.0142 22.8618C28.5247 22.6602 31.2833 23.2134 32.6352 23.9479C32.3372 23.884 32.0364 23.8394 31.7327 23.8139C31.429 23.7884 31.125 23.7823 30.8205 23.7956C28.6949 23.896 26.7193 25.1485 25.3067 26.6812C24.7455 27.2902 24.2668 27.9672 23.7125 28.5798C23.4381 28.8536 23.045 29.0622 22.7086 29.2497C22.9434 28.6744 23.1056 27.9455 23.4665 27.4424C22.4833 27.5415 21.5829 27.6089 20.7087 28.1109C20.0777 27.056 20.0435 25.7564 20.0273 24.5618C20.7243 24.3017 21.4285 24.4092 22.1319 24.2308C22.658 24.0975 23.1417 23.8189 23.6439 23.6181C24.7351 23.1818 25.8475 22.9626 27.0142 22.8618Z" fill="#1C1C1C"/>
<path d="M46.419 17.3155C47.261 17.4819 48.1114 17.5836 48.9711 17.5584C49.5928 17.5402 50.2135 17.4599 50.8341 17.4192C50.9345 17.4133 51.0349 17.4086 51.1353 17.4051C51.2358 17.4017 51.3363 17.3995 51.4368 17.3985C51.5373 17.3976 51.6378 17.3978 51.7384 17.3993C51.8389 17.4008 51.9393 17.4036 52.0397 17.4075C52.1402 17.4115 52.2406 17.4167 52.3409 17.4232C52.4412 17.4296 52.5414 17.4373 52.6415 17.4462C52.7417 17.4551 52.8417 17.4653 52.9416 17.4766C53.0414 17.488 53.1411 17.5006 53.2407 17.5145C53.3402 17.5283 53.4396 17.5433 53.5389 17.5596C53.638 17.5759 53.737 17.5933 53.8358 17.612C53.9345 17.6307 54.0331 17.6506 54.1314 17.6718C54.2296 17.6929 54.3276 17.7153 54.4253 17.7388C54.523 17.7624 54.6205 17.7871 54.7176 17.8131C54.8147 17.839 54.9115 17.8661 55.0079 17.8944C55.1044 17.9228 55.2005 17.9523 55.2962 17.983C55.3919 18.0136 55.4872 18.0455 55.5822 18.0786C55.6771 18.1116 55.7716 18.1457 55.8657 18.1811C55.9598 18.2165 56.0535 18.253 56.1467 18.2907C56.2399 18.3283 56.3326 18.3671 56.4248 18.4071C56.5171 18.447 56.6088 18.4881 56.7 18.5303C56.7913 18.5725 56.882 18.6158 56.9721 18.6602C57.0623 18.7047 57.1519 18.7502 57.241 18.7968C57.33 18.8435 57.4185 18.8912 57.5063 18.94C57.5942 18.9888 57.6815 19.0387 57.7681 19.0897C57.8548 19.1407 57.9408 19.1927 58.0261 19.2458C58.1115 19.2989 58.1962 19.353 58.2802 19.4082C58.3642 19.4633 58.4476 19.5195 58.5302 19.5767C58.6129 19.6339 58.6948 19.6922 58.776 19.7514C58.8572 19.8106 58.9377 19.8708 59.0174 19.932C59.0972 19.9933 59.1762 20.0554 59.2544 20.1186C59.3326 20.1817 59.41 20.2458 59.4866 20.3109C59.5632 20.3759 59.639 20.4419 59.714 20.5089C58.2862 19.7776 56.9438 19.5438 55.3573 19.5727C53.5552 19.6632 51.7568 20.0432 50.2425 21.0772C49.9424 21.2827 49.6564 21.5063 49.3845 21.7479C48.9787 22.1112 48.6051 22.5844 48.081 22.7776C47.7124 22.9135 47.3028 22.9484 46.9149 22.9955C47.403 22.521 48.061 22.1637 48.3811 21.5408C48.2077 21.3084 47.9836 21.0619 47.7205 20.9316C47.3568 20.7515 47.0297 20.8707 46.6752 20.9987C46.5201 20.7611 46.3702 20.5225 46.2698 20.2558C46.0298 19.619 45.9443 18.4983 46.0489 17.8185C46.1824 17.6563 46.302 17.49 46.419 17.3155Z" fill="#1C1C1C"/>
<path d="M10.805 15.3857C10.9882 15.3768 11.1766 15.3884 11.3597 15.3996C13.215 15.5135 15.586 16.2786 16.8382 17.7003C17.9867 19.0044 18.1811 20.777 18.075 22.4423C17.3083 21.8168 16.5334 21.2851 15.6696 20.803C15.3335 19.4608 14.6624 18.0167 13.6408 17.0687C13.5095 16.947 12.8831 16.4096 12.7364 16.4147C14.5373 17.9009 14.4957 18.6608 15.3422 20.65C15.093 20.521 14.8425 20.3944 14.5908 20.2702C13.8345 19.9375 13.0658 19.6735 12.284 19.4087C12.2549 19.36 12.2251 19.3126 12.1929 19.2659C11.6391 18.4602 10.9201 17.7207 10.08 17.215C9.9446 17.1336 9.76722 17.0172 9.61079 16.9883C9.65037 17.0645 9.80854 17.1343 9.88762 17.1851C10.1332 17.343 10.3516 17.525 10.5667 17.7221C11.0597 18.1738 11.4637 18.7135 11.8212 19.2759C9.09452 18.5596 5.99551 18.469 3.34418 19.5105C5.47174 17.5688 7.7887 15.5824 10.805 15.3857Z" fill="#1C1C1C"/>
<path d="M7.03771 19.4831C8.43854 19.3823 9.99856 19.5162 11.3598 19.8603C10.5286 20.8735 9.58148 21.1053 8.4143 21.5058C9.83904 21.3961 10.8037 21.0459 11.7745 19.9737C12.8089 20.1171 14.257 20.7992 15.1979 21.2838C14.6841 22.3714 13.641 22.8472 12.5797 23.2666C12.9233 23.2108 13.272 23.1591 13.6074 23.0644C14.5015 22.8119 15.1047 22.2855 15.5573 21.486C16.2903 21.8962 16.9616 22.413 17.6058 22.9491C17.9338 23.2292 18.2469 23.525 18.5451 23.8367C18.0462 24.5764 17.2718 25.2321 16.5304 25.718C15.5259 26.3764 14.4454 26.6982 13.2426 26.6587C10.6713 26.5742 8.56151 24.6654 6.85615 22.9233C6.23228 22.286 5.63537 21.5859 4.87926 21.1008C4.3233 20.7441 3.76513 20.5611 3.12189 20.4279C4.39366 19.8705 5.64663 19.5508 7.03771 19.4831Z" fill="#1C1C1C"/>
<path d="M34.0633 5.52411C35.0088 5.41305 36.0942 5.51302 37.0326 5.6593C39.0133 5.96807 41.0594 6.83896 42.2634 8.5061C43.3867 10.0615 43.8517 11.9335 43.7171 13.8373C43.6733 14.4568 43.5589 15.0698 43.4591 15.6821C43.1892 15.3698 42.8967 15.0782 42.6082 14.7833C42.6077 14.7545 42.6076 14.7257 42.6061 14.697C42.5792 14.1945 42.4915 13.685 42.4167 13.188C42.1035 11.1061 41.4689 9.16552 39.8644 7.71429L39.7752 7.72777L39.7715 7.7092L39.8455 7.69973L39.799 7.67446L39.777 7.68806C40.0881 8.01645 40.4007 8.31867 40.668 8.68766C41.8766 10.3558 42.0182 12.4332 42.2291 14.4095C41.1208 13.3955 39.9129 12.6296 38.614 11.8839C38.555 10.7149 38.1249 9.58318 37.5232 8.58931C37.0857 7.90959 36.4246 7.10895 35.6933 6.73486L35.6816 6.75607C35.783 6.83255 35.8831 6.91069 35.982 6.99049C37.4291 8.1732 38.02 9.90467 38.2013 11.7037C37.1269 11.2026 36.0164 10.8287 34.8899 10.4674C34.8868 10.4572 34.8839 10.447 34.8808 10.437C34.5733 9.44609 33.6007 8.42212 32.7031 7.94085C32.4876 7.82535 32.0776 7.5549 31.8323 7.6296C31.9532 7.72325 32.1348 7.76218 32.2745 7.82741C33.3419 8.32615 33.9281 9.26942 34.3246 10.3321C31.1504 9.79258 27.9067 9.59581 24.7898 10.5815C27.1637 8.3324 30.7091 5.79451 34.0633 5.52411Z" fill="#1C1C1C"/>
<path d="M29.2681 10.2297C31.043 10.1199 32.8476 10.3859 34.5643 10.8187C33.6114 11.7926 32.3314 12.291 31.036 12.6135L31.0713 12.5768L31.1134 12.6172C31.3366 12.6187 31.6028 12.5411 31.8226 12.4917C33.0539 12.2153 33.8584 11.6794 34.804 10.8815C35.2268 11.0065 35.6449 11.1459 36.0581 11.2996C36.4714 11.4533 36.8789 11.621 37.2806 11.8026C37.6824 11.9842 38.0775 12.1794 38.4659 12.388C38.8543 12.5967 39.2351 12.8185 39.6083 13.0533C39.3544 13.2629 39.0368 13.4295 38.7553 13.6022C37.6828 14.2602 36.5733 14.8054 35.4529 15.3745C37.2265 14.9653 38.5272 14.3628 40.0484 13.3639C40.4279 13.602 40.7945 13.8701 41.1514 14.1407C41.9387 14.7549 42.7537 15.4636 43.3755 16.248C42.785 16.964 42.0052 17.6445 41.228 18.1431C40.0705 18.8857 38.514 19.5084 37.1189 19.4885C34.6228 19.4528 31.6539 17.3143 30.1376 15.4076C29.7983 14.9793 29.4782 14.5371 29.1772 14.0811C28.6488 13.2781 28.1509 12.3942 27.4305 11.7452C26.8356 11.2093 26.1272 10.9647 25.3591 10.7969C25.679 10.7165 26.0007 10.6442 26.3242 10.5802C26.6477 10.5162 26.9727 10.4606 27.2991 10.4132C27.6255 10.3658 27.9529 10.3269 28.2812 10.2963C28.6096 10.2656 28.9386 10.2435 29.2681 10.2297Z" fill="#1C1C1C"/>
<path d="M54.9059 20.0908C56.0345 19.941 57.5585 20.2244 58.6219 20.6414C60.7228 21.4655 61.9697 22.7412 62.8594 24.8015C64.7393 29.1553 63.8255 35.1536 62.1244 39.4197C60.7021 42.9868 58.2801 46.0773 55.324 48.505C54.1058 49.5056 52.7644 50.4147 51.3091 51.036C49.4767 51.8184 48.0072 51.8302 46.1578 51.1305C45.4949 50.8797 44.8494 50.6174 44.133 50.5731C43.5411 50.5366 42.9719 50.6352 42.3937 50.7464C40.9891 51.0164 40.0115 50.9682 38.6779 50.433C38.8242 50.0563 39.0255 49.6908 39.1876 49.3189C39.5181 48.5562 39.8125 47.7798 40.0709 46.9898C41.5768 42.3115 41.6081 37.0978 40.3578 32.3637C39.8278 30.3881 38.9451 28.4197 37.6616 26.8158C37.3162 26.3841 36.9338 25.9912 36.5473 25.5966C37.4539 24.5742 38.6632 23.7463 39.9601 23.3137C41.2065 22.8979 42.5513 22.9411 43.7915 23.3545C44.4527 23.575 45.0883 23.8163 45.7943 23.8474C46.4726 23.8772 47.0918 23.7032 47.7445 23.5485C49.0114 23.2482 50.2975 23.2736 51.4766 23.8749C53.4222 24.8671 54.8305 27.6644 55.481 29.6847C55.2981 27.8513 54.4548 25.9517 53.1904 24.6249C52.2347 23.6219 50.962 22.9405 49.5594 22.9059C50.7916 22.3479 52.0032 22.0719 53.3624 22.1358C55.8595 22.2532 57.9742 23.6073 59.6134 25.4061C59.5351 25.2717 59.4545 25.1387 59.3716 25.0071C59.339 24.9571 59.3059 24.9075 59.2721 24.8583C59.2383 24.8091 59.204 24.7604 59.1691 24.712C59.1341 24.6636 59.0985 24.6157 59.0624 24.5682C59.0263 24.5208 58.9895 24.4737 58.9522 24.4271C58.915 24.3806 58.8772 24.3345 58.8387 24.2888C58.8003 24.2432 58.7614 24.198 58.7218 24.1533C58.6823 24.1086 58.6422 24.0644 58.6016 24.0207C58.561 23.977 58.5198 23.9338 58.4782 23.8911C58.4365 23.8484 58.3943 23.8062 58.3516 23.7645C58.3089 23.7229 58.2657 23.6817 58.222 23.6411C58.1782 23.6005 58.134 23.5605 58.0893 23.5209C58.0447 23.4814 57.9995 23.4424 57.9539 23.404C57.9082 23.3656 57.8621 23.3278 57.8155 23.2905C57.7689 23.2532 57.7219 23.2165 57.6744 23.1804C57.6269 23.1442 57.579 23.1087 57.5307 23.0737C57.4823 23.0388 57.4335 23.0044 57.3844 22.9706C57.3352 22.9369 57.2855 22.9038 57.2355 22.8712C57.1855 22.8387 57.1351 22.8068 57.0843 22.7755C57.0335 22.7441 56.9824 22.7135 56.9308 22.6834C56.8793 22.6534 56.8274 22.6239 56.7751 22.5952C56.7228 22.5664 56.6702 22.5383 56.6172 22.5108C56.5643 22.4833 56.511 22.4565 56.4574 22.4303C56.4038 22.4041 56.3498 22.3786 56.2956 22.3538C56.2414 22.3289 56.1869 22.3047 56.132 22.2812C56.0772 22.2577 56.0221 22.2348 55.9666 22.2127C55.9113 22.1905 55.8556 22.169 55.7997 22.1482C55.7438 22.1274 55.6876 22.1073 55.6312 22.0879C55.5747 22.0685 55.5181 22.0497 55.4613 22.0317C55.4044 22.0136 55.3473 21.9963 55.29 21.9797C55.2327 21.963 55.1752 21.9471 55.1175 21.9319C55.0598 21.9167 55.002 21.9021 54.9439 21.8883C54.8859 21.8745 54.8277 21.8615 54.7693 21.8491C52.8195 21.4241 50.7786 21.6946 49.0925 22.7793C50.704 20.9835 52.5497 20.2761 54.9059 20.0908Z" fill="#1C1C1C"/>
<path d="M30.7939 24.2797C32.1064 24.1516 33.5189 24.5989 34.6293 25.277C37.3464 26.9363 38.9166 30.1902 39.6313 33.1908C41.06 39.189 40.3757 46.0633 37.1078 51.3654C35.5313 53.9233 32.2962 57.896 29.1349 58.3005C27.8454 58.4654 26.6441 58.0282 25.3462 58.2628C25.0371 58.3215 24.7326 58.3987 24.4327 58.4943C24.1328 58.5899 23.8399 58.7032 23.5537 58.8342C22.9432 59.1122 22.3677 59.4388 21.7086 59.5914C18.82 60.2602 14.9207 58.5068 12.5125 56.9926C8.28878 54.3371 5.37344 50.4831 3.60772 45.8516C3.18337 44.7385 2.80863 43.5947 2.54552 42.4321C1.73758 38.8618 1.87318 34.936 3.87814 31.7687C5.078 29.8732 6.7196 28.4501 8.74569 27.4958C9.33621 27.2178 9.9788 26.9584 10.6159 26.8146C11.1788 27.0059 11.6902 27.2167 12.285 27.3101C13.9973 27.5792 15.6313 27.3773 17.0774 26.3663C17.5517 26.0347 17.9754 25.6349 18.4445 25.2951C18.5794 26.1459 18.7578 26.9642 19.0068 27.7888C18.799 27.8456 18.5948 27.9112 18.4053 28.0156C17.9484 28.2673 17.6743 28.6429 17.5279 29.137C17.569 29.07 17.6128 29.0049 17.6596 28.9418C17.7063 28.8786 17.7557 28.8176 17.8077 28.7587C17.8598 28.6999 17.9143 28.6433 17.9712 28.5892C18.0282 28.5351 18.0874 28.4835 18.1488 28.4345C18.3333 28.2894 18.6413 28.0823 18.883 28.1219C18.9701 28.1361 19.0401 28.1832 19.0878 28.2571C19.2194 28.4611 19.2554 28.7471 19.3564 28.9701C19.5629 29.4261 19.868 29.8426 20.1727 30.2368C19.8443 30.3048 19.5112 30.3457 19.1792 30.3912C17.8635 29.2235 16.2902 28.3114 14.592 27.8354C14.2511 27.7398 13.8838 27.6339 13.5302 27.6179C15.3614 28.2515 17.096 29.1273 18.5361 30.4381C18.1615 30.4544 17.7868 30.4655 17.4119 30.4716C16.1295 29.3503 14.0163 28.482 12.3364 28.4419C9.94381 28.3847 7.6844 29.5056 5.99084 31.1429C4.73784 32.3543 3.31563 34.5106 3.2846 36.2943C3.54753 35.377 3.90765 34.5487 4.41054 33.7379C5.75071 31.5771 7.94847 29.7429 10.459 29.1652C12.6766 28.6549 14.7044 29.1965 16.5963 30.3861C14.7619 29.9566 13.1329 29.792 11.311 30.4173C9.13711 31.1633 7.45624 32.8708 6.46856 34.9133C4.48159 39.0227 5.38145 43.9759 6.81957 48.1057C7.81395 50.7544 9.31532 53.6161 11.6481 55.3229C12.2164 55.7387 12.8127 56.037 13.4479 56.3318C12.8882 55.8932 12.3164 55.4732 11.785 54.9996C10.2833 53.6612 9.11178 51.9925 8.19925 50.2081C6.23924 46.375 4.97756 40.5331 6.34478 36.3304C7.03562 34.2067 8.47137 32.2799 10.4925 31.2621C12.1286 30.4382 14.5113 30.2429 16.2647 30.8156C15.9198 30.942 15.5828 31.0869 15.2538 31.2502C14.9248 31.4135 14.6056 31.5943 14.2964 31.7926C11.8989 33.3144 10.721 35.3929 10.1169 38.1009C8.99125 43.1464 10.3372 49.0311 13.0944 53.3469C14.1811 55.0477 16.0337 57.3989 17.8662 58.3243C18.3434 58.5654 18.828 58.6824 19.346 58.7959C16.9687 57.527 14.9835 55.381 13.5257 53.1464C10.8174 48.9947 9.49334 43.1878 10.5258 38.3022C11.0699 35.7281 12.1478 33.7127 14.4135 32.2458C15.6826 31.4241 16.727 31.0929 18.2305 31.1636C18.9122 31.1956 19.5704 31.2065 20.2404 31.0505C21.0876 30.8531 21.8639 30.4943 22.6422 30.1163C23.0997 29.8941 23.5884 29.6089 24.0882 29.5C24.7301 29.3603 25.517 29.44 26.1524 29.5793C27.9218 29.9671 29.3842 31.193 30.3425 32.6942C30.0502 31.6627 29.3862 30.8645 28.5421 30.2202C27.3498 29.3102 25.8267 28.8124 24.3241 29.0115C25.4696 28.1322 26.6052 27.4649 28.0593 27.2498C30.2932 26.9194 32.4626 27.6041 34.2503 28.9415C37.561 31.4184 38.9007 35.7518 39.4658 39.664C39.8524 36.7915 38.5794 33.4438 36.9867 31.1053C35.5386 28.9788 33.3513 27.3036 30.7867 26.8274C28.6559 26.4317 26.5367 26.8535 24.749 28.0813C24.9437 27.8278 25.1426 27.5778 25.3458 27.3311C26.7505 25.65 28.5778 24.4754 30.7939 24.2797Z" fill="#1C1C1C"/>
</g>
<defs>
<clipPath id="clip0_107_4632">
<rect width="66" height="66" rx="10" fill="white"/>
</clipPath>
</defs>
</svg>
