<svg width="66" height="66" viewBox="0 0 66 66" fill="none" xmlns="http://www.w3.org/2000/svg">
<g clip-path="url(#clip0_107_4614)">
<path d="M0 0H66V66H0V0Z" fill="#1C1C1C"/>
<path d="M30.8612 2.36683C32.3248 2.29481 33.8011 2.35154 35.2652 2.38848C39.2576 2.4892 43.2769 2.77627 47.2129 3.47224C48.5748 3.71304 49.926 3.98215 51.2529 4.37905C52.4758 4.74488 54.5527 5.39126 55.1699 6.60699C55.2883 6.84044 55.2959 7.07743 55.2661 7.33228C55.1802 8.06846 55.0455 8.80052 54.948 9.53561C54.4895 12.9267 54.0124 16.3151 53.5165 19.7008L50.4083 42.3287C49.8441 46.3343 49.3176 50.3479 48.7124 54.3474L48.2895 57.2008C48.1995 57.8029 48.1345 58.4194 47.9667 59.0051C47.8898 59.2733 47.6112 59.5512 47.4248 59.7586C44.9343 62.5297 38.7364 63.4486 35.2209 63.6209C35.171 63.6261 35.121 63.6303 35.0709 63.6336C30.6257 63.8983 22.3385 63.2199 18.8519 60.1017C18.4652 59.7559 18.1025 59.3122 17.9676 58.8018C17.7397 57.9398 17.6165 56.7936 17.4729 55.8967L16.5095 49.4959C15.6105 43.4471 14.7646 37.3909 13.9716 31.3273L11.8481 15.4015L11.1178 9.9104L10.8847 8.16327C10.8404 7.83501 10.7752 7.49509 10.7597 7.16457C10.7381 6.70392 10.9774 6.31199 11.2799 5.98591C13.2609 3.85035 21.3687 2.99247 24.3636 2.73196C26.5266 2.55882 28.6925 2.43711 30.8612 2.36683Z" fill="white"/>
<path d="M30.9828 3.33543C34.2414 3.20569 37.548 3.36526 40.796 3.63239C44.117 3.90553 47.4838 4.27152 50.7017 5.16315C51.7168 5.44439 52.8964 5.77861 53.7395 6.43125C53.949 6.59347 54.2179 6.85618 54.2429 7.13591C54.2605 7.33339 54.1284 7.51644 54.0003 7.65269C51.4375 10.3776 38.85 10.8336 34.9567 10.9C30.1285 11.0358 15.6737 10.7169 12.0767 7.77715C11.9097 7.64057 11.7148 7.44792 11.7041 7.2175C11.6941 7.00146 11.8536 6.76762 11.9942 6.6177C12.4831 6.09662 13.2905 5.80584 13.9489 5.56482C15.4934 4.99941 17.0854 4.68909 18.7021 4.40861C22.7581 3.70493 26.8726 3.44655 30.9828 3.33543Z" fill="#1C1C1C"/>
<path d="M54.1666 8.73456C54.2206 8.85341 52.924 17.7737 52.7799 18.7958L49.2144 44.4387L48.1318 52.0032C48.0353 52.6661 47.9446 53.3298 47.8598 53.9943C47.8089 54.3848 47.7751 54.7908 47.6886 55.1748C47.5057 55.9859 46.4063 56.7017 45.7377 57.1201C46.4299 56.9484 46.972 56.6575 47.5096 56.1926C47.4321 56.7553 47.2648 58.6427 46.984 59.0101C45.3879 61.0994 40.9187 62.1088 38.4377 62.4375C33.2315 63.1273 23.9634 62.9371 19.6495 59.606C19.4469 59.4495 19.1462 59.2255 19.0237 58.9958C18.8724 58.7123 18.5043 56.6892 18.449 56.2552C19.0566 56.5391 19.6419 56.8016 20.2941 56.9723L19.7833 56.6778C19.3323 56.3773 18.8904 56.0747 18.3972 55.8461C18.2784 55.2238 18.1931 54.5912 18.0919 53.9656C17.8499 52.5357 17.6278 51.1028 17.4255 49.6667C16.8675 45.9679 16.3372 42.2652 15.8345 38.5584L11.8589 8.77536C12.2667 9.02724 12.6698 9.26082 13.111 9.45076C14.3622 9.98933 15.7052 10.3099 17.035 10.5842C20.0689 11.2101 23.1608 11.5036 26.2488 11.6931C27.6565 11.7752 29.0653 11.831 30.4751 11.8606C31.8849 11.8902 33.2947 11.8934 34.7047 11.8705C36.1146 11.8475 37.5236 11.7983 38.9316 11.7228C40.3397 11.6473 41.7459 11.5456 43.1502 11.4177C45.7719 11.1657 48.4356 10.8435 50.9781 10.1359C52.0403 9.84025 53.3304 9.47377 54.1666 8.73456Z" fill="#1C1C1C"/>
<path d="M21.491 57.8542C22.0328 57.9112 22.5883 58.1227 23.1218 58.2444C24.2557 58.5032 25.4136 58.7194 26.5688 58.8547C29.4804 59.1955 32.329 59.1027 35.2458 58.9679C36.756 58.8982 38.265 58.8489 39.766 58.6565C41.3565 58.4527 42.9212 58.1204 44.4932 57.8133C44.2342 58.079 43.9575 58.2555 43.6389 58.4447C39.8631 60.5654 33.61 60.7991 29.4062 60.2582C27.2038 59.9748 24.9591 59.549 22.8975 58.7039C22.4406 58.5166 21.8022 58.258 21.491 57.8542Z" fill="white"/>
<path d="M53.4288 9.92163C53.4497 10.5627 53.2994 11.3208 53.2257 11.966C53.025 13.7177 52.7993 15.4661 52.5488 17.2114C52.4862 17.6796 52.2784 18.5683 52.3583 18.9934C52.3616 19.0107 52.3656 19.0278 52.3686 19.0452C52.4214 19.3594 52.1979 20.4411 52.1458 20.7991L51.3448 26.1064C50.4462 32.2498 49.4806 38.3827 48.4482 44.5051C47.9561 47.4509 47.4969 50.4081 46.8963 53.3343C46.7949 53.8284 46.702 54.526 46.4009 54.9387C45.3815 56.3352 42.9616 56.9795 41.3544 57.3891C40.6666 57.5644 39.9799 57.7359 39.2792 57.8526C38.0985 58.0492 36.9047 58.1519 35.7111 58.2325C31.8253 58.4947 27.8637 58.343 24.0746 57.3787C22.7822 57.0499 21.4385 56.6449 20.3443 55.8545C19.8517 55.4986 19.4753 55.0228 19.2577 54.4542C18.8908 53.4959 18.6936 51.6465 18.5121 50.5886C18.0163 47.7143 17.5359 44.8375 17.0708 41.9581C16.7771 39.8366 16.3771 37.7328 16.0581 35.6163L13.4276 17.5257C13.1823 15.7896 12.9491 14.0518 12.728 12.3123L12.5447 10.9876C12.512 10.7635 12.4405 10.5106 12.4493 10.286C12.633 10.6671 12.699 11.3296 12.792 11.7642C13.2554 13.9982 13.6852 16.2386 14.0815 18.4855C18.2918 15.144 30.4385 14.8964 35.7781 15.068C39.8759 15.1996 47.5417 15.8121 50.919 17.9432C51.2927 18.179 51.6155 18.4597 51.9172 18.7815C52.0853 17.8768 52.1883 16.9513 52.3268 16.0409C52.5128 14.8185 52.7336 13.5987 52.9466 12.3806C53.0878 11.5732 53.1899 10.706 53.4288 9.92163Z" fill="white"/>
<path d="M31.5592 15.3549C31.806 15.3491 32.0529 15.3451 32.2997 15.3428C37.0822 15.2902 48.3513 15.7432 51.7842 19.0991C50.9281 19.9628 49.5741 20.4378 48.4322 20.8024C43.9528 22.2329 39.1773 22.56 34.5066 22.7111C29.0583 22.808 18.6096 22.3054 14.2036 19.2028C14.2768 19.116 14.3508 19.0291 14.4306 18.9482C17.418 15.9227 27.3484 15.4071 31.5592 15.3549Z" fill="#1C1C1C"/>
<path d="M51.049 20.4396L51.043 20.4734L51.0667 20.4454C51.0865 20.8023 50.756 22.5041 50.6785 22.9696C50.464 24.3153 50.2564 25.6622 50.0556 27.0101C49.2538 32.0655 48.414 37.1146 47.5361 42.1574C47.1458 44.2339 46.7683 46.3127 46.4039 48.3939C46.0447 50.3862 45.6894 52.3778 45.4437 54.3879C43.955 55.5667 42.0682 55.9776 40.2532 56.3835C40.4309 55.7368 40.6583 55.1006 40.8497 54.457C41.1725 53.333 41.477 52.204 41.7631 51.07C42.2166 49.2348 42.6399 47.3926 43.033 45.5435C43.426 43.6943 43.7886 41.8392 44.1207 39.9782C44.4528 38.1171 44.7542 36.2511 45.025 34.3801C45.2958 32.5092 45.5358 30.6343 45.745 28.7554L46.1762 24.8236C46.2504 24.1325 46.3779 23.4103 46.3709 22.7169C46.1995 23.4415 46.1186 24.2038 46.0076 24.9405C45.8037 26.2607 45.6097 27.5822 45.4254 28.9052C44.9208 32.454 44.3682 35.9953 43.7676 39.5291C43.0812 43.4599 42.2921 47.37 41.4003 51.2593C41.1627 52.3229 40.9166 53.3844 40.6617 54.444C40.505 55.0879 40.3159 55.7338 40.2005 56.3864C38.7716 56.6885 37.2926 56.8002 35.8382 56.9157C34.9011 56.9902 33.9511 57.0838 33.011 57.0702C30.1446 57.0283 25.1952 56.5051 22.6093 55.4654C21.762 55.1247 21.0215 54.7033 20.3813 54.044C20.21 53.2963 20.1235 52.5158 19.9873 51.7594C19.6071 49.6517 19.2496 47.5401 18.9148 45.4247C18.2372 41.4531 17.5986 37.4751 16.9988 33.4909C16.9052 33.1636 16.8838 32.7736 16.8332 32.4343L16.4897 30.1639C15.9821 26.947 15.5477 23.7166 15.0645 20.4954C16.0601 20.9172 17.0616 21.2887 18.103 21.5836C21.5537 22.5604 25.1737 22.9699 28.7448 23.1748C34.8293 23.5239 41.4496 23.2832 47.3805 21.8254L45.7767 33.3075C45.2643 36.7064 44.7077 40.098 44.107 43.4825C43.7497 45.6124 43.3505 47.7344 42.9093 49.8485L42.5034 51.8072C42.4365 52.117 42.2934 52.4945 42.3005 52.8096C42.3841 52.7039 42.881 50.6436 42.9531 50.3554C43.9386 46.3541 44.7615 42.3197 45.4217 38.252C45.9064 35.5234 46.3285 32.7851 46.6879 30.0372C47.0474 27.2893 47.3438 24.5346 47.5771 21.7732C47.962 21.6421 48.3575 21.5334 48.747 21.4166C48.714 21.8583 48.6139 22.3104 48.544 22.7482L48.1315 25.3599L46.2177 37.9566C46.1576 38.3381 45.7052 40.9265 45.7412 40.9917C45.8237 40.5146 45.9635 40.0341 46.0664 39.559C46.3466 38.2958 46.6138 37.0299 46.8679 35.7612C47.3809 33.1768 47.8033 30.5778 48.135 27.964C48.4268 25.7884 48.6983 23.596 48.7827 21.4013C49.1761 21.2809 49.5622 21.1403 49.9409 20.9796C50.3197 20.8189 50.689 20.6389 51.049 20.4396Z" fill="#1C1C1C"/>
</g>
<defs>
<clipPath id="clip0_107_4614">
<rect width="66" height="66" rx="10" fill="white"/>
</clipPath>
</defs>
</svg>
