<svg width="68" height="68" viewBox="0 0 68 68" fill="none" xmlns="http://www.w3.org/2000/svg">
<rect width="68" height="68" rx="12" fill="#1C1C1C"/>
<path d="M33.338 4.72733C33.3649 4.72664 33.3918 4.72628 33.4188 4.72626C33.5442 4.72656 33.6065 4.73608 33.6975 4.82776C33.8691 5.22744 33.7778 6.06346 33.7726 6.5041C34.0178 6.57731 34.2208 6.68867 34.411 6.86074C35.0067 7.3995 35.4371 8.39496 35.6347 9.15843C35.7014 9.41579 35.6994 9.69538 35.7864 9.94642C35.8587 10.155 36.0538 10.3393 36.157 10.5425C36.5177 11.2524 36.6627 11.9444 36.7085 12.7324C37.1686 13.2936 37.3951 13.8788 37.6175 14.5596C37.6328 14.511 37.6494 14.4629 37.6674 14.4152C38.3338 12.6403 40.1199 11.9007 41.8209 11.423C42.5336 11.2229 43.2666 11.066 43.9413 10.7522C44.7156 10.3921 45.2647 9.83916 45.2864 8.9475C45.2916 8.72898 45.2583 8.44786 45.3438 8.24281C45.3803 8.15534 45.4432 8.08363 45.5376 8.05774C45.6353 8.03093 45.7185 8.06528 45.7977 8.1197C46.222 8.41151 46.7839 9.27165 46.9619 9.75577C47.0729 10.0579 47.1249 10.398 47.1923 10.7129C47.2748 10.4564 47.2673 9.78425 47.4046 9.63615C47.4735 9.56183 47.5834 9.52433 47.6834 9.53778C47.7581 9.54789 47.8234 9.58478 47.865 9.64802C48.01 9.86844 47.849 10.4899 47.8021 10.7236C48.0198 10.8239 48.238 10.9304 48.4372 11.0646C49.1612 11.5527 49.6118 12.327 49.7756 13.1759C50.0798 14.7528 49.7406 16.7432 49.0102 18.1554C48.7633 18.6328 48.4387 19.0657 48.1377 19.5097C48.7093 19.6825 49.2774 19.8686 49.8508 20.0353C50.2866 20.162 50.7505 20.2458 51.1627 20.4399C51.5411 20.6181 51.7611 20.9469 52.0995 21.1689C52.5639 21.4737 53.0934 21.6935 53.5699 21.9833C54.4803 22.5371 55.3302 23.2913 55.6138 24.3569C55.6463 24.4792 55.679 24.6077 55.6925 24.7338C55.7064 24.8636 55.6725 25.016 55.7159 25.1384C55.8263 25.4492 56.002 25.7548 56.1325 26.0593C56.3469 26.5737 56.5225 27.1011 56.6592 27.6414C56.7713 28.0839 56.8618 28.5398 56.9106 28.9936C56.9608 29.461 56.9771 29.9439 57.0557 30.4069C57.1192 30.7819 57.2652 31.1518 57.3552 31.5226C57.645 32.7167 57.6868 34.3382 57.0188 35.4224C56.7001 35.9396 56.2764 36.1923 55.6971 36.3345L55.6913 43.7099C56.1486 43.929 56.617 44.1246 57.0725 44.3477C58.3091 44.9529 59.5537 45.6946 60.5738 46.6268C61.7552 47.7063 62.6919 49.0787 62.7584 50.7268C62.8371 52.6767 62.4867 53.8926 61.133 55.3566C58.1829 58.5472 52.3074 60.2912 48.1419 61.1276C47.2976 61.2896 46.4506 61.4358 45.6009 61.5662C44.7512 61.6966 43.8994 61.8111 43.0455 61.9097C42.1915 62.0083 41.336 62.0909 40.4789 62.1576C39.6218 62.2243 38.7639 62.2749 37.9049 62.3096C36.4837 62.4059 35.0472 62.4049 33.623 62.3997C32.98 62.4036 32.3371 62.3985 31.6943 62.3845C31.0515 62.3705 30.409 62.3476 29.7669 62.3157C29.1247 62.2838 28.4831 62.2429 27.842 62.1931C27.201 62.1433 26.5608 62.0846 25.9214 62.017C25.282 61.9494 24.6436 61.8728 24.0063 61.7874C23.3691 61.702 22.7331 61.6077 22.0985 61.5046C21.4638 61.4015 20.8307 61.2895 20.1993 61.1687C19.5677 61.0479 18.938 60.9184 18.3101 60.78C16.474 60.3571 14.6241 59.8422 12.8765 59.1306C10.1657 58.0268 6.82619 56.2282 5.6386 53.3749C5.28203 52.5182 5.30894 51.8717 5.3567 50.9677C5.39522 50.2388 5.43522 49.6023 5.71798 48.918C6.81722 46.2579 9.84492 44.6725 12.3544 43.6206C12.2877 40.4856 12.3264 37.3413 12.3278 34.2056C12.2529 34.2394 12.1772 34.2732 12.0985 34.2974C11.7147 34.4159 11.26 34.3693 10.909 34.1754C10.441 33.9169 10.1391 33.4028 9.99929 32.9004C9.79172 32.1544 9.8353 31.274 10.0283 30.5299C10.2275 29.7617 10.6022 29.0825 11.0122 28.4105C11.2312 28.0515 11.4633 27.6955 11.6233 27.305C11.9221 26.5755 12.1667 25.7686 12.3742 25.0074C12.5159 24.4878 12.5638 24.0196 12.8378 23.5408C13.6941 22.044 15.4919 21.3212 16.9973 20.6738C17.2357 20.5713 17.4331 20.3889 17.6779 20.3032C17.9503 20.2078 18.2691 20.1826 18.5524 20.1228C19.0264 20.0229 19.4968 19.8994 19.9645 19.7735C20.0812 19.0977 20.2087 18.4172 20.488 17.7865C20.9951 16.6413 21.7001 16.0507 22.8467 15.6041C22.8499 15.3558 22.7024 14.9173 22.8327 14.7057C22.8743 14.6382 22.9526 14.6001 23.028 14.5842C23.102 14.5687 23.1841 14.5744 23.2445 14.6247C23.4178 14.7694 23.3785 15.1583 23.418 15.3647C23.4676 15.6239 23.7981 15.8515 24.0013 15.9952C24.0278 15.7289 24.0676 15.4595 24.1345 15.2002C24.3156 14.4971 25.0269 13.214 25.6725 12.857C25.7585 12.8095 25.8618 12.7782 25.958 12.816C26.0501 12.8522 26.1454 12.9604 26.1727 13.0549C26.219 13.2153 26.0806 13.3768 26.0256 13.5202C25.9374 13.7506 26.0583 14.0789 26.161 14.2911C26.7609 15.53 28.0032 16.0046 29.2264 16.4187C29.2732 16.0918 29.2854 15.7623 29.3403 15.4352C29.4449 14.8122 29.7562 13.5972 30.2495 13.1782C30.2677 12.1158 30.5564 11.1727 31.0265 10.2292C31.1426 9.99621 31.3389 9.78468 31.4284 9.54192C31.4911 9.37154 31.4829 9.14862 31.5079 8.96759C31.5332 8.7852 31.5926 8.60947 31.6548 8.43681C31.9365 7.65572 32.4044 6.88138 33.1788 6.51958C33.1849 6.0357 33.144 5.51865 33.1903 5.03932C33.2043 4.8946 33.226 4.82157 33.338 4.72733Z" fill="#1C1C1C"/>
<path d="M38.0688 17.5859C38.0726 17.5896 38.0768 17.5929 38.0802 17.5971C38.1595 17.6958 38.3209 17.8973 38.3035 18.0253L38.2342 18.0492C38.1448 18.0629 38.053 18.0925 37.9707 18.0444C37.9319 17.9146 38.0267 17.7179 38.0688 17.5859Z" fill="white"/>
<path d="M29.6966 24.0415C29.8207 24.1872 29.9226 24.4181 29.9887 24.5975C29.6829 24.9155 29.3884 25.1722 28.9953 25.3757C28.9157 25.4026 28.83 25.4509 28.7477 25.4323C29.2327 25.0484 29.4735 24.6095 29.6966 24.0415Z" fill="white"/>
<path d="M38.7848 18.5419C38.9017 18.5486 39.0403 18.7236 39.1215 18.8046C38.9526 18.9584 38.6637 19.3146 38.4507 19.3714L38.3771 19.3114L37.8536 18.7618C38.1662 18.6978 38.4766 18.6245 38.7848 18.5419Z" fill="white"/>
<path d="M37.4313 16.1886C37.4586 16.2184 37.4636 16.2202 37.4836 16.2626C37.524 16.3482 37.5296 16.4851 37.5389 16.581C37.5999 17.2078 37.4075 17.7682 37.1259 18.3178C36.7182 18.1387 36.3319 17.9938 35.8941 17.8991C35.7133 17.8739 35.533 17.84 35.353 17.8096C36.1165 17.325 36.786 16.8216 37.4313 16.1886Z" fill="white"/>
<path d="M33.5434 7.06464C33.6045 7.07553 33.6664 7.08657 33.7259 7.10434C33.9186 7.16187 34.1463 7.36466 34.2289 7.54628C34.234 7.55772 34.2386 7.56938 34.2425 7.58126C34.2466 7.59314 34.25 7.60518 34.2528 7.61739C34.2556 7.6296 34.2578 7.64192 34.2595 7.65434C34.2611 7.66676 34.2621 7.67924 34.2626 7.69176C34.263 7.70429 34.2628 7.7168 34.262 7.7293C34.2612 7.74181 34.2598 7.75425 34.2578 7.76662C34.2558 7.77899 34.2532 7.79124 34.25 7.80335C34.2469 7.81547 34.2431 7.82741 34.2388 7.83917C34.0658 8.3031 33.0606 8.8215 32.6381 9.02955C32.4492 9.11691 32.2709 9.18429 32.0673 9.22727C32.129 8.81626 32.288 8.41559 32.4844 8.05101C32.7299 7.59518 33.0283 7.21619 33.5434 7.06464Z" fill="white"/>
<path d="M44.3049 26.7302C44.7029 26.8457 45.1116 26.969 45.4066 27.2768C45.5125 27.3873 45.6226 27.5346 45.6113 27.6964C45.6008 27.8468 45.4873 27.969 45.3762 28.0595C44.8703 28.4718 44.1719 28.5191 43.5499 28.4576C43.464 28.4442 43.3785 28.4285 43.2935 28.4105C42.8181 28.3125 42.4123 28.1495 42.1361 27.7276C42.9092 27.4539 43.5928 27.1375 44.3049 26.7302Z" fill="white"/>
<path d="M18.6138 20.7433C19.0847 20.7496 19.5727 20.7846 19.9845 21.0366C20.0379 21.4782 20.1053 21.9181 20.1604 22.3596C19.7474 22.5531 19.3449 22.6239 18.8905 22.6043C18.44 22.5773 17.9389 22.4722 17.5796 22.1817C17.4178 22.0508 17.2894 21.879 17.2741 21.6656C17.2617 21.4937 17.3269 21.3293 17.4386 21.2004C17.725 20.87 18.1982 20.7682 18.6138 20.7433Z" fill="white"/>
<path d="M23.9067 26.7305C24.4375 26.6698 25.2087 26.7086 25.6772 26.9824C25.8782 27.0998 26.0778 27.2806 26.1294 27.5175C26.1557 27.6381 26.1272 27.7609 26.0586 27.8624C25.8275 28.2047 25.3397 28.3495 24.9548 28.4202C24.3901 28.4961 23.7768 28.4736 23.2549 28.223C23.0272 28.1137 22.7625 27.9398 22.6847 27.685C22.6504 27.5728 22.6655 27.4554 22.7248 27.3543C22.937 26.9932 23.5244 26.8202 23.9067 26.7305Z" fill="white"/>
<path d="M34.5663 27.7626C34.5704 27.7623 34.5744 27.7615 34.5785 27.7616C34.8817 27.7645 35.437 28.0949 35.6317 28.3162C35.7268 28.4243 35.794 28.5567 35.7743 28.7042C35.7461 28.9148 35.5745 29.0962 35.4097 29.2156C34.8663 29.6096 34.1365 29.6222 33.4999 29.5339C33.2795 29.4818 33.06 29.4188 32.8564 29.3182C32.6321 29.2074 32.3623 29.0162 32.2862 28.7648C32.2501 28.6454 32.2668 28.5272 32.3254 28.4181C32.393 28.2923 32.5031 28.1936 32.6201 28.1144C33.092 27.7949 33.5241 27.9372 34.0435 27.8868C34.2223 27.8695 34.3949 27.8139 34.5663 27.7626Z" fill="white"/>
<path d="M49.5102 20.8298C50.0649 20.7684 50.6606 20.8409 51.1423 21.1399C51.3377 21.2612 51.542 21.4435 51.5896 21.6795C51.6208 21.8347 51.5785 21.9854 51.4848 22.1111C51.2461 22.4309 50.7175 22.5448 50.3454 22.6099C49.7451 22.6738 49.0458 22.6238 48.5246 22.2861C48.353 22.1749 48.19 22.0114 48.154 21.8019C48.1292 21.6579 48.1676 21.5213 48.2554 21.4056C48.5233 21.052 49.0933 20.8997 49.5102 20.8298Z" fill="white"/>
<path d="M34.6201 8.33258C34.8523 8.59221 34.985 9.06471 35.0684 9.39689C35.1663 9.78666 35.1491 10.0585 34.9359 10.4091C34.226 11.576 32.6734 12.4652 31.3751 12.7747C31.2021 12.8142 31.0266 12.8386 30.8512 12.8652C31.032 11.745 31.2825 10.8083 31.9743 9.88046C32.9694 9.69797 33.9881 9.12729 34.6201 8.33258Z" fill="white"/>
<path d="M23.1369 16.7078C23.3558 17.111 23.5055 17.5003 23.8177 17.85C24.3759 18.4751 25.1315 18.7416 25.8863 19.0452C27.0545 19.5151 28.1796 20.089 28.9446 21.1212C28.9436 21.473 28.9465 21.8241 29.0124 22.1711C29.0627 22.4356 29.1463 22.6933 29.1964 22.9578C29.3101 23.5595 29.0867 24.1851 28.7539 24.6796C28.6124 24.8387 28.4611 24.9769 28.3 25.1158C28.3831 24.8323 28.4541 24.5509 28.4562 24.2536C28.4668 22.7007 27.0773 21.4375 25.9248 20.5893C25.2791 20.1141 24.5749 19.6863 24.0171 19.1055C23.3338 18.394 23.1168 17.6798 23.1369 16.7078Z" fill="white"/>
<path d="M36.4485 13.3836C36.4588 13.3935 36.4699 13.4027 36.4794 13.4133C36.9235 13.9109 37.1133 14.9326 37.1039 15.5875C36.6118 16.2704 35.3347 17.1393 34.5747 17.4793C34.5716 17.1519 34.6244 16.4368 34.4217 16.1778C34.3729 16.1154 34.3133 16.0778 34.2325 16.0728C34.1524 16.0679 34.0712 16.0982 34.0162 16.1568C33.8963 16.2845 33.9719 17.4048 33.9679 17.6553C33.6424 17.6584 33.3178 17.676 32.994 17.7082C32.6701 17.7403 32.3483 17.7869 32.0286 17.8479L31.5815 17.9515C31.0454 17.5215 30.5464 17.0487 29.9132 16.762C30.3032 16.8022 30.6665 16.7907 31.0533 16.7231C33.0272 16.3779 35.2848 15.0346 36.4485 13.3836Z" fill="white"/>
<path d="M46.9674 11.1936C47.0802 11.2495 47.1986 11.5205 47.2595 11.6355C46.9463 13.0176 45.2615 13.6332 44.1363 14.2059C43.594 14.4819 43.0631 14.7804 42.5718 15.1411C41.5683 15.8776 40.8084 16.9339 40.6209 18.1833C40.4333 18.2175 40.2467 18.2604 40.06 18.2997C39.8139 17.8442 39.7157 17.2714 39.7247 16.7576C39.7795 13.6186 43.1285 13.5534 45.2767 12.4869C45.9252 12.1649 46.4507 11.6908 46.9674 11.1936Z" fill="white"/>
<path d="M45.8662 9.05237C46.1891 9.28709 46.4647 10.1071 46.5792 10.4764C46.3485 10.4241 45.9623 10.2863 45.7383 10.3714C45.6673 10.3983 45.6263 10.4481 45.602 10.5186C45.5765 10.5929 45.5847 10.6934 45.6235 10.7604C45.7439 10.9683 46.1437 10.9968 46.3589 11.0367C44.5319 13.0134 41.0698 12.5074 39.6572 14.9539C39.136 15.8566 39.0809 16.8838 39.3425 17.8767L39.4944 18.3501C39.2247 18.1027 38.9699 17.836 38.7524 17.5412C38.2184 16.8176 37.9831 15.9422 38.1203 15.0501C38.3869 13.3165 40.1012 12.5471 41.61 12.0937C42.7016 11.7658 43.9258 11.5797 44.858 10.8808C45.5205 10.3843 45.7484 9.85187 45.8662 9.05237Z" fill="white"/>
<path d="M25.4257 13.9325C26.1946 15.9018 26.9649 16.1194 28.796 16.8665C29.6061 17.197 30.3429 17.6199 30.9997 18.2012C30.591 18.4409 30.2497 18.6726 29.9264 19.0212C29.4416 18.531 28.8946 18.1688 28.2348 17.9564C27.6547 17.7696 27.0335 17.702 26.555 17.2899C26.2714 17.0456 25.9625 16.696 25.8108 16.3496C25.7136 16.1277 25.6239 15.2352 25.4879 15.1474C25.4199 15.1036 25.3423 15.0958 25.265 15.1174C25.1843 15.1398 25.1366 15.1908 25.0988 15.2629C24.9352 15.5759 25.1709 16.233 25.2848 16.5379C26.2655 18.8262 28.4516 17.9198 29.5466 19.5103C29.3764 19.8067 29.2301 20.1031 29.1108 20.4239C27.8531 19.1628 26.9049 18.8838 25.3502 18.2101C24.569 17.8715 24.0537 17.4024 23.7368 16.6046C23.8902 16.6737 24.0767 16.759 24.2483 16.7371C24.3496 16.7242 24.461 16.6563 24.4978 16.5582C24.5741 16.3552 24.571 16.0751 24.5927 15.8588C24.6697 15.0944 24.9527 14.5304 25.4257 13.9325Z" fill="white"/>
<path d="M35.5266 10.6437C35.8329 11.1332 36.0077 11.7089 36.0756 12.2807C36.1171 12.6296 36.0842 12.8799 35.8592 13.1606C34.5909 14.7428 32.4041 15.9518 30.3856 16.1594C30.2021 16.1722 30.0162 16.1714 29.8323 16.1761C29.9429 15.1778 30.1797 14.385 30.694 13.5236C30.9406 13.5136 31.1754 13.489 31.417 13.4371C33.0651 13.0823 34.6128 12.0613 35.5266 10.6437Z" fill="white"/>
<path d="M48.2289 11.5914C48.5481 11.8159 48.8172 12.1813 48.9767 12.5342C49.5676 13.8421 49.2719 15.9634 48.7664 17.2604C48.2184 18.6666 47.2511 19.759 45.8637 20.3722L45.4027 19.9174C44.9924 19.5503 44.6056 19.2552 44.1069 19.0146C45.5813 18.2308 46.8161 16.8495 47.5849 15.3771C48.0336 14.5179 48.526 13.4609 48.4355 12.469C48.4079 12.1667 48.3197 11.8795 48.2289 11.5914Z" fill="white"/>
<path d="M22.5389 17.0107C22.5975 17.102 22.6471 17.6982 22.688 17.8645C22.7255 18.0199 22.7731 18.1721 22.831 18.3211C22.8889 18.4702 22.9564 18.6147 23.0337 18.7547C23.7186 19.9809 25.3919 20.7786 26.4407 21.7257C27.123 22.3418 27.867 23.2346 27.9092 24.1998C27.9281 24.6336 27.7595 24.9752 27.4751 25.2904C27.3972 25.3476 27.3154 25.3993 27.2346 25.4522C25.4796 24.5662 23.6048 22.7799 22.7777 20.9952C22.1743 19.6932 22.0442 18.3639 22.5389 17.0107Z" fill="white"/>
<path d="M47.713 11.9227C47.7522 11.9599 47.7427 11.9445 47.7676 11.9969C48.0266 12.543 47.8539 13.2955 47.6743 13.8347C47.0823 15.612 45.6101 17.6979 43.8994 18.5498C43.985 18.2665 44.2932 17.4658 44.2487 17.2196C44.232 17.1274 44.1707 17.0246 44.088 16.9766C44.0082 16.9303 43.9896 16.9345 43.9031 16.95C43.5732 17.1823 43.4851 18.1335 43.3071 18.5293C43.303 18.5384 43.2986 18.5474 43.2944 18.5565C42.5728 18.29 41.8901 18.1507 41.1213 18.1281C41.1439 18.0343 41.1689 17.9412 41.1963 17.8488C41.8709 15.6126 43.8199 15.0314 45.654 14.0384C46.5842 13.5346 47.3954 12.9742 47.713 11.9227Z" fill="white"/>
<path d="M22.1008 16.5881C22.1438 16.6335 21.911 17.1315 21.8809 17.2206C21.5921 18.0761 21.6052 19.0485 21.8126 19.92C22.4223 22.4817 24.4491 24.4101 26.6129 25.7488C26.257 25.9275 25.8707 26.0347 25.4808 26.1068C25.2457 26.1406 25.0155 26.1593 24.7781 26.1422C23.6412 26.06 22.5855 25.3491 21.8633 24.5014C20.7967 23.2496 20.41 21.555 20.5425 19.9384C20.6516 18.6055 21.071 17.4673 22.1008 16.5881Z" fill="white"/>
<path d="M61.8392 53.2045C61.8384 53.2174 61.8392 53.2303 61.837 53.243C61.8083 53.4128 61.6405 53.658 61.5499 53.8021C60.91 54.8206 60.0039 55.7108 59.0213 56.3986C57.0261 57.7951 54.7204 58.6918 52.4065 59.4029C45.8558 61.416 38.8391 61.9134 32.0175 61.7585C28.4047 61.6764 24.7552 61.4008 21.1958 60.7567C16.3881 59.8867 9.55167 58.1866 6.6137 53.9405C6.51453 53.7834 6.42987 53.625 6.34875 53.458C6.94429 54.2527 7.64622 54.9135 8.44088 55.5063C10.2216 56.8346 12.3107 57.7214 14.3999 58.4374C23.1165 61.4247 35.4839 61.8407 44.5747 60.5127C48.651 59.9172 52.7308 59.0259 56.4786 57.2701C57.9384 56.5861 59.3701 55.7673 60.5612 54.6695C61.0458 54.223 61.4469 53.7312 61.8392 53.2045Z" fill="white"/>
<path d="M11.2494 29.1509C11.3014 29.3352 11.2214 29.6236 11.1924 29.8162C11.0848 30.5322 10.8979 31.367 11.0812 32.0813C11.1536 32.3632 11.2904 32.6331 11.5546 32.7772C12.2612 33.1625 12.748 32.6568 13.3938 32.5014C13.5491 32.4639 13.7101 32.4717 13.8451 32.5638C14.292 32.8689 14.2896 34.1534 14.3826 34.6554C14.4646 35.0979 14.6274 35.6751 15.0245 35.9357C15.2705 36.097 15.5634 36.1182 15.8447 36.0559C16.5494 35.8998 17.1072 35.3483 17.4177 34.7169C17.5888 34.369 17.721 33.9872 17.9314 33.6619C18.2139 33.2253 18.6525 32.9458 19.1589 32.8443C19.7299 32.7296 20.3526 32.8232 20.8826 33.0558C23.486 34.1986 22.1564 36.7737 24.075 38.0471C24.1096 38.0697 24.1448 38.0914 24.1805 38.1123C24.2163 38.1332 24.2525 38.1532 24.2891 38.1723C24.3258 38.1914 24.363 38.2095 24.4005 38.2268C24.4382 38.2441 24.4762 38.2605 24.5145 38.2759C24.5529 38.2913 24.5916 38.3058 24.6308 38.3193C24.6698 38.3328 24.7092 38.3454 24.749 38.357C24.7887 38.3685 24.8287 38.3791 24.8689 38.3888C24.9091 38.3984 24.9495 38.407 24.9902 38.4147C25.0309 38.4223 25.0717 38.4289 25.1127 38.4346C25.1537 38.4402 25.1948 38.4449 25.2359 38.4485C25.2772 38.4521 25.3185 38.4547 25.3598 38.4563C25.4011 38.4579 25.4425 38.4585 25.4838 38.4581C25.5252 38.4576 25.5665 38.4562 25.6078 38.4538C25.6491 38.4513 25.6903 38.4478 25.7314 38.4434C25.7726 38.4389 25.8136 38.4334 25.8544 38.4269C25.8953 38.4204 25.936 38.4129 25.9765 38.4045C27.1066 38.1717 27.3147 37.2016 27.6321 36.2616C27.8011 35.7613 27.9955 35.2563 28.2928 34.8164C28.7384 34.157 29.434 33.741 30.2107 33.5919C31.1065 33.4201 32.1652 33.669 32.9158 34.1806C33.9164 34.8627 33.952 36.0231 34.1537 37.1028C34.2841 37.8008 34.5177 38.7053 35.1551 39.1214C35.4509 39.3145 35.7882 39.3628 36.1297 39.2858C37.603 38.954 37.4739 37.482 38.1154 36.4858C38.147 36.4367 38.1804 36.3889 38.2155 36.3422C38.2505 36.2956 38.2872 36.2502 38.3255 36.2062C38.3638 36.1621 38.4036 36.1194 38.4449 36.0782C38.4862 36.037 38.5289 35.9973 38.573 35.959C38.6171 35.9208 38.6626 35.8843 38.7093 35.8493C38.756 35.8143 38.8039 35.781 38.853 35.7494C38.9021 35.7178 38.9522 35.688 39.0034 35.66C39.0546 35.632 39.1067 35.6058 39.1598 35.5814C40.9644 34.7678 41.5473 36.7196 42.9957 36.3819C43.9923 36.1496 44.1331 35.183 44.3853 34.3627C44.4836 34.0426 44.6133 33.7288 44.7872 33.4421C45.3029 32.592 46.1876 32.0942 47.1353 31.8696C47.8107 31.7094 48.5689 31.6898 49.1732 32.0815C49.8195 32.5003 49.8532 33.0838 50.0093 33.7544C50.0891 34.0972 50.2471 34.4607 50.5629 34.6468C50.807 34.7907 51.1323 34.7961 51.3981 34.7136C52.2691 34.4433 52.051 33.4393 52.3864 32.8011C52.5123 32.5613 52.7146 32.3862 52.9768 32.312C53.2447 32.2364 53.5377 32.2183 53.7864 32.3621C54.2404 32.6244 54.2963 33.2313 54.4265 33.6859C54.5409 34.0857 54.8056 34.4292 55.1774 34.622C55.4436 34.76 55.7376 34.8002 56.0229 34.6967C56.5721 34.4975 56.7587 34.0069 56.9721 33.52C56.9123 33.9694 56.8466 34.4255 56.6534 34.8404C56.4578 35.2606 56.167 35.5223 55.7342 35.6835C53.9212 36.0008 54.1902 33.5171 53.2261 33.0365C53.107 32.9772 52.9809 32.9577 52.855 33.007C52.4957 33.1476 52.4818 34.0671 52.3232 34.424C52.1405 34.8347 51.8099 35.1975 51.38 35.3507C51.0252 35.4772 50.5841 35.4649 50.2445 35.2987C49.4511 34.9107 49.5905 34.1233 49.3531 33.4323C49.2143 33.0281 48.973 32.7007 48.58 32.5138C47.977 32.2272 47.3273 32.2976 46.7156 32.5095C45.7261 32.8522 45.0209 33.4605 44.763 34.4983C44.6197 35.0747 44.5326 35.6561 44.2658 36.1952C44.049 36.6332 43.7226 36.9591 43.2496 37.1151C42.6072 37.327 41.9199 37.1242 41.3744 36.7602C41.0499 36.5436 40.7495 36.2799 40.3991 36.1051C40.0381 35.9249 39.6216 35.8765 39.2372 36.0132C37.9154 36.483 38.189 37.978 37.6775 38.9955C37.4316 39.4848 37.0429 39.9171 36.5073 40.0854C36.0442 40.231 35.547 40.1696 35.1172 39.9507C33.5799 39.1677 33.7868 37.1678 33.3208 35.7726C33.0906 35.0833 32.6141 34.475 31.9549 34.1504C31.9186 34.133 31.882 34.1165 31.845 34.1008C31.808 34.0852 31.7706 34.0705 31.7329 34.0566C31.6951 34.0428 31.6571 34.0299 31.6187 34.0179C31.5804 34.006 31.5417 33.9949 31.5028 33.9848C31.4639 33.9747 31.4248 33.9655 31.3855 33.9573C31.3462 33.9491 31.3066 33.9418 31.2669 33.9355C31.2273 33.9292 31.1874 33.9239 31.1475 33.9195C31.1076 33.9151 31.0675 33.9117 31.0274 33.9093C30.9873 33.9068 30.9472 33.9053 30.9069 33.9048C30.8668 33.9043 30.8266 33.9048 30.7865 33.9062C30.7463 33.9077 30.7062 33.9101 30.6661 33.9135C30.6261 33.9169 30.5861 33.9212 30.5463 33.9266C30.5065 33.9319 30.4668 33.9381 30.4273 33.9454C30.3877 33.9526 30.3484 33.9608 30.3093 33.97C30.2702 33.9791 30.2313 33.9892 30.1926 34.0002C30.154 34.0113 30.1156 34.0232 30.0776 34.0361C29.1023 34.3726 28.5262 35.2963 28.2354 36.2401C28.0563 36.8212 27.9517 37.4404 27.6804 37.9886C27.4016 38.5521 26.9278 38.955 26.3306 39.1516C25.6107 39.3886 24.7077 39.333 24.0332 38.981C23.0172 38.4508 22.453 37.4098 22.3035 36.3028C22.2369 35.8097 22.2409 35.3012 22.0895 34.823C21.9048 34.2399 21.4728 33.757 20.9293 33.4798C20.393 33.2062 19.7767 33.0792 19.1946 33.276C18.1242 33.6379 17.754 34.6491 17.2933 35.5709C16.9604 36.2372 16.5145 36.9634 15.7602 37.2005C15.4458 37.2993 15.1188 37.2875 14.8251 37.1317C13.9454 36.6649 14.279 34.7018 14.0142 33.8289C13.9392 33.5818 13.8218 33.3401 13.5795 33.2215C13.0118 32.9437 12.5045 33.5143 12.0045 33.6876C11.9881 33.6934 11.9716 33.6987 11.9549 33.7036C11.9382 33.7086 11.9214 33.713 11.9045 33.7171C11.8876 33.7212 11.8706 33.7248 11.8535 33.728C11.8364 33.7312 11.8193 33.7339 11.802 33.7362C11.7848 33.7385 11.7675 33.7403 11.7502 33.7418C11.7328 33.7432 11.7155 33.7441 11.6981 33.7447C11.6807 33.7452 11.6634 33.7452 11.646 33.7449C11.6286 33.7445 11.6113 33.7437 11.5939 33.7424C11.5766 33.7411 11.5593 33.7394 11.542 33.7372C11.5248 33.7351 11.5076 33.7325 11.4905 33.7295C11.4734 33.7264 11.4563 33.7229 11.4394 33.719C11.4225 33.7152 11.4057 33.7108 11.3889 33.706C11.3722 33.7012 11.3556 33.696 11.3392 33.6904C11.3227 33.6847 11.3064 33.6787 11.2903 33.6722C11.2742 33.6658 11.2582 33.6589 11.2424 33.6516C11.2266 33.6443 11.2111 33.6366 11.1957 33.6285C10.8863 33.4636 10.7107 33.143 10.6075 32.82C10.203 31.5543 10.6664 30.2717 11.2494 29.1509Z" fill="white"/>
<path d="M40.9281 18.7314C41.6235 18.5984 42.4974 18.8594 43.1405 19.1023C43.0148 19.568 42.8491 20.0197 42.7434 20.4915C42.4012 20.3232 42.1925 20.0232 41.8745 19.8505C41.7919 19.8056 41.7385 19.8011 41.6498 19.8271C41.6005 19.8915 41.5922 19.9444 41.5969 20.0235C41.6128 20.2866 41.7578 20.4684 41.9514 20.6355C42.414 21.0348 43.2196 21.3113 43.8321 21.2438C44.0486 21.22 44.4298 21.1167 44.5589 20.925C44.5857 20.8852 44.5735 20.8912 44.5591 20.8369C44.3423 20.6848 43.6169 20.728 43.3143 20.6804C43.3853 20.2357 43.5376 19.7912 43.671 19.3617C43.7539 19.4013 43.8347 19.445 43.9133 19.4926C44.9245 20.1048 45.8777 20.9963 46.1563 22.186C46.3779 23.1325 46.1223 23.9549 45.6249 24.7643C44.7831 26.034 43.0807 26.8686 41.6403 27.2763C40.9402 27.4744 39.8939 27.6536 39.2275 27.2648C38.5262 26.8555 38.2239 25.7562 38.0432 25.0227C38.4038 24.4867 38.7347 23.921 38.9579 23.3131C39.3954 22.1218 39.3234 21.0832 38.8021 19.9435C39.3788 19.2274 40.0183 18.8634 40.9281 18.7314Z" fill="white"/>
<path d="M33.4235 18.2472C33.5954 18.2354 33.7707 18.2393 33.9431 18.2375C33.919 18.7528 33.858 19.2664 33.846 19.7819C33.4141 19.6549 33.0789 19.3689 32.6669 19.2329C32.5732 19.202 32.5196 19.2008 32.4336 19.248C32.4244 19.2746 32.4166 19.291 32.4175 19.3214C32.4225 19.4902 32.594 19.7183 32.7072 19.834C33.1095 20.2455 33.7679 20.3767 34.3214 20.3869C34.8089 20.3958 35.3572 20.2961 35.7138 19.9366C35.8042 19.8454 35.9243 19.7008 35.9246 19.5707C35.7261 19.4166 35.1245 19.7107 34.8921 19.7684C34.7479 19.8042 34.6038 19.8162 34.456 19.8257C34.4518 19.3033 34.5072 18.7797 34.5158 18.2565C35.3435 18.29 36.2573 18.4563 36.979 18.8794C37.7354 19.3228 38.3645 20.0364 38.5784 20.898C38.8849 22.1321 38.4592 23.2595 37.8317 24.3115C37.6548 24.5771 37.4655 24.8335 37.2637 25.0807C36.5346 25.9567 35.1014 27.2254 33.9078 27.3123C33.2649 27.3592 32.6983 26.9715 32.2371 26.5653C31.0397 25.5111 29.6179 23.331 29.5185 21.7104C29.4666 20.8653 29.7298 20.0624 30.2978 19.4293C31.098 18.5374 32.2799 18.3082 33.4235 18.2472Z" fill="white"/>
<path d="M12.9451 43.1852C13.1583 43.3845 13.3374 43.6951 13.5277 43.9242C13.9103 44.3851 14.4441 44.7842 14.9357 45.1214C16.9315 46.4907 19.3239 47.232 21.6567 47.7826C25.7992 48.7604 30.0242 49.0908 34.2707 49.1023C37.5039 49.111 40.7986 48.9284 43.9817 48.3374C44.7132 48.2016 45.4496 48.0746 46.1733 47.9015C48.9609 47.2345 53.34 45.8125 55.0378 43.34C55.0518 43.835 55.1556 44.7045 55.0343 45.1584C54.8784 45.3922 54.7128 45.6108 54.5221 45.8175C53.815 46.5842 52.882 47.1421 51.9637 47.6203C50.505 48.38 49.1274 48.8525 47.5429 49.2979C43.9594 50.3054 40.2675 50.7313 36.5545 50.8758C30.56 51.109 22.9751 50.6494 17.451 48.314C16.2615 47.8112 15.0497 47.2091 14.0982 46.3203C12.9019 45.2028 12.9971 44.6786 12.9451 43.1852Z" fill="white"/>
<path d="M47.586 19.9959C48.0552 20.0862 48.5316 20.2357 48.9832 20.3905C48.8315 20.4359 48.6769 20.4805 48.5322 20.5453C48.1621 20.7113 47.743 20.9947 47.6078 21.3947C47.5124 21.6773 47.552 22.0029 47.6894 22.2647C47.9046 22.6743 48.342 22.9248 48.7686 23.0633C49.5649 23.3219 50.6184 23.3069 51.3725 22.9203C51.8061 22.6979 52.057 22.4128 52.2046 21.9475C53.1539 22.3618 54.2986 23.0407 54.8129 23.9645C55.0584 24.4055 55.1351 24.8994 54.9928 25.3883C54.6998 26.3938 53.7179 27.1542 52.8421 27.6409C46.8533 30.9693 34.637 31.4554 27.8104 30.8203C24.9705 30.5561 21.9819 30.0161 19.2359 29.2336C17.3195 28.6875 14.3233 27.6943 13.3176 25.8585C13.0634 25.3945 12.9452 24.9075 13.1048 24.386C13.4575 23.2326 14.6649 22.4675 15.6654 21.9306C15.9968 21.7566 16.3362 21.5997 16.6835 21.46C16.682 21.6741 16.6861 21.8543 16.7643 22.0582C16.926 22.4791 17.2777 22.7711 17.6796 22.951C18.5286 23.331 19.4786 23.2794 20.3326 22.958C20.904 24.4611 21.8563 25.4996 23.2407 26.3005C22.9814 26.4205 22.7253 26.5634 22.5179 26.7625C22.2881 26.9833 22.1536 27.2528 22.1481 27.574C22.1425 27.9037 22.2681 28.1937 22.5053 28.4215C23.0243 28.9204 23.8339 29.0821 24.53 29.0671C25.1697 29.0532 25.915 28.8776 26.3665 28.3908C26.5874 28.1527 26.6977 27.8475 26.6753 27.5232C26.6444 27.0759 26.4227 26.839 26.1045 26.5654C26.5139 26.4366 26.8952 26.2581 27.283 26.0768C27.4913 26.1235 27.7071 26.1633 27.9207 26.1732C28.8804 26.2176 29.6171 25.7629 30.3012 25.1398C31.0031 26.1502 31.5604 26.7927 32.5728 27.5165C32.3077 27.6402 32.0436 27.7404 31.8721 27.9941C31.7095 28.2347 31.6755 28.5679 31.729 28.848C31.8007 29.2237 32.0775 29.5213 32.3879 29.7261C33.0678 30.1743 34.043 30.2699 34.8258 30.1002C35.3377 29.9892 35.8637 29.7438 36.147 29.2819C36.31 29.016 36.3844 28.6903 36.299 28.3855C36.1625 27.8983 35.7358 27.6532 35.3297 27.4156C36.1901 26.915 36.9667 26.3296 37.6007 25.5564C37.8324 26.3058 38.1487 27.2221 38.8204 27.6955C39.6216 28.26 40.7194 28.061 41.6139 27.8896C41.7774 28.2326 41.9604 28.4771 42.2903 28.6742C43.0168 29.1083 44.0026 29.1996 44.8135 28.9896C45.2843 28.8676 45.7892 28.6232 46.037 28.1834C46.1797 27.9301 46.2114 27.6395 46.1202 27.3629C45.9478 26.8399 45.3978 26.5318 44.9322 26.3097C45.6975 25.6382 46.3581 24.8722 46.6576 23.8797C46.9927 22.7692 46.7262 21.8201 46.1954 20.8294C46.697 20.6118 47.1356 20.3015 47.586 19.9959Z" fill="white"/>
<path d="M51.1944 23.8168C51.8035 23.7799 52.5518 23.9469 53.0294 24.3439C53.2963 24.5657 53.4911 24.883 53.5116 25.235C53.529 25.5326 53.4323 25.8097 53.2336 26.0319C52.7971 26.5204 52.0787 26.6753 51.4548 26.7123C50.8124 26.6967 50.0819 26.5975 49.5705 26.171C49.3208 25.9627 49.1372 25.672 49.1096 25.3433C49.0844 25.0436 49.196 24.7627 49.3916 24.5387C49.8527 24.0104 50.5268 23.863 51.1944 23.8168Z" fill="#1C1C1C"/>
<path d="M50.9405 24.4213C51.4691 24.3835 52.0061 24.4141 52.4773 24.6839C52.6708 24.7946 52.8691 24.9646 52.9186 25.1926C52.9476 25.3264 52.9062 25.458 52.8262 25.5661C52.6012 25.8704 52.0841 26.0091 51.7285 26.0701C51.1902 26.1434 50.5523 26.0775 50.0833 25.7848C49.9125 25.6783 49.7443 25.5226 49.7071 25.3154C49.6838 25.1853 49.7208 25.0561 49.7981 24.9505C50.0408 24.6186 50.5548 24.4846 50.9405 24.4213Z" fill="white"/>
<path d="M16.7504 23.8467C17.3462 23.7866 18.0864 23.9273 18.577 24.284C18.8641 24.4928 19.0955 24.795 19.1424 25.1546C19.184 25.4736 19.0741 25.7916 18.8692 26.0358C18.4463 26.5399 17.7751 26.7021 17.1505 26.7602C16.4567 26.7832 15.7045 26.6656 15.1433 26.2255C14.891 26.0275 14.7077 25.765 14.6742 25.4401C14.6704 25.404 14.6684 25.3677 14.6682 25.3313C14.668 25.2949 14.6696 25.2587 14.673 25.2225C14.6764 25.1863 14.6816 25.1503 14.6886 25.1146C14.6955 25.0789 14.7042 25.0437 14.7147 25.0088C14.7251 24.974 14.7372 24.9398 14.7511 24.9061C14.765 24.8725 14.7804 24.8396 14.7975 24.8075C14.8146 24.7754 14.8333 24.7442 14.8535 24.714C14.8736 24.6838 14.8953 24.6546 14.9184 24.6265C15.3555 24.0859 16.0915 23.9078 16.7504 23.8467Z" fill="#1C1C1C"/>
<path d="M16.6606 24.454C17.1591 24.4117 17.7803 24.4736 18.2058 24.7588C18.3698 24.8688 18.5129 25.0323 18.542 25.2339C18.5646 25.3906 18.51 25.5426 18.4095 25.6625C18.1205 26.0072 17.5707 26.1162 17.1458 26.1637C16.6583 26.2119 16.0499 26.1238 15.6335 25.8521C15.4643 25.7416 15.3042 25.5772 15.2706 25.3701C15.246 25.2188 15.2966 25.0698 15.3915 24.952C15.6729 24.6028 16.2388 24.5017 16.6606 24.454Z" fill="white"/>
<path d="M12.6489 25.9279C12.8641 26.1877 12.9873 26.5131 13.2355 26.7976C14.2392 27.9484 15.7285 28.6609 17.1389 29.1813C18.232 29.5845 19.3767 29.8846 20.508 30.1593C21.7632 30.4648 23.0278 30.7235 24.3021 30.9355C25.5763 31.1475 26.8567 31.3122 28.143 31.4296C29.7707 31.5644 31.401 31.6332 33.0342 31.636C37.8644 31.6793 42.7896 31.3091 47.4983 30.1941C49.055 29.8255 50.6123 29.3842 52.0684 28.7109C53.2639 28.1581 54.9572 27.198 55.4289 25.9144C55.6353 26.3624 55.8233 26.8302 55.9598 27.3041C56.3625 28.702 56.6245 30.8595 56.5354 32.3038C56.5048 32.8013 56.4341 33.6506 56.019 33.9927C55.904 34.0875 55.7154 34.19 55.5604 34.162C54.976 34.0564 54.8758 32.7676 54.5651 32.2981C54.3466 31.9681 54.0217 31.7417 53.63 31.6727C53.3622 31.6256 53.0649 31.6561 52.8052 31.7357C51.3198 32.1904 51.8441 33.8303 51.2814 34.1327C51.1601 34.1979 51.0031 34.1919 50.8774 34.1384C50.5318 33.9912 50.5105 33.1049 50.4121 32.7794C50.2257 32.1625 49.7706 31.7419 49.2168 31.4444C48.8518 31.2596 48.4562 31.171 48.0479 31.1672C46.2175 31.1501 44.5406 32.2114 43.9011 33.9363C43.7163 34.435 43.6611 35.1996 43.2635 35.5711C42.5654 36.2235 41.8255 35.4141 41.2157 35.0871C40.8726 34.9032 40.5098 34.7897 40.1187 34.7816C39.6754 34.7723 39.2468 34.8986 38.8493 35.0875C36.9733 35.979 37.5017 37.5381 36.537 38.4218C36.3354 38.6066 36.0781 38.7328 35.8009 38.7149C34.9006 38.6567 34.7485 37.0159 34.6334 36.3529C34.5728 36.0036 34.5087 35.6513 34.4047 35.312C34.2761 34.8923 34.075 34.5114 33.7841 34.1813C33.1121 33.4187 32.03 33.0203 31.0335 32.9594C29.846 32.8868 28.6523 33.3682 27.921 34.3236C27.573 34.7783 27.3246 35.33 27.1283 35.8648C26.9247 36.4194 26.8143 37.2078 26.3435 37.6042C26.0591 37.8437 25.6392 37.9076 25.2789 37.8664C24.9612 37.8301 24.6394 37.6995 24.3759 37.5199C23.4246 36.8711 23.4733 35.8084 23.1678 34.8195C23.1326 34.7025 23.0919 34.5875 23.0455 34.4745C22.9991 34.3615 22.9474 34.251 22.8902 34.1431C22.8331 34.0352 22.7708 33.9302 22.7034 33.8284C22.6359 33.7266 22.5637 33.6283 22.4867 33.5335C21.8693 32.7799 20.9384 32.3251 19.9746 32.2321C19.4549 32.1819 18.9294 32.2514 18.4526 32.4694C16.9639 33.1498 17.3229 34.374 16.2956 35.2124C16.1132 35.3613 15.7555 35.5865 15.5093 35.5267C14.947 35.3903 14.8835 33.82 14.7932 33.3301C14.7332 33.0051 14.6456 32.6528 14.4804 32.3634C13.8332 31.2302 12.5374 32.4626 11.9378 32.2708C11.8365 32.2385 11.765 32.1716 11.716 32.0784C11.274 31.2391 12.3369 26.973 12.6489 25.9279Z" fill="white"/>
<path d="M12.9729 38.7684C13.0877 38.8612 13.189 39.0037 13.288 39.115C13.4808 39.3316 13.6768 39.534 13.9004 39.7197C15.4829 41.0332 17.372 41.7884 19.3156 42.3987C24.1591 43.9198 29.3606 44.3501 34.4149 44.3299C36.3702 44.3317 38.3215 44.2452 40.269 44.0702C44.6808 43.6553 52.1127 42.344 55.0647 38.7797C55.0883 39.2565 55.0749 39.7408 55.0763 40.2185C55.0779 40.7453 55.1159 41.3029 55.026 41.8224C54.9712 42.1392 54.8661 42.419 54.7313 42.7096C54.5275 43.0733 54.2664 43.3919 53.9728 43.6871C52.9925 44.6729 51.6362 45.3667 50.3645 45.9021C45.4881 47.9551 39.6188 48.5133 34.3526 48.5091C32.1383 48.5133 29.9296 48.4053 27.7263 48.1853C23.794 47.7791 17.0268 46.6039 14.1672 43.7156C13.1054 42.6432 12.9604 41.8831 12.9652 40.4461L12.9729 38.7684Z" fill="white"/>
<path d="M12.9702 45.986C13.2122 46.2726 13.467 46.5677 13.7467 46.818C17.2222 49.9282 24.6295 51.0813 29.1585 51.3939C30.6521 51.4892 32.1472 51.5379 33.6438 51.5401C35.1405 51.5423 36.6357 51.498 38.1296 51.407C42.6681 51.1355 47.3217 50.4038 51.4883 48.515C52.7878 47.9258 54.111 47.2146 55.0687 46.1344C55.0642 46.803 55.0683 47.4716 55.081 48.1401C55.0889 48.6177 55.1537 49.1706 55.054 49.6398C54.9878 49.9511 54.8453 50.2127 54.6813 50.4821C54.4998 50.7557 54.2932 51.0088 54.0615 51.2414C53.2408 52.0739 52.1501 52.7122 51.1055 53.2241C46.2355 55.6106 39.7536 56.2858 34.3756 56.3161C28.9286 56.3467 22.4421 55.7581 17.4465 53.5231C16.2962 53.0085 15.1061 52.3687 14.2064 51.471C13.0217 50.2891 12.9573 49.4386 12.9715 47.8628C12.9749 47.2372 12.9745 46.6116 12.9702 45.986Z" fill="white"/>
<path d="M47.5235 32.9131C47.6906 32.8872 47.8834 32.8961 48.0461 32.9411C49.0778 33.2261 48.7859 34.3655 49.2176 35.1041C49.4886 35.5676 49.9601 35.8613 50.4752 35.9841C50.5062 35.9915 50.5374 35.9981 50.5688 36.0039C50.6001 36.0098 50.6316 36.0148 50.6632 36.0191C50.6948 36.0234 50.7265 36.027 50.7583 36.0297C50.7901 36.0325 50.8219 36.0345 50.8538 36.0357C50.8857 36.0369 50.9175 36.0373 50.9494 36.037C50.9813 36.0366 51.0132 36.0355 51.0451 36.0336C51.0769 36.0317 51.1087 36.029 51.1404 36.0255C51.1721 36.0221 51.2037 36.0179 51.2352 36.0129C51.2667 36.0079 51.2981 36.0021 51.3293 35.9956C51.3605 35.989 51.3916 35.9817 51.4224 35.9737C51.4533 35.9656 51.484 35.9568 51.5144 35.9473C51.5448 35.9378 51.575 35.9275 51.605 35.9164C51.6349 35.9054 51.6645 35.8937 51.6939 35.8812C51.7232 35.8687 51.7523 35.8556 51.781 35.8417C51.8097 35.8278 51.8381 35.8132 51.8661 35.798C51.8941 35.7827 51.9217 35.7667 51.949 35.7501C52.6853 35.2937 52.9529 34.5765 53.138 33.7742C53.3793 34.2288 53.493 34.7426 53.7269 35.1978C54.0243 35.7769 54.4551 36.0696 55.0634 36.2685C55.0878 36.514 55.0934 36.7671 55.0945 37.0139C55.0978 37.7498 54.707 38.3371 54.2017 38.8415C53.2147 39.8268 51.8716 40.5412 50.5991 41.0845C45.638 43.2026 39.3006 43.7424 33.9346 43.745C28.7609 43.7475 22.9934 43.155 18.132 41.3492C16.659 40.8019 15.0832 40.0878 13.9618 38.9576C12.8776 37.8648 12.9425 37.2569 12.9517 35.8358C12.9508 35.5785 12.9057 34.0213 12.9768 33.8924C13.0155 33.8225 13.044 33.799 13.1182 33.772C13.179 33.7499 13.243 33.7577 13.298 33.7921C13.6113 33.9882 13.5704 35.2526 13.5895 35.6079C13.6009 35.86 13.6282 36.1103 13.6714 36.359C13.7633 36.8586 13.9732 37.2931 14.4068 37.5856C14.8332 37.8732 15.3188 37.9026 15.8088 37.7947C17.3966 37.4452 17.7043 35.714 18.4427 34.5916C18.7003 34.2001 19.0629 33.8713 19.5385 33.7855C19.9735 33.707 20.4482 33.8391 20.8104 34.0849C21.7752 34.7399 21.5858 35.7707 21.7873 36.7682C21.9959 37.8007 22.5275 38.7322 23.4193 39.3195C24.2111 39.8411 25.2705 39.9914 26.1912 39.7962C26.5626 39.7174 26.9392 39.5472 27.2566 39.3402C28.7348 38.3754 28.3986 36.7192 29.2507 35.4332C29.5614 34.9642 29.9841 34.6197 30.5481 34.5175C30.5992 34.5087 30.6506 34.5021 30.7024 34.4977C30.7541 34.4932 30.8059 34.491 30.8578 34.4909C30.9097 34.4908 30.9615 34.493 31.0132 34.4973C31.0649 34.5016 31.1164 34.5081 31.1675 34.5167C31.2187 34.5254 31.2694 34.5362 31.3197 34.5492C31.3699 34.5621 31.4195 34.5772 31.4685 34.5944C31.5175 34.6115 31.5657 34.6307 31.613 34.6519C31.6604 34.6732 31.7068 34.6964 31.7522 34.7215C33.6645 35.7762 32.3994 38.8075 34.5587 40.2993C35.0802 40.6596 35.7747 40.8359 36.4026 40.7189C37.522 40.5103 38.2633 39.5127 38.5129 38.4517C38.632 37.9454 38.6148 37.3815 38.9316 36.9423C39.6847 35.8984 40.7045 37.1211 41.4471 37.486C41.9662 37.7411 42.5788 37.8418 43.1513 37.7493C44.5232 37.5277 44.9133 36.3689 45.2115 35.1794C45.3256 34.7244 45.4109 34.2523 45.7009 33.8698C46.0978 33.3461 46.8435 33.0106 47.4801 32.9191L47.5235 32.9131Z" fill="white"/>
<path d="M12.2934 44.3165C12.3804 44.3725 12.3475 44.6858 12.3483 44.7954L12.3538 47.5274C12.3543 49.3896 12.3006 50.4233 13.7199 51.8575C16.1618 54.325 21.4162 55.6966 24.7896 56.2423C26.2521 56.466 27.7209 56.6354 29.196 56.7506C30.671 56.8659 32.1483 56.9266 33.6278 56.9329C39.193 56.9591 45.2852 56.3923 50.4443 54.1922C51.8359 53.5988 53.301 52.8271 54.3806 51.7484C54.893 51.2365 55.4028 50.5892 55.6149 49.8855C55.7771 49.3472 55.6764 48.4034 55.677 47.8191C55.6863 46.6609 55.6862 45.5026 55.6765 44.3443C57.0515 44.9706 58.4047 45.6915 59.6035 46.6167C60.7426 47.4958 61.9087 48.7696 62.0898 50.2573C62.2279 51.3918 61.7667 52.3748 61.0821 53.2503C59.7268 54.9242 57.6815 56.1034 55.7357 56.9633C46.8616 60.8848 32.8826 61.2428 23.3746 59.8821C19.9253 59.3885 16.4615 58.6205 13.2076 57.3583C10.8354 56.438 7.40658 54.6553 6.33747 52.2C5.90987 51.218 5.88406 50.1411 6.28187 49.1457C7.21447 46.8119 10.093 45.2487 12.2934 44.3165Z" fill="white"/>
</svg>
