<svg width="32" height="32" viewBox="0 0 32 32" fill="none" xmlns="http://www.w3.org/2000/svg">
<rect width="32" height="32" rx="12" fill="#1C1C1C"/>
<path d="M11.2277 25.9944C11.4115 25.9958 11.7766 26.108 11.9815 26.1431C12.407 26.2161 12.8389 26.2576 13.2689 26.2921C14.177 26.3603 15.0863 26.3907 15.9969 26.3834C17.4537 26.3833 18.947 26.3341 20.3835 26.0733C20.2797 26.1215 20.1749 26.1676 20.0692 26.2117C19.942 26.2614 19.8133 26.3066 19.683 26.3472C17.5914 27.0033 13.1913 27.0545 11.2277 25.9944Z" fill="white"/>
<path d="M23.7978 14.4589C24.6908 14.4472 26.0058 14.4796 26.8748 14.6927C26.9817 14.719 27.2102 14.7549 27.268 14.851L27.2559 14.8817C26.8611 15.1913 24.4351 15.2171 23.8206 15.2158C22.9685 15.2131 21.0209 15.2079 20.3157 14.8442C20.842 14.4926 23.0779 14.4681 23.7978 14.4589Z" fill="white"/>
<path d="M28.1121 18.5227C28.1329 18.5205 28.1538 18.5187 28.1747 18.5173C28.4545 18.4987 28.7226 18.5989 28.9299 18.7912C29.1654 19.0096 29.2899 19.3189 29.3051 19.6404C29.353 20.6535 28.4709 21.8032 27.8321 22.5195C27.6348 22.7376 27.4348 22.9712 27.1978 23.145C27.2936 22.6095 27.3697 22.069 27.4573 21.5319C27.5166 21.1678 27.6008 20.7899 27.6273 20.4228C27.6422 20.2151 27.6319 20.0015 27.6311 19.7934C27.6294 19.436 27.6297 19.0786 27.632 18.7213C27.784 18.6238 27.9371 18.5621 28.1121 18.5227Z" fill="white"/>
<path d="M28.2028 17.579C28.4347 17.5586 28.6523 17.5795 28.8747 17.6511C29.4013 17.8206 29.8002 18.186 30.0507 18.6852C30.3504 19.2825 30.3297 19.9863 30.1327 20.6114C29.6932 22.0072 28.6056 23.2952 27.4827 24.1759C27.2691 24.3435 27.0419 24.5297 26.8013 24.6554L26.7793 24.6446C26.8616 24.3129 26.965 23.9851 27.0523 23.6544C27.2427 23.5385 27.4265 23.3592 27.5902 23.2063C28.3716 22.4766 29.0303 21.5987 29.4354 20.595C29.6232 20.1298 29.6807 19.5395 29.4856 19.0665C29.4764 19.0447 29.4667 19.0232 29.4564 19.0018C29.4462 18.9805 29.4354 18.9595 29.4242 18.9387C29.4129 18.9179 29.4011 18.8974 29.3889 18.8772C29.3766 18.857 29.3638 18.8372 29.3506 18.8176C29.3374 18.7981 29.3237 18.7789 29.3095 18.76C29.2953 18.7412 29.2807 18.7227 29.2657 18.7046C29.2506 18.6865 29.2351 18.6688 29.2192 18.6515C29.2032 18.6341 29.1869 18.6172 29.1702 18.6007C29.1534 18.5842 29.1363 18.5682 29.1188 18.5526C29.1012 18.5369 29.0833 18.5217 29.0651 18.507C29.0468 18.4923 29.0282 18.4781 29.0092 18.4643C28.9903 18.4505 28.971 18.4372 28.9514 18.4244C28.9318 18.4116 28.9119 18.3993 28.8917 18.3875C28.8715 18.3757 28.851 18.3644 28.8303 18.3537C28.8095 18.3429 28.7885 18.3327 28.7673 18.323C28.746 18.3133 28.7245 18.3042 28.7029 18.2955C28.3222 18.1412 27.9937 18.2071 27.6307 18.369C27.6195 18.1668 27.6242 17.962 27.6274 17.7596C27.81 17.6604 27.9988 17.6082 28.2028 17.579Z" fill="white"/>
<path d="M4.83079 15.0738C5.04464 15.0674 5.2425 15.0898 5.44948 15.1451C5.54708 15.814 5.59324 16.4945 5.65486 17.1677L5.842 19.0933C5.90769 19.8046 5.9646 20.5195 6.05005 21.2285C5.82148 21.0044 5.60105 20.7722 5.38876 20.532C4.50634 19.5365 3.57954 18.1535 3.4785 16.7743C3.44703 16.3447 3.53686 15.8635 3.823 15.5317C4.08508 15.2278 4.44278 15.0972 4.83079 15.0738Z" fill="white"/>
<path d="M4.56431 13.8704C4.80531 13.8353 5.09549 13.8592 5.33137 13.9119C5.37054 14.2074 5.39667 14.5062 5.42911 14.8027C5.20032 14.7683 4.9698 14.7423 4.73849 14.7621C4.28921 14.8003 3.87706 14.9836 3.58623 15.3423C3.2368 15.7732 3.13517 16.3309 3.18526 16.8761C3.31687 18.3087 4.23606 19.6688 5.14356 20.7169C5.43879 21.0579 5.75335 21.403 6.09739 21.6931C6.15724 22.0789 6.17562 22.4744 6.23054 22.8621C6.22751 22.8848 6.23149 22.8733 6.21547 22.8954C6.1988 22.8885 6.19282 22.8868 6.17615 22.8751C6.12828 22.8416 6.08422 22.7922 6.03916 22.7541C5.87463 22.6151 5.71294 22.4727 5.55409 22.327C4.13384 21.0368 2.49902 18.8509 2.31192 16.8507C2.24128 16.0955 2.39514 15.2814 2.88264 14.6875C3.30708 14.1703 3.91907 13.9266 4.56431 13.8704Z" fill="white"/>
<path d="M14.1056 12.2599C14.1454 12.2591 14.169 12.2531 14.2041 12.276C14.3145 12.3478 14.4177 12.4741 14.5112 12.5679C14.7071 12.7684 14.9059 12.9658 15.1076 13.1601C15.0832 13.7607 14.9918 14.3685 14.9305 14.9671L14.649 17.8812C14.5764 18.707 14.4993 19.5324 14.4178 20.3573C14.3857 20.6705 14.3792 21.0013 14.3209 21.3094C14.2894 21.4758 14.1674 21.6432 14.0864 21.7919C13.7006 21.9164 13.4079 22.0852 13.1634 22.4194C13.0557 22.5845 12.9474 22.9022 12.853 23.0097C12.8235 23.0433 12.8007 23.0528 12.7575 23.0536C12.7643 23.0201 12.7653 22.9854 12.768 22.9513L12.7452 22.9462C12.7895 22.6956 12.7842 22.2486 12.7952 21.9812C12.826 21.2404 12.8519 20.4994 12.8729 19.7583L13.1438 13.2279C13.4437 12.8926 13.7779 12.567 14.1056 12.2599Z" fill="white"/>
<path d="M20.2786 15.1743C21.4781 15.638 24.8312 15.5783 26.1371 15.4359C26.5384 15.3922 26.924 15.3176 27.3149 15.216C27.3369 15.9894 27.314 16.7646 27.3202 17.5384L27.3212 17.8397C24.9748 17.8771 22.6261 17.8218 20.2793 17.8447C20.2709 17.3034 20.2681 16.7621 20.2709 16.2207C20.2714 15.8726 20.2638 15.522 20.2786 15.1743Z" fill="white"/>
<path d="M9.30178 9.90741C9.31561 9.91523 9.32967 9.92279 9.34328 9.93099C9.63369 10.1057 9.91175 10.1737 10.243 10.108C10.3121 10.216 10.3835 10.3225 10.4694 10.4174C10.4878 10.4378 10.5067 10.4576 10.5261 10.477C10.5454 10.4964 10.5653 10.5153 10.5856 10.5336C10.6059 10.552 10.6267 10.5698 10.6478 10.5871C10.669 10.6045 10.6906 10.6212 10.7126 10.6374C10.7346 10.6536 10.757 10.6693 10.7798 10.6843C10.8025 10.6994 10.8257 10.7139 10.8491 10.7277C10.8726 10.7416 10.8964 10.7549 10.9205 10.7676C10.9447 10.7802 10.9691 10.7923 10.9938 10.8037C11.0185 10.8151 11.0435 10.8259 11.0688 10.8361C11.094 10.8462 11.1195 10.8557 11.1452 10.8645C11.1709 10.8734 11.1968 10.8815 11.223 10.8891C11.2491 10.8966 11.2753 10.9034 11.3018 10.9096C11.3282 10.9158 11.3548 10.9213 11.3815 10.9261C11.4083 10.9309 11.4351 10.9351 11.462 10.9385C11.4889 10.9419 11.5159 10.9447 11.543 10.9468C11.57 10.9488 11.5971 10.9502 11.6242 10.9509C12.0907 10.9656 12.5022 10.7666 12.8378 10.4459C13.1424 10.6034 13.4408 10.7287 13.7888 10.7248C14.3637 10.7185 14.6898 10.4482 15.0722 10.0509C15.1979 10.072 15.3255 10.0707 15.4525 10.073C15.7445 10.6821 15.8827 11.3225 15.9128 11.9973C15.9364 12.5245 15.8692 13.056 15.8143 13.5792L15.6122 15.4306L15.0361 20.8742C14.8931 20.9235 14.7802 20.987 14.6544 21.0724L15.3977 13.3398C15.4117 13.1815 15.4249 13.0904 15.3163 12.9611C15.2229 12.8501 15.1062 12.7524 15.0043 12.6489C14.8513 12.4934 14.5441 12.1397 14.3838 12.0333C14.3222 11.9925 14.2458 11.9667 14.1726 11.9619C14.081 11.956 13.9977 11.9847 13.9206 12.034C13.7839 12.1215 13.6725 12.2536 13.559 12.3695C13.3753 12.5571 13.195 12.7512 13.0001 12.9267C12.8427 12.7674 12.6761 12.617 12.518 12.4582C12.391 12.3306 12.2621 12.1705 12.1186 12.064C12.0456 12.0099 11.9637 11.9725 11.8724 11.9693C11.7783 11.966 11.6907 11.9983 11.6126 12.0501C11.4739 12.142 11.358 12.2837 11.2394 12.4011L10.6826 12.9449C10.482 12.764 10.292 12.5628 10.1026 12.3695C9.99613 12.2608 9.88952 12.1365 9.76557 12.0485C9.69161 11.996 9.60492 11.955 9.51322 11.9546C9.43162 11.9541 9.35319 11.9824 9.28404 12.0253C9.07841 12.1527 8.55987 12.7203 8.34961 12.9309C8.13993 12.7302 7.65708 12.1705 7.45633 12.0479C7.33174 11.9717 7.22292 11.9627 7.08424 11.997C7.02747 12.02 6.97834 12.0483 6.93077 12.0877C6.79701 12.1986 6.0618 12.937 6.00088 13.0617C5.99934 13.2626 6.03029 13.4701 6.04791 13.6704C6.08389 14.0791 6.12243 14.4876 6.16355 14.8959L6.48056 18.2056L6.87255 22.2652L7.00679 23.6415C7.0302 23.8683 7.04282 24.1052 7.085 24.3292C7.12282 24.5299 7.22665 24.7313 7.36682 24.8771C7.48372 24.9988 7.64109 25.0909 7.80334 25.1315C8.08417 25.2017 8.53035 25.1632 8.82502 25.1623C9.31555 25.1606 9.80606 25.1619 10.2965 25.1663C10.3155 25.4332 10.4191 25.5767 10.6093 25.7461C9.86615 25.7304 9.12081 25.7457 8.37747 25.7487C8.08757 25.7499 7.45588 25.7927 7.20403 25.7141C7.04136 25.6633 6.89115 25.5267 6.81306 25.3733C6.80021 25.3481 6.78915 25.3221 6.77989 25.2953C6.77065 25.2686 6.7633 25.2412 6.75783 25.2134C6.73488 25.0945 6.7319 24.9653 6.72026 24.8446L6.65106 24.1572L6.41717 21.843L5.7288 14.826C5.67554 14.2845 5.61369 13.744 5.54326 13.2046C5.50858 12.9343 5.44684 12.6574 5.44328 12.3848C5.43329 11.624 5.60892 10.8251 5.8461 10.1079C6.12775 10.1681 6.4342 10.1341 6.67884 9.9731C7.08362 10.3137 7.52724 10.5618 8.06739 10.5331C8.54696 10.5077 8.98351 10.2689 9.30178 9.90741Z" fill="white"/>
<path d="M15.5352 21.0895C15.677 21.0827 15.8178 21.0862 15.958 21.1107C16.2935 21.1695 16.593 21.3266 16.7937 21.6138C16.8942 21.6081 16.9935 21.6049 17.0926 21.6267C17.3701 21.688 17.5109 21.8712 17.6566 22.0999C18.2165 22.0907 18.4317 22.6554 18.5518 23.1237C18.5772 23.2228 18.578 23.3599 18.6597 23.4293C18.6956 23.432 18.707 23.4326 18.7367 23.407C18.8836 23.2809 18.6365 22.9044 18.6604 22.7563C18.6645 22.7542 18.6684 22.7517 18.6726 22.7499C18.7265 22.7271 18.7844 22.7348 18.8358 22.7603C19.0523 22.8677 19.1458 23.1133 19.2171 23.3304C19.4084 23.3532 19.5995 23.3787 19.7446 23.5229C19.9169 23.6943 19.9334 23.9158 19.9407 24.1457C20.1876 24.1949 20.4022 24.2213 20.6076 24.3836C20.7747 24.5157 20.8491 24.672 20.8766 24.8811C20.9307 24.9139 20.9847 24.9482 21.034 24.9883C21.1136 25.0529 21.2046 25.1528 21.2121 25.2611C21.2166 25.3264 21.1882 25.3837 21.1459 25.4311C20.6742 25.9606 17.8448 26.049 17.0665 26.0711C16.2994 26.092 15.5323 26.0914 14.7652 26.0691C13.734 26.0402 12.686 25.9828 11.6724 25.7796C11.4473 25.7345 11.2065 25.6938 10.994 25.6041C10.8458 25.5415 10.6858 25.4342 10.6256 25.2761C10.5854 25.1707 10.6139 25.0498 10.6612 24.9516C10.7902 24.6841 11.0983 24.5705 11.3553 24.4783C11.3757 24.3535 11.4006 24.2404 11.4593 24.1275C11.674 23.7142 12.2128 23.4794 12.6341 23.3736C12.7467 23.3453 12.8685 23.3453 12.978 23.3086C13.1669 23.2451 13.2022 22.9466 13.28 22.7814C13.4119 22.501 13.6423 22.2617 13.9332 22.1568C14.0418 22.1177 14.1561 22.1005 14.2648 22.061L14.2805 22.0552C14.4107 21.8687 14.4757 21.6483 14.6281 21.4738C14.8593 21.2089 15.1988 21.1101 15.5352 21.0895Z" fill="white"/>
<path d="M12.2952 23.6488C12.3356 23.6486 12.3539 23.6438 12.3889 23.6657L12.3886 23.6961C12.3486 23.7602 12.2917 23.7965 12.2226 23.8216C12.181 23.819 12.1588 23.8183 12.1224 23.7949C12.1152 23.7729 12.111 23.7763 12.1211 23.7577C12.1553 23.6946 12.2331 23.6714 12.2952 23.6488Z" fill="white"/>
<path d="M19.2535 23.5804C19.2812 23.5838 19.3043 23.5863 19.3301 23.5985C19.3834 23.6238 19.4337 23.6865 19.4563 23.7406C19.4845 23.8084 19.4733 23.8383 19.4467 23.9028C19.4163 23.9052 19.3919 23.9021 19.3637 23.8893C19.3099 23.865 19.2676 23.8145 19.2465 23.7592C19.2201 23.6901 19.2234 23.6466 19.2535 23.5804Z" fill="white"/>
<path d="M11.859 24.2757C11.8782 24.2765 11.8931 24.2819 11.9114 24.2876C11.9411 24.3214 11.946 24.3267 11.9541 24.371C11.9251 24.4801 11.7345 24.5426 11.6518 24.6159C11.4892 24.7598 11.46 25.0025 11.3331 25.1138C11.2901 25.1017 11.2595 25.0896 11.2405 25.0453C11.2228 25.004 11.2335 24.9542 11.2463 24.9133C11.3388 24.617 11.5975 24.4066 11.859 24.2757Z" fill="white"/>
<path d="M14.6173 22.306C14.6873 22.2991 14.7611 22.293 14.8231 22.3351C14.8545 22.3564 14.8583 22.3617 14.8628 22.3968C14.7997 22.5128 14.6026 22.4897 14.4838 22.5264C14.2068 22.612 14.0485 22.801 13.9176 23.0539C13.9101 23.0656 13.9083 23.07 13.8964 23.08C13.8658 23.1056 13.8402 23.1172 13.8031 23.1089C13.7847 23.0882 13.7675 23.0709 13.7621 23.0423C13.741 22.9315 13.8291 22.7932 13.8923 22.71C14.0809 22.4615 14.316 22.3438 14.6173 22.306Z" fill="white"/>
<path d="M15.5582 21.2459C15.6054 21.2423 15.6524 21.2401 15.6998 21.2418C15.82 21.246 16.1126 21.2737 16.1863 21.3811C16.2081 21.4128 16.2005 21.4331 16.1946 21.4681C16.1674 21.5012 16.1546 21.5217 16.1077 21.5195C16.0316 21.5159 15.9538 21.4772 15.8811 21.4555C15.6496 21.3865 15.4258 21.4334 15.2125 21.5369C15.1189 21.592 15.0632 21.6589 14.9889 21.7349C14.9382 21.7867 14.8888 21.8424 14.8125 21.8421C14.7801 21.8249 14.777 21.8212 14.7583 21.789C14.7598 21.7292 14.7841 21.6879 14.8193 21.6409C15.0002 21.3998 15.27 21.2825 15.5582 21.2459Z" fill="white"/>
<path d="M14.7644 23.5227C14.9173 23.506 15.0965 23.5329 15.221 23.6292C15.2314 23.6372 15.2414 23.6457 15.251 23.6548C15.2605 23.6639 15.2696 23.6735 15.2781 23.6836C15.2867 23.6936 15.2947 23.7041 15.3022 23.715C15.3097 23.726 15.3166 23.7373 15.3229 23.749C15.3292 23.7606 15.3349 23.7726 15.3399 23.7849C15.345 23.7972 15.3494 23.8097 15.3532 23.8225C15.3569 23.8353 15.36 23.8482 15.3625 23.8613C15.3649 23.8744 15.3666 23.8876 15.3677 23.9009C15.377 24.0138 15.3344 24.1197 15.2623 24.204C15.1204 24.3696 14.9021 24.4366 14.6946 24.4556C14.5436 24.4622 14.3842 24.444 14.2549 24.3571C14.1726 24.3017 14.112 24.2226 14.0948 24.1222C14.0759 24.012 14.114 23.9026 14.1793 23.8154C14.3198 23.6281 14.5458 23.5559 14.7644 23.5227Z" fill="white"/>
<path d="M14.7418 23.7934C14.825 23.7872 14.9243 23.7832 15.005 23.8087C15.0546 23.8242 15.0829 23.8462 15.1087 23.8932C15.113 23.9274 15.1137 23.9504 15.0964 23.9815C15.0309 24.0994 14.8605 24.1459 14.7398 24.1745C14.6432 24.1874 14.5425 24.1966 14.4481 24.1639C14.4048 24.1488 14.3786 24.1285 14.357 24.0863C14.3525 24.0531 14.3531 24.0304 14.3693 24.0001C14.4369 23.8735 14.6147 23.8269 14.7418 23.7934Z" fill="white"/>
<path d="M15.5518 24.4385C15.7971 24.4191 16.0217 24.4909 16.2228 24.6345C16.3648 24.7359 16.4889 24.8867 16.5166 25.066C16.5283 25.1421 16.518 25.2172 16.4705 25.2791C16.3937 25.3791 16.265 25.4137 16.1477 25.4296C15.9522 25.4372 15.7783 25.4144 15.6024 25.3223C15.4262 25.23 15.2624 25.0752 15.2053 24.8767C15.1829 24.7991 15.184 24.7191 15.2242 24.6476C15.2916 24.5278 15.4274 24.4717 15.5518 24.4385Z" fill="white"/>
<path d="M15.5074 24.7094L15.5264 24.7079C15.7625 24.6909 15.9824 24.7596 16.1591 24.9235C16.1982 24.9597 16.2612 25.0287 16.2544 25.0872C16.2492 25.1321 16.2356 25.1392 16.2026 25.1636C15.9555 25.1759 15.6954 25.1176 15.51 24.9366C15.4728 24.9003 15.44 24.8523 15.4462 24.7969C15.4512 24.7524 15.4776 24.7369 15.5074 24.7094Z" fill="white"/>
<path d="M18.5839 24.3801C18.7727 24.3597 18.9468 24.3885 19.1165 24.4765C19.3151 24.5795 19.5201 24.757 19.5855 24.9816C19.6098 25.0651 19.6112 25.1537 19.5662 25.2304C19.5051 25.3348 19.4016 25.3742 19.2933 25.4042C19.0719 25.4226 18.868 25.3925 18.6713 25.2821C18.4945 25.1828 18.3468 25.0238 18.2926 24.8217C18.2685 24.7313 18.2652 24.6328 18.3139 24.5502C18.3753 24.4458 18.4733 24.4062 18.5839 24.3801Z" fill="white"/>
<path d="M18.5578 24.6527C18.6785 24.6425 18.7814 24.6435 18.8983 24.6809C19.0398 24.7262 19.2253 24.8328 19.292 24.9732C19.3202 25.0326 19.324 25.0685 19.3045 25.1301C19.2716 25.1351 19.2385 25.1381 19.2052 25.139C19.1719 25.1399 19.1386 25.1387 19.1055 25.1354C19.0723 25.1321 19.0395 25.1268 19.0069 25.1194C18.9744 25.112 18.9425 25.1026 18.9111 25.0912C18.7839 25.046 18.6212 24.9589 18.5639 24.8294C18.5367 24.7678 18.5344 24.7153 18.5578 24.6527Z" fill="white"/>
<path d="M16.9728 23.4501C17.1796 23.4391 17.3574 23.4519 17.5498 23.5372C17.7287 23.6165 17.911 23.7591 17.9806 23.9507C18.0065 24.0221 18.0097 24.0977 17.9749 24.1667C17.9092 24.2975 17.7762 24.3516 17.6468 24.3905C17.6171 24.3963 17.5872 24.401 17.5572 24.4043C17.5271 24.4076 17.497 24.4097 17.4668 24.4105C17.4365 24.4113 17.4063 24.4109 17.3762 24.4091C17.346 24.4074 17.3159 24.4043 17.286 24.4001C17.256 24.3958 17.2263 24.3902 17.1968 24.3834C17.1673 24.3766 17.1381 24.3686 17.1093 24.3594C17.0805 24.3501 17.052 24.3396 17.024 24.328C16.9961 24.3163 16.9686 24.3035 16.9416 24.2895C16.799 24.2143 16.6657 24.0988 16.6187 23.9367C16.5914 23.8425 16.5929 23.7382 16.6443 23.6528C16.7167 23.5327 16.8434 23.4775 16.9728 23.4501Z" fill="white"/>
<path d="M17.0018 23.7062C17.0814 23.7007 17.1597 23.6979 17.2383 23.7148C17.3719 23.7435 17.6427 23.8477 17.7052 23.9797C17.7223 24.0159 17.7136 24.0297 17.7005 24.064C17.6601 24.1037 17.6217 24.1149 17.5688 24.1316C17.4435 24.1545 17.3063 24.138 17.1848 24.1005C17.0866 24.0702 16.8939 23.981 16.8559 23.8778C16.848 23.8566 16.8474 23.8354 16.8566 23.815C16.8847 23.7526 16.943 23.7298 17.0018 23.7062Z" fill="white"/>
<path d="M15.7958 22.062C16.0628 22.053 16.3399 22.1209 16.5502 22.2961C16.6808 22.4048 16.7929 22.5632 16.8048 22.7392C16.8101 22.8178 16.7911 22.8934 16.7385 22.9525C16.6604 23.0403 16.5402 23.0704 16.4291 23.0753C16.1585 23.0792 15.9084 23.0164 15.679 22.8645C15.5428 22.7743 15.4146 22.6439 15.3836 22.4753C15.3685 22.3933 15.3788 22.311 15.4298 22.2436C15.5184 22.1265 15.6585 22.0808 15.7958 22.062Z" fill="white"/>
<path d="M15.732 22.3479C15.801 22.3416 15.8685 22.3374 15.9377 22.3438C16.1196 22.3605 16.3581 22.4317 16.4755 22.5825C16.5159 22.6344 16.539 22.6978 16.532 22.7641C16.5097 22.7972 16.4743 22.8023 16.4386 22.8132C16.4263 22.8138 16.4141 22.8142 16.4018 22.8145C16.1796 22.8189 15.8174 22.6752 15.6653 22.5071C15.638 22.4769 15.6355 22.461 15.6362 22.4212C15.6614 22.3764 15.6878 22.3669 15.732 22.3479Z" fill="white"/>
<path d="M13.0001 24.369C13.1653 24.3527 13.3718 24.369 13.5073 24.4763C13.5758 24.5306 13.616 24.6087 13.6238 24.6964C13.6349 24.8211 13.5802 24.9389 13.5018 25.0315C13.3274 25.2377 13.0286 25.3451 12.7694 25.3681C12.5947 25.3695 12.4029 25.3451 12.2542 25.2442C12.174 25.1898 12.1128 25.1116 12.0977 25.0127C12.0809 24.903 12.1195 24.7934 12.1858 24.708C12.3751 24.4643 12.7147 24.3977 13.0001 24.369Z" fill="white"/>
<path d="M13.0379 24.6412C13.1169 24.6339 13.2198 24.6415 13.2963 24.6614C13.3294 24.67 13.3564 24.6826 13.3739 24.7137C13.3729 24.7633 13.3617 24.7898 13.3283 24.8265C13.1763 24.9938 12.9216 25.0702 12.7051 25.0839C12.61 25.0847 12.501 25.0793 12.4175 25.0278C12.3783 25.0037 12.3555 24.9789 12.3453 24.9324C12.3521 24.9049 12.3576 24.8895 12.3769 24.8681C12.502 24.7291 12.86 24.6556 13.0379 24.6412Z" fill="white"/>
<path d="M13.271 25.4251C13.5718 25.4446 13.8712 25.4784 14.1725 25.4954C14.9625 25.5403 15.7532 25.5542 16.5443 25.5373C16.9225 25.5307 17.3018 25.5252 17.6795 25.5022C17.8763 25.4903 18.2287 25.433 18.4064 25.4576C18.4383 25.462 18.4587 25.4785 18.4826 25.499C18.496 25.5259 18.5002 25.5386 18.4978 25.5697C18.4931 25.6327 18.456 25.667 18.4116 25.7046C17.8583 25.7535 17.3041 25.7862 16.749 25.8028C16.1939 25.8194 15.6388 25.8198 15.0836 25.8041C14.6813 25.7892 14.2793 25.7672 13.8776 25.7379C13.7076 25.7248 13.5181 25.7227 13.3518 25.6838C13.2962 25.6707 13.211 25.648 13.176 25.5968C13.1674 25.5843 13.1596 25.5632 13.1633 25.5475C13.175 25.497 13.2307 25.4524 13.271 25.4251Z" fill="white"/>
<path d="M11.9294 6.22209C12.4385 6.1695 12.9785 6.45421 13.3174 6.82598C13.4091 6.9267 13.4753 7.08101 13.5845 7.16053C13.6862 7.23467 13.8438 7.24303 13.9625 7.28454C14.0469 7.31405 14.1269 7.36274 14.2003 7.41393C14.278 7.46819 14.4821 7.69257 14.5355 7.71231C14.6297 7.74708 14.906 7.58042 15.0162 7.5543C15.2063 7.50927 15.3985 7.51064 15.5858 7.56908C15.6041 7.57475 15.6224 7.58087 15.6405 7.58744C15.6585 7.59401 15.6765 7.60104 15.6942 7.60852C15.7119 7.61599 15.7295 7.62391 15.7469 7.63227C15.7642 7.64064 15.7814 7.64943 15.7983 7.65865C15.8153 7.66788 15.832 7.67751 15.8484 7.68756C15.8649 7.69762 15.8811 7.7081 15.8971 7.71898C15.9131 7.72985 15.9287 7.74112 15.9442 7.75278C15.9596 7.76445 15.9747 7.77649 15.9896 7.78891C16.0044 7.80134 16.019 7.81413 16.0332 7.82726C16.0474 7.84042 16.0613 7.85393 16.0749 7.8678C16.0885 7.88164 16.1017 7.89582 16.1146 7.91034C16.1275 7.92485 16.14 7.93968 16.1522 7.95482C16.1644 7.96997 16.1762 7.98542 16.1877 8.00117C16.1991 8.01691 16.2101 8.03292 16.2208 8.04921C16.2315 8.0655 16.2417 8.08206 16.2516 8.09888C16.2615 8.11569 16.2709 8.13273 16.2799 8.15002C16.4181 8.41808 16.4577 8.74711 16.3679 9.03781C16.3628 9.05417 16.3573 9.07041 16.3514 9.08651C16.3455 9.10259 16.3392 9.11851 16.3326 9.13429C16.3259 9.15006 16.3189 9.16566 16.3115 9.18109C16.304 9.19651 16.2962 9.21173 16.2881 9.22676C16.2799 9.24177 16.2714 9.25657 16.2625 9.27116C16.2537 9.28575 16.2444 9.30011 16.2348 9.31424C16.2253 9.32835 16.2154 9.34222 16.2051 9.35583C16.1949 9.36947 16.1843 9.38283 16.1734 9.39591C16.1625 9.40899 16.1512 9.42179 16.1397 9.4343C16.1282 9.4468 16.1164 9.45902 16.1043 9.47093C16.0921 9.48285 16.0798 9.49445 16.0671 9.50574C16.0544 9.51702 16.0414 9.52799 16.0282 9.53862C16.015 9.54926 16.0015 9.55955 15.9878 9.5695C15.9741 9.57945 15.9601 9.58904 15.946 9.59826C15.9318 9.60751 15.9174 9.61639 15.9028 9.6249C15.8881 9.63342 15.8733 9.64156 15.8583 9.64931C15.6911 9.73734 15.3988 9.81729 15.2157 9.75828C15.2125 9.69093 15.2126 9.63602 15.1769 9.57721C15.1473 9.55974 15.1366 9.55077 15.101 9.55403C14.9708 9.56595 14.8269 9.87825 14.7303 9.98541C14.3778 10.3766 13.8256 10.5383 13.3319 10.3546C13.1715 10.2949 13.0425 10.1956 12.8926 10.1173C12.8662 10.1036 12.8157 10.0798 12.786 10.0909C12.7243 10.114 12.6519 10.2042 12.604 10.2502C12.3546 10.4898 12.058 10.6419 11.7112 10.654C11.6983 10.6544 11.6855 10.6547 11.6726 10.6547C11.6598 10.6547 11.6469 10.6546 11.634 10.6542C11.6212 10.6539 11.6083 10.6534 11.5955 10.6526C11.5827 10.6519 11.5699 10.651 11.557 10.6499C11.5442 10.6488 11.5314 10.6475 11.5187 10.646C11.5059 10.6445 11.4931 10.6428 11.4804 10.641C11.4677 10.6391 11.455 10.6371 11.4423 10.6348C11.4296 10.6326 11.417 10.6302 11.4044 10.6276C11.3918 10.6249 11.3792 10.6222 11.3667 10.6192C11.3542 10.6162 11.3417 10.613 11.3293 10.6097C11.3169 10.6063 11.3045 10.6028 11.2922 10.5991C11.2798 10.5953 11.2675 10.5914 11.2553 10.5873C11.2431 10.5833 11.231 10.579 11.2189 10.5746C11.2068 10.5701 11.1947 10.5655 11.1828 10.5607C11.1708 10.5559 11.1589 10.5509 11.1471 10.5458C11.1352 10.5406 11.1235 10.5353 11.1118 10.5298C11.1002 10.5243 11.0886 10.5187 11.077 10.5128C11.0655 10.507 11.0541 10.501 11.0427 10.4948C11.0314 10.4886 11.0201 10.4823 11.009 10.4757C10.9978 10.4692 10.9868 10.4626 10.9758 10.4557C10.9648 10.4489 10.954 10.4419 10.9432 10.4347C10.9324 10.4275 10.9217 10.4202 10.9112 10.4128C10.9006 10.4053 10.8901 10.3976 10.8798 10.3898C10.8694 10.382 10.8592 10.3741 10.8491 10.366C10.8389 10.3579 10.8289 10.3497 10.8191 10.3413C10.8092 10.3329 10.7994 10.3244 10.7898 10.3157C10.7801 10.307 10.7706 10.2982 10.7612 10.2893C10.7518 10.2803 10.7425 10.2712 10.7334 10.262C10.7242 10.2527 10.7152 10.2434 10.7064 10.2339C10.6975 10.2244 10.6888 10.2147 10.6802 10.205C10.6716 10.1952 10.6631 10.1853 10.6548 10.1753C10.6465 10.1653 10.6383 10.1552 10.6303 10.1449C10.5398 10.0298 10.4707 9.8861 10.3629 9.78761C10.3591 9.78415 10.3552 9.78088 10.3513 9.77753C10.1494 9.80145 9.99316 9.87126 9.78436 9.81548C9.69889 9.79268 9.52886 9.73783 9.48441 9.66037C9.48509 9.61093 9.49996 9.58414 9.5239 9.54146C9.53621 9.51952 9.53285 9.51195 9.53251 9.48726C9.50855 9.44157 9.4806 9.42152 9.43929 9.39184L9.42316 9.38041C9.36821 9.3821 9.33162 9.38543 9.28692 9.42312C9.22667 9.47388 9.17235 9.57664 9.12461 9.64258C9.1046 9.67002 9.08368 9.69672 9.06187 9.72267C9.04006 9.74863 9.01739 9.77379 8.99388 9.79815C8.97036 9.8225 8.94604 9.846 8.92092 9.86865C8.89581 9.89128 8.86997 9.91301 8.84338 9.93382C8.8168 9.95464 8.78954 9.9745 8.76161 9.9934C8.73368 10.0123 8.70514 10.0302 8.676 10.0471C8.64687 10.0639 8.6172 10.0798 8.58699 10.0946C8.55678 10.1093 8.5261 10.123 8.49495 10.1357C8.48037 10.1414 8.46572 10.1468 8.45098 10.1521C8.43623 10.1573 8.42141 10.1623 8.4065 10.167C8.39159 10.1718 8.37661 10.1763 8.36157 10.1805C8.34653 10.1847 8.33143 10.1887 8.31625 10.1925C8.30108 10.1962 8.28585 10.1997 8.27057 10.2029C8.25529 10.2062 8.23996 10.2092 8.22458 10.2119C8.2092 10.2147 8.19379 10.2172 8.17833 10.2194C8.16286 10.2216 8.14737 10.2236 8.13186 10.2253C8.11634 10.227 8.10079 10.2285 8.08523 10.2297C8.06966 10.2309 8.05409 10.2319 8.0385 10.2325C8.0229 10.2332 8.0073 10.2337 7.9917 10.2339C7.97608 10.234 7.96047 10.234 7.94486 10.2336C7.92926 10.2333 7.91367 10.2327 7.89809 10.2318C7.88248 10.231 7.86691 10.2299 7.85136 10.2285C7.83582 10.2271 7.82029 10.2255 7.80478 10.2237C7.78927 10.2218 7.7738 10.2196 7.75837 10.2172C7.74293 10.2149 7.72755 10.2122 7.71221 10.2093C7.69685 10.2064 7.68155 10.2033 7.6663 10.1999C7.65105 10.1965 7.63586 10.1928 7.62073 10.1889C7.60559 10.185 7.59052 10.1809 7.57552 10.1765C7.56052 10.1721 7.54559 10.1674 7.53074 10.1626C7.51586 10.1577 7.50108 10.1525 7.4864 10.1472C7.47171 10.1418 7.45711 10.1362 7.4426 10.1303C7.42808 10.1245 7.41366 10.1184 7.39933 10.112C7.385 10.1057 7.37078 10.0991 7.35667 10.0923C7.34255 10.0855 7.32854 10.0785 7.31464 10.0712C7.30076 10.064 7.28699 10.0565 7.27333 10.0487C7.25967 10.041 7.24614 10.0331 7.23273 10.0249C7.21933 10.0168 7.20606 10.0084 7.19291 9.99976C7.17977 9.99117 7.16678 9.98236 7.15393 9.97332C7.14106 9.96429 7.12834 9.95505 7.11577 9.94559C7.10319 9.93614 7.09078 9.92649 7.07853 9.91663C6.97956 9.83688 6.87172 9.68924 6.75341 9.64464C6.64793 9.60488 6.49817 9.72591 6.40287 9.77171C6.22134 9.85897 6.01622 9.859 5.82919 9.79114C5.81226 9.78506 5.79549 9.77856 5.77887 9.77163C5.76224 9.76472 5.7458 9.75738 5.72954 9.74963C5.71329 9.74187 5.69722 9.73372 5.68136 9.72516C5.6655 9.71659 5.64985 9.70762 5.63441 9.69827C5.61898 9.68893 5.60378 9.6792 5.58881 9.66908C5.57387 9.65895 5.55916 9.64846 5.5447 9.63759C5.53026 9.62673 5.51608 9.6155 5.50216 9.60391C5.48826 9.59233 5.47464 9.58042 5.4613 9.56816C5.44797 9.55588 5.43495 9.54328 5.42224 9.53037C5.40952 9.51744 5.39712 9.5042 5.38503 9.49064C5.37295 9.4771 5.3612 9.46326 5.34979 9.44911C5.3384 9.43497 5.32734 9.42055 5.31662 9.40585C5.30592 9.39114 5.29558 9.37618 5.28559 9.36096C5.2756 9.34574 5.26599 9.33027 5.25677 9.31456C5.24753 9.29884 5.23867 9.2829 5.23019 9.26675C5.22174 9.25059 5.21367 9.23423 5.206 9.21768C5.19788 9.19974 5.19021 9.18161 5.18297 9.16328C5.17571 9.14496 5.1689 9.12648 5.16254 9.10782C5.15618 9.08916 5.15026 9.07035 5.1448 9.05139C5.13932 9.03242 5.13431 9.01334 5.12976 8.99415C5.1252 8.97494 5.1211 8.95563 5.11747 8.93623C5.11384 8.91683 5.11067 8.89734 5.10796 8.87776C5.10526 8.85819 5.10304 8.83857 5.10128 8.8189C5.0995 8.79923 5.0982 8.77952 5.09738 8.75977C5.09656 8.74003 5.09621 8.72028 5.09634 8.70053C5.09645 8.68077 5.09704 8.66102 5.09811 8.64129C5.09917 8.62157 5.10071 8.60188 5.10271 8.58222C5.10471 8.56255 5.10719 8.54296 5.11015 8.52344C5.11308 8.50391 5.11649 8.48446 5.12036 8.46509C5.12421 8.44575 5.12854 8.4265 5.13333 8.40734C5.13811 8.38821 5.14336 8.3692 5.14907 8.35031C5.15477 8.33142 5.16092 8.31269 5.1675 8.29411C5.27018 8.00071 5.48479 7.77656 5.75968 7.64522C6.08003 7.49216 6.44 7.49182 6.77002 7.61193C6.71115 7.72609 6.63654 7.90495 6.64627 8.03486C6.6493 8.07534 6.66395 8.10673 6.69656 8.13165C6.73015 8.15735 6.77673 8.17219 6.81854 8.16274C6.92691 8.13821 7.01202 7.779 7.11226 7.65765C7.27417 7.46166 7.45138 7.43653 7.68359 7.41545C7.71956 7.41219 7.771 7.40657 7.80181 7.38669C7.87311 7.34074 7.91975 7.14661 7.96299 7.07027C8.0094 6.98861 8.06282 6.91204 8.12325 6.84056C8.62324 6.24793 9.45927 6.09969 10.1521 6.39262C10.2667 6.44106 10.39 6.50208 10.4908 6.57558C10.5535 6.6213 10.609 6.6767 10.6768 6.7152C10.6993 6.72798 10.7295 6.74044 10.7557 6.73634C10.8635 6.71947 11.1001 6.48879 11.219 6.42021C11.4264 6.30058 11.6935 6.24028 11.9294 6.22209Z" fill="white"/>
<path d="M11.0399 7.09589C11.3648 7.10193 11.6659 7.184 11.9307 7.38191C12.1033 7.51091 12.3637 7.77897 12.3909 8.00473C12.396 8.04653 12.3898 8.09176 12.3607 8.1239C12.319 8.16999 12.2602 8.17111 12.2035 8.17417C12.1359 8.12207 12.0993 8.04547 12.055 7.97325C11.9159 7.74655 11.7404 7.55703 11.4873 7.46467C11.2897 7.39257 11.071 7.43351 10.8795 7.36702C10.8545 7.34344 10.8289 7.31239 10.8206 7.27747C10.8115 7.23912 10.8182 7.21056 10.8405 7.17867C10.8891 7.10926 10.9638 7.10262 11.0399 7.09589Z" fill="white"/>
<path d="M20.2783 18.1516L27.3173 18.1478L27.3175 19.5642C27.3185 19.8331 27.3327 20.1091 27.3143 20.3773C27.3033 20.5375 27.267 20.6991 27.2415 20.8577L27.1367 21.5415C27.0588 22.0193 26.9865 22.5016 26.8872 22.9752C26.7868 23.4384 26.6717 23.8978 26.542 24.3534C26.4123 24.8089 26.2682 25.2597 26.1098 25.7057C26.0173 25.9467 25.9347 26.206 25.8191 26.4359C25.7468 26.5798 25.6436 26.6991 25.4875 26.7466C25.3363 26.7927 24.2536 26.767 24.0055 26.7674L22.8478 26.7689C22.6226 26.7691 22.3945 26.7763 22.1697 26.7647C22.0834 26.7602 21.9591 26.751 21.8839 26.7067C21.6369 26.5614 21.429 25.9407 21.3492 25.6646C21.438 25.5553 21.505 25.4351 21.5062 25.2885C21.508 25.0473 21.3992 24.9125 21.2417 24.7517C21.0047 24.5097 20.9228 24.0681 20.8374 23.7484C20.3206 21.8137 20.2746 20.1334 20.2783 18.1516Z" fill="white"/>
<path d="M10.8566 13.2135C11.0133 13.0489 11.7163 12.3069 11.8553 12.2609C12.0116 12.3084 12.6706 13.0328 12.8343 13.2001C12.8364 13.6354 12.806 14.0727 12.7882 14.5076C12.7611 15.2776 12.7295 16.0474 12.6937 16.817L12.4395 23.1377C12.2314 23.1897 12.034 23.2602 11.8449 23.3639C11.4605 23.5745 11.2454 23.7972 11.1201 24.2261C10.7851 24.3603 10.5295 24.5069 10.3586 24.8424C9.93692 24.8374 9.51522 24.8361 9.09349 24.8384C8.79411 24.8358 8.16113 24.8776 7.90454 24.8264C7.87953 24.8216 7.8549 24.8153 7.83066 24.8075C7.80639 24.7996 7.7827 24.7903 7.75958 24.7795C7.73643 24.7687 7.71403 24.7565 7.69237 24.7429C7.67071 24.7293 7.64994 24.7144 7.63007 24.6982C7.51648 24.6051 7.42366 24.4498 7.39057 24.3052C7.33229 24.0503 7.31542 23.6037 7.28731 23.3199L7.08787 21.3804L6.59487 16.252C6.49935 15.2231 6.41926 14.1906 6.29944 13.1644C6.4421 13.0115 7.07418 12.2971 7.2258 12.2645C7.37379 12.3118 8.04409 13.0521 8.20597 13.2096C8.25054 13.524 8.24877 13.8608 8.26639 14.1785L8.36999 16.2164L8.69587 22.8456C8.70878 23.083 8.72842 24.1526 8.79633 24.2905C8.81709 24.3326 8.84007 24.3532 8.88511 24.3668C8.93933 24.3618 8.9824 24.3537 9.02011 24.31C9.05121 24.274 9.05376 24.2268 9.05539 24.1811C9.06139 24.0121 9.04029 23.8356 9.03249 23.666L8.98964 22.752L8.86008 20.2187C8.75519 17.8793 8.63825 15.5405 8.50926 13.2024C8.6955 13.0077 9.29068 12.3498 9.47684 12.2451C9.50687 12.2486 9.5358 12.2542 9.56186 12.2706C9.67052 12.3389 9.77642 12.4642 9.86863 12.5552C10.0955 12.7792 10.3159 13.0153 10.5548 13.2258C10.5692 13.5746 10.5588 13.9281 10.559 14.2773L10.5594 16.2057L10.5606 22.0072C10.5607 22.2891 10.5261 24.0856 10.5865 24.243C10.6012 24.2813 10.6282 24.3272 10.6686 24.341C10.7062 24.3539 10.7349 24.3406 10.7691 24.3266L10.7595 24.3182L10.7789 24.3208L10.7696 24.3072L10.7944 24.3101C10.8056 24.3 10.8168 24.29 10.8274 24.2793C10.8459 24.2605 10.8581 24.2478 10.866 24.2211C10.8961 24.1189 10.8658 23.6325 10.8649 23.4979L10.8643 22.1071L10.8566 13.2135Z" fill="white"/>
</svg>
