<svg width="66" height="66" viewBox="0 0 66 66" fill="none" xmlns="http://www.w3.org/2000/svg">
<g clip-path="url(#clip0_107_4626)">
<path d="M0 0H66V41.1943V42.8138V66H0V29.1838V27.6013V0Z" fill="white"/>
<path d="M10.4387 12.9113C10.7484 13.0258 11.0363 13.1626 11.3249 13.323C11.1017 13.3921 10.859 13.4289 10.63 13.4777C10.3583 13.5375 10.0884 13.6162 9.81891 13.6858C9.99441 13.3942 10.1996 13.1528 10.4387 12.9113Z" fill="#1C1C1C"/>
<path d="M48.8843 18.2527C49.1607 18.2105 49.6363 18.2265 49.8898 18.35C49.9567 18.3825 49.9611 18.3926 49.9822 18.4589C49.6664 18.7879 48.4081 19.3805 47.9409 19.5576C47.6489 19.6683 47.3472 19.7501 47.0438 19.8228C46.6378 19.8958 46.2902 19.8865 45.8845 19.8148C45.9244 19.7521 45.9661 19.6907 46.0126 19.6326C46.6752 18.8044 47.8602 18.369 48.8843 18.2527Z" fill="#1C1C1C"/>
<path d="M25.5468 9.58377C25.9167 9.51944 26.3558 9.5674 26.7317 9.57765C25.4953 10.2126 24.7809 10.9592 24.1173 12.1655C24.0812 12.2312 24.0516 12.3246 23.9837 12.3567C23.6688 11.7671 23.3746 11.1477 23.1064 10.5354C23.8355 9.9846 24.6429 9.69211 25.5468 9.58377Z" fill="#1C1C1C"/>
<path d="M35.7002 24.8601C36.8148 24.7605 38.3253 25.044 39.3151 25.5721C39.3166 26.0625 39.3745 26.5373 39.4786 27.0159C38.9225 26.5801 38.2996 26.2641 37.6488 25.9981C36.0895 25.4088 34.4574 25.2079 32.7981 25.2618C33.7208 25.0069 34.748 24.9336 35.7002 24.8601Z" fill="#1C1C1C"/>
<path d="M22.1562 4.1682C22.2606 4.16397 22.3748 4.1712 22.4769 4.19357C22.6326 4.22764 22.7794 4.30503 22.8643 4.44142C22.8743 4.51912 22.8814 4.5426 22.8524 4.61397C21.6466 4.64456 20.2019 6.62994 19.1426 7.25056C19.112 7.26409 19.0815 7.27801 19.0506 7.2911C18.9314 7.34169 18.7427 7.39158 18.6212 7.32029C18.555 7.28149 18.5247 7.21208 18.5147 7.13905C18.4716 6.82426 18.8424 6.33242 19.0286 6.09547C19.7818 5.13674 20.9229 4.32034 22.1562 4.1682Z" fill="#1C1C1C"/>
<path d="M30.0845 7.63049C30.145 8.73458 27.2189 10.5525 26.4348 11.4188C25.6858 12.2463 25.1679 13.2043 24.7333 14.2228L24.591 13.8492C24.4608 13.5076 24.3464 13.1033 24.1569 12.7912C24.4715 12.1918 24.7837 11.5905 25.2481 11.0902C25.8091 10.4858 26.5746 10.0158 27.3169 9.66728C28.5168 9.10389 29.4521 8.89197 30.0845 7.63049Z" fill="#1C1C1C"/>
<path d="M54.3338 25.8403C55.6788 26.1822 56.8614 26.5255 57.8704 27.5494C58.5795 28.269 58.8577 28.7809 59.8411 29.2032C59.3051 29.0856 58.8242 28.821 58.3416 28.5701C57.6769 28.2299 57.0035 27.8887 56.2826 27.6828C55.0649 27.3349 54.1087 27.6348 53.0362 28.2317C53.4814 27.4345 53.8205 26.6013 54.3338 25.8403Z" fill="#1C1C1C"/>
<path d="M49.6242 24.8282C50.3019 24.7683 51.0164 24.8366 51.6936 24.8872C51.1873 25.317 50.5607 25.6319 49.9971 25.9816C49.427 26.3367 48.8844 26.7297 48.3691 27.1604C48.0341 27.4613 47.6785 27.7847 47.4394 28.1693C47.2341 27.2151 47.2704 26.227 47.2812 25.2567C48.0566 25.0121 48.8138 24.8753 49.6242 24.8282Z" fill="#1C1C1C"/>
<path d="M41.5919 31.3649C41.6802 31.3575 41.7788 31.3335 41.8574 31.3824C41.8444 31.4102 41.8418 31.4202 41.8177 31.4453C41.6071 31.6657 41.2361 31.8056 40.9921 32.0038C40.6566 32.2763 40.3216 32.664 39.9389 32.8601C38.8321 33.4271 36.391 32.9855 35.0777 33.0009C33.1287 33.0236 31.5245 33.7927 30.1703 35.1816L29.9366 35.4639C30.0549 35.1089 30.2044 34.7468 30.4191 34.4385C30.7515 33.9612 31.3003 33.6338 31.7964 33.3528C33.3291 32.4845 34.6239 32.3697 36.3419 32.472C37.0337 32.5132 37.7045 32.5529 38.3924 32.4312C39.5186 32.2319 40.4746 31.5625 41.5919 31.3649Z" fill="#1C1C1C"/>
<path d="M37.1406 21.6518C37.9694 21.8048 39.242 22.8025 39.8099 23.4087C41.3051 25.0041 41.6627 27.2709 41.6008 29.3766C41.3153 29.1537 41.0772 28.6955 40.8504 28.4048C39.9659 27.271 39.8308 27.1664 39.7809 25.707C39.7672 25.3073 39.7345 24.9217 39.6261 24.5348C39.2433 23.1695 38.333 22.3291 37.1406 21.6518Z" fill="#1C1C1C"/>
<path d="M54.2253 23.1351C54.2253 23.1444 54.2265 23.1538 54.2253 23.1631C54.1037 24.1041 50.8003 26.8357 49.9863 27.694C49.3683 28.3458 48.8593 29.1297 48.1912 29.7288C48.1059 29.5928 48.0301 29.4504 47.9513 29.3107C47.7978 29.0326 47.6374 28.7569 47.5146 28.4635C48.4307 27.0646 49.9753 26.3287 51.3333 25.4518C51.584 25.29 51.7998 25.0796 52.0492 24.9181C52.2749 24.772 52.5249 24.6567 52.7565 24.5183C53.3577 24.1591 53.8065 23.6899 54.2253 23.1351Z" fill="#1C1C1C"/>
<path d="M34.7572 14.1295L34.889 14.1293C34.6947 14.2582 34.0329 14.369 33.7572 14.4677C32.7722 14.8202 31.8263 15.2251 30.7932 15.4282C28.9545 15.7897 26.8527 15.3472 25.3352 16.6672C25.2692 16.3461 25.2478 15.9943 25.224 15.6675C25.264 15.613 25.3053 15.5619 25.3503 15.5113C25.7594 15.0508 26.2984 14.7749 26.896 14.6455C28.0811 14.3889 29.6713 14.6964 30.9683 14.6144C32.2401 14.5341 33.4869 14.2012 34.7572 14.1295Z" fill="#1C1C1C"/>
<path d="M18.3821 17.952L18.4078 17.9563C18.4069 18.0347 18.0401 18.3788 17.9657 18.4642C17.6513 18.8258 17.3691 19.2241 17.0811 19.6072C16.2461 19.7082 15.4138 19.847 14.5796 19.9574C13.8786 20.0502 13.1729 20.1264 12.4781 20.2591C10.2231 20.6898 8.21656 21.6012 6.6682 23.3366L6.65602 23.3433L6.63843 23.3212C6.65564 23.2808 6.67278 23.2427 6.69366 23.204C6.91532 22.7925 7.22837 22.3994 7.53774 22.0508C8.73522 20.7015 10.2562 19.9556 12.028 19.6688C13.0095 19.5099 14.0089 19.4962 14.9761 19.2446C15.794 19.0319 16.5302 18.6319 17.307 18.3117C17.6572 18.1673 18.0198 18.061 18.3821 17.952Z" fill="#1C1C1C"/>
<path d="M25.0672 17.9205C25.1513 17.9123 25.2467 17.9204 25.3307 17.9278C26.3232 18.0156 27.3676 18.8779 27.9801 19.6116C29.3603 21.2651 30.0734 23.5826 29.8875 25.7316L29.7194 24.7617C29.6607 24.5084 29.5995 24.2533 29.5234 24.0048C28.9045 21.9842 27.3662 20.7475 25.7507 19.5295C25.1482 19.0752 24.5513 18.5974 23.8812 18.2457C24.2847 18.167 24.68 18.0586 25.0672 17.9205Z" fill="#1C1C1C"/>
<path d="M51.4709 29.2101C51.6197 29.1991 51.7666 29.1942 51.9157 29.1993C52.1477 29.2084 52.3779 29.2333 52.6065 29.2741C52.835 29.3149 53.0596 29.3712 53.2804 29.4429C54.1608 29.7353 55.0007 30.2265 55.8393 30.6232C56.7058 31.033 57.6151 31.3532 58.4227 31.8793C58.8934 32.186 59.2853 32.5581 59.6684 32.9664L59.6442 33.0357C59.6899 33.0542 59.67 33.0488 59.7026 33.0559C59.1793 32.5419 58.6312 32.2234 57.9514 31.9496C56.876 31.5144 55.6538 31.402 54.526 31.1366C53.3797 30.8669 52.186 30.366 51.0051 30.3242C50.2826 30.2987 49.6073 30.4889 48.925 30.6981C49.0309 30.538 49.1381 30.3742 49.2619 30.2274C49.8278 29.5564 50.6185 29.2862 51.4709 29.2101Z" fill="#1C1C1C"/>
<path d="M55.0017 27.7913C56.2771 27.6568 57.4411 28.3796 58.5371 28.9296C58.9503 29.1369 59.3839 29.3473 59.8414 29.4334C60.1475 29.491 60.4314 29.4793 60.7403 29.4516C59.8885 30.0548 59.1354 29.7618 58.1944 29.6215C57.3268 29.5653 56.4974 29.6103 55.7245 30.0447C54.6282 29.5928 53.803 29.0296 52.598 28.8021C53.3399 28.3124 54.1074 27.8994 55.0017 27.7913Z" fill="#1C1C1C"/>
<path d="M32.3103 25.4417C33.098 25.322 34.6112 25.5053 35.4077 25.6378C37.1588 25.929 38.7831 26.5709 39.9924 27.919C40.4103 28.3847 40.768 28.9112 41.131 29.4196C40.4353 29.2939 39.7552 29.2575 39.0511 29.3315C37.893 28.0579 36.4234 26.8629 34.8296 26.1956C34.0083 25.8518 33.1767 25.6371 32.3103 25.4417Z" fill="#1C1C1C"/>
<path d="M54.7129 22.7512C54.7509 22.8144 54.7481 22.881 54.7517 22.9524C54.7734 23.3808 54.7057 23.8509 54.5633 24.2557C54.3354 24.9037 53.8951 25.5078 53.5906 26.1273C53.2911 26.7365 53.0698 27.3888 52.7472 27.985C52.6022 28.2531 52.4411 28.503 52.2359 28.7289C52.0239 28.7187 51.8098 28.7109 51.5978 28.7205C50.6286 28.7644 49.6848 29.0859 49.0032 29.7978C48.7981 30.0121 48.6479 30.2762 48.4457 30.4917L48.4074 30.5319L48.2623 30.0135C48.7295 29.5814 49.0946 29.0966 49.5009 28.6108C49.8263 28.226 50.1672 27.8556 50.5237 27.4995C51.6212 26.3943 52.9324 25.4496 53.9135 24.2391C54.2834 23.7828 54.5218 23.304 54.7129 22.7512Z" fill="#1C1C1C"/>
<path d="M17.3291 10.4871L17.3919 10.4866C18.2028 10.4873 19.2446 10.6692 19.8368 11.2806C20.3849 11.8467 20.4415 13.7433 20.4157 14.5387C19.8489 14.0407 19.2942 13.5899 18.6426 13.2053C17.2676 12.4443 15.7466 11.924 14.214 11.5909C15.0822 10.8616 16.2196 10.5619 17.3291 10.4871Z" fill="#1C1C1C"/>
<path d="M10.0916 12.355C10.1532 12.3492 10.215 12.346 10.2769 12.3452C12.0346 12.3079 14.4864 13.1194 16.0201 13.9982C16.3035 14.1641 16.5785 14.343 16.8449 14.535C17.1113 14.7271 17.368 14.9314 17.6149 15.1479C18.3383 15.7822 18.9003 16.5531 19.5879 17.2173C18.3051 16.6901 17.0484 16.261 15.6383 16.279C14.4253 15.0323 12.9805 13.6315 11.4087 12.8502C10.9864 12.6403 10.5432 12.4882 10.0916 12.355Z" fill="#1C1C1C"/>
<path d="M37.7499 21.649C38.1423 21.6776 38.5882 21.9171 38.9419 22.0786C40.0896 22.6025 41.101 23.2847 41.9893 24.1851C42.6301 24.8344 43.2093 25.5289 43.8741 26.1589C43.7812 26.6207 43.6459 27.0729 43.5471 27.5334C43.3771 28.3259 43.3251 29.1067 43.3568 29.9141C43.3709 30.0827 43.4009 30.249 43.4285 30.4158C42.9016 30.1525 42.3788 29.8887 41.8423 29.645C41.9573 28.1573 41.778 26.5821 41.2231 25.19C40.5801 23.5772 39.3377 22.3326 37.7499 21.649Z" fill="#1C1C1C"/>
<path d="M30.3124 7.82782L30.3368 7.85914C30.4852 9.57018 29.6376 9.48562 29.1344 10.7837C28.7138 11.8686 28.7836 13.0744 28.2678 14.1416C27.3042 14.0883 26.3117 14.2847 25.5127 14.8453C25.387 14.9335 25.1761 15.178 25.0359 15.1987C24.841 14.6934 25.0194 14.2637 25.2004 13.7789C25.648 12.5805 26.4194 11.6037 27.3974 10.7918C28.4808 9.89232 29.8349 9.24701 30.3124 7.82782Z" fill="#1C1C1C"/>
<path d="M11.1999 11.6473C11.86 11.599 12.5816 11.6846 13.2336 11.7953C14.9382 12.0848 17.195 12.7272 18.6762 13.6237C19.3474 14.03 19.9435 14.5295 20.3989 15.1704C20.2815 15.8645 20.105 16.4196 19.7715 17.0406C19.4965 16.7055 19.2269 16.3681 18.9437 16.0395C18.6998 15.7653 18.4446 15.5018 18.1784 15.2492C16.0463 13.257 13.1241 12.2603 10.2397 12.1046C9.70548 12.0758 9.17091 12.1 8.63672 12.1176C9.4875 11.9 10.321 11.7053 11.1999 11.6473Z" fill="#1C1C1C"/>
<path d="M21.6611 18.5054C21.7304 18.5112 21.7134 18.5033 21.775 18.5332C22.0766 18.6793 22.6813 19.3327 22.7754 19.6452C23.0348 20.5065 19.8117 22.5079 19.0938 23.0104C18.7418 23.2567 18.3926 23.5185 18.0758 23.8091C17.4085 24.4214 16.9016 25.1571 16.4684 25.9469C16.3071 26.26 16.1881 26.6002 16.0358 26.9192C16.2628 25.817 16.5679 24.908 17.2741 24.017C17.6144 23.5876 17.9629 23.1745 18.1995 22.6759C18.6005 21.831 18.701 20.8828 19.2413 20.0964C19.7894 19.2989 20.7065 18.6826 21.6611 18.5054Z" fill="#1C1C1C"/>
<path d="M44.9133 31.9035C45.362 31.8981 45.8748 32.0512 46.3488 32.0685C46.158 32.7516 46.3498 33.5762 46.0725 34.1935C45.711 34.9988 44.2869 35.257 43.5219 35.5057C43.0982 35.6433 42.6717 35.8008 42.2685 35.9906C42.0617 36.087 41.8593 36.1918 41.6612 36.305C41.4631 36.4181 41.27 36.5392 41.0819 36.6683C40.8938 36.7975 40.7114 36.9341 40.5346 37.0783C40.3578 37.2225 40.1872 37.3737 40.0229 37.532C39.757 37.8001 39.5244 38.0955 39.2975 38.3965C39.4051 38.1376 39.5248 37.8845 39.6567 37.6371C39.7886 37.3897 39.932 37.1491 40.087 36.9155C40.97 35.5784 43.5002 32.547 44.9133 31.9035Z" fill="#1C1C1C"/>
<path d="M19.7726 17.828C20.3981 17.7736 21.1315 17.9276 21.6374 18.3125C21.1036 18.4998 20.5861 18.6982 20.1051 19.0019C18.3432 20.1142 18.6739 21.2637 17.813 22.8243C17.5931 23.223 17.3021 23.5666 17.0225 23.9237C16.4328 24.6768 16.1014 25.4242 15.8926 26.3536C15.8601 26.5321 15.7135 27.876 15.6936 27.9197C15.6862 27.9052 15.676 27.8919 15.6713 27.8763C15.5884 27.5958 15.5835 26.8076 15.5744 26.4767C15.5031 23.8884 16.1755 21.72 17.6136 19.5793C18.1592 18.7671 18.7762 18.0249 19.7726 17.828Z" fill="#1C1C1C"/>
<path d="M15.5572 16.7381C16.7184 16.5731 18.1856 17.026 19.2248 17.5271C18.6023 17.8127 17.9287 17.8989 17.2865 18.1273C16.3594 18.4568 15.5235 18.9443 14.5473 19.1439C13.9625 19.2636 13.3609 19.298 12.7674 19.3513C11.5483 19.4607 10.4386 19.7192 9.33958 20.2729C9.2007 20.3454 9.06451 20.4226 8.93101 20.5047C8.79751 20.5867 8.66703 20.6733 8.53959 20.7644C8.41214 20.8556 8.28803 20.951 8.16724 21.0508C8.0465 21.1507 7.92937 21.2546 7.81584 21.3625C7.64704 21.5238 7.50002 21.7268 7.32007 21.872C7.35049 21.773 7.41527 21.6963 7.47824 21.616C8.40623 20.4322 9.52198 19.5686 10.8711 18.9111C11.3851 18.6607 11.9171 18.4492 12.4184 18.173C12.7307 18.0009 13.0199 17.7781 13.3139 17.5769C14.0108 17.0999 14.719 16.8384 15.5572 16.7381Z" fill="#1C1C1C"/>
<path d="M50.357 30.5943C50.6505 30.5414 51.0117 30.5633 51.3074 30.5969C52.2358 30.7024 53.1317 31.071 54.0357 31.2966C55.8789 31.7564 57.957 31.8043 59.4868 33.0695C59.6466 33.2016 59.8299 33.3395 59.9578 33.5018L59.8993 33.5097L59.8925 33.4671C59.3697 33.1078 58.9034 32.9032 58.2942 32.7312C57.8537 32.6415 57.4348 32.59 56.9846 32.61C55.2004 32.6891 52.8782 33.7053 51.1679 33.1342C50.3811 32.1771 49.7949 31.4203 48.5056 31.2175C49.0738 30.873 49.7016 30.6843 50.357 30.5943Z" fill="#1C1C1C"/>
<path d="M43.382 31.3354C43.9498 31.2885 44.3437 31.5358 44.8133 31.8046C42.9818 32.882 40.7443 35.3403 39.6579 37.1719C39.4792 37.4752 39.3179 37.7874 39.1739 38.1086C39.0299 38.4297 38.9041 38.7579 38.7966 39.093C38.6906 39.4597 38.5931 39.8286 38.504 40.1997C38.4458 39.7122 38.3875 39.2268 38.3836 38.735C38.3689 36.9434 38.87 34.9896 39.9787 33.5656C40.7936 32.5188 42.0291 31.5082 43.382 31.3354Z" fill="#1C1C1C"/>
<path d="M36.0519 14.2585C36.5775 14.2473 37.0579 14.2949 37.5384 14.5196C35.6133 14.4786 33.718 15.3109 32.1183 16.3208C31.1947 16.9038 30.2957 17.5279 29.2701 17.923C28.5928 18.1839 27.8949 18.3052 27.1759 18.3743L26.8525 18.1442C26.3097 17.7939 25.7813 17.6067 25.1411 17.5317C25.2428 17.3161 25.3815 17.1212 25.5412 16.9449C25.9224 16.5243 26.393 16.2561 26.9344 16.0967C28.2079 15.7219 29.7517 15.8598 31.0986 15.5658C32.8487 15.1838 34.1803 14.3533 36.0519 14.2585Z" fill="#1C1C1C"/>
<path d="M39.4261 29.7247C40.7866 29.5955 42.2242 30.1338 43.3388 30.8972C43.0138 30.9849 42.6744 31.1182 42.339 31.1526C41.9262 31.1951 41.5237 31.1416 41.1137 31.2426C40.0253 31.5104 39.0871 32.1328 37.9471 32.238C36.4619 32.3749 35.3475 32.0013 33.7491 32.3348C32.739 32.5609 31.8251 33.01 31.0004 33.6276C31.044 33.5629 31.0896 33.4997 31.1373 33.438C31.5392 32.9231 32.122 32.4708 32.6822 32.1409C33.5037 31.6572 34.4248 31.332 35.3121 30.9906C36.6501 30.4758 37.9913 29.8967 39.4261 29.7247Z" fill="#1C1C1C"/>
<path d="M23.2973 18.4138C23.4055 18.3962 23.4821 18.3981 23.5871 18.432C24.4132 18.6991 27.2803 20.9686 27.9206 21.6617C28.3169 22.0905 28.6407 22.5853 28.9129 23.1006C29.3936 24.0101 29.8733 25.4704 29.8065 26.5098C29.7778 26.9546 29.648 27.3815 29.5163 27.8044C29.4297 27.8551 29.3491 27.9115 29.2482 27.927C29.1777 27.8615 29.1871 27.8066 29.1726 27.7132C29.0842 25.8567 27.9837 23.4454 26.2543 22.602C25.4751 22.2219 24.5343 22.0546 23.927 21.39C23.6108 21.0441 23.3583 20.5719 23.2799 20.1074C23.234 19.8356 23.2181 19.5688 23.0846 19.3205C22.9098 18.995 22.6217 18.7535 22.3539 18.507C22.6703 18.4908 22.9831 18.4519 23.2973 18.4138Z" fill="#1C1C1C"/>
<path d="M48.2351 31.5522C48.4518 31.5576 48.6686 31.6066 48.8715 31.6813C50.2283 32.1809 51.2898 33.998 51.8657 35.2646C52.8239 37.3721 53.4389 39.2671 52.5775 41.5574C52.5486 41.2853 52.5137 41.0141 52.4727 40.7436C52.1891 38.9439 51.3632 37.2759 49.7355 36.3523C49.0433 35.9595 48.3129 35.6687 47.6643 35.1982C47.2895 34.9054 46.9808 34.5789 46.8068 34.1289C46.5634 33.4992 46.5869 32.6234 46.8619 32.0081C47.0808 31.9508 47.2991 31.8913 47.5167 31.8295C47.5756 32.197 47.6851 32.5543 47.9246 32.8472C48.1955 33.1786 48.6916 33.4475 49.0478 33.6884C49.6774 34.1142 50.257 34.548 50.7496 35.1346C51.2175 35.6917 51.557 36.2929 51.8098 36.9737C51.8821 37.1682 51.9267 37.3792 52.0071 37.5687L52.0247 37.6094C52.014 36.0812 50.8289 34.6731 49.6348 33.8355C49.1221 33.4759 48.4543 33.1451 48.045 32.6738C47.8311 32.4275 47.6996 32.1067 47.5584 31.8153C47.7824 31.7217 48.0061 31.6327 48.2351 31.5522Z" fill="#1C1C1C"/>
<path d="M49.7829 19.1456L49.8062 19.1712C49.1643 19.9561 48.3285 20.3559 47.7351 21.2719C46.7103 22.854 46.5371 24.6435 46.5577 26.4776C46.5655 27.1747 46.5849 27.8953 46.7783 28.5693C46.8656 28.8667 46.9801 29.1533 47.1217 29.429C47.3471 29.8704 47.8374 30.4316 47.7322 30.9599C47.6934 31.1541 47.5659 31.2958 47.3982 31.394C46.7946 31.7474 45.8442 31.6593 45.1954 31.4931C44.8238 31.3485 44.4572 31.0924 44.1472 30.8446C43.6613 29.5783 43.8529 28.2701 44.2253 26.9982C44.3482 26.5783 44.5011 26.1608 44.5971 25.7341C44.7981 24.841 44.8243 24.1063 45.1276 23.1985C45.4281 22.2991 45.8773 21.4468 46.1579 20.5449L46.173 20.4957C47.4851 20.3418 48.634 19.7599 49.7829 19.1456Z" fill="#1C1C1C"/>
<path d="M22.4068 5.18671L22.4423 5.20604L22.352 5.38623C22.0485 5.97934 21.893 6.64787 21.8432 7.30942C21.6765 9.52242 22.6963 11.0656 23.5494 12.9942C24.0778 14.1887 24.5537 15.4818 24.7173 16.7855C24.7416 16.9796 24.761 17.2328 24.624 17.3924C24.1709 17.9204 22.6782 18.0034 22.0095 18.0384L21.6977 17.8327C21.2759 17.5863 20.7116 17.5408 20.3245 17.2616C20.3646 17.0509 20.4667 16.8463 20.5453 16.6471C20.6802 16.3051 20.8103 15.9445 20.8784 15.5826C21.3604 13.0222 20.6694 9.9246 19.193 7.80442C20.3809 7.16111 21.207 5.89238 22.4068 5.18671Z" fill="#1C1C1C"/>
<path d="M30.538 9.64844C31.1759 9.63349 31.8129 9.65121 32.4491 9.70162C35.7608 9.98495 38.7853 11.7511 40.9011 14.2747C42.562 16.2557 43.6573 18.6139 44.2076 21.1358C44.3099 21.6045 44.4585 22.15 44.4559 22.6294C44.4547 22.8528 44.176 23.5288 44.1111 23.7791C43.9907 24.2429 43.9365 24.7044 43.8948 25.18C43.0646 24.3065 42.3493 23.3579 41.3828 22.6195C39.9405 21.5175 37.846 20.5872 36.0125 20.8289C36.0013 20.8168 35.9904 20.8043 35.979 20.7923C34.5469 19.2902 32.5499 17.9532 30.4198 17.8776C32.5644 18.4203 34.2693 19.4461 35.6959 21.1369C35.6745 21.2722 35.6297 21.4235 35.6654 21.5595C35.7436 21.8569 36.7164 22.1862 36.9965 22.3438C37.8705 22.8357 38.5925 23.61 38.8639 24.5898C37.5691 24.0908 36.1949 24.0194 34.8296 24.1735L33.9021 24.3264C33.329 23.3295 32.6333 22.5016 31.8139 21.7007C31.6173 21.5086 31.4247 21.2938 31.1902 21.1481C31.2643 21.2918 32.0308 22.054 32.2098 22.2686C32.7501 22.9162 33.2213 23.6379 33.6237 24.3788C33.3335 24.4237 33.0473 24.4865 32.765 24.5673C32.3567 24.6822 31.3066 24.9622 31.1114 25.3528C31.0709 25.4338 31.0667 25.5211 31.0992 25.6062C31.1463 25.7296 31.2362 25.7972 31.3602 25.8295C31.6031 25.8926 31.8861 25.8578 32.1385 25.8869C32.877 25.972 33.5412 26.1696 34.2164 26.472C33.7916 26.5674 33.3542 26.6177 32.9268 26.7059C31.9421 26.9092 31.0352 27.1881 30.1019 27.5592C30.3557 26.5742 30.4 25.5151 30.32 24.5033C30.149 22.3429 29.2526 20.1232 27.5836 18.7017C28.5077 18.5861 29.3479 18.3564 30.1933 17.9601C30.9787 17.5919 31.705 17.0939 32.4398 16.6354C33.9961 15.6642 35.7297 14.8789 37.6029 14.9282C37.9063 14.9362 38.2141 14.9892 38.5148 15.0299C38.5866 14.9913 38.5943 15.0051 38.6237 14.9239C38.6038 14.8213 38.5651 14.7534 38.4962 14.6742C38.2907 14.4383 38.0147 14.296 37.7447 14.1464C35.7119 13.02 33.2781 13.9074 31.1296 14.1456C30.3129 14.2362 29.5089 14.2062 28.6922 14.1424C29.1973 12.7064 29.0546 11.2666 30.0134 10.0283C30.159 9.84019 30.2913 9.67751 30.538 9.64844Z" fill="#1C1C1C"/>
<path d="M11.9327 13.7725C11.959 13.7648 11.9717 13.7589 12.0019 13.7618C12.5385 13.8113 14.6708 15.8899 15.103 16.3593C14.6635 16.4721 14.221 16.5969 13.8104 16.7931C13.2468 17.0624 12.7761 17.4789 12.2311 17.7804C10.9418 18.4939 9.92015 18.7881 8.71153 19.7696C7.44006 20.8022 6.36085 22.2437 5.91396 23.8336C5.755 24.3991 5.68637 24.9673 5.6267 25.5493C5.85262 25.0993 6.14405 24.6532 6.44466 24.2506C9.09412 20.7024 12.8238 20.6249 16.8083 20.0411C16.731 20.1722 16.6554 20.3042 16.5816 20.4373C16.5401 20.5133 16.4994 20.5897 16.4595 20.6665C16.4197 20.7434 16.3807 20.8207 16.3425 20.8983C16.3043 20.976 16.267 21.0541 16.2305 21.1326C16.194 21.2111 16.1584 21.29 16.1236 21.3693C16.0889 21.4486 16.055 21.5282 16.022 21.6082C15.989 21.6883 15.9568 21.7687 15.9255 21.8494C15.8942 21.9301 15.8638 22.0111 15.8343 22.0925C15.8048 22.1739 15.7762 22.2556 15.7485 22.3376C15.7207 22.4196 15.6938 22.5019 15.6679 22.5844C15.6419 22.667 15.6169 22.7499 15.5927 22.833C15.5686 22.9161 15.5453 22.9995 15.523 23.0832C15.5007 23.1668 15.4793 23.2506 15.4587 23.3347C15.4382 23.4188 15.4187 23.5032 15.4 23.5877C15.3813 23.6722 15.3635 23.7569 15.3467 23.8419C15.3299 23.9268 15.314 24.0118 15.299 24.0971C15.284 24.1823 15.2699 24.2678 15.2568 24.3534C15.2437 24.4389 15.2315 24.5246 15.2202 24.6105C15.2089 24.6963 15.1986 24.7822 15.1892 24.8683C15.1798 24.9543 15.1713 25.0404 15.1638 25.1267C15.1563 25.2129 15.1497 25.2992 15.1441 25.3856C15.1384 25.472 15.1337 25.5584 15.13 25.6449C15.1262 25.7314 15.1233 25.8179 15.1215 25.9045C15.1196 25.991 15.1186 26.0776 15.1186 26.1641C15.1186 26.2507 15.1196 26.3372 15.1215 26.4238C15.1233 26.5103 15.1262 26.5968 15.1299 26.6833C15.1337 26.7698 15.1384 26.8563 15.144 26.9426C15.1496 27.029 15.1562 27.1153 15.1637 27.2015C15.1713 27.2878 15.1797 27.3739 15.1891 27.46C15.1985 27.5461 15.2088 27.632 15.2201 27.7178C15.2313 27.8037 15.2435 27.8894 15.2567 27.9749C15.2698 28.0605 15.2838 28.1459 15.2988 28.2312C15.3138 28.3164 15.3297 28.4015 15.3465 28.4864C15.442 28.9883 15.5911 29.4773 15.7345 29.967C16.089 28.8085 16.1932 27.6082 16.6571 26.4732C17.6403 24.0671 19.8218 23.1309 21.7188 21.618C22.1638 21.2632 22.5938 20.8967 22.953 20.4525C23.6083 21.9074 24.2064 22.1665 25.6247 22.7331C26.032 22.8958 26.4227 23.0846 26.7589 23.3701C28.14 24.5428 28.6759 26.4496 28.8172 28.1864C26.6229 29.4985 24.9449 31.0861 23.6251 33.2918C21.0317 37.626 20.5588 43.1435 21.7802 47.9855C21.3242 47.9933 20.8739 47.9456 20.4251 47.8661C17.5705 47.3598 15.2388 45.4125 13.625 43.0871C11.592 40.0385 10.6261 36.3813 10.601 32.7325C10.5756 29.0447 11.427 24.5666 14.1157 21.8439C13.7027 22.0642 12.9832 23.0888 12.6996 23.5078C10.2175 27.1753 9.71365 32.3469 10.5512 36.6081C11.2254 40.0381 12.7897 43.4407 15.4243 45.8076C15.9398 46.2707 16.5191 46.6637 17.0932 47.0496C13.9586 46.9557 10.8661 45.8051 8.34382 43.9595C4.3706 41.0524 1.73634 36.2094 1.00143 31.3873C0.345429 27.0829 1.08797 22.3618 3.71374 18.8082C5.65429 16.1819 8.69013 14.2608 11.9327 13.7725Z" fill="#1C1C1C"/>
<path d="M0 29.1838C0.0756183 29.6773 0.0970561 30.1819 0.150718 30.6786C0.227849 31.3814 0.342259 32.0779 0.493946 32.7684C1.5124 37.4868 4.11487 41.8343 8.02912 44.7013C8.16671 44.8021 8.30588 44.9007 8.44665 44.997C8.58737 45.0934 8.7296 45.1875 8.87333 45.2794C9.01706 45.3713 9.1622 45.4608 9.30877 45.5481C9.45534 45.6353 9.60326 45.7202 9.75253 45.8028C9.9018 45.8853 10.0523 45.9655 10.2042 46.0432C10.356 46.121 10.509 46.1964 10.6632 46.2693C10.8174 46.3421 10.9727 46.4126 11.1292 46.4805C11.2856 46.5485 11.4431 46.614 11.6017 46.6769C11.7602 46.7399 11.9197 46.8003 12.0802 46.8582C12.2406 46.9161 12.402 46.9714 12.5642 47.0242C12.7264 47.077 12.8894 47.1272 13.0532 47.1748C13.217 47.2223 13.3815 47.2673 13.5468 47.3097C13.712 47.352 13.8778 47.3918 14.0443 47.4288C14.2108 47.4659 14.3779 47.5004 14.5455 47.5322C14.713 47.5639 14.8811 47.593 15.0496 47.6194C15.2181 47.6459 15.387 47.6697 15.5563 47.6907C15.9463 47.7398 16.3423 47.7822 16.7353 47.7956C17.0916 47.8078 17.4827 47.7728 17.8321 47.8424C18.1631 47.9083 18.4887 48.1102 18.8115 48.2194C19.8664 48.5761 20.8841 48.7646 21.997 48.8062C23.0809 52.106 24.6361 54.7701 27.2682 57.0737C27.5247 57.299 27.788 57.5162 28.0578 57.7254C28.3277 57.9345 28.6037 58.1352 28.8858 58.3275C29.168 58.5197 29.4558 58.7032 29.7492 58.8778C30.0426 59.0524 30.341 59.2179 30.6446 59.3743C32.9883 60.5554 35.6819 61.261 38.32 61.0413C39.881 61.778 41.5028 62.2061 43.2406 62.1486C43.7167 62.1329 44.2355 61.9914 44.7037 62.0141C45.0232 62.0297 45.3466 62.1211 45.6609 62.1791C45.9383 62.2304 46.2226 62.2553 46.5034 62.2812C46.6372 62.2942 46.7711 62.3052 46.9052 62.3144C47.0393 62.3237 47.1735 62.331 47.3078 62.3365C47.4421 62.342 47.5764 62.3456 47.7108 62.3473C47.8453 62.3491 47.9797 62.3489 48.1141 62.347C48.2484 62.345 48.3828 62.3412 48.5171 62.3354C48.6514 62.3297 48.7855 62.3221 48.9196 62.3127C49.0537 62.3032 49.1876 62.2919 49.3214 62.2788C49.4552 62.2656 49.5887 62.2506 49.722 62.2337C49.8554 62.2168 49.9885 62.1981 50.1213 62.1776C50.2541 62.157 50.3867 62.1346 50.5189 62.1104C50.6511 62.0861 50.7829 62.06 50.9144 62.0321C51.0458 62.0042 51.1769 61.9745 51.3076 61.9429C51.4383 61.9114 51.5685 61.878 51.6982 61.8428C51.8279 61.8077 51.9571 61.7707 52.0858 61.732C52.2145 61.6932 52.3426 61.6527 52.4702 61.6103C52.5978 61.568 52.7247 61.5239 52.8511 61.4781C57.7468 59.7244 61.7546 55.3857 63.9312 50.7579C64.1499 50.2926 64.3526 49.8204 64.5395 49.3414C64.7264 48.8624 64.8968 48.3777 65.0506 47.8872C65.2049 47.3967 65.3424 46.9016 65.4631 46.4019C65.5843 45.9022 65.6883 45.399 65.7751 44.8922C65.8524 44.4281 65.8917 43.9617 65.933 43.4934C65.9517 43.2774 65.9484 43.0236 66 42.8138V66H0V29.1838Z" fill="#1C1C1C"/>
<path d="M35.0842 27.1804C35.3198 27.1508 35.5722 27.161 35.8103 27.1539C36.0632 27.3123 36.3112 27.4782 36.5542 27.6516C36.7972 27.825 37.0346 28.0055 37.2667 28.1932C37.4987 28.3809 37.7249 28.5755 37.9452 28.7769C38.1655 28.9782 38.3795 29.1861 38.5873 29.4004C37.6206 29.6405 36.6871 30.0168 35.7563 30.367C34.7406 30.7493 33.6891 31.1125 32.7404 31.6453C32.5891 31.7312 32.4407 31.8219 32.2953 31.9174C32.1498 32.0129 32.0076 32.113 31.8687 32.2176C31.7297 32.3223 31.5942 32.4313 31.4623 32.5447C31.3303 32.6581 31.2022 32.7757 31.0778 32.8973C29.886 34.0867 29.2556 35.4862 29.2586 37.1692C29.4612 36.8066 29.6865 36.4588 29.9347 36.1258C30.5616 35.2998 31.3363 34.5843 32.2592 34.1018C34.6802 32.8362 37.0237 33.7811 39.5677 33.4358C39.2242 33.8801 38.9507 34.4019 38.7332 34.9179C37.7883 37.1598 37.7044 39.6785 38.6303 41.9464C38.7177 41.2037 38.8293 40.4563 39.0847 39.7499C39.8396 37.662 41.7586 36.5139 43.7857 35.8713C44.8227 35.5427 45.7391 35.3883 46.4414 34.4815C47.7554 36.3814 49.4385 36.159 50.7416 37.7342C52.0741 39.345 52.3174 41.4376 52.1336 43.45C52.5979 42.6272 53.0037 41.8668 53.2339 40.9376C53.8608 38.4071 52.7921 35.8255 51.5013 33.6801C52.0209 33.7803 52.5474 33.7378 53.0691 33.6752C53.6961 33.5961 54.3191 33.4931 54.9382 33.3661C55.931 33.1705 56.9353 32.9227 57.953 33.0778C59.5806 33.3257 60.5484 34.5576 61.4608 35.8091C61.38 35.3852 61.2855 34.9714 61.1337 34.5665C61.1014 34.4816 61.0674 34.3975 61.0315 34.3141C60.9957 34.2307 60.9581 34.1481 60.9187 34.0663C60.8793 33.9845 60.8382 33.9036 60.7953 33.8236C60.7524 33.7436 60.7079 33.6645 60.6617 33.5864C60.6154 33.5082 60.5676 33.4311 60.518 33.3551C60.4684 33.279 60.4173 33.2041 60.3645 33.1302C60.3118 33.0563 60.2575 32.9836 60.2015 32.912C60.1457 32.8405 60.0883 32.7702 60.0295 32.7011C59.9705 32.632 59.9102 32.5643 59.8484 32.4977C59.7866 32.4312 59.7234 32.3661 59.6589 32.3023C59.5943 32.2385 59.5284 32.1761 59.4611 32.1151C59.3938 32.0542 59.3253 31.9947 59.2555 31.9366C59.1857 31.8786 59.1147 31.8221 59.0424 31.7671C58.9702 31.7121 58.8968 31.6587 58.8223 31.6069C58.7478 31.555 58.6722 31.5048 58.5955 31.4562C58.5188 31.4076 58.4412 31.3606 58.3625 31.3153C57.6425 30.9041 56.8577 30.5936 56.1045 30.2477C56.7816 30.027 57.4542 29.9424 58.1648 30.0242C59.7363 30.2053 61.4505 31.9734 62.3992 33.1614C64.8495 36.2301 65.5211 40.1664 65.0861 43.9923C65.065 44.1634 65.042 44.3341 65.0171 44.5046C64.9922 44.6751 64.9651 44.8453 64.9359 45.0151C64.9067 45.1849 64.8753 45.3544 64.8418 45.5235C64.8087 45.6925 64.7735 45.8612 64.7361 46.0294C64.6987 46.1977 64.6594 46.3654 64.6181 46.5327C64.5769 46.7 64.5335 46.8668 64.4879 47.033C64.4426 47.1992 64.3952 47.3649 64.3458 47.5299C64.2964 47.6951 64.245 47.8596 64.1916 48.0234C64.1383 48.1872 64.0829 48.3504 64.0256 48.5129C63.9683 48.6755 63.9091 48.8373 63.8479 48.9983C63.7867 49.1594 63.7235 49.3197 63.6585 49.4793C63.5934 49.6389 63.5264 49.7976 63.4575 49.9556C63.3886 50.1135 63.3178 50.2706 63.2451 50.4269C63.1724 50.5831 63.0978 50.7384 63.0214 50.8929C62.9449 51.0473 62.8666 51.2008 62.7865 51.3534C62.7064 51.5059 62.6244 51.6575 62.5406 51.808C62.4568 51.9586 62.3712 52.1082 62.2838 52.2567C62.1963 52.4052 62.1071 52.5526 62.0162 52.699C61.9252 52.8453 61.8325 52.9905 61.738 53.1347C61.6436 53.2788 61.5473 53.4217 61.4494 53.5635C61.3515 53.7053 61.2519 53.8459 61.1506 53.9853C61.0492 54.1247 60.9463 54.2629 60.8416 54.3997C60.737 54.5367 60.6307 54.6723 60.5228 54.8066C60.4148 54.941 60.3053 55.074 60.1942 55.2057C60.0831 55.3374 59.9704 55.4678 59.8561 55.5968C59.7418 55.7257 59.626 55.8533 59.5087 55.9795C59.3913 56.1057 59.2725 56.2305 59.1521 56.3538C59.0317 56.4771 58.9099 56.5989 58.7866 56.7193C58.6633 56.8397 58.5385 56.9586 58.4124 57.0759C58.2862 57.1933 58.1586 57.3091 58.0297 57.4234C57.9007 57.5377 57.7704 57.6504 57.6387 57.7616C57.507 57.8727 57.374 57.9823 57.2397 58.0902C53.7083 60.8977 50.1172 61.9415 45.643 61.432C47.7197 61.0189 49.6997 60.0312 51.3275 58.6834C54.6887 55.9005 56.4561 51.9018 56.8557 47.6059C56.8594 47.58 56.8629 47.5539 56.8653 47.5277C57.2188 43.5034 56.255 39.7127 54.1422 36.288C53.7251 35.612 53.276 34.8984 52.7615 34.2926C53.1432 34.9924 53.6138 35.6438 54.0082 36.3371C55.2051 38.4405 56.015 40.6847 56.352 43.0858C56.9731 47.5123 56.0705 52.3977 53.3404 56.0077C51.1309 58.9291 47.9468 60.7555 44.3257 61.2582C41.9089 61.5937 39.5517 61.0879 37.5939 59.5951C34.7834 57.4521 33.219 53.7525 32.764 50.3279C32.0603 45.0297 33.6248 39.2014 36.8716 34.9586L36.8593 34.9217C36.4488 35.305 36.0584 35.8486 35.7405 36.3132C32.8482 40.5403 31.5242 46.0086 32.4667 51.0673C33.1339 54.6481 34.7953 58.1832 37.8688 60.2931C34.1642 60.3292 30.8649 59.0782 28.0296 56.7C24.4518 53.6989 22.4039 49.3205 22.0039 44.697C21.6152 40.2023 22.6602 35.349 25.6165 31.838C28.0476 28.9506 31.3714 27.4986 35.0842 27.1804Z" fill="#1C1C1C"/>
<path d="M0 0H66V41.1943C65.8988 40.7671 65.9123 40.1051 65.8608 39.6444C65.4502 35.9754 63.4437 32.4699 60.5686 30.1761C61.1366 29.7529 61.5503 29.2146 61.7547 28.5264C59.5086 29.1773 59.5584 27.8972 58.1488 26.7234C57.194 25.9283 56.0116 25.4696 54.8138 25.1911C55.2852 24.2446 55.4275 23.5793 55.2891 22.5194C55.2492 22.2146 55.1744 21.5125 54.8821 21.3406C54.7918 21.2876 54.6446 21.2882 54.5451 21.3118C54.1706 21.4006 54.16 21.906 54.051 22.2078C53.9759 22.4159 53.8736 22.6196 53.7572 22.8076C53.4165 23.3581 52.7588 23.9733 52.1236 24.1506C51.8265 24.2335 50.0135 24.0632 49.4692 24.0692C48.7685 24.0771 48.0992 24.2174 47.4218 24.3809C47.6368 23.0135 48.0535 21.7958 49.0785 20.8171C49.3405 20.567 49.6466 20.3642 49.9157 20.121C50.3145 19.7607 50.8066 19.1716 50.8184 18.6075C50.8239 18.3439 50.7075 18.1057 50.522 17.9228C50.1497 17.5559 49.5492 17.4908 49.0499 17.5031C47.856 17.5325 46.3435 18.1606 45.5236 19.0387C45.3044 19.2735 45.0581 19.574 45.0806 19.9142C45.095 20.1305 45.1865 20.2432 45.3434 20.3828L45.3776 20.4127C45.2756 20.6316 45.1642 20.8468 45.0571 21.0633C44.2099 17.8946 42.9669 15.1872 40.6352 12.8272C37.9827 10.1425 34.8387 8.91722 31.0947 8.89105C31.1005 8.56247 31.1106 8.23182 31.0722 7.90479C31.0128 7.3989 30.7486 6.18684 30.3143 5.86826C30.2402 5.81389 30.1476 5.77561 30.0547 5.80322C29.6709 5.91729 29.7514 6.47889 29.7081 6.78227C29.6817 6.96777 29.6169 7.1581 29.5406 7.32871C29.1532 8.19438 28.2769 8.69518 27.4289 9.02582C26.258 8.78264 25.1043 8.75486 23.9671 9.18212C23.5992 9.32037 23.2494 9.50548 22.8832 9.65037C22.8018 9.44417 22.7358 9.23313 22.6852 9.01725C22.4345 7.92239 22.5318 6.61721 23.0704 5.6188C23.1898 5.3973 23.4031 5.24565 23.5304 5.03062C23.6473 4.83308 23.6543 4.60079 23.5969 4.38245C23.5919 4.36353 23.5865 4.34475 23.5806 4.32611C23.5747 4.30747 23.5684 4.28899 23.5615 4.27067C23.5548 4.25235 23.5475 4.23422 23.5397 4.21627C23.532 4.19832 23.5238 4.18058 23.5151 4.16305C23.5065 4.14552 23.4974 4.12821 23.4879 4.11114C23.4783 4.09407 23.4684 4.07725 23.458 4.06068C23.4476 4.04412 23.4368 4.02783 23.4256 4.01181C23.4144 3.99579 23.4028 3.98006 23.3908 3.96463C23.3788 3.9492 23.3664 3.93409 23.3537 3.91929C23.3409 3.90449 23.3277 3.89003 23.3142 3.87589C23.3008 3.86176 23.2869 3.84798 23.2727 3.83455C23.2585 3.82112 23.244 3.80806 23.2291 3.79537C23.2142 3.78267 23.199 3.77037 23.1835 3.75845C23.168 3.74652 23.1522 3.735 23.1362 3.72388C23.1201 3.71277 23.1037 3.70206 23.0871 3.69177C23.0705 3.68148 23.0536 3.67162 23.0365 3.66219C22.5405 3.38559 21.9323 3.46113 21.4102 3.61354C20.0489 4.01092 18.7175 5.06112 18.0475 6.31655C17.832 6.7204 17.636 7.34585 18.0251 7.71021C18.2508 7.92155 18.5009 8.03208 18.689 8.29202C19.0587 8.80307 19.333 9.5127 19.5142 10.1147C19.0552 9.92597 18.5531 9.81209 18.0592 9.76877C16.3333 9.61757 14.715 10.1226 13.3945 11.2375C13.1287 11.1747 12.861 11.1219 12.5914 11.079C11.0264 10.8379 9.7475 11.0622 8.28068 11.6391C7.97872 11.7579 7.60018 11.8712 7.34224 12.0717C7.23422 12.1557 7.12149 12.2788 7.12349 12.4251C7.12484 12.5226 7.18279 12.609 7.24434 12.68C7.31176 12.7577 7.37331 12.7928 7.4756 12.807C7.78697 12.8499 8.12799 12.7902 8.44355 12.7866C8.82183 12.7823 9.19946 12.8137 9.57619 12.8443C9.24554 13.1551 9.03079 13.5036 8.81442 13.8985C7.79567 14.314 6.81547 14.827 5.92931 15.4832C3.04387 17.6196 1.07323 21.0661 0.374836 24.5567C0.260002 25.1373 0.174646 25.7222 0.118768 26.3114C0.0798284 26.7283 0.0700245 27.1576 0.00510554 27.5705L0 27.6013V0Z" fill="#1C1C1C"/>
</g>
<defs>
<clipPath id="clip0_107_4626">
<rect width="66" height="66" rx="10" fill="white"/>
</clipPath>
</defs>
</svg>
