<svg width="66" height="66" viewBox="0 0 66 66" fill="none" xmlns="http://www.w3.org/2000/svg">
<g clip-path="url(#clip0_107_4633)">
<path d="M0 0H66V66H0V0Z" fill="#1C1C1C"/>
<path d="M31.4243 0.755352C32.3681 0.724292 33.3253 0.717273 34.269 0.746702C38.3823 0.874957 43.0815 1.36768 46.9281 2.84521C47.9989 3.25652 49.1244 3.7636 49.9159 4.6167C50.1523 4.87151 50.3471 5.14764 50.4638 5.47694C50.7636 6.32322 50.814 8.81596 50.7752 9.77728C50.7168 11.2228 50.7317 11.9632 49.6104 12.996C50.08 14.8243 50.829 15.2268 51.8868 16.597C52.3518 17.1994 52.7493 17.853 53.1495 18.4993C54.8773 21.2891 55.6441 23.5844 55.7705 26.8563C55.8869 29.8685 55.5485 32.8778 55.4625 35.8852L55.1832 44.6228L55.108 47.8358C55.0778 49.1759 55.0817 50.3059 54.759 51.6277C53.93 55.0234 52.1879 58.3566 49.8079 60.9235C49.2308 61.546 48.5972 62.1232 47.8716 62.5686C44.4869 64.6458 38.4409 65.1492 34.5066 65.2949C31.4334 65.4734 27.7202 65.1937 24.6794 64.6826C22.4447 64.3075 19.6226 63.6955 17.7276 62.3833C16.5718 61.5829 15.323 60.142 14.5028 58.9885C12.9258 56.7709 11.7014 54.1382 11.1466 51.4665C10.8679 50.1248 10.9139 48.7218 10.8665 47.3561L10.6529 41.0381L10.3704 32.6319C10.2882 30.5423 10.1266 28.41 10.2248 26.3208C10.2391 25.9682 10.2655 25.6165 10.3041 25.2657C10.3426 24.9149 10.3932 24.5659 10.4557 24.2186C10.5183 23.8713 10.5927 23.5265 10.6791 23.1844C10.7654 22.8422 10.8633 22.5034 10.973 22.1679C11.0741 21.8637 11.1857 21.5633 11.3077 21.2668C11.4298 20.9703 11.562 20.6784 11.7043 20.3911C11.8467 20.1038 11.9989 19.8218 12.1609 19.5451C12.3229 19.2684 12.4943 18.9976 12.6751 18.7328C13.3483 17.73 14.1057 16.7621 14.8451 15.8061C15.2614 15.268 15.7435 14.7335 16.0706 14.1357C16.2653 13.7799 16.3716 13.4325 16.4389 13.0341C15.8109 12.4417 15.3153 11.8654 15.265 10.967C15.2369 10.4667 15.2503 9.95981 15.2496 9.45882C15.2478 8.19502 15.203 6.54902 15.627 5.35085C15.7403 5.03069 15.9118 4.76406 16.14 4.51341C18.7079 1.69337 27.5726 0.923864 31.4243 0.755352Z" fill="white"/>
<path d="M41.081 50.1056C41.1459 50.1067 41.2183 50.104 41.2813 50.121C41.3705 50.145 41.4258 50.1954 41.4676 50.2761C41.4606 50.3843 41.4487 50.3999 41.3864 50.4901C41.3002 50.509 41.1914 50.5377 41.1036 50.5129C41.019 50.489 41.0101 50.454 40.9783 50.3815C40.9895 50.2684 41.0235 50.2027 41.081 50.1056Z" fill="#1C1C1C"/>
<path d="M29.0459 28.5255C29.2616 28.4913 30.5445 29.0418 30.9074 29.135C31.02 29.3333 31.1243 29.5373 31.2315 29.7386C30.9286 29.5976 29.125 28.7339 29.0459 28.5255Z" fill="#1C1C1C"/>
<path d="M31.4327 29.2404C31.7793 29.2798 32.1266 29.3103 32.4748 29.332C32.5238 29.7089 32.5497 30.0875 32.5523 30.4676C32.0222 30.1344 31.7558 29.7695 31.4327 29.2404Z" fill="#1C1C1C"/>
<path d="M37.6079 31.6845L37.6111 31.6882C37.6466 31.8653 37.2359 32.7306 37.1439 32.9533C36.9028 32.8391 36.6681 32.7083 36.432 32.584L35.9395 32.3332C36.5006 32.1341 37.0523 31.8995 37.6079 31.6845Z" fill="#1C1C1C"/>
<path d="M39.5653 27.2424C40.1438 27.1558 40.8018 27.2967 41.365 27.4233C41.1543 27.55 40.598 27.9437 40.3728 27.908C39.7056 27.7984 39.0694 27.6097 38.3925 27.5355C38.7799 27.4065 39.1606 27.3013 39.5653 27.2424Z" fill="#1C1C1C"/>
<path d="M22.924 45.656C23.6479 46.0728 24.5244 47.1631 25.0958 47.808L24.9035 48.0331L24.6637 48.2712C23.9183 47.5803 23.3701 46.5594 22.924 45.656Z" fill="#1C1C1C"/>
<path d="M46.0306 50.8442C47.4391 51.4525 48.7485 52.3466 49.5496 53.6812C49.2775 53.4971 48.9941 53.3335 48.7105 53.1682C47.4859 52.5057 46.1487 52.2714 44.7843 52.1088C45.1853 51.6761 45.6222 51.2712 46.0306 50.8442Z" fill="#1C1C1C"/>
<path d="M48.1474 48.2639L48.1759 48.278C48.3111 48.4851 48.3726 48.8559 48.4453 49.0953C48.8254 50.3465 49.159 51.4603 49.3481 52.7605C49.083 52.4336 48.7906 52.1404 48.4779 51.8592C47.8171 51.2859 47.1085 50.8856 46.3296 50.5023C46.9758 49.7889 47.5817 49.0427 48.1474 48.2639Z" fill="#1C1C1C"/>
<path d="M49.3851 45.1153C49.3914 45.1809 49.3702 45.2177 49.3415 45.275C48.9368 46.0852 48.4707 46.9042 47.9599 47.6525C47.5974 48.1837 47.1846 48.6804 46.7788 49.1788C45.2888 51.0098 43.4512 53.0395 41.1459 53.7956C40.4573 54.0214 39.9586 53.9459 39.3201 53.6225C39.193 53.5518 39.0838 53.4612 38.9703 53.3709C39.0883 53.3592 39.2062 53.3467 39.324 53.3332C42.6362 52.9562 44.8325 50.5557 46.8621 48.1652C47.7174 47.158 48.5628 46.1497 49.3851 45.1153Z" fill="#1C1C1C"/>
<path d="M51.9299 26.4166C51.9483 26.4743 51.9639 26.5261 51.9722 26.5863C52.1529 27.8969 51.563 29.4652 50.8028 30.511C49.6764 32.0605 47.986 32.9942 46.288 33.7802C45.1875 34.2896 44.1147 34.72 42.9093 34.9106L42.886 34.8909C42.9233 34.7126 43.2748 34.5131 43.4218 34.4175C43.9508 34.0733 44.5353 33.7878 45.0885 33.4828C46.1616 32.8909 47.2304 32.2962 48.2645 31.6377C48.8815 31.2448 49.4744 30.8154 50.0081 30.3135C51.1564 29.2338 51.8818 28.0138 51.9299 26.4166Z" fill="#1C1C1C"/>
<path d="M12.7868 43.0376C12.898 43.2596 12.9476 43.562 13.017 43.8025C13.1151 44.1413 13.2255 44.476 13.3481 44.8068C14.4395 47.7924 16.5241 49.8292 19.3209 51.2496C19.984 51.5863 20.6779 51.8239 21.3489 52.1357C21.287 52.271 21.2095 52.3914 21.1288 52.5156C18.7327 51.6057 16.4301 50.9832 14.5819 49.081C14.1196 48.6054 13.7006 48.0924 13.36 47.5218C12.5023 46.0847 12.3851 44.648 12.7868 43.0376Z" fill="#1C1C1C"/>
<path d="M51.2594 30.8651C51.2687 30.8744 51.2786 30.883 51.2871 30.893C51.4839 31.1229 51.5907 31.5205 51.7047 31.8033C52.3856 33.4931 52.9267 35.3415 52.7842 37.1774C52.1611 36.0267 51.1026 35.2374 49.9302 34.7082C48.5984 34.1362 47.4177 34.3357 46.0493 34.633C46.462 34.4334 46.8915 34.2713 47.3025 34.0684C49.1101 33.1764 49.9492 32.3758 51.2594 30.8651Z" fill="#1C1C1C"/>
<path d="M20.1923 30.9163L20.3313 30.9047C20.5573 31.0544 20.7973 31.5167 20.9798 31.7432C21.0935 31.8843 21.2293 32.0132 21.3622 32.1357C23.3253 33.9464 27.7576 34.6147 30.3611 34.6599C31.5516 34.6805 32.7196 34.5635 33.9057 34.5109C33.2769 34.6879 32.6445 34.8509 32.0084 34.9998C31.331 35.1421 30.6491 35.2585 29.9628 35.349C27.8212 35.6135 25.586 35.5315 23.5173 34.8807C23.1093 34.7523 22.6478 34.6097 22.2933 34.3684C21.8965 34.0984 21.3437 33.3536 20.9448 32.9832C20.4592 32.5398 19.9556 32.1179 19.4341 31.7173C19.1743 31.5216 18.8995 31.3482 18.6428 31.1477C19.1603 31.0796 19.6763 30.9948 20.1923 30.9163Z" fill="#1C1C1C"/>
<path d="M28.0722 28.7527C28.3446 28.9129 28.6777 29.021 28.9663 29.1541C29.4857 29.3936 29.9995 29.666 30.4959 29.95C32.4547 31.0706 34.3197 32.3439 36.3498 33.342C35.5194 33.1429 34.6863 32.9561 33.8504 32.7814C32.7193 32.5527 31.5802 32.3393 30.4725 32.0117C28.61 31.4608 26.9202 30.6048 25.2091 29.7015C25.9284 29.5655 27.3742 29.0266 28.0722 28.7527Z" fill="#1C1C1C"/>
<path d="M37.2298 28.0956C37.8507 28.0218 39.2377 28.1867 39.8016 28.3808C39.5533 28.6473 39.2929 28.895 39.0617 29.1785C38.6672 29.6622 38.3652 30.2013 38.0542 30.7396C37.1863 31.09 36.3089 31.4144 35.4218 31.7128L34.9854 31.847C34.314 31.4837 33.6594 31.0833 32.996 30.7051C32.9691 30.2466 32.9181 29.79 32.8999 29.331C34.4586 29.2852 35.9004 28.925 37.2298 28.0956Z" fill="#1C1C1C"/>
<path d="M49.8172 54.5445L49.8605 54.562C49.8887 54.6105 49.9035 54.6108 49.8889 54.6691C49.7574 55.1948 48.4481 56.3228 47.9613 56.6165C46.4906 57.5042 44.072 58.1036 42.3658 58.0167C41.2008 57.9573 40.1213 57.6283 38.9933 57.3758C38.2091 57.2003 37.4157 57.0678 36.6348 56.8774C36.202 56.7735 35.7763 56.6444 35.3512 56.513C37.5672 56.7339 39.7569 56.271 41.9682 56.176C43.4965 56.1104 45.0284 56.3015 46.5553 56.1973C47.9344 56.1032 48.9151 55.5817 49.8172 54.5445Z" fill="#1C1C1C"/>
<path d="M50.1538 45.0714C50.9551 45.8012 51.7427 47.3611 51.9567 48.3977C52.3403 50.2554 51.5247 52.401 50.5041 53.9451C50.4602 54.0107 50.4106 54.0699 50.3598 54.1302L50.328 54.1198C50.0914 51.8651 49.3919 49.6797 48.7346 47.5196C49.2486 46.728 49.6947 45.8953 50.1538 45.0714Z" fill="#1C1C1C"/>
<path d="M50.6824 50.7896C50.7377 50.7896 50.8019 50.7856 50.8546 50.8062C50.9269 50.8345 50.9818 50.9064 51.011 50.9763C51.0511 51.0724 51.0455 51.1805 51.003 51.275C50.9521 51.3886 50.881 51.4217 50.7732 51.4634C50.6495 51.4368 50.5378 51.4159 50.4678 51.2966C50.4625 51.2877 50.4577 51.2785 50.4535 51.2691C50.4492 51.2596 50.4454 51.25 50.442 51.2402C50.4388 51.2303 50.436 51.2203 50.4338 51.2103C50.4316 51.2001 50.4298 51.1899 50.4286 51.1796C50.4275 51.1693 50.4269 51.1589 50.4268 51.1486C50.4267 51.1382 50.4272 51.1279 50.4282 51.1175C50.4292 51.1072 50.4307 51.097 50.4328 51.0868C50.4349 51.0766 50.4375 51.0666 50.4406 51.0567C50.4819 50.9251 50.5697 50.8585 50.6824 50.7896Z" fill="white"/>
<path d="M17.3674 43.2384C18.7775 43.9026 20.368 44.1693 21.7182 44.9532C22.0829 45.7239 22.4412 46.4934 22.8841 47.2235C23.2414 47.8125 23.6547 48.3665 24.0629 48.9207L23.4865 49.5329L22.9808 50.0628C20.3933 48.6989 18.3212 45.9779 17.3674 43.2384Z" fill="#1C1C1C"/>
<path d="M29.6851 44.6214C29.9206 44.7022 30.3469 45.0839 30.592 45.2409C30.9782 45.4884 31.3765 45.6986 31.7914 45.8929C31.4311 46.1841 31.0247 46.4322 30.6404 46.691C29.9524 47.152 29.2675 47.6176 28.5859 48.0879C26.4574 49.5554 24.3846 51.0977 22.3674 52.7148C21.9444 53.0571 21.5428 53.4269 21.1367 53.7888C22.8235 50.0924 26.6967 47.2588 29.6851 44.6214Z" fill="#1C1C1C"/>
<path d="M27.312 55.6458C27.4168 56.2514 27.6243 56.8535 27.8797 57.4113C28.5045 58.7759 29.6373 59.682 31.0275 60.1998C29.6993 60.9956 28.0441 61.0103 26.5614 60.7704C26.4667 60.7553 26.3723 60.7381 26.2784 60.7189C26.1844 60.6997 26.0909 60.6785 25.9978 60.6552C25.9048 60.6319 25.8123 60.6066 25.7203 60.5793C25.6284 60.5519 25.5371 60.5226 25.4463 60.4913C25.3557 60.46 25.2657 60.4268 25.1765 60.3916C25.0873 60.3563 24.9989 60.3192 24.9113 60.2801C24.8236 60.241 24.7369 60.2001 24.6511 60.1572C24.5653 60.1143 24.4805 60.0696 24.3966 60.0231C24.3127 59.9765 24.2299 59.9281 24.1481 59.878C24.0664 59.8279 23.9858 59.7759 23.9063 59.7222C23.8268 59.6686 23.7485 59.6132 23.6714 59.5561C23.5943 59.499 23.5185 59.4402 23.444 59.3798C23.3695 59.3194 23.2963 59.2574 23.2245 59.1938C23.1527 59.1302 23.0823 59.0651 23.0133 58.9985C22.9443 58.9318 22.8768 58.8637 22.8108 58.7941C22.7448 58.7245 22.6803 58.6535 22.6174 58.5811C24.568 58.0946 26.0525 57.2413 27.312 55.6458Z" fill="#1C1C1C"/>
<path d="M14.6948 57.2308C15.0264 57.5595 15.2918 58.0167 15.5909 58.381C17.6405 60.877 20.5747 62.0428 23.6422 62.7338C24.3792 62.898 25.1206 63.0394 25.8663 63.1579C26.612 63.2764 27.3606 63.3719 28.1122 63.4442C29.5513 63.5795 30.9936 63.6555 32.4389 63.6725C36.5842 63.7478 40.8352 63.5126 44.7731 62.1093C45.6261 61.8053 46.4678 61.4608 47.2522 61.005C47.6843 60.7509 48.1019 60.4747 48.5047 60.1763C48.9076 59.878 49.2935 59.5591 49.6626 59.2198C49.94 58.9613 50.1787 58.6326 50.4666 58.3966C50.424 58.5369 50.284 58.6891 50.1984 58.8099C48.9028 60.6565 47.7097 61.7096 45.5791 62.5588C43.4768 63.3967 41.1359 63.725 38.8988 63.9684C37.019 64.1894 35.133 64.3169 33.2406 64.3508C29.2563 64.3942 23.081 63.8014 19.4491 62.2362C17.7112 61.4873 16.4202 59.9181 15.3917 58.3778C15.1525 58.0196 14.8545 57.6317 14.6948 57.2308Z" fill="#1C1C1C"/>
<path d="M49.6254 26.7501L49.6456 26.7655C49.5324 26.9511 49.1781 27.145 48.9957 27.2736C47.2228 28.524 45.3164 29.5478 43.411 30.5772C42.5406 31.0475 41.6521 31.5004 40.8081 32.0172C39.9875 32.5197 39.1677 33.0857 38.4344 33.7108C38.216 33.897 37.526 34.5956 37.3304 34.6741L37.3644 34.4724C38.0039 32.3885 38.8769 29.8862 40.7151 28.5657C41.2126 28.2084 42.1579 27.7879 42.7772 27.8007C43.1229 27.8079 43.4875 27.9083 43.8294 27.9641C46.0743 28.3306 47.7461 28.1009 49.6254 26.7501Z" fill="#1C1C1C"/>
<path d="M33.2417 37.6621C33.7371 37.6743 34.2744 37.8179 34.7581 37.9259C36.3695 38.2862 37.8687 38.9125 39.3019 39.7296C39.9999 40.1276 40.6686 40.5679 41.3809 40.9419L43.9623 42.3107C44.706 42.7049 45.4513 43.0858 46.1601 43.5414C45.3628 43.4624 44.5573 43.3234 43.7606 43.2223C41.5908 42.947 39.4438 42.6978 37.4212 41.8131C35.3955 40.9271 34.0606 39.7458 33.2417 37.6621Z" fill="#1C1C1C"/>
<path d="M22.8617 35.3712C25.1246 36.1079 27.4667 36.2446 29.8265 36.0609C29.9839 36.3526 30.0888 36.663 30.1978 36.9747C29.6969 37.1809 29.2186 37.4071 28.8027 37.76C28.0682 38.3833 27.6397 39.2218 27.5655 40.1824C27.4482 41.703 28.1711 42.9545 29.1254 44.0684L29.2056 44.1744C29.1813 44.3364 26.9465 46.1243 26.6114 46.4383C26.6366 46.3297 26.6608 46.2208 26.6838 46.1117C27.404 42.6709 25.7467 39.6359 23.9088 36.8738C23.5704 36.3653 23.1958 35.8827 22.8617 35.3712Z" fill="#1C1C1C"/>
<path d="M25.6599 38.3654C25.7083 38.382 25.7557 38.4065 25.8026 38.4274C25.8549 38.4957 25.8878 38.5299 25.8834 38.6225C25.8752 38.791 25.714 38.9443 25.5972 39.0473C25.5285 39.0383 25.4747 39.023 25.4105 38.9972C25.3628 38.9269 25.3363 38.8938 25.3467 38.8029C25.3667 38.6282 25.5333 38.4699 25.6599 38.3654Z" fill="white"/>
<path d="M44.3431 52.4916C45.9911 52.4978 48.373 53.1306 49.577 54.2347C49.1457 54.7654 48.5401 55.2477 47.9 55.4957C46.4386 56.0618 44.1765 55.7436 42.6069 55.7583C41.2643 55.7709 39.947 55.9125 38.615 56.0653C37.0785 56.2436 35.3293 56.4987 33.8964 55.7679C34.2473 55.8054 34.587 55.8439 34.9411 55.8327C36.4941 55.7835 37.7511 55.0745 38.8015 53.9625C39.26 54.2408 39.7096 54.4501 40.252 54.4876C41.5685 54.5784 43.3756 53.3401 44.3431 52.4916Z" fill="#1C1C1C"/>
<path d="M24.6562 29.8747C25.0823 30.0174 25.5853 30.3528 25.9935 30.5691C26.755 30.9769 27.533 31.3499 28.3278 31.6881C30.1168 32.4325 31.8665 32.8022 33.7556 33.181C34.642 33.3588 35.5234 33.5533 36.4122 33.7208C36.1472 33.7991 35.8526 33.8268 35.5795 33.869C34.5688 34.0254 33.543 34.0969 32.5244 34.1847C29.7786 34.3581 27.1583 34.0988 24.5167 33.3076C23.0938 32.8814 21.5596 32.1624 20.824 30.799C21.9241 30.5741 23.6735 30.2886 24.6562 29.8747Z" fill="#1C1C1C"/>
<path d="M36.8568 34.5567C36.9616 34.6228 36.5631 35.6899 36.7105 35.8971C36.7629 35.9706 36.7804 35.9827 36.8634 36.0009C37.0576 35.926 37.1225 35.7586 37.2063 35.5839C38.099 35.4296 39.0765 35.5451 39.9771 35.5908C41.5264 35.6692 43.0047 35.6019 44.511 35.2058C44.1404 35.4655 43.7691 35.7337 43.4365 36.0415C42.271 37.1202 41.6539 38.6202 41.5974 40.1966C41.0299 39.8728 40.4723 39.5287 39.9117 39.1927C37.403 37.6348 33.5699 36.4098 30.6031 36.8745C30.5144 36.5903 30.408 36.3197 30.2936 36.0453C30.967 35.9296 31.6359 35.8148 32.3023 35.6611C33.8247 35.3101 35.3247 34.8714 36.8568 34.5567Z" fill="#1C1C1C"/>
<path d="M13.5142 24.8363C14.8155 24.965 15.946 26.1775 16.9592 26.9159C17.7973 27.5267 18.7195 28.0496 19.7524 28.2321C20.5596 28.3747 21.4096 28.3321 22.2108 28.1717C24.1098 27.7915 25.7539 26.9706 27.7156 27.756C27.8634 27.8152 28.0088 27.8811 28.1539 27.9465C27.5318 28.2146 26.8711 28.3983 26.2298 28.6146C23.5675 29.5126 20.7977 30.2838 17.9872 30.5343C17.505 30.5773 17.0677 30.4448 16.5903 30.4225C15.7357 30.3824 14.9309 30.688 14.1865 30.0657C13.5644 29.4183 13.3274 28.6574 13.1824 27.7881C13.9287 27.9713 14.6784 28.1403 15.4182 28.3491C17.8592 29.0377 19.3741 29.5521 21.9764 29.3152C22.9382 29.2276 23.9094 29.0681 24.8584 28.8885C25.1423 28.8348 25.4729 28.7958 25.744 28.6984C25.8054 28.6763 25.8972 28.6138 25.9329 28.5559C25.9797 28.48 25.9797 28.4599 25.9612 28.3791C25.8041 28.2548 25.4479 28.356 25.2675 28.395C23.1837 28.8461 20.8399 29.2308 18.7241 28.799C16.8371 28.4138 15.0259 27.7378 13.1219 27.4064C13.075 26.5195 13.1248 25.6482 13.5142 24.8363Z" fill="#1C1C1C"/>
<path d="M37.3294 48.3058L37.3569 48.3106C37.4097 48.4247 37.2689 48.8783 37.2432 49.0266C37.1392 49.6252 37.1611 50.2295 37.2018 50.8323C36.5924 51.3732 35.8436 51.8077 35.1271 52.1901C32.5628 53.5586 29.8131 54.3024 26.9153 54.4846C25.4152 54.5788 23.9119 54.4617 22.4196 54.6755L22.3627 54.6715C22.6759 54.4429 23.5078 54.1539 23.9172 53.9821L28.7852 51.9943C31.6457 50.7982 34.4487 49.4496 37.3294 48.3058Z" fill="#1C1C1C"/>
<path d="M17.1903 31.0629C17.2124 31.0689 17.2414 31.0761 17.2637 31.0841C17.8337 31.2899 18.3667 31.7394 18.8286 32.1231C20.6132 33.6054 21.857 35.2216 23.1502 37.1361C23.8147 38.1199 24.4514 39.1167 24.9702 40.1867C25.964 42.2366 26.4429 44.5669 25.6776 46.7714C25.6257 46.9121 25.5655 47.0436 25.4991 47.1778C25.381 46.1085 25.195 45.1405 24.7009 44.1691C24.0288 42.8477 22.9652 41.74 22.0499 40.5861C21.7313 40.1811 21.4319 39.7623 21.1519 39.3297C20.8718 38.8972 20.6121 38.4527 20.3729 37.9962C19.9145 37.0892 19.5126 36.1579 19.1671 35.2022C18.6308 33.7488 18.2963 32.2168 17.1903 31.0629Z" fill="#1C1C1C"/>
<path d="M51.3935 25.3925C51.504 25.5402 51.556 25.8421 51.5785 26.0269C51.6755 26.8263 51.4422 27.6425 51.0719 28.3462C49.8928 30.5867 47.2242 31.9092 45.0702 33.0192C44.0531 33.5434 42.9177 34.0684 42.1922 34.983C40.6833 35.1237 39.1529 34.9699 37.6407 35.0811L37.4793 35.0986L37.4591 35.0744C37.7982 34.7406 38.1805 34.4396 38.5494 34.1396C39.1568 33.6458 39.7824 33.1625 40.4405 32.7375C41.1739 32.2641 41.951 31.8585 42.7183 31.4433C44.8008 30.3165 46.9555 29.2762 48.9251 27.9539C49.4424 27.6066 50.0606 27.1926 50.4298 26.6881C50.8639 26.0949 50.6823 25.937 51.3935 25.3925Z" fill="#1C1C1C"/>
<path d="M14.0127 41.048C14.8722 41.8182 15.8059 42.5891 16.8872 43.0279C16.8961 43.0676 16.9059 43.1071 16.9167 43.1463C17.5537 45.4848 19.5262 48.1027 21.4261 49.5689C21.8254 49.877 22.2595 50.1233 22.6952 50.375C22.4027 50.8067 22.0355 51.2103 21.7136 51.6233C21.6787 51.6708 21.6486 51.6995 21.6003 51.7332C21.2773 51.73 20.8801 51.4913 20.5901 51.361C19.4654 50.8555 18.4045 50.3478 17.4151 49.5978C15.0004 47.7674 13.5121 45.1819 13.1013 42.1835C13.3862 41.7846 13.6621 41.3935 14.0127 41.048Z" fill="#1C1C1C"/>
<path d="M14.8657 50.1263C15.1059 50.271 15.3322 50.4658 15.5629 50.628C15.8894 50.8576 16.2334 51.0657 16.5789 51.2652C17.9246 52.0423 19.3562 52.5607 20.7945 53.1326C20.5826 53.6241 20.3714 54.1238 20.2269 54.6399C20.1536 54.9021 19.988 55.3881 20.1303 55.6427C20.3527 55.7766 21.381 55.4665 21.6554 55.4042C23.2949 55.0321 25.0031 55.1108 26.6738 55.1411C26.4638 55.4655 26.2087 55.7494 25.9431 56.0288C25.6873 56.2819 25.3953 56.5163 25.1019 56.7246C23.5226 57.8461 21.5399 58.1129 19.6571 57.7885C18.2133 57.5397 17.0116 56.7557 16.1746 55.5583C15.0863 54.0016 14.5252 52.0172 14.8657 50.1263Z" fill="#1C1C1C"/>
<path d="M19.7263 56.2831C19.7788 56.2933 19.8228 56.2995 19.8691 56.3307C20.0166 56.4304 20.2048 56.6509 20.353 56.7759C20.414 56.8274 20.5709 56.9289 20.6092 56.9913C20.6203 57.0094 20.6193 57.0324 20.6245 57.053C20.5946 57.1642 20.5214 57.2399 20.4501 57.327C20.3026 57.289 20.1865 57.2107 20.0661 57.1203C19.8919 56.9896 19.5875 56.7443 19.5889 56.5046C19.5895 56.3953 19.6566 56.3538 19.7263 56.2831Z" fill="white"/>
<path d="M18.3108 52.8901C18.5876 52.8694 18.851 52.8995 19.1005 53.0312C19.395 53.1866 19.603 53.4568 19.6873 53.7781C19.6927 53.7982 19.6976 53.8185 19.7019 53.8389C19.7062 53.8593 19.7101 53.8797 19.7134 53.9003C19.7167 53.9209 19.7196 53.9415 19.7219 53.9622C19.7242 53.9829 19.7259 54.0036 19.7272 54.0244C19.7284 54.0452 19.7292 54.066 19.7294 54.0869C19.7296 54.1077 19.7293 54.1285 19.7285 54.1493C19.7277 54.1701 19.7263 54.1909 19.7245 54.2116C19.7226 54.2324 19.7202 54.2531 19.7174 54.2737C19.7145 54.2943 19.7111 54.3149 19.7071 54.3353C19.7032 54.3558 19.6988 54.3762 19.6938 54.3964C19.6889 54.4167 19.6835 54.4368 19.6775 54.4567C19.6716 54.4767 19.6652 54.4965 19.6583 54.5161C19.6513 54.5358 19.6439 54.5552 19.636 54.5745C19.6281 54.5938 19.6197 54.6128 19.6109 54.6317C19.602 54.6506 19.5927 54.6692 19.5829 54.6876C19.5732 54.706 19.5629 54.7241 19.5522 54.742C19.3549 55.0671 19.0443 55.2363 18.6824 55.3203C18.4103 55.3345 18.1724 55.3153 17.9217 55.1929C17.6155 55.0435 17.379 54.7817 17.2821 54.4526C17.2761 54.432 17.2707 54.4113 17.2659 54.3904C17.261 54.3695 17.2567 54.3485 17.2529 54.3274C17.2491 54.3063 17.2458 54.2851 17.2431 54.2638C17.2404 54.2425 17.2383 54.2212 17.2366 54.1998C17.235 54.1784 17.2339 54.157 17.2334 54.1356C17.2329 54.1142 17.2329 54.0927 17.2335 54.0713C17.234 54.0498 17.2351 54.0284 17.2368 54.007C17.2385 53.9857 17.2407 53.9643 17.2435 53.9431C17.2462 53.9218 17.2495 53.9006 17.2533 53.8795C17.2571 53.8584 17.2615 53.8374 17.2665 53.8165C17.2714 53.7956 17.2768 53.7749 17.2828 53.7543C17.2887 53.7337 17.2952 53.7133 17.3022 53.693C17.3092 53.6727 17.3168 53.6526 17.3248 53.6327C17.3328 53.6129 17.3414 53.5932 17.3504 53.5738C17.3595 53.5543 17.369 53.5351 17.379 53.5161C17.389 53.4972 17.3995 53.4785 17.4105 53.4601C17.6224 53.1095 17.9309 52.979 18.3108 52.8901Z" fill="white"/>
<path d="M18.4257 53.2733C18.547 53.2779 18.6595 53.2935 18.775 53.3334C19.0816 53.4393 19.216 53.7207 19.3447 53.9926C19.1825 53.8263 19.0206 53.6954 18.7764 53.6945C18.6347 53.694 18.5099 53.7524 18.4168 53.8586C18.2512 54.0476 18.2485 54.2722 18.26 54.5092C18.3174 54.6501 18.4579 54.75 18.488 54.8847L18.4564 54.9028C18.3385 54.8967 18.2325 54.8785 18.1244 54.8284C17.9307 54.7387 17.7671 54.54 17.7034 54.3375C17.6962 54.3138 17.6901 54.2897 17.6853 54.2654C17.6805 54.2411 17.6769 54.2166 17.6746 54.1919C17.6722 54.1673 17.6711 54.1425 17.6711 54.1177C17.6712 54.093 17.6725 54.0682 17.6751 54.0436C17.6776 54.0189 17.6814 53.9944 17.6864 53.9701C17.6913 53.9459 17.6975 53.9219 17.7049 53.8982C17.7122 53.8745 17.7208 53.8513 17.7304 53.8285C17.7401 53.8057 17.7509 53.7834 17.7628 53.7616C17.9081 53.4911 18.1389 53.3535 18.4257 53.2733Z" fill="#1C1C1C"/>
<path d="M32.2777 46.0771C32.458 46.067 33.3572 46.3946 33.6294 46.4581C35.2124 46.8268 36.8372 46.8484 38.4377 46.6096C38.0924 46.9975 37.8107 47.3507 37.5711 47.8147C37.0461 47.9588 36.5392 48.1982 36.0374 48.4085C35.0053 48.848 33.9771 49.2965 32.9529 49.7541C30.403 50.8908 27.8297 51.9716 25.2329 52.9966C24.1281 53.4406 23.0313 53.9035 21.9424 54.3855C21.5531 54.5617 21.1826 54.7762 20.7919 54.9492C20.9516 54.6513 21.1232 54.4085 21.3565 54.1634C22.3347 53.1357 23.5441 52.2806 24.6714 51.4246C27.1463 49.556 29.6817 47.7735 32.2777 46.0771Z" fill="#1C1C1C"/>
<path d="M37.3448 51.6605C37.4316 51.7659 37.6244 52.3591 37.7087 52.5338C37.8865 52.9025 38.1023 53.245 38.3251 53.5875C38.1901 53.8224 38.02 54.0228 37.8203 54.2049C36.8255 55.1124 35.5736 55.4431 34.2551 55.3742C34.2087 55.3367 34.1633 55.3006 34.1115 55.2705C33.9953 55.2031 33.8517 55.1541 33.7189 55.2031C33.6071 55.2444 33.5368 55.3391 33.502 55.4493C33.4425 55.638 33.4805 55.8601 33.5752 56.0308C34.0049 56.8045 36.9003 57.52 37.8063 57.7569C36.7217 58.8424 35.1353 59.5754 33.613 59.7183C32.3056 59.8049 30.8981 59.5208 29.853 58.6905C28.7689 57.8291 28.1985 56.472 28.0509 55.1189C30.6031 54.9054 33.2568 54.1066 35.4961 52.8604C36.1396 52.5024 36.7432 52.084 37.3448 51.6605Z" fill="#1C1C1C"/>
<path d="M32.255 57.333C32.3876 57.3596 32.5197 57.4003 32.6011 57.5168C32.6592 57.6001 32.6755 57.6984 32.6492 57.7966C32.6063 57.9573 32.5051 58.0259 32.3714 58.1093C32.2247 58.0702 32.1035 58.0067 32.0278 57.8697C31.9772 57.778 31.959 57.6783 31.9933 57.5771C32.039 57.4418 32.1312 57.3892 32.255 57.333Z" fill="white"/>
<path d="M51.5205 40.929C51.5199 41.1079 51.3105 41.4603 51.2262 41.628C50.2603 43.5507 48.8731 45.1559 47.4969 46.7893C46.7242 47.7064 45.9669 48.6319 45.1495 49.5107C43.3984 51.3936 41.2825 52.8932 38.622 52.9879C38.3508 52.5673 38.1225 52.1291 37.9822 51.6468C37.6172 50.3929 37.5666 48.8961 38.2244 47.7271C38.7642 46.7682 39.5553 46.2913 40.5597 45.9253C40.8083 45.8347 41.0677 45.7243 41.328 45.6737C41.6056 45.6196 41.905 45.6183 42.1875 45.5914C42.6677 45.5473 43.1451 45.482 43.6195 45.3956C44.3208 45.2674 44.9998 45.0854 45.6908 44.9127C46.1416 44.8001 46.5944 44.7018 47.0418 44.5755C46.7308 44.8475 46.4161 45.115 46.0975 45.378C45.3591 45.9356 44.6106 46.492 43.8148 46.9661C42.6743 47.6455 40.9575 48.2819 40.0819 49.2368C39.7381 49.6118 39.4666 50.0961 39.4973 50.6197C39.4986 50.6428 39.5006 50.6659 39.5031 50.6889C39.5057 50.7119 39.5088 50.7349 39.5125 50.7577C39.5162 50.7806 39.5204 50.8034 39.5252 50.8261C39.53 50.8487 39.5354 50.8712 39.5414 50.8936C39.5473 50.916 39.5538 50.9382 39.5609 50.9602C39.568 50.9823 39.5757 51.0042 39.5838 51.0259C39.592 51.0476 39.6007 51.069 39.6099 51.0902C39.6192 51.1115 39.6289 51.1325 39.6392 51.1532C39.6496 51.174 39.6604 51.1945 39.6717 51.2147C39.683 51.2349 39.6948 51.2548 39.7072 51.2744C39.7195 51.294 39.7323 51.3133 39.7456 51.3323C39.7589 51.3513 39.7726 51.3699 39.7868 51.3881C39.8011 51.4065 39.8157 51.4244 39.8309 51.4419C39.846 51.4595 39.8615 51.4766 39.8775 51.4934C39.8935 51.5102 39.9099 51.5265 39.9268 51.5425C39.9436 51.5584 39.9608 51.5739 39.9783 51.589C40.2404 51.8137 40.5674 51.9192 40.9111 51.8839C41.3223 51.8418 41.6802 51.6179 41.9244 51.2891C42.0881 51.0687 42.1257 50.7747 42.0733 50.5102C42.0193 50.2376 41.8663 49.9897 41.6284 49.8412C41.4444 49.7264 41.2252 49.689 41.015 49.745C40.8015 49.8018 40.6006 49.9414 40.496 50.1387C40.3924 50.3344 40.3819 50.5628 40.4481 50.7724C40.5078 50.9608 40.6162 51.1301 40.7951 51.2212C40.9106 51.2801 40.9788 51.3009 41.0231 51.4286L40.9641 51.4745C40.7369 51.512 40.4138 51.4347 40.2292 51.2977C40.043 51.1595 39.9402 50.9604 39.9116 50.7322C39.8358 50.1269 40.245 49.5935 40.6757 49.2214C41.3094 48.6739 42.1317 48.3515 42.8662 47.9606C43.2111 47.7805 43.551 47.5914 43.886 47.3934C44.221 47.1955 44.5506 46.9888 44.8747 46.7735C45.1989 46.5582 45.5172 46.3346 45.8296 46.1026C46.142 45.8707 46.4481 45.6307 46.7479 45.3826C47.0552 45.131 47.4035 44.8707 47.6445 44.5532C47.7363 44.4322 47.7814 44.3307 47.7562 44.1758C47.7489 44.1311 47.7322 44.0738 47.7375 44.0287C47.7629 43.8105 48.0546 43.5764 48.2069 43.4317C48.7828 42.8846 49.3843 42.4045 50.0382 41.9537C50.5326 41.6129 51.05 41.303 51.5205 40.929Z" fill="#1C1C1C"/>
<path d="M47.8765 35.0439C47.8807 35.0433 47.8849 35.0424 47.8891 35.0421C49.1041 34.9534 50.4583 35.2966 51.3973 36.0978C51.9724 36.5886 52.4953 37.2607 52.5418 38.0435C52.562 38.3832 52.4767 38.7236 52.3592 39.0397C51.9188 40.2245 51.0243 40.794 50.0266 41.4742C49.4722 41.8523 48.9282 42.2361 48.416 42.6705C48.2039 42.8504 47.9775 43.0296 47.796 43.2409C47.6887 43.3658 47.5892 43.4858 47.4436 43.5683C47.3347 43.5699 47.3222 43.5351 47.2422 43.4653C45.7903 42.3046 44.0409 41.5576 42.4198 40.6715C42.3195 39.3149 42.7275 37.9578 43.6167 36.917C44.6821 35.67 46.2915 35.1722 47.8765 35.0439Z" fill="#1C1C1C"/>
<path d="M46.3106 40.9557C46.4469 40.9756 46.5665 40.9977 46.6518 41.1179C46.7031 41.1903 46.7207 41.2751 46.6998 41.3611C46.6672 41.4949 46.5758 41.5566 46.4625 41.6212C46.4224 41.6187 46.3799 41.6175 46.3403 41.6103C46.2372 41.5916 46.1587 41.5466 46.1015 41.4579C46.0495 41.3773 46.0327 41.2889 46.0635 41.1958C46.1079 41.0617 46.1913 41.0127 46.3106 40.9557Z" fill="white"/>
<path d="M50.0507 38.128C50.2945 38.1122 50.5183 38.1381 50.7374 38.2534C50.7688 38.2699 50.7993 38.2879 50.829 38.3074C50.8586 38.3269 50.8872 38.3478 50.9148 38.3702C50.9423 38.3925 50.9687 38.4162 50.994 38.4411C51.0192 38.4661 51.0432 38.4922 51.0658 38.5195C51.0884 38.5468 51.1097 38.5752 51.1295 38.6046C51.1493 38.634 51.1677 38.6644 51.1845 38.6956C51.2014 38.7268 51.2166 38.7588 51.2303 38.7916C51.244 38.8243 51.256 38.8576 51.2664 38.8915C51.277 38.9255 51.2859 38.9599 51.2931 38.9947C51.3002 39.0295 51.3056 39.0645 51.3093 39.0999C51.313 39.1353 51.3149 39.1707 51.3151 39.2063C51.3153 39.2418 51.3137 39.2772 51.3104 39.3126C51.3071 39.348 51.302 39.3832 51.2952 39.4181C51.2884 39.4529 51.2799 39.4874 51.2697 39.5214C51.2594 39.5555 51.2476 39.5889 51.2341 39.6218C51.2205 39.6547 51.2054 39.6868 51.1887 39.7181C51.0117 40.049 50.7343 40.1884 50.3892 40.2848C50.123 40.3222 49.8618 40.2926 49.6277 40.151C49.3861 40.0048 49.2186 39.7596 49.1531 39.4865C49.1443 39.4496 49.1372 39.4123 49.1321 39.3747C49.1269 39.3371 49.1236 39.2993 49.1222 39.2614C49.1208 39.2234 49.1214 39.1855 49.1238 39.1476C49.1261 39.1097 49.1304 39.072 49.1366 39.0346C49.1427 38.9972 49.1507 38.9601 49.1606 38.9234C49.1705 38.8867 49.1821 38.8507 49.1956 38.8152C49.2091 38.7797 49.2243 38.7449 49.2413 38.7109C49.2582 38.6769 49.2768 38.6439 49.297 38.6118C49.4775 38.3271 49.7317 38.2021 50.0507 38.128Z" fill="white"/>
<path d="M49.8616 38.5351C49.8902 38.5323 49.9233 38.5279 49.9516 38.5302C50.0373 38.5371 50.0614 38.546 50.1176 38.6043C50.1324 38.7466 49.9883 38.9578 49.9375 39.0931C49.8364 39.3622 50.0758 39.5429 50.1826 39.769C50.1571 39.8608 50.1314 39.8543 50.0549 39.9046C49.8663 39.8867 49.7327 39.8376 49.6113 39.6845C49.4903 39.5318 49.4559 39.3274 49.4824 39.1377C49.5204 38.8657 49.6504 38.6995 49.8616 38.5351Z" fill="#1C1C1C"/>
<path d="M31.5735 37.5898C31.981 37.548 32.4072 37.5918 32.8151 37.6153C32.9504 38.06 33.1176 38.4842 33.343 38.8917C35.1781 42.2086 39.4222 43.1053 42.8687 43.5156C44.1201 43.6646 45.7174 43.749 46.8988 44.0918C46.4433 44.2241 45.9659 44.3145 45.5031 44.4219C44.5396 44.6454 43.5742 44.8674 42.5942 45.0076C39.7828 45.4099 36.5993 45.0775 34.0705 43.7204C33.0444 43.1697 32.1423 42.4664 31.2141 41.7688C30.7612 41.4452 30.2539 41.077 29.7449 40.8524C29.6332 40.8031 29.5063 40.7468 29.3856 40.794C29.3678 40.8224 29.3576 40.8353 29.3469 40.8699C29.3235 40.946 29.3346 41.0271 29.3821 41.0905C29.4309 41.1556 30.6546 41.8848 30.8839 42.0483C31.4525 42.4537 31.9942 42.8997 32.5747 43.2877C34.8851 44.8316 36.9775 45.3644 39.7278 45.584C39.0895 45.9252 38.2105 46.0371 37.4916 46.0972C35.156 46.2926 31.999 45.6962 30.1856 44.1545C29.1641 43.2861 28.3388 42.0558 28.2398 40.6892C28.1864 39.9526 28.3721 39.2205 28.863 38.6562C29.5429 37.8748 30.5878 37.6604 31.5735 37.5898Z" fill="#1C1C1C"/>
<path d="M30.8958 38.3573C31.1398 38.3394 31.3461 38.3538 31.5652 38.4732C31.5933 38.4885 31.6206 38.5053 31.6471 38.5234C31.6736 38.5415 31.6991 38.5608 31.7237 38.5815C31.7482 38.6021 31.7717 38.6239 31.7941 38.6469C31.8164 38.6699 31.8376 38.694 31.8575 38.7191C31.8775 38.7442 31.8962 38.7702 31.9136 38.7972C31.9309 38.8242 31.9469 38.8519 31.9615 38.8805C31.9761 38.909 31.9892 38.9383 32.0009 38.9682C32.0126 38.998 32.0227 39.0284 32.0314 39.0593C32.1025 39.3069 32.0813 39.5728 31.9527 39.7979C31.7862 40.0892 31.5252 40.2158 31.2166 40.3031C30.9925 40.3162 30.7659 40.2931 30.5659 40.1834C30.325 40.0514 30.159 39.8242 30.0899 39.5595C30.0252 39.3117 30.0435 39.0556 30.1751 38.8323C30.3385 38.555 30.5966 38.4341 30.8958 38.3573Z" fill="white"/>
<path d="M30.9322 38.6948C30.9681 38.7196 30.9944 38.755 31.0234 38.7874C31.0138 38.8758 30.9795 38.9036 30.9227 38.969C30.6819 39.2465 30.9783 39.5149 30.9027 39.7851C30.8094 39.8015 30.7483 39.7724 30.6599 39.7448C30.5927 39.6949 30.5255 39.6409 30.4695 39.5783C30.3913 39.4908 30.3331 39.3669 30.3564 39.2473C30.407 38.9872 30.7313 38.8246 30.9322 38.6948Z" fill="#1C1C1C"/>
<path d="M16.3776 30.9818C16.4445 30.9949 16.4854 31.0145 16.5392 31.0548C16.9855 31.39 17.377 31.8629 17.6458 32.3502C18.0617 33.104 18.2922 33.9765 18.5824 34.7855C19.0712 36.148 19.6069 37.4955 20.3122 38.763C20.8061 39.6505 21.4381 40.4933 22.0836 41.2753C23.4501 42.9307 24.6814 44.2696 24.9974 46.5128C24.6046 46.1079 24.1919 45.7067 23.7388 45.3695C23.1907 44.9616 22.5905 44.6202 22.0357 44.2185C21.3545 43.7253 20.7299 43.1409 20.0667 42.622C19.5159 42.1911 18.9349 41.8013 18.4142 41.3329C16.5707 39.6745 15.6143 37.4553 14.8828 35.1362C14.7992 34.825 14.6877 34.5205 14.6106 34.2073C14.5525 33.9714 14.5256 33.7228 14.4527 33.4915C14.4126 33.364 14.4121 33.3419 14.2931 33.2816L14.2509 33.3303L14.2703 33.2767C14.2078 33.273 14.1855 33.2809 14.1281 33.3016C14.0591 33.3757 14.0451 33.4375 14.0496 33.5357C14.057 33.6919 14.1131 33.8327 14.1508 33.9823C14.3223 34.6624 14.5189 35.3237 14.7401 35.9902C15.4937 38.2619 16.5431 40.2988 18.4024 41.8584C19.2215 42.5454 20.1041 43.1467 20.915 43.8477C18.7915 43.109 16.5033 42.3936 14.751 40.9362C13.3539 39.7743 12.3706 38.2052 12.2128 36.3677C12.0967 35.0161 12.4118 33.5996 13.3001 32.5471C14.1022 31.5965 15.1468 31.0863 16.3776 30.9818Z" fill="#1C1C1C"/>
<path d="M16.5662 32.0755C16.7543 32.0722 16.918 32.0932 17.0863 32.183C17.3358 32.3161 17.507 32.55 17.5773 32.8222C17.5859 32.8546 17.5927 32.8873 17.5979 32.9204C17.603 32.9535 17.6065 32.9868 17.6081 33.0202C17.6098 33.0537 17.6097 33.0872 17.6079 33.1207C17.6061 33.1541 17.6025 33.1873 17.5972 33.2204C17.592 33.2535 17.585 33.2862 17.5762 33.3186C17.5675 33.3509 17.5572 33.3828 17.5452 33.414C17.5331 33.4453 17.5195 33.4758 17.5043 33.5057C17.4891 33.5356 17.4724 33.5645 17.4542 33.5926C17.273 33.8728 17.0239 33.9945 16.7059 34.0566C16.4883 34.0527 16.2906 34.0293 16.1016 33.913C15.8567 33.7625 15.7088 33.5185 15.6508 33.2403C15.5989 32.9907 15.6334 32.7231 15.7793 32.5103C15.9705 32.2312 16.2486 32.1315 16.5662 32.0755Z" fill="white"/>
<path d="M16.4267 32.4742C16.4683 32.4807 16.5056 32.4936 16.5457 32.5063C16.6217 32.6265 16.6077 32.8124 16.6216 32.952C16.4766 33.0369 16.326 33.1103 16.1758 33.1854C16.1543 33.187 16.1328 33.1912 16.1112 33.1903C16.036 33.187 16.0158 33.1573 15.9694 33.106C15.9599 33.0392 15.964 32.9814 15.9866 32.917C16.0666 32.6904 16.2166 32.5697 16.4267 32.4742Z" fill="#1C1C1C"/>
<path d="M16.219 7.7226C16.6174 8.04293 16.9997 8.3688 17.438 8.6359C19.4343 9.85213 22.295 10.5112 24.5768 10.9058C30.6498 11.9562 38.751 11.7905 44.6551 10.1473C45.7429 9.84452 46.805 9.50382 47.8249 9.0125C48.5043 8.6852 49.078 8.26671 49.6913 7.83474C49.7959 8.5483 49.8455 10.7257 49.6704 11.3831C49.6381 11.5042 49.5733 11.5998 49.5015 11.7008C49.436 11.7772 49.3676 11.8511 49.2966 11.9224C47.1469 14.0402 41.0373 15.0599 38.091 15.3718C36.413 15.5354 34.7311 15.6201 33.0452 15.6259C28.5344 15.6047 23.6941 15.0237 19.4521 13.4402C18.544 13.1012 17.4982 12.7153 16.8093 12.0116C16.5877 11.7852 16.3915 11.5447 16.301 11.2349C16.1401 10.684 16.2083 8.42127 16.219 7.7226Z" fill="#1C1C1C"/>
<path d="M53.1532 24.6671C53.7821 24.6674 54.2378 24.7928 54.7066 25.2252C54.9139 26.3455 54.8243 28.3185 54.7808 29.4967C54.6945 31.8315 54.534 34.1645 54.4653 36.499L54.1822 45.8777L54.1155 48.4649C54.1028 48.9906 54.1112 49.5333 54.0501 50.0558C53.9597 50.828 53.6003 51.6696 53.3181 52.3905C52.2255 55.181 50.7999 57.8054 48.4091 59.6871C44.3652 62.87 37.3576 63.279 32.4142 63.1771C30.6819 63.1414 28.9765 63.0593 27.254 62.8544C25.965 62.7011 24.7109 62.4783 23.4471 62.1865C20.2237 61.4422 17.7103 60.3309 15.6186 57.6649C14.296 55.9792 13.2811 54.0291 12.5264 52.0294C12.3362 51.5252 12.1378 51.0079 12.0166 50.4821C11.8153 49.6094 11.8742 48.6213 11.8431 47.7263L11.6741 42.6702L11.3395 32.8712C11.2836 31.5593 11.2385 30.247 11.2041 28.9344C11.1731 27.7089 11.1404 26.4578 11.2882 25.2387C11.8236 24.9746 12.3705 24.8446 12.9611 24.7819C12.5338 25.9008 12.5004 27.0032 12.6957 28.1785C12.7956 28.6396 12.9192 29.0908 13.1052 29.5253C13.2566 29.8789 13.4634 30.223 13.5512 30.5992C13.6174 30.8823 13.616 31.1969 13.6338 31.487C13.2768 31.8 12.9419 32.1583 12.6711 32.549C11.5167 34.2148 11.4215 36.5048 12.1437 38.3641C12.3456 38.8841 12.8103 39.5894 12.9414 40.0449C13.0506 40.4246 13.0503 40.8689 13.1205 41.2622C12.4958 42.2693 12.1462 43.3576 12.1085 44.5469C12.0496 46.411 12.9395 48.0762 14.1863 49.4064C14.0139 50.218 13.907 50.9839 13.9616 51.8163C14.0906 53.7857 15.1026 55.9011 16.5938 57.2016C18.0175 58.4433 19.7652 58.8063 21.6081 58.6853C22.4438 59.8057 23.7193 60.7065 25.0245 61.1874C26.6063 61.7702 28.5789 61.8973 30.1975 61.3988C30.9298 61.1733 31.5941 60.8349 32.2869 60.5161L32.3378 60.5219C34.9363 60.8153 36.813 59.644 38.7413 58.1032C39.701 58.4159 40.7258 58.7113 41.7309 58.8193C44.218 59.0868 47.3907 58.2139 49.3522 56.631C51.0998 55.2207 52.6332 52.2706 52.8605 50.0484C53.1019 47.6879 51.9922 46.015 50.5844 44.2722C50.8468 43.6955 51.2055 43.1383 51.5042 42.5756C52.0977 41.4576 52.6335 40.2881 53.0358 39.0866C53.2361 38.4886 53.4203 37.8705 53.4907 37.2424C53.7614 34.8252 52.82 32.2217 51.7556 30.0821L51.8102 29.9668C52.363 28.7891 52.7126 27.4274 52.4697 26.1238C52.3951 25.7233 52.2565 25.3441 52.1192 24.9622C52.4555 24.8105 52.7848 24.6968 53.1532 24.6671Z" fill="#1C1C1C"/>
<path d="M32.6527 1.30485C37.1152 1.2646 42.7424 1.73014 46.9074 3.34362C47.7619 3.67463 48.6788 4.06481 49.3546 4.69718C49.7105 5.0302 50.0863 5.52853 50.0886 6.03765C50.0909 6.52278 49.7699 6.9911 49.4442 7.32799C48.8106 7.98348 47.9254 8.41641 47.0988 8.77683C44.0725 10.0962 40.2433 10.6738 36.9574 10.8944C35.7908 10.9622 34.6232 11.0034 33.4547 11.0182C28.9406 11.0386 23.59 10.7058 19.3782 9.01428C18.4489 8.64103 17.4645 8.17458 16.7293 7.48552C16.3096 7.09216 16.0108 6.63899 16.005 6.04106C16 5.53313 16.2443 5.10092 16.5902 4.74799C17.4482 3.87237 18.7479 3.4055 19.8935 3.03294C23.9893 1.70098 28.3703 1.34748 32.6527 1.30485Z" fill="#1C1C1C"/>
<path d="M31.2821 1.91565C31.2921 1.91495 31.3021 1.914 31.3121 1.91355C31.9554 1.88503 32.6052 1.89883 33.249 1.89988C37.1195 1.90621 41.1253 2.2531 44.8618 3.29311C46.056 3.6255 47.3973 4.0251 48.3286 4.87764C48.6625 5.18325 48.9354 5.58312 48.9459 6.05101C48.9555 6.47056 48.7428 6.82989 48.4602 7.12302C47.5494 8.06784 46.161 8.46416 44.9358 8.81337C41.6442 9.75155 38.1286 10.1532 34.7105 10.2262C30.6796 10.4716 20.7334 9.85094 17.6795 7.30987C17.3319 7.02061 17.0149 6.6201 16.9864 6.15198C16.9604 5.72587 17.2063 5.32202 17.4871 5.01978C19.0826 3.30282 24.3848 2.48308 26.7153 2.22565C28.2307 2.05826 29.7593 1.98017 31.2821 1.91565Z" fill="white"/>
<path d="M32.549 2.40038C36.5053 2.31467 40.8755 2.72765 44.6961 3.76209C45.78 4.05553 47.0813 4.413 47.9298 5.17494C48.1771 5.39702 48.4356 5.71697 48.443 6.06445C48.4492 6.36083 48.2543 6.61315 48.0576 6.81515C47.1922 7.7037 45.7909 8.08597 44.6225 8.40173C40.9883 9.3838 37.2075 9.69105 33.4552 9.75666C29.4291 9.7829 25.0854 9.47436 21.2117 8.37472C20.1602 8.07624 18.8752 7.65788 18.0376 6.94528C17.781 6.72698 17.5353 6.42811 17.5199 6.07688C17.5074 5.7916 17.697 5.53126 17.886 5.33572C18.4448 4.75775 19.2943 4.43209 20.0379 4.16111C23.7948 2.79202 28.5528 2.45384 32.549 2.40038Z" fill="#1C1C1C"/>
<path d="M48.7561 13.5378C48.8545 13.6712 48.9116 13.9328 48.9683 14.0914C49.1027 14.4678 49.2411 14.845 49.4647 15.1793C49.9423 15.8941 50.5732 16.4765 51.0927 17.1562C51.531 17.7297 51.9132 18.3455 52.2882 18.9613C53.2232 20.497 54.0123 22.0478 54.4105 23.8111C52.92 23.367 51.4556 23.9111 50.2603 24.835C49.267 25.6028 48.6433 26.3494 47.3904 26.7942C45.4881 27.4693 43.2893 26.8038 41.3945 26.4028C40.6822 26.2521 39.9601 26.0846 39.2283 26.1793C37.748 26.3708 36.4255 27.5697 34.9774 28.0177C33.2465 28.5532 31.3967 28.3798 29.7649 27.6158C28.5837 27.0628 27.5487 26.468 26.2001 26.4295C25.3515 26.4053 24.5116 26.5589 23.692 26.7653C22.3526 27.1026 21.1003 27.5697 19.7042 27.2072C17.8931 26.7369 16.7283 25.1806 15.1284 24.3388C13.9624 23.7254 12.728 23.6398 11.4766 24.0244C11.5458 23.7182 11.6287 23.4166 11.7126 23.1142C12.1498 21.7499 12.6922 20.4938 13.4878 19.298C14.1066 18.3681 14.8108 17.4633 15.4865 16.5731C16.2249 15.6004 17.0193 14.7741 17.3659 13.565C17.8903 13.7902 18.3962 14.0597 18.9239 14.2772C20.0614 14.7463 21.2799 15.0743 22.4725 15.3702C29.405 17.0906 38.2096 17.0439 45.0708 15.0544C46.0234 14.7781 46.9391 14.406 47.8531 14.0243C47.8556 14.1407 47.8627 14.2569 47.8743 14.3727C47.8859 14.4886 47.902 14.6038 47.9226 14.7184C47.9432 14.833 47.9682 14.9467 47.9976 15.0593C48.027 15.172 48.0608 15.2833 48.0988 15.3934C48.1378 15.507 48.1812 15.619 48.2292 15.7292C48.2771 15.8394 48.3293 15.9475 48.3858 16.0535C48.4424 16.1595 48.5031 16.2631 48.5679 16.3643C48.6326 16.4655 48.7013 16.564 48.774 16.6597C49.3586 17.4353 50.1441 18.0066 50.7629 18.7464C51.0033 19.0376 51.2247 19.3427 51.4272 19.6614C51.5469 19.8526 51.6518 20.0789 51.7921 20.2539C51.846 20.3211 51.9083 20.3583 51.9847 20.3954C52.0847 20.3997 52.1161 20.3772 52.1962 20.3246C52.2205 20.2733 52.2356 20.2566 52.233 20.1977C52.2138 19.7538 51.2809 18.6323 50.9858 18.3169C50.6621 17.9709 50.3037 17.6545 49.9636 17.3245C48.9076 16.3001 48.3301 15.2774 48.3047 13.7881C48.4516 13.7001 48.6061 13.6208 48.7561 13.5378Z" fill="#1C1C1C"/>
<path d="M28.646 17.8749C28.7149 17.8803 28.7935 17.8943 28.8521 17.9335C28.9102 17.9724 28.9553 18.0463 28.9571 18.117C28.9592 18.1954 28.2165 19.9086 28.098 20.2584C27.6643 21.5386 27.4961 22.7772 27.6999 24.1235C27.7503 24.4559 27.9033 24.7712 27.9318 25.1028C27.9024 25.2162 27.836 25.2655 27.7506 25.3415C27.6678 25.3317 27.6061 25.3253 27.543 25.2657C27.1749 24.918 27.0966 22.89 27.1329 22.3905C27.2247 21.1305 27.64 19.9646 28.1291 18.8127C28.2584 18.5082 28.3916 18.0955 28.646 17.8749Z" fill="white"/>
<path d="M36.5951 17.7507C36.6726 17.7465 36.7388 17.7531 36.8151 17.7637C36.9018 17.8276 36.9366 17.8667 36.948 17.9768C36.9847 18.3324 36.8713 18.739 36.8448 19.1002C36.8069 19.6168 36.8497 20.183 36.9113 20.698C37.0328 21.7145 37.3761 22.746 37.8497 23.6542C38.0209 23.9824 38.3764 24.3698 38.4344 24.7327C38.4106 24.8433 38.3555 24.895 38.2803 24.9736C38.1715 24.9777 38.0961 24.9791 38.0108 24.9003C37.8091 24.7141 37.6711 24.4006 37.5418 24.159C36.8405 22.8479 36.4153 21.4708 36.346 19.9796C36.325 19.5271 36.296 18.08 36.5951 17.7507Z" fill="white"/>
<path d="M21.9149 17.2332C22.0171 17.2464 22.1221 17.2685 22.1882 17.358C22.2328 17.4184 22.2382 17.4954 22.2339 17.5675C22.2208 17.7829 22.1184 18.0192 22.052 18.2242C21.4309 20.1433 20.2018 21.6261 19.5495 23.4438C19.4142 23.8206 19.3042 24.2292 19.2327 24.6228C19.1853 24.8839 19.1763 25.2277 19.0828 25.472C19.0611 25.5288 19.0105 25.574 18.9664 25.6141C18.9235 25.6181 18.8969 25.6221 18.8521 25.6186C18.7588 25.6113 18.712 25.5715 18.6507 25.5075C18.6164 25.3949 18.6222 25.3033 18.6367 25.1871C18.7341 24.4119 18.9508 23.6436 19.239 22.9183C19.7776 21.5625 20.6651 20.3739 21.238 19.0318C21.3587 18.749 21.4651 18.4494 21.5479 18.1532C21.6103 17.9301 21.6496 17.5935 21.7586 17.3951C21.7973 17.3249 21.853 17.2816 21.9149 17.2332Z" fill="white"/>
<path d="M18.0055 15.5543C18.111 15.5668 18.1768 15.583 18.2688 15.637C18.3068 15.6839 18.3289 15.7155 18.3401 15.7766C18.3802 15.9966 18.2075 16.4134 18.1233 16.6181C17.5538 18.0023 16.5187 18.8596 15.3741 19.7518C14.9285 20.099 14.4928 20.4436 14.1338 20.8842C13.8105 21.2811 13.5058 21.731 13.3056 22.2041C13.1956 22.464 13.1732 22.788 12.9952 23.0101C12.9354 23.0093 12.8293 23.0065 12.7755 22.9749C12.7072 22.9348 12.6736 22.8842 12.6595 22.8061C12.6274 22.6281 12.7532 22.3133 12.8124 22.1433C13.5743 19.9589 15.639 19.3129 16.9587 17.6608C17.248 17.2987 17.4939 16.8678 17.6559 16.4333C17.7605 16.1529 17.8336 15.7982 18.0055 15.5543Z" fill="white"/>
<path d="M44.6756 16.6215C44.7991 16.6512 44.9117 16.6686 44.9832 16.7863C45.0606 16.9138 45.0844 17.5013 45.1141 17.6761C45.1656 17.9855 45.2363 18.2904 45.3264 18.5908C45.4164 18.8912 45.5251 19.1848 45.6523 19.4714C46.2937 20.9312 47.3287 22.1992 48.5236 23.2442C48.7778 23.4664 49.0684 23.6476 49.3191 23.8715C49.4305 23.9711 49.5124 24.0444 49.5205 24.202C49.4851 24.3062 49.437 24.348 49.3565 24.4165L49.3238 24.4116C48.7509 24.3309 47.4292 22.977 47.0088 22.5033C45.8223 21.166 44.9276 19.5985 44.6291 17.8169C44.5811 17.5304 44.4967 17.1896 44.5227 16.8996C44.5345 16.7682 44.573 16.7028 44.6756 16.6215Z" fill="white"/>
</g>
<defs>
<clipPath id="clip0_107_4633">
<rect width="66" height="66" rx="10" fill="white"/>
</clipPath>
</defs>
</svg>
