<svg width="66" height="66" viewBox="0 0 66 66" fill="none" xmlns="http://www.w3.org/2000/svg">
<g clip-path="url(#clip0_107_4635)">
<path d="M0 0H66.0645V31.8188V32.9265V66.0645H0V24.9586V24.4338V0Z" fill="white"/>
<path d="M38.5706 37.0833C38.7298 37.2175 38.8242 37.6346 38.8909 37.8352L38.4373 37.8442L38.1437 37.8617C38.2949 37.6063 38.4339 37.3466 38.5706 37.0833Z" fill="#1C1C1C"/>
<path d="M44.6195 4.77625C44.6839 4.77022 44.7494 4.76406 44.8142 4.7671C44.9388 4.77295 45.0385 4.82017 45.119 4.91655C45.1276 4.92688 45.1357 4.93762 45.1433 4.94877C45.1509 4.95991 45.1579 4.9714 45.1643 4.98324C45.1708 4.99508 45.1766 5.00721 45.1819 5.01963C45.1871 5.03205 45.1917 5.0447 45.1957 5.05758C45.1997 5.07046 45.203 5.0835 45.2057 5.09671C45.2084 5.10991 45.2104 5.12322 45.2117 5.13663C45.2131 5.15004 45.2138 5.16348 45.2139 5.17696C45.2139 5.19044 45.2132 5.20389 45.2119 5.2173C45.2039 5.29291 45.1663 5.38062 45.1002 5.42267C45.0125 5.47844 44.955 5.45079 44.8633 5.43125C44.6648 5.3662 44.3587 5.35646 44.2127 5.19733C44.1772 5.15858 44.1907 5.13275 44.1921 5.08404C44.291 4.93194 44.4628 4.85727 44.6195 4.77625Z" fill="#1C1C1C"/>
<path d="M48.4653 23.3828C48.5796 23.381 48.6841 23.3825 48.7969 23.402C48.7907 23.7219 48.6423 24.1174 48.5757 24.4366C48.4594 24.9952 48.3662 25.5595 48.2688 26.1217C48.253 26.173 48.2233 26.2227 48.1995 26.2708L48.1592 26.2798C48.0896 26.0335 48.2345 25.6 48.2758 25.3445C48.381 24.6937 48.4209 24.0396 48.4653 23.3828Z" fill="#1C1C1C"/>
<path d="M48.293 26.7969C48.3245 26.9239 48.3098 27.0851 48.3188 27.2175C48.3565 27.7705 48.43 28.1973 48.768 28.6489C48.7737 28.7224 48.7669 28.713 48.7284 28.7697C48.614 28.8042 48.6104 28.8029 48.4982 28.7612L47.9102 28.4432C47.9962 27.8857 48.0049 27.2971 48.293 26.7969Z" fill="#1C1C1C"/>
<path d="M23.9286 20.4786C24.0179 20.4889 24.1464 20.5098 24.2174 20.5677C24.3401 20.6677 24.3817 20.8741 24.3836 21.0232C24.3879 21.366 24.2754 21.7103 24.0387 21.9595C23.9723 21.9596 23.9051 21.9577 23.848 21.9195C23.7088 21.8265 23.6662 21.6275 23.6568 21.4725C23.6365 21.1377 23.7094 20.737 23.9286 20.4786Z" fill="#1C1C1C"/>
<path d="M62.477 22.3979C62.6927 22.4988 62.8664 22.7195 62.9937 22.9177C63.2537 23.3227 63.4665 23.8636 63.3643 24.3484C63.1366 24.0386 62.8377 23.7661 62.4752 23.6286C62.4999 23.2059 62.5366 22.8204 62.477 22.3979Z" fill="#1C1C1C"/>
<path d="M24.6927 18.797C24.8379 18.8092 24.9662 18.876 25.0652 18.9826C25.2339 19.1643 25.2944 19.4358 25.2753 19.6773C25.2568 19.9097 25.1902 20.0373 25.018 20.1904C24.9815 20.1947 24.9451 20.1988 24.9083 20.2008C24.808 20.2065 24.7557 20.1701 24.6848 20.1038C24.4933 19.9246 24.4258 19.6439 24.4279 19.3897C24.4301 19.1236 24.5069 18.9828 24.6927 18.797Z" fill="#1C1C1C"/>
<path d="M62.4594 31.9323L62.4989 31.9408C62.4935 31.9606 62.4914 31.9816 62.4826 32.0001C62.2953 32.3961 60.9801 33.1263 60.5632 33.3156L60.5396 33.3145L60.5242 33.2762C60.6253 32.979 60.7029 32.6722 60.7289 32.359C61.3547 32.326 61.8924 32.2013 62.4594 31.9323Z" fill="#1C1C1C"/>
<path d="M59.2009 18.8285C59.2118 18.831 59.223 18.8327 59.2336 18.836C59.5936 18.9472 60.2183 19.4441 60.3926 19.7814C60.4275 19.8488 60.429 19.8498 60.403 19.9239C60.2952 19.9527 60.1817 19.8922 60.0807 19.8543C59.6719 19.7192 59.2483 19.6415 58.8259 19.5637L58.6367 19.3181L59.2009 18.8285Z" fill="#1C1C1C"/>
<path d="M50.0687 29.3007C50.0786 29.3006 50.0885 29.3003 50.0983 29.3006C50.1848 29.3032 50.3083 29.3022 50.37 29.3695C50.5485 29.5642 50.6174 29.9988 50.7498 30.241C50.8799 30.479 51.1022 30.6856 51.2861 30.8845C51.219 30.9748 51.1529 31.0859 51.0541 31.1422C50.9487 31.1272 50.9325 31.0854 50.861 31.0097C50.4802 30.6029 49.8788 30.1872 49.5776 29.7414C49.5666 29.6512 49.5665 29.6059 49.6195 29.529C49.7206 29.3819 49.9033 29.3275 50.0687 29.3007Z" fill="#1C1C1C"/>
<path d="M9.72989 22.6258L9.79383 22.6444C9.83441 22.7124 9.84067 23.7285 9.86351 23.9279C9.99609 25.0851 10.9269 26.0981 11.7954 26.7898L11.5323 26.9858L11.4909 27.0022C11.3909 27.0011 11.322 26.9358 11.248 26.8755C10.3486 26.1422 9.60286 24.9115 9.5066 23.7473C9.47402 23.3537 9.45983 22.9422 9.72989 22.6258Z" fill="#1C1C1C"/>
<path d="M27.8435 28.0435C27.915 28.0526 27.9737 28.0642 28.0384 28.0976C29.0084 28.5973 30.4057 30.7554 30.7439 31.7817C30.7248 31.7621 30.7059 31.7424 30.6871 31.7225C30.1988 31.2035 29.7757 30.6286 29.3163 30.0847C28.8652 29.5506 28.3057 29.028 27.9482 28.4273C27.869 28.2943 27.8396 28.1982 27.8435 28.0435Z" fill="#1C1C1C"/>
<path d="M63.7061 25.4049C63.7088 25.4075 63.7117 25.41 63.7144 25.4127C63.7402 25.4401 63.7653 25.4681 63.7898 25.4967C63.8143 25.5253 63.8381 25.5544 63.8612 25.5841C63.8843 25.6137 63.9067 25.644 63.9285 25.6747C63.9501 25.7054 63.9711 25.7366 63.9914 25.7683C64.0116 25.8 64.0311 25.8322 64.0499 25.8648C64.0687 25.8974 64.0867 25.9305 64.1039 25.9639C64.1211 25.9974 64.1376 26.0312 64.1532 26.0654C64.1688 26.0996 64.1837 26.1342 64.1977 26.1691C64.2118 26.204 64.225 26.2393 64.2374 26.2748C64.2497 26.3103 64.2613 26.3461 64.2721 26.3821C64.2828 26.4182 64.2927 26.4545 64.3017 26.491C64.3107 26.5276 64.3189 26.5643 64.3263 26.6012C64.3336 26.6381 64.34 26.6751 64.3456 26.7123C64.3513 26.7495 64.356 26.7868 64.3598 26.8243C64.3637 26.8617 64.3667 26.8992 64.3688 26.9368C64.3709 26.9743 64.3722 27.0119 64.3725 27.0496C64.3736 27.4985 64.242 28.1196 63.9148 28.449L63.8641 28.4371C63.6407 28.109 63.4305 27.8907 63.0825 27.6956C63.5928 26.8829 63.7239 26.3529 63.7061 25.4049Z" fill="#1C1C1C"/>
<path d="M4.16644 31.6692C4.41689 31.7765 4.65455 31.9401 4.90719 32.0543C5.647 32.3884 6.43451 32.5799 7.23325 32.7061C7.3928 33.1943 7.59577 33.6397 7.82028 34.1C6.6406 33.6177 4.9203 32.6924 4.16644 31.6692Z" fill="#1C1C1C"/>
<path d="M59.0994 20.1316C59.8557 20.2233 60.6972 20.5005 61.2366 21.0636C61.8584 21.7127 62.0448 22.5287 62.0286 23.3978C61.7892 23.4307 61.5598 23.4673 61.3275 23.5347L61.1094 23.2011C60.9024 22.93 60.7021 22.7184 60.4279 22.5152C60.8509 22.3668 61.2894 22.2712 61.7108 22.1187C60.8122 21.2568 60.1454 20.7866 59.0994 20.1316Z" fill="#1C1C1C"/>
<path d="M56.6241 12.1015L56.6205 12.1646C56.3351 12.5434 56.0201 12.899 55.7373 13.2799C55.3419 13.8126 55.0058 14.3836 54.6874 14.9648C54.5677 15.1835 53.9358 16.6664 53.8871 16.7033L53.875 16.611C53.8276 16.2314 53.7556 15.879 53.6343 15.5158C54.3271 14.2094 55.2718 12.7873 56.6241 12.1015Z" fill="#1C1C1C"/>
<path d="M49.6558 13.0502C50.3328 13.5819 52.2954 17.4109 52.7537 18.3945C52.468 18.1413 52.2472 17.8031 51.9565 17.5471C51.6796 17.3032 51.2951 17.1183 51.0665 16.8295C50.7703 16.4552 49.8947 13.7245 49.6558 13.0502Z" fill="#1C1C1C"/>
<path d="M32.5001 16.7231C32.6275 16.7047 32.8021 16.7284 32.9141 16.7949C33.005 16.8488 33.0592 16.9246 33.084 17.0261C33.1985 17.4962 32.7311 18.3019 32.4864 18.6881C32.1166 18.2666 31.8292 17.9039 31.3587 17.5831C31.0879 17.423 30.8086 17.3026 30.5001 17.2373C30.2126 17.1765 29.8313 17.1837 29.5761 17.0308L29.5691 16.9951C29.6773 16.915 32.1839 16.7448 32.5001 16.7231Z" fill="#1C1C1C"/>
<path d="M22.7365 10.2483C22.7539 10.2546 22.7716 10.2601 22.7886 10.2674C22.8946 10.3129 23.0242 10.4086 23.0612 10.5227C23.0757 10.5673 23.0739 10.6543 23.0506 10.697C22.9715 10.8421 22.5447 11.0289 22.3928 11.1472C22.1645 11.328 21.9497 11.5234 21.7482 11.7335C20.7903 12.7354 20.1295 13.983 19.4529 15.1796C19.3911 15.2901 19.313 15.3937 19.2413 15.498C19.2661 15.2448 19.3011 14.9986 19.3678 14.7526C19.8478 12.9808 21.1266 11.1652 22.7365 10.2483Z" fill="#1C1C1C"/>
<path d="M51.8342 31.149C51.995 31.1692 52.1376 31.2919 52.2999 31.3265C52.6603 31.4035 53.0321 31.4016 53.391 31.4977C53.4952 31.7241 53.5514 31.9782 53.6331 32.2141C53.7606 32.5822 53.9456 32.8966 54.1558 33.2222L53.6974 33.3693L53.225 33.4617C52.6191 32.8488 52.016 32.2219 51.4445 31.5768C51.5656 31.4213 51.6918 31.2851 51.8342 31.149Z" fill="#1C1C1C"/>
<path d="M56.0595 22.9557C56.5776 23.1383 57.098 23.15 57.6406 23.1534C57.6675 23.2843 57.6803 23.4163 57.6871 23.5496C57.7202 24.2007 57.4864 24.7289 57.0596 25.2072C56.7422 25.5019 56.4332 25.6401 56.0298 25.7879C56.112 24.8387 56.0997 23.9072 56.0595 22.9557Z" fill="#1C1C1C"/>
<path d="M54.5422 33.556C55.2957 33.9372 55.9058 33.9811 56.7188 33.766C56.9703 34.0774 56.9711 34.3056 56.9655 34.6906C56.6807 34.8306 56.3718 34.9128 56.0688 35.0031L54.9425 35.3481C54.5471 34.8897 54.0829 34.4716 53.7395 33.9726C54.0467 33.8815 54.2771 33.7301 54.5422 33.556Z" fill="#1C1C1C"/>
<path d="M54.8297 19.4971C54.9566 19.4793 55.0983 19.4812 55.2265 19.4815C56.7567 19.4852 58.0925 20.1359 59.3635 20.9242C59.7303 21.1517 60.1503 21.3969 60.4548 21.7034C60.2784 21.6102 60.1032 21.5148 59.9293 21.417C58.4114 20.586 56.8629 20.4519 55.1668 20.5736C54.8134 20.2646 54.4917 19.9117 54.1693 19.571C54.3883 19.5373 54.6092 19.5184 54.8297 19.4971Z" fill="#1C1C1C"/>
<path d="M45.6074 25.8179C45.7335 25.8243 45.861 25.8297 45.9835 25.8623C46.4447 25.985 46.8783 26.3296 47.0966 26.757C47.2204 26.999 47.4105 27.6494 47.3097 27.9088C47.2888 27.9623 47.2789 27.9546 47.231 27.9775C46.8513 27.87 46.4775 27.5917 46.1048 27.4366C45.3584 27.1306 44.5819 26.9571 43.7897 26.8233C44.2961 26.2421 44.8305 25.8931 45.6074 25.8179Z" fill="#1C1C1C"/>
<path d="M48.4612 17.0777C48.7158 17.0496 48.9864 17.0561 49.2429 17.0539C49.6644 17.0504 50.1161 17.0719 50.5197 17.2047C51.4526 17.5117 52.2584 18.4861 52.9408 19.1612C52.279 18.7706 51.548 18.4879 50.8226 18.2399C48.8592 17.6332 47.3746 17.7069 45.3554 17.7168C46.3037 17.2535 47.4239 17.1688 48.4612 17.0777Z" fill="#1C1C1C"/>
<path d="M50.0181 25.2504C50.1669 25.3921 50.2248 26.0311 50.344 26.2686C50.5186 26.6168 50.7795 26.8964 51.0454 27.1763C50.6718 27.6467 50.4606 28.1585 50.3282 28.7403L50.0051 28.7772C49.9343 28.7792 49.8598 28.783 49.7894 28.7731C49.6042 28.747 49.3932 28.538 49.2896 28.393C48.9214 27.8778 48.878 27.0947 48.9769 26.4896C49.0839 25.8338 49.5209 25.6036 50.0181 25.2504Z" fill="#1C1C1C"/>
<path d="M53.2442 20.344C53.3281 20.6525 53.3461 21.0093 53.3992 21.3279C53.4916 21.8653 53.6144 22.3958 53.7674 22.9192C54.1677 24.2964 54.7786 25.6233 55.1139 27.0173L54.8114 26.5822C54.1072 25.6501 53.2042 24.4424 52.7701 23.3571C52.3293 22.2552 52.8167 21.3511 53.2442 20.344Z" fill="#1C1C1C"/>
<path d="M58.8836 16.1421C59.6509 16.0431 60.4701 16.1724 61.2125 16.3611C59.0533 16.7211 57.3494 17.1856 55.403 18.2234C54.8938 18.5074 54.4418 18.9086 53.9228 19.1621C54.1523 18.741 54.5054 18.3231 54.8189 17.959C55.8884 16.7169 57.2898 16.2608 58.8836 16.1421Z" fill="#1C1C1C"/>
<path d="M59.8855 31.4581C59.9102 31.4596 59.9336 31.4798 59.9545 31.4925C60.1191 31.7748 60.2071 32.087 60.1899 32.4146C60.1651 32.887 59.9767 33.371 59.6139 33.6871C59.1026 34.1326 58.2681 34.1903 57.6234 34.1568C57.5738 34.1446 57.5174 34.1347 57.4764 34.1015C57.343 33.9935 57.3189 33.7043 57.2869 33.5444L57.3781 33.4855C58.0939 33.0194 58.5894 32.4248 58.769 31.5765C59.166 31.5905 59.4982 31.5463 59.8855 31.4581Z" fill="#1C1C1C"/>
<path d="M56.7686 12.1573C56.7593 12.4994 56.4933 13.329 56.4406 13.7737C56.3439 14.5906 56.406 15.4124 56.3737 16.2319C55.3586 16.7794 54.6777 17.3069 54.0131 18.2651C53.9959 18.0221 54.1111 17.6979 54.1748 17.4575C54.6487 15.6696 55.6395 13.619 56.7686 12.1573Z" fill="#1C1C1C"/>
<path d="M61.7246 23.9175C62.0966 23.955 62.5095 24.2216 62.7409 24.5017C63.103 24.9403 63.2554 25.6076 63.1981 26.1667C63.1316 26.8148 62.783 27.3127 62.2912 27.7186C62.1812 27.7964 62.0695 27.8526 61.948 27.9103C61.6848 27.438 61.4026 27.0861 61.0125 26.7137C61.273 26.275 61.4846 25.785 61.577 25.2812C61.6547 24.8568 61.4525 24.2597 61.7246 23.9175Z" fill="#1C1C1C"/>
<path d="M62.6039 28.1265C62.7141 28.135 62.809 28.1641 62.9048 28.2192C63.2559 28.4209 63.4842 28.7756 63.5881 29.1609C63.7134 29.6256 63.5817 30.0706 63.3403 30.4703C62.9268 31.1547 62.3051 31.5458 61.5423 31.7388C61.2568 31.7976 60.9677 31.8125 60.677 31.8167C60.5936 31.6463 60.532 31.4729 60.4705 31.2938C60.7018 31.1517 60.9246 31.0165 61.1257 30.8319C61.8141 30.2002 62.0613 29.3808 62.099 28.4719C62.2536 28.3279 62.4205 28.2278 62.6039 28.1265Z" fill="#1C1C1C"/>
<path d="M49.6526 12.8597C49.8514 12.9002 50.0487 13.0146 50.2301 13.1046C50.359 13.1675 50.4863 13.2334 50.6121 13.3023C50.7379 13.3711 50.8621 13.4429 50.9845 13.5175C51.107 13.5922 51.2277 13.6697 51.3465 13.75C51.4653 13.8303 51.5822 13.9134 51.6971 13.9992C51.812 14.085 51.9249 14.1735 52.0357 14.2646C52.1464 14.3557 52.255 14.4493 52.3614 14.5455C52.4678 14.6417 52.5719 14.7403 52.6737 14.8414C52.7754 14.9424 52.8748 15.0458 52.9718 15.1515C54.069 16.3475 53.5667 17.5115 53.5104 18.9435C53.511 18.9817 53.5032 19.0057 53.4924 19.0419C53.3963 18.948 52.7606 17.493 52.6316 17.2415C51.8305 15.6811 50.915 14.097 49.6526 12.8597Z" fill="#1C1C1C"/>
<path d="M61.3195 16.4966L61.3227 16.4979L61.3236 16.528C60.7551 16.8135 60.1287 17.302 59.6801 17.7497C58.8078 18.62 58.5451 19.1808 57.2648 19.4197C56.6322 19.163 56.0499 19.0309 55.3678 19.0008C55.1964 19.0015 55.024 19.0246 54.8535 19.0408C56.6318 17.8382 59.2142 16.8845 61.3195 16.4966Z" fill="#1C1C1C"/>
<path d="M55.8904 20.9535C56.4704 20.9223 57.0782 20.9001 57.657 20.9518C58.709 21.0458 59.9166 21.4195 60.8081 21.9923C60.5217 22.0438 60.239 22.1206 59.9566 22.1905C58.3905 22.547 57.3719 23.0783 55.8837 22.1859C55.8174 21.7332 55.7519 21.3583 55.5048 20.9677L55.8904 20.9535Z" fill="#1C1C1C"/>
<path d="M48.6732 20.1214C48.9689 20.1493 49.3098 20.3137 49.5957 20.4063C49.9516 20.5216 50.281 20.583 50.6534 20.6212C50.2171 20.9879 49.5363 21.1278 48.9983 21.3058C48.1716 21.579 47.1604 21.9029 46.4602 22.4289C47.5136 22.0643 48.5566 21.7175 49.6372 21.4417L49.9934 21.3502C49.6629 21.835 49.3838 22.3561 49.0997 22.8687C48.5722 22.8685 48.0435 22.9076 47.5161 22.9221C46.8555 22.9402 46.1964 22.9402 45.5359 22.9723C46.4854 21.9152 47.615 21.0623 48.6732 20.1214Z" fill="#1C1C1C"/>
<path d="M53.7067 19.8834C53.9856 20.0566 55.0219 21.0746 55.2345 21.3456C55.3605 21.5059 55.4385 21.6577 55.4882 21.856C55.5974 22.2918 55.5801 22.7728 55.5861 23.2201C55.6027 24.4741 55.5605 25.6861 55.4016 26.9321C55.395 26.9885 55.3832 27.0316 55.3621 27.0843C55.3541 27.077 55.3452 27.0707 55.3381 27.0626C55.1731 26.8745 54.9928 25.9539 54.9187 25.683C54.4025 23.7957 53.723 21.8615 53.7067 19.8834Z" fill="#1C1C1C"/>
<path d="M52.266 23.6397C52.3608 23.6855 52.7388 24.4575 52.8302 24.6155C53.2608 25.3594 53.7673 26.0434 54.3003 26.7165C53.8452 27.0845 53.3772 27.2511 52.7935 27.2657C52.6777 27.2634 52.559 27.257 52.4443 27.2395C51.9168 27.1592 51.369 26.8279 51.057 26.3954C50.789 26.0241 50.6281 25.4066 50.7191 24.9504C50.8028 24.531 51.8948 23.899 52.266 23.6397Z" fill="#1C1C1C"/>
<path d="M33.0754 27.5286C33.4466 27.4862 33.8016 27.5609 34.1595 27.6505C33.5338 28.5818 33.3876 29.2777 33.5225 30.3823C32.7986 30.4065 32.0784 30.4718 31.3619 30.5782L30.6757 30.7367C30.5964 30.5342 30.4841 30.345 30.3805 30.1543C30.4995 29.5799 30.7211 29.0032 31.0929 28.5437C31.6046 27.9114 32.2803 27.6119 33.0754 27.5286Z" fill="#1C1C1C"/>
<path d="M45.3333 17.7768C45.9378 17.7917 46.5413 17.8574 47.1419 17.9238C49.1676 18.1477 50.8277 18.5462 52.6476 19.4984C52.4029 19.5807 52.1608 19.6702 51.9214 19.7669C51.5432 19.9424 51.2204 20.1602 50.8807 20.3991C49.4228 20.5538 48.4227 19.4197 47.2571 18.7473C46.6328 18.3872 45.9542 18.1322 45.3333 17.7768Z" fill="#1C1C1C"/>
<path d="M60.6399 27.1537C60.7399 27.1627 60.8168 27.215 60.8939 27.2752C61.246 27.5501 61.4901 28.0277 61.5501 28.4696C61.6301 29.0599 61.4377 29.6619 61.0807 30.1314C60.6051 30.7568 60.0091 30.9617 59.2564 31.062C59.1196 31.0641 58.9821 31.0585 58.8453 31.056C58.7224 30.5109 58.5591 30.1254 58.2615 29.6543C58.8167 29.0752 59.1265 28.6199 59.2864 27.8217C59.813 27.6574 60.2021 27.4979 60.6399 27.1537Z" fill="#1C1C1C"/>
<path d="M52.901 19.9048C52.9098 19.9191 52.9273 19.9309 52.9273 19.9478C52.9274 19.9912 52.6703 20.4376 52.6301 20.5159C52.1902 21.3742 52.1131 22.0085 52.1269 22.9543C51.8228 23.2922 51.4645 23.56 51.1065 23.8369C50.4179 24.3695 49.381 25.1003 48.8035 25.7138C48.7878 25.7118 48.7809 25.6915 48.7708 25.6794C48.9749 24.7259 49.2537 23.8112 49.6642 22.9249C50.4562 21.2154 51.1342 20.5545 52.901 19.9048Z" fill="#1C1C1C"/>
<path d="M59.7129 22.7432C59.7884 22.7389 59.843 22.7697 59.9073 22.8058C60.4644 23.1185 60.8255 23.5341 60.9976 24.1561C61.1851 24.8337 61.0506 25.6386 60.7005 26.2425C60.3819 26.7921 59.8909 27.1235 59.2836 27.2837C59.1949 27.1725 59.185 26.9644 59.1491 26.825C58.9689 26.1254 58.5406 25.6423 58.0015 25.1868C58.3791 24.4859 58.4852 23.8852 58.3409 23.1043C58.8111 23.0175 59.2597 22.8926 59.7129 22.7432Z" fill="#1C1C1C"/>
<path d="M57.514 25.5737C57.6292 25.6048 57.7345 25.6483 57.8361 25.7119C58.2936 25.9981 58.5892 26.5116 58.6983 27.0309C58.8214 27.6169 58.7245 28.2339 58.391 28.7357C57.9914 29.3367 57.3375 29.6579 56.648 29.7982C56.4318 29.8355 55.9308 29.9114 55.7378 29.7963C55.6477 29.7426 55.657 29.7414 55.6724 29.6481C55.7834 28.9729 55.6853 28.4965 55.5079 27.8479C55.7159 27.3779 55.8465 26.8828 55.9519 26.3813C56.5732 26.2202 57.0195 25.9815 57.514 25.5737Z" fill="#1C1C1C"/>
<path d="M57.7897 29.9374C58.0117 30.1117 58.1776 30.4435 58.2456 30.7114C58.2534 30.7428 58.2605 30.7745 58.2669 30.8062C58.2732 30.838 58.2787 30.87 58.2835 30.9021C58.2882 30.9341 58.2922 30.9663 58.2953 30.9986C58.2985 31.0308 58.3009 31.0631 58.3024 31.0955C58.304 31.1279 58.3047 31.1603 58.3047 31.1927C58.3046 31.2251 58.3038 31.2575 58.3021 31.2899C58.3005 31.3222 58.2981 31.3546 58.2948 31.3868C58.2916 31.4191 58.2875 31.4512 58.2827 31.4833C58.2779 31.5153 58.2722 31.5472 58.2658 31.579C58.2594 31.6108 58.2522 31.6424 58.2443 31.6738C58.2363 31.7052 58.2276 31.7364 58.2181 31.7674C58.2086 31.7984 58.1983 31.8292 58.1872 31.8596C58.1762 31.8901 58.1644 31.9203 58.1519 31.9502C58.1394 31.9801 58.1261 32.0096 58.1121 32.0389C58.0982 32.0681 58.0835 32.097 58.0681 32.1255C58.0527 32.1541 58.0366 32.1822 58.0198 32.2099C57.6887 32.759 57.1443 33.1193 56.5281 33.2708C55.8893 33.4277 55.3113 33.3594 54.7467 33.0145C54.7325 33.0028 54.7181 32.9913 54.7041 32.9794C54.2376 32.5831 54.0031 31.9737 53.9567 31.377C54.6405 31.147 55.0644 30.8486 55.4854 30.2602C56.3163 30.3826 57.0328 30.2956 57.7897 29.9374Z" fill="#1C1C1C"/>
<path d="M54.2843 27.285C54.3435 27.2801 54.3748 27.2813 54.4298 27.3044C54.7631 27.444 54.9841 27.8699 55.1031 28.1947C55.3042 28.7437 55.3008 29.378 55.0465 29.91C55.0348 29.935 55.0225 29.9596 55.0096 29.984C54.9968 30.0083 54.9833 30.0324 54.9692 30.0561C54.955 30.0797 54.9403 30.103 54.925 30.1259C54.9097 30.1488 54.8939 30.1714 54.8774 30.1935C54.861 30.2156 54.844 30.2373 54.8265 30.2586C54.809 30.2799 54.7909 30.3007 54.7723 30.321C54.7537 30.3414 54.7347 30.3612 54.7151 30.3806C54.6955 30.4 54.6754 30.4188 54.6549 30.4372C54.6343 30.4556 54.6134 30.4734 54.5919 30.4908C54.5705 30.5081 54.5486 30.5248 54.5263 30.541C54.504 30.5572 54.4813 30.5728 54.4582 30.5879C54.4351 30.6029 54.4117 30.6174 54.3879 30.6313C54.364 30.6451 54.3399 30.6584 54.3154 30.671C54.2909 30.6837 54.2662 30.6957 54.241 30.707C54.216 30.7184 54.1906 30.7292 54.1649 30.7393C54.1393 30.7494 54.1134 30.7588 54.0873 30.7676C53.3963 31.0058 52.5694 30.9372 51.9194 30.6173C51.7976 30.5442 51.6816 30.4627 51.5715 30.373C51.5474 30.353 51.5238 30.3324 51.5008 30.3112C51.4777 30.2899 51.4552 30.2682 51.4333 30.2458C51.4113 30.2235 51.3899 30.2006 51.3691 30.1772C51.3483 30.1538 51.3281 30.1298 51.3085 30.1054C51.2889 30.081 51.2699 30.0561 51.2515 30.0307C51.2331 30.0054 51.2154 29.9796 51.1983 29.9533C51.1812 29.927 51.1649 29.9003 51.1492 29.8733C51.1334 29.8462 51.1184 29.8187 51.104 29.7909C51.0896 29.763 51.076 29.7348 51.063 29.7063C51.0501 29.6778 51.0379 29.649 51.0263 29.6199C51.0148 29.5907 51.004 29.5613 50.994 29.5316C50.984 29.5019 50.9747 29.472 50.9661 29.4419C50.9576 29.4118 50.9499 29.3814 50.9428 29.3509C50.9358 29.3204 50.9296 29.2897 50.9241 29.2588C50.9186 29.228 50.9139 29.197 50.9099 29.166C50.906 29.1349 50.9029 29.1037 50.9005 29.0725C50.8457 28.4317 51.0805 27.934 51.4829 27.4581C51.6368 27.5255 51.7896 27.5877 51.9511 27.6346C52.8216 27.887 53.5099 27.7093 54.2843 27.285Z" fill="#1C1C1C"/>
<path d="M41.5437 24.1075C41.9395 24.0599 42.367 24.1454 42.7322 24.2977C43.4266 24.5873 43.8357 25.1109 44.112 25.7947C43.7542 26.1065 43.4552 26.4185 43.176 26.8026C42.268 26.8 41.3641 26.9865 40.5615 27.4152C40.1859 27.6416 39.8688 27.8821 39.5705 28.2047C39.3554 27.5859 39.1675 27.1725 38.6937 26.7101C38.7649 26.2385 38.9277 25.792 39.212 25.4059C39.7634 24.6571 40.643 24.2464 41.5437 24.1075Z" fill="#1C1C1C"/>
<path d="M36.8553 26.7521C37.2795 26.7201 37.7436 26.8357 38.1011 27.0673C38.7138 27.4641 38.8836 28.1813 39.0208 28.8493C38.9126 29.05 38.8159 29.2561 38.7308 29.4675C38.6456 29.679 38.5725 29.8946 38.5114 30.1142C38.3793 30.5883 38.3406 31.0937 38.0814 31.5192C38.0447 31.1324 38.0423 30.6326 37.8588 30.2835C37.8125 30.1952 37.7736 30.1537 37.6785 30.125L37.6126 30.1684C37.3928 30.555 37.5283 31.232 37.5976 31.6508C37.5807 31.711 37.5961 31.6833 37.5474 31.7313C37.2612 31.683 36.9092 31.3304 36.6516 31.1742C35.9055 30.7219 35.0363 30.4701 34.169 30.4072C34.154 30.3308 34.141 30.2542 34.1301 30.1772C34.0203 29.3802 34.1889 28.7402 34.6774 28.0982C35.2166 27.3895 35.9641 26.8748 36.8553 26.7521Z" fill="#1C1C1C"/>
<path d="M29.7185 17.7162C30.028 17.6999 30.3069 17.7354 30.5933 17.857C31.8173 18.3765 32.4422 19.7384 32.9022 20.8936C31.5658 21.7382 30.5256 22.5723 30.0813 24.1638C29.6974 25.5385 29.9991 26.8077 30.6821 28.0274C30.5465 28.2105 30.4243 28.3971 30.3059 28.5917C30.1453 28.4025 29.9929 28.2059 29.8384 28.0118C29.6365 27.7604 29.4326 27.5167 29.2131 27.2802C29.4509 26.1687 29.5664 25.0456 29.1756 23.9508C28.7586 22.7829 27.8697 21.7465 26.8261 21.0892C26.3991 20.8203 25.938 20.6121 25.4837 20.3946C25.7587 19.9323 25.6911 19.5264 25.6251 19.0221C26.2171 18.7484 26.7673 18.3192 27.3887 18.1198C27.8114 17.9841 28.2415 18.0894 28.6712 18.0178C29.0255 17.9588 29.3653 17.7951 29.7185 17.7162Z" fill="#1C1C1C"/>
<path d="M22.1379 20.5949C22.5287 20.6008 22.912 20.6065 23.295 20.6943C23.2574 21.095 23.2191 21.442 23.34 21.8339C22.6278 21.582 21.9029 21.2647 21.2354 20.9122C21.4722 21.5484 22.0839 21.9877 22.6762 22.2683C23.616 22.7136 24.9493 22.8434 25.9321 22.4611C26.002 22.4339 26.0723 22.4147 26.1036 22.3452C25.7956 22.1279 24.833 22.0853 24.4428 22.04C24.7438 21.6623 24.7687 21.2683 24.8061 20.809C25.8367 21.0692 27 21.7782 27.684 22.5892C28.5073 23.5654 28.8858 24.6882 28.7797 25.9633C28.7624 26.2274 28.7198 26.4847 28.6624 26.7428C28.5454 26.6261 28.4253 26.5128 28.302 26.4029C28.1787 26.2929 28.0524 26.1865 27.9231 26.0836C27.7939 25.9806 27.662 25.8814 27.5272 25.7858C27.3924 25.6902 27.2551 25.5984 27.1153 25.5105C26.9754 25.4225 26.8333 25.3385 26.6888 25.2585C26.5442 25.1784 26.3975 25.1025 26.2488 25.0306C26.1001 24.9587 25.9495 24.891 25.7969 24.8275C25.6444 24.764 25.4903 24.7047 25.3344 24.6498C23.0482 23.8614 20.8738 24.1628 18.7408 25.2045C18.2939 24.8474 17.8082 24.5921 17.2911 24.3543C17.3224 24.2631 17.3559 24.1726 17.3918 24.083C17.4278 23.9935 17.4659 23.9049 17.5064 23.8173C17.5468 23.7297 17.5895 23.6432 17.6344 23.5578C17.6793 23.4724 17.7264 23.3883 17.7757 23.3053C17.8249 23.2223 17.8763 23.1406 17.9297 23.0603C17.9831 22.98 18.0386 22.9011 18.0962 22.8236C18.1537 22.7461 18.2131 22.6702 18.2746 22.5957C18.336 22.5213 18.3993 22.4486 18.4644 22.3774C19.4051 21.3625 20.7449 20.65 22.1379 20.5949Z" fill="#1C1C1C"/>
<path d="M35.048 20.9811C35.597 20.9495 36.1529 20.9748 36.6897 21.1C38.2794 21.4707 39.3777 22.4877 40.222 23.8343C40.0571 23.918 39.8956 24.0048 39.7391 24.1036C38.8859 24.6426 38.3548 25.3753 38.135 26.3584C37.9582 26.2966 37.7787 26.2403 37.595 26.2026C36.6734 26.0132 35.7885 26.321 35.0191 26.8186C34.8682 26.9171 34.7282 27.0337 34.586 27.1441C34.3287 27.0388 34.0495 26.98 33.7743 26.9454C32.8586 26.8304 31.9617 27.017 31.229 27.5919C30.8353 27.0582 30.6077 26.3259 30.5597 25.6692C30.4799 24.5735 30.878 23.5242 31.5935 22.7028C31.6205 22.6715 31.6479 22.6406 31.6756 22.6101C31.7033 22.5795 31.7315 22.5493 31.76 22.5194C31.7885 22.4895 31.8173 22.46 31.8466 22.4309C31.8758 22.4017 31.9053 22.3729 31.9353 22.3445C31.9652 22.3161 31.9955 22.288 32.0261 22.2604C32.0567 22.2327 32.0877 22.2054 32.119 22.1785C32.1503 22.1516 32.182 22.1251 32.2139 22.099C32.2459 22.0729 32.2782 22.0471 32.3108 22.0218C32.3434 21.9965 32.3763 21.9716 32.4095 21.9471C32.4427 21.9226 32.4762 21.8985 32.51 21.8748C32.5439 21.8511 32.578 21.8279 32.6124 21.805C32.6467 21.7822 32.6814 21.7598 32.7164 21.7378C32.7513 21.7158 32.7865 21.6943 32.822 21.6732C32.8575 21.6521 32.8932 21.6314 32.9291 21.6112C32.9651 21.591 33.0014 21.5712 33.0379 21.5519C33.0743 21.5326 33.111 21.5137 33.148 21.4953C33.1849 21.4769 33.2221 21.4589 33.2595 21.4414C33.2969 21.424 33.3345 21.4069 33.3723 21.3904C33.4101 21.3738 33.4481 21.3577 33.4863 21.3421C33.5245 21.3264 33.5629 21.3113 33.6015 21.2966C33.6401 21.282 33.6789 21.2678 33.7178 21.2541C33.7567 21.2403 33.7958 21.2271 33.8351 21.2144C33.8743 21.2016 33.9138 21.1894 33.9533 21.1776C33.9929 21.1659 34.0326 21.1546 34.0724 21.1438C34.1123 21.133 34.1523 21.1227 34.1924 21.113C34.2325 21.1032 34.2727 21.0938 34.313 21.085C34.3534 21.0763 34.3938 21.068 34.4343 21.0601C34.4748 21.0523 34.5154 21.045 34.5562 21.0383C34.5969 21.0315 34.6377 21.0252 34.6786 21.0194C34.7194 21.0136 34.7604 21.0084 34.8014 21.0036C34.8424 20.9988 34.8834 20.9946 34.9246 20.9908C34.9656 20.9871 35.0068 20.9838 35.048 20.9811Z" fill="#1C1C1C"/>
<path d="M16.522 13.6963C17.3663 13.6203 18.1925 13.7255 19.0066 13.9499C18.8568 14.411 18.7547 14.8743 18.6582 15.3485C17.9235 15.051 17.2526 14.5269 16.5904 14.0952C16.8436 14.8813 17.622 15.4184 18.3129 15.8019C19.49 16.4552 20.944 16.7777 22.2677 16.3967C21.4762 16.1016 20.5937 16.0443 19.7789 15.809L20.401 14.6772C20.5604 14.7406 20.7163 14.8116 20.8688 14.8903C21.0212 14.9689 21.1695 15.0547 21.3137 15.1477C21.4577 15.2408 21.597 15.3406 21.7314 15.4472C21.8658 15.5538 21.9947 15.6667 22.1181 15.7858C23.244 16.877 23.8172 18.4267 23.8492 19.9777C23.4132 20.1143 23.2176 20.0466 22.7821 20.0021C21.8635 19.9028 20.9099 20.1236 20.0748 20.5019C18.4838 21.2225 17.3304 22.5022 16.7154 24.1281L16.0802 23.941C15.9787 23.5579 15.9222 23.1607 15.8262 22.7752C15.2491 20.4583 13.5879 18.5802 11.5773 17.3697C11.7885 16.8055 12.1366 16.2407 12.5228 15.7796C12.5537 15.7425 12.5851 15.7059 12.6169 15.6697C12.6487 15.6334 12.6809 15.5976 12.7136 15.5621C12.7463 15.5267 12.7794 15.4917 12.813 15.457C12.8466 15.4224 12.8805 15.3882 12.9149 15.3544C12.9493 15.3206 12.9841 15.2872 13.0193 15.2543C13.0546 15.2214 13.0902 15.1889 13.1262 15.1568C13.1622 15.1248 13.1986 15.0932 13.2355 15.0621C13.2723 15.0309 13.3095 15.0002 13.347 14.9699C13.3846 14.9397 13.4225 14.9099 13.4608 14.8806C13.4991 14.8514 13.5377 14.8225 13.5768 14.7942C13.6158 14.7659 13.6551 14.738 13.6948 14.7106C13.7345 14.6833 13.7745 14.6564 13.8149 14.63C13.8553 14.6036 13.896 14.5777 13.9369 14.5523C13.9779 14.5269 14.0192 14.5021 14.0608 14.4777C14.1024 14.4534 14.1444 14.4296 14.1866 14.4062C14.2288 14.3829 14.2712 14.3601 14.314 14.3378C14.3568 14.3155 14.3998 14.2938 14.4431 14.2726C14.4864 14.2514 14.53 14.2307 14.5738 14.2105C14.6176 14.1904 14.6616 14.1708 14.7059 14.1517C14.7502 14.1327 14.7948 14.1142 14.8395 14.0963C14.8843 14.0783 14.9292 14.0609 14.9744 14.0441C15.0196 14.0272 15.065 14.0109 15.1106 13.9952C15.1561 13.9795 15.2019 13.9643 15.2478 13.9497C15.2938 13.9352 15.34 13.9211 15.3862 13.9077C15.4326 13.8942 15.479 13.8813 15.5257 13.869C15.5723 13.8567 15.619 13.845 15.6659 13.8339C15.7128 13.8227 15.7599 13.8121 15.8071 13.8021C15.8543 13.7922 15.9015 13.7827 15.9489 13.7739C15.9963 13.7651 16.0438 13.7568 16.0915 13.7492C16.1391 13.7416 16.1867 13.7345 16.2345 13.728C16.2823 13.7216 16.3301 13.7157 16.3781 13.7104C16.426 13.7051 16.474 13.7004 16.522 13.6963Z" fill="#1C1C1C"/>
<path d="M32.9281 31.0459C32.9453 31.0441 32.9623 31.0419 32.9795 31.0404C34.3491 30.9258 35.9058 31.2001 36.9569 32.1446C37.762 32.868 38.3319 33.9202 38.3851 35.0115C38.4393 36.1236 38.0145 37.0884 37.2737 37.9015C36.0812 37.9397 34.8933 37.9975 33.6994 38.0026C31.195 38.0028 28.6951 37.8972 26.1996 37.686C26.0431 37.2115 25.9469 36.7732 25.9179 36.2732C25.9601 35.2823 26.2071 34.4312 26.7651 33.6036C27.4555 32.5797 28.5901 31.6097 29.8273 31.3646C30.2073 31.7446 30.5458 32.1814 30.8529 32.6214C30.316 32.7268 29.3318 32.7087 28.889 32.9695C28.8734 33.0268 28.8617 33.0182 28.8909 33.0621C29.025 33.2635 29.3864 33.3988 29.6167 33.4292C30.4262 33.536 31.3536 33.0509 31.9813 32.5769C32.2327 32.3871 33.1092 31.689 33.1516 31.3835L33.1115 31.3354C32.8378 31.299 31.7195 32.1467 31.41 32.3253C31.2481 31.99 31.0928 31.6516 30.9441 31.3102C31.5907 31.1464 32.2647 31.0946 32.9281 31.0459Z" fill="#1C1C1C"/>
<path d="M14.2507 24.4328C15.6722 24.292 17.0208 24.7896 18.208 25.5284C16.5476 26.6622 15.411 28.2818 14.9517 30.245C14.9292 30.3451 14.9086 30.4456 14.8901 30.5465C14.8716 30.6474 14.855 30.7486 14.8405 30.8502C14.8259 30.9518 14.8134 31.0536 14.8029 31.1556C14.7923 31.2577 14.7838 31.3599 14.7773 31.4623C14.7708 31.5647 14.7664 31.6672 14.7639 31.7697C14.7615 31.8723 14.761 31.9748 14.7626 32.0774C14.7642 32.18 14.7678 32.2825 14.7735 32.385C14.7792 32.4874 14.7868 32.5897 14.7965 32.6918C14.8062 32.7939 14.8178 32.8959 14.8315 32.9975C14.8452 33.0992 14.8609 33.2006 14.8786 33.3017C14.8963 33.4027 14.916 33.5034 14.9377 33.6037C14.9594 33.7039 14.983 33.8037 15.0086 33.9031C15.0342 34.0024 15.0618 34.1012 15.0913 34.1995C15.1208 34.2978 15.1523 34.3954 15.1856 34.4924C15.219 34.5894 15.2542 34.6857 15.2914 34.7813C15.3286 34.877 15.3676 34.9718 15.4085 35.0659C15.6216 35.5448 15.8944 35.9908 16.1687 36.4361C15.4383 36.2651 14.694 36.1419 13.9603 35.984C12.9987 35.777 9.53881 34.9572 8.89481 34.5153C8.70559 34.3854 8.56649 34.1118 8.44191 33.9189C8.40032 33.8511 8.36019 33.7825 8.32152 33.713C8.2829 33.6436 8.24576 33.5733 8.2101 33.5022C8.17445 33.4311 8.14032 33.3593 8.10771 33.2868C8.07511 33.2143 8.04408 33.1411 8.01462 33.0673C7.98516 32.9934 7.95728 32.919 7.93101 32.844C7.90473 32.7689 7.88006 32.6934 7.857 32.6173C7.83395 32.5412 7.81253 32.4647 7.79275 32.3877C7.77296 32.3106 7.75483 32.2332 7.73836 32.1555C7.72184 32.0777 7.70703 31.9996 7.69391 31.9212C7.68075 31.8428 7.66926 31.7641 7.65946 31.6852C7.64969 31.6063 7.64161 31.5273 7.6352 31.448C7.62879 31.3688 7.62408 31.2894 7.62107 31.2099C7.61802 31.1305 7.61668 31.051 7.61707 30.9715C7.61746 30.892 7.61952 30.8126 7.62326 30.7332C7.62705 30.6537 7.63251 30.5744 7.63965 30.4952C7.64679 30.416 7.65563 30.337 7.66617 30.2582C7.88146 28.7573 8.74371 27.2099 9.96262 26.2929C10.2742 26.6442 10.5887 26.9894 10.9173 27.325C10.5511 27.522 10.1509 27.6586 9.75668 27.7881C9.53765 27.8601 9.29849 27.9173 9.09797 28.0315L9.09759 28.0754C9.25636 28.1831 9.53339 28.1691 9.72236 28.1597C10.7939 28.1064 11.9578 27.5402 12.6761 26.7432C13.0871 26.2873 13.2787 25.8002 13.2496 25.1843C12.9707 25.6179 12.6722 26.0471 12.3053 26.4108C11.84 26.1724 11.4625 25.8058 11.1214 25.4166C12.0832 24.8337 13.1327 24.5208 14.2507 24.4328Z" fill="#1C1C1C"/>
<path d="M47.7834 55.5773L47.8632 55.6203C47.9451 55.729 47.9662 55.8254 47.9756 55.9607C48.0153 56.5306 47.7122 57.0602 47.3518 57.4781C46.8732 58.033 46.2281 58.4069 45.5829 58.7374C42.6531 60.238 38.8275 60.812 35.5654 61.048C30.9669 61.3808 22.8218 60.8575 19.1887 57.7163C19.1515 57.6809 19.115 57.6448 19.0792 57.608C18.5047 57.0212 18.1971 56.4275 18.2044 55.6001C23.2687 57.6176 27.98 58.2956 33.4034 58.2849C36.2772 58.2792 39.1062 58.0552 41.9168 57.4388C43.948 56.9934 45.8582 56.3524 47.7834 55.5773Z" fill="#1C1C1C"/>
<path d="M26.8398 9.69601C26.938 9.68862 27.0362 9.68322 27.1346 9.67982C27.233 9.67642 27.3314 9.67505 27.4298 9.67569C27.5283 9.67629 27.6267 9.67892 27.725 9.68356C27.8233 9.68821 27.9215 9.69487 28.0195 9.70356C28.1176 9.71221 28.2154 9.72285 28.3131 9.7355C28.4107 9.74814 28.508 9.76279 28.605 9.77943C28.702 9.79608 28.7987 9.81468 28.8949 9.83524C28.9912 9.8558 29.087 9.87834 29.1823 9.90285C29.2776 9.92733 29.3724 9.95376 29.4667 9.98214C29.561 10.0105 29.6546 10.0407 29.7476 10.0729C29.8407 10.1051 29.933 10.1392 30.0246 10.1752C30.1162 10.2111 30.2071 10.2489 30.2972 10.2886C30.3873 10.3283 30.4765 10.3697 30.5649 10.413C30.6533 10.4564 30.7408 10.5015 30.8273 10.5483C30.9139 10.5953 30.9994 10.6439 31.084 10.6943C31.1685 10.7446 31.252 10.7967 31.3345 10.8505C32.8166 11.8178 33.966 13.3788 34.3191 15.1251C34.6918 16.9679 34.3212 18.6829 33.2849 20.2403C33.067 19.8542 32.8783 19.4444 32.6749 19.0498C32.856 18.8594 32.9958 18.6529 33.1165 18.4196C33.3274 18.0119 33.6602 17.3043 33.5002 16.846C33.4251 16.6309 33.2411 16.4846 33.0373 16.3967C32.8548 16.3179 32.6665 16.2914 32.469 16.2903C32.161 16.2885 29.4359 16.5358 29.2221 16.6287C29.1228 16.6719 29.0958 16.7227 29.0572 16.8201C29.0712 17.0114 29.1769 17.1047 29.3098 17.2335C28.6498 17.4965 28.2211 17.5125 27.5205 17.5048C27.4935 17.3872 27.4329 17.1863 27.3256 17.1169C27.2668 17.079 27.2131 17.0642 27.1471 17.0951C27.0183 17.1553 26.9256 17.3383 26.8889 17.4668C26.862 17.5615 26.8313 17.6551 26.802 17.7491C26.3963 18.0858 25.8834 18.3077 25.4442 18.6702C25.2394 18.5352 25.0382 18.4627 24.8041 18.3998C24.602 18.4479 24.4364 18.521 24.2587 18.6256C24.1649 18.1563 24.0205 17.7044 23.8738 17.2496C24.2763 17.2002 24.6818 17.1907 25.0867 17.1834C25.3228 17.1858 25.7788 17.2465 25.9911 17.1423C26.0577 17.1097 26.0612 17.0994 26.0834 17.0335C26.058 16.9634 26.0273 16.9188 25.9678 16.8746C25.6761 16.658 24.1503 16.9347 23.7388 16.9812C23.6553 16.841 23.5821 16.693 23.505 16.5492C23.8178 16.5609 26.1029 16.6587 26.1613 16.6411C26.2214 16.5853 26.2308 16.5783 26.2513 16.4996L26.2101 16.4418C25.752 16.1901 23.9096 16.2291 23.3102 16.2209C22.9526 15.7742 22.5454 15.3012 22.0937 14.9458C22.1427 14.7905 22.1959 14.6269 22.2673 14.48C22.4079 14.191 22.6094 14.089 22.8988 13.9929C23.7162 14.343 24.4811 14.9787 25.2084 15.4901C25.5117 15.7033 25.8706 16.0242 26.232 16.1177C26.3171 16.1397 26.3601 16.141 26.4365 16.0994C26.4611 16.0242 26.4618 15.9607 26.4258 15.8887C26.2604 15.5583 23.6203 13.8542 23.132 13.6765C22.8885 13.5879 22.6547 13.5874 22.4194 13.7036C22.0029 13.9092 21.8739 14.3033 21.7436 14.7147C21.438 14.4719 21.1 14.2884 20.7597 14.0999C20.8616 13.9017 20.9704 13.7075 21.0862 13.5171C21.2019 13.3267 21.3244 13.1408 21.4534 12.9592C21.5826 12.7776 21.718 12.6008 21.8597 12.4289C22.0014 12.257 22.1491 12.0904 22.3028 11.929C22.6765 11.5443 23.2729 11.2483 23.5083 10.7722C24.5821 10.1903 25.606 9.77711 26.8398 9.69601Z" fill="#1C1C1C"/>
<path d="M30.5789 12.1051C30.854 12.0794 31.0695 12.0652 31.3264 12.1924C31.8118 12.4328 32.5586 13.3963 32.7155 13.9043C32.7737 14.0928 32.7764 14.3026 32.6757 14.4779C32.5912 14.625 32.4101 14.7426 32.2645 14.8209C31.6918 15.1289 31.038 15.3368 30.4442 15.6082C30.1673 15.7349 29.4873 16.1394 29.2571 16.195C29.1435 16.2224 29.0406 16.2126 28.9401 16.1523C28.9084 16.0761 28.8992 16.0632 28.9373 15.9828C28.9855 15.8813 29.1066 15.7828 29.2 15.7256C29.5368 15.5198 29.9382 15.3666 30.3006 15.2082C30.8491 14.9685 31.397 14.7216 31.9602 14.5179C32.0747 14.4718 32.1778 14.4175 32.2324 14.2993C32.3016 14.1493 32.2447 13.95 32.1804 13.8082C32.0089 13.4298 31.4042 12.6658 31.0164 12.5281C30.9147 12.4921 30.7684 12.4789 30.6741 12.5419C30.127 12.9068 29.0389 15.3687 28.6601 15.5525C28.5847 15.5428 28.5531 15.5386 28.503 15.4723C28.4506 15.4028 28.4517 15.3186 28.476 15.2395C28.6166 14.7832 29.888 12.7703 30.2439 12.3591C30.3421 12.2457 30.4478 12.176 30.5789 12.1051Z" fill="white"/>
<path d="M27.1662 10.6256C27.5265 10.5904 28.0644 10.6396 28.3521 10.8737C28.5476 11.0327 28.6454 11.2805 28.657 11.5281C28.6806 12.036 28.4714 12.6148 28.3886 13.121C28.2918 13.7135 28.2461 14.3262 28.1117 14.9107C28.0953 14.9818 28.0787 15.0262 28.0283 15.0813C27.9387 15.1021 27.9234 15.0944 27.8351 15.0648C27.3867 14.6246 28.3701 11.8752 28.1966 11.4059C28.1498 11.279 28.0536 11.2083 27.933 11.1573C27.4146 10.9381 26.6814 11.1135 26.1841 11.3202C26.1156 11.3602 26.0447 11.4009 25.9812 11.4484C25.8759 11.5273 25.8219 11.6486 25.8281 11.7795C25.8603 12.4579 27.1404 14.7333 27.0334 15.2428C27.015 15.3301 26.9977 15.3401 26.9299 15.3889C26.8497 15.3951 26.8086 15.3909 26.7428 15.3406C26.6695 15.2845 26.6183 15.1806 26.5822 15.0982C26.5014 14.9132 26.4605 14.7051 26.3928 14.5142C26.1711 13.8901 25.9192 13.2714 25.691 12.6484C25.5975 12.3928 25.4608 12.098 25.4246 11.8288C25.421 11.8025 25.4187 11.776 25.4177 11.7494C25.4167 11.7228 25.4171 11.6962 25.4188 11.6697C25.4206 11.6431 25.4237 11.6167 25.4281 11.5905C25.4326 11.5643 25.4383 11.5383 25.4454 11.5127C25.4525 11.4871 25.4609 11.4618 25.4705 11.437C25.4802 11.4122 25.4911 11.388 25.5032 11.3643C25.5154 11.3407 25.5287 11.3177 25.5432 11.2953C25.5577 11.273 25.5732 11.2515 25.5899 11.2308C25.9382 10.7951 26.6448 10.678 27.1662 10.6256Z" fill="white"/>
<path d="M43.0532 27.4339C43.2073 27.4306 43.3621 27.4372 43.5162 27.4434C44.0793 27.4658 44.6237 27.5889 45.1596 27.7584C47.369 28.4572 49.0002 30.0479 50.6071 31.6396C51.8758 32.8961 53.0716 34.2219 54.2828 35.5335C53.6015 35.6739 52.9299 35.8604 52.2529 36.0199C51.1529 36.2791 50.0248 36.5163 48.9105 36.7039C45.8478 37.3461 42.6887 37.5943 39.5718 37.8094C39.3013 37.221 39.1024 36.5985 39.0532 35.9491C39.0231 35.5523 39.0329 35.1527 38.9919 34.7566C38.9316 34.1749 38.8311 33.6002 38.8056 33.015C38.7407 31.5268 39.0102 29.7023 40.0623 28.5667C40.8452 27.7216 41.9444 27.4799 43.0532 27.4339Z" fill="#1C1C1C"/>
<path d="M50.3547 32.7494C50.4797 32.7425 50.5974 32.7444 50.7194 32.7763C50.9326 32.8319 51.1675 32.9228 51.2812 33.1258C51.3425 33.2351 51.322 33.3186 51.2939 33.4321C51.244 33.438 51.1941 33.4437 51.1438 33.4443C50.9316 33.447 50.6797 33.3008 50.5384 33.1491C50.4319 33.0348 50.3496 32.9088 50.3547 32.7494Z" fill="white"/>
<path d="M44.1345 28.2953C44.4845 28.2682 44.7954 28.3502 45.0763 28.566C45.165 28.6341 45.2733 28.7423 45.2766 28.8621C45.2798 28.9826 45.2102 29.0466 45.1252 29.1175C45.0031 29.1219 44.9165 29.1081 44.8039 29.0591C44.5385 28.9438 44.1546 28.7422 44.0444 28.4632C44.053 28.367 44.0661 28.3659 44.1345 28.2953Z" fill="white"/>
<path d="M39.4351 30.8623C39.4815 31.4438 39.5583 33.398 39.4036 33.8416L39.3557 33.8012C39.0214 32.9011 39.0941 31.7491 39.4351 30.8623Z" fill="white"/>
<path d="M47.9759 35.3908C48.3025 35.3992 48.5975 35.4712 48.8688 35.6588C48.9734 35.7311 49.0976 35.8463 49.1016 35.9837C49.105 36.1001 49.0457 36.1845 48.9635 36.2577C48.6414 36.2712 48.3961 36.1685 48.1386 35.9796C48.0005 35.8781 47.8699 35.7621 47.8427 35.5863C47.8753 35.4703 47.8812 35.4661 47.9759 35.3908Z" fill="white"/>
<path d="M46.8423 31.0687C47.1857 31.0438 47.4813 31.127 47.7772 31.2996C47.9134 31.379 48.0909 31.5127 48.1175 31.6812C48.1348 31.7906 48.1013 31.8467 48.0444 31.9334C47.8274 31.9524 47.6719 31.92 47.4718 31.8317C47.2488 31.7333 46.8548 31.5173 46.796 31.2642C46.7737 31.1682 46.795 31.1492 46.8423 31.0687Z" fill="white"/>
<path d="M41.7018 30.1619C41.9159 30.149 42.0699 30.1826 42.2563 30.2939C42.4429 30.4052 42.6196 30.5784 42.6625 30.7997C42.6985 30.9859 42.6491 31.1045 42.5436 31.2548C42.3319 31.2761 42.1574 31.2453 41.9725 31.1329C41.7869 31.0201 41.6299 30.8452 41.5899 30.6263C41.5559 30.4403 41.6004 30.3154 41.7018 30.1619Z" fill="white"/>
<path d="M44.0077 34.6145C44.1221 34.6008 44.2232 34.594 44.3349 34.6281C44.6708 34.731 45.0243 34.9869 45.1824 35.3062C45.2766 35.4965 45.27 35.6297 45.2046 35.8263C45.1222 35.8476 45.0382 35.8644 44.9528 35.8536C44.6679 35.8173 44.3789 35.548 44.2181 35.3261C44.0595 35.1072 43.9616 34.8854 44.0077 34.6145Z" fill="white"/>
<path d="M40.0079 35.5421C40.1564 35.5523 40.2514 35.5837 40.3718 35.6742C40.6539 35.8864 40.9591 36.2744 41.0059 36.63C41.0281 36.7989 40.9932 36.8937 40.8898 37.0254C40.7478 37.041 40.657 37.043 40.5327 36.9672C40.2401 36.789 40.0286 36.4286 39.9514 36.1015C39.9045 35.9026 39.8985 35.7192 40.0079 35.5421Z" fill="white"/>
<path d="M7.56633 17.1095C9.35627 16.9395 11.0653 17.5668 12.447 18.6863C13.971 19.921 15.2043 21.8322 15.4074 23.8111C13.4308 23.7531 12.5085 24.0311 10.7605 24.8865C10.5424 24.4699 10.3905 23.948 10.3553 23.4787C10.328 23.115 10.4374 22.6386 10.2682 22.3028C10.2121 22.1915 10.1247 22.1082 10.0046 22.0704C9.83407 22.0166 9.6062 22.0535 9.45136 22.1383C9.20569 22.2729 9.06156 22.5624 8.99743 22.8246C8.76691 23.7664 9.1253 24.9228 9.60414 25.7311C8.91227 26.4064 8.28698 27.0687 7.81227 27.9205C7.0893 29.1602 6.86814 30.6377 7.0682 32.0455C5.74894 31.8821 4.41807 31.245 3.39096 30.4131C3.34361 30.3754 3.29675 30.3371 3.25037 30.2983C3.20399 30.2594 3.15811 30.22 3.11273 30.1799C3.06735 30.1399 3.02248 30.0993 2.97813 30.0582C2.93378 30.017 2.88995 29.9753 2.84665 29.933C2.80336 29.8908 2.7606 29.848 2.71838 29.8046C2.67616 29.7613 2.6345 29.7174 2.5934 29.673C2.55229 29.6286 2.51175 29.5837 2.47178 29.5382C2.43181 29.4928 2.39242 29.4469 2.35361 29.4005C2.3148 29.3541 2.27659 29.3071 2.23896 29.2597C2.20134 29.2124 2.16432 29.1645 2.12791 29.1162C2.0915 29.0679 2.0557 29.0191 2.02053 28.9699C1.98535 28.9206 1.9508 28.8709 1.91687 28.8208C1.88295 28.7707 1.84967 28.7202 1.81702 28.6693C1.78438 28.6183 1.75238 28.567 1.72104 28.5152C1.6897 28.4635 1.65901 28.4113 1.62898 28.3588C1.59896 28.3062 1.5696 28.2533 1.54091 28.2001C1.51222 28.1468 1.48421 28.0932 1.45688 28.0392C1.42955 27.9852 1.4029 27.9309 1.37694 27.8762C1.35098 27.8216 1.32572 27.7666 1.30115 27.7113C1.27658 27.656 1.25272 27.6004 1.22956 27.5445C1.2064 27.4886 1.18395 27.4324 1.16221 27.3759C1.14047 27.3195 1.11944 27.2627 1.09914 27.2057C1.07883 27.1487 1.05925 27.0915 1.0404 27.034C1.02154 26.9765 1.00341 26.9188 0.986009 26.8608C0.968611 26.8029 0.951951 26.7447 0.936028 26.6863C0.920102 26.6279 0.904914 26.5694 0.890467 26.5106C0.876024 26.4519 0.862325 26.393 0.84937 26.3339C0.836416 26.2748 0.824209 26.2155 0.812751 26.1561C0.801297 26.0967 0.790596 26.0371 0.780648 25.9774C0.770695 25.9178 0.761502 25.8579 0.753067 25.798C0.744628 25.7381 0.736949 25.6781 0.730028 25.618C0.723112 25.5579 0.716955 25.4977 0.711558 25.4374C0.705626 25.3756 0.700461 25.3137 0.696061 25.2518C0.691661 25.1898 0.688026 25.1278 0.685157 25.0658C0.682289 25.0038 0.68019 24.9417 0.678861 24.8796C0.677527 24.8175 0.676962 24.7555 0.677164 24.6933C0.67737 24.6312 0.678342 24.5691 0.68008 24.5071C0.681822 24.445 0.684329 24.383 0.687603 24.321C0.69088 24.2589 0.694921 24.197 0.699725 24.1351C0.704534 24.0731 0.710106 24.0113 0.716441 23.9495C0.722781 23.8877 0.729882 23.826 0.737745 23.7644C0.745607 23.7028 0.754231 23.6414 0.763616 23.58C0.773001 23.5186 0.783142 23.4573 0.794041 23.3962C0.80494 23.3351 0.816594 23.2741 0.829003 23.2132C0.841411 23.1524 0.85457 23.0917 0.86848 23.0312C0.88239 22.9706 0.897046 22.9103 0.912448 22.8501C0.92785 22.79 0.943994 22.73 0.96088 22.6702C0.977766 22.6105 0.99539 22.551 1.01375 22.4916C1.03211 22.4323 1.0512 22.3732 1.07102 22.3144C1.09083 22.2555 1.11138 22.1969 1.13265 22.1386C1.15392 22.0802 1.17591 22.0221 1.19862 21.9644C1.22132 21.9066 1.24474 21.849 1.26887 21.7918C1.293 21.7346 1.31783 21.6777 1.34336 21.6211C1.3689 21.5645 1.39514 21.5082 1.42207 21.4522C1.449 21.3963 1.47661 21.3407 1.50491 21.2854C1.53322 21.2301 1.5622 21.1752 1.59187 21.1206C1.62153 21.0661 1.65186 21.0119 1.68287 20.9581C1.71387 20.9043 1.74553 20.8508 1.77786 20.7979C1.81018 20.7448 1.84316 20.6922 1.87678 20.64C1.91041 20.5878 1.94468 20.536 1.97959 20.4846C2.0145 20.4333 2.05003 20.3824 2.0862 20.3319C2.12236 20.2814 2.15915 20.2314 2.19656 20.1818C2.23396 20.1322 2.27197 20.0831 2.31059 20.0345C2.34921 19.9859 2.38842 19.9377 2.42823 19.8901C2.46767 19.8416 2.50768 19.7937 2.54829 19.7462C2.58889 19.6988 2.63006 19.6519 2.67182 19.6055C2.71357 19.5591 2.75588 19.5132 2.79875 19.4677C2.84162 19.4224 2.88505 19.3775 2.92902 19.3332C2.97299 19.2888 3.01749 19.245 3.06253 19.2018C3.10757 19.1585 3.15314 19.1158 3.19922 19.0737C3.24531 19.0316 3.2919 18.99 3.339 18.949C3.3861 18.908 3.4337 18.8676 3.4818 18.8278C3.52988 18.788 3.57845 18.7487 3.62751 18.7101C3.67656 18.6715 3.72607 18.6335 3.77605 18.596C3.82603 18.5586 3.87646 18.5218 3.92734 18.4856C3.97822 18.4494 4.02954 18.4138 4.08129 18.3789C4.13304 18.3439 4.1852 18.3096 4.23779 18.276C4.29038 18.2423 4.34337 18.2093 4.39677 18.177C4.45017 18.1446 4.50395 18.1128 4.55813 18.0818C4.6123 18.0507 4.66684 18.0204 4.72176 17.9906C4.77667 17.9609 4.83194 17.9319 4.88756 17.9035C4.94319 17.8752 4.99915 17.8475 5.05546 17.8205C5.11176 17.7935 5.16839 17.7672 5.22533 17.7415C5.28228 17.7159 5.33953 17.691 5.39708 17.6668C5.45464 17.6426 5.51248 17.6191 5.57061 17.5963C5.62874 17.5735 5.68714 17.5514 5.74581 17.5301C5.80448 17.5087 5.8634 17.488 5.92258 17.4681C5.98175 17.4482 6.04116 17.429 6.10081 17.4105C6.16045 17.3921 6.22031 17.3743 6.2804 17.3573C6.34047 17.3402 6.40075 17.324 6.46123 17.3084C6.52171 17.2929 6.58235 17.2781 6.64317 17.2641C6.70403 17.25 6.76504 17.2367 6.8262 17.2242C6.88736 17.2116 6.94868 17.1998 7.01014 17.1887C7.0716 17.1776 7.13317 17.1673 7.19485 17.1578C7.25657 17.1482 7.3184 17.1395 7.38033 17.1314C7.44222 17.1234 7.50422 17.1161 7.56633 17.1095Z" fill="#1C1C1C"/>
<path d="M22.3248 24.8199C22.8876 24.7713 23.5145 24.839 24.0692 24.9387C26.5717 25.3888 28.5494 27.1264 29.9554 29.163C29.9659 29.2573 29.935 29.3004 29.8976 29.3864C29.7434 29.4081 28.6476 27.5997 27.9407 27.512C27.7744 27.4914 27.6147 27.5581 27.4902 27.6656C27.3577 27.7801 27.2874 27.9372 27.2771 28.1108C27.2379 28.7718 28.0052 29.4315 28.4162 29.879C28.7071 30.1896 28.9895 30.5078 29.2634 30.8335C28.4805 31.2294 27.794 31.5823 27.153 32.1994C26.0352 33.2751 25.3443 34.6326 25.3158 36.1974C25.315 36.7047 25.3786 37.1488 25.5094 37.6403C22.6688 37.4324 19.8597 37.0352 17.0481 36.5954C16.1168 35.2335 15.4989 34.1173 15.3818 32.4252C15.2574 30.6285 15.8545 28.7177 17.0499 27.3577C18.4348 25.7822 20.2458 24.9602 22.3248 24.8199Z" fill="#1C1C1C"/>
<path d="M43.5129 5.56177C43.5732 5.55842 43.6336 5.55724 43.6939 5.55823C43.7543 5.55923 43.8146 5.56239 43.8748 5.56774C43.9349 5.57308 43.9948 5.58058 44.0544 5.59023C44.114 5.59989 44.1732 5.61169 44.2319 5.62561C44.2907 5.63954 44.3488 5.65557 44.4064 5.67369C44.464 5.69181 44.5209 5.71198 44.5771 5.73421C44.6332 5.75643 44.6885 5.78065 44.7429 5.80686C44.7972 5.83307 44.8506 5.8612 44.903 5.89126C46.5717 6.82898 46.4737 8.4984 46.5618 10.1606C46.6015 11.0138 46.6808 11.8634 46.7997 12.7093C46.9901 14.0498 47.3703 15.3014 47.74 16.5976C46.4411 16.7444 45.2055 17.2133 44.0566 17.8163C45.2526 18.3078 46.1658 18.6289 47.2744 19.3329C47.5458 19.5052 47.8306 19.6861 48.0693 19.9014C47.2564 20.6966 45.1885 22.2252 44.758 23.0961C45.5792 23.3806 46.9078 23.3564 47.7993 23.3889C47.7571 24.3484 47.6676 25.2449 47.4955 26.1902L47.4656 26.1555C46.9271 25.5386 46.3956 25.2359 45.5732 25.1866C44.8934 24.0181 44.3665 22.7825 43.8917 21.5182C42.425 17.6124 42.0628 14.3532 42.9782 10.2488C43.1384 9.53046 43.4133 8.85608 43.6591 8.16498C43.872 7.56627 44.0504 6.9755 44.1922 6.35591C43.8082 6.92001 43.4573 7.60324 43.2198 8.24117C42.4588 10.2849 41.9888 13.6136 42.1569 15.8022C42.1685 16.2912 42.2484 16.7982 42.3191 17.2818C42.6418 19.4902 43.1794 20.6154 44.0685 22.615C44.2925 23.1187 44.4873 23.6359 44.7211 24.1351C44.9102 24.5387 45.1307 24.9307 45.342 25.3231C45.0898 25.3955 44.8389 25.4718 44.5892 25.5521C44.2445 24.6597 43.6769 24.0542 42.8127 23.6494C41.8861 20.5156 41.4504 18.2621 41.7334 14.9691C41.8167 13.9998 41.9354 13.0452 42.1691 12.1001C42.106 12.2172 42.0429 12.335 41.9858 12.4552C41.6543 13.154 41.5015 13.9626 41.3803 14.7234C40.8789 17.8707 41.3918 20.5657 42.473 23.5287C41.8805 23.4724 41.42 23.4844 40.8354 23.6127C40.6101 23.2423 40.3733 22.8776 40.0968 22.543C38.8692 21.0581 37.4404 20.47 35.566 20.2928C35.6115 19.6055 35.7344 18.9032 35.8412 18.2226C36.3902 14.7212 37.4825 11.0889 39.7253 8.27853C40.5775 7.21072 42.1129 5.71735 43.5129 5.56177Z" fill="#1C1C1C"/>
<path d="M64.26 29.7571C64.3961 29.8844 64.5187 30.0193 64.6355 30.1643C65.1961 30.8589 65.5316 31.7442 65.4297 32.6438C65.2729 34.0278 64.2192 35.2301 63.1693 36.0602C60.6136 38.0811 56.5524 39.4157 53.4038 40.2061C43.3002 42.7426 32.7497 43.0944 22.4325 41.8553C16.5565 41.1497 5.67306 39.3682 1.84634 34.4973C1.44744 33.9272 1.17395 33.2636 1.13171 32.5638C1.0755 31.6326 1.46584 30.7195 2.07392 30.0279C2.36022 30.2936 2.64449 30.5597 2.94732 30.8066C3.0148 30.9977 3.09577 31.1828 3.19022 31.3621C4.45375 33.7234 8.25801 35.085 10.6732 35.8067C12.1149 36.2375 13.5895 36.5573 15.0641 36.8518C16.3503 37.1149 17.6425 37.3441 18.9408 37.5393C20.239 37.7346 21.5415 37.8958 22.8482 38.0227C31.188 38.8877 39.8508 38.9178 48.132 37.5066C50.0844 37.1618 52.0197 36.7393 53.9381 36.239C55.4096 35.8623 56.8323 35.4075 58.265 34.9037C59.2523 34.5564 60.2552 34.2083 61.1773 33.7075C62.1744 33.166 63.1408 32.4659 63.6465 31.4173C63.7686 31.164 63.8332 30.884 63.931 30.621C64.0394 30.3299 64.1715 30.0568 64.26 29.7571Z" fill="#1C1C1C"/>
<path d="M1.9314 35.5703C2.23033 35.7791 2.60713 36.2199 2.92023 36.4767C3.72784 37.1389 4.65534 37.6821 5.57438 38.1715C7.42105 39.155 9.44222 39.8349 11.4492 40.4033C17.4495 42.1028 23.9855 42.8662 30.2078 43.1115C33.1207 43.2087 36.0324 43.1809 38.9429 43.028C45.9313 42.5967 58.9211 40.8373 64.0681 36.084C64.0215 36.3256 63.9472 36.5631 63.8729 36.7975C63.7971 37.0295 63.7185 37.2606 63.6371 37.4908C63.5556 37.7209 63.4714 37.95 63.3845 38.1781C63.2975 38.4061 63.2078 38.6331 63.1153 38.8591C63.0228 39.085 62.9276 39.3097 62.8296 39.5333C62.7317 39.757 62.6311 39.9793 62.5278 40.2005C62.4244 40.4217 62.3184 40.6415 62.2098 40.8601C62.1011 41.0787 61.9898 41.2959 61.8758 41.5119C61.7619 41.7277 61.6454 41.9422 61.5262 42.1553C61.4071 42.3683 61.2854 42.5799 61.1611 42.79C61.0368 43.0001 60.91 43.2087 60.7807 43.4157C60.6513 43.6227 60.5195 43.8282 60.3852 44.0321C60.2509 44.2359 60.1141 44.4381 59.9749 44.6386C59.8356 44.8391 59.694 45.0379 59.55 45.235C59.4059 45.432 59.2595 45.6273 59.1107 45.8208C58.9619 46.0144 58.8108 46.2061 58.6574 46.3959C58.5039 46.5858 58.3482 46.7738 58.1902 46.9599C58.0322 47.1459 57.872 47.3301 57.7095 47.5122C57.5471 47.6944 57.3824 47.8747 57.2156 48.0529C57.0487 48.2311 56.8798 48.4072 56.7087 48.5813C56.5375 48.7554 56.3643 48.9274 56.1891 49.0973C56.0138 49.2672 55.8365 49.435 55.6571 49.6006C55.4778 49.7662 55.2964 49.9296 55.1131 50.0908C54.9298 50.252 54.7445 50.4109 54.5573 50.5676C54.3702 50.7243 54.1811 50.8787 53.9902 51.0308C53.7993 51.183 53.6066 51.3327 53.412 51.4802C53.2174 51.6276 53.0211 51.7727 52.8231 51.9153C52.625 52.058 52.4252 52.1983 52.2237 52.3361C52.0222 52.4739 51.8191 52.6093 51.6143 52.7422C51.4096 52.8751 51.2033 53.0055 50.9953 53.1334C50.7874 53.2613 50.578 53.3867 50.367 53.5095C50.156 53.6323 49.9436 53.7525 49.7297 53.8702C49.5159 53.9879 49.3006 54.1029 49.0839 54.2153C44.6563 56.58 39.2545 57.6475 34.2616 57.6357L34.9338 56.9882C37.5132 54.4602 39.3085 49.8268 39.3401 46.2373C39.3437 45.8255 39.3078 44.3168 39.0669 44.0717C38.9672 44.1105 39.0027 44.3801 39.0027 44.4787C39.0036 45.811 38.8456 47.1062 38.5641 48.408C38.5175 48.6193 38.4677 48.83 38.4147 49.0399C38.3618 49.2498 38.3057 49.4588 38.2465 49.667C38.1874 49.8752 38.1251 50.0824 38.0596 50.2888C37.9943 50.4951 37.9258 50.7005 37.8543 50.9048C37.7828 51.109 37.7082 51.3122 37.6306 51.5142C37.553 51.7163 37.4724 51.9172 37.3888 52.1168C37.3052 52.3165 37.2186 52.5148 37.1291 52.7119C37.0396 52.909 36.9471 53.1047 36.8517 53.299C36.7563 53.4933 36.658 53.6861 36.5569 53.8775C36.4557 54.0688 36.3517 54.2586 36.2449 54.4469C36.1381 54.6351 36.0285 54.8218 35.916 55.0067C35.8036 55.1917 35.6885 55.375 35.5706 55.5565C35.4527 55.738 35.3321 55.9177 35.2089 56.0957C35.0856 56.2736 34.9597 56.4496 34.8312 56.6238C34.7027 56.7979 34.5716 56.9701 34.4379 57.1404C34.3042 57.3107 34.168 57.4789 34.0293 57.645C27.9515 57.8441 21.1093 56.6895 15.7767 53.6665C9.5606 50.1426 4.94772 44.1823 2.5821 37.4897C2.35748 36.8542 2.11099 36.2201 1.9314 35.5703Z" fill="#1C1C1C"/>
<path d="M47.5385 42.6332C47.57 42.6543 47.583 42.679 47.6041 42.71C47.6111 43.0653 47.5299 43.434 47.4592 43.7816C47.0759 45.6674 46.2403 47.5089 45.1769 49.107C43.9796 50.9064 42.343 52.376 40.5868 53.6132C39.5952 54.3117 38.6036 54.954 37.3949 55.1955L37.3448 55.1794C37.3892 55.1206 38.5258 54.5038 38.7449 54.3626C39.56 53.8285 40.3454 53.2537 41.101 52.6383C43.4856 50.6939 45.344 48.3083 46.5053 45.4486C46.7118 44.94 46.9095 44.4215 47.0856 43.9015C47.2202 43.5041 47.3111 43.0221 47.5214 42.6612C47.5269 42.6518 47.5328 42.6425 47.5385 42.6332Z" fill="white"/>
<path d="M20.3915 42.6996C20.5561 42.8575 20.6577 43.3643 20.733 43.5863C21.0096 44.3895 21.3211 45.179 21.6677 45.9546C21.8747 46.4237 22.0951 46.8864 22.3289 47.3427C22.5627 47.7991 22.8095 48.2483 23.0693 48.6903C23.329 49.1324 23.6013 49.5666 23.8863 49.9929C24.1711 50.4192 24.4681 50.8369 24.7771 51.2461C26.0457 52.9129 27.5888 54.4085 29.3559 55.5394C29.6551 55.7344 29.9607 55.9188 30.2728 56.0925C30.5368 56.2405 31.0245 56.4467 31.2326 56.6434C31.2437 56.6539 31.2544 56.6649 31.2654 56.6756C30.6144 56.5362 29.9508 56.2454 29.3604 55.9462C26.8958 54.6974 24.994 52.7211 23.4219 50.4824C23.2557 50.2464 23.0951 50.0067 22.9402 49.7632C22.7852 49.5197 22.6361 49.2727 22.4927 49.0223C22.3493 48.7718 22.2118 48.5181 22.0803 48.2612C21.9488 48.0043 21.8234 47.7444 21.7041 47.4816C21.5847 47.2188 21.4716 46.9534 21.3646 46.6854C21.2577 46.4173 21.1571 46.1468 21.0629 45.874C20.9686 45.6012 20.8808 45.3264 20.7994 45.0495C20.718 44.7726 20.6431 44.4939 20.5748 44.2136C20.461 43.7387 20.3064 43.1864 20.3915 42.6996Z" fill="white"/>
<path d="M8.82539 39.8204C9.01552 40.0253 9.24636 40.9401 9.36855 41.2553C9.75462 42.2288 10.1962 43.1763 10.6933 44.0981C12.5982 47.6515 15.327 50.906 18.8407 52.9537C19.4977 53.3319 20.171 53.6782 20.8607 53.9926C21.2337 54.1659 21.7612 54.3451 22.0931 54.5771C22.1073 54.5871 22.1213 54.5975 22.1355 54.6077C21.2404 54.3922 20.3909 54.0598 19.5557 53.6767C16.7621 52.3953 14.4029 50.48 12.4849 48.084C10.9606 46.1799 9.72184 43.9348 9.07526 41.5764C8.92223 41.0183 8.76159 40.4025 8.82539 39.8204Z" fill="white"/>
<path d="M59.4598 40.3089C59.4768 40.3519 59.4862 40.3855 59.4867 40.4336C59.4904 40.7547 59.2845 41.1822 59.1637 41.48C58.2915 43.6305 56.8579 45.5237 55.2369 47.1641C54.6475 47.7543 54.0345 48.3191 53.398 48.8584C52.7615 49.3976 52.1037 49.9095 51.4246 50.3939C48.1664 52.6703 41.9889 55.6938 38.0004 55.7148C38.026 55.6682 39.0281 55.4445 39.1413 55.416C40.3067 55.1228 41.4495 54.8097 42.5807 54.3997C43.4567 54.0823 44.3117 53.7039 45.1572 53.3134C49.6635 51.2327 53.8366 48.2654 56.9138 44.3384C57.5911 43.474 58.1986 42.5384 58.7494 41.5889C58.9855 41.1819 59.1727 40.7186 59.4409 40.3352C59.4471 40.3263 59.4535 40.3177 59.4598 40.3089Z" fill="white"/>
<path d="M0 24.9586C0.0540828 25.3363 0.0828129 25.7178 0.145905 26.0941C0.362052 27.3836 0.896335 28.4606 1.65913 29.509C0.900432 30.506 0.340608 31.5633 0.519758 32.8579C0.588644 33.3557 0.780497 33.8045 0.92249 34.282C1.06291 34.7541 1.17299 35.2358 1.31159 35.709C3.20813 42.183 6.97871 48.1659 12.4204 52.2324C12.8264 52.5351 13.2396 52.8275 13.6601 53.1098C14.0805 53.3921 14.5076 53.6639 14.9415 53.9251C15.3753 54.1863 15.8153 54.4367 16.2615 54.6763C16.7076 54.9158 17.1594 55.1443 17.6168 55.3616C17.4859 56.1988 17.6352 56.8329 18.1388 57.5261C19.8194 59.8395 24.3023 60.889 26.9914 61.2989C32.0855 62.0755 37.7942 61.8773 42.7681 60.4695C44.2145 60.0601 45.7721 59.512 46.9911 58.6103C47.7085 58.0796 48.4116 57.3428 48.5512 56.4247C48.6125 56.0216 48.5353 55.6668 48.3913 55.2923C48.6175 55.1844 48.8424 55.0739 49.066 54.9606C49.2896 54.8473 49.5117 54.7313 49.7325 54.6126C49.9532 54.494 50.1725 54.3726 50.3903 54.2486C50.6081 54.1246 50.8244 53.9979 51.0391 53.8686C51.2538 53.7394 51.4669 53.6076 51.6784 53.4731C51.89 53.3386 52.0998 53.2017 52.308 53.0621C52.5162 52.9226 52.7226 52.7805 52.9274 52.6359C53.1321 52.4914 53.3351 52.3444 53.5363 52.1949C53.7374 52.0454 53.9367 51.8935 54.1342 51.7391C54.3317 51.5848 54.5272 51.4281 54.7209 51.269C54.9146 51.1099 55.1063 50.9485 55.296 50.7847C55.4858 50.621 55.6735 50.4549 55.8592 50.2866C56.0449 50.1183 56.2285 49.9478 56.4101 49.775C56.5917 49.6023 56.7711 49.4273 56.9484 49.2501C57.1257 49.073 57.3009 48.8938 57.4738 48.7124C57.6468 48.531 57.8175 48.3475 57.986 48.162C58.1545 47.9765 58.3207 47.7889 58.4846 47.5993C58.6486 47.4097 58.8102 47.2182 58.9695 47.0247C59.1288 46.8312 59.2857 46.6358 59.4403 46.4385C59.5948 46.2412 59.7469 46.042 59.8966 45.841C60.0463 45.64 60.1935 45.4372 60.3383 45.2326C60.483 45.028 60.6253 44.8217 60.7651 44.6136C60.9048 44.4056 61.042 44.1959 61.1767 43.9845C61.3114 43.7731 61.4434 43.5601 61.5729 43.3456C61.7024 43.1309 61.8293 42.9148 61.9535 42.6971C62.0777 42.4795 62.1993 42.2603 62.3182 42.0397C62.4371 41.819 62.5533 41.597 62.6668 41.3735C62.7803 41.1501 62.8911 40.9253 62.9992 40.6992C63.1073 40.473 63.2125 40.2456 63.315 40.0169C63.4176 39.7882 63.5173 39.5583 63.6143 39.3272C63.7112 39.096 63.8053 38.8638 63.8966 38.6304C63.9879 38.397 64.0763 38.1625 64.1619 37.9269C64.3575 37.3798 64.5351 36.8269 64.6948 36.2683C64.8006 35.8967 64.8865 35.5007 65.0219 35.1401C65.1232 34.8711 65.3335 34.6533 65.4755 34.4048C65.7368 33.9465 65.9174 33.4313 66.0645 32.9265V66.0645H0V24.9586Z" fill="#1C1C1C"/>
<path d="M0 0H66.0645V31.8188C65.7561 30.5872 65.24 29.7248 64.3074 28.8478C64.6329 28.2974 64.8606 27.794 64.8761 27.1445C64.8974 26.2213 64.4725 25.4655 63.8514 24.8135C63.8882 24.4497 63.9047 24.0788 63.8348 23.7179C63.6406 22.7158 62.9775 22.1104 62.1726 21.5588C61.949 21.0354 61.5359 20.644 61.1086 20.2843C60.8198 19.3619 60.3317 18.9294 59.547 18.4039C60.5011 17.4961 61.5759 16.8783 62.7655 16.3416C60.7877 15.5874 58.8469 15.5092 56.8132 16.0433C56.6684 14.3238 56.9763 12.7523 57.6433 11.1731C55.6803 11.6792 54.367 13.2877 53.231 14.859C52.0296 13.645 50.4248 12.3239 48.6923 12.0381C48.8761 12.5375 49.1187 13.0155 49.3014 13.517C49.661 14.5042 49.9488 15.5245 50.2652 16.5266C49.644 16.4949 49.0359 16.4994 48.4145 16.522C47.6918 14.7029 47.3643 12.7389 47.2339 10.7923C47.1613 9.70871 47.2212 8.55129 46.8934 7.5069C46.6646 6.77742 46.2808 6.25945 45.7523 5.72199C45.782 5.5725 45.8125 5.42178 45.8141 5.26881C45.8174 4.9751 45.7154 4.67896 45.5018 4.47279C45.2945 4.27261 44.9958 4.18802 44.7123 4.19409C44.1618 4.20587 43.8157 4.57684 43.4637 4.94464C42.5546 5.08179 41.7954 5.51676 41.0755 6.07432C38.2888 8.23277 36.6281 11.9732 35.7883 15.3059C35.3709 16.9622 35.1179 18.6511 34.8981 20.3428C34.5243 20.3657 34.1577 20.4466 33.7951 20.5363C34.1483 20.0122 34.4378 19.4795 34.6515 18.8834C35.318 17.0254 35.1426 15.127 34.3001 13.3566C33.4675 11.6072 31.8272 10.1805 30.0054 9.53864C27.5935 8.68877 25.6494 9.07974 23.4052 10.1479C23.224 9.89394 23.053 9.78561 22.7614 9.69232L22.7052 9.71135C22.4386 9.80058 22.2008 9.96748 21.9697 10.1243C20.7669 10.94 19.9483 12.0811 19.2868 13.3538C17.5503 12.8688 15.6682 12.8808 14.0305 13.7015C12.659 14.389 11.4905 15.6228 11.0088 17.0919C10.752 16.9802 10.4897 16.8833 10.2219 16.8013C9.95419 16.7193 9.68267 16.6527 9.40735 16.6015C7.45355 16.2521 5.34969 16.7557 3.72814 17.8937C2.03764 19.0801 0.722619 20.8481 0.237207 22.8741C0.115764 23.381 0.0958916 23.8908 0.00605356 24.4006L0 24.4338V0Z" fill="#1C1C1C"/>
</g>
<defs>
<clipPath id="clip0_107_4635">
<rect width="66" height="66" rx="10" fill="white"/>
</clipPath>
</defs>
</svg>
