<svg width="66" height="66" viewBox="0 0 66 66" fill="none" xmlns="http://www.w3.org/2000/svg">
<g clip-path="url(#clip0_107_4625)">
<path d="M0 0H66V66H0V0Z" fill="#1C1C1C"/>
<path d="M43.7645 1.94751C43.7796 1.94663 43.7947 1.94555 43.8098 1.94486C45.5059 1.86796 48.0595 2.29063 49.322 3.46529C49.5633 3.68983 49.7666 3.96399 49.8558 4.28544C50.002 4.81236 49.9197 5.48536 49.9153 6.03481C49.9076 7.01344 49.8748 7.99899 49.9142 8.97681C51.5663 9.30075 53.7483 10.2099 54.9393 11.3852C55.7663 12.2013 55.9781 12.9101 55.9812 14.04L55.981 17.467C55.9831 18.292 56.0891 20.1854 55.861 20.8967C55.6672 21.5007 55.2781 21.9352 54.84 22.3758C54.8363 23.5403 54.8384 24.7048 54.8465 25.8693C54.8501 27.4281 54.8376 28.9934 54.8988 30.5512C54.9451 31.7216 55.0251 32.8898 55.1386 34.0556C55.2522 35.2215 55.3992 36.3831 55.5797 37.5404C56.2572 37.9291 56.9229 38.3488 57.5255 38.8479C58.9549 40.0321 59.4034 40.9748 59.5673 42.7856C59.8888 46.3356 58.9775 49.7694 56.6763 52.5311C56.7371 52.9267 56.7631 53.2901 56.678 53.6848C56.3565 55.1764 55.1243 56.2264 53.8958 57.0068C50.2752 59.3069 44.1559 59.8274 40.0454 58.9108C40.3481 59.2332 41.4353 60.2695 41.4003 60.6642C41.3891 60.7902 41.3112 60.8967 41.2184 60.9775C40.7093 61.4209 39.2895 61.6931 38.6154 61.6474C38.0556 61.6095 37.567 61.4189 37.1916 60.9933C37.254 61.3091 37.4254 61.8547 37.2986 62.155C37.2329 62.3108 37.0728 62.4102 36.9204 62.4665C35.942 62.8284 34.2624 62.6427 33.3266 62.204C32.9201 62.3066 32.5182 62.3896 32.1006 62.4318C32.0124 62.7798 31.8971 63.0839 31.71 63.3927C31.3679 63.9574 30.5168 64.843 29.854 64.9861C29.6999 65.0196 29.5545 64.9945 29.4259 64.9017C28.9068 64.5272 28.5686 63.3196 28.4476 62.7056C27.7763 62.6776 27.1334 62.6231 26.4733 62.4924C25.1068 63.3459 23.923 63.57 22.3411 63.3386C22.2131 62.7367 22.1637 62.1902 22.2817 61.5825C21.4766 61.1559 21.0736 60.6563 20.7195 59.8221C20.521 59.7873 20.3174 59.7681 20.1174 59.7429C20.0355 59.8227 19.9578 59.891 19.9078 59.9951C19.894 60.2444 20.183 60.3869 20.302 60.5838C20.4736 60.8678 20.3865 61.3352 20.2995 61.6393C20.1337 62.2191 19.7653 62.6865 19.2333 62.9718C18.3839 63.4271 17.2227 63.4229 16.3196 63.1464C16.2528 62.8464 16.2528 62.5109 16.2876 62.2061C16.2931 62.1607 16.2997 62.1154 16.3074 62.0703C16.3152 62.0251 16.324 61.9802 16.334 61.9355C16.3439 61.8908 16.355 61.8464 16.3671 61.8022C16.3792 61.758 16.3924 61.7142 16.4067 61.6707C16.421 61.6272 16.4363 61.584 16.4528 61.5413C16.4692 61.4985 16.4866 61.4562 16.5051 61.4143C16.5236 61.3724 16.5431 61.331 16.5636 61.2901C16.5841 61.2492 16.6056 61.2088 16.6281 61.1689C16.6507 61.129 16.6741 61.0897 16.6986 61.051C16.723 61.0122 16.7484 60.9741 16.7747 60.9367C16.801 60.8992 16.8282 60.8624 16.8564 60.8263C16.8845 60.7901 16.9134 60.7547 16.9433 60.72C16.9732 60.6853 17.0039 60.6513 17.0354 60.6181C17.067 60.5849 17.0993 60.5525 17.1324 60.5209C17.1655 60.4893 17.1994 60.4585 17.234 60.4285C17.2687 60.3986 17.304 60.3695 17.3401 60.3412C17.9654 59.8456 18.5974 59.776 19.3669 59.8625L19.5419 59.6149C19.1713 59.4294 18.7978 59.2365 18.486 58.9593C18.2199 58.7228 18.1987 58.6057 18.1799 58.265C17.9966 58.1921 17.7756 58.1736 17.5808 58.1415C17.3596 58.6786 16.9942 59.1161 16.4527 59.3518C15.6026 59.7217 14.6156 59.5505 13.7844 59.22C13.5807 59.1345 13.3837 59.0356 13.1935 58.9234C13.0032 58.8111 12.8214 58.6865 12.6481 58.5495C12.9381 57.7719 13.5054 57.0758 14.2347 56.6715C14.8337 56.3394 15.5549 56.201 16.2212 56.397C16.8201 56.5731 17.2003 56.9315 17.4945 57.4724C17.8515 57.5618 18.2312 57.6085 18.5943 57.6713C18.9236 57.3498 19.2204 57.0701 19.622 56.8394C19.3383 56.5261 19.1072 56.1809 18.8751 55.8291C18.6471 55.7986 18.4195 55.7645 18.1925 55.7269C17.9656 55.6891 17.7393 55.6478 17.5136 55.603C17.2879 55.5582 17.063 55.5098 16.8389 55.4578C16.6147 55.4058 16.3915 55.3503 16.1691 55.2913C15.9467 55.2323 15.7253 55.1698 15.5049 55.1038C15.2845 55.0377 15.0652 54.9683 14.847 54.8953C14.6287 54.8224 14.4117 54.746 14.1959 54.6662C13.9801 54.5864 13.7656 54.5032 13.5524 54.4166C13.3393 54.3301 13.1275 54.2402 12.9172 54.1469C12.7069 54.0536 12.498 53.9571 12.2908 53.8572C12.0835 53.7573 11.8778 53.6542 11.6738 53.5478C11.4698 53.4415 11.2675 53.3319 11.0669 53.2191C10.8664 53.1064 10.6677 52.9905 10.4707 52.8714C10.2739 52.7524 10.0789 52.6303 9.88589 52.5051C9.69283 52.3799 9.50181 52.2517 9.31284 52.1204C9.12386 51.9892 8.93699 51.855 8.75222 51.7179C6.53955 50.0703 4.62327 48.0751 3.27262 45.6577C2.98633 45.1453 2.62725 44.5023 2.55365 43.9121C2.52048 43.6461 2.58924 43.4283 2.75509 43.2188C3.00391 42.9045 3.38336 42.6818 3.72792 42.4889C5.27555 41.6224 7.14096 41.1731 8.89292 40.9772C7.73238 39.1955 6.85653 37.3357 6.43788 35.2384C6.28663 34.4808 5.96967 32.8305 6.41477 32.2012C6.59562 31.9456 6.88373 31.8293 7.18337 31.7801C7.72323 31.6913 8.32632 31.7369 8.87114 31.78C11.6549 32.0002 14.4627 33.0565 16.7357 34.6738C16.708 34.392 16.6869 34.1097 16.6725 33.8269C16.658 33.5441 16.6502 33.2611 16.6491 32.9779C16.648 32.6948 16.6535 32.4117 16.6656 32.1288C16.6778 31.8459 16.6966 31.5635 16.722 31.2815C16.7475 30.9994 16.7795 30.7181 16.8182 30.4376C16.8568 30.1571 16.9021 29.8776 16.9539 29.5992C17.0057 29.3209 17.0639 29.0439 17.1287 28.7682C17.1936 28.4925 17.2648 28.2186 17.3425 27.9463C17.739 26.5274 18.3775 25.0491 19.293 23.8902C19.4904 23.6403 19.727 23.3502 20.0132 23.1996C20.2011 23.1007 20.3926 23.0888 20.5929 23.1558C21.2782 23.3852 21.9461 23.9121 22.5193 24.3499C24.8515 26.1308 26.7686 28.4917 28.172 31.0626C28.4831 31.6325 28.7505 32.2301 29.028 32.8171C29.7152 30.6898 30.7148 28.7392 32.0946 26.9742C32.4807 26.4803 32.8783 25.9989 33.3367 25.5699C33.3312 24.5237 33.3584 23.4771 33.3386 22.4309C32.9497 22.0244 32.5817 21.5744 32.432 21.0203C32.2741 20.4356 32.3564 19.5596 32.3556 18.9391L32.3515 15.9357L32.3497 14.1016C32.3494 13.7608 32.3276 13.3996 32.366 13.0613C32.3768 12.9712 32.3923 12.8819 32.4125 12.7934C32.4326 12.7049 32.4573 12.6177 32.4865 12.5317C32.5157 12.4458 32.5493 12.3617 32.5874 12.2792C32.6254 12.1968 32.6675 12.1166 32.7139 12.0385C33.7559 10.2569 36.3518 9.42792 38.2522 8.9315C38.2754 7.94433 38.2604 6.95511 38.2562 5.96768C38.2541 5.48005 38.1912 4.90514 38.2937 4.43104C38.3581 4.13337 38.5165 3.8639 38.7187 3.63894C39.8452 2.3849 42.1436 2.02472 43.7645 1.94751Z" fill="white"/>
<path d="M21.4862 57.5056L21.606 57.4951L21.6277 57.5236C21.3149 57.8698 21.1049 58.2113 20.9184 58.6391C20.5929 58.6177 20.2821 58.552 19.9638 58.4853L19.5291 58.3726C20.0964 57.8623 20.7278 57.5801 21.4862 57.5056Z" fill="#1C1C1C"/>
<path d="M38.2841 59.36C38.9747 59.4871 39.3557 59.8342 39.8104 60.3366C39.6747 60.3749 39.5371 60.4068 39.4003 60.4408C38.9873 60.5053 38.5162 60.5039 38.1496 60.2738C38.0439 60.2074 37.9615 60.1198 37.937 59.9938C37.895 59.7779 38.158 59.5227 38.2841 59.36Z" fill="#1C1C1C"/>
<path d="M18.6514 60.9485C18.8725 60.951 19.0722 60.9961 19.279 61.0716C19.2485 61.2427 19.2074 61.4062 19.1119 61.5539C18.8624 61.9393 18.4405 62.0358 18.0208 62.1243C17.8288 62.1587 17.6318 62.1688 17.4375 62.1853C17.5041 62.0192 17.574 61.857 17.6649 61.7025C17.8984 61.3056 18.2058 61.0644 18.6514 60.9485Z" fill="#1C1C1C"/>
<path d="M15.4012 57.4675C15.4157 57.4663 15.4302 57.4648 15.4447 57.4638C15.6814 57.4475 16.0367 57.4858 16.2152 57.6597C16.2775 57.7203 16.3173 57.8033 16.3122 57.8916C16.3067 57.9882 16.2526 58.0703 16.1839 58.1347C15.9386 58.3648 15.5548 58.3898 15.2353 58.384C14.8768 58.3587 14.5273 58.2636 14.1804 58.1748C14.4967 57.7843 14.9149 57.5654 15.4012 57.4675Z" fill="#1C1C1C"/>
<path d="M30.2903 61.6711C30.561 61.6782 30.7403 61.7917 30.9444 61.96C30.8874 62.6073 30.6134 63.0113 30.1624 63.4598C30.1083 63.5106 30.0456 63.5902 29.9744 63.6105C29.784 63.2963 29.6769 62.8693 29.5608 62.5181C29.7832 62.2189 29.9942 61.9025 30.2903 61.6711Z" fill="#1C1C1C"/>
<path d="M17.5367 38.9557C17.6896 39.2259 17.7736 39.5879 17.8823 39.8828C18.0846 40.4317 18.3062 40.9819 18.5422 41.5172C18.6366 41.7312 19.0382 42.3696 19.0293 42.5738C18.5322 42.3723 18.0314 42.1806 17.5269 41.9985C17.6047 41.0027 17.6318 39.9517 17.5367 38.9557Z" fill="#1C1C1C"/>
<path d="M24.6399 60.4281C25.3833 60.362 25.7945 60.7208 26.3539 61.1324C25.9039 61.5489 25.3706 61.8321 24.7977 62.038C24.5624 62.1188 24.3233 62.1858 24.0802 62.239C23.8372 62.2923 23.5919 62.3314 23.3444 62.3563C23.371 61.9843 23.4373 61.648 23.615 61.316C23.8432 60.8896 24.1713 60.571 24.6399 60.4281Z" fill="#1C1C1C"/>
<path d="M34.2903 59.657C34.5334 59.6445 34.7552 59.692 34.9697 59.81C35.5753 60.1432 35.9005 60.8205 36.0753 61.4582C35.6646 61.5121 35.2506 61.4912 34.8405 61.4461C34.7616 61.4351 34.6832 61.4211 34.6053 61.404C33.9615 61.2677 33.382 60.9684 33.0179 60.4056C33.4081 60.041 33.7626 59.7772 34.2903 59.657Z" fill="#1C1C1C"/>
<path d="M55.3606 53.8489L55.3844 53.8852C55.1271 54.6218 54.3841 55.2707 53.7551 55.6913C50.0995 58.136 44.5863 58.6127 40.3649 57.7596C40.33 57.7435 40.3496 57.757 40.3203 57.7039C40.4009 57.5369 40.5322 57.3785 40.6398 57.2266C41.672 57.4049 42.6991 57.5299 43.7463 57.5773C47.8296 57.7622 52.2907 56.6523 55.3606 53.8489Z" fill="#1C1C1C"/>
<path d="M18.4127 37.4291C18.7448 37.6232 19.1575 38.1412 19.474 38.4168C20.5343 39.3399 21.9147 40.1828 23.2631 40.5895C23.8424 42.4586 24.5097 44.2957 25.2653 46.1008C24.9305 46.0006 23.924 45.1214 23.5224 44.8607C22.6954 44.3238 21.8434 43.8222 20.9481 43.4079C19.7755 41.5863 18.9604 39.5188 18.4127 37.4291Z" fill="#1C1C1C"/>
<path d="M33.3119 27.3829C33.3969 27.7496 33.3243 28.3432 33.3161 28.7292C33.28 30.4168 33.2311 32.0881 33.0465 33.7675C32.8642 33.2316 32.7022 32.6896 32.5606 32.1415C32.5017 31.9073 32.4807 31.6532 32.4095 31.4247C32.3669 31.2882 32.2974 31.1939 32.1694 31.1312C32.1141 31.1336 32.0875 31.1246 32.0408 31.1602C31.9486 31.2305 31.9168 31.3382 31.9081 31.4501C31.8699 31.942 32.3714 33.5421 32.5766 34.0614C32.6803 34.324 32.864 34.605 32.9012 34.8841C32.9569 35.3033 32.7192 36.8248 32.6367 37.3246L32.2658 37.524C31.6352 37.8837 31.0548 38.269 30.5015 38.7413C30.4177 37.9057 30.3508 37.0657 30.1737 36.2431C30.0733 35.7769 29.879 35.3176 29.8079 34.8487C29.7556 34.5036 29.9389 34.0436 30.0306 33.7118C30.6969 31.2998 31.8509 29.3839 33.3119 27.3829Z" fill="#1C1C1C"/>
<path d="M43.6243 3.13967C45.039 3.04946 47.2897 3.33612 48.3959 4.22202C48.5751 4.3656 48.756 4.57056 48.7745 4.81079C48.7864 4.96618 48.7207 5.10786 48.6206 5.22316C47.8591 6.09955 45.81 6.3705 44.6834 6.47434C43.171 6.51295 41.1194 6.36992 39.8531 5.47258C39.6583 5.33451 39.4598 5.14807 39.4262 4.89895C39.4025 4.72387 39.4761 4.56278 39.5862 4.43066C40.3395 3.52708 42.5104 3.21834 43.6243 3.13967Z" fill="#1C1C1C"/>
<path d="M7.67389 32.9431C7.69677 32.9417 7.71972 32.9401 7.74266 32.9394C10.6838 32.8464 14.8168 34.4024 16.9537 36.3958C16.9822 36.5417 17.018 36.6925 17.0297 36.8406C17.0391 36.9614 17.0194 37.045 16.9405 37.1367C16.8723 37.152 16.811 37.1699 16.7462 37.196C16.636 37.3636 16.7745 37.8464 16.8108 38.0496C17.0335 39.2953 17.1816 40.5777 17.0089 41.841C16.8139 41.7877 16.5535 41.7372 16.3837 41.6273C16.0377 41.4034 15.0845 40.2202 14.7211 39.8368C14.6724 38.4923 14.4833 37.085 13.8801 35.8666C13.7095 35.522 13.3842 34.8427 12.9904 34.7347C12.907 34.7118 12.8787 34.7191 12.8075 34.7643C12.6621 35.081 13.0474 35.493 13.2017 35.7513C13.8174 36.7821 14.0714 38.0149 14.159 39.2017C13.0838 38.0195 11.9174 36.91 10.7299 35.8426C10.3124 35.4673 9.79472 34.9646 9.3226 34.6754C9.1928 34.5958 9.07942 34.5545 8.92886 34.5873C8.84881 34.651 8.84049 34.6701 8.80189 34.7659C8.80898 34.9218 8.89399 35.0175 8.99847 35.1242C9.14549 35.2743 9.32151 35.4021 9.47929 35.5419C9.80044 35.8275 10.1173 36.1178 10.4298 36.4129C11.5937 37.494 12.7152 38.6175 13.7942 39.7833C12.7607 39.8061 11.847 39.6071 10.9265 39.1366C10.6942 39.0178 10.3758 38.7043 10.1168 38.6897C10.0319 38.6849 9.96759 38.7223 9.91261 38.7848C9.87877 38.8232 9.84886 38.8863 9.85428 38.9367C9.86524 39.0388 9.93085 39.0981 10.0032 39.1636C11.1313 40.1852 12.8773 40.3153 14.3178 40.2519C14.6321 40.6304 14.9575 40.9993 15.2939 41.3584C13.6194 41.0005 12.0409 40.8671 10.3345 40.8518C9.61761 39.8746 8.94852 38.8575 8.47582 37.7374C7.9464 36.4831 7.62349 35.2036 7.45514 33.8542C7.42884 33.6434 7.33861 33.2405 7.45069 33.0535C7.50122 32.9692 7.58765 32.9658 7.67389 32.9431Z" fill="#1C1C1C"/>
<path d="M32.2843 38.9594C32.3039 39.1314 32.2214 39.3691 32.1842 39.5401C32.0058 40.3617 31.6976 41.2731 31.8912 42.1112C32.2004 43.4506 33.4042 44.5002 34.5192 45.1993C38.5473 47.7248 44.5471 48.1183 49.0943 47.0728C51.4408 46.5333 54.5482 45.3659 55.8661 43.2379C56.4999 42.2145 56.4847 41.6352 56.2208 40.5062L55.901 39.141C56.8635 39.6812 57.8417 40.6202 58.2334 41.6695C58.387 42.1466 58.4164 42.6247 58.2877 43.1119C57.9307 44.4626 56.6423 45.4674 55.4864 46.1347C52.4013 47.9156 47.8052 48.5364 44.2962 48.5262C41.8009 48.519 39.099 48.2264 36.6837 47.5837C34.4755 46.9961 31.3937 45.8152 30.206 43.7402C29.8413 43.103 29.7001 42.3708 29.8983 41.6545C30.2192 40.4946 31.2722 39.535 32.2843 38.9594Z" fill="#1C1C1C"/>
<path d="M48.7294 6.61078L48.7405 10.1538C48.745 10.7676 48.8039 11.4378 48.7341 12.0469C48.7221 12.1516 48.6873 12.2107 48.6252 12.2943C47.6148 13.2166 45.6954 13.4224 44.3621 13.4433C42.8257 13.4673 40.6019 13.2563 39.4627 12.1549C39.3855 10.3175 39.4392 8.45755 39.4463 6.61826C39.6503 6.73002 39.8593 6.83166 40.0731 6.92318C40.287 7.01466 40.5048 7.09557 40.7265 7.16591C43.2362 7.96404 46.3793 7.83107 48.7294 6.61078Z" fill="#1C1C1C"/>
<path d="M49.9202 10.1605C51.4063 10.6393 53.7847 11.324 54.5861 12.7739C54.7924 13.1472 54.8463 13.5806 54.7219 13.9903C54.4766 14.7977 53.6061 15.36 52.8979 15.7213C52.2318 16.0585 51.5352 16.3081 50.8205 16.52C46.5955 17.7729 39.3031 17.7586 35.3577 15.6031C34.6472 15.215 33.7822 14.6035 33.5591 13.774C33.4554 13.3886 33.5231 13.0195 33.7175 12.6748C34.5045 11.2797 36.7346 10.5938 38.2032 10.1862C38.3065 10.1964 38.2848 10.2919 38.286 10.3726C38.2949 10.9516 38.1853 11.9692 38.3482 12.4846C38.4147 12.6948 38.5476 12.8786 38.6967 13.0384C39.7858 14.205 41.9883 14.5429 43.5347 14.6044C45.2304 14.6719 48.0588 14.4335 49.3242 13.2438C49.9194 12.6842 49.8959 12.0615 49.898 11.3057C49.9022 10.9239 49.9096 10.5422 49.9202 10.1605Z" fill="#1C1C1C"/>
<path d="M33.5552 15.8393C33.9899 16.0854 34.3657 16.4199 34.814 16.6606C36.6562 17.6497 38.8252 18.1191 40.8867 18.3599C44.9656 18.8366 51.4604 18.548 54.8118 15.9C54.8318 16.7351 54.815 17.5726 54.8223 18.4081C54.8272 18.9798 54.9104 19.8736 54.7947 20.4034C54.7428 20.6408 54.6089 20.8267 54.4692 21.019C54.3955 21.1083 54.3204 21.1956 54.2378 21.2768C52.1688 23.3115 46.9708 24.0235 44.1776 24.0112C41.5076 23.9994 38.7926 23.604 36.2918 22.6497C35.5033 22.3488 34.6362 21.9702 34.0377 21.3583C33.8579 21.1745 33.6858 20.9689 33.619 20.7165C33.4713 20.1574 33.5509 19.4014 33.5504 18.8142L33.5552 15.8393Z" fill="#1C1C1C"/>
<path d="M30.0077 49.7328C30.3227 49.7177 30.6735 49.8294 30.9274 50.0128C31.3377 50.3092 31.4633 50.7124 31.5352 51.1871C31.7301 51.1122 31.9288 51.0309 32.1327 50.9838C32.3856 50.9253 32.5775 50.9457 32.7962 51.0855C33.1278 51.2976 34.3992 52.5768 34.5891 52.8996C34.7457 53.1657 34.8035 53.4863 34.8723 53.7833C35.2234 53.9152 35.609 54.036 35.9228 54.2444C36.4714 54.6088 36.6683 55.0997 36.7883 55.7149C36.4 55.8047 36.0642 55.9345 35.7057 56.1085L35.6682 56.6531C35.8181 56.5996 35.9698 56.5521 36.1234 56.5104C37.2565 56.1983 38.4177 56.3451 39.436 56.9187C39.2374 57.1241 39.0071 57.3071 38.7722 57.4689C37.9836 58.0114 37.1367 58.2046 36.1951 58.032C36.2629 58.2091 36.3228 58.4131 36.4482 58.5583C36.6447 58.7858 36.9221 58.7941 37.2005 58.8215C36.9994 59.144 36.7799 59.3838 36.5028 59.644C36.0714 59.0731 35.5377 58.6576 34.8144 58.5344C34.2288 58.4346 33.5916 58.5693 33.1074 58.9163C32.7369 59.182 32.4413 59.5739 32.3785 60.0343C32.3212 60.4544 32.4718 60.7844 32.7125 61.1135C32.4333 61.158 32.1549 61.2109 31.8764 61.2599C31.4987 60.9094 31.1864 60.6784 30.6768 60.5541C30.3922 60.5334 30.0966 60.5312 29.8232 60.6219C29.3704 60.772 29.1096 61.1345 28.8982 61.5369C28.2669 61.5948 27.5775 61.5302 26.9565 61.4041C26.7417 60.7395 26.3256 60.2 25.7398 59.816C25.2763 59.5123 24.7074 59.3129 24.1515 59.4397C23.5648 59.5736 23.0888 60.0122 22.7686 60.5044C22.6143 60.4238 22.4654 60.3327 22.3342 60.2176C22.1162 60.0265 21.9556 59.7828 21.942 59.4865C21.914 58.8786 22.3999 58.3675 22.7808 57.9519C22.6645 57.6474 22.5296 57.3655 22.3178 57.1146C21.9445 56.6724 21.5007 56.5044 20.9362 56.4568C20.6479 56.2468 20.4246 55.9746 20.2294 55.6791C20.6791 55.5861 21.1196 55.4629 21.5745 55.3944C21.8505 55.4948 22.1304 55.784 22.4136 55.8149C22.555 55.4305 22.5563 54.8716 22.6786 54.4387C22.8716 53.7552 23.2326 53.0566 23.885 52.711C24.3757 52.451 24.8485 52.4565 25.3644 52.6182C25.6413 52.2423 25.6895 51.7706 25.9151 51.3668C26.1781 50.8959 26.6051 50.5434 27.1311 50.4071C27.8044 50.2328 28.3376 50.4426 28.9172 50.7766C28.986 50.5851 29.0626 50.4016 29.1801 50.2338C29.3929 49.9302 29.6503 49.7992 30.0077 49.7328Z" fill="#1C1C1C"/>
<path d="M32.4334 52.2417C32.5236 52.231 32.6133 52.221 32.704 52.2319C32.8311 52.2472 32.9941 52.3392 33.0611 52.451C33.1108 52.534 33.1224 52.6052 33.1032 52.6998C33.0751 52.8384 32.9566 52.9209 32.8483 52.9956C32.6818 53.0224 32.501 53.0115 32.3617 52.9055C32.2824 52.8451 32.2239 52.7476 32.2212 52.6461C32.2168 52.4712 32.316 52.357 32.4334 52.2417Z" fill="white"/>
<path d="M23.1744 56.1399C23.252 56.1432 23.3279 56.1518 23.4023 56.1745C23.4154 56.1786 23.4281 56.1833 23.4406 56.1887C23.4531 56.1942 23.4653 56.2003 23.4772 56.207C23.489 56.2137 23.5005 56.2211 23.5116 56.229C23.5227 56.237 23.5333 56.2455 23.5435 56.2546C23.5537 56.2637 23.5633 56.2733 23.5724 56.2834C23.5816 56.2936 23.5902 56.3041 23.5982 56.3151C23.6062 56.3262 23.6136 56.3376 23.6204 56.3494C23.6272 56.3613 23.6334 56.3735 23.6389 56.3859C23.6845 56.4883 23.6798 56.602 23.6377 56.7046C23.5681 56.8739 23.4511 56.9394 23.2908 57.0119C23.2244 57.0085 23.1525 57.0067 23.0899 56.9823C22.9798 56.9394 22.8928 56.8488 22.8493 56.7397C22.8436 56.7253 22.8388 56.7106 22.8347 56.6957C22.8306 56.6807 22.8273 56.6656 22.8248 56.6503C22.8222 56.635 22.8205 56.6197 22.8196 56.6042C22.8187 56.5887 22.8186 56.5733 22.8193 56.5578C22.82 56.5423 22.8215 56.527 22.8239 56.5117C22.8262 56.4963 22.8293 56.4812 22.8332 56.4662C22.8371 56.4512 22.8417 56.4364 22.8471 56.4219C22.8526 56.4074 22.8588 56.3932 22.8657 56.3794C22.9341 56.2392 23.032 56.1883 23.1744 56.1399Z" fill="white"/>
<path d="M30.5261 50.9146C30.5682 50.9151 30.5687 50.9141 30.6164 50.92C30.7365 50.935 30.8445 50.9852 30.9165 51.0849C30.9924 51.19 31.0106 51.3251 30.9838 51.45C30.9418 51.6457 30.8485 51.7456 30.6835 51.8491C30.6347 51.8492 30.5819 51.8514 30.5337 51.8438C30.4183 51.8256 30.3227 51.7461 30.2627 51.6482C30.1853 51.522 30.1778 51.3749 30.2197 51.2349C30.271 51.0637 30.3746 50.9958 30.5261 50.9146Z" fill="white"/>
<path d="M34.4165 54.2743C34.5198 54.2694 34.6232 54.2614 34.7218 54.2986C34.8357 54.3416 34.9362 54.4295 34.9838 54.543C35.0232 54.6369 35.0172 54.7427 34.9789 54.8355C34.9174 54.9852 34.8081 55.0351 34.6678 55.1005C34.5909 55.1065 34.516 55.1112 34.4403 55.0929C34.3212 55.0639 34.2123 54.9921 34.1501 54.8848C34.0966 54.7925 34.0872 54.6822 34.1192 54.581C34.1693 54.4225 34.2774 54.3515 34.4165 54.2743Z" fill="white"/>
<path d="M28.3374 57.7852C28.3839 57.7856 28.4287 57.7876 28.4744 57.7978C28.5979 57.8252 28.7132 57.8897 28.778 58.0019C28.8318 58.0952 28.8383 58.2095 28.8089 58.3117C28.7555 58.4966 28.6395 58.5845 28.477 58.6728C28.3945 58.664 28.3014 58.6593 28.2233 58.6301C28.1036 58.5853 27.9958 58.4664 27.9564 58.346C27.9231 58.244 27.9339 58.1375 27.9836 58.0429C28.0615 57.8947 28.1861 57.8381 28.3374 57.7852Z" fill="white"/>
<path d="M27.3991 59.5612C27.4832 59.5629 27.594 59.5579 27.6704 59.5963C27.7697 59.6461 27.8428 59.72 27.8827 59.8244C27.9255 59.9362 27.9088 60.062 27.855 60.1669C27.7759 60.3218 27.6604 60.3701 27.5032 60.4258C27.4235 60.423 27.3489 60.4188 27.2751 60.3857C27.1592 60.3338 27.0645 60.2411 27.0259 60.1184C27.0218 60.1053 27.0185 60.0919 27.0158 60.0785C27.0131 60.065 27.011 60.0514 27.0096 60.0377C27.0082 60.024 27.0075 60.0103 27.0074 59.9965C27.0074 59.9828 27.008 59.9691 27.0093 59.9553C27.0106 59.9416 27.0126 59.928 27.0152 59.9145C27.0179 59.9011 27.0212 59.8877 27.0251 59.8745C27.0291 59.8613 27.0337 59.8484 27.0389 59.8357C27.0441 59.8229 27.0499 59.8105 27.0564 59.7983C27.1324 59.6544 27.2507 59.6066 27.3991 59.5612Z" fill="white"/>
<path d="M23.8589 53.6989C23.9205 53.7031 23.9841 53.7068 24.044 53.7222C24.1552 53.7511 24.2545 53.8225 24.3047 53.9275C24.3509 54.0241 24.3432 54.1358 24.3022 54.2328C24.224 54.4177 24.0827 54.4857 23.9043 54.5532C23.8142 54.544 23.7133 54.5395 23.6325 54.4952C23.5301 54.4392 23.4532 54.3349 23.4278 54.2214C23.4033 54.1116 23.4273 53.9972 23.4873 53.9028C23.5787 53.7591 23.6997 53.7282 23.8589 53.6989Z" fill="white"/>
<path d="M35.0274 57.4973C35.0902 57.4897 35.1523 57.4814 35.2158 57.4855C35.3619 57.4948 35.5084 57.5601 35.5989 57.6781C35.6634 57.7623 35.6856 57.8681 35.6665 57.9719C35.6369 58.1324 35.52 58.2279 35.3958 58.3197C35.3218 58.3355 35.2422 58.3557 35.1663 58.3518C35.0491 58.3456 34.9292 58.2874 34.8548 58.1966C34.786 58.1125 34.7586 58.006 34.7699 57.8987C34.789 57.7177 34.8894 57.6044 35.0274 57.4973Z" fill="white"/>
<path d="M31.0349 59.1376C31.1062 59.1338 31.181 59.1281 31.2517 59.1399C31.3732 59.1603 31.4894 59.2307 31.5563 59.3351C31.6124 59.4225 31.6238 59.5273 31.5979 59.6266C31.5513 59.8047 31.4198 59.8973 31.2689 59.9852C31.1921 59.9962 31.1063 60.0082 31.0296 59.992C31.0149 59.9888 31.0003 59.9849 30.9859 59.9801C30.9716 59.9754 30.9575 59.97 30.9437 59.9638C30.9299 59.9576 30.9165 59.9507 30.9034 59.9431C30.8904 59.9354 30.8778 59.9271 30.8656 59.9182C30.8535 59.9092 30.8418 59.8996 30.8306 59.8894C30.8194 59.8793 30.8089 59.8685 30.7988 59.8572C30.7888 59.8459 30.7794 59.8341 30.7706 59.8218C30.7618 59.8095 30.7537 59.7968 30.7463 59.7836C30.6882 59.6796 30.6837 59.5538 30.7192 59.4414C30.7714 59.2763 30.8884 59.2122 31.0349 59.1376Z" fill="white"/>
<path d="M25.4766 55.9792C25.5276 55.9824 25.5753 55.9877 25.6245 56.0024C25.7562 56.0418 25.8812 56.1074 25.9356 56.2419C25.9717 56.3313 25.9579 56.4306 25.9271 56.5191C25.8635 56.7016 25.7147 56.785 25.5518 56.8687C25.4679 56.8768 25.3664 56.8768 25.2858 56.8507C25.1868 56.8187 25.1007 56.7468 25.0586 56.6505C25.0078 56.5344 25.0265 56.4001 25.0771 56.2877C25.1594 56.1042 25.2964 56.0442 25.4766 55.9792Z" fill="white"/>
<path d="M28.7225 55.3699C28.7858 55.3757 28.8509 55.3814 28.9119 55.4009C29.0255 55.4374 29.1313 55.5157 29.1773 55.6286C29.2213 55.7366 29.2045 55.8533 29.1603 55.9582C29.0815 56.1447 28.9403 56.2204 28.7623 56.2966C28.6926 56.2861 28.6199 56.2773 28.5525 56.2566C28.4435 56.2231 28.3499 56.1214 28.3089 56.017C28.2625 55.8991 28.2753 55.7723 28.334 55.6609C28.4212 55.4954 28.5508 55.4258 28.7225 55.3699Z" fill="white"/>
<path d="M30.681 53.1731C30.7495 53.1736 30.8209 53.1728 30.8887 53.1831C31.0023 53.2004 31.1206 53.2729 31.177 53.374C31.229 53.467 31.2296 53.5805 31.1984 53.6801C31.1362 53.8785 30.987 53.9927 30.8123 54.0895C30.7515 54.0972 30.6948 54.0979 30.6343 54.0852C30.5219 54.0613 30.4138 53.9944 30.3563 53.893C30.2882 53.7732 30.2945 53.6279 30.3396 53.5012C30.4006 53.3293 30.5255 53.2519 30.681 53.1731Z" fill="white"/>
<path d="M26.5076 53.0797C26.5605 53.0851 26.6155 53.0903 26.6667 53.1047C26.7776 53.1359 26.8903 53.2078 26.9384 53.3154C26.9828 53.4147 26.9696 53.526 26.9311 53.6247C26.853 53.8252 26.706 53.9179 26.5163 53.9998C26.4458 53.9917 26.37 53.9867 26.3021 53.9649C26.1908 53.9293 26.0778 53.8368 26.0343 53.7266C25.9952 53.6274 26.0096 53.5173 26.0528 53.4223C26.1416 53.2268 26.3145 53.1443 26.5076 53.0797Z" fill="white"/>
<path d="M31.7114 56.3312C31.7801 56.3308 31.852 56.329 31.92 56.339C32.0333 56.3557 32.1514 56.4316 32.2071 56.5317C32.2621 56.6307 32.2588 56.7438 32.2244 56.8487C32.161 57.0423 32.0102 57.1482 31.8372 57.2378C31.7701 57.2401 31.6977 57.2445 31.6315 57.2317C31.5192 57.21 31.4047 57.1346 31.3508 57.033C31.3009 56.9389 31.2997 56.825 31.3297 56.7247C31.3897 56.5245 31.532 56.4197 31.7114 56.3312Z" fill="white"/>
<path d="M24.1289 57.886C24.2124 57.8971 24.3064 57.9044 24.3851 57.9356C24.4826 57.9743 24.5482 58.0555 24.5871 58.1499C24.627 58.2466 24.6073 58.3731 24.5649 58.4654C24.4768 58.6573 24.3283 58.7453 24.1385 58.818C24.0442 58.8178 23.9431 58.8127 23.8582 58.7682C23.7739 58.7239 23.7151 58.6551 23.6876 58.5636C23.6503 58.4396 23.6789 58.3068 23.7394 58.195C23.8277 58.0314 23.956 57.9432 24.1289 57.886Z" fill="white"/>
<path d="M20.4449 24.4166C22.7471 25.6552 25.2017 28.4487 26.5441 30.6762C27.9945 33.083 29.1311 35.968 29.2609 38.7974C29.2789 39.1894 29.3171 39.6205 29.2607 40.0094C29.1995 40.4319 28.9146 40.7964 28.7994 41.2097C28.7212 41.4898 28.6971 41.7862 28.6566 42.0737C28.5384 42.9136 28.4458 43.7386 28.4473 44.5883C28.4485 45.3236 28.523 46.094 28.698 46.8103C28.7981 47.22 29.0246 47.6691 29.0309 48.0911C29.0356 48.3971 28.9219 48.7289 28.8486 49.0252C28.7233 49.0961 28.6213 49.1883 28.5131 49.2821C28.1553 48.8992 27.8016 48.5116 27.4378 48.1344C26.9374 47.6156 26.1852 47.0377 25.9089 46.3618C26.7397 45.1652 27.4433 43.9615 28.0492 42.6355C28.2319 42.2354 28.4431 41.8027 28.5482 41.3763C28.5762 41.2631 28.5709 41.1191 28.4919 41.025C28.436 40.9588 28.3964 40.957 28.318 40.9516C28.3032 40.958 28.2879 40.9634 28.2736 40.9708C28.0118 41.1048 27.6098 42.3477 27.4691 42.6594C26.9843 43.7332 26.3178 44.7402 25.7001 45.7402C24.9692 44.0275 24.4037 42.2402 23.7951 40.482C25.5845 39.0345 26.8692 36.6311 27.1075 34.353C27.1349 34.0914 27.2557 33.463 27.0572 33.2666C27.0049 33.2148 26.9126 33.1982 26.842 33.2089C26.7532 33.2223 26.689 33.2789 26.6571 33.3621C26.6015 33.507 26.5408 34.6763 26.4786 34.9877C26.2049 36.3579 25.5483 37.6423 24.6938 38.7395C24.3763 39.1452 24.0426 39.5464 23.6502 39.8816C22.9727 37.8937 22.4749 35.8206 22.0955 33.7561C22.3703 33.4177 22.67 33.1117 22.9205 32.7518C23.6023 31.772 24.1773 30.1648 24.2644 28.9644C24.2732 28.8422 24.2865 28.7229 24.2004 28.625C24.1256 28.5833 24.0655 28.5643 23.9781 28.5751C23.73 28.606 23.7234 28.8815 23.6943 29.0767C23.4559 30.675 23.0157 31.8356 21.9706 33.0791C21.8261 32.3111 21.7053 31.5395 21.6083 30.7641C21.5112 29.9888 21.4381 29.2112 21.389 28.4313C21.3682 28.1294 21.3227 26.4271 21.2695 26.3234C21.217 26.2213 21.1088 26.1608 21.003 26.132C20.9315 26.1515 20.9077 26.1528 20.862 26.2161C20.5462 26.6543 21.0776 31.1424 21.1963 31.9725C21.2575 32.4002 21.3459 32.8239 21.4315 33.2472C20.7198 32.7402 20.0584 32.0508 19.6134 31.2951C19.4548 31.0258 19.3382 30.7128 19.1581 30.4598C19.0863 30.3589 19.0248 30.3176 18.9026 30.2996C18.8379 30.3366 18.8125 30.3498 18.7768 30.4188C18.7263 30.5162 18.7186 30.6579 18.7518 30.7617C19.0997 31.8512 20.5337 33.4706 21.5661 34.0031C21.9381 36.031 22.5598 37.9751 23.0635 39.9681C22.7458 39.8306 22.4338 39.6811 22.1275 39.5195C21.8213 39.358 21.5217 39.185 21.2288 39.0004C20.9358 38.8158 20.6504 38.6203 20.3725 38.4137C20.0946 38.2071 19.8251 37.9902 19.5639 37.7629C19.2609 37.5011 19.0005 37.188 18.6901 36.936C18.5752 36.8429 18.5248 36.8329 18.3783 36.846L18.3306 36.8506C18.0797 36.4663 17.8907 34.236 17.8649 33.6412C17.7423 30.8122 18.4723 26.5649 20.4449 24.4166Z" fill="#1C1C1C"/>
<path d="M29.6166 44.9499C29.9008 45.1744 30.1031 45.5139 30.3765 45.7578C34.295 49.2536 41.2295 49.9122 46.2525 49.642C50.2943 49.4245 55.6034 48.4095 58.4332 45.2596C58.1859 47.1863 57.7617 48.6782 56.7724 50.3707C56.6955 50.495 56.6162 50.6179 56.5348 50.7394C56.4533 50.8608 56.3696 50.9807 56.2837 51.0991C56.1978 51.2174 56.1097 51.3342 56.0195 51.4493C55.9293 51.5644 55.837 51.6778 55.7426 51.7895C55.6482 51.9012 55.5518 52.0112 55.4533 52.1193C55.3549 52.2275 55.2545 52.3338 55.1521 52.4382C55.0498 52.5427 54.9455 52.6452 54.8394 52.7458C54.7332 52.8465 54.6253 52.9451 54.5155 53.0417C54.4057 53.1383 54.2942 53.2329 54.181 53.3254C54.0677 53.418 53.9527 53.5083 53.8361 53.5966C53.7195 53.6849 53.6013 53.771 53.4816 53.8549C53.3618 53.9388 53.2405 54.0205 53.1177 54.1C52.995 54.1794 52.8708 54.2566 52.7451 54.3315C52.6195 54.4063 52.4925 54.4789 52.3642 54.5491C52.2359 54.6193 52.1064 54.6871 51.9756 54.7525C51.8448 54.8179 51.7128 54.8809 51.5797 54.9415C48.774 56.2403 45.5631 56.6042 42.5057 56.2974C41.7873 56.2253 41.052 56.1297 40.3516 55.9505C39.5047 55.7339 38.6946 55.3181 37.8737 55.0155C37.4157 53.9001 36.9488 53.368 35.8248 52.8944C35.5407 51.9489 34.8047 51.4604 34.1926 50.7469C33.6447 50.1083 33.0905 49.8117 32.2503 49.7477C31.8187 49.206 31.4103 48.9138 30.7519 48.7061C30.0868 47.6239 29.6705 46.217 29.6166 44.9499Z" fill="#1C1C1C"/>
<path d="M10.2118 42.1017C10.6971 42.0602 11.2037 42.0734 11.6901 42.0935C14.0058 42.1897 16.061 42.7273 18.2129 43.5617C21.5644 44.8613 24.3525 46.577 26.8013 49.2341C26.2989 49.4251 25.8658 49.7158 25.4233 50.0146C24.4846 49.9307 23.5498 49.8157 22.6187 49.6696C21.6877 49.5236 20.7626 49.3468 19.8433 49.1394C19.6863 47.8302 18.5617 46.0076 17.7197 44.9914C17.4632 44.6818 16.4447 43.5526 16.0602 43.5381C15.9561 43.5341 15.9007 43.5747 15.8289 43.6435C15.7879 43.8255 15.8507 43.9156 15.9805 44.0394C16.2612 44.3071 16.5551 44.5587 16.8245 44.8386C17.985 46.0439 18.7223 47.4312 19.2996 48.988C18.7278 48.8844 18.1546 48.7075 17.592 48.5604C15.9261 48.1263 14.2809 47.6241 12.6566 47.0538C12.3725 45.8321 11.5168 44.6528 10.5596 43.8655C10.22 43.5862 9.07618 42.806 8.64892 42.9052C8.55488 42.927 8.54522 42.9453 8.49475 43.0206C8.47928 43.2137 8.52988 43.2574 8.69172 43.3495C8.98659 43.5174 9.29558 43.6623 9.58485 43.8396C10.4735 44.3844 11.1591 45.1654 11.7013 46.0477C11.8057 46.2176 12.0632 46.6165 12.0153 46.8173C11.6767 46.7572 11.3172 46.5665 10.9942 46.448C10.4437 46.2516 9.89459 46.0516 9.34669 45.8482C8.69185 45.5997 6.42666 44.6653 5.87704 44.6371C5.8259 44.6753 5.8055 44.6991 5.77828 44.7569C5.73306 44.8528 5.73931 44.9323 5.77462 45.0312C5.99537 45.297 9.66187 46.6559 10.2913 46.8912C10.7968 47.0892 11.3115 47.2651 11.8231 47.447C10.9183 47.9135 9.93251 48.2657 8.91679 48.3706C8.68933 48.3941 8.07555 48.3555 7.92917 48.3999C7.85093 48.4236 7.80278 48.4975 7.77713 48.5713C7.74948 48.6509 7.76559 48.7003 7.79717 48.7738C7.8595 48.8309 7.91216 48.8612 7.99305 48.8827C8.25995 48.9535 8.58537 48.9199 8.85711 48.8942C10.1812 48.7691 11.4012 48.2673 12.557 47.6321C12.8605 47.7155 13.1575 47.8453 13.4557 47.9476C13.9644 48.1173 14.4747 48.2821 14.9867 48.4418C16.2852 48.8455 17.6095 49.1771 18.9243 49.5232C17.7091 50.5664 16.2079 51.4271 14.6302 51.7491C14.346 51.8065 14.0594 51.8475 13.7704 51.8719C13.5773 51.8876 13.2977 51.8515 13.1182 51.9177C13.0358 51.948 12.9615 52.0189 12.9318 52.1039C12.9044 52.1819 12.9135 52.2006 12.9454 52.2702C13.0386 52.3452 13.1351 52.3652 13.2518 52.3775C13.7048 52.4252 14.2447 52.358 14.6904 52.276C16.6579 51.9136 18.0789 50.8806 19.5973 49.6675C21.3833 50.0913 23.2151 50.3565 25.0406 50.5426C24.8902 50.7737 24.7573 51.0041 24.656 51.2609C24.1853 51.3422 23.7344 51.4464 23.3118 51.6778C22.3114 52.2256 21.8156 53.1764 21.5111 54.2349C21.1042 54.2914 20.6957 54.3356 20.293 54.4183C19.9923 54.48 19.653 54.615 19.3499 54.6255C19.0011 54.6375 18.6292 54.5604 18.2849 54.5034C17.8802 54.4382 17.4781 54.3601 17.0784 54.2692C16.6787 54.1783 16.2823 54.0747 15.8893 53.9585C15.4962 53.8423 15.1072 53.7136 14.7223 53.5726C14.3375 53.4315 13.9576 53.2783 13.5825 53.113C12.7173 52.7236 11.8643 52.3149 11.0535 51.8205C8.20768 50.0853 5.00106 47.1215 3.79602 43.9428C4.06505 43.67 4.44925 43.4827 4.79123 43.32C6.46802 42.522 8.37042 42.2005 10.2118 42.1017Z" fill="#1C1C1C"/>
<path d="M53.6216 23.1417C53.6874 23.2295 53.6641 23.4364 53.6664 23.5439C53.7161 25.8011 53.6509 28.0622 53.7308 30.3178C53.786 31.8562 53.8987 33.3903 54.0689 34.9203C54.2391 36.4502 54.4664 37.9716 54.7507 39.4845C54.8683 40.0788 55.0379 40.6606 55.171 41.251C55.2863 41.7622 55.1018 42.2215 54.8312 42.6483C53.6825 44.4597 50.8654 45.4703 48.8464 45.9311C44.4464 46.9353 38.8509 46.5325 34.9605 44.0906C34.5827 43.8394 34.2239 43.5687 33.9058 43.2439C33.5248 42.8548 33.0091 42.2074 32.9747 41.6347C32.9542 41.293 33.2464 40.3475 33.3292 39.9438C33.4813 39.1675 33.6262 38.39 33.764 37.6111C33.9854 36.3469 34.1218 35.0676 34.2564 33.7917C34.6275 30.2728 34.4886 26.7138 34.5352 23.182C35.2997 23.5347 36.0265 23.8711 36.8322 24.1268C41.9652 25.756 48.7798 25.6478 53.6216 23.1417Z" fill="#1C1C1C"/>
<path d="M52.3567 25.1712C52.4072 25.1687 52.4572 25.1722 52.5068 25.1815C52.5565 25.1908 52.6044 25.2058 52.6505 25.2264C52.791 25.2883 52.9035 25.3777 52.9532 25.5272C53.0913 25.9435 53.0107 27.3516 53.009 27.878L53.0083 30.8474C53.0092 31.618 52.9961 32.3889 53.0605 33.1576C53.2156 35.0088 53.6731 36.9588 54.1501 38.7542C54.2529 39.1408 54.3901 39.5185 54.4894 39.9055C54.5359 40.0867 54.5621 40.2275 54.4731 40.4013C54.049 41.2298 52.1464 42.2755 51.2706 42.6601C50.8362 42.8509 50.3759 43.0021 49.9227 43.1417C45.5025 44.5042 40.1063 44.2757 35.9794 42.0916C35.7273 41.9423 35.4782 41.7881 35.2321 41.6291C34.6427 41.2415 33.8493 40.7298 33.6969 39.9953C33.854 39.4212 34.0774 38.8695 34.2257 38.2883C34.7654 36.1729 35.054 33.9826 35.1843 31.8053C35.2479 30.6377 35.2725 29.4694 35.2583 28.3002C35.2458 27.5361 35.1903 26.7603 35.2188 25.9973C35.2235 25.8711 35.2374 25.7269 35.2888 25.61C35.3428 25.4872 35.4797 25.3863 35.6045 25.3434C36.008 25.2046 36.581 25.6084 36.9443 25.7775C37.5511 26.0599 38.222 26.2626 38.866 26.4433C42.4271 27.4419 46.4439 27.4062 49.969 26.2769C50.4443 26.1246 50.927 25.9209 51.367 25.6851C51.692 25.511 52.0097 25.2977 52.3567 25.1712Z" fill="white"/>
<path d="M36.4385 26.8307C36.6697 26.9549 36.9161 27.056 37.1609 27.1502C40.7251 28.5225 45.5172 28.6382 49.2041 27.7208C50.1101 27.4954 50.955 27.1876 51.8075 26.8105C51.8628 28.7624 51.7272 30.7346 51.8499 32.6825C52.0064 35.1653 52.6422 37.603 53.2617 40.0009C52.7964 40.4702 52.2115 40.8337 51.6358 41.1512C49.5552 42.2394 47.228 42.7073 44.894 42.7912C41.7812 42.903 37.3161 42.1311 34.963 39.9378C36.3606 35.6613 36.4713 31.2811 36.4385 26.8307Z" fill="#1C1C1C"/>
</g>
<defs>
<clipPath id="clip0_107_4625">
<rect width="66" height="66" rx="10" fill="white"/>
</clipPath>
</defs>
</svg>
