<svg width="66" height="66" viewBox="0 0 66 66" fill="none" xmlns="http://www.w3.org/2000/svg">
<g clip-path="url(#clip0_107_4643)">
<path d="M0 0H66V66H0V0Z" fill="#1C1C1C"/>
<path d="M32.0084 7.61629C32.2904 7.60578 32.531 7.64084 32.7778 7.78941C33.1762 8.02924 33.525 8.46868 33.8524 8.79765L35.6763 10.636C36.0883 11.0565 36.4896 11.5088 36.9413 11.8859C37.6551 12.0032 38.4398 11.9747 39.1629 12.0034C40.4463 12.0572 41.7292 12.1213 43.0115 12.1958C44.8788 12.3113 46.7418 12.4747 48.6006 12.686C51.5002 13.0095 54.4084 13.4417 57.2351 14.1783C59.059 14.6535 62.6323 15.6137 63.6295 17.3451C63.6622 17.4011 63.692 17.4586 63.719 17.5175C63.746 17.5765 63.7701 17.6366 63.7911 17.6979C63.8122 17.7592 63.8302 17.8214 63.8451 17.8845C63.8601 17.9476 63.8719 18.0113 63.8806 18.0755C63.9317 18.4709 63.8802 18.8975 63.8583 19.2948C63.759 21.1022 63.5066 22.9338 63.0342 24.6835C62.8334 25.4275 62.6302 26.1772 62.3772 26.9051C59.8322 34.2287 54.6263 40.1838 47.9326 44.0299C51.7994 43.316 56.8659 43.9048 60.4145 45.6037C62.0716 46.3972 63.8083 47.5786 64.4379 49.3905C64.8927 50.6993 64.4538 51.801 63.8798 52.9834C62.8165 55.1733 60.847 57.204 58.9669 58.7146C58.5593 59.0421 58.1216 59.3158 57.7071 59.6299C57.5178 59.7734 57.0889 60.2927 56.9736 60.3298C56.6089 60.4473 56.2571 60.5826 55.8844 60.6785C53.8577 61.2 51.7212 61.1934 49.6604 60.9161C48.9828 60.803 47.5545 60.5611 47.0389 60.1987C46.9942 60.0581 46.9631 59.96 46.8532 59.8548C46.5317 59.5473 46.0996 59.305 45.7443 59.0312C44.9689 58.4335 44.2376 57.801 43.5503 57.1042C42.2017 55.7369 40.3832 53.4211 39.9183 51.5555C39.8035 51.095 39.7924 50.6522 39.7959 50.1813C39.3728 50.2634 38.949 50.3415 38.5245 50.4158C34.1767 51.1527 27.8943 51.0929 23.7094 49.6616C22.9971 49.4179 22.2644 49.1482 21.6492 48.7057C21.22 48.3969 20.8498 47.9804 20.7752 47.437C20.6852 46.7809 21.0427 46.3286 21.4218 45.8503C20.7299 45.5722 20.0375 45.3016 19.3608 44.9872C19.0288 44.8324 18.6996 44.6717 18.3733 44.5053C18.0469 44.3389 17.7236 44.1668 17.4032 43.9891C17.083 43.8113 16.7659 43.628 16.452 43.4391C16.1381 43.2503 15.8276 43.0559 15.5205 42.8562C15.2135 42.6565 14.91 42.4514 14.6101 42.241C14.3102 42.0306 14.0141 41.815 13.7217 41.5942C13.4294 41.3734 13.1411 41.1476 12.8567 40.9167C12.5722 40.6858 12.292 40.45 12.0159 40.2093C11.8726 40.0847 11.7305 39.9587 11.5896 39.8313C11.4487 39.704 11.3091 39.5753 11.1707 39.4452C11.0323 39.3152 10.8952 39.1838 10.7593 39.0512C10.6234 38.9185 10.4888 38.7845 10.3555 38.6493C10.2222 38.514 10.0902 38.3775 9.95949 38.2398C9.82878 38.102 9.6994 37.963 9.57135 37.8227C9.44335 37.6824 9.31668 37.541 9.19134 37.3983C9.06604 37.2556 8.94212 37.1118 8.81957 36.9667C8.69703 36.8216 8.57587 36.6753 8.45612 36.528C8.33637 36.3806 8.21803 36.2321 8.10111 36.0824C7.9842 35.9327 7.86874 35.782 7.75474 35.6301C7.64075 35.4782 7.52821 35.3253 7.41714 35.1712C7.30606 35.0172 7.19647 34.8621 7.08836 34.706C6.98025 34.5499 6.87365 34.3927 6.76855 34.2345C6.66349 34.0764 6.55993 33.9172 6.45788 33.757C6.35584 33.5968 6.25535 33.4357 6.15641 33.2736C6.05746 33.1115 5.96008 32.9485 5.86427 32.7845C5.76845 32.6206 5.67421 32.4557 5.58156 32.29C5.4889 32.1242 5.39785 31.9575 5.30839 31.79C5.21893 31.6225 5.13109 31.4542 5.04486 31.285C4.95863 31.1157 4.87403 30.9457 4.79106 30.7749C4.7081 30.6041 4.62677 30.4325 4.5471 30.2601C4.46742 30.0877 4.3894 29.9146 4.31305 29.7407C4.23669 29.5668 4.16201 29.3922 4.089 29.2169C4.016 29.0416 3.94468 28.8656 3.87504 28.6889C3.80541 28.5123 3.73748 28.335 3.67126 28.157C3.60502 27.979 3.54051 27.8004 3.4777 27.6212C3.4149 27.442 3.35382 27.2621 3.29447 27.0817C3.23511 26.9013 3.17749 26.7204 3.12161 26.5389C3.06572 26.3574 3.01158 26.1754 2.95919 25.9928C2.9068 25.8103 2.85616 25.6273 2.80728 25.4438C2.75839 25.2603 2.71128 25.0763 2.66592 24.8919C2.28567 23.3502 1.99446 21.7478 1.9015 20.1605C1.87973 19.7419 1.86105 19.3231 1.84545 18.9042C1.81262 18.0576 1.80602 17.5191 2.40094 16.8606C2.93266 16.272 3.64459 15.9086 4.35011 15.5713C6.1317 14.7196 8.09667 14.2443 10.0219 13.8456C15.5263 12.7058 21.1507 12.4278 26.7502 12.1501C27.792 11.2063 28.7745 10.1799 29.7764 9.19262C30.2005 8.7747 30.639 8.24993 31.1343 7.92109C31.4024 7.74313 31.6921 7.65373 32.0084 7.61629Z" fill="white"/>
<path d="M51.0659 44.3513C51.4163 44.3264 51.766 44.3347 52.117 44.3397C52.1874 44.5508 52.2767 44.7586 52.3574 44.9663C51.936 44.7288 51.5167 44.5244 51.0659 44.3513Z" fill="#1C1C1C"/>
<path d="M52.5369 44.3659C52.9203 44.366 53.3035 44.3993 53.6858 44.4249L53.309 44.6524L52.8027 45.001C52.6783 44.8015 52.6092 44.5876 52.5369 44.3659Z" fill="#1C1C1C"/>
<path d="M54.2809 44.5376C54.6287 44.5506 54.9752 44.5798 55.3203 44.6252C55.6654 44.6707 56.0076 44.7323 56.3469 44.8099C55.9203 44.8145 55.4939 44.8229 55.0674 44.8351C54.4627 44.8835 53.8832 44.9969 53.2894 45.1169C53.5985 44.8935 53.9426 44.7122 54.2809 44.5376Z" fill="#1C1C1C"/>
<path d="M49.6471 44.3892C50.4589 44.2759 51.2468 44.7902 51.9378 45.156C51.3968 45.0127 50.8461 44.9122 50.2954 44.8147C49.4383 44.6966 48.6064 44.6278 47.7409 44.6337C48.3536 44.4869 49.0198 44.4422 49.6471 44.3892Z" fill="#1C1C1C"/>
<path d="M55.6687 45.1995C55.9481 45.1863 56.2277 45.1818 56.5074 45.1862C57.0153 45.1919 57.572 45.178 58.0705 45.2856C59.471 45.588 61.7851 46.8936 62.7901 47.9199C62.2389 47.6642 61.6583 47.4548 61.0932 47.2308C58.6163 46.2988 55.9603 45.9005 53.3497 45.5486C54.1046 45.2802 54.8749 45.2301 55.6687 45.1995Z" fill="#1C1C1C"/>
<path d="M47.7957 45.0026C49.1591 44.9686 50.4707 45.2241 51.8063 45.4507C50.9749 45.5138 50.1392 45.5651 49.3119 45.6703C47.6583 45.8805 45.9663 46.2598 44.3781 46.7689C43.3676 47.0812 42.3814 47.4429 41.4362 47.9195C41.4875 47.8652 41.5395 47.8116 41.5921 47.7586C41.6447 47.7055 41.698 47.6532 41.7518 47.6014C41.8057 47.5497 41.8602 47.4986 41.9153 47.4481C41.9704 47.3977 42.0261 47.3479 42.0824 47.2988C42.1387 47.2497 42.1955 47.2013 42.253 47.1535C42.3104 47.1058 42.3684 47.0587 42.427 47.0124C42.4856 46.966 42.5447 46.9204 42.6044 46.8754C42.664 46.8305 42.7242 46.7863 42.785 46.7428C42.8457 46.6993 42.9069 46.6565 42.9687 46.6145C43.0304 46.5724 43.0926 46.5312 43.1554 46.4906C43.2181 46.4501 43.2813 46.4103 43.3451 46.3713C43.4087 46.3322 43.4729 46.294 43.5375 46.2565C43.6021 46.219 43.6671 46.1823 43.7326 46.1463C43.7981 46.1104 43.864 46.0753 43.9304 46.0409C43.9967 46.0066 44.0634 45.973 44.1306 45.9403C44.1977 45.9075 44.2652 45.8755 44.3331 45.8444C44.401 45.8133 44.4693 45.7829 44.5379 45.7534C44.6065 45.7239 44.6755 45.6952 44.7448 45.6674C44.8141 45.6395 44.8837 45.6125 44.9537 45.5863C45.0236 45.5601 45.0939 45.5348 45.1644 45.5102C45.235 45.4857 45.3059 45.4621 45.377 45.4393C45.4482 45.4165 45.5196 45.3945 45.5912 45.3734C45.6629 45.3523 45.7348 45.3321 45.8069 45.3127C45.8791 45.2933 45.9514 45.2748 46.024 45.2572C46.0966 45.2395 46.1694 45.2228 46.2424 45.2069C46.3153 45.191 46.3885 45.1759 46.4618 45.1617C46.5352 45.1476 46.6087 45.1343 46.6824 45.122C46.756 45.1095 46.8298 45.098 46.9038 45.0874C46.9777 45.0768 47.0518 45.0671 47.126 45.0582C47.2001 45.0494 47.2744 45.0414 47.3488 45.0343C47.4231 45.0273 47.4975 45.0211 47.572 45.0158C47.6465 45.0105 47.7211 45.0061 47.7957 45.0026Z" fill="#1C1C1C"/>
<path d="M51.5863 45.8075C51.6931 45.7882 51.8164 45.7962 51.9256 45.7928C49.4149 46.656 45.706 49.5022 43.9374 51.4929C43.628 51.8417 43.339 52.2065 43.0702 52.5874C42.8014 52.9682 42.5545 53.3628 42.3295 53.7711C42.0256 53.5526 41.7563 53.2887 41.492 53.0248C41.0443 52.5522 40.6782 51.9486 40.5111 51.3165C40.2615 50.3721 40.4505 49.4261 40.9371 48.5934C41.5551 48.297 42.1653 47.9892 42.8027 47.7356C44.6013 47.0199 47.1005 46.3832 49.012 46.0917C49.866 45.9614 50.7265 45.8868 51.5863 45.8075Z" fill="#1C1C1C"/>
<path d="M53.1904 45.8731C54.1567 46.1185 55.2872 46.2097 56.2868 46.4011C58.9508 46.911 60.8933 47.5074 63.3579 48.6104C63.6315 48.9955 63.8408 49.4628 63.9343 49.9264C64.1272 50.883 63.8051 51.6834 63.2831 52.4708C63.0758 52.738 62.8509 52.9895 62.6083 53.2252C62.007 52.9736 61.4087 52.7183 60.8323 52.4126C58.3667 51.105 56.192 49.2035 54.3318 47.1391C53.9539 46.7198 53.5257 46.3275 53.1904 45.8731Z" fill="#1C1C1C"/>
<path d="M22.347 46.1694C22.7491 46.2388 23.1789 46.4321 23.5734 46.5539C24.4414 46.8219 25.3318 47.0752 26.2229 47.2521C31.798 48.3583 37.1667 47.9425 42.5827 46.2977C42.039 46.6312 41.5676 47.0336 41.1285 47.495C40.6627 47.9817 40.3275 48.5142 40.0246 49.1115L39.0439 49.318C34.8321 50.1827 28.7132 50.1118 24.5683 48.9094C23.8083 48.6889 22.9482 48.4168 22.2886 47.9751C22.0723 47.8303 21.7273 47.5648 21.6971 47.291C21.656 46.9189 22.1205 46.4348 22.347 46.1694Z" fill="#1C1C1C"/>
<path d="M41.8488 54.2935C42.1812 54.4351 42.5145 54.7637 42.8562 54.9401C44.1648 55.615 45.4645 56.1145 46.9008 56.4557C50.9141 57.4094 56.4329 57.204 60.2709 55.6154C60.9729 55.3248 61.6172 54.9457 62.2626 54.5488C61.7229 55.17 61.1878 55.7931 60.6152 56.3844C59.5034 57.5369 58.298 58.5448 57.0065 59.4896C56.5642 59.8132 56.034 59.9212 55.5079 60.0357C53.5288 60.4661 51.4206 60.4874 49.4232 60.1658C48.8621 60.0755 48.2097 59.969 47.6936 59.7323C47.3153 59.5587 46.9639 59.2518 46.631 59.0049C44.8403 57.6767 43.1594 56.1073 41.8488 54.2935Z" fill="#1C1C1C"/>
<path d="M52.2057 46.0589C52.2426 46.1086 52.0107 46.6173 51.9781 46.6979C50.6726 49.9272 50.7508 52.9342 52.0292 56.1416C49.5651 56.1232 47.1556 55.8173 44.8189 55.0116C44.078 54.7465 43.3187 54.4331 42.6547 54.0075C44.1745 50.8064 49.0711 47.4505 52.2057 46.0589Z" fill="#1C1C1C"/>
<path d="M52.7336 46.0056C52.9985 46.2591 53.2326 46.5543 53.4767 46.8281C53.894 47.2982 54.3211 47.7593 54.7578 48.2113C56.3027 49.8011 58.0717 51.3157 59.9994 52.4257C60.7135 52.8368 61.4567 53.18 62.2079 53.5163C61.4627 54.108 60.6487 54.534 59.7721 54.8948C57.4401 55.78 54.9572 56.1219 52.4734 56.1397C52.3206 55.7766 52.1642 55.4119 52.0358 55.0393C51.0184 52.0872 51.3785 48.7823 52.7336 46.0056Z" fill="#1C1C1C"/>
<path d="M37.7312 12.5713C38.9515 12.5516 40.2071 12.6671 41.4271 12.7315C46.8597 13.0182 52.3887 13.5005 57.6602 14.904C59.2298 15.3219 61.1255 15.8794 62.4312 16.8801C62.846 17.198 63.264 17.6353 63.3256 18.1789C63.3666 18.5413 63.2071 18.8177 62.9889 19.0906C60.8384 21.7814 50.9321 23.0656 47.4586 23.4314C45.9583 23.5792 44.456 23.7037 42.9519 23.8051C41.4477 23.9063 39.9423 23.9843 38.4357 24.039C36.9291 24.0938 35.422 24.1252 33.9145 24.1333C32.4069 24.1413 30.8995 24.1261 29.3924 24.0875C22.8121 23.9617 15.8562 23.5929 9.4525 22.031C7.42313 21.536 4.8562 20.8323 3.21948 19.4937C2.84503 19.1874 2.43911 18.7497 2.40189 18.2425C2.37554 17.8836 2.55322 17.5601 2.78563 17.3003C5.59505 14.159 18.6617 13.1592 22.8898 12.9285C23.9692 12.9182 25.0509 12.8405 26.1303 12.8083C26.0287 12.8746 25.9301 12.9466 25.8306 13.016C21.2816 13.1953 7.64149 14.1756 4.37335 17.1104C4.05102 17.3998 3.76832 17.7733 3.75288 18.2237C3.73951 18.6139 3.94286 18.9846 4.20126 19.2643C4.49026 19.5773 4.85633 19.7921 5.22297 20.0006C9.69104 22.5415 22.4062 23.3507 27.8122 23.5376C31.4216 23.6684 35.0309 23.6638 38.6399 23.5238C43.265 23.3457 58.16 22.3355 61.2693 19.3951C61.5966 19.0857 61.8603 18.6998 61.8639 18.233C61.8672 17.8099 61.6693 17.466 61.3828 17.17C58.2427 13.9237 42.825 12.9523 38.0124 12.8844C37.9142 12.785 37.8239 12.6758 37.7312 12.5713Z" fill="#1C1C1C"/>
<path d="M38.6239 13.4349C39.364 13.4326 40.1131 13.4942 40.8521 13.5349C42.2603 13.6051 43.6664 13.7056 45.0702 13.8366C48.7989 14.1842 52.5574 14.598 56.1916 15.5348C57.4251 15.8528 60.5326 16.7082 61.1621 17.8397C61.2718 18.0367 61.3068 18.2556 61.2356 18.4721C61.0299 19.0975 60.1798 19.493 59.631 19.7631C58.1281 20.4677 55.8544 21.115 54.213 21.3201C52.7139 19.8781 52.847 20.0367 50.8317 20.0659C50.467 19.5141 50.0934 18.9685 49.7107 18.429C49.5089 18.1406 49.3111 17.8 49.0596 17.5541C48.9283 17.4258 48.7794 17.3347 48.6035 17.2804C47.8807 17.057 46.5546 17.1614 45.7747 17.1779C45.5395 16.7862 45.1383 16.301 44.8264 15.9656C44.6664 15.7934 44.4938 15.6451 44.2679 15.5681C43.6313 15.3515 41.3632 15.4343 40.5366 15.4042C39.9074 14.7396 39.2699 14.0832 38.6239 13.4349Z" fill="#1C1C1C"/>
<path d="M25.1373 13.6797L25.1506 13.6871L25.1514 13.7306C24.8596 14.0505 24.5239 14.3373 24.2157 14.6421C23.4113 15.4521 22.593 16.2477 21.7609 17.0292C20.917 17.0514 19.2917 17.0033 18.5382 17.1949C17.4628 17.4684 16.6361 18.62 16.1058 19.5229C15.4187 19.575 14.6935 19.5637 14.0159 19.6814C13.0284 19.8529 12.446 20.6577 11.9066 21.4302C10.0599 21.1337 7.777 20.5865 6.08266 19.8069C5.62654 19.5905 5.16275 19.3586 4.77884 19.0254C4.56581 18.8405 4.34917 18.5964 4.33669 18.3002C4.32596 18.046 4.46843 17.8281 4.63497 17.6491C5.53537 16.6811 7.53233 16.1255 8.79961 15.7881C11.9977 14.9366 15.2724 14.4784 18.5606 14.1487C20.7487 13.9347 22.941 13.7784 25.1373 13.6797Z" fill="#1C1C1C"/>
<path d="M31.9599 8.15711C31.9986 8.15514 32.0374 8.15413 32.0762 8.15408C32.2555 8.1546 32.4514 8.16375 32.6014 8.27255C32.926 8.50793 33.2058 8.85385 33.4811 9.14402C33.8393 9.52165 34.2027 9.89019 34.5714 10.2574L40.2818 16.0053C41.5534 16.0531 42.8438 15.9366 44.1115 16.0557C44.6417 16.5382 45.0666 17.1692 45.4604 17.7638C46.4241 17.7252 47.6192 17.5138 48.5392 17.8427C49.2417 18.7143 49.8819 19.6616 50.4995 20.594C51.0315 20.5964 51.5669 20.5892 52.0983 20.6129C52.7558 20.6423 53.0954 20.9857 53.5133 21.4468C51.5387 21.83 49.5095 22.0511 47.5104 22.2685C45.2965 22.5158 43.0775 22.7041 40.8536 22.8334C38.6297 22.9627 36.4039 23.0329 34.1763 23.044C31.7083 23.0681 29.2414 23.0268 26.7756 22.92C24.3098 22.8133 21.8486 22.6413 19.3919 22.404C17.0876 22.1981 14.7944 21.9053 12.5123 21.5253C12.6456 21.3261 12.7946 21.1284 12.9533 20.9489C13.7995 19.9906 14.7309 20.1736 15.8934 20.0983C16.042 20.0886 16.2175 20.0797 16.3465 19.9969C16.5519 19.865 17.25 18.7769 17.5043 18.4919C17.7649 18.1999 18.0724 17.9144 18.4429 17.7711C18.9973 17.5567 21.2123 17.603 21.9786 17.5591C22.3882 17.3263 23.3592 16.2533 23.7528 15.8669C25.3835 14.2942 26.9989 12.7059 28.5991 11.102L30.1682 9.56142C30.5229 9.21208 30.8705 8.8387 31.257 8.52475C31.475 8.3477 31.6897 8.23484 31.9599 8.15711Z" fill="#1C1C1C"/>
<path d="M19.433 19.4418C19.6053 19.4425 19.7878 19.4556 19.946 19.5296C20.0715 19.5881 20.1778 19.6839 20.2181 19.8198C20.2602 19.9615 20.2305 20.1136 20.1564 20.2393C19.9873 20.5262 19.6897 20.6122 19.3884 20.6864C19.2055 20.7024 19.0227 20.6704 18.8638 20.5741C18.7398 20.4989 18.6578 20.3825 18.6268 20.2409C18.5922 20.0824 18.6383 19.9131 18.7347 19.7847C18.9121 19.5484 19.1566 19.485 19.433 19.4418Z" fill="white"/>
<path d="M19.3147 19.9536C19.3737 19.9475 19.4378 19.9377 19.497 19.9418C19.5635 19.9463 19.6088 19.962 19.6478 20.0162C19.5961 20.0886 19.5224 20.1032 19.442 20.1302C19.4326 20.1313 19.423 20.1325 19.4135 20.1335L19.3666 20.138C19.2875 20.1461 19.2239 20.1635 19.1526 20.1185C19.1842 20.0291 19.2405 20.0083 19.3147 19.9536Z" fill="#1C1C1C"/>
<path d="M37.9179 19.247C38.131 19.2282 38.3422 19.214 38.545 19.2964C38.7045 19.3613 38.8435 19.476 38.9029 19.6419C38.9088 19.6586 38.9139 19.6757 38.9181 19.6929C38.9222 19.7102 38.9255 19.7277 38.9278 19.7453C38.9301 19.7629 38.9314 19.7806 38.9319 19.7984C38.9323 19.8162 38.9317 19.8339 38.9303 19.8517C38.9288 19.8694 38.9263 19.887 38.923 19.9044C38.9196 19.9219 38.9153 19.9391 38.9101 19.9561C38.9049 19.9731 38.8988 19.9898 38.8918 20.0062C38.8848 20.0225 38.8769 20.0384 38.8683 20.0539C38.7299 20.3039 38.4909 20.3818 38.2338 20.4528C38.0155 20.4746 37.8008 20.4789 37.5967 20.386C37.4439 20.3164 37.3136 20.1976 37.2596 20.0353C37.2545 20.0197 37.2501 20.004 37.2466 19.9879C37.2431 19.9719 37.2404 19.9558 37.2385 19.9395C37.2366 19.9232 37.2355 19.9069 37.2353 19.8905C37.2351 19.8742 37.2357 19.8578 37.2372 19.8415C37.2386 19.8252 37.2409 19.809 37.244 19.7929C37.2471 19.7768 37.251 19.7609 37.2557 19.7452C37.2604 19.7295 37.2659 19.7141 37.2722 19.699C37.2785 19.6839 37.2855 19.6691 37.2933 19.6546C37.4223 19.4111 37.6716 19.3235 37.9179 19.247Z" fill="white"/>
<path d="M37.9403 19.7343C38.0967 19.72 38.2239 19.7075 38.3785 19.7458L38.4058 19.7942C38.3423 19.8752 38.2643 19.8996 38.1724 19.9369C38.0758 19.9488 37.9622 19.9634 37.8669 19.943C37.7981 19.9284 37.778 19.9278 37.7396 19.8672C37.7894 19.7908 37.8602 19.769 37.9403 19.7343Z" fill="#1C1C1C"/>
<path d="M25.2875 18.2467C25.4768 18.2243 25.6801 18.2165 25.8625 18.2801C26.0174 18.3341 26.1594 18.4387 26.2223 18.5945C26.276 18.7275 26.2652 18.8769 26.2005 19.0041C26.0672 19.2661 25.8075 19.3829 25.5408 19.4634C25.3328 19.5024 25.1138 19.4946 24.9178 19.4077C24.767 19.3408 24.6378 19.2219 24.5836 19.0632C24.5779 19.0464 24.5731 19.0294 24.5692 19.0121C24.5653 18.9948 24.5624 18.9773 24.5603 18.9597C24.5583 18.9421 24.5572 18.9244 24.557 18.9066C24.5569 18.8889 24.5576 18.8712 24.5593 18.8535C24.5611 18.8359 24.5637 18.8183 24.5673 18.8009C24.5708 18.7836 24.5753 18.7664 24.5807 18.7495C24.5861 18.7326 24.5924 18.716 24.5996 18.6998C24.6067 18.6836 24.6147 18.6677 24.6235 18.6524C24.7666 18.4025 25.0304 18.3259 25.2875 18.2467Z" fill="white"/>
<path d="M25.2795 18.7647C25.3877 18.7568 25.5028 18.7425 25.6109 18.7559C25.6845 18.765 25.7111 18.7615 25.7573 18.8204C25.7054 18.8921 25.6209 18.916 25.5423 18.9496C25.4461 18.9642 25.3426 18.9831 25.2456 18.9716C25.168 18.9624 25.1435 18.965 25.0934 18.9038C25.1446 18.8257 25.1993 18.807 25.2795 18.7647Z" fill="#1C1C1C"/>
<path d="M32.9275 16.9245C33.1374 16.9125 33.3396 16.9022 33.541 16.9777C33.7003 17.0374 33.8483 17.1443 33.913 17.3067C33.9605 17.4256 33.9513 17.5555 33.8979 17.671C33.7799 17.9257 33.5194 18.0381 33.2741 18.1332C33.0493 18.1618 32.8135 18.1794 32.6008 18.0871C32.4441 18.0191 32.3106 17.901 32.2523 17.7372C32.2462 17.7203 32.2411 17.703 32.2369 17.6855C32.2327 17.668 32.2294 17.6503 32.2271 17.6324C32.2248 17.6146 32.2234 17.5967 32.223 17.5786C32.2226 17.5606 32.2232 17.5426 32.2247 17.5247C32.2262 17.5068 32.2287 17.4889 32.2322 17.4712C32.2356 17.4536 32.24 17.4361 32.2453 17.4189C32.2506 17.4017 32.2568 17.3848 32.2639 17.3682C32.271 17.3517 32.279 17.3356 32.2879 17.3199C32.423 17.0787 32.6793 16.9967 32.9275 16.9245Z" fill="white"/>
<path d="M33.1252 17.4123C33.1451 17.4106 33.1649 17.4077 33.1847 17.4073C33.2635 17.4058 33.3374 17.4091 33.3952 17.4617L33.3652 17.5207C33.2389 17.6183 33.1313 17.6365 32.9782 17.6634C32.9396 17.6614 32.8993 17.6607 32.8612 17.6538C32.7943 17.6418 32.7442 17.636 32.7029 17.5791L32.7434 17.5208C32.8699 17.4438 32.9796 17.4285 33.1252 17.4123Z" fill="#1C1C1C"/>
<path d="M29.297 20.1206C29.4905 20.1189 29.7032 20.1338 29.8778 20.2226C30.0058 20.2876 30.1095 20.3933 30.1474 20.5341C30.1865 20.6793 30.1491 20.8336 30.0689 20.9579C29.9002 21.2197 29.624 21.3006 29.3387 21.3649C29.1087 21.3754 28.8821 21.3627 28.6865 21.2255C28.5676 21.142 28.481 21.0161 28.459 20.8714C28.4369 20.7256 28.4779 20.5785 28.5668 20.4616C28.7478 20.2233 29.0171 20.1591 29.297 20.1206Z" fill="white"/>
<path d="M29.3422 20.631C29.4372 20.622 29.544 20.6078 29.6285 20.6585L29.6171 20.7126C29.5146 20.7993 29.4259 20.8199 29.2967 20.8503C29.1825 20.857 29.0704 20.8716 28.9694 20.8077L28.9857 20.7541C29.1037 20.672 29.2018 20.6546 29.3422 20.631Z" fill="#1C1C1C"/>
<path d="M36.8155 15.0267C37.0064 15.0254 37.2223 15.0403 37.3936 15.1302C37.5219 15.1975 37.6264 15.3077 37.6624 15.4504C37.6984 15.5929 37.6675 15.742 37.589 15.8649C37.4263 16.1198 37.1592 16.2118 36.8795 16.2734C36.6438 16.2812 36.4069 16.2629 36.2051 16.1276C36.0831 16.0459 35.9908 15.9256 35.964 15.7793C35.9368 15.6313 35.9755 15.4874 36.065 15.3675C36.2436 15.128 36.5377 15.0666 36.8155 15.0267Z" fill="white"/>
<path d="M36.7546 15.5405C36.8746 15.5282 36.9825 15.5116 37.0887 15.5785L37.0952 15.6285C37.0157 15.7103 36.9332 15.7253 36.8271 15.7532C36.7492 15.7572 36.6621 15.7678 36.5859 15.7488C36.5225 15.7329 36.5123 15.7319 36.48 15.6739C36.5481 15.5864 36.653 15.5708 36.7546 15.5405Z" fill="#1C1C1C"/>
<path d="M31.3485 12.5111C31.524 12.5019 31.6856 12.4985 31.8562 12.5518C32.0216 12.6034 32.1765 12.7043 32.2554 12.8632C32.2635 12.8794 32.2706 12.896 32.2769 12.913C32.2831 12.93 32.2885 12.9472 32.2928 12.9648C32.2972 12.9823 32.3006 13.0001 32.3031 13.018C32.3055 13.0359 32.307 13.0539 32.3075 13.0719C32.308 13.09 32.3075 13.1081 32.306 13.1261C32.3045 13.1442 32.3021 13.162 32.2987 13.1798C32.2953 13.1976 32.2909 13.2151 32.2856 13.2324C32.2803 13.2496 32.274 13.2666 32.2669 13.2832C32.1499 13.5614 31.8842 13.674 31.6206 13.7709C31.3904 13.8042 31.1396 13.7986 30.929 13.6883C30.7836 13.6122 30.6665 13.4868 30.626 13.325C30.5904 13.1828 30.6183 13.0322 30.6949 12.9082C30.8446 12.6656 31.0885 12.5813 31.3485 12.5111Z" fill="white"/>
<path d="M31.4392 13.0276C31.5256 13.0211 31.6243 13.0033 31.707 13.0342C31.7529 13.0514 31.7398 13.0523 31.7563 13.1033C31.6834 13.1911 31.5881 13.2046 31.483 13.233C31.3686 13.2381 31.272 13.2472 31.1701 13.1858L31.163 13.1303C31.24 13.0543 31.3374 13.0476 31.4392 13.0276Z" fill="#1C1C1C"/>
<path d="M43.895 18.2485C44.1191 18.2306 44.3616 18.2271 44.5645 18.3377C44.6945 18.4086 44.7941 18.52 44.8271 18.6666C44.8594 18.8098 44.8257 18.9625 44.7471 19.0851C44.5857 19.337 44.3354 19.4285 44.0585 19.4914C43.8549 19.5039 43.6469 19.4996 43.4602 19.4072C43.3071 19.3315 43.1805 19.2041 43.1353 19.0362C43.1305 19.019 43.1267 19.0016 43.1237 18.9839C43.1208 18.9663 43.1188 18.9485 43.1176 18.9307C43.1166 18.9129 43.1164 18.895 43.1172 18.8771C43.118 18.8593 43.1197 18.8415 43.1223 18.8238C43.1249 18.8062 43.1285 18.7887 43.133 18.7714C43.1374 18.7541 43.1428 18.737 43.149 18.7203C43.1553 18.7035 43.1624 18.6871 43.1704 18.6712C43.1783 18.6551 43.1871 18.6396 43.1967 18.6245C43.3541 18.3738 43.625 18.3055 43.895 18.2485Z" fill="white"/>
<path d="M43.7883 18.7666C43.8162 18.7632 43.8441 18.76 43.8721 18.757C44.0168 18.7418 44.1909 18.7195 44.3093 18.8154C44.268 18.8899 44.1829 18.9109 44.1082 18.9424C44.0142 18.9642 43.9082 18.9768 43.8116 18.9726C43.7301 18.9691 43.6721 18.9648 43.6141 18.9075C43.6614 18.8252 43.7066 18.8123 43.7883 18.7666Z" fill="#1C1C1C"/>
<path d="M28.0249 13.221C28.2144 13.2072 28.4081 13.2166 28.5825 13.2992C28.7166 13.3627 28.8228 13.4685 28.8692 13.6114C28.9134 13.748 28.8936 13.8965 28.8271 14.0223C28.6797 14.3011 28.3988 14.3937 28.1169 14.4752C27.8606 14.4889 27.6224 14.4966 27.3992 14.345C27.2763 14.2616 27.1868 14.1388 27.1607 13.991C27.1337 13.8384 27.1771 13.6865 27.2704 13.564C27.4531 13.324 27.7451 13.2665 28.0249 13.221Z" fill="white"/>
<path d="M27.9874 13.7332C28.1094 13.7241 28.2124 13.7046 28.3234 13.7642L28.3373 13.8171C28.2637 13.9009 28.1622 13.9156 28.0589 13.9442C27.9284 13.9644 27.8467 13.9861 27.7307 13.9126L27.735 13.8575C27.8093 13.7804 27.8884 13.7627 27.9874 13.7332Z" fill="#1C1C1C"/>
<path d="M2.87726 19.9639C5.05152 21.624 8.55079 22.4867 11.2045 23.0022C15.5532 23.8467 19.9648 24.2607 24.3843 24.5047C25.4319 24.5651 26.4801 24.6141 27.5289 24.6517C28.5777 24.6893 29.6267 24.7156 30.676 24.7305C31.7253 24.7453 32.7746 24.7488 33.824 24.7408C34.8734 24.7329 35.9226 24.7136 36.9716 24.683C38.0205 24.6523 39.069 24.6102 40.1171 24.5568C41.1651 24.5034 42.2125 24.4386 43.2592 24.3624C44.3058 24.2863 45.3515 24.1987 46.3963 24.0999C47.441 24.001 48.4846 23.8909 49.5269 23.7693C52.9207 23.3464 56.8692 22.7216 60.0499 21.4858C61.0286 21.1056 61.9366 20.6534 62.8078 20.0667C62.6685 22.0218 62.2447 23.9491 61.6771 25.8213C61.5794 26.1881 61.4363 26.5462 61.2952 26.8981C60.8573 27.0664 60.4369 27.327 60.0085 27.5253C59.3198 27.8441 58.607 28.1059 57.8919 28.3583C55.0692 29.3545 52.0967 29.9785 49.1438 30.4413C47.9415 30.6217 46.7362 30.7804 45.5281 30.9174C44.3201 31.0545 43.1099 31.1698 41.8977 31.2635C40.6856 31.3571 39.4721 31.429 38.2572 31.4791C37.0425 31.5292 35.8272 31.5574 34.6114 31.5639C29.1996 31.6268 23.8301 31.4001 18.4614 30.6839C14.7953 30.1949 11.079 29.4818 7.57117 28.2931C6.44833 27.9126 5.38866 27.4561 4.32133 26.9451C3.49592 24.7853 3.02515 22.2679 2.87726 19.9639Z" fill="#1C1C1C"/>
<path d="M4.55237 27.6955C5.05796 27.8894 5.54589 28.1348 6.05089 28.3333C7.21328 28.7807 8.39522 29.1686 9.59671 29.497C10.5564 29.7485 11.5208 29.9807 12.4898 30.1935C13.4588 30.4063 14.4317 30.5996 15.4085 30.7733C16.3853 30.9469 17.3652 31.1009 18.3482 31.2353C19.3312 31.3695 20.3164 31.484 21.304 31.5787C22.231 31.6745 23.159 31.7587 24.088 31.8315C25.0171 31.9041 25.9469 31.9652 26.8775 32.0148C27.8081 32.0644 28.7391 32.1023 29.6706 32.1288C30.6022 32.1552 31.5339 32.17 32.4658 32.1732C33.3976 32.1764 34.3294 32.168 35.2611 32.1481C36.1928 32.1281 37.1241 32.0966 38.055 32.0535C38.9859 32.0104 39.9161 31.9557 40.8456 31.8894C41.7751 31.8231 42.7037 31.7453 43.6313 31.6559C47.6917 31.2786 51.7654 30.7307 55.7068 29.6612C56.8862 29.3324 58.0466 28.9465 59.188 28.5036C59.7913 28.2626 60.3758 27.9759 60.9808 27.7409C59.8719 30.827 57.5357 34.3845 55.3327 36.7949C54.8346 37.384 54.2668 37.9331 53.7091 38.4654C50.8736 41.1717 47.4906 43.4174 43.8076 44.7859C43.5669 44.8778 43.3251 44.9667 43.0822 45.0526C42.8393 45.1385 42.5953 45.2213 42.3504 45.3012C42.1054 45.381 41.8595 45.4578 41.6126 45.5316C41.3658 45.6053 41.118 45.676 40.8694 45.7437C40.6208 45.8113 40.3714 45.8758 40.1212 45.9373C39.871 45.9987 39.62 46.057 39.3684 46.1122C39.1167 46.1675 38.8644 46.2196 38.6114 46.2685C38.3585 46.3175 38.105 46.3633 37.8509 46.406C37.5968 46.4486 37.3423 46.4882 37.0872 46.5246C36.8321 46.5609 36.5767 46.5941 36.3208 46.6241C36.0649 46.6542 35.8086 46.6811 35.5521 46.7048C35.2955 46.7285 35.0387 46.749 34.7816 46.7663C34.5246 46.7836 34.2674 46.7977 34.0099 46.8087C33.7525 46.8196 33.495 46.8274 33.2374 46.8319C32.9798 46.8365 32.7222 46.8379 32.4645 46.8361C32.2069 46.8343 31.9493 46.8293 31.6918 46.8211C31.4343 46.8128 31.1769 46.8015 30.9197 46.7869C30.6625 46.7723 30.4055 46.7546 30.1487 46.7336C29.8919 46.7127 29.6354 46.6885 29.3792 46.6612C29.123 46.6339 28.8672 46.6035 28.6117 46.5698C28.3563 46.5362 28.1013 46.4993 27.8468 46.4593C27.5923 46.4194 27.3382 46.3763 27.0848 46.3301C26.8313 46.2838 26.5785 46.2344 26.3262 46.1819C26.074 46.1293 25.8225 46.0737 25.5716 46.0149C25.3208 45.9562 25.0707 45.8943 24.8214 45.8293C24.572 45.7643 24.3235 45.6963 24.0759 45.6252C23.8283 45.5541 23.5816 45.4799 23.3357 45.4027C23.0899 45.3254 22.8452 45.2452 22.6013 45.1619C22.3575 45.0786 22.1148 44.9923 21.8732 44.9029C21.6315 44.8136 21.3909 44.7213 21.1515 44.626C20.9122 44.5308 20.674 44.4326 20.4371 44.3314C20.2001 44.2302 19.9644 44.1261 19.7301 44.0191C19.5134 43.92 19.2979 43.8183 19.0837 43.714C18.8694 43.6096 18.6565 43.5027 18.445 43.3931C18.2334 43.2835 18.0232 43.1714 17.8143 43.0567C17.6055 42.9419 17.3981 42.8246 17.1921 42.7048C16.9862 42.585 16.7817 42.4626 16.5788 42.3378C16.3758 42.2129 16.1744 42.0856 15.9746 41.9557C15.7748 41.8259 15.5766 41.6937 15.38 41.559C15.1834 41.4244 14.9885 41.2873 14.7953 41.1478C14.6021 41.0083 14.4107 40.8665 14.221 40.7224C14.0312 40.5782 13.8433 40.4317 13.6572 40.2829C13.471 40.1342 13.2868 39.9831 13.1044 39.8298C12.9219 39.6765 12.7414 39.521 12.5628 39.3632C12.3843 39.2055 12.2076 39.0456 12.033 38.8835C11.8583 38.7214 11.6857 38.5572 11.515 38.3909C11.3444 38.2246 11.1758 38.0562 11.0093 37.8857C10.8428 37.7152 10.6784 37.5427 10.5162 37.3682C10.3539 37.1937 10.1939 37.0173 10.036 36.8388C9.87805 36.6604 9.72235 36.48 9.56886 36.2978C9.41538 36.1155 9.26415 35.9314 9.11518 35.7454C8.96621 35.5594 8.81953 35.3716 8.67516 35.182C8.53082 34.9925 8.38883 34.8012 8.24919 34.6081C8.10954 34.415 7.97227 34.2203 7.8374 34.0238C7.70252 33.8274 7.57009 33.6293 7.44011 33.4296C7.31008 33.2299 7.18255 33.0286 7.05751 32.8258C6.93247 32.623 6.80993 32.4187 6.68987 32.2128C6.56982 32.007 6.45233 31.7997 6.3374 31.591C6.22246 31.3823 6.11009 31.1722 6.00031 30.9607C5.89053 30.7492 5.78336 30.5364 5.67881 30.3223C5.57425 30.1082 5.47234 29.8928 5.37308 29.6761C5.27382 29.4595 5.17723 29.2417 5.08331 29.0227C4.9894 28.8037 4.89819 28.5836 4.80969 28.3624C4.72119 28.1411 4.63541 27.9188 4.55237 27.6955Z" fill="#1C1C1C"/>
</g>
<defs>
<clipPath id="clip0_107_4643">
<rect width="66" height="66" rx="10" fill="white"/>
</clipPath>
</defs>
</svg>
