<svg width="66" height="66" viewBox="0 0 66 66" fill="none" xmlns="http://www.w3.org/2000/svg">
<g clip-path="url(#clip0_107_4629)">
<path d="M0 0H66V66H0V0Z" fill="#1C1C1C"/>
<path d="M25.354 0.561876C26.2548 0.484131 27.2309 0.767818 28.0472 1.12484C28.7188 1.41861 29.4545 1.83512 30.2053 1.83361C30.633 1.83275 31.0765 1.67728 31.4914 1.57728C33.3031 1.14067 35.3195 1.01536 37.0174 1.8982C37.514 2.15636 37.916 2.51585 38.3891 2.79806C38.7003 2.98366 39.0808 3.06295 39.4352 3.11473C40.7424 3.30574 41.86 3.01037 43.1108 2.69805C44.0765 2.45691 45.1034 2.50105 45.9711 3.02926C46.6321 3.43168 47.1057 4.10063 47.0902 4.8981C47.0844 5.19508 47.017 5.53741 47.0875 5.82801C47.2599 5.94778 47.5613 5.92358 47.7607 6.02016C48.0982 6.18363 48.3475 6.4894 48.6849 6.65601C49.3297 6.97428 50.1698 7.06078 50.8622 7.29951C51.6665 7.57685 52.5618 8.00656 52.9475 8.81674C53.9758 10.9763 52.4746 14.8352 51.717 16.9612C51.7945 17.037 51.8674 17.1151 51.9389 17.1965C55.8172 21.6164 58.2532 25.6652 59.8521 31.3772C60.1381 32.4145 60.3908 33.4599 60.61 34.5133C60.8292 35.5667 61.0146 36.6261 61.1662 37.6913C61.5165 40.1383 61.7837 42.6179 61.6946 45.0931C61.6562 46.1615 61.5883 47.2208 61.431 48.2793C61.1948 49.8684 60.7077 51.5473 60.8819 53.1583C61.1743 55.8639 64.0295 56.441 63.8031 59.6383C63.7157 60.8742 63.1157 61.893 62.1921 62.6933C61.1664 63.5819 59.8572 64.1733 58.5648 64.5666C56.9543 65.0564 55.2795 65.271 53.6086 65.4264C49.5557 65.8028 45.5213 65.6648 41.4676 65.3832C38.9545 65.2117 36.4484 64.836 33.9502 64.5221C31.2883 64.174 28.6184 63.9056 25.9405 63.717C21.5505 63.397 17.1436 63.432 12.7533 63.0735C10.707 62.9064 8.63937 62.6755 6.63385 62.2243C5.37704 61.9415 3.26718 61.4376 2.55504 60.2898C2.30039 59.8795 2.24862 59.3498 2.26047 58.8759C2.3395 55.7146 5.62605 55.0773 6.28798 52.2868C6.13591 51.8958 5.98063 51.505 5.8393 51.11C5.37277 49.806 5.16618 48.4559 5.15261 47.0742C5.13495 45.2757 5.38068 43.4971 5.62693 41.7204L6.04128 38.6073C6.4186 35.7799 6.7255 32.948 7.22334 30.1378C7.60941 27.9585 8.0506 25.7599 9.00579 23.7474C10.22 21.1894 12.3153 19.0897 15.0091 18.1314C14.6162 17.163 14.3357 16.1737 14.0572 15.1676C13.9305 14.7098 13.8307 14.2191 13.6662 13.7744C13.5002 13.3259 13.1433 12.9873 12.9658 12.5483C12.791 12.116 12.8146 11.6403 12.9945 11.215C13.4232 10.2014 14.5727 9.55221 15.5393 9.15215C15.7806 7.33457 16.784 6.15408 18.5088 5.58091C19.3546 5.29983 20.2683 5.11938 20.9577 4.51423C21.7588 3.81106 21.7508 2.67606 22.4305 1.88815C23.1937 1.0036 24.2147 0.640354 25.354 0.561876Z" fill="white"/>
<path d="M49.1076 8.08563C49.9491 8.24019 51.1324 8.39797 51.7242 9.07325C51.9252 9.30257 52.082 9.6113 52.0578 9.92338C52.0363 10.2022 51.8647 10.4301 51.6599 10.6079C51.2637 10.9519 50.7305 11.1754 50.2536 11.3871C46.7321 12.9497 42.3669 13.5387 38.5904 14.2084C36.9886 14.4923 35.3798 14.8462 33.765 15.0372C32.5391 15.1822 31.2979 15.2045 30.0663 15.2807C28.5332 15.3755 27.1535 15.5533 25.6029 15.4298C24.4361 15.3369 23.2731 15.1371 22.1167 14.9576C20.9657 14.779 19.7886 14.6178 18.6575 14.3368C17.5304 14.0568 15.1062 13.3024 14.3866 12.4229C14.231 12.2328 14.1228 12.0003 14.1535 11.7497C14.1945 11.4161 14.4331 11.1939 14.6797 10.9947C14.9135 10.819 16.1849 9.96328 16.4052 9.98565C16.4559 9.9908 16.4579 10.0148 16.4854 10.0522C16.4884 10.6027 15.6574 10.7008 15.5302 11.4809C15.4794 11.7927 15.5421 12.0915 15.7313 12.3463C16.4269 13.2836 19.5226 13.7803 20.6689 13.9469C22.2879 14.1824 23.9043 14.3365 25.5295 14.5143C27.0167 14.6769 28.5061 14.8976 30.0056 14.8581C31.5901 14.8163 33.1796 14.4421 34.7417 14.195C37.3914 13.7759 40.0491 13.3775 42.6708 12.8023C44.7382 12.3487 46.7539 11.7705 48.7789 11.1589C49.3277 10.9931 50.4335 10.753 50.8543 10.4234C51.0494 10.2707 51.2127 10.0669 51.2365 9.81265C51.336 8.75111 49.6591 8.74273 49.1322 8.1156C49.1239 8.10568 49.1158 8.09562 49.1076 8.08563Z" fill="#1C1C1C"/>
<path d="M51.9395 11.3426L51.9912 11.3591C52.0519 12.0685 51.4848 13.9257 51.2454 14.6637C51.0842 15.161 50.556 16.9233 50.3314 17.2022C50.0969 17.4934 49.6946 17.7069 49.3666 17.8723C48.2431 18.4389 46.8227 18.8395 45.6195 19.2306C44.7359 19.5178 43.8455 19.8196 42.9499 20.0661C42.484 20.1957 42.016 20.3174 41.5459 20.4313C41.0759 20.5451 40.604 20.651 40.1304 20.7489C39.6568 20.8469 39.1817 20.9369 38.705 21.0188C38.2284 21.1007 37.7505 21.1746 37.2713 21.2405C36.7922 21.3063 36.3121 21.364 35.831 21.4137C35.3499 21.4634 34.8681 21.5049 34.3856 21.5384C33.9032 21.5718 33.4203 21.5971 32.9369 21.6142C32.4536 21.6314 31.9701 21.6404 31.4865 21.6413C29.682 21.628 27.9007 21.4664 26.1042 21.3141C23.5076 21.0938 21.2641 20.9098 18.7598 20.0884C18.1082 19.8747 17.2693 19.5557 16.8314 19.0023C16.5796 18.6841 16.4041 18.2879 16.2215 17.9267C16.1366 17.7607 16.0552 17.593 15.9773 17.4236C15.8994 17.2542 15.825 17.0833 15.7541 16.9109C15.6833 16.7384 15.616 16.5646 15.5523 16.3893C15.4886 16.2141 15.4285 16.0376 15.3722 15.8599C15.3158 15.6822 15.263 15.5034 15.2141 15.3235C15.165 15.1436 15.1197 14.9628 15.0782 14.781C15.0366 14.5993 14.9989 14.4167 14.9649 14.2334C14.9309 14.0501 14.9007 13.8661 14.8743 13.6816C15.1947 13.8255 15.5192 13.9597 15.8476 14.0843C17.5411 14.7222 19.7181 15.3342 21.5142 15.607C22.6105 15.7735 23.7264 15.8484 24.8309 15.9434C26.2035 16.0615 27.5675 16.1624 28.9464 16.1496C30.4347 16.1358 31.896 15.8823 33.3718 15.7244C34.4236 15.6118 35.4748 15.5353 36.5234 15.3892C38.307 15.1405 40.076 14.7832 41.8435 14.4409C44.0102 14.0212 46.2089 13.5517 48.3015 12.8427C49.5552 12.4181 50.7357 11.8884 51.9395 11.3426Z" fill="#1C1C1C"/>
<path d="M25.4981 1.72154C26.5406 1.67374 27.471 2.00885 28.4132 2.40616C28.8659 2.59703 29.3136 2.79011 29.805 2.85459C30.369 2.9286 30.9912 2.72571 31.5488 2.62847C32.5548 2.45301 33.6424 2.26442 34.6665 2.33733C36.6874 2.48119 37.6639 4.06752 39.5968 4.32055C41.0551 4.51147 42.5368 3.74503 44.0186 3.73552C44.6187 3.73167 45.4239 3.84898 45.8608 4.30414C46.4259 4.89285 45.9369 5.527 45.93 6.17438C45.9182 7.28791 47.0742 6.81199 47.6273 7.26832C48.1122 7.66844 48.0498 8.35867 48.4905 8.77846C48.9046 9.17291 49.6809 9.21132 50.0233 9.60964C50.0806 9.67622 50.0826 9.70864 50.0704 9.79224C49.5923 10.3743 44.2484 11.7845 43.1898 12.0315C42.2139 12.2591 41.2312 12.4523 40.2418 12.6112C37.6199 13.0716 34.9903 13.4839 32.3532 13.848C31.7139 13.9451 31.0715 14.0126 30.426 14.0503C29.7805 14.0881 29.1346 14.0959 28.4884 14.0739C27.2666 14.0228 26.0573 13.8696 24.8464 13.706C23.6508 13.5535 22.4584 13.3792 21.2691 13.1832C20.3943 13.0305 19.5296 12.8338 18.6579 12.6674C18.0507 12.5513 16.8891 12.4951 16.4202 12.1245C16.3088 12.0364 16.2213 11.9207 16.2138 11.7742C16.1893 11.3001 17.0178 11.0235 17.2952 10.7084C17.8628 10.0638 16.9872 9.61345 16.9386 8.89415C16.9182 8.59277 16.9968 8.29138 17.1256 8.02055C17.6727 6.86993 19.0198 6.74967 20.085 6.33702C20.6746 6.10861 21.2445 5.80601 21.7004 5.36066C22.1845 4.88779 22.4706 4.30915 22.7234 3.69069C22.8825 3.30153 23.0268 2.89231 23.3125 2.5745C23.8495 1.97701 24.7312 1.77582 25.4981 1.72154Z" fill="#1C1C1C"/>
<path d="M28.4161 11.1252C28.5544 11.1132 28.7327 11.0811 28.8658 11.1302C28.9791 11.1719 29.1042 11.2519 29.1414 11.3739C29.1668 11.4572 29.1455 11.5501 29.1024 11.6234C28.9659 11.8557 28.7164 11.8847 28.4767 11.9381C28.3117 11.938 28.1314 11.9363 27.9741 11.881C27.8813 11.8484 27.794 11.7809 27.7585 11.6877C27.7364 11.6295 27.7479 11.554 27.7769 11.4993C27.8985 11.2701 28.1843 11.1903 28.4161 11.1252Z" fill="white"/>
<path d="M44.1923 8.83881C44.4019 8.82753 44.6381 8.81212 44.8392 8.88244C44.9434 8.91892 45.0741 8.9886 45.1107 9.10132C45.1335 9.17145 45.1226 9.22662 45.0907 9.28979C45.0006 9.46761 44.7363 9.57273 44.5587 9.62816C44.4007 9.64492 44.2349 9.67289 44.0768 9.64576C43.9452 9.62307 43.7636 9.54934 43.6962 9.42475C43.6562 9.35076 43.6416 9.28199 43.6746 9.20155C43.7545 9.00638 44.0073 8.89727 44.1923 8.83881Z" fill="white"/>
<path d="M31.5495 6.09525C31.701 6.08749 31.8649 6.08024 32.0123 6.1202C32.1362 6.15377 32.2773 6.23531 32.334 6.35608C32.3683 6.42893 32.3667 6.51233 32.3351 6.58561C32.2501 6.78329 32.0111 6.87952 31.8222 6.94139C31.6205 6.96195 31.4187 6.95667 31.2331 6.86508C31.1141 6.8063 30.9925 6.70769 30.9633 6.57124C30.9475 6.49725 30.9674 6.42534 31.0086 6.36349C31.1221 6.19319 31.3637 6.13887 31.5495 6.09525Z" fill="white"/>
<path d="M35.5264 4.00035C35.629 3.99639 35.7389 4.00072 35.8384 4.02791C36.0852 4.09535 36.3875 4.28734 36.5085 4.51959C36.5515 4.60206 36.5666 4.69147 36.5254 4.7779C36.4605 4.91384 36.3427 4.93461 36.2096 4.96986C36.0426 4.97652 35.8809 4.97186 35.7229 4.9102C35.526 4.83337 35.2544 4.64429 35.188 4.43087C35.1627 4.3492 35.1569 4.2765 35.2025 4.20031C35.2787 4.0728 35.3898 4.03497 35.5264 4.00035Z" fill="white"/>
<path d="M42.7811 4.96632C42.92 4.95475 43.1052 4.9349 43.2409 4.96981C43.3448 4.99655 43.3896 5.04516 43.4386 5.13631C43.4484 5.22381 43.4436 5.28159 43.4072 5.36307C43.2884 5.62832 43.0087 5.8281 42.7428 5.92329C42.6014 5.95248 42.4414 5.96644 42.2989 5.93589C42.2154 5.91798 42.1355 5.86761 42.1005 5.78716C42.054 5.68036 42.0924 5.54912 42.1441 5.45139C42.2853 5.18468 42.503 5.05603 42.7811 4.96632Z" fill="white"/>
<path d="M19.8889 9.47873C20.0188 9.46384 20.1616 9.45836 20.2909 9.47737C20.4494 9.50077 20.6276 9.58694 20.7194 9.72268C20.7751 9.80505 20.795 9.90573 20.7622 10.0019C20.691 10.2101 20.4532 10.305 20.2672 10.3789C20.1316 10.4183 19.9665 10.4382 19.8268 10.413C19.6877 10.3878 19.5475 10.316 19.4721 10.1924C19.4138 10.0967 19.4061 9.99036 19.4392 9.88433C19.5064 9.66886 19.7023 9.57244 19.8889 9.47873Z" fill="white"/>
<path d="M36.4654 9.05906C36.6519 9.04565 36.8423 9.03985 37.0232 9.09489C37.2652 9.1685 37.5657 9.35193 37.6753 9.59028C37.7159 9.67858 37.7153 9.76443 37.6694 9.8508C37.62 9.94393 37.516 9.96243 37.4233 9.98899C37.3458 10.0005 37.2645 10.0078 37.1864 10.0022C36.8881 9.98074 36.5127 9.83932 36.3139 9.60691C36.2501 9.53233 36.2066 9.43765 36.2289 9.33756C36.2583 9.20614 36.3583 9.12725 36.4654 9.05906Z" fill="white"/>
<path d="M25.1607 6.28696C25.3215 6.27426 25.5186 6.27298 25.6708 6.33119C25.7551 6.36339 25.7968 6.4072 25.8367 6.48754C25.8428 6.57327 25.8387 6.6296 25.7975 6.70675C25.6343 7.01206 25.3051 7.13459 24.9959 7.23217C24.851 7.25441 24.5901 7.27142 24.4579 7.20078C24.3769 7.1574 24.3646 7.12195 24.3336 7.04242C24.3383 6.96939 24.3466 6.91667 24.3809 6.85099C24.5397 6.54716 24.8481 6.38605 25.1607 6.28696Z" fill="white"/>
<path d="M49.1492 18.723L49.2025 18.7563C49.512 19.503 49.7178 20.3548 49.8964 21.143C50.6409 24.428 50.2005 27.252 48.3993 30.0997C46.9794 32.3446 44.9163 34.2691 42.2588 34.8592C38.876 35.6103 36.3504 33.128 33.6639 31.554C32.3344 30.7751 30.8998 30.1667 29.3896 29.847C29.0903 29.7844 28.7894 29.7315 28.4867 29.6884C28.184 29.6452 27.8803 29.6119 27.5755 29.5885C27.2707 29.565 26.9655 29.5514 26.6597 29.5477C26.3541 29.544 26.0486 29.5502 25.7433 29.5663C24.6001 29.6235 23.4709 29.7621 22.3354 29.8976C20.1442 30.1589 17.1672 30.6616 15.2133 29.4044C13.5708 28.3476 12.3782 26.367 11.9812 24.4738C11.7522 23.382 11.77 22.0286 12.4115 21.0702C13.1228 20.0074 14.6977 19.4841 15.8984 19.2504C16.2563 19.7323 16.569 19.9855 17.1149 20.2377C16.5336 21.841 14.4835 22.0605 14.2191 23.2976C14.1983 23.3945 14.2134 23.452 14.2693 23.531C14.3621 23.568 14.4276 23.5694 14.5214 23.5381C15.1741 23.3204 16.7633 21.8436 17.22 21.2649C17.4219 21.009 17.5636 20.7344 17.7064 20.4433C18.7745 20.8626 19.8828 21.137 21.0045 21.3699C22.1179 21.5925 23.2384 21.7131 24.3567 21.8967C23.5918 23.2349 22.6431 24.7948 21.5889 25.9175C21.2685 26.2535 20.9232 26.5613 20.5527 26.8412C20.332 27.0065 20.0695 27.1576 19.8733 27.3487C19.8046 27.4156 19.7658 27.4736 19.7331 27.5632C19.7399 27.639 19.7386 27.6794 19.8013 27.7337C19.8456 27.772 19.9009 27.7813 19.9573 27.7817C20.1852 27.7828 20.544 27.526 20.7423 27.4037C22.2833 26.4533 23.0265 25.1827 23.9296 23.6865C24.3107 23.055 24.7187 22.4292 25.2454 21.9082C28.4301 22.1441 31.4469 22.3651 34.6528 22.2315C34.9186 23.0853 35.1041 23.965 35.3306 24.8297C35.8221 26.7064 36.5821 28.4942 37.9811 29.8822C38.2407 30.1398 39.0238 30.9018 39.4293 30.8438C39.5118 30.832 39.5338 30.7895 39.5804 30.7291C39.5475 30.4265 38.6789 29.7013 38.4379 29.4493C38.2439 29.2447 38.0572 29.0335 37.8779 28.8157C37.5867 28.4687 37.3457 28.1013 37.1115 27.7142C36.0801 26.0094 35.8118 24.1132 35.3586 22.2141C36.4181 22.1255 37.4721 21.9933 38.5207 21.8175C39.5692 21.6417 40.6087 21.4229 41.6392 21.1612C42.2594 21.4412 42.8372 21.7889 43.3281 22.2639C43.6465 22.5779 43.937 22.9158 44.1996 23.2778C44.7288 23.9949 45.3455 25.1785 46.2379 25.4729C46.4155 25.5315 46.615 25.5739 46.7897 25.4885C46.817 25.4312 46.8387 25.4165 46.8216 25.3504C46.773 25.1611 46.0978 24.7324 45.8907 24.5366C45.098 23.7867 44.704 22.7193 43.9509 21.9286C43.5584 21.5165 43.123 21.194 42.6368 20.9023C43.2843 20.723 43.941 20.5614 44.5812 20.3579C46.1183 19.8694 47.6337 19.2756 49.1492 18.723Z" fill="#1C1C1C"/>
<path d="M50.7189 17.8779C51.1964 18.2019 52.0774 19.2962 52.4666 19.7622C55.582 23.4921 57.6749 27.6515 58.866 32.3616C59.9319 36.5773 61.3002 44.2449 60.0924 48.3545C59.5348 50.252 58.1958 52.3071 56.9003 53.7917C56.2429 54.5518 55.5456 55.2732 54.8082 55.956C54.4067 56.3317 52.654 57.757 52.4922 58.0276L52.5067 58.0757C52.6021 58.117 52.6743 58.1102 52.7738 58.0908C55.1224 57.6317 58.2727 53.0354 59.5555 51.1192C59.5577 52.3437 59.5905 53.8773 60.1455 54.9873C60.3928 55.4819 60.7445 55.9215 61.0936 56.3472C61.5454 56.8984 62.0269 57.435 62.3283 58.0882C62.6517 58.789 62.7237 59.5825 62.4508 60.3124C61.9712 61.5955 60.7283 62.3927 59.538 62.9405C57.4247 63.9133 55.1294 64.096 52.8355 64.1741C51.6406 64.2174 50.4453 64.232 49.2497 64.2179C45.4536 64.2142 41.6652 64.0421 37.8843 63.7017C35.3443 63.4591 32.8205 63.112 30.2878 62.8103C28.0968 62.5508 25.9016 62.3357 23.7019 62.1651C21.0871 61.965 18.4591 61.8919 15.8392 61.7803C12.7662 61.6494 9.63537 61.5145 6.62367 60.8522C5.94115 60.7022 5.24472 60.5395 4.58827 60.2976C4.53425 60.2773 4.4808 60.2556 4.42793 60.2325C4.0241 60.0555 3.60689 59.8175 3.44772 59.3796C2.86473 57.7758 5.24033 56.0685 6.1784 55.0276C6.64255 54.5126 7.00542 53.9652 7.29823 53.337C7.54979 53.8678 7.94379 54.4 8.29648 54.8707C9.28158 56.1858 10.5774 57.3399 12.1294 57.9224C12.6732 58.1265 13.2321 58.252 13.7963 58.3825C14.3633 58.5138 14.9297 58.6498 15.5062 58.7326C14.6816 57.7184 13.2477 57.5122 12.0948 57.0365C11.8222 56.9227 11.5572 56.7933 11.2999 56.6483C11.0425 56.5032 10.7946 56.3436 10.5561 56.1693C9.79908 55.6245 9.11691 54.902 8.58381 54.1348C8.1347 53.4884 7.82726 52.7522 7.49649 52.0413C7.24093 51.492 6.96791 50.9497 6.76714 50.3772C6.68906 50.1561 6.62137 49.9318 6.56405 49.7044C6.50677 49.477 6.46007 49.2475 6.42396 49.0158C6.12931 47.1407 6.42353 45.1354 6.68515 43.273C6.91596 41.6305 7.1933 39.9934 7.41328 38.3496C7.92781 34.5045 8.24659 30.3651 9.26031 26.6252C9.65354 25.1747 10.2005 23.7427 11.0916 22.5202C11.0573 23.4471 11.1107 24.3042 11.3744 25.2001C11.7993 26.6432 12.6511 28.1095 13.7504 29.1446C16.4772 31.7121 19.3466 31.0064 22.6374 30.4738C24.483 30.1751 26.4297 29.9308 28.2863 30.2708C30.6227 30.6986 32.5911 31.6789 34.562 32.9696C35.443 33.5466 36.303 34.1611 37.2294 34.6647C39.0842 35.6731 41.0936 36.0274 43.1475 35.412C45.8221 34.6105 47.9137 32.4219 49.2082 30.0154C49.9866 28.5684 50.678 26.8894 50.8546 25.2446C51.0921 23.0321 50.4123 20.5564 49.783 18.4602C50.1081 18.2873 50.4201 18.0932 50.7189 17.8779Z" fill="#1C1C1C"/>
<path d="M58.1172 58.6437C58.1278 58.6528 58.1388 58.6619 58.147 58.6731C58.2041 58.7506 58.2107 58.8782 58.2066 58.9712C58.1871 59.4044 57.8632 59.8532 57.5548 60.1384C56.9535 60.6946 56.1501 60.8988 55.3497 60.8642C55.2912 60.8393 55.3153 60.8591 55.2792 60.803C55.4573 60.5345 56.519 60.0356 56.8371 59.8336C57.3243 59.5241 57.6533 59.0444 58.0844 58.6715L58.1172 58.6437Z" fill="white"/>
<path d="M8.51782 57.1166C9.13225 57.2105 9.66174 57.869 10.1956 58.1767C10.6273 58.4256 11.0976 58.5866 11.5637 58.7568C11.818 58.8497 12.1121 58.9328 12.3363 59.0872C12.5101 59.2067 12.5941 59.3037 12.6326 59.5121C11.678 59.6366 10.7894 59.3738 9.9744 58.8739C9.30293 58.462 8.70835 57.9023 8.51782 57.1166Z" fill="white"/>
<path d="M56.9996 57.9742L57.0324 57.9843C57.0783 58.0372 57.0939 58.0664 57.0898 58.1425C57.0671 58.5708 56.0663 59.3445 55.7409 59.57C53.9842 60.7872 50.307 62.3346 48.1658 61.9528C48.0865 61.9152 48.0615 61.91 48.0142 61.8379C48.0169 61.8293 48.0184 61.8204 48.0223 61.8123C48.1741 61.4996 49.4267 61.2519 49.7635 61.2042C50.3798 61.1169 51.0144 61.0364 51.6094 60.8447C52.8068 60.4588 53.9742 59.8516 55.0318 59.1775C55.6499 58.7836 56.2866 58.3015 56.952 57.9958L56.9996 57.9742Z" fill="white"/>
<path d="M53.7441 27.0238C54.0014 27.1602 54.2109 27.6504 54.3368 27.9048C55.3995 30.0528 55.7894 33.41 56.0918 35.7952C56.2265 36.8575 56.4047 37.9155 56.5043 38.982C56.6726 40.782 56.6946 42.613 56.6381 44.4192C56.6114 45.2727 56.5874 46.144 56.4508 46.988C56.3859 47.3888 56.2837 47.7706 56.1545 48.1551C56.1078 48.2788 56.0576 48.4041 55.9555 48.4913L55.8993 48.4828C55.8912 48.4703 55.8826 48.4581 55.8751 48.4453C55.6209 48.0114 55.8973 45.1805 55.9273 44.5853C55.9564 43.9798 55.9737 43.374 55.9792 42.7679C55.9834 42.0426 55.9714 41.3176 55.9433 40.5929C55.9151 39.8681 55.8707 39.1443 55.8102 38.4216C55.7497 37.6988 55.6731 36.9778 55.5803 36.2585C55.4875 35.5391 55.3787 34.8222 55.254 34.1077C54.98 32.466 54.6175 30.8309 54.2292 29.2128C54.0788 28.586 53.8681 27.9652 53.7421 27.334C53.7196 27.2212 53.7176 27.136 53.7441 27.0238Z" fill="white"/>
<path d="M42.7104 25.5C42.8133 25.5125 42.877 25.5291 42.9625 25.5889C44.2018 26.4564 45.5403 28.2928 46.0648 29.6864C46.2491 30.1758 46.3476 30.6602 46.432 31.1736C46.767 30.107 47.296 28.962 48.0416 28.1116C48.1411 27.9979 48.237 27.8955 48.3947 27.8836C48.4653 27.9079 48.5072 27.9333 48.5527 27.9941C48.733 28.2358 48.8277 28.6207 48.9297 28.9071C49.5475 30.642 49.7804 32.3566 49.5471 34.1917C49.8762 33.9394 50.7143 33.2005 51.0698 33.144C51.163 33.174 51.2185 33.2004 51.2641 33.2917C51.346 33.4554 51.3526 33.7178 51.382 33.8995C51.6269 35.4133 51.4473 36.9306 51.0071 38.3896C51.3234 38.1286 51.6687 37.8947 52.019 37.6811C52.22 37.5585 52.5098 37.3563 52.7545 37.4148C52.8294 37.4697 52.86 37.5246 52.8859 37.6119C52.965 37.8786 52.9379 38.2326 52.9412 38.5126C52.9605 40.1863 52.6361 41.9188 51.8356 43.4008C52.2274 43.166 53.4786 42.4244 53.9108 42.4826C53.9653 42.524 53.989 42.5396 54.014 42.6062C54.0904 42.8096 54.0387 43.1297 54.0241 43.3477C53.9208 44.8979 53.4256 46.3421 52.7535 47.73C53.0848 47.5829 54.1574 46.9992 54.4957 47.072C54.5783 47.0898 54.6261 47.1256 54.6646 47.2002C54.8628 47.5843 54.4573 49.1273 54.3174 49.5322C53.7183 51.2669 52.5359 52.9363 50.9598 53.9142C50.5007 54.199 49.9985 54.3988 49.5142 54.6353C49.3378 55.1577 48.7059 56.8642 48.4229 57.2099C48.3706 57.2737 48.3194 57.3114 48.2362 57.3204C47.9344 57.3531 47.6583 57.0712 47.4387 56.8961C47.3112 56.796 47.0936 56.643 47.0506 56.479C47.0285 56.395 47.0428 56.339 47.077 56.263C47.2609 55.853 47.9214 55.0369 48.2034 54.6054C46.6457 54.0415 45.4262 53.328 44.236 52.1588C43.318 51.2571 42.497 50.0631 42.0177 48.8681C41.9297 48.6487 41.8086 48.3776 41.8164 48.1372C41.8197 48.034 41.8536 47.9889 41.9264 47.92C42.1571 47.9051 42.4134 47.9853 42.6437 48.0197C43.1734 48.094 43.7026 48.1719 44.2312 48.2532C43.8327 47.8335 43.4169 47.4172 43.0549 46.9649C42.5594 46.3458 41.286 44.3832 41.3062 43.625C41.3091 43.5145 41.3438 43.4628 41.4213 43.3883C41.7338 43.4305 42.0471 43.5398 42.3578 43.6032C42.9526 43.7245 43.5656 43.8064 44.1488 43.9746C43.7069 43.588 43.2771 43.1938 42.8791 42.7616C42.7791 42.6546 42.6815 42.5454 42.5864 42.4341C42.4913 42.3228 42.3988 42.2093 42.3088 42.0938C42.2188 41.9784 42.1314 41.861 42.0466 41.7415C41.9618 41.6222 41.8798 41.501 41.8004 41.3779C41.7211 41.2549 41.6445 41.1301 41.5707 41.0036C41.4969 40.8772 41.426 40.7491 41.358 40.6195C41.2899 40.4898 41.2248 40.3587 41.1626 40.2261C41.1004 40.0936 41.0412 39.9597 40.985 39.8245C40.9036 39.6251 40.778 39.3765 40.7969 39.1576C40.8044 39.0709 40.8346 39.0212 40.8992 38.9636C41.5206 38.9949 42.4357 39.2366 43.058 39.373C42.9544 39.276 42.8513 39.1785 42.7487 39.0804C41.6216 38.0054 40.7623 36.8975 40.1589 35.4496C40.0653 35.2249 39.8971 34.908 39.9069 34.6621C39.9101 34.5814 39.9312 34.5535 39.988 34.5002C40.3326 34.4448 41.0436 34.6889 41.4084 34.7787C41.0639 34.385 40.7286 33.9804 40.4306 33.5499C39.8229 32.6724 39.3388 31.627 39.0871 30.5861C39.0405 30.3939 38.9668 30.1275 39.0166 29.931C39.0372 29.8501 39.0652 29.8271 39.1347 29.7868C39.8147 29.8343 42.1235 30.9 42.7951 31.2427C42.6508 30.6853 42.5053 30.1259 42.4221 29.5555C42.3514 29.0672 42.313 28.5765 42.307 28.0832C42.3027 27.5386 42.401 25.9126 42.7104 25.5Z" fill="white"/>
<path d="M48.4308 41.7495C48.4435 41.7659 48.464 41.7786 48.4689 41.7988C48.4944 41.9034 48.2663 42.6225 48.2308 42.7904C48.1846 43.0099 48.1508 43.2252 48.1317 43.4486L47.9958 43.1172C47.8757 42.853 47.7614 42.5864 47.6528 42.3172C47.9226 42.1482 48.1764 41.9413 48.4308 41.7495Z" fill="#1C1C1C"/>
<path d="M48.7573 54.6482L48.8922 54.6925L48.9142 54.7433C48.7314 55.2104 48.3807 56.2783 48.1674 56.6355C48.0681 56.6269 48.0026 56.5694 47.9203 56.5167C47.8193 56.4466 47.7126 56.3656 47.6829 56.2392C47.6778 56.2176 48.6355 54.8298 48.7573 54.6482Z" fill="#1C1C1C"/>
<path d="M48.3023 46.181C48.5371 46.3196 48.7581 46.5585 48.9773 46.7298C48.8083 47.1251 48.6699 47.5176 48.5648 47.9347L48.5285 48.0665L48.501 48.0601C48.3305 47.6314 48.1938 47.1778 48.0388 46.742C48.1229 46.5532 48.2107 46.3662 48.3023 46.181Z" fill="#1C1C1C"/>
<path d="M42.9892 26.2987C43.3895 26.5381 43.7882 27.0132 44.0946 27.3679C45.0274 28.448 45.619 29.6606 45.9497 31.043C46.0281 31.3707 46.1169 31.7059 46.119 32.0448C46.121 32.3722 46.0596 32.7106 46.0197 33.0358C45.9673 33.4446 45.9272 33.8547 45.8997 34.266L45.8694 34.2708C45.6533 34.1343 45.232 33.4351 45.0288 33.2036C44.7904 32.9318 44.5374 32.6628 44.2707 32.4192C44.0337 32.2027 43.7282 32.0027 43.5412 31.7413C43.3692 31.5012 43.2796 31.1753 43.1941 30.8962C42.7345 29.3956 42.7395 27.836 42.9892 26.2987Z" fill="#1C1C1C"/>
<path d="M50.8582 33.7939L50.8809 33.8177C51.165 34.7122 50.9737 36.6138 50.7444 37.5023C50.7304 37.5574 50.7157 37.6123 50.7003 37.6671C50.6849 37.7218 50.6689 37.7764 50.6522 37.8307C50.6354 37.8851 50.6181 37.9392 50.6 37.9931C50.582 38.047 50.5633 38.1007 50.5439 38.1542C50.5245 38.2077 50.5045 38.2608 50.4837 38.3138C50.463 38.3668 50.4417 38.4195 50.4197 38.4719C50.3977 38.5243 50.375 38.5765 50.3517 38.6284C50.3285 38.6802 50.3045 38.7318 50.2799 38.7831C50.2554 38.8344 50.2302 38.8854 50.2043 38.936C50.1785 38.9867 50.1521 39.037 50.125 39.087C50.0979 39.137 50.0702 39.1867 50.0419 39.236C50.0136 39.2853 49.9847 39.3343 49.9552 39.3829C49.9257 39.4315 49.8956 39.4798 49.8649 39.5276C49.8342 39.5755 49.8029 39.623 49.771 39.67C49.7391 39.7171 49.7067 39.7638 49.6736 39.8101C49.6406 39.8564 49.6071 39.9023 49.5729 39.9477C49.5387 39.9932 49.504 40.0382 49.4687 40.0828C49.4334 40.1274 49.3976 40.1715 49.3612 40.2153C49.3248 40.259 49.2879 40.3022 49.2505 40.345C49.2131 40.3878 49.1751 40.4301 49.1366 40.472C49.0981 40.5139 49.0591 40.5553 49.0196 40.5961C48.9801 40.637 48.9401 40.6775 48.8996 40.7174C48.8591 40.7573 48.8181 40.7967 48.7766 40.8356C48.7351 40.8745 48.6932 40.9128 48.6508 40.9507C48.6083 40.9885 48.5654 41.0259 48.5221 41.0627C48.4787 41.0995 48.4349 41.1357 48.3906 41.1714C48.3464 41.2072 48.3017 41.2423 48.2566 41.277C48.2115 41.3115 48.166 41.3456 48.12 41.379C48.074 41.4126 48.0277 41.4455 47.9809 41.4778C47.9341 41.5101 47.8869 41.5419 47.8394 41.573C47.7918 41.6042 47.7439 41.6348 47.6956 41.6648C47.6472 41.6948 47.5985 41.7241 47.5495 41.7529C47.539 41.742 47.5266 41.7326 47.5181 41.7201C47.2515 41.3275 47.4336 39.4688 47.5125 39.0264C47.5241 38.961 47.5365 38.8958 47.5496 38.8307C47.5628 38.7656 47.5768 38.7007 47.5916 38.636C47.6064 38.5713 47.622 38.5067 47.6383 38.4424C47.6547 38.378 47.6719 38.3139 47.6898 38.25C47.7078 38.186 47.7265 38.1223 47.746 38.0589C47.7655 37.9954 47.7858 37.9322 47.8069 37.8693C47.828 37.8063 47.8498 37.7436 47.8724 37.6812C47.8951 37.6187 47.9184 37.5566 47.9426 37.4947C47.9667 37.4329 47.9916 37.3714 48.0173 37.3101C48.0429 37.2488 48.0694 37.1879 48.0965 37.1273C48.1237 37.0667 48.1516 37.0065 48.1802 36.9466C48.2089 36.8867 48.2382 36.8272 48.2683 36.768C48.2984 36.7088 48.3293 36.65 48.3608 36.5916C48.3923 36.5332 48.4246 36.4751 48.4575 36.4175C48.4905 36.3598 48.5242 36.3026 48.5586 36.2458C48.593 36.189 48.6281 36.1326 48.6638 36.0767C48.6996 36.0208 48.736 35.9653 48.7732 35.9103C48.8103 35.8552 48.8481 35.8006 48.8866 35.7465C48.9251 35.6924 48.9642 35.6388 49.004 35.5856C49.0438 35.5325 49.0843 35.4798 49.1253 35.4276C49.1664 35.3755 49.2081 35.3238 49.2505 35.2727C49.2929 35.2216 49.3359 35.171 49.3795 35.1209C49.423 35.0708 49.4673 35.0213 49.5121 34.9723C49.5569 34.9234 49.6024 34.8749 49.6484 34.8271C49.6943 34.7792 49.7409 34.7319 49.7881 34.6851C49.8353 34.6384 49.883 34.5923 49.9314 34.5468C49.9797 34.5012 50.0285 34.4563 50.0779 34.4119C50.1274 34.3676 50.1773 34.3238 50.2278 34.2807C50.2783 34.2376 50.3293 34.1951 50.3809 34.1533C50.4324 34.1114 50.4844 34.0701 50.537 34.0296C50.5895 33.989 50.6426 33.949 50.6961 33.9098C50.7497 33.8705 50.8037 33.8319 50.8582 33.7939Z" fill="#1C1C1C"/>
<path d="M39.5889 30.4526C39.7765 30.5022 39.9627 30.5568 40.1474 30.6166C40.332 30.6763 40.5149 30.7411 40.696 30.8109C40.8772 30.8806 41.0562 30.9553 41.2333 31.0349C41.4103 31.1145 41.585 31.1989 41.7574 31.288C41.9298 31.3772 42.0996 31.471 42.2669 31.5694C42.4342 31.6679 42.5986 31.7709 42.7602 31.8783C42.9218 31.9858 43.0804 32.0976 43.2359 32.2138C43.3914 32.33 43.5436 32.4503 43.6925 32.5748C44.4651 33.2338 45.7112 34.6097 45.8961 35.6391C45.9726 36.0655 45.9058 36.5618 45.9399 37.0026C45.4152 36.6941 44.9715 36.2331 44.4399 35.9183C43.8278 35.5558 43.1776 35.3838 42.6168 35.0615C41.637 34.4984 40.6418 33.1143 40.1658 32.0966C39.9174 31.5654 39.7456 31.0158 39.5889 30.4526Z" fill="#1C1C1C"/>
<path d="M40.5461 35.0669C40.9271 35.1172 41.3115 35.2314 41.6817 35.3322C43.1537 35.7331 44.5895 36.3377 45.6571 37.4695C46.828 38.7107 46.976 39.6855 46.9338 41.3239C46.5567 41.0965 46.2152 40.8143 45.8415 40.5829C45.2445 40.2132 44.6054 39.9221 44.0243 39.5232C42.4898 38.47 41.2134 36.7952 40.5461 35.0669Z" fill="#1C1C1C"/>
<path d="M52.4081 38.0823C52.4359 38.1228 52.4267 38.1021 52.4383 38.1652C52.4933 38.4644 52.4608 38.8125 52.4469 39.1166C52.3724 40.7567 51.9129 42.4142 51.0067 43.7919C50.4468 44.643 49.7228 45.3744 49.1423 46.2134C49.017 46.1271 48.8981 46.0299 48.7775 45.9371C48.7351 45.8837 48.6939 45.826 48.6613 45.7662C48.2319 44.9788 48.4911 43.4283 48.7235 42.608C49.309 40.5413 50.5521 39.1178 52.4081 38.0823Z" fill="#1C1C1C"/>
<path d="M41.4177 39.5226C41.4325 39.524 41.4472 39.5252 41.4619 39.527C43.5195 39.7759 45.7727 40.6243 47.0389 42.3359C47.8701 43.4596 48.0293 44.5871 47.8213 45.9368L47.7958 45.9952C47.7662 45.9921 47.7534 45.9928 47.7232 45.9785C47.4496 45.8482 46.8217 45.2808 46.5068 45.0596C45.9699 44.6826 45.416 44.3276 44.8935 43.9307C43.3826 42.7829 42.0958 41.3144 41.4177 39.5226Z" fill="#1C1C1C"/>
<path d="M53.4667 43.1404L53.5448 43.1589C53.6161 43.5184 53.4303 44.2451 53.359 44.6135C53.1367 45.764 52.5884 47.307 51.8082 48.1841C51.5054 48.5246 51.1246 48.8131 50.7889 49.1221C50.1565 49.7043 49.6957 50.3519 49.2603 51.0847C49.206 51.176 49.1562 51.2681 49.0496 51.2948L48.9518 51.2077C48.893 51.114 48.8308 51.0186 48.7861 50.9172C48.4252 50.0999 48.9466 48.0851 49.2548 47.3063C50.059 45.2743 51.494 43.9975 53.4667 43.1404Z" fill="#1C1C1C"/>
<path d="M41.9355 43.9611C42.4824 44.1346 43.068 44.2191 43.6274 44.3514C45.1657 44.7151 46.4717 45.4395 47.4077 46.7391C48.1906 47.8259 48.4427 49.1702 48.2233 50.4817L48.1653 50.5133C47.7845 50.3001 47.3098 49.7543 46.9033 49.4678C46.3849 49.1025 45.8045 48.8324 45.2862 48.4571C43.8345 47.4056 42.483 45.6593 41.9355 43.9611Z" fill="#1C1C1C"/>
<path d="M48.2608 28.6278C48.3224 28.6615 48.3323 28.693 48.3635 28.7557C48.5066 29.0429 48.5959 29.375 48.6915 29.6811C49.21 31.3421 49.4666 33.4397 48.7183 35.0672C48.5264 35.4845 48.244 35.879 48.0101 36.2753C47.8141 36.6037 47.6349 36.941 47.4723 37.2872C47.3098 37.6333 47.1647 37.9866 47.0371 38.3471C47.0168 38.4197 46.9974 38.473 46.956 38.5362L46.9073 38.5313C46.6067 38.2364 46.4298 37.0603 46.3809 36.6283C46.0642 33.8281 46.458 30.8871 48.2608 28.6278Z" fill="#1C1C1C"/>
<path d="M54.1682 47.6865C54.1961 47.6941 54.1767 47.6866 54.2129 47.7302C54.2032 48.1621 54.0497 48.6433 53.9279 49.0582C53.3383 51.0679 52.0868 52.7527 50.2299 53.757C49.4694 54.1683 49.0704 54.3057 48.2164 54.05C45.8452 53.34 44.0091 51.566 42.8502 49.4268C42.6914 49.1308 42.5569 48.8242 42.4468 48.5069C43.5057 48.5967 44.5988 48.8032 45.5716 49.2384C47.2331 49.9814 48.3903 51.3565 49.0307 53.0393C49.1181 52.5434 49.3286 52.0258 49.5473 51.574C50.5054 49.5945 52.1298 48.4003 54.1682 47.6865Z" fill="#1C1C1C"/>
</g>
<defs>
<clipPath id="clip0_107_4629">
<rect width="66" height="66" rx="10" fill="white"/>
</clipPath>
</defs>
</svg>
