<svg width="68" height="68" viewBox="0 0 68 68" fill="none" xmlns="http://www.w3.org/2000/svg">
<rect width="68" height="68" rx="12" fill="#1C1C1C"/>
<path d="M57.1698 26.2526C58.8863 26.2697 60.5964 26.797 61.8778 27.9728C63.3255 29.3012 64.0505 31.1127 64.1278 33.0566C64.3433 38.4357 59.4353 44.5269 55.9886 48.2539C51.8565 52.7221 46.8045 57.0199 41.3671 59.8104C39.3284 60.8566 37.1401 61.7773 34.823 61.8683C34.7683 61.8685 34.7135 61.868 34.6588 61.8669C34.6041 61.8659 34.5494 61.8642 34.4947 61.8618C34.44 61.8595 34.3854 61.8565 34.3307 61.8529C34.2761 61.8493 34.2216 61.845 34.1671 61.8401C34.1126 61.8353 34.0581 61.8298 34.0037 61.8236C33.9493 61.8175 33.895 61.8107 33.8408 61.8033C33.7865 61.7959 33.7324 61.7879 33.6784 61.7792C33.6243 61.7705 33.5704 61.7612 33.5165 61.7513C33.4627 61.7414 33.409 61.7309 33.3554 61.7197C33.3018 61.7086 33.2484 61.6968 33.195 61.6844C33.1418 61.672 33.0886 61.659 33.0356 61.6454C32.9826 61.6317 32.9297 61.6175 32.877 61.6026C32.8244 61.5878 32.7719 61.5723 32.7195 61.5562C32.6672 61.5402 32.6151 61.5235 32.5631 61.5062C32.5112 61.4889 32.4595 61.471 32.408 61.4526C32.3565 61.4341 32.3052 61.415 32.2541 61.3954C32.203 61.3757 32.1521 61.3554 32.1015 61.3345C32.0509 61.3137 32.0006 61.2923 31.9504 61.2703C31.9004 61.2482 31.8505 61.2256 31.8009 61.2024C31.7514 61.1793 31.702 61.1555 31.653 61.1312C31.604 61.1069 31.5552 61.082 31.5067 61.0565C31.4583 61.0311 31.4101 61.0051 31.3623 60.9785C31.3145 60.9519 31.2669 60.9248 31.2197 60.8971C31.1724 60.8694 31.1255 60.8412 31.079 60.8125C31.0324 60.7837 30.9862 60.7544 30.9403 60.7246C30.8944 60.6948 30.8489 60.6644 30.8037 60.6335C30.7585 60.6026 30.7137 60.5712 30.6692 60.5393C30.6248 60.5074 30.5807 60.4749 30.537 60.442C30.4933 60.409 30.45 60.3756 30.407 60.3416C30.3641 60.3076 30.3216 60.2732 30.2794 60.2382C30.2373 60.2033 30.1956 60.1679 30.1543 60.1319C30.113 60.096 30.0721 60.0597 30.0316 60.0228C28.7682 58.8682 27.925 57.2482 27.8575 55.5243C27.7895 53.7859 28.4311 52.1451 29.5841 50.8556C30.5974 49.7222 31.3252 49.5352 32.5393 48.8404C33.1621 48.484 33.7572 48.0779 34.3458 47.6681C36.4816 46.1817 38.6838 44.3399 40.57 42.541C41.3432 41.8154 42.1008 41.0737 42.8427 40.316C43.5846 39.5583 44.3102 38.7853 45.0195 37.997C45.7288 37.2087 46.4211 36.4058 47.0965 35.5882C47.7719 34.7706 48.4297 33.9392 49.07 33.0939C49.5241 32.4975 49.9503 31.8819 50.3488 31.247C50.9896 30.2305 51.5816 29.185 52.4062 28.3008C53.6762 26.9388 55.3374 26.3237 57.1698 26.2526Z" fill="#1C1C1C"/>
<path d="M56.9184 27.195C56.9358 27.1933 56.9532 27.1912 56.9706 27.1899C58.4705 27.0781 60.0904 27.6516 61.2091 28.6465C62.4899 29.7856 63.0838 31.3804 63.1708 33.066C63.4134 37.7652 58.9959 43.4918 56.0121 46.815C51.6128 51.715 45.082 57.3801 38.9679 59.8573C37.737 60.356 36.4465 60.8103 35.1089 60.8823C35.0609 60.8849 35.0129 60.887 34.9649 60.8885C34.9169 60.89 34.8688 60.8909 34.8208 60.8912C34.7727 60.8916 34.7246 60.8914 34.6766 60.8906C34.6285 60.8898 34.5805 60.8884 34.5325 60.8865C34.4845 60.8845 34.4365 60.882 34.3885 60.8789C34.3405 60.8759 34.2926 60.8722 34.2447 60.868C34.1968 60.8638 34.149 60.859 34.1013 60.8536C34.0535 60.8482 34.0058 60.8423 33.9582 60.8358C33.9106 60.8293 33.8631 60.8222 33.8156 60.8146C33.7682 60.807 33.7208 60.7988 33.6736 60.79C33.6263 60.7812 33.5791 60.7719 33.5321 60.7621C33.4851 60.7522 33.4382 60.7417 33.3914 60.7308C33.3446 60.7198 33.298 60.7082 33.2515 60.6961C33.2049 60.684 33.1586 60.6713 33.1124 60.6581C33.0662 60.6449 33.0201 60.6312 32.9743 60.6168C32.9284 60.6025 32.8826 60.5877 32.8371 60.5723C32.7916 60.5569 32.7463 60.541 32.7011 60.5245C32.656 60.508 32.611 60.491 32.5663 60.4734C32.5215 60.4559 32.477 60.4378 32.4327 60.4192C32.3884 60.4006 32.3443 60.3815 32.3005 60.3618C32.2566 60.3421 32.213 60.322 32.1696 60.3013C32.1262 60.2806 32.0831 60.2594 32.0402 60.2377C31.9973 60.2159 31.9547 60.1937 31.9124 60.1709C31.8701 60.1482 31.828 60.125 31.7862 60.1012C31.7444 60.0775 31.7029 60.0533 31.6617 60.0286C31.6205 60.0038 31.5796 59.9786 31.5389 59.9529C31.4984 59.9272 31.4581 59.901 31.4181 59.8744C31.3781 59.8477 31.3384 59.8206 31.299 59.793C31.2597 59.7653 31.2207 59.7373 31.1821 59.7087C31.1434 59.6802 31.105 59.6512 31.0671 59.6217C31.0291 59.5923 30.9915 59.5624 30.9542 59.5321C30.9169 59.5017 30.88 59.4709 30.8435 59.4397C29.7293 58.5006 28.9623 57.1955 28.8425 55.7288C28.7118 54.13 29.2724 52.6636 30.3383 51.4792C31.1814 50.5423 31.9756 50.2565 33.0219 49.6662C33.5668 49.3588 34.0872 49.018 34.6014 48.6617C36.5879 47.2852 38.4797 45.7361 40.273 44.1171C41.5661 42.9379 42.8183 41.7168 44.0296 40.4538C45.2409 39.1908 46.4086 37.8887 47.5327 36.5475C48.2653 35.6932 48.9736 34.8192 49.6577 33.9256C50.2286 33.1522 50.7732 32.3607 51.2916 31.5512C51.7804 30.7792 52.2331 29.9682 52.8289 29.2719C53.8814 28.0416 55.3002 27.3153 56.9184 27.195Z" fill="white"/>
<path d="M36.3539 50.8834C36.5193 50.9248 36.5992 51.0011 36.7102 51.1278C36.8546 51.2926 37.0479 51.5831 37.01 51.8159C36.9881 51.9499 36.9249 51.9976 36.8201 52.0684C36.5951 52.0362 36.4613 51.9198 36.3261 51.7414C36.206 51.5827 36.1046 51.3562 36.1397 51.1526C36.1638 51.0133 36.2439 50.9574 36.3539 50.8834Z" fill="#1C1C1C"/>
<path d="M53.8781 38.378C54.0673 38.4048 54.1416 38.489 54.2602 38.6274C54.4007 38.7914 54.5925 39.0676 54.5499 39.2955C54.5273 39.4164 54.4508 39.4745 54.3523 39.5346C54.2946 39.5313 54.235 39.5284 54.1784 39.5162C54.0074 39.4795 53.826 39.2566 53.7417 39.1148C53.6591 38.9761 53.5805 38.7676 53.6393 38.6057C53.6863 38.4762 53.7569 38.4331 53.8781 38.378Z" fill="#1C1C1C"/>
<path d="M58.9968 32.3218C59.0166 32.3235 59.0365 32.324 59.0562 32.327C59.3115 32.3653 59.6821 32.7046 59.8185 32.9172C59.8785 33.0108 59.9278 33.1246 59.8887 33.2366C59.8568 33.328 59.7796 33.3649 59.7002 33.4063C59.4215 33.3661 59.0476 33.1044 58.8789 32.8864C58.8086 32.7954 58.75 32.6773 58.7757 32.5591C58.8026 32.4355 58.8974 32.3811 58.9968 32.3218Z" fill="#1C1C1C"/>
<path d="M53.3549 34.0066C53.5099 34.0198 53.6659 34.0488 53.8095 34.1103C53.9574 34.1736 54.1984 34.3168 54.2421 34.487C54.2541 34.5334 54.2517 34.5832 54.2289 34.6254C54.1632 34.7464 54.0371 34.7963 53.9136 34.8387C53.7427 34.8172 53.5595 34.7767 53.4007 34.7079C53.2177 34.6286 53.0442 34.5216 52.9666 34.3316C52.9695 34.2851 52.9625 34.2451 52.9914 34.2056C53.0722 34.095 53.2264 34.0379 53.3549 34.0066Z" fill="#1C1C1C"/>
<path d="M54.9358 30.0471C55.0187 30.0489 55.1016 30.0606 55.183 30.0758C55.3941 30.1151 55.7209 30.2599 55.8301 30.4576C55.8626 30.5164 55.8845 30.5863 55.8595 30.652C55.8125 30.7752 55.7071 30.8362 55.5922 30.8861C55.4231 30.8783 55.2591 30.8564 55.0992 30.7982C54.9422 30.7411 54.6637 30.6095 54.6096 30.4335C54.594 30.3829 54.5953 30.3375 54.616 30.2901C54.6687 30.1687 54.8188 30.0919 54.9358 30.0471Z" fill="#1C1C1C"/>
<path d="M47.1119 43.4866C47.2257 43.4794 47.3111 43.4818 47.4003 43.5663C47.6293 43.7834 47.8199 44.1789 47.8078 44.4986C47.8023 44.6464 47.7427 44.7135 47.6363 44.8091C47.5056 44.8078 47.4205 44.7916 47.321 44.7001C47.0985 44.4952 46.9335 44.1338 46.939 43.8296C46.9418 43.6726 46.9991 43.5894 47.1119 43.4866Z" fill="#1C1C1C"/>
<path d="M41.9752 50.9857C41.9883 50.9845 42.0013 50.9829 42.0145 50.9822C42.1335 50.9753 42.1905 50.9965 42.2763 51.0764C42.4713 51.2582 42.8082 51.7096 42.7834 51.9826C42.7714 52.1157 42.7017 52.1706 42.6033 52.2451C42.5699 52.2465 42.5366 52.2482 42.5031 52.2474C42.3309 52.2431 42.2012 52.1399 42.0892 52.0172C41.9173 51.8289 41.7795 51.5523 41.7982 51.2914C41.8087 51.1464 41.8688 51.0778 41.9752 50.9857Z" fill="#1C1C1C"/>
<path d="M47.3049 49.1532C47.3174 49.152 47.3298 49.1502 47.3423 49.1495C47.4604 49.1428 47.5296 49.1722 47.6133 49.2519C47.8154 49.4443 48.1337 49.8763 48.1201 50.1603C48.1139 50.2905 48.0485 50.3505 47.9607 50.4344C47.9303 50.4354 47.8998 50.4366 47.8694 50.4358C47.6965 50.4308 47.5791 50.3261 47.4669 50.2035C47.2993 50.0203 47.0794 49.6814 47.1149 49.4177C47.1337 49.2776 47.1968 49.2282 47.3049 49.1532Z" fill="#1C1C1C"/>
<path d="M37.3697 56.0286C37.4843 56.0413 37.5562 56.0509 37.6398 56.1379C37.852 56.3589 38.1366 56.8145 38.117 57.1288C38.1095 57.2505 38.0477 57.3087 37.9622 57.3825C37.9269 57.3853 37.9359 57.3853 37.8928 57.3849C37.7194 57.3833 37.617 57.3045 37.5021 57.1798C37.3126 56.9743 37.1652 56.6526 37.1852 56.3687C37.1963 56.2099 37.2495 56.128 37.3697 56.0286Z" fill="#1C1C1C"/>
<path d="M41.5473 45.8952C41.5907 45.8935 41.6432 45.889 41.6856 45.8982C41.8145 45.9263 41.9456 46.1039 42.0233 46.2057C42.1596 46.3842 42.3647 46.7154 42.3124 46.9449C42.2812 47.0821 42.207 47.1248 42.0943 47.1908C42.0749 47.1887 42.0554 47.1871 42.0361 47.1846C41.8419 47.1591 41.6687 46.9735 41.5562 46.8258C41.4224 46.6501 41.2892 46.3932 41.3303 46.1642C41.3553 46.0249 41.4367 45.9684 41.5473 45.8952Z" fill="#1C1C1C"/>
<path d="M52.3394 43.9827C52.3773 43.9832 52.4229 43.9813 52.4607 43.9891C52.6168 44.0213 52.7516 44.2316 52.8399 44.3565C52.98 44.555 53.1954 44.9027 53.1306 45.1516C53.1045 45.2516 53.0284 45.2967 52.9486 45.3507C52.7662 45.3466 52.6806 45.3001 52.5556 45.1655C52.3526 44.9468 52.1454 44.586 52.1648 44.2815C52.174 44.137 52.2367 44.0739 52.3394 43.9827Z" fill="#1C1C1C"/>
<path d="M58.1714 37.9847C58.2103 37.9873 58.2498 37.9888 58.2878 37.9989C58.4831 38.0507 58.6699 38.3471 58.7722 38.5106C58.8786 38.6805 59.0361 38.9452 58.9689 39.1522C58.9367 39.2514 58.855 39.2901 58.7704 39.3367C58.7519 39.3345 58.7333 39.3328 58.7148 39.3301C58.5009 39.2986 58.2968 39.0495 58.1795 38.8844C58.0506 38.7029 57.9155 38.4376 57.9685 38.2084C57.9961 38.0896 58.0751 38.0431 58.1714 37.9847Z" fill="#1C1C1C"/>
<path d="M31.4623 54.1128C31.4947 54.1144 31.5273 54.1155 31.5596 54.1191C31.689 54.1335 31.767 54.201 31.8431 54.2996C32.0176 54.5254 32.2388 54.9518 32.1934 55.2413C32.1752 55.3575 32.1115 55.4129 32.0216 55.4808C31.8641 55.4682 31.7713 55.4432 31.6529 55.335C31.4321 55.1331 31.279 54.812 31.2808 54.5109C31.282 54.3297 31.3325 54.2345 31.4623 54.1128Z" fill="#1C1C1C"/>
<path d="M48.6155 38.4727C48.6467 38.4745 48.6781 38.4757 48.709 38.4801C48.8596 38.5014 48.97 38.6541 49.0515 38.7701C49.1888 38.9655 49.3429 39.2883 49.2894 39.535C49.26 39.6709 49.1754 39.7297 49.0667 39.8023C49.0159 39.7972 49.0091 39.7978 48.9579 39.7876C48.7956 39.7552 48.6535 39.581 48.5666 39.4509C48.4353 39.2543 48.3195 38.961 48.3806 38.7213C48.4146 38.5879 48.5045 38.5366 48.6155 38.4727Z" fill="#1C1C1C"/>
<path d="M38.6281 5.85999C38.8291 5.8642 39.0296 5.87741 39.2295 5.89961C39.4294 5.92181 39.6279 5.95291 39.8251 5.99291C40.0222 6.03292 40.2171 6.08167 40.4098 6.13916C40.6025 6.19665 40.7923 6.26265 40.9791 6.33716C41.2114 6.42716 41.4776 6.61635 41.7266 6.64112C42.1241 6.68065 42.5369 6.63954 42.938 6.66558C43.3808 6.69432 43.8485 6.82095 44.2899 6.7912C44.5455 6.77398 44.7955 6.68414 45.0455 6.63114C45.5082 6.53304 46.0119 6.49838 46.4838 6.51834C47.7957 6.57382 48.996 7.09831 49.9869 7.94709C50.2706 8.19015 50.5236 8.51523 50.8431 8.70758C51.1275 8.87884 51.459 8.97475 51.7674 9.09485C52.1868 9.25811 52.6014 9.43275 53.0112 9.61878C55.5623 10.7722 58.3741 12.6342 59.3936 15.3722C59.8616 16.6287 59.7769 17.9744 59.221 19.1873C56.8954 24.2621 47.0578 28.7775 41.9325 30.6923C41.9631 31.0701 41.9673 31.4172 41.8933 31.7905C41.7366 32.5807 41.2376 33.4395 41.5266 34.2543C41.74 34.8561 42.2241 35.3417 42.4854 35.9259C42.6642 36.3258 42.7569 36.8019 42.5885 37.2212C42.4592 37.5431 42.1855 37.8212 41.8658 37.9559C41.2879 38.1993 40.7019 37.9326 40.1652 37.7172C39.9086 39.1588 39.2899 40.4184 38.1848 41.3986C36.9662 42.4795 35.7308 42.4985 34.3539 43.1352C33.5907 43.4885 32.8438 43.8734 32.1132 44.2899C31.3826 44.7064 30.6708 45.153 29.9779 45.6297C27.5478 47.2716 25.1309 49.428 23.3401 51.7606C23.0556 52.1313 22.7818 52.5097 22.5187 52.8959C22.067 53.5702 21.6577 54.2589 21.0751 54.8345C19.6867 56.2062 18.3102 56.6811 16.3877 56.6746C16.0855 57.2764 15.7459 57.8646 15.4261 58.4579C15.2601 58.7874 15.1029 59.1553 14.8463 59.4253C14.5754 59.7104 14.2127 59.8546 13.821 59.8544C12.7262 59.8538 12.455 58.7038 11.9941 57.9462C11.9511 57.8759 11.9051 57.8075 11.8563 57.7411C11.8074 57.6747 11.7558 57.6104 11.7016 57.5483C11.6473 57.4862 11.5905 57.4265 11.5313 57.3692C11.4719 57.3119 11.4103 57.2572 11.3464 57.2051C10.7882 56.7555 10.0913 56.5547 9.41478 56.3626C9.14591 56.2862 8.86078 56.2194 8.61144 56.0897C8.54342 56.0549 8.4786 56.0149 8.41698 55.9697C8.35535 55.9245 8.29771 55.8747 8.24406 55.8203C7.99509 55.5645 7.89642 55.2429 7.91082 54.8906C7.91213 54.8604 7.91451 54.8302 7.91796 54.8002C7.9214 54.7702 7.9259 54.7403 7.93146 54.7106C7.93702 54.6809 7.94363 54.6514 7.95128 54.6222C7.95892 54.5929 7.96759 54.564 7.97729 54.5354C7.98699 54.5067 7.99768 54.4785 8.00938 54.4506C8.02108 54.4227 8.03374 54.3953 8.04738 54.3684C8.06102 54.3414 8.07559 54.3149 8.09111 54.289C8.10662 54.2631 8.12303 54.2377 8.14034 54.2129C8.33444 53.9311 8.6518 53.6816 8.89912 53.4423C9.42774 52.9285 9.95973 52.4182 10.4951 51.9114C10.3176 51.1686 10.1954 50.4366 10.179 49.6717C10.0821 45.1416 13.2707 40.4116 16.2738 37.2734C13.2717 37.6175 9.01686 37.4036 6.41102 35.7085C5.15325 34.8904 4.448 33.691 4.14563 32.2347C3.52163 29.2291 4.9403 25.7803 6.43596 23.2289C6.91459 22.4125 7.46219 21.6426 7.97803 20.8502C7.98245 20.6084 7.98966 20.3679 8.01725 20.1275C8.02201 20.0828 8.02733 20.0381 8.03321 19.9935C8.03909 19.9489 8.04553 19.9043 8.05253 19.8598C8.05953 19.8154 8.06708 19.771 8.07519 19.7268C8.0833 19.6825 8.09197 19.6383 8.10118 19.5943C8.1104 19.5502 8.12016 19.5063 8.13048 19.4625C8.1408 19.4187 8.15167 19.375 8.16308 19.3315C8.17449 19.2879 8.18644 19.2445 8.19894 19.2013C8.21144 19.158 8.22447 19.115 8.23805 19.0721C8.25163 19.0292 8.26575 18.9864 8.2804 18.9439C8.29505 18.9013 8.31023 18.8589 8.32594 18.8168C8.34165 18.7746 8.35789 18.7327 8.37465 18.6909C8.39141 18.6491 8.40869 18.6075 8.4265 18.5662C8.4443 18.5249 8.46262 18.4838 8.48145 18.4429C8.50029 18.402 8.51963 18.3614 8.53948 18.321C8.55933 18.2806 8.57969 18.2405 8.60055 18.2006C8.62141 18.1607 8.64276 18.1211 8.66461 18.0817C8.68646 18.0424 8.7088 18.0033 8.73163 17.9645C8.75446 17.9257 8.77777 17.8873 8.80157 17.849C8.82536 17.8108 8.84963 17.7729 8.87438 17.7353C8.89912 17.6977 8.92434 17.6605 8.95002 17.6235C8.97571 17.5865 9.00185 17.5499 9.02843 17.5136C9.05501 17.4773 9.08206 17.4413 9.10957 17.4057C9.13704 17.3701 9.16498 17.3348 9.19339 17.2998C9.22176 17.2649 9.25057 17.2303 9.27983 17.1961C9.30909 17.1619 9.33875 17.1281 9.36883 17.0946C9.39894 17.0612 9.42945 17.0281 9.46038 16.9954C9.4913 16.9627 9.52263 16.9304 9.55436 16.8984C9.5861 16.8665 9.61822 16.835 9.65073 16.8039C9.68327 16.7728 9.71618 16.7421 9.74946 16.7118C9.78278 16.6815 9.81644 16.6517 9.85045 16.6223C9.8845 16.5928 9.91891 16.5638 9.95369 16.5352C9.98847 16.5066 10.0236 16.4785 10.0591 16.4508C11.063 15.6682 12.5499 15.233 13.8218 15.3887C14.1186 15.0964 14.6247 14.7607 14.8532 14.4655C15.0166 14.2543 15.1202 13.9675 15.2454 13.7309C15.2888 13.6505 15.335 13.5717 15.3839 13.4945C15.4327 13.4172 15.4842 13.3418 15.5383 13.2681C15.5924 13.1944 15.6489 13.1227 15.7079 13.0529C15.7669 12.9831 15.8283 12.9155 15.892 12.8499C15.9556 12.7844 16.0215 12.7211 16.0896 12.6601C16.1576 12.5991 16.2277 12.5405 16.2998 12.4843C16.3718 12.4281 16.4458 12.3745 16.5216 12.3235C16.5973 12.2724 16.6748 12.224 16.7539 12.1782C18.0227 11.4498 19.2499 11.5447 20.6079 11.9138C21.2243 10.8961 21.9305 10.0476 23.0371 9.5394C24.6788 8.78546 26.2415 9.07939 27.8627 9.68708C28.3656 8.76788 29.2165 8.04432 30.1844 7.66037C31.6338 7.08543 33.1897 7.26184 34.5933 7.86517C35.0625 7.52346 35.3171 7.49229 35.744 7.02198C36.4807 6.21044 37.5686 5.91142 38.6281 5.85999Z" fill="#1C1C1C"/>
<path d="M42.5193 7.39081C42.7492 7.40302 42.9794 7.43425 43.2082 7.45936C43.1238 7.51645 43.0542 7.58816 42.9814 7.65888C43.3081 8.32717 43.7508 8.92819 44.1926 9.52297C44.5424 9.99394 44.8827 10.4778 45.2531 10.9325C45.5555 11.3035 45.887 11.6526 46.1995 12.0153C47.3856 13.3918 48.5959 14.8284 50.044 15.9404C50.7638 16.4932 51.9165 16.7503 52.3298 17.6258C52.5383 18.0672 52.5216 18.5548 52.3533 19.0029C52.2791 19.1231 52.2069 19.2325 52.1113 19.3379C52.0213 18.7563 51.7925 18.216 51.4193 17.76C51.0765 17.3412 50.638 17.0161 50.2237 16.673C49.7893 16.3185 49.3704 15.9465 48.9671 15.5569C48.0801 14.6943 47.2578 13.7762 46.4469 12.8427C44.9809 11.155 43.5488 9.38711 42.5193 7.39081Z" fill="white"/>
<path d="M14.5614 15.6069C14.6229 15.7973 14.4915 16.4011 14.4849 16.648C14.469 17.2443 14.5471 17.8681 14.6663 18.4503C14.7408 18.8094 14.8257 19.166 14.9209 19.5201C15.0161 19.8742 15.1214 20.2253 15.2369 20.5733C15.3524 20.9214 15.4779 21.2658 15.6134 21.6065C15.7488 21.9473 15.8941 22.2838 16.049 22.6162C17.4616 25.6386 19.9986 28.9557 22.807 30.8051L22.4742 30.912L22.1197 31.0001C22.0298 30.9428 21.941 30.8841 21.8532 30.8239C20.925 30.1841 20.118 29.2925 19.3904 28.4383C17.0077 25.6407 15.0604 22.3013 14.3987 18.645C14.2416 17.7765 14.0311 16.371 14.5614 15.6069Z" fill="white"/>
<path d="M35.5282 8.12579C35.5413 8.1313 35.5568 8.13305 35.5675 8.14231C35.58 8.15304 35.9975 9.14872 36.0551 9.26828C36.7379 10.685 37.6228 11.9952 38.5477 13.2635C41.0733 16.7267 43.9262 19.5501 47.6219 21.7581L47.2822 21.9177L46.9958 22.0581C42.7145 19.8184 37.046 12.8089 35.2167 8.32283C35.3179 8.25333 35.424 8.19056 35.5282 8.12579Z" fill="white"/>
<path d="M21.4423 11.8632C21.5133 12.137 21.4876 12.4577 21.5597 12.7535C21.9294 14.2692 22.6625 15.6864 23.4302 17.0328C25.6872 20.991 29.1921 25.3491 33.1192 27.7476C32.9732 27.7938 32.8278 27.842 32.6831 27.8922L32.2797 28.039C31.8867 27.761 31.4919 27.4834 31.1136 27.1857C29.931 26.2548 28.8736 25.1352 27.8919 23.9988C27.597 23.6621 27.3081 23.3204 27.0253 22.9735C26.7425 22.6265 26.4659 22.2747 26.1957 21.9179C25.9254 21.5612 25.6615 21.1997 25.404 20.8336C25.1466 20.4675 24.8957 20.0969 24.6515 19.7218C24.4072 19.3468 24.1696 18.9675 23.9388 18.5841C23.708 18.2006 23.4841 17.8131 23.2671 17.4217C23.0501 17.0302 22.8401 16.635 22.6371 16.2361C22.4341 15.8372 22.2383 15.4348 22.0496 15.0289C21.7076 14.2778 21.1981 13.1916 21.102 12.3789L21.4423 11.8632Z" fill="white"/>
<path d="M8.20245 22.6701C8.33734 22.8849 8.54249 23.8295 8.65895 24.1589C9.10231 25.4126 9.92013 26.658 10.7737 27.6701C11.6019 28.652 12.5982 29.5112 13.6419 30.256C14.4112 30.8048 15.2214 31.29 16.0405 31.7596C16.1577 31.8268 16.3707 31.9157 16.45 32.0217C16.3995 32.063 16.3236 32.0621 16.2596 32.073C15.7336 32.135 15.0769 32.2579 14.5607 32.1155C14.1166 31.993 13.7013 31.614 13.347 31.328C11.5659 29.891 9.91264 28.0972 8.75007 26.119C8.09483 25.004 7.8768 23.9263 8.20245 22.6701Z" fill="white"/>
<path d="M28.7315 9.64551C28.7642 9.68526 28.7618 9.67235 28.7722 9.71381C28.7843 9.76159 28.7932 9.81096 28.8039 9.85911C29.1199 11.2805 29.8842 12.707 30.6186 13.9573C30.7759 14.2305 30.9373 14.5013 31.1027 14.7696C31.2681 15.038 31.4375 15.3039 31.6108 15.5672C31.7842 15.8306 31.9614 16.0913 32.1425 16.3493C32.3236 16.6074 32.5085 16.8627 32.6972 17.1152C32.8859 17.3678 33.0784 17.6175 33.2745 17.8643C33.4706 18.1111 33.6704 18.355 33.8738 18.5958C34.0772 18.8367 34.2841 19.0745 34.4946 19.3092C34.7051 19.544 34.919 19.7755 35.1364 20.0038C35.3537 20.2322 35.5745 20.4572 35.7986 20.679C36.0226 20.9008 36.2499 21.1192 36.4805 21.3342C36.7111 21.5492 36.9448 21.7607 37.1817 21.9688C37.4186 22.1768 37.6585 22.3813 37.9015 22.5822C38.1444 22.783 38.3903 22.9803 38.6392 23.1739C38.888 23.3674 39.1397 23.5573 39.3942 23.7434C39.6487 23.9294 39.9058 24.1117 40.1657 24.2901C40.4256 24.4686 40.6882 24.6431 40.9533 24.8137L40.5155 24.9975L40.2297 25.0999C38.8545 24.2914 37.6183 23.2664 36.4721 22.1606C33.5698 19.3603 29.4557 13.9936 28.3686 10.1025C28.4998 9.9615 28.6138 9.79836 28.7315 9.64551Z" fill="white"/>
<path d="M40.3163 30.2013C40.4763 30.1875 40.6189 30.1876 40.7714 30.2456C42.0812 30.7438 40.6637 32.9949 40.8467 34.0549C40.9842 34.8508 41.6037 35.4244 41.9298 36.1325C42.0502 36.3941 42.1283 36.6967 42.0174 36.9756C41.9475 37.1517 41.8002 37.3119 41.6244 37.3855C41.1944 37.5656 40.6194 37.2219 40.2199 37.0688C40.1973 36.7813 40.1711 36.4963 40.1328 36.2104C39.6609 34.0182 38.3634 32.4118 36.5228 31.1971C37.7599 30.8062 39.0531 30.4938 40.3163 30.2013Z" fill="white"/>
<path d="M10.7101 52.5367C10.9243 52.7827 11.0844 53.2051 11.2662 53.4937C12.0272 54.7012 13.2587 55.7335 14.5895 56.2525C14.9603 56.397 15.3411 56.4845 15.7281 56.5718C15.4435 57.1183 14.6261 58.9313 14.1871 59.1911C13.9989 59.3025 13.7855 59.2986 13.5795 59.2478C13.0465 58.9216 12.8363 58.1452 12.5147 57.6264C12.4517 57.5228 12.3835 57.4228 12.3101 57.3263C12.2367 57.2298 12.1586 57.1374 12.0756 57.049C11.9926 56.9607 11.9052 56.8769 11.8136 56.7976C11.7219 56.7183 11.6263 56.6439 11.5269 56.5745C10.9533 56.1773 10.309 55.996 9.64536 55.8142C9.39085 55.7445 9.12459 55.6876 8.88734 55.5697C8.63731 55.4455 8.56247 55.2917 8.47992 55.0338C8.50424 54.8932 8.52392 54.753 8.59804 54.6283C8.84143 54.2185 9.27958 53.8862 9.62515 53.5641C9.99067 53.2257 10.3523 52.8832 10.7101 52.5367Z" fill="white"/>
<path d="M45.8883 7.2285C46.0718 7.20015 46.2818 7.20747 46.4677 7.21285C47.8513 7.25283 49.1597 8.00559 50.0885 8.99861C52.0195 11.0633 52.2148 13.7277 52.12 16.3969C51.7297 16.1176 51.2657 15.938 50.8428 15.7124C49.2737 14.648 47.7759 12.9009 46.5609 11.4473C45.8677 10.618 45.1916 9.7953 44.5636 8.91464C44.3048 8.55181 44.0121 8.18669 43.8032 7.7926C44.4264 7.4558 45.1892 7.29485 45.8883 7.2285Z" fill="white"/>
<path d="M13.1699 16.0253C13.3277 16.0152 13.4876 16.025 13.6455 16.0288C13.5446 16.9208 13.5569 17.7608 13.7182 18.6459C14.3817 22.2889 16.2677 25.6828 18.5827 28.5317C19.3641 29.4933 20.2651 30.4954 21.2871 31.2029C20.1012 31.4613 18.9168 31.689 17.723 31.9067C17.5266 31.799 17.3284 31.6949 17.1283 31.5942C15.6365 30.8433 14.1302 29.8899 12.8622 28.8009C10.6706 26.9189 8.92335 24.3112 8.7074 21.3617C8.607 19.9904 8.88902 18.6466 9.8082 17.5864C10.6778 16.5835 11.8668 16.1157 13.1699 16.0253Z" fill="white"/>
<path d="M38.5562 6.62075C38.9993 6.61428 39.4319 6.64278 39.8661 6.73563C40.285 6.82522 41.7767 7.33589 41.98 7.67055C42.5531 8.61366 43.1002 9.55769 43.7322 10.4646C45.0633 12.3749 46.8537 14.3858 48.5347 16.0028C49.2018 16.6445 49.9365 17.1992 50.6101 17.8284C51.2457 18.4222 51.4032 18.9666 51.4338 19.8175C50.5636 20.2506 49.6967 20.6903 48.8332 21.1366L48.3259 21.3916C48.0893 21.267 47.8556 21.1372 47.6247 21.0022C43.7346 18.696 40.1444 14.7651 37.7489 10.9509C37.1127 9.93784 36.4557 8.87267 36.1568 7.70509C36.1987 7.64532 36.2412 7.59071 36.2904 7.53654C36.8815 6.88476 37.705 6.66158 38.5562 6.62075Z" fill="white"/>
<path d="M31.939 8.01983C32.9291 7.94495 33.813 8.27926 34.7181 8.61917C34.9455 9.39741 35.4313 10.1681 35.8222 10.8756C38.1558 15.0993 42.1647 19.8261 46.2445 22.4051C45.9589 22.5948 45.5928 22.7324 45.282 22.8786L43.2101 23.8384C42.7194 24.0572 42.2252 24.2675 41.7273 24.4694C40.5556 23.7778 39.4514 23.0167 38.4077 22.142C35.1454 19.4081 32.1442 15.7919 30.2844 11.9422C29.9641 11.279 29.5053 10.3586 29.4542 9.63061C29.4332 9.33197 29.4822 9.055 29.689 8.82824C30.2042 8.26315 31.2144 8.06505 31.939 8.01983Z" fill="white"/>
<path d="M25.0503 9.75625C26.0481 9.75071 26.8939 10.0029 27.7944 10.408C29.328 15.0204 33.2802 20.1891 36.874 23.4189C37.6825 24.1456 38.5271 24.7931 39.4148 25.4176C38.2456 25.8983 37.0671 26.355 35.8792 26.7877C35.2456 27.0034 34.6177 27.2474 33.9739 27.4305C32.9516 27.0113 31.953 26.1711 31.1131 25.469C27.938 22.8147 24.7877 18.5532 23.0325 14.8222C22.6443 13.9969 22.1888 13.0306 22.114 12.1151C22.0746 11.6336 22.1703 11.1059 22.4986 10.7355C23.1231 10.031 24.1547 9.808 25.0503 9.75625Z" fill="white"/>
<path d="M18.4064 12.3088C19.1225 12.2402 19.8081 12.3323 20.48 12.5888C20.7042 13.7424 21.2057 14.8586 21.7147 15.9105C23.6603 19.9314 27.7464 25.6615 31.4011 28.2342L27.1386 29.5235C25.9534 29.8625 24.7759 30.2267 23.5889 30.5607L23.4329 30.4498C22.7192 29.941 22.0156 29.412 21.3768 28.8103C18.6426 26.2354 15.9281 22.0522 15.3135 18.2943C15.0638 16.7672 15.1265 14.97 16.0736 13.6761C16.6485 12.8907 17.4537 12.4547 18.4064 12.3088Z" fill="white"/>
<path d="M51.5117 9.74652C51.7993 9.82651 52.081 9.95391 52.3551 10.0716C54.8053 11.123 57.6927 12.9236 58.7105 15.5082C59.1436 16.6079 59.1219 17.7294 58.6489 18.8121C56.5087 23.711 46.4229 28.2233 41.589 30.1031C41.4619 29.9785 41.3302 29.8611 41.1767 29.7695C40.9398 29.6282 40.6899 29.5683 40.4153 29.5801C39.8152 29.6061 39.1855 29.837 38.6043 29.9921C37.6399 30.2497 36.6783 30.5173 35.7066 30.7466C35.5733 30.6872 35.4388 30.6307 35.3031 30.5771C35.1673 30.5234 35.0305 30.4728 34.8926 30.425C34.7547 30.3773 34.6159 30.3325 34.4761 30.2907C34.3363 30.2489 34.1956 30.2101 34.0542 30.1744C33.9126 30.1386 33.7705 30.1059 33.6276 30.0762C33.4847 30.0465 33.3413 30.0199 33.1973 29.9965C33.0532 29.973 32.9088 29.9525 32.7638 29.9352C32.619 29.9179 32.4738 29.9037 32.3282 29.8926C27.771 29.5003 23.0119 31.8063 19.4541 34.4554C18.5914 35.0977 17.8113 35.8219 16.991 36.5135C14.3678 36.9196 11.4684 36.8395 8.91384 36.0793C7.36534 35.6184 6.08292 34.9706 5.28944 33.5025C5.18073 33.2909 5.08655 33.073 5.00691 32.8488C4.92727 32.6246 4.86287 32.3962 4.81371 32.1634C4.15318 29.1011 5.81382 25.5038 7.42659 22.9851C7.20584 23.8612 7.40586 24.8084 7.76391 25.6195C8.76656 27.8908 10.8583 30.1822 12.7585 31.7497C13.1899 32.1056 13.7023 32.5505 14.2295 32.7425C14.4875 32.8364 14.7689 32.8663 15.0423 32.8668C15.5747 32.8679 16.1192 32.782 16.6471 32.719C18.2387 32.5287 19.8372 32.2655 21.3955 31.8879C23.6021 31.3532 25.7591 30.6366 27.9323 29.9856C29.2737 29.5838 30.628 29.2177 31.9659 28.8059C33.6091 28.2916 35.2393 27.7392 36.8566 27.1487C39.5628 26.1566 42.2225 25.0525 44.8357 23.8362C46.5939 23.0053 48.3397 22.1491 50.0731 21.2678C50.7264 20.9401 51.7901 20.504 52.3288 20.0764C52.6487 19.8227 52.897 19.4391 53.0323 19.0564C53.2854 18.3403 53.1106 17.6714 52.7903 17.0131C52.8259 16.6968 52.8183 16.3611 52.8268 16.0417C52.8734 14.2985 52.7436 12.4563 52.0866 10.8224C51.9361 10.4481 51.7156 10.0942 51.5117 9.74652Z" fill="white"/>
<path d="M30.3933 30.4874C30.6745 30.4664 30.956 30.4559 31.2379 30.4559C31.5199 30.456 31.8014 30.4665 32.0826 30.4876C32.3637 30.5086 32.6437 30.5402 32.9224 30.5821C33.2012 30.6241 33.4781 30.6765 33.753 30.7391C35.8266 31.2264 37.572 32.3971 38.6891 34.2234C39.434 35.4411 39.7778 36.8016 39.4296 38.2064C39.4174 38.2575 39.4044 38.3084 39.3906 38.3591C39.3768 38.4097 39.3622 38.4602 39.3469 38.5104C39.3315 38.5607 39.3154 38.6107 39.2986 38.6604C39.2817 38.7102 39.2641 38.7597 39.2458 38.8089C39.2274 38.8581 39.2083 38.9071 39.1885 38.9557C39.1686 39.0043 39.1481 39.0527 39.1268 39.1007C39.1055 39.1487 39.0835 39.1964 39.0607 39.2437C39.0379 39.2911 39.0145 39.3381 38.9903 39.3847C38.9661 39.4313 38.9413 39.4776 38.9157 39.5235C38.8901 39.5694 38.8638 39.6149 38.8369 39.66C38.8099 39.705 38.7823 39.7497 38.754 39.7939C38.7256 39.8382 38.6967 39.882 38.667 39.9254C38.6374 39.9687 38.6071 40.0116 38.5762 40.0541C38.5452 40.0966 38.5137 40.1385 38.4814 40.18C38.4492 40.2215 38.4164 40.2625 38.3829 40.303C38.3494 40.3435 38.3154 40.3835 38.2807 40.4229C38.246 40.4624 38.2108 40.5013 38.1749 40.5397C38.139 40.5781 38.1026 40.6159 38.0656 40.6532C38.0286 40.6905 37.991 40.7272 37.9529 40.7633C37.9148 40.7995 37.8762 40.8351 37.837 40.87C37.7978 40.905 37.7581 40.9394 37.7179 40.9732C37.6776 41.0069 37.6369 41.0401 37.5956 41.0726C37.5544 41.1051 37.5126 41.137 37.4704 41.1683C37.4282 41.1996 37.3855 41.2302 37.3424 41.2602C37.2993 41.2901 37.2557 41.3194 37.2116 41.3481C37.1676 41.3767 37.1231 41.4047 37.0783 41.432C37.0334 41.4593 36.9881 41.486 36.9424 41.5119C36.8967 41.5378 36.8507 41.563 36.8042 41.5875C36.7578 41.6121 36.7109 41.6359 36.6638 41.659C36.6166 41.6821 36.5691 41.7045 36.5212 41.7262C36.4734 41.7479 36.4252 41.7688 36.3767 41.789C36.3282 41.8092 36.2794 41.8287 36.2304 41.8474C35.4324 42.1548 34.6624 42.311 33.8677 42.682C33.6114 42.8041 33.3568 42.9297 33.1039 43.0586C32.851 43.1876 32.5998 43.32 32.3504 43.4557C32.1011 43.5914 31.8535 43.7304 31.6079 43.8728C31.3623 44.0151 31.1186 44.1607 30.8768 44.3096C30.6351 44.4584 30.3954 44.6105 30.1577 44.7658C29.92 44.9211 29.6845 45.0796 29.4511 45.2412C29.2177 45.4028 28.9864 45.5675 28.7574 45.7353C28.5284 45.9031 28.3017 46.074 28.0772 46.2479C27.8528 46.4218 27.6308 46.5986 27.4111 46.7785C27.1915 46.9584 26.9742 47.1411 26.7594 47.3268C26.5446 47.5124 26.3324 47.701 26.1226 47.8923C25.9129 48.0837 25.7058 48.2778 25.5013 48.4748C25.2968 48.6717 25.0949 48.8713 24.8958 49.0736C24.6966 49.2759 24.5001 49.4809 24.3064 49.6885C24.1128 49.8961 23.9219 50.1062 23.7339 50.319C23.5458 50.5316 23.3607 50.7468 23.1784 50.9645C21.8137 52.6274 21.2755 54.2245 19.3256 55.3941C18.6252 55.7787 17.896 55.9869 17.0985 56.0396C15.608 56.1382 14.102 55.5337 12.991 54.5531C11.6362 53.3573 10.9149 51.7624 10.8091 49.9707C10.5668 45.8713 13.3861 41.3895 15.9913 38.4498C19.3377 34.6735 25.2399 30.8035 30.3933 30.4874Z" fill="white"/>
<path d="M31.8358 32.3391C32.8594 32.2647 34.201 32.3915 35.16 32.7671C32.1315 32.4102 29.9004 32.8827 27.151 34.1697C25.4012 34.9888 23.2781 36.2751 21.748 37.4531C19.3237 39.3195 16.3495 42.4774 14.7206 45.079C14.5816 45.2985 14.4486 45.5216 14.3216 45.7483C14.1946 45.975 14.0739 46.2049 13.9595 46.4381C13.845 46.6714 13.7369 46.9076 13.6353 47.1467C13.5336 47.3858 13.4385 47.6275 13.35 47.8717C13.0347 48.7763 12.8612 49.6533 12.7394 50.6024C12.7217 50.5048 12.7112 50.4083 12.7049 50.3094C12.4688 46.6842 15.188 42.8993 17.4536 40.3203C20.2275 37.1631 23.4951 34.6408 27.4987 33.2613C28.9021 32.7776 30.3522 32.4371 31.8358 32.3391Z" fill="#1C1C1C"/>
<path d="M35.175 36.0214C35.4038 36.0056 35.633 35.9977 35.8624 35.9977C36.0918 35.9979 36.3209 36.006 36.5498 36.022C36.7786 36.0381 37.0066 36.0622 37.2338 36.0942C37.461 36.1261 37.6867 36.166 37.9111 36.2138C35.1604 36.3143 33.3882 36.8165 30.9043 38.0067C29.0086 38.9151 27.1426 39.9686 25.4715 41.248C23.4258 42.8141 21.6594 44.794 20.0374 46.7863C19.3201 47.6674 18.6066 48.5622 18.0085 49.5302C17.8773 49.7392 17.7521 49.9518 17.6328 50.1679C17.5135 50.3839 17.4004 50.6032 17.2934 50.8256C17.1865 51.048 17.0858 51.2732 16.9915 51.5013C16.8972 51.7293 16.8093 51.9599 16.7279 52.1928C16.489 52.9636 16.4201 53.7417 16.3559 54.5411C16.323 54.3011 16.2886 54.0593 16.2708 53.8176C16.2634 53.7048 16.2587 53.5918 16.2567 53.4787C16.2548 53.3657 16.2555 53.2526 16.259 53.1395C16.2625 53.0265 16.2687 52.9136 16.2777 52.8008C16.2866 52.6881 16.2982 52.5756 16.3126 52.4634C16.3269 52.3512 16.344 52.2394 16.3637 52.1281C16.3835 52.0167 16.4059 51.9059 16.431 51.7956C16.4561 51.6853 16.4839 51.5757 16.5143 51.4668C16.5447 51.3578 16.5777 51.2497 16.6133 51.1423C17.3513 48.8598 19.4684 46.0641 21.0223 44.2656C21.9734 43.1647 22.9608 42.0813 24.0749 41.1419C26.7934 38.8499 31.5902 36.2813 35.175 36.0214Z" fill="#1C1C1C"/>
</svg>
