<svg width="32" height="32" viewBox="0 0 32 32" fill="none" xmlns="http://www.w3.org/2000/svg">
<path fill-rule="evenodd" clip-rule="evenodd" d="M3.8382 3.83823C2.66663 5.0098 2.66663 6.89542 2.66663 10.6667V21.3333C2.66663 25.1046 2.66663 26.9902 3.8382 28.1618C5.00977 29.3333 6.89539 29.3333 10.6666 29.3333H21.3333C25.1045 29.3333 26.9901 29.3333 28.1617 28.1618C29.3333 26.9902 29.3333 25.1046 29.3333 21.3333V10.6667C29.3333 7.54156 29.3333 5.7113 28.6666 4.5092V22.6667C28.3294 22.6667 28.1607 22.6667 27.9985 22.6534C27.1642 22.5854 26.3722 22.2574 25.7342 21.7155C25.6101 21.6102 25.4909 21.4909 25.2524 21.2524L24.1617 20.1618C22.8284 18.8284 22.1617 18.1618 21.3333 18.1618C20.5049 18.1618 19.8382 18.8284 18.5049 20.1617L18.5049 20.1618L18.0888 20.5778C17.1424 21.5242 16.6692 21.9974 16.1482 21.8971C15.6271 21.7967 15.3635 21.1816 14.8363 19.9514L14.3273 18.7638C13.2728 16.3033 12.7456 15.0731 11.7035 14.8725C10.6615 14.6718 9.71509 15.6182 7.82228 17.511L4.66663 20.6667V3.25153C4.35307 3.40393 4.08038 3.59605 3.8382 3.83823Z" fill="#444444"/>
<path d="M3.66663 10.6667C3.66663 8.75279 3.66875 7.41798 3.80416 6.41085C3.93569 5.43248 4.17629 4.91438 4.54531 4.54537C4.91432 4.17635 5.43242 3.93575 6.41079 3.80422C7.41792 3.66881 8.75274 3.66669 10.6666 3.66669H21.3333C23.2472 3.66669 24.582 3.66881 25.5891 3.80422C26.5675 3.93575 27.0856 4.17635 27.4546 4.54537L28.1445 3.85551L27.4546 4.54537C27.8236 4.91438 28.0642 5.43248 28.1958 6.41085C28.3312 7.41798 28.3333 8.7528 28.3333 10.6667V21.3334C28.3333 23.2472 28.3312 24.5821 28.1958 25.5892C28.0642 26.5676 27.8236 27.0857 27.4546 27.4547C27.0856 27.8237 26.5675 28.0643 25.5891 28.1958C24.582 28.3312 23.2472 28.3334 21.3333 28.3334H10.6666C8.75273 28.3334 7.41792 28.3312 6.41078 28.1958C5.43242 28.0643 4.91432 27.8237 4.54531 27.4547L3.85545 28.1445L4.54531 27.4547C4.17629 27.0857 3.93569 26.5676 3.80416 25.5892C3.66875 24.5821 3.66663 23.2472 3.66663 21.3334V10.6667Z" stroke="#444444" stroke-width="2"/>
<circle cx="20" cy="12" r="2.66667" fill="#444444"/>
</svg>
