<svg width="241" height="241" viewBox="0 0 241 241" fill="none" xmlns="http://www.w3.org/2000/svg">
<g opacity="0.25">
<path d="M140.841 135.41C141.422 135.9 141.767 137.423 142.011 138.156L140.354 138.189L139.282 138.252C139.834 137.32 140.342 136.372 140.841 135.41Z" fill="white"/>
<path d="M162.929 17.4405C163.164 17.4185 163.403 17.396 163.64 17.4071C164.095 17.4285 164.458 17.6009 164.752 17.9528C164.784 17.9906 164.814 18.0298 164.841 18.0705C164.869 18.1112 164.895 18.1531 164.918 18.1964C164.942 18.2396 164.963 18.2839 164.982 18.3292C165.001 18.3746 165.018 18.4208 165.033 18.4678C165.047 18.5148 165.059 18.5624 165.069 18.6107C165.079 18.6589 165.086 18.7075 165.091 18.7565C165.096 18.8054 165.099 18.8545 165.099 18.9037C165.099 18.9529 165.097 19.002 165.092 19.051C165.062 19.3271 164.925 19.6474 164.684 19.801C164.363 20.0046 164.154 19.9036 163.819 19.8323C163.094 19.5947 161.976 19.5591 161.443 18.9781C161.313 18.8366 161.363 18.7423 161.368 18.5644C161.729 18.009 162.357 17.7364 162.929 17.4405Z" fill="white"/>
<path d="M176.972 85.3826C177.389 85.3762 177.771 85.3814 178.183 85.4528C178.16 86.6208 177.618 88.0651 177.375 89.2305C176.95 91.2704 176.61 93.3308 176.255 95.3837C176.197 95.571 176.088 95.7524 176.001 95.9284L175.854 95.9611C175.6 95.0617 176.129 93.4788 176.28 92.5456C176.664 90.1696 176.81 87.7808 176.972 85.3826Z" fill="white"/>
<path d="M176.342 97.8493C176.457 98.3132 176.404 98.9017 176.437 99.3851C176.574 101.404 176.843 102.963 178.077 104.612C178.098 104.88 178.073 104.846 177.932 105.053C177.514 105.179 177.501 105.174 177.092 105.022L174.944 103.861C175.258 101.825 175.29 99.6758 176.342 97.8493Z" fill="white"/>
<path d="M87.3757 74.7781C87.702 74.8155 88.1711 74.8919 88.4304 75.1032C88.8785 75.4686 89.0305 76.2222 89.0373 76.7664C89.0529 78.0183 88.6422 79.2756 87.7779 80.1856C87.5355 80.1858 87.29 80.1788 87.0817 80.0396C86.5734 79.6998 86.4176 78.9733 86.3835 78.4072C86.3093 77.1848 86.5755 75.7216 87.3757 74.7781Z" fill="white"/>
<path d="M228.136 81.7862C228.924 82.1549 229.558 82.9606 230.023 83.6845C230.972 85.1633 231.749 87.1384 231.376 88.9088C230.545 87.7775 229.453 86.7824 228.129 86.2802C228.22 84.7366 228.354 83.3293 228.136 81.7862Z" fill="white"/>
<path d="M90.166 68.6376C90.696 68.6819 91.1646 68.926 91.526 69.3154C92.142 69.9786 92.363 70.9701 92.293 71.8521C92.2257 72.7007 91.9823 73.1667 91.3538 73.7257C91.2202 73.7413 91.0873 73.7561 90.9531 73.7637C90.5867 73.7844 90.3959 73.6515 90.137 73.4093C89.4378 72.7551 89.1911 71.7301 89.1989 70.8019C89.2069 69.8301 89.4875 69.3159 90.166 68.6376Z" fill="white"/>
<path d="M228.071 116.601L228.216 116.632C228.196 116.705 228.188 116.781 228.156 116.849C227.472 118.295 222.67 120.961 221.147 121.652L221.061 121.648L221.005 121.509C221.374 120.423 221.658 119.303 221.752 118.16C224.038 118.039 226.001 117.584 228.071 116.601Z" fill="white"/>
<path d="M216.173 68.7526C216.213 68.7618 216.254 68.7679 216.293 68.78C217.607 69.1861 219.888 71.0005 220.525 72.2322C220.652 72.4783 220.658 72.4819 220.563 72.7523C220.169 72.8574 219.754 72.6367 219.386 72.4984C217.893 72.0051 216.346 71.7212 214.804 71.4371L214.113 70.5405L216.173 68.7526Z" fill="white"/>
<path d="M182.827 106.992C182.863 106.991 182.899 106.99 182.935 106.991C183.251 107.001 183.702 106.997 183.927 107.243C184.579 107.954 184.83 109.541 185.314 110.426C185.789 111.295 186.601 112.049 187.272 112.775C187.027 113.105 186.786 113.511 186.425 113.716C186.04 113.661 185.981 113.509 185.72 113.232C184.329 111.747 182.133 110.229 181.033 108.601C180.993 108.272 180.993 108.106 181.186 107.825C181.556 107.289 182.223 107.09 182.827 106.992Z" fill="white"/>
<path d="M35.5286 82.6185L35.7621 82.6866C35.9103 82.9349 35.9331 86.645 36.0165 87.3732C36.5006 91.5986 39.8994 95.2977 43.0708 97.8234L42.1101 98.5391L41.9591 98.5989C41.5939 98.5949 41.3421 98.3565 41.0719 98.1362C37.7879 95.4588 35.0648 90.9647 34.7133 86.7136C34.5943 85.2765 34.5425 83.7738 35.5286 82.6185Z" fill="white"/>
<path d="M101.671 102.401C101.932 102.434 102.147 102.477 102.383 102.599C105.925 104.423 111.027 112.304 112.262 116.051C112.192 115.98 112.123 115.908 112.055 115.835C110.272 113.94 108.727 111.841 107.049 109.855C105.402 107.904 103.359 105.996 102.053 103.803C101.764 103.317 101.657 102.966 101.671 102.401Z" fill="white"/>
<path d="M232.624 92.7664C232.634 92.7758 232.645 92.785 232.654 92.7949C232.748 92.895 232.84 92.9972 232.93 93.1017C233.019 93.2059 233.106 93.3123 233.19 93.4206C233.275 93.529 233.357 93.6393 233.436 93.7516C233.515 93.8638 233.592 93.9777 233.666 94.0934C233.74 94.2092 233.811 94.3267 233.879 94.4459C233.948 94.5649 234.014 94.6855 234.076 94.8077C234.139 94.9298 234.199 95.0533 234.257 95.1783C234.314 95.3032 234.368 95.4294 234.419 95.5569C234.47 95.6844 234.519 95.813 234.564 95.9428C234.609 96.0725 234.651 96.2032 234.691 96.3348C234.73 96.4665 234.766 96.5991 234.799 96.7324C234.832 96.8658 234.862 96.9998 234.888 97.1346C234.915 97.2693 234.939 97.4046 234.959 97.5405C234.98 97.6763 234.997 97.8126 235.011 97.9492C235.025 98.0859 235.036 98.2228 235.044 98.3601C235.052 98.4972 235.056 98.6344 235.057 98.7719C235.061 100.411 234.581 102.679 233.386 103.882L233.201 103.839C232.385 102.641 231.618 101.843 230.347 101.131C232.21 98.1634 232.689 96.2281 232.624 92.7664Z" fill="white"/>
<path d="M15.2139 115.64C16.1284 116.032 16.9962 116.63 17.9187 117.047C20.6201 118.267 23.4957 118.966 26.4124 119.427C26.9949 121.209 27.7361 122.836 28.5559 124.517C24.2483 122.755 17.9666 119.377 15.2139 115.64Z" fill="white"/>
<path d="M215.802 73.5109C218.564 73.8456 221.637 74.8579 223.606 76.9138C225.877 79.2843 226.557 82.2639 226.498 85.4374C225.624 85.5576 224.786 85.6911 223.938 85.9371L223.142 84.7191C222.386 83.7292 221.654 82.9565 220.653 82.2147C222.198 81.6728 223.799 81.3237 225.338 80.7665C222.056 77.6194 219.621 75.9025 215.802 73.5109Z" fill="white"/>
<path d="M206.764 44.1887L206.751 44.4191C205.708 45.8025 204.558 47.1007 203.526 48.4919C202.082 50.4371 200.854 52.5219 199.692 54.6441C199.255 55.4427 196.947 60.8575 196.769 60.9923L196.726 60.6552C196.552 59.2692 196.29 57.9825 195.847 56.6562C198.376 51.8859 201.826 46.6932 206.764 44.1887Z" fill="white"/>
<path d="M181.319 47.653C183.791 49.5944 190.957 63.5762 192.631 67.1676C191.587 66.2432 190.781 65.0083 189.72 64.0735C188.709 63.1827 187.305 62.5078 186.47 61.4531C185.389 60.0862 182.191 50.1153 181.319 47.653Z" fill="white"/>
<path d="M118.675 61.0649C119.14 60.9975 119.777 61.0842 120.187 61.3268C120.519 61.5235 120.716 61.8006 120.807 62.1712C121.225 63.8878 119.518 66.8295 118.625 68.24C117.275 66.7009 116.225 65.3762 114.507 64.2049C113.518 63.6202 112.498 63.1806 111.372 62.9422C110.322 62.7203 108.93 62.7464 107.998 62.1883L107.972 62.0581C108.367 61.7655 117.52 61.1438 118.675 61.0649Z" fill="white"/>
<path d="M83.0226 37.4217C83.086 37.4448 83.1508 37.4648 83.213 37.4914C83.5998 37.6577 84.0731 38.0073 84.2083 38.4239C84.2611 38.5866 84.2545 38.9042 84.1694 39.0602C83.8809 39.59 82.3223 40.2722 81.7675 40.7043C80.9341 41.3642 80.1496 42.0778 79.4138 42.845C75.9161 46.5034 73.5033 51.0593 71.0325 55.4286C70.807 55.8322 70.5217 56.2105 70.2598 56.5912C70.3505 55.6668 70.4784 54.7678 70.7217 53.8693C72.4745 47.3997 77.1439 40.77 83.0226 37.4217Z" fill="white"/>
<path d="M189.273 113.741C189.861 113.815 190.381 114.263 190.974 114.389C192.29 114.67 193.648 114.663 194.958 115.014C195.338 115.841 195.544 116.769 195.842 117.63C196.307 118.975 196.983 120.122 197.751 121.312L196.077 121.849L194.352 122.186C192.139 119.948 189.937 117.659 187.85 115.303C188.292 114.736 188.753 114.238 189.273 113.741Z" fill="white"/>
<path d="M204.702 83.823C206.594 84.4897 208.494 84.5326 210.476 84.5451C210.574 85.0231 210.62 85.5048 210.645 85.9915C210.766 88.3693 209.912 90.298 208.354 92.0443C207.195 93.1207 206.067 93.6253 204.594 94.165C204.894 90.6987 204.849 87.2974 204.702 83.823Z" fill="white"/>
<path d="M199.162 122.53C201.913 123.922 204.141 124.083 207.109 123.297C208.028 124.434 208.031 125.268 208.01 126.673C206.97 127.184 205.842 127.485 204.736 127.814L200.623 129.074C199.179 127.4 197.484 125.874 196.23 124.051C197.352 123.719 198.194 123.166 199.162 122.53Z" fill="white"/>
<path d="M200.211 71.1942C200.675 71.1292 201.192 71.136 201.66 71.1372C207.248 71.1506 212.125 73.5267 216.766 76.405C218.106 77.2359 219.639 78.1311 220.751 79.2504C220.107 78.9102 219.467 78.5616 218.833 78.2046C213.29 75.1701 207.635 74.6803 201.442 75.1249C200.152 73.9964 198.977 72.7081 197.8 71.4639C198.6 71.3407 199.406 71.2717 200.211 71.1942Z" fill="white"/>
<path d="M166.536 94.2744C166.996 94.2979 167.462 94.3177 167.909 94.4367C169.593 94.8845 171.176 96.143 171.974 97.7035C172.426 98.5874 173.12 100.962 172.752 101.909C172.676 102.105 172.639 102.077 172.464 102.16C171.078 101.768 169.713 100.752 168.352 100.185C165.627 99.068 162.791 98.4343 159.898 97.9457C161.748 95.8235 163.699 94.549 166.536 94.2744Z" fill="white"/>
<path d="M176.957 62.3597C177.887 62.2569 178.875 62.2805 179.811 62.2727C181.351 62.26 183 62.3382 184.474 62.8233C187.88 63.9442 190.823 67.5022 193.314 69.9675C190.898 68.5413 188.229 67.509 185.58 66.6032C178.41 64.3878 172.989 64.657 165.616 64.6931C169.079 63.0016 173.169 62.6923 176.957 62.3597Z" fill="white"/>
<path d="M182.642 92.2021C183.185 92.7195 183.396 95.0529 183.832 95.9201C184.469 97.1915 185.422 98.2125 186.393 99.2345C185.029 100.952 184.257 102.821 183.774 104.945L182.594 105.08C182.336 105.088 182.063 105.102 181.807 105.065C181.13 104.97 180.36 104.207 179.981 103.678C178.637 101.796 178.479 98.9367 178.84 96.727C179.23 94.3325 180.826 93.492 182.642 92.2021Z" fill="white"/>
<path d="M194.422 74.2864C194.728 75.413 194.794 76.716 194.988 77.8793C195.325 79.8417 195.774 81.7786 196.332 83.6899C197.794 88.7186 200.025 93.5641 201.249 98.6541L200.145 97.0653C197.573 93.6618 194.276 89.252 192.691 85.2888C191.081 81.2653 192.861 77.9639 194.422 74.2864Z" fill="white"/>
<path d="M215.014 58.9433C217.816 58.5816 220.808 59.0537 223.518 59.7428C215.634 61.0574 209.412 62.7536 202.305 66.5429C200.446 67.5799 198.795 69.0452 196.9 69.9706C197.738 68.433 199.027 66.9071 200.172 65.5775C204.077 61.0421 209.195 59.3767 215.014 58.9433Z" fill="white"/>
<path d="M218.673 114.87C218.763 114.875 218.848 114.949 218.925 114.995C219.526 116.026 219.847 117.166 219.784 118.362C219.693 120.087 219.006 121.855 217.681 123.009C215.814 124.636 212.767 124.846 210.413 124.724C210.231 124.679 210.025 124.643 209.876 124.522C209.389 124.128 209.3 123.072 209.184 122.488L209.517 122.273C212.13 120.571 213.94 118.4 214.596 115.302C216.045 115.353 217.258 115.192 218.673 114.87Z" fill="white"/>
<path d="M207.291 44.3925C207.257 45.6418 206.286 48.6712 206.094 50.2948C205.74 53.2777 205.967 56.2785 205.849 59.2709C202.142 61.2703 199.656 63.1964 197.229 66.6953C197.167 65.8078 197.587 64.624 197.82 63.7463C199.55 57.2178 203.168 49.7301 207.291 44.3925Z" fill="white"/>
<path d="M225.389 87.3351C226.747 87.4722 228.255 88.4456 229.1 89.4685C230.422 91.0698 230.978 93.5066 230.769 95.5482C230.526 97.9148 229.253 99.7328 227.457 101.215C227.056 101.499 226.648 101.704 226.204 101.915C225.243 100.19 224.213 98.9052 222.788 97.5454C223.739 95.9437 224.512 94.1545 224.849 92.3148C225.133 90.7649 224.395 88.5848 225.389 87.3351Z" fill="white"/>
<path d="M228.599 102.704C229.001 102.736 229.348 102.842 229.698 103.043C230.98 103.779 231.814 105.074 232.193 106.481C232.65 108.178 232.17 109.803 231.288 111.263C229.778 113.762 227.508 115.19 224.723 115.895C223.68 116.109 222.625 116.164 221.563 116.179C221.259 115.557 221.034 114.924 220.809 114.27C221.654 113.751 222.467 113.257 223.202 112.583C225.715 110.276 226.618 107.284 226.755 103.966C227.32 103.44 227.929 103.074 228.599 102.704Z" fill="white"/>
<path d="M181.307 46.9575C182.033 47.1052 182.753 47.5229 183.416 47.8518C183.887 48.0814 184.352 48.3219 184.811 48.5734C185.27 48.8248 185.724 49.0869 186.171 49.3595C186.618 49.6322 187.059 49.9151 187.492 50.2083C187.926 50.5017 188.353 50.805 188.773 51.1184C189.192 51.4317 189.604 51.7547 190.009 52.0873C190.413 52.4199 190.81 52.7619 191.198 53.113C191.587 53.4642 191.967 53.8243 192.339 54.1934C192.71 54.5623 193.073 54.9398 193.427 55.3259C197.434 59.6931 195.6 63.9437 195.394 69.1724C195.396 69.3119 195.368 69.3995 195.328 69.5317C194.977 69.1889 192.656 63.8758 192.185 62.9575C189.26 57.2597 185.917 51.4755 181.307 46.9575Z" fill="white"/>
<path d="M223.909 60.2375L223.921 60.2425L223.924 60.3523C221.848 61.395 219.561 63.1785 217.923 64.8132C214.738 67.9912 213.778 70.0392 209.103 70.9113C206.793 69.9741 204.667 69.4917 202.176 69.3816C201.55 69.3845 200.921 69.4688 200.298 69.5279C206.792 65.1365 216.221 61.6541 223.909 60.2375Z" fill="white"/>
<path d="M204.085 76.512C206.203 76.3982 208.422 76.3169 210.536 76.5056C214.377 76.8489 218.787 78.2136 222.042 80.3051C220.996 80.4931 219.964 80.7736 218.933 81.0288C213.214 82.3308 209.495 84.2706 204.06 81.0123C203.818 79.3592 203.579 77.9902 202.677 76.5638L204.085 76.512Z" fill="white"/>
<path d="M177.731 73.4734C178.811 73.5755 180.055 74.1757 181.1 74.5138C182.399 74.935 183.602 75.1593 184.962 75.2985C183.369 76.6375 180.883 77.1485 178.918 77.7983C175.899 78.7962 172.207 79.9788 169.65 81.8995C173.497 80.568 177.305 79.3017 181.251 78.2946L182.552 77.9606C181.345 79.731 180.326 81.6335 179.288 83.5055C177.362 83.5047 175.432 83.6475 173.506 83.7003C171.094 83.7665 168.687 83.7665 166.275 83.8838C169.742 80.0238 173.867 76.9094 177.731 73.4734Z" fill="white"/>
<path d="M196.111 72.6046C197.129 73.2372 200.913 76.9544 201.69 77.9436C202.15 78.5293 202.435 79.0833 202.616 79.8075C203.015 81.3989 202.952 83.1554 202.973 84.7884C203.034 89.3677 202.88 93.7931 202.3 98.3428C202.276 98.5487 202.232 98.7064 202.155 98.8986C202.126 98.8722 202.094 98.8491 202.068 98.8194C201.465 98.1325 200.807 94.7712 200.536 93.7818C198.651 86.8905 196.17 79.8275 196.111 72.6046Z" fill="white"/>
<path d="M190.85 86.3209C191.196 86.4879 192.577 89.3071 192.91 89.8838C194.483 92.6003 196.332 95.0979 198.279 97.5555C196.617 98.8993 194.908 99.5078 192.776 99.5613C192.353 99.5525 191.92 99.5295 191.501 99.4656C189.575 99.1721 187.575 97.9624 186.435 96.3833C185.457 95.0273 184.869 92.7727 185.202 91.1067C185.507 89.5754 189.495 87.2677 190.85 86.3209Z" fill="white"/>
<path d="M120.776 100.521C122.131 100.366 123.427 100.639 124.734 100.966C122.449 104.367 121.916 106.908 122.408 110.941C119.765 111.03 117.135 111.268 114.519 111.657L112.013 112.235C111.723 111.496 111.313 110.805 110.935 110.109C111.369 108.012 112.179 105.906 113.536 104.228C115.405 101.919 117.872 100.825 120.776 100.521Z" fill="white"/>
<path d="M165.535 64.9122C167.743 64.9668 169.946 65.2066 172.139 65.4491C179.536 66.2668 185.598 67.722 192.244 71.1989C191.35 71.4994 190.466 71.8261 189.592 72.1792C188.211 72.8202 187.032 73.6153 185.792 74.4876C180.468 75.0525 176.816 70.9115 172.56 68.456C170.28 67.141 167.803 66.21 165.535 64.9122Z" fill="white"/>
<path d="M221.428 99.1523C221.793 99.185 222.074 99.3761 222.355 99.5959C223.641 100.6 224.532 102.344 224.751 103.957C225.044 106.113 224.341 108.311 223.037 110.025C221.301 112.309 219.124 113.057 216.376 113.423C215.876 113.431 215.374 113.411 214.875 113.401C214.426 111.411 213.83 110.003 212.743 108.283C214.77 106.168 215.902 104.506 216.485 101.591C218.408 100.991 219.829 100.409 221.428 99.1523Z" fill="white"/>
<path d="M193.169 72.6826C193.201 72.7349 193.265 72.778 193.265 72.8395C193.265 72.998 192.327 74.628 192.18 74.914C190.573 78.0482 190.292 80.3642 190.343 83.8178C189.232 85.0518 187.924 86.0297 186.616 87.0408C184.102 88.9855 180.316 91.6542 178.207 93.8943C178.15 93.8868 178.125 93.8128 178.087 93.7685C178.833 90.2869 179.851 86.947 181.35 83.7106C184.242 77.4684 186.717 75.0549 193.169 72.6826Z" fill="white"/>
<path d="M218.042 83.047C218.318 83.0314 218.518 83.1438 218.753 83.2757C220.787 84.4173 222.105 85.9352 222.734 88.2064C223.418 90.6808 222.927 93.6199 221.649 95.8247C220.485 97.8318 218.692 99.042 216.475 99.627C216.151 99.2208 216.115 98.4608 215.984 97.952C215.326 95.3973 213.762 93.6333 211.793 91.9701C213.172 89.4107 213.56 87.2172 213.033 84.3658C214.75 84.0489 216.388 83.5926 218.042 83.047Z" fill="white"/>
<path d="M210.013 93.3829C210.434 93.4962 210.818 93.6553 211.189 93.8875C212.86 94.9326 213.939 96.8076 214.338 98.7038C214.787 100.844 214.433 103.097 213.215 104.929C211.756 107.123 209.369 108.296 206.851 108.809C206.062 108.945 204.232 109.222 203.527 108.802C203.198 108.606 203.232 108.601 203.288 108.261C203.694 105.795 203.336 104.055 202.688 101.687C203.447 99.971 203.924 98.1631 204.309 96.3319C206.578 95.7437 208.208 94.8718 210.013 93.3829Z" fill="white"/>
<path d="M211.02 109.317C211.831 109.953 212.436 111.165 212.685 112.143C212.713 112.258 212.739 112.373 212.762 112.49C212.786 112.606 212.806 112.722 212.823 112.839C212.84 112.956 212.855 113.074 212.866 113.192C212.878 113.31 212.887 113.428 212.892 113.546C212.898 113.664 212.901 113.782 212.9 113.901C212.9 114.019 212.897 114.137 212.891 114.255C212.885 114.374 212.876 114.492 212.864 114.61C212.853 114.727 212.838 114.845 212.82 114.962C212.803 115.079 212.782 115.195 212.759 115.311C212.735 115.427 212.709 115.543 212.68 115.657C212.651 115.772 212.619 115.886 212.584 115.999C212.55 116.112 212.512 116.225 212.472 116.336C212.432 116.447 212.388 116.557 212.343 116.667C212.297 116.776 212.249 116.884 212.197 116.991C212.146 117.097 212.093 117.203 212.037 117.307C211.98 117.411 211.922 117.514 211.86 117.615C210.651 119.62 208.664 120.936 206.413 121.489C204.081 122.062 201.97 121.812 199.909 120.553C199.857 120.51 199.804 120.468 199.753 120.425C198.05 118.978 197.193 116.753 197.024 114.574C199.521 113.734 201.069 112.644 202.606 110.496C205.64 110.943 208.256 110.625 211.02 109.317Z" fill="white"/>
<path d="M198.22 99.6317C198.436 99.6138 198.551 99.6183 198.751 99.7024C199.968 100.212 200.776 101.767 201.21 102.953C201.944 104.958 201.932 107.274 201.003 109.217C200.961 109.308 200.916 109.398 200.869 109.487C200.822 109.576 200.772 109.664 200.721 109.75C200.669 109.837 200.616 109.922 200.56 110.005C200.504 110.089 200.446 110.171 200.386 110.252C200.326 110.333 200.264 110.412 200.2 110.49C200.136 110.567 200.07 110.643 200.002 110.718C199.934 110.792 199.865 110.865 199.793 110.935C199.722 111.006 199.648 111.075 199.573 111.142C199.498 111.209 199.422 111.274 199.344 111.338C199.265 111.401 199.185 111.462 199.104 111.521C199.022 111.58 198.939 111.637 198.855 111.692C198.771 111.747 198.685 111.8 198.598 111.851C198.511 111.901 198.423 111.95 198.334 111.996C198.244 112.042 198.154 112.086 198.062 112.127C197.971 112.169 197.878 112.208 197.784 112.245C197.691 112.282 197.596 112.316 197.501 112.348C194.978 113.218 191.958 112.968 189.585 111.799C189.14 111.533 188.716 111.235 188.314 110.908C188.226 110.834 188.14 110.759 188.056 110.682C187.972 110.604 187.89 110.525 187.81 110.443C187.729 110.362 187.651 110.278 187.575 110.193C187.499 110.107 187.425 110.02 187.354 109.93C187.282 109.841 187.213 109.75 187.146 109.658C187.079 109.565 187.014 109.471 186.952 109.375C186.889 109.279 186.829 109.182 186.772 109.083C186.715 108.984 186.66 108.884 186.607 108.782C186.555 108.68 186.505 108.577 186.458 108.473C186.41 108.369 186.366 108.264 186.324 108.157C186.282 108.051 186.242 107.943 186.206 107.835C186.169 107.727 186.135 107.618 186.104 107.508C186.073 107.398 186.044 107.287 186.019 107.175C185.993 107.064 185.97 106.952 185.95 106.839C185.93 106.726 185.913 106.613 185.899 106.5C185.884 106.387 185.873 106.273 185.864 106.159C185.664 103.819 186.521 102.001 187.991 100.264C188.553 100.51 189.111 100.737 189.7 100.908C192.879 101.83 195.393 101.181 198.22 99.6317Z" fill="white"/>
<path d="M151.698 88.029C153.143 87.8552 154.704 88.1671 156.038 88.7233C158.573 89.7808 160.067 91.6928 161.076 94.1897C159.769 95.3281 158.678 96.4674 157.658 97.87C154.343 97.8606 151.042 98.5414 148.111 100.107C146.74 100.934 145.582 101.812 144.493 102.99C143.707 100.73 143.021 99.2208 141.291 97.5322C141.551 95.8103 142.145 94.1799 143.183 92.7701C145.197 90.0357 148.409 88.536 151.698 88.029Z" fill="white"/>
<path d="M134.577 97.6858C136.126 97.5688 137.821 97.9912 139.127 98.8367C141.364 100.285 141.984 102.905 142.485 105.344C142.09 106.076 141.737 106.829 141.426 107.601C141.115 108.373 140.848 109.161 140.625 109.963C140.142 111.694 140.001 113.539 139.054 115.093C138.921 113.68 138.912 111.855 138.242 110.581C138.073 110.258 137.93 110.107 137.583 110.002L137.343 110.16C136.54 111.572 137.035 114.044 137.288 115.574C137.226 115.793 137.283 115.692 137.105 115.868C136.06 115.691 134.774 114.404 133.833 113.833C131.109 112.182 127.935 111.262 124.768 111.032C124.713 110.754 124.666 110.474 124.626 110.193C124.225 107.282 124.841 104.945 126.625 102.601C128.594 100.013 131.323 98.1339 134.577 97.6858Z" fill="white"/>
<path d="M108.518 64.691C109.648 64.6316 110.666 64.7612 111.712 65.205C116.181 67.1019 118.463 72.075 120.143 76.2934C115.263 79.3774 111.465 82.423 109.842 88.2345C108.441 93.2541 109.542 97.8889 112.036 102.342C111.541 103.011 111.095 103.692 110.663 104.403C110.076 103.712 109.52 102.994 108.955 102.286C108.218 101.367 107.474 100.478 106.672 99.614C107.54 95.5552 107.962 91.4542 106.535 87.4569C105.013 83.1921 101.767 79.4077 97.9559 77.0076C96.3969 76.0257 94.7129 75.2655 93.0542 74.4711C94.0585 72.7832 93.8114 71.3009 93.5704 69.4596C95.7323 68.46 97.7411 66.8929 100.01 66.1648C101.554 65.6693 103.124 66.0536 104.693 65.7923C105.987 65.577 107.228 64.9791 108.518 64.691Z" fill="white"/>
<path d="M80.8372 75.2026C82.2642 75.2243 83.664 75.245 85.0624 75.5657C84.925 77.0289 84.7853 78.2958 85.2268 79.727C82.626 78.807 79.9792 77.6482 77.5417 76.3612C78.4063 78.6843 80.64 80.2886 82.8029 81.3131C86.2344 82.9389 91.1032 83.4129 94.6918 82.0171C94.9469 81.9179 95.2037 81.8477 95.318 81.594C94.1933 80.8003 90.6784 80.6448 89.2534 80.4794C90.3526 79.1003 90.4435 77.6616 90.5802 75.9845C94.3434 76.9344 98.5911 79.5234 101.089 82.4849C104.095 86.0493 105.477 90.1493 105.09 94.8054C105.027 95.7696 104.871 96.7093 104.662 97.6517C104.234 97.2257 103.796 96.8121 103.345 96.4106C102.895 96.009 102.434 95.6203 101.962 95.2445C101.49 94.8687 101.008 94.5063 100.516 94.1573C100.024 93.8082 99.5229 93.473 99.0121 93.1518C98.5015 92.8307 97.9824 92.5239 97.4547 92.2317C96.9268 91.9394 96.3914 91.662 95.8483 91.3996C95.3052 91.137 94.7552 90.8898 94.1982 90.658C93.6413 90.426 93.0784 90.2097 92.5094 90.0092C84.1611 87.1304 76.2215 88.231 68.4327 92.0347C66.8008 90.7308 65.0273 89.7986 63.1392 88.9302C63.2532 88.5969 63.3758 88.2667 63.5069 87.9396C63.638 87.6126 63.7774 87.2891 63.9251 86.9692C64.0728 86.6495 64.2287 86.3336 64.3927 86.0217C64.5567 85.71 64.7286 85.4026 64.9084 85.0997C65.0882 84.7965 65.2757 84.4984 65.4709 84.2051C65.666 83.9118 65.8686 83.6237 66.0787 83.3408C66.2887 83.0578 66.5059 82.7804 66.7301 82.5087C66.9544 82.237 67.1855 81.9713 67.4234 81.7115C70.8582 78.0054 75.7506 75.4038 80.8372 75.2026Z" fill="white"/>
<path d="M127.978 76.6128C129.983 76.4974 132.013 76.5897 133.973 77.047C139.778 78.4006 143.788 82.1141 146.871 87.0314C146.269 87.3369 145.679 87.6538 145.108 88.0147C141.992 89.9828 140.053 92.6583 139.25 96.2483C138.605 96.0224 137.949 95.8169 137.279 95.6791C133.913 94.9877 130.682 96.1117 127.873 97.9287C127.322 98.2882 126.811 98.7141 126.291 99.1172C125.352 98.7325 124.332 98.5179 123.327 98.3916C119.983 97.9718 116.709 98.6531 114.033 100.752C112.595 98.8034 111.764 96.1296 111.589 93.7313C111.297 89.7307 112.752 85.899 115.364 82.8995C115.463 82.7855 115.562 82.6727 115.664 82.561C115.765 82.4493 115.868 82.339 115.972 82.23C116.076 82.1209 116.181 82.0131 116.288 81.9068C116.395 81.8003 116.503 81.6952 116.612 81.5913C116.721 81.4875 116.832 81.3851 116.944 81.2841C117.055 81.1832 117.169 81.0835 117.283 80.9852C117.397 80.8869 117.513 80.7901 117.629 80.6947C117.746 80.5994 117.864 80.5055 117.983 80.413C118.102 80.3205 118.222 80.2295 118.344 80.1402C118.465 80.0506 118.587 79.9626 118.711 79.8761C118.834 79.7897 118.959 79.7048 119.084 79.6214C119.21 79.538 119.336 79.4562 119.464 79.3759C119.592 79.2957 119.72 79.217 119.85 79.1399C119.979 79.0629 120.11 78.9875 120.241 78.9137C120.373 78.8399 120.505 78.7677 120.638 78.697C120.771 78.6265 120.905 78.5576 121.04 78.4904C121.175 78.4232 121.311 78.3576 121.447 78.2937C121.584 78.2299 121.721 78.1678 121.859 78.1073C121.997 78.0467 122.136 77.9879 122.276 77.9309C122.415 77.8739 122.555 77.8186 122.696 77.765C122.837 77.7115 122.979 77.6596 123.121 77.6095C123.263 77.5594 123.406 77.5111 123.549 77.4647C123.693 77.4182 123.836 77.3734 123.981 77.3304C124.125 77.2875 124.27 77.2464 124.416 77.2069C124.561 77.1675 124.707 77.13 124.854 77.0943C125 77.0585 125.147 77.0245 125.294 76.9923C125.442 76.9603 125.589 76.93 125.737 76.9014C125.885 76.873 126.034 76.8463 126.182 76.8215C126.331 76.7967 126.48 76.7738 126.629 76.7527C126.778 76.7317 126.928 76.7124 127.078 76.695C127.227 76.6776 127.377 76.662 127.527 76.6484C127.677 76.6347 127.828 76.6228 127.978 76.6128Z" fill="white"/>
<path d="M60.3306 50.0121C63.4134 49.7346 66.4303 50.1188 69.4031 50.9384C68.8558 52.6219 68.4831 54.3136 68.1307 56.0451C65.4481 54.9588 62.9983 53.0452 60.5801 51.4687C61.5047 54.3393 64.3473 56.3005 66.8701 57.7008C71.1683 60.0863 76.4773 61.2642 81.311 59.8728C78.4207 58.7951 75.1981 58.5859 72.2232 57.7269L74.4947 53.5939C75.0767 53.8255 75.6461 54.0849 76.2027 54.372C76.7594 54.6591 77.3009 54.9725 77.8272 55.3122C78.3534 55.6519 78.8618 56.0164 79.3526 56.4058C79.8434 56.795 80.3141 57.2071 80.7647 57.6421C84.8758 61.6265 86.969 67.2854 87.0858 72.9488C85.4938 73.4475 84.7795 73.2004 83.1893 73.0381C79.8349 72.6755 76.353 73.4817 73.3036 74.8629C67.4939 77.4941 63.2824 82.1671 61.0366 88.1042L58.7171 87.4208C58.3465 86.0222 58.1404 84.5717 57.7898 83.1641C55.6823 74.7036 49.6166 67.8459 42.2749 63.4257C43.046 61.3655 44.3169 59.3032 45.7274 57.6193C45.8401 57.484 45.9546 57.3503 46.0708 57.2181C46.1869 57.0857 46.3046 56.9548 46.424 56.8254C46.5433 56.6959 46.6643 56.568 46.787 56.4416C46.9095 56.3152 47.0335 56.1902 47.159 56.0668C47.2846 55.9433 47.4118 55.8215 47.5404 55.7014C47.669 55.5811 47.7991 55.4624 47.9307 55.3454C48.0622 55.2284 48.1951 55.1131 48.3296 54.9994C48.464 54.8855 48.5998 54.7734 48.7369 54.663C48.874 54.5525 49.0125 54.4439 49.1525 54.3369C49.2923 54.23 49.4334 54.1247 49.5758 54.0212C49.7183 53.9177 49.862 53.816 50.0069 53.7161C50.1519 53.6161 50.298 53.5179 50.4453 53.4217C50.5928 53.3252 50.7414 53.2307 50.8911 53.138C51.0407 53.0454 51.1915 52.9546 51.3434 52.8657C51.4954 52.7768 51.6485 52.6897 51.8025 52.6044C51.9566 52.5193 52.1118 52.4361 52.268 52.3547C52.4241 52.2734 52.5813 52.194 52.7394 52.1166C52.8974 52.0391 53.0565 51.9636 53.2165 51.8899C53.3764 51.8164 53.5372 51.7449 53.699 51.6753C53.8607 51.6057 54.0234 51.5382 54.1869 51.4727C54.3502 51.4071 54.5144 51.3435 54.6795 51.2821C54.8444 51.2206 55.0101 51.1611 55.1765 51.1038C55.343 51.0463 55.5101 50.9909 55.6778 50.9377C55.8457 50.8845 56.0142 50.8333 56.1832 50.7841C56.3523 50.7349 56.522 50.6879 56.6923 50.643C56.8625 50.5981 57.0332 50.5553 57.2044 50.5146C57.3758 50.4738 57.5476 50.4351 57.7199 50.3987C57.8922 50.3623 58.0648 50.3279 58.2379 50.2955C58.411 50.2633 58.5845 50.2332 58.7583 50.2053C58.9322 50.1775 59.1063 50.1517 59.2806 50.128C59.4551 50.1044 59.6299 50.083 59.805 50.0637C59.98 50.0444 60.1552 50.0272 60.3306 50.0121Z" fill="white"/>
<path d="M120.237 113.364C120.3 113.358 120.362 113.35 120.425 113.344C125.426 112.926 131.111 113.927 134.949 117.377C137.889 120.018 139.97 123.86 140.164 127.845C140.362 131.906 138.811 135.429 136.105 138.398C131.751 138.538 127.414 138.748 123.054 138.767C113.909 138.768 104.781 138.382 95.6684 137.611C95.0967 135.879 94.7454 134.278 94.6396 132.452C94.7937 128.834 95.6955 125.726 97.7333 122.704C100.254 118.965 104.397 115.423 108.915 114.528C110.303 115.916 111.539 117.511 112.66 119.117C110.699 119.503 107.105 119.436 105.489 120.389C105.432 120.598 105.389 120.566 105.496 120.727C105.985 121.462 107.305 121.956 108.146 122.067C111.102 122.457 114.488 120.686 116.78 118.955C117.698 118.262 120.899 115.713 121.054 114.597L120.907 114.422C119.908 114.289 115.824 117.384 114.694 118.036C114.103 116.812 113.536 115.576 112.993 114.33C115.354 113.731 117.815 113.543 120.237 113.364Z" fill="white"/>
<path d="M52.0365 89.2169C57.227 88.7026 62.1516 90.5197 66.4866 93.2173C60.4236 97.3574 56.2734 103.271 54.596 110.44C54.5139 110.806 54.439 111.173 54.3713 111.541C54.3036 111.91 54.2432 112.279 54.1901 112.65C54.1369 113.021 54.0911 113.393 54.0528 113.765C54.0143 114.138 53.9832 114.511 53.9595 114.885C53.9358 115.259 53.9195 115.633 53.9105 116.008C53.9016 116.382 53.9 116.757 53.9058 117.131C53.9116 117.506 53.9249 117.88 53.9456 118.254C53.9662 118.628 53.9941 119.002 54.0295 119.375C54.0648 119.748 54.1075 120.12 54.1574 120.491C54.2075 120.862 54.2648 121.233 54.3294 121.602C54.3941 121.971 54.466 122.338 54.5452 122.704C54.6243 123.07 54.7106 123.435 54.8041 123.798C54.8975 124.16 54.9981 124.521 55.1058 124.88C55.2137 125.239 55.3285 125.595 55.4503 125.949C55.5721 126.304 55.7009 126.656 55.8366 127.005C55.9723 127.354 56.1148 127.7 56.2642 128.044C57.0426 129.793 58.0384 131.421 59.0403 133.047C56.373 132.423 53.6554 131.973 50.9761 131.396C47.4648 130.64 34.831 127.647 32.4794 126.033C31.7884 125.559 31.2805 124.56 30.8256 123.855C30.6738 123.608 30.5272 123.357 30.386 123.104C30.245 122.85 30.1094 122.593 29.9792 122.334C29.849 122.074 29.7244 121.812 29.6053 121.547C29.4863 121.283 29.373 121.015 29.2654 120.746C29.1578 120.476 29.056 120.204 28.9601 119.93C28.8641 119.656 28.774 119.38 28.6898 119.103C28.6057 118.825 28.5274 118.545 28.4552 118.264C28.383 117.983 28.3168 117.7 28.2566 117.416C28.1963 117.132 28.1422 116.847 28.0943 116.561C28.0462 116.275 28.0043 115.987 27.9685 115.699C27.9328 115.411 27.9033 115.122 27.8799 114.833C27.8565 114.544 27.8393 114.254 27.8283 113.964C27.8172 113.673 27.8123 113.383 27.8137 113.093C27.8151 112.803 27.8227 112.513 27.8363 112.223C27.8502 111.933 27.8701 111.643 27.8962 111.354C27.9222 111.065 27.9545 110.776 27.993 110.488C28.7791 105.008 31.9277 99.3575 36.3785 96.009C37.5161 97.2917 38.6646 98.5523 39.8644 99.7778C38.5273 100.497 37.0659 100.996 35.6265 101.469C34.8267 101.731 33.9534 101.94 33.2213 102.357L33.2198 102.518C33.7996 102.911 34.8112 102.86 35.5012 102.826C39.414 102.631 43.6639 100.563 46.2868 97.6533C47.7875 95.9885 48.4874 94.21 48.3809 91.9609C47.3625 93.5441 46.2727 95.1114 44.9327 96.4394C43.2339 95.5689 41.8553 94.2303 40.6098 92.8093C44.1219 90.6808 47.9543 89.5382 52.0365 89.2169Z" fill="white"/>
<path d="M174.482 202.941L174.773 203.098C175.072 203.495 175.149 203.847 175.183 204.341C175.329 206.422 174.222 208.356 172.906 209.882C171.158 211.908 168.803 213.274 166.447 214.48C155.748 219.96 141.779 222.056 129.868 222.918C113.076 224.133 83.3342 222.222 70.0676 210.752C69.9318 210.623 69.7985 210.491 69.6679 210.356C67.57 208.214 66.447 206.046 66.4736 203.024C84.9658 210.392 102.169 212.867 121.973 212.828C132.467 212.807 142.797 211.989 153.06 209.739C160.477 208.112 167.452 205.772 174.482 202.941Z" fill="white"/>
<path d="M98.0059 35.4051C98.3643 35.3781 98.7231 35.3584 99.0823 35.346C99.4416 35.3336 99.8009 35.3285 100.16 35.3309C100.52 35.3331 100.879 35.3427 101.238 35.3596C101.597 35.3766 101.956 35.4009 102.313 35.4327C102.672 35.4642 103.029 35.5031 103.385 35.5493C103.742 35.5954 104.097 35.6489 104.451 35.7097C104.806 35.7705 105.159 35.8384 105.51 35.9135C105.862 35.9885 106.211 36.0708 106.559 36.1604C106.908 36.2497 107.254 36.3462 107.598 36.4499C107.942 36.5534 108.284 36.6639 108.624 36.7814C108.964 36.899 109.301 37.0235 109.635 37.1548C109.97 37.2861 110.301 37.4241 110.63 37.5689C110.959 37.7137 111.285 37.8652 111.608 38.0233C111.931 38.1815 112.25 38.3462 112.566 38.5174C112.882 38.6887 113.195 38.8663 113.503 39.0502C113.812 39.2342 114.117 39.4244 114.418 39.6208C119.83 43.1529 124.027 48.8528 125.317 55.2295C126.678 61.9587 125.324 68.2207 121.54 73.9078C120.744 72.4979 120.055 71.0015 119.313 69.5604C119.974 68.8652 120.485 68.1111 120.925 67.2595C121.696 65.7706 122.91 63.187 122.326 61.5134C122.052 60.728 121.38 60.1937 120.636 59.8726C119.97 59.585 119.282 59.4881 118.561 59.4841C117.436 59.4778 107.485 60.3807 106.705 60.72C106.342 60.8776 106.243 61.0632 106.103 61.4187C106.154 62.1172 106.54 62.4581 107.025 62.9283C104.615 63.8886 103.049 63.947 100.491 63.919C100.393 63.4895 100.172 62.7559 99.7796 62.5026C99.565 62.3641 99.369 62.3102 99.128 62.423C98.6575 62.6428 98.319 63.3109 98.1852 63.7802C98.0867 64.126 97.9748 64.4679 97.8678 64.8111C96.3863 66.0406 94.5134 66.8508 92.9098 68.1745C92.1618 67.6817 91.4273 67.4169 90.5723 67.1872C89.8343 67.3627 89.2295 67.6298 88.581 68.0117C88.2382 66.2979 87.711 64.6478 87.1755 62.987C88.6451 62.8068 90.1257 62.7721 91.6042 62.7455C92.4664 62.7542 94.1315 62.9757 94.9068 62.5955C95.1499 62.4762 95.1627 62.4386 95.2437 62.198C95.1511 61.9422 95.039 61.7792 94.8215 61.6178C93.7565 60.8269 88.1852 61.8374 86.6824 62.007C86.3776 61.4953 86.1102 60.9549 85.8287 60.4295C86.971 60.4722 95.3151 60.8295 95.528 60.7652C95.7478 60.5614 95.782 60.5358 95.8567 60.2486L95.7064 60.0373C94.0337 59.1183 87.306 59.2608 85.1172 59.2306C83.8116 57.5997 82.3249 55.8727 80.6753 54.5748C80.8544 54.0078 81.0485 53.4101 81.3093 52.8739C81.8226 51.8185 82.5583 51.4463 83.6151 51.0953C86.5997 52.3736 89.393 54.6947 92.0487 56.5622C93.1562 57.3408 94.4667 58.5126 95.7862 58.8539C96.097 58.9343 96.2541 58.9392 96.533 58.787C96.623 58.5126 96.6256 58.2808 96.4939 58.0179C95.8899 56.8115 86.2497 50.5888 84.4665 49.94C83.5775 49.6163 82.7237 49.6147 81.8645 50.0387C80.3439 50.7895 79.8727 52.2287 79.3971 53.731C78.2809 52.8443 77.0467 52.1743 75.8042 51.4859C76.1761 50.7623 76.5735 50.053 76.9962 49.3579C77.419 48.6628 77.8661 47.9837 78.3374 47.3206C78.8089 46.6575 79.3034 46.0121 79.8209 45.3843C80.3384 44.7566 80.8777 44.1482 81.4388 43.559C82.8036 42.1543 84.9813 41.0732 85.8407 39.3348C89.7617 37.2099 93.5006 35.7012 98.0059 35.4051Z" fill="white"/>
<path d="M111.659 44.2019C112.664 44.1082 113.451 44.0561 114.389 44.5207C116.161 45.3987 118.888 48.9169 119.461 50.7718C119.674 51.4602 119.683 52.2263 119.316 52.8664C119.007 53.4035 118.346 53.8328 117.814 54.1188C115.723 55.2434 113.336 56.0027 111.168 56.9938C110.156 57.4562 107.674 58.9333 106.833 59.1362C106.418 59.2363 106.042 59.2007 105.675 58.9805C105.56 58.702 105.526 58.6549 105.665 58.3613C105.841 57.9908 106.283 57.631 106.625 57.4223C107.854 56.6708 109.32 56.1115 110.643 55.5332C112.646 54.6578 114.647 53.7562 116.703 53.0125C117.122 52.844 117.498 52.6457 117.697 52.2143C117.95 51.6666 117.742 50.9386 117.507 50.4208C116.881 49.0391 114.673 46.2494 113.257 45.7467C112.886 45.615 112.351 45.5669 112.007 45.7968C110.009 47.1295 106.036 56.1191 104.653 56.7903C104.378 56.7549 104.262 56.7396 104.079 56.4974C103.888 56.2435 103.892 55.936 103.981 55.6474C104.494 53.9812 109.137 46.631 110.436 45.1294C110.795 44.7153 111.181 44.4609 111.659 44.2019Z" fill="#444444"/>
<path d="M99.1976 38.7996C100.513 38.671 102.477 38.8507 103.528 39.7054C104.242 40.2861 104.599 41.191 104.641 42.0949C104.728 43.9497 103.964 46.0631 103.661 47.9117C103.308 50.0753 103.141 52.3123 102.65 54.4467C102.59 54.7063 102.53 54.8684 102.345 55.0696C102.018 55.1454 101.962 55.1177 101.64 55.0093C100.003 53.4019 103.594 43.3626 102.96 41.6487C102.789 41.1856 102.438 40.9274 101.997 40.741C100.105 39.9408 97.4274 40.5813 95.6116 41.3361C95.3614 41.4822 95.1025 41.6306 94.8704 41.8042C94.486 42.0921 94.2888 42.535 94.3114 43.0132C94.4292 45.4904 99.1034 53.7991 98.7125 55.6593C98.6454 55.978 98.5823 56.0145 98.3347 56.1928C98.0418 56.2157 97.8918 56.2001 97.6517 56.0166C97.3839 55.8117 97.1968 55.4324 97.0651 55.1313C96.7699 54.4559 96.6208 53.6962 96.3735 52.9991C95.564 50.72 94.644 48.4608 93.811 46.1858C93.4694 45.2527 92.9705 44.1761 92.8383 43.1932C92.825 43.0969 92.8165 43.0003 92.8129 42.9032C92.8094 42.8062 92.8108 42.7091 92.8171 42.612C92.8236 42.5151 92.8349 42.4188 92.851 42.323C92.8672 42.2272 92.8883 42.1325 92.9142 42.0389C92.9401 41.9453 92.9706 41.8531 93.0058 41.7625C93.0412 41.6721 93.081 41.5836 93.1253 41.497C93.1695 41.4106 93.2182 41.3267 93.2711 41.2452C93.324 41.1637 93.3809 41.0851 93.4419 41.0094C94.7135 39.4187 97.2936 38.9909 99.1976 38.7996Z" fill="#444444"/>
<path d="M157.209 100.175C157.772 100.163 158.337 100.187 158.9 100.21C160.956 100.292 162.944 100.741 164.901 101.36C172.969 103.912 178.925 109.72 184.792 115.532C189.425 120.121 193.792 124.962 198.214 129.751C195.727 130.264 193.274 130.945 190.802 131.527C186.785 132.474 182.666 133.34 178.597 134.025C167.414 136.37 155.878 137.276 144.497 138.061C143.509 135.913 142.783 133.64 142.603 131.269C142.493 129.82 142.529 128.361 142.38 126.914C142.159 124.79 141.792 122.692 141.699 120.555C141.462 115.12 142.446 108.458 146.288 104.312C149.147 101.226 153.16 100.343 157.209 100.175Z" fill="white"/>
<path d="M183.871 119.585C184.327 119.56 184.757 119.567 185.203 119.683C185.981 119.886 186.839 120.218 187.254 120.959C187.478 121.358 187.403 121.663 187.3 122.078C187.118 122.099 186.936 122.12 186.752 122.122C185.977 122.132 185.058 121.598 184.542 121.044C184.153 120.627 183.852 120.167 183.871 119.585Z" fill="#444444"/>
<path d="M161.158 103.321C162.436 103.222 163.571 103.521 164.597 104.309C164.92 104.558 165.316 104.953 165.328 105.39C165.34 105.83 165.086 106.064 164.775 106.323C164.329 106.339 164.013 106.288 163.602 106.11C162.633 105.689 161.231 104.953 160.829 103.934C160.86 103.583 160.908 103.578 161.158 103.321Z" fill="#444444"/>
<path d="M143.998 112.694C144.167 114.817 144.448 121.953 143.883 123.573L143.708 123.425C142.487 120.139 142.753 115.932 143.998 112.694Z" fill="#444444"/>
<path d="M175.185 129.23C176.377 129.261 177.455 129.524 178.445 130.209C178.827 130.473 179.281 130.893 179.295 131.395C179.308 131.82 179.091 132.128 178.791 132.395C177.615 132.445 176.719 132.07 175.779 131.38C175.274 131.01 174.798 130.586 174.698 129.944C174.817 129.52 174.839 129.505 175.185 129.23Z" fill="#444444"/>
<path d="M171.045 113.448C172.299 113.357 173.379 113.661 174.459 114.291C174.956 114.581 175.605 115.069 175.702 115.684C175.765 116.084 175.642 116.289 175.435 116.605C174.642 116.675 174.074 116.556 173.344 116.234C172.53 115.875 171.091 115.086 170.876 114.162C170.795 113.811 170.873 113.742 171.045 113.448Z" fill="#444444"/>
<path d="M152.274 110.137C153.056 110.09 153.619 110.212 154.299 110.618C154.981 111.025 155.626 111.657 155.782 112.465C155.914 113.146 155.734 113.578 155.348 114.127C154.575 114.205 153.938 114.093 153.263 113.682C152.585 113.27 152.012 112.632 151.866 111.832C151.742 111.153 151.904 110.697 152.274 110.137Z" fill="#444444"/>
<path d="M160.695 126.395C161.113 126.345 161.482 126.32 161.89 126.445C163.116 126.821 164.407 127.755 164.985 128.921C165.329 129.616 165.304 130.102 165.066 130.82C164.765 130.898 164.458 130.959 164.146 130.92C163.106 130.787 162.051 129.804 161.463 128.994C160.884 128.195 160.527 127.384 160.695 126.395Z" fill="#444444"/>
<path d="M146.09 129.783C146.632 129.82 146.979 129.934 147.418 130.265C148.449 131.04 149.563 132.456 149.734 133.755C149.815 134.372 149.687 134.718 149.31 135.199C148.791 135.256 148.46 135.263 148.006 134.986C146.937 134.336 146.165 133.02 145.883 131.825C145.712 131.099 145.69 130.429 146.09 129.783Z" fill="#444444"/>
<path d="M27.6287 62.4758C34.1647 61.855 40.4052 64.1456 45.4507 68.2334C51.0156 72.742 55.5187 79.7206 56.2603 86.9466C49.0428 86.7348 45.675 87.7499 39.2923 90.8735C38.4958 89.3524 37.9413 87.4465 37.8127 85.7329C37.713 84.4047 38.1126 82.6654 37.4946 81.4392C37.2897 81.0326 36.9705 80.7284 36.532 80.5904C35.9094 80.3941 35.0773 80.5286 34.5119 80.8384C33.6148 81.3299 33.0885 82.3871 32.8544 83.3446C32.0126 86.7836 33.3213 91.0061 35.0698 93.9575C32.5434 96.4233 30.2601 98.8418 28.5267 101.952C25.8868 106.479 25.0792 111.874 25.8098 117.015C20.9925 116.418 16.1328 114.091 12.3823 111.054C12.2094 110.916 12.0383 110.777 11.8689 110.635C11.6996 110.493 11.532 110.349 11.3663 110.203C11.2006 110.056 11.0368 109.908 10.8748 109.758C10.7129 109.608 10.5528 109.455 10.3947 109.301C10.2366 109.147 10.0805 108.99 9.92632 108.832C9.77217 108.674 9.62005 108.514 9.46995 108.352C9.31984 108.189 9.17181 108.025 9.02586 107.859C8.87991 107.694 8.73608 107.526 8.59437 107.356C8.45266 107.187 8.31311 107.015 8.17574 106.842C8.03835 106.669 7.90318 106.495 7.77023 106.318C7.63727 106.142 7.50656 105.964 7.37811 105.784C7.24965 105.604 7.12349 105.423 6.99962 105.24C6.87575 105.057 6.75422 104.872 6.63501 104.686C6.51581 104.5 6.39898 104.313 6.28454 104.124C6.17008 103.935 6.05802 103.744 5.94838 103.553C5.83875 103.361 5.73154 103.168 5.62677 102.973C5.52201 102.779 5.41974 102.583 5.31995 102.386C5.22014 102.188 5.12284 101.99 5.02806 101.791C4.93326 101.591 4.84101 101.39 4.7513 101.188C4.66159 100.986 4.57445 100.783 4.48988 100.579C4.4053 100.375 4.32333 100.17 4.24395 99.9637C4.16456 99.7574 4.08779 99.5503 4.01365 99.3422C3.9395 99.1341 3.868 98.9251 3.79915 98.7151C3.73028 98.5052 3.66408 98.2945 3.60055 98.0828C3.53703 97.8712 3.47619 97.6588 3.41805 97.4455C3.35989 97.2324 3.30444 97.0186 3.25168 96.804C3.19894 96.5895 3.14892 96.3743 3.10162 96.1585C3.05431 95.9427 3.00974 95.7263 2.9679 95.5093C2.92608 95.2924 2.887 95.0749 2.85067 94.8569C2.81433 94.6391 2.78076 94.4207 2.74996 94.2018C2.71915 93.983 2.69111 93.7639 2.66584 93.5445C2.64058 93.325 2.6181 93.1052 2.59839 92.8851C2.57673 92.6594 2.55787 92.4335 2.5418 92.2074C2.52574 91.9811 2.51247 91.7547 2.50199 91.5282C2.49151 91.3017 2.48385 91.0751 2.479 90.8483C2.47413 90.6217 2.47206 90.395 2.4728 90.1682C2.47356 89.9414 2.47711 89.7147 2.48345 89.488C2.48981 89.2614 2.49897 89.0349 2.51092 88.8084C2.52289 88.5819 2.53764 88.3557 2.55518 88.1297C2.57274 87.9035 2.59309 87.6777 2.61622 87.4521C2.63937 87.2265 2.6653 87.0012 2.69401 86.7763C2.72272 86.5514 2.75421 86.3269 2.78848 86.1027C2.82275 85.8785 2.85978 85.6547 2.89958 85.4316C2.93938 85.2084 2.98193 84.9857 3.02724 84.7635C3.07255 84.5412 3.1206 84.3196 3.1714 84.0986C3.22219 83.8777 3.2757 83.6573 3.33194 83.4376C3.38819 83.218 3.44714 82.9991 3.5088 82.7808C3.57046 82.5627 3.63481 82.3452 3.70185 82.1285C3.76889 81.9119 3.83859 81.6962 3.91096 81.4813C3.98333 81.2663 4.05835 81.0523 4.13603 80.8394C4.2137 80.6263 4.29398 80.4142 4.37689 80.2033C4.4598 79.9922 4.54531 79.7822 4.63342 79.5731C4.72152 79.3642 4.8122 79.1565 4.90544 78.9498C4.9987 78.7431 5.0945 78.5376 5.19283 78.3333C5.29116 78.1289 5.392 77.9259 5.49534 77.724C5.5987 77.5221 5.70453 77.3215 5.81285 77.1224C5.92118 76.9232 6.03194 76.7254 6.14514 76.5289C6.25835 76.3323 6.37397 76.1372 6.49201 75.9438C6.61004 75.7501 6.73045 75.558 6.85323 75.3673C6.97603 75.1766 7.10116 74.9875 7.22863 74.8C7.35609 74.6125 7.48585 74.4265 7.6179 74.2421C7.74997 74.0579 7.8843 73.8753 8.02089 73.6942C8.15747 73.5131 8.29626 73.3338 8.43728 73.1564C8.5783 72.9787 8.72149 72.8029 8.86686 72.6289C9.01085 72.452 9.15697 72.277 9.30523 72.1038C9.45349 71.9305 9.60385 71.7592 9.7563 71.5897C9.90875 71.4203 10.0633 71.2526 10.2198 71.0868C10.3764 70.9211 10.5349 70.7573 10.6955 70.5953C10.856 70.4334 11.0185 70.2735 11.183 70.1157C11.3475 69.9577 11.5139 69.8018 11.6821 69.6481C11.8504 69.4942 12.0206 69.3424 12.1925 69.1927C12.3645 69.043 12.5383 68.8955 12.714 68.75C12.8895 68.6046 13.0669 68.4614 13.246 68.3203C13.4251 68.1793 13.6059 68.0404 13.7884 67.9036C13.9709 67.767 14.1551 67.6326 14.3409 67.5005C14.5267 67.3683 14.714 67.2384 14.903 67.1109C15.092 66.9832 15.2825 66.8579 15.4745 66.7351C15.6665 66.6121 15.86 66.4916 16.055 66.3735C16.25 66.2552 16.4464 66.1394 16.6442 66.026C16.842 65.9126 17.0412 65.8017 17.2417 65.6931C17.4422 65.5846 17.644 65.4786 17.8471 65.3751C18.0503 65.2714 18.2546 65.1704 18.4602 65.0719C18.6658 64.9733 18.8726 64.8771 19.0805 64.7835C19.2884 64.6901 19.4975 64.5992 19.7076 64.5107C19.9178 64.4223 20.129 64.3365 20.3413 64.2533C20.5535 64.17 20.7668 64.0894 20.981 64.0113C21.1953 63.9333 21.4104 63.8579 21.6265 63.7852C21.8426 63.7124 22.0595 63.6423 22.2773 63.5748C22.4951 63.5074 22.7137 63.4426 22.9331 63.3804C23.1525 63.3182 23.3726 63.2588 23.5934 63.2021C23.8142 63.1454 24.0357 63.0914 24.2578 63.04C24.48 62.9888 24.7028 62.9403 24.9261 62.8944C25.1494 62.8484 25.3733 62.8052 25.5978 62.7648C25.8222 62.7245 26.047 62.6869 26.2722 62.652C26.4976 62.6171 26.7234 62.585 26.9495 62.5556C27.1755 62.5263 27.4019 62.4997 27.6287 62.4758Z" fill="white"/>
<path d="M81.5195 90.6304C83.5747 90.4527 85.8636 90.6999 87.8891 91.0641C97.0271 92.7075 104.249 99.0524 109.383 106.489C109.421 106.833 109.308 106.991 109.172 107.305C108.609 107.384 104.607 100.781 102.026 100.46C101.419 100.385 100.836 100.629 100.381 101.021C99.8974 101.439 99.6404 102.013 99.603 102.647C99.4597 105.061 102.262 107.47 103.762 109.104C104.825 110.238 105.856 111.4 106.856 112.589C103.997 114.035 101.49 115.323 99.1497 117.576C95.0682 121.505 92.5454 126.462 92.441 132.175C92.4384 134.028 92.6705 135.65 93.148 137.444C82.7758 136.685 72.5181 135.234 62.2517 133.629C58.8509 128.656 56.5947 124.58 56.1669 118.401C55.7129 111.84 57.893 104.863 62.2583 99.897C67.3153 94.1441 73.9281 91.1425 81.5195 90.6304Z" fill="white"/>
<path d="M158.888 20.3089C159.109 20.2966 159.329 20.2923 159.549 20.2959C159.77 20.2995 159.99 20.3111 160.21 20.3306C160.429 20.3501 160.648 20.3775 160.865 20.4128C161.083 20.448 161.299 20.4911 161.514 20.542C161.728 20.5928 161.941 20.6513 162.151 20.7175C162.361 20.7837 162.569 20.8573 162.774 20.9385C162.979 21.0196 163.181 21.1081 163.379 21.2038C163.578 21.2995 163.773 21.4022 163.964 21.512C170.057 24.9361 169.699 31.032 170.021 37.1015C170.166 40.2172 170.456 43.3194 170.89 46.4082C171.585 51.3028 172.974 55.8731 174.324 60.6062C169.58 61.1424 165.069 62.8546 160.874 65.0563C165.241 66.8512 168.575 68.0235 172.623 70.5942C173.614 71.2234 174.654 71.884 175.526 72.6703C172.558 75.5739 165.007 81.1555 163.435 84.3359C166.433 85.3745 171.285 85.2862 174.54 85.4049C174.386 88.9085 174.059 92.1821 173.431 95.6339L173.321 95.5071C171.355 93.2545 169.414 92.1494 166.411 91.9692C163.929 87.7026 162.005 83.1907 160.271 78.574C154.916 64.3119 153.593 52.4108 156.936 37.4236C157.521 34.8006 158.525 32.3381 159.422 29.8145C160.2 27.6283 160.851 25.4711 161.369 23.2087C159.966 25.2685 158.685 27.7633 157.818 30.0927C155.039 37.5555 153.323 49.7101 153.937 57.702C153.979 59.4874 154.271 61.3389 154.529 63.1048C155.708 71.1687 157.67 75.2775 160.917 82.5791C161.735 84.4181 162.446 86.3067 163.3 88.1297C163.991 89.6035 164.796 91.0349 165.567 92.4677C164.646 92.732 163.73 93.0107 162.818 93.3037C161.56 90.0452 159.487 87.8343 156.331 86.356C152.948 74.9128 151.357 66.6842 152.39 54.6599C152.694 51.1203 153.128 47.6348 153.981 44.1836C153.751 44.6114 153.521 45.0413 153.312 45.4804C152.101 48.032 151.543 50.9846 151.101 53.7626C149.27 65.2552 151.143 75.0959 155.091 85.9152C152.927 85.7098 151.246 85.7536 149.111 86.2222C148.289 84.8695 147.424 83.5377 146.414 82.3162C141.932 76.8941 136.714 74.7465 129.87 74.0994C130.036 71.5897 130.485 69.0254 130.875 66.54C132.88 53.7545 136.868 40.4911 145.058 30.2291C148.169 26.33 153.776 20.8769 158.888 20.3089Z" fill="white"/>
<path d="M234.646 108.659C235.143 109.124 235.591 109.616 236.017 110.146C238.065 112.682 239.29 115.915 238.917 119.199C238.345 124.253 234.497 128.643 230.664 131.675C221.332 139.054 206.502 143.927 195.005 146.813C158.111 156.075 119.586 157.36 81.9127 152.835C60.4563 150.259 20.7152 143.754 6.74187 125.968C5.28527 123.886 4.28662 121.463 4.13238 118.907C3.92714 115.507 5.35246 112.173 7.57289 109.647C8.6183 110.618 9.65632 111.589 10.7621 112.491C11.0085 113.189 11.3042 113.865 11.6491 114.519C16.2629 123.142 30.1542 128.114 38.9732 130.749C44.2375 132.322 49.6222 133.49 55.0069 134.565C59.7034 135.526 64.422 136.363 69.1625 137.076C73.903 137.789 78.659 138.377 83.4305 138.841C113.883 141.999 145.516 142.109 175.755 136.956C182.884 135.697 189.951 134.154 196.956 132.327C202.329 130.952 207.524 129.291 212.755 127.451C216.361 126.183 220.023 124.912 223.39 123.084C227.031 121.106 230.559 118.55 232.406 114.721C232.852 113.796 233.088 112.774 233.445 111.813C233.841 110.75 234.323 109.753 234.646 108.659Z" fill="white"/>
<path d="M7.05225 129.886C8.14381 130.648 9.5197 132.258 10.663 133.195C13.612 135.613 16.9988 137.597 20.3546 139.384C27.0978 142.975 34.4781 145.458 41.8068 147.533C63.7169 153.739 87.5832 156.527 110.304 157.422C120.94 157.777 131.572 157.676 142.2 157.117C167.719 155.543 215.151 149.118 233.945 131.761C233.775 132.644 233.504 133.511 233.233 134.367C232.956 135.214 232.669 136.058 232.371 136.898C232.074 137.738 231.767 138.575 231.449 139.408C231.132 140.241 230.804 141.07 230.466 141.895C230.128 142.719 229.781 143.54 229.423 144.357C229.065 145.173 228.698 145.985 228.321 146.793C227.943 147.6 227.556 148.403 227.16 149.201C226.763 150 226.356 150.793 225.94 151.581C225.524 152.369 225.099 153.153 224.664 153.931C224.229 154.709 223.784 155.481 223.33 156.248C222.876 157.016 222.413 157.777 221.941 158.533C221.469 159.289 220.988 160.039 220.497 160.784C220.007 161.528 219.507 162.266 218.999 162.998C218.49 163.731 217.973 164.457 217.447 165.176C216.921 165.896 216.387 166.609 215.843 167.315C215.3 168.022 214.748 168.722 214.188 169.415C213.628 170.109 213.059 170.795 212.482 171.475C211.905 172.154 211.32 172.826 210.727 173.492C210.134 174.157 209.532 174.815 208.923 175.466C208.314 176.117 207.697 176.76 207.072 177.396C206.447 178.031 205.815 178.659 205.175 179.28C204.535 179.9 203.887 180.513 203.233 181.117C202.578 181.722 201.915 182.319 201.246 182.907C200.577 183.496 199.9 184.076 199.217 184.648C198.533 185.221 197.843 185.784 197.146 186.34C196.449 186.895 195.745 187.442 195.035 187.981C194.324 188.519 193.607 189.049 192.884 189.57C192.161 190.091 191.431 190.603 190.695 191.106C189.96 191.609 189.218 192.104 188.47 192.589C187.723 193.074 186.969 193.55 186.21 194.017C185.451 194.485 184.686 194.942 183.916 195.391C183.145 195.839 182.369 196.278 181.588 196.708C180.808 197.138 180.022 197.558 179.23 197.968C163.063 206.603 143.338 210.501 125.106 210.458L127.561 208.093C136.98 198.862 143.535 181.943 143.651 168.836C143.664 167.333 143.533 161.824 142.653 160.929C142.289 161.07 142.419 162.054 142.419 162.415C142.422 167.279 141.845 172.009 140.817 176.763C140.647 177.534 140.465 178.303 140.272 179.07C140.078 179.836 139.874 180.6 139.658 181.36C139.441 182.12 139.214 182.877 138.975 183.63C138.736 184.384 138.486 185.134 138.225 185.88C137.964 186.625 137.692 187.367 137.408 188.105C137.125 188.843 136.831 189.576 136.525 190.305C136.22 191.034 135.904 191.759 135.577 192.478C135.25 193.198 134.913 193.913 134.564 194.622C134.216 195.332 133.857 196.036 133.488 196.734C133.118 197.433 132.739 198.126 132.349 198.814C131.958 199.501 131.558 200.182 131.148 200.858C130.737 201.533 130.317 202.203 129.886 202.865C129.456 203.528 129.016 204.184 128.565 204.834C128.115 205.484 127.656 206.127 127.186 206.763C126.717 207.399 126.238 208.027 125.75 208.649C125.262 209.271 124.765 209.885 124.258 210.492C102.065 211.218 77.0807 207.003 57.6087 195.964C34.9104 183.096 18.0664 161.332 9.4283 136.894C8.6081 134.574 7.70803 132.258 7.05225 129.886Z" fill="white"/>
<path d="M173.587 155.676C173.703 155.753 173.75 155.843 173.827 155.956C173.853 157.254 173.556 158.6 173.298 159.869C171.898 166.755 168.847 173.48 164.964 179.315C160.592 185.885 154.616 191.252 148.203 195.77C144.583 198.32 140.962 200.665 136.548 201.547L136.365 201.489C136.527 201.274 140.677 199.022 141.478 198.506C144.454 196.556 147.322 194.457 150.081 192.209C158.788 185.109 165.574 176.399 169.815 165.956C170.569 164.099 171.291 162.206 171.934 160.307C172.425 158.856 172.757 157.096 173.525 155.778C173.545 155.744 173.567 155.71 173.587 155.676Z" fill="#444444"/>
<path d="M74.4597 155.918C75.0609 156.495 75.432 158.346 75.7069 159.156C76.7167 162.089 77.8544 164.972 79.1197 167.804C79.8758 169.517 80.6806 171.206 81.5342 172.873C82.388 174.539 83.2892 176.179 84.2378 177.793C85.1862 179.408 86.1806 180.993 87.2209 182.55C88.2611 184.106 89.3454 185.632 90.4738 187.126C95.1063 193.212 100.741 198.673 107.194 202.803C108.286 203.515 109.402 204.188 110.541 204.822C111.506 205.363 113.286 206.116 114.046 206.834C114.087 206.873 114.126 206.913 114.166 206.952C111.789 206.443 109.366 205.381 107.21 204.288C98.2103 199.728 91.2659 192.512 85.5252 184.337C84.9184 183.476 84.3321 182.6 83.7664 181.711C83.2005 180.822 82.6558 179.92 82.1324 179.006C81.6087 178.091 81.1068 177.164 80.6265 176.226C80.1464 175.288 79.6884 174.339 79.2526 173.38C78.8168 172.42 78.4037 171.451 78.0132 170.472C77.6228 169.493 77.2555 168.506 76.9114 167.51C76.5671 166.514 76.2464 165.51 75.9493 164.499C75.652 163.488 75.3786 162.47 75.129 161.446C74.7137 159.713 74.149 157.696 74.4597 155.918Z" fill="#444444"/>
<path d="M32.2263 145.405C32.9205 146.153 33.7634 149.493 34.2096 150.645C35.6193 154.199 37.2318 157.659 39.047 161.025C46.0028 174 55.967 185.884 68.7975 193.361C71.1963 194.742 73.655 196.007 76.1735 197.155C77.5352 197.788 79.4615 198.442 80.6734 199.289C80.7254 199.326 80.7766 199.364 80.8282 199.401C77.5599 198.614 74.458 197.4 71.4082 196.001C61.2073 191.322 52.5928 184.328 45.5891 175.58C40.0231 168.627 35.4997 160.428 33.1387 151.817C32.5799 149.779 31.9933 147.53 32.2263 145.405Z" fill="#444444"/>
<path d="M217.118 147.189C217.18 147.346 217.215 147.468 217.216 147.644C217.23 148.816 216.478 150.377 216.037 151.465C212.852 159.318 207.617 166.23 201.698 172.22C199.546 174.376 197.308 176.438 194.983 178.407C192.659 180.376 190.257 182.245 187.778 184.014C175.88 192.326 153.323 203.367 138.759 203.443C138.853 203.273 142.512 202.457 142.925 202.352C147.18 201.282 151.353 200.138 155.484 198.642C158.683 197.482 161.805 196.101 164.892 194.675C181.347 187.077 196.585 176.242 207.821 161.903C210.295 158.746 212.513 155.33 214.524 151.863C215.386 150.376 216.07 148.685 217.049 147.284C217.072 147.252 217.095 147.221 217.118 147.189Z" fill="#444444"/>
</g>
</svg>
