<svg width="350" height="350" viewBox="0 0 350 350" fill="none" xmlns="http://www.w3.org/2000/svg">
<g opacity="0.9" clip-path="url(#clip0_177_20368)">
<path d="M0 0H350V177.292V186.028V350H0V179.398V175.055V0Z" fill="black" fill-opacity="0.01"/>
<path d="M51.7313 155.155C52.0932 155.764 51.9497 157.077 51.9746 157.813L49.9006 157.881L49.8025 157.854C50.3309 156.894 51.0671 156.026 51.7313 155.155Z" fill="white"/>
<path d="M235.607 98.1101C236.402 98.1532 237.197 98.2438 237.991 98.3179C238.418 101.41 237.681 104.114 236.691 107.025C236.57 107.38 236.484 107.616 236.229 107.894C235.696 107.819 235.452 107.446 235.064 107.087C235.814 103.998 236.006 101.264 235.607 98.1101Z" fill="white"/>
<path d="M248.9 97.3352C252.646 98.8835 255.342 100.21 257.879 103.437C255.539 102.923 253.308 102.634 250.913 102.551C250.391 100.786 249.582 99.0479 248.9 97.3352Z" fill="white"/>
<path d="M207.717 67.1646C207.962 67.2295 207.958 67.2237 208.24 67.3269C211.77 68.623 214.969 71.8738 216.58 75.2166C214.149 75.1561 211.851 74.8519 209.422 75.2368C208.996 72.5109 208.371 69.8425 207.717 67.1646Z" fill="white"/>
<path d="M129.207 98.6902C131.802 99.4527 133.83 103.821 136.1 105.628C136.571 106.003 137.057 106.43 137.286 107.003C137.386 107.252 137.349 107.191 137.224 107.445C135.566 106.96 133.882 106.597 132.171 106.357C129.866 106.052 127.555 105.886 125.248 106.264C124.722 105.255 123.754 104.627 123.288 103.67C123.316 103.41 123.268 103.235 123.47 103.046C123.979 102.572 124.783 102.272 125.394 101.936C126.985 101.064 128.015 100.039 129.207 98.6902Z" fill="white"/>
<path d="M128.998 102.05C129.78 102.163 130.59 102.25 131.36 102.426C132.27 102.633 133.902 103.457 134.316 104.346C134.521 104.784 134.494 104.898 134.38 105.34C134.047 105.668 133.79 105.91 133.351 106.1C133.203 106.071 133.055 106.041 132.908 106.005C131.637 105.695 128.035 104.388 127.453 103.229C127.339 103.003 127.441 102.877 127.507 102.653C127.956 102.235 128.411 102.175 128.998 102.05Z" fill="#444444"/>
<path d="M82.9982 120.848C84.3965 120.746 85.3077 121.321 86.4182 122.064C85.1525 125.897 84.7386 129.517 84.6183 133.523C83.9713 133.016 83.2846 132.563 82.6068 132.098C81.4427 131.542 80.2587 131.057 79.0607 130.578C78.7814 130.049 78.4882 129.51 78.2855 128.946C77.7557 127.469 77.6176 126.021 78.3251 124.576C79.275 122.637 81.0465 121.564 82.9982 120.848Z" fill="white"/>
<path d="M184.566 135.179C185.1 135.297 185.633 135.419 186.165 135.546C192.937 137.175 195.623 139.206 199.171 144.988C195.656 144.908 192.14 144.873 188.623 144.883C187.795 141.396 186.356 138.259 184.566 135.179Z" fill="white"/>
<path d="M125.101 152.13C128.112 152.418 131.085 152.624 134.11 152.752C134.753 155.89 135.521 158.471 137.058 161.312C136.248 160.824 135.397 160.42 134.548 160.005C131.004 158.491 127.816 159.04 124.759 157.951C123.74 157.587 122.583 156.928 122.142 155.882C121.915 155.343 121.916 154.772 122.162 154.239C122.705 153.061 123.981 152.597 125.101 152.13Z" fill="white"/>
<path d="M171.468 65.6752C172.344 65.5983 173.279 65.6318 174.145 65.7808C177.336 66.3298 179.747 68.2308 181.593 70.8052C181.029 71.7548 180.385 72.666 179.772 73.5851C177.925 72.3915 175.992 71.3921 173.869 70.8022C172.335 70.3722 170.314 70.2348 168.812 70.7813C167.367 71.3067 166.722 72.1861 166.095 73.5246C165.322 73.0833 164.606 72.5744 163.881 72.0617C164.161 70.9895 164.471 70.0981 165.135 69.1844C166.661 67.0858 168.959 66.0242 171.468 65.6752Z" fill="white"/>
<path d="M155.442 108.508L155.705 108.677C158.57 110.527 165.658 115.218 167.366 117.632C168.589 119.361 169.261 121.511 169.698 123.56C167.32 122.879 164.636 122.871 162.173 122.85C159.704 118.175 157.46 113.394 155.442 108.508Z" fill="white"/>
<path d="M103.864 96.8359C105.038 97.6945 105.655 99.3321 106.885 100.244C111.236 103.47 117.023 103.876 121.907 105.876C122.151 106.244 122.189 106.265 122.167 106.701C121.922 107.08 121.72 107.218 121.336 107.424L119.943 108.178C119.185 108.65 118.467 109.207 117.74 109.727C114.736 108.408 111.964 107.608 108.676 107.433C107.212 105.43 103.27 100.307 102.871 98.0623C103.027 97.5024 103.447 97.2082 103.864 96.8359Z" fill="white"/>
<path d="M228.792 98.9348L228.922 99.0709C228.219 100.819 225.801 103.991 224.682 105.802C221.625 110.751 218.505 116.009 216.073 121.296C214.06 121.735 212.329 122.148 210.457 123.046L210.429 123.029C210.284 122.723 212.175 121.233 213.74 118.719C216.1 114.926 217.626 110.645 219 106.421C222.026 103.701 225.263 100.969 228.792 98.9348Z" fill="white"/>
<path d="M144.723 88.009C149.585 91.0756 162.454 106.966 164.945 112.567C163.216 111.416 161.445 110.318 159.739 109.134C157.695 107.714 155.742 106.196 153.643 104.855C150.654 99.4773 150.711 96.622 144.564 93.8678C144.576 91.9452 144.452 89.9122 144.723 88.009Z" fill="white"/>
<path d="M169.686 73.1771C176.026 72.796 182.616 79.8985 187.596 83.3459C186.417 83.7632 185.289 84.3241 184.156 84.8532C182.925 85.4855 181.77 86.163 180.651 86.9765C178.399 85.0966 176.348 82.9453 174.269 80.8795C172.681 79.3021 171.005 77.7804 169.481 76.1425C168.934 75.554 168.28 74.8775 168.312 74.0429C168.658 73.5524 169.154 73.403 169.686 73.1771Z" fill="white"/>
<path d="M241.98 85.4468C242.298 86.0511 241.602 89.2961 242.017 90.5624C242.707 92.6642 244.384 94.6763 245.507 96.5798C246.662 98.5362 247.559 100.57 248.359 102.692C245.815 103.044 243.344 103.55 240.851 104.156L240.935 101.681C240.937 101.535 240.937 101.389 240.933 101.243C240.88 99.6139 240.766 97.6893 239.469 96.5241C237.598 94.8441 233.887 95.4563 231.555 95.5633C234.78 92.0195 238.539 88.795 241.98 85.4468Z" fill="white"/>
<path d="M104.389 137.584C104.442 137.586 104.496 137.583 104.548 137.59C107.056 137.954 110.71 143.657 112.362 145.653C106.359 146.01 100.404 146.883 94.4658 147.802C92.0383 148.304 89.6148 148.825 87.1951 149.363C91.7707 144.977 98.3359 139.51 104.389 137.584Z" fill="white"/>
<path d="M209.7 78.5288C215.726 78.0718 221.4 79.21 227.316 80.0173C229.019 80.2501 230.755 80.2498 232.446 80.5164L232.54 80.7272C232.049 81.4659 231.288 81.8193 230.674 82.4325C230.31 82.7968 230.073 83.289 229.71 83.6435C229.551 83.7986 229.344 83.8451 229.139 83.9049C222.799 85.1163 216.399 85.8792 209.988 86.5962C209.671 86.1191 209.304 85.7568 208.891 85.3613C209.086 83.3256 209.055 81.2256 209.34 79.208C209.399 78.7947 209.342 78.7852 209.7 78.5288Z" fill="white"/>
<path d="M261.362 124.599C261.889 124.768 262.352 124.891 262.595 125.444C263.051 126.481 262.253 128.347 261.756 129.28C258.989 134.475 248.531 140.418 242.777 142.167C242.449 140.113 241.956 138.173 241.312 136.195C245.496 134.383 249.751 132.16 253.607 129.729C256.131 128.138 258.557 125.577 261.362 124.599Z" fill="white"/>
<path d="M231.609 98.712C231.888 98.7096 232.129 98.7418 232.404 98.7835C232.65 99.0091 232.811 99.1998 232.925 99.5132C234.586 104.066 228.227 117.29 226.041 121.667C224.21 121.289 222.334 121.136 220.471 121.02L218.036 121.029C220.005 118.021 221.595 114.791 223.348 111.657C224.736 109.175 226.263 106.762 227.742 104.333C228.904 102.425 229.983 100.266 231.609 98.712Z" fill="white"/>
<path d="M173.451 100.049C174.668 100.791 182.421 109.939 184.102 111.735C184.11 111.801 184.119 111.868 184.123 111.935C184.334 115.239 190.304 120.166 192.591 122.633C191.091 123.176 189.522 123.588 187.995 124.052L185.274 124.875C183.611 121.763 181.646 118.775 179.789 115.774C176.566 110.565 173.329 105.423 169.829 100.395C171.035 100.273 172.243 100.158 173.451 100.049Z" fill="white"/>
<path d="M201.226 122.326L201.489 122.395C202.31 123.364 203.171 126.067 203.758 127.299C200.615 130.033 198.141 132.918 196.542 136.798C193.57 135.246 190.671 133.803 187.485 132.719C185.839 132.373 184.226 132.118 182.556 131.926C181.811 131.159 181.119 130.385 180.457 129.547C183.61 128.419 186.867 127.602 190.059 126.59C193.851 125.351 197.573 123.93 201.226 122.326Z" fill="white"/>
<path d="M112.04 147.217C116.431 146.612 118.684 148.6 122.129 150.794C120.409 151.857 119.606 152.895 119.058 154.826C119.419 156.472 120.033 157.382 121.242 158.512C117.545 159.384 116.146 159.714 112.409 158.34C111.821 158.148 111.171 157.972 110.642 157.644C108.98 156.615 106.866 153.828 105.081 152.418C102.996 150.772 100.799 149.754 98.3428 148.801C102.742 147.805 107.547 147.569 112.04 147.217Z" fill="white"/>
<path d="M163.762 99.5976C164.285 99.5792 164.935 99.5115 165.421 99.7483C166.828 100.433 181.417 123.082 182.721 125.769L181.043 126.26C180.023 126.623 179.198 127.152 178.33 127.778C176.713 126.547 175.045 125.55 173.233 124.632C172.076 119.33 169.435 114.11 166.691 109.452C165.844 108.013 164.529 106.647 163.991 105.067C163.451 103.482 163.734 101.266 163.762 99.5976Z" fill="white"/>
<path d="M189.127 147.149C194.105 147.112 199.109 147.488 204.077 147.795C209.057 148.103 214.058 148.348 219.007 149.002C218.428 150.078 217.771 151.116 217.139 152.162C216.522 152.225 215.906 152.293 215.291 152.367C207.126 153.307 199.044 154.93 190.9 156.024C190.642 156.059 190.059 156.137 189.864 155.942C189.006 155.083 189.193 148.638 189.127 147.149Z" fill="white"/>
<path d="M200.839 54.4568C200.907 54.5241 200.99 54.5791 201.043 54.6584C201.659 55.5645 202.398 58.8995 202.755 60.1104C205.163 68.2961 207.764 75.8628 206.955 84.5605C205.669 84.0075 204.386 83.489 203.064 83.0259C200.501 82.2418 197.948 81.9827 195.28 81.8563C196.68 75.479 197.763 68.9951 199.048 62.5902C199.579 59.9488 199.947 56.9912 200.839 54.4568Z" fill="white"/>
<path d="M232.295 82.3379C232.516 82.7586 232.727 83.1257 233.081 83.4498C234.558 84.7999 236.625 84.8074 238.499 84.7855C236.919 86.1852 235.326 87.5811 233.794 89.0323C231.304 91.3917 221.464 101.557 218.998 101.824L218.795 101.303C217.662 96.4397 215.296 92.2787 212.056 88.5172C215.195 88.0968 228.99 86.1954 230.889 85.2261C231.17 84.8265 231.226 84.3593 231.317 83.8883C231.442 83.2413 231.673 82.9832 232.134 82.5023C232.187 82.4469 232.241 82.3926 232.295 82.3379Z" fill="white"/>
<path d="M112.139 71.3381C117.807 74.7168 120.902 80.5967 125.042 85.4547C126.125 86.7252 127.476 87.8626 128.69 89.0114L128.626 89.4031C127.896 90.4138 126.619 90.581 125.481 90.8988C121.65 91.9411 117.8 92.9011 113.928 93.7788C111.653 86.7433 111.486 78.6413 112.139 71.3381Z" fill="white"/>
<path d="M144.436 95.7571C146.027 96.5162 147.634 98.2061 148.624 99.6505C150.599 102.534 152.02 106.08 153.495 109.255L159.855 122.725C159.446 122.981 158.767 122.975 158.28 123.03C156.032 123.161 153.936 123.763 151.815 124.476C150.419 119.736 148.208 116.247 144.776 112.711C144.751 110.819 144.44 108.887 144.343 106.988C144.17 103.243 144.202 99.4991 144.436 95.7571Z" fill="white"/>
<path d="M199.386 55.6836C199.223 58.271 198.381 61.085 197.849 63.6355C196.584 69.6928 195.172 75.7942 194.443 81.9438C193.091 82.0577 191.683 82.1038 190.357 82.3906C189.132 80.9243 187.691 79.6483 186.274 78.3714C184.788 77.1457 183.294 75.9302 181.791 74.7248C186.762 67.6198 193.125 61.625 199.386 55.6836Z" fill="white"/>
<path d="M265.385 128.418C265.59 128.508 265.8 128.592 265.987 128.718C266.733 129.219 267.071 130.204 267.182 131.054C267.697 134.977 265.253 140.142 262.236 142.589C260.959 143.626 259.271 144.297 257.843 145.119C254.292 147.16 250.632 149.802 248.06 153.021C246.883 152.626 245.768 152.573 244.541 152.537L241.915 152.68C242.523 150.171 242.847 147.729 242.922 145.151C248.619 143.203 257.516 138.238 261.643 133.907C263.219 132.253 264.353 130.447 265.385 128.418Z" fill="white"/>
<path d="M171.158 80.6897C173.716 83.245 176.198 85.8737 178.766 88.4215C176.237 91.282 174.423 93.7716 173.498 97.516C171.802 97.5598 169.92 97.7785 168.273 98.188C167.475 97.7751 166.76 97.4682 165.87 97.3185C164.722 97.1257 163.007 96.9592 162.057 97.7645C161.153 98.5308 161.326 101.233 161.243 102.393C160.383 101.435 159.582 100.462 158.812 99.4294C161.779 97.3209 165.088 95.6197 168.258 93.8328C170.015 92.817 172.284 91.7434 173.501 90.086L173.399 89.9015C171.344 89.9589 165.07 94.0782 162.986 95.1976C161.161 96.1685 159.306 97.077 157.421 97.9231L154.97 95.0093C158.511 90.1182 166.302 84.3497 171.158 80.6897Z" fill="white"/>
<path d="M234.45 109.885C241.214 115.384 248.201 120.526 255.085 125.865C250.575 129 245.256 131.256 240.26 133.494C238.951 131.462 237.651 129.57 236.047 127.755C233.954 125.64 231.918 124.21 229.279 122.841C229.949 120.884 231.041 119.06 232.029 117.251C235.641 119.478 238.659 122.769 242.272 124.954C242.857 125.308 243.488 125.426 244.148 125.199C244.592 125.047 244.716 124.896 244.917 124.488C244.838 123.843 244.586 123.464 244.154 122.994C243.103 121.849 241.713 120.985 240.546 119.957C238.054 117.762 235.658 115.494 233.092 113.375C233.473 112.19 233.979 111.038 234.45 109.885Z" fill="white"/>
<path d="M214.908 154.894C215.239 154.839 215.525 154.845 215.86 154.846L216.061 155.078C216.243 156.741 214.681 158.926 214.281 160.609L214.228 160.84C204.931 163.085 193.808 163.938 185.274 168.407C183.289 169.446 181.456 170.9 179.633 172.198C178.468 171.859 177.255 171.634 176.069 171.372L175.939 171.274C175.982 170.902 175.894 171.046 176.17 170.839C180.545 167.556 184.63 161.203 187.309 156.509C187.91 157.345 188.456 157.995 189.237 158.668C192.358 158.471 195.581 157.803 198.677 157.313C204.078 156.443 209.488 155.637 214.908 154.894Z" fill="white"/>
<path d="M175.928 56.0906C176.72 56.0147 177.535 55.999 178.328 56.0851C182.166 56.5018 183.737 59.0868 185.164 62.3007C185.554 63.1791 185.854 64.0367 186.492 64.7757C186.529 64.8191 186.568 64.8608 186.606 64.9032C185.405 66.1553 184.237 67.4385 183.104 68.7528C181.419 66.4365 179.309 64.7644 176.591 63.8169C173.443 62.7198 169.982 62.7597 166.963 64.2394C163.987 65.6985 162.491 67.953 161.443 71.0223C156.896 69.3933 152.254 68.0371 147.39 68.9425C140.994 70.1337 136.005 74.2472 132.401 79.5044C131.306 81.1699 130.508 82.9281 129.722 84.7513C128.906 84.35 128.086 83.9648 127.385 83.3759C126.166 82.3509 124.325 80.5284 124.251 78.869C124.196 77.6498 124.817 76.5335 125.634 75.6694C129.341 71.7446 131.801 74.7192 135.17 74.5849C136.547 73.8012 136.89 71.2554 137.872 69.9392C139.909 67.2093 143.864 65.9214 147.158 66.5503C148.633 66.8319 150.176 67.696 151.696 67.4844C152.747 66.6614 152.872 63.8063 153.757 62.473C154.872 60.7927 157.095 59.3219 159.109 58.9849C162.199 58.4678 162.816 60.4417 164.935 61.8413C165.485 62.204 165.968 62.1999 166.548 61.9073C167.345 61.505 167.995 60.777 168.636 60.1679C170.822 58.0935 172.931 56.6846 175.928 56.0906Z" fill="white"/>
<path d="M107.55 110.126C110.343 109.67 113.012 110.343 115.543 111.473C114.455 112.558 113.407 113.656 112.441 114.853C107.937 120.434 105.505 127.301 106.299 134.485C102.192 134.591 97.8143 137.828 94.4353 139.997L92.9352 141.04C91.4371 139.586 89.8976 138.244 88.1917 137.038C87.792 135.782 87.5242 134.499 87.3881 133.189C86.8238 127.471 88.8931 120.574 92.5602 116.145C96.7233 111.117 101.428 110.702 107.55 110.126Z" fill="white"/>
<path d="M98.0502 129.094C98.2341 129.104 98.5995 129.096 98.784 129.166C99.2017 129.324 99.2608 129.493 99.4413 129.863C99.3918 130.45 99.2379 130.694 98.8784 131.153L98.1743 131.148C97.7836 130.919 97.7515 130.923 97.584 130.508C97.6124 129.942 97.7884 129.592 98.0502 129.094Z" fill="#444444"/>
<path d="M94.85 115.435C95.0099 115.465 95.2922 115.51 95.4358 115.573C95.8183 115.743 95.8819 115.93 96.0128 116.286C95.93 116.876 95.7017 117.194 95.3572 117.671C95.1039 117.656 94.8592 117.596 94.6107 117.546C94.3089 117.282 94.1247 117.172 94.1185 116.729C94.1107 116.175 94.4986 115.804 94.85 115.435Z" fill="#444444"/>
<path d="M106.191 117.705C106.364 117.746 106.538 117.782 106.708 117.833C107.218 117.988 107.419 118.201 107.653 118.668C107.483 119.258 107.32 119.365 106.89 119.783C106.644 119.728 106.358 119.679 106.132 119.568C105.732 119.371 105.624 119.099 105.482 118.706C105.66 118.162 105.781 118.079 106.191 117.705Z" fill="#444444"/>
<path d="M105.71 111.529C105.989 111.595 106.399 111.66 106.641 111.807C107.025 112.041 107.054 112.192 107.159 112.593C106.976 113.11 106.785 113.241 106.364 113.556L105.548 113.408C105.153 113.074 105.111 113.052 104.981 112.556C105.113 112.04 105.324 111.86 105.71 111.529Z" fill="#444444"/>
<path d="M99.5624 115.281C99.7439 115.3 99.9264 115.314 100.106 115.346C100.648 115.443 100.918 115.663 101.219 116.106C101.197 116.704 101.066 116.851 100.76 117.349C100.583 117.366 100.245 117.424 100.059 117.381C99.5767 117.27 99.4926 117.122 99.237 116.739C99.1727 116.128 99.2958 115.828 99.5624 115.281Z" fill="#444444"/>
<path d="M94.6409 119.708C94.7991 119.757 94.9591 119.801 95.1139 119.859C95.6225 120.05 95.7613 120.259 95.9619 120.726C95.8987 121.312 95.6919 121.612 95.3552 122.087C95.1231 122.044 94.781 122.009 94.5759 121.896C94.1299 121.652 94.0957 121.459 93.9504 121.012C94.0465 120.407 94.2365 120.16 94.6409 119.708Z" fill="#444444"/>
<path d="M99.4284 122.104C99.6605 122.13 100.009 122.139 100.218 122.236C100.639 122.43 100.674 122.63 100.822 123.029C100.763 123.642 100.542 123.977 100.206 124.484C99.9753 124.467 99.7149 124.398 99.4865 124.355C99.2589 124.164 99.0682 124.082 98.9834 123.783C98.7954 123.118 99.0863 122.645 99.4284 122.104Z" fill="#444444"/>
<path d="M91.9188 125C92.1885 125.017 92.545 125.022 92.7935 125.129C93.2149 125.31 93.2997 125.553 93.4497 125.939C93.4046 126.523 93.2463 126.772 92.895 127.233C92.6513 127.241 92.2948 127.286 92.0627 127.22C91.5873 127.086 91.5678 126.917 91.4006 126.503C91.4546 125.919 91.6539 125.519 91.9188 125Z" fill="#444444"/>
<path d="M93.4718 133.098C93.7391 133.183 94.1154 133.302 94.3355 133.486C94.7077 133.798 94.7272 133.953 94.8089 134.402C94.6759 134.995 94.382 135.223 93.9517 135.609C93.5019 135.659 93.4608 135.649 93.0585 135.441C92.8918 135.166 92.7663 134.971 92.7622 134.635C92.7533 133.909 92.9851 133.581 93.4718 133.098Z" fill="#444444"/>
<path d="M148.857 71.4931C148.938 71.4821 149.018 71.4692 149.098 71.4609C156.298 70.7155 163.427 74.4199 168.77 78.8755C165.618 80.927 162.226 83.1152 159.532 85.7498C157.287 87.9455 155.412 90.4874 153.488 92.9596C151.734 91.306 146.774 85.5115 144.711 85.1065C144.137 84.9937 143.526 85.1222 143.069 85.4982C142.539 85.934 142.367 86.6586 142.24 87.3008C141.876 89.1476 141.916 91.184 141.819 93.0721C141.544 98.4342 141.534 103.79 141.348 109.154C141.281 109.158 141.214 109.167 141.147 109.165C140.331 109.138 139.989 108.723 139.975 107.947C139.929 105.267 137.57 103.9 135.882 102.15C137.024 99.9265 137.756 97.4556 138.928 95.2845C139.326 95.143 139.626 95.0784 139.901 94.7394C140.011 93.1056 139.393 91.5169 139.347 89.8865C139.312 88.653 139.529 87.4126 139.466 86.1756C139.44 85.6595 139.407 85.2432 139.178 84.7777C138.538 84.9206 138.386 85.1332 138.153 85.7457C137.676 86.9984 137.561 88.5053 137.298 89.8243C136.6 93.3274 135.411 96.2747 133.401 99.2227C132.737 98.5111 132.087 97.8326 131.574 97C131.546 90.4785 132.604 84.2578 136.633 78.9432C139.623 74.9982 143.922 72.1787 148.857 71.4931Z" fill="white"/>
<path d="M150.194 83.8374C150.461 83.8637 150.823 83.874 151.068 83.9823C151.372 84.117 151.592 84.4147 151.627 84.7435C151.681 85.247 151.359 85.6503 151.085 86.0317C150.854 86.0109 150.522 86.0092 150.311 85.921C149.898 85.748 149.842 85.5936 149.679 85.2155C149.714 84.6345 149.89 84.3269 150.194 83.8374Z" fill="#444444"/>
<path d="M154.749 77.3989C155.052 77.4085 155.501 77.3719 155.781 77.4731C156.242 77.6402 156.286 77.8159 156.461 78.2285C156.399 78.7852 156.258 79.083 155.959 79.5526C155.707 79.5393 155.414 79.5379 155.172 79.4651C154.739 79.3349 154.583 79.0789 154.372 78.7101C154.35 78.1386 154.477 77.875 154.749 77.3989Z" fill="#444444"/>
<path d="M145.962 75.2656C146.23 75.362 146.463 75.4977 146.713 75.6337C146.941 75.9964 147.121 76.1885 147.055 76.6427C146.967 77.2443 146.568 77.5926 146.143 77.9788C145.933 77.8599 145.623 77.716 145.46 77.5417C145.176 77.2388 145.053 76.9073 145.114 76.4913C145.188 75.9909 145.621 75.603 145.962 75.2656Z" fill="#444444"/>
<path d="M138.793 78.533C139.056 78.5682 139.41 78.5979 139.647 78.7168C140.04 78.9141 140.057 79.155 140.128 79.5344C139.963 80.0922 139.733 80.3168 139.305 80.701C138.953 80.6948 138.66 80.6459 138.319 80.5619C137.96 80.2245 137.946 80.2348 137.886 79.7491C138.075 79.1711 138.341 78.9294 138.793 78.533Z" fill="#444444"/>
<path d="M217.36 123.617C218.138 123.537 218.917 123.497 219.699 123.495C220.48 123.493 221.26 123.53 222.038 123.605C222.815 123.68 223.587 123.794 224.354 123.946C225.121 124.098 225.878 124.288 226.625 124.515C231.664 126.024 235.622 129.833 238.04 134.439C241.562 141.153 241.074 146.907 238.908 153.911L238.574 153.944C234.222 154.342 230.058 157.88 226.955 160.699C223.933 159.952 221.034 159.566 217.928 159.95L217.628 159.905C217.33 159.173 219.235 154.197 219.681 153.318C220.356 151.986 221.978 150.315 222.131 148.845C222.186 148.318 221.959 147.779 221.621 147.385C220.307 145.856 206.389 145.577 203.63 145.391C203.34 145.372 201.915 145.304 201.794 145.056C201.613 144.688 201.807 143.66 201.672 143.173C201.237 141.61 199.514 139.903 198.474 138.715C199.074 136.877 199.866 135.296 201.014 133.733C204.849 128.51 210.94 124.631 217.36 123.617Z" fill="white"/>
<path d="M231.691 137.159C231.917 137.175 232.199 137.177 232.421 137.245C232.863 137.381 233.009 137.611 233.219 137.994C233.239 138.572 233.04 138.877 232.758 139.355C232.537 139.352 232.203 139.375 231.997 139.301C231.566 139.146 231.495 138.94 231.295 138.566C231.274 137.97 231.406 137.678 231.691 137.159Z" fill="#444444"/>
<path d="M221.773 141.582C221.967 141.608 222.317 141.628 222.506 141.715C222.967 141.924 223.025 142.076 223.21 142.51C223.147 143.104 222.934 143.369 222.565 143.828C222.326 143.791 221.973 143.767 221.76 143.658C221.307 143.428 221.268 143.252 221.123 142.808C221.204 142.251 221.427 141.995 221.773 141.582Z" fill="#444444"/>
<path d="M225.221 134.745C225.474 134.793 225.766 134.835 226.001 134.942C226.451 135.144 226.578 135.425 226.759 135.854C226.742 136.422 226.561 136.661 226.238 137.095C225.969 137.085 225.61 137.083 225.363 136.968C225.322 136.949 225.282 136.928 225.244 136.905C225.205 136.881 225.169 136.855 225.134 136.826C225.099 136.798 225.066 136.768 225.034 136.735C225.003 136.702 224.974 136.668 224.948 136.632C224.921 136.595 224.897 136.557 224.875 136.518C224.853 136.479 224.833 136.438 224.817 136.396C224.8 136.354 224.786 136.312 224.775 136.268C224.763 136.224 224.755 136.18 224.749 136.136C224.681 135.606 224.956 135.173 225.221 134.745Z" fill="#444444"/>
<path d="M220.609 130.169C220.851 130.268 221.088 130.391 221.325 130.503C221.461 130.727 221.599 130.851 221.587 131.126C221.553 131.826 220.978 132.259 220.492 132.684C220.202 132.55 219.969 132.41 219.703 132.235C219.535 131.877 219.387 131.668 219.541 131.26C219.731 130.755 220.181 130.452 220.609 130.169Z" fill="#444444"/>
<path d="M236.286 140.738C236.537 140.785 236.924 140.817 237.14 140.946C237.481 141.149 237.696 141.419 237.718 141.823C237.748 142.351 237.373 142.827 237.089 143.238C236.905 143.168 236.719 143.097 236.541 143.013C236.023 142.766 235.822 142.477 235.641 141.948C235.72 141.373 235.915 141.149 236.286 140.738Z" fill="#444444"/>
<path d="M205.429 136.088C205.714 136.161 206.008 136.237 206.249 136.419C206.583 136.67 206.757 137.069 206.748 137.483C206.737 137.995 206.472 138.274 206.157 138.631C205.881 138.553 205.559 138.481 205.306 138.345C204.899 138.126 204.831 137.837 204.724 137.422C204.839 136.835 205.053 136.546 205.429 136.088Z" fill="#444444"/>
<path d="M214.088 138.166C214.444 138.18 214.715 138.267 215.05 138.383C215.253 138.612 215.43 138.72 215.473 139.036C215.57 139.755 215.208 140.212 214.788 140.739C214.62 140.705 214.327 140.67 214.168 140.585C213.753 140.364 213.703 140.213 213.537 139.804C213.578 139.153 213.787 138.739 214.088 138.166Z" fill="#444444"/>
<path d="M209.678 129.149C209.933 129.187 210.33 129.216 210.552 129.34C210.969 129.572 210.998 129.779 211.136 130.2C211.055 130.827 210.879 131.149 210.522 131.665C210.29 131.635 209.908 131.611 209.7 131.492C209.338 131.285 209.129 131.012 209.103 130.586C209.071 130.062 209.411 129.568 209.678 129.149Z" fill="#444444"/>
<path d="M228.789 127.916C229.1 127.966 229.494 128.017 229.776 128.176C230.146 128.384 230.436 128.673 230.512 129.106C230.611 129.674 230.344 130.043 230.04 130.479C229.757 130.426 229.433 130.366 229.171 130.252C228.721 130.057 228.592 129.8 228.385 129.381C228.356 128.793 228.536 128.439 228.789 127.916Z" fill="#444444"/>
<path d="M229.461 145.212C229.911 145.254 230.351 145.302 230.713 145.617C230.978 145.849 231.109 146.176 231.061 146.525C230.993 147.02 230.602 147.322 230.246 147.616C229.932 147.519 229.559 147.412 229.282 147.233C228.896 146.984 228.811 146.727 228.698 146.306C228.815 145.754 229.057 145.564 229.461 145.212Z" fill="#444444"/>
<path d="M226.404 151.166C226.784 151.194 227.215 151.235 227.535 151.468C227.924 151.752 227.924 151.986 227.985 152.421C227.816 153.006 227.57 153.238 227.121 153.638C226.835 153.576 226.399 153.498 226.156 153.34C225.741 153.072 225.72 152.909 225.626 152.464C225.769 151.889 226.013 151.603 226.404 151.166Z" fill="#444444"/>
<path d="M193.064 84.6563C196.678 84.0106 201.256 84.7441 204.556 86.3174C209.87 88.8504 213.6 92.9561 215.564 98.5086C217.724 104.616 215.693 109.038 213.03 114.539C211.178 118.364 209.567 120.786 205.402 122.239C204.98 121.408 204.552 120.291 203.838 119.676C203.036 118.985 202.281 119.096 201.285 119.177C199.028 119.48 196.85 120.187 194.611 120.604C191.935 116.896 189.044 113.223 186.093 109.731L185.305 109.684C184.039 108.939 177.21 100.519 175.877 98.8309C176.544 96.4701 177.348 94.2683 178.858 92.3036C182.298 87.8271 187.58 85.4 193.064 84.6563Z" fill="white"/>
<path d="M190.011 88.6067C190.187 88.6648 190.485 88.7383 190.646 88.8463C191.052 89.1173 191.085 89.266 191.21 89.7073C191.081 90.287 190.845 90.5426 190.441 90.9675C190.224 90.9162 189.883 90.866 189.698 90.7474C189.33 90.5112 189.319 90.303 189.231 89.9124C189.386 89.3296 189.608 89.0483 190.011 88.6067Z" fill="#444444"/>
<path d="M189.065 104.413C189.353 104.384 189.67 104.336 189.959 104.362C190.418 104.403 190.625 104.562 190.913 104.896C190.871 105.487 190.763 105.601 190.441 106.079C190.242 106.12 189.909 106.216 189.696 106.202C189.211 106.17 189.118 106.075 188.815 105.741C188.737 105.202 188.866 104.898 189.065 104.413Z" fill="#444444"/>
<path d="M205.264 111.739C205.573 111.75 205.871 111.797 206.177 111.838C206.539 112.144 206.551 112.133 206.633 112.597C206.475 113.19 206.205 113.511 205.808 113.971C205.647 113.947 205.312 113.923 205.156 113.842C204.75 113.632 204.741 113.465 204.63 113.06C204.733 112.502 204.933 112.194 205.264 111.739Z" fill="#444444"/>
<path d="M179.406 95.4358C179.628 95.4843 179.902 95.5264 180.113 95.6228C180.535 95.8152 180.641 96.0418 180.794 96.454C180.735 97.0029 180.517 97.276 180.198 97.7005C179.93 97.6647 179.513 97.6496 179.276 97.5283C178.877 97.3235 178.837 97.1448 178.702 96.7548C178.797 96.1498 179.008 95.8907 179.406 95.4358Z" fill="#444444"/>
<path d="M184.658 100.25C184.97 100.268 185.281 100.309 185.593 100.343C186.011 100.649 186.058 100.66 186.214 101.148C186.117 101.702 185.946 101.95 185.586 102.376C185.336 102.354 184.96 102.342 184.736 102.238C184.292 102.034 184.249 101.866 184.091 101.445C184.142 100.905 184.339 100.66 184.658 100.25Z" fill="#444444"/>
<path d="M195.381 101.978C195.668 101.992 195.998 101.99 196.276 102.066C196.686 102.179 196.832 102.423 197.022 102.772C197.023 103.344 196.817 103.62 196.511 104.073C196.249 104.074 195.838 104.107 195.597 104.016C195.16 103.85 195.114 103.647 194.939 103.254C194.974 102.694 195.087 102.457 195.381 101.978Z" fill="#444444"/>
<path d="M202.968 96.8634C203.241 96.8549 203.63 96.8067 203.892 96.8757C204.337 96.9933 204.392 97.1721 204.585 97.5426C204.546 98.1277 204.365 98.4449 204.059 98.9392C203.835 98.9463 203.494 98.9836 203.283 98.9142C202.821 98.7628 202.744 98.5974 202.539 98.2019C202.535 97.6273 202.676 97.3515 202.968 96.8634Z" fill="#444444"/>
<path d="M202.856 105.376C203.111 105.409 203.491 105.427 203.717 105.541C204.163 105.767 204.206 105.93 204.345 106.367C204.234 106.957 204.011 107.204 203.606 107.637C203.387 107.619 203.05 107.619 202.852 107.528C202.41 107.327 202.381 107.159 202.248 106.737C202.314 106.154 202.522 105.85 202.856 105.376Z" fill="#444444"/>
<path d="M196.384 109.835C196.588 109.942 196.884 110.068 197.046 110.228C197.374 110.552 197.378 110.73 197.413 111.157C197.211 111.734 196.897 111.983 196.437 112.371C196.181 112.216 195.872 112.055 195.66 111.844C195.355 111.543 195.343 111.242 195.332 110.842C195.583 110.288 195.865 110.131 196.384 109.835Z" fill="#444444"/>
<path d="M196.285 93.5806C196.564 93.6233 196.97 93.6575 197.221 93.7997C197.619 94.0256 197.657 94.2549 197.742 94.6559C197.598 95.2294 197.389 95.4645 196.97 95.8737C196.664 95.8843 196.432 95.8549 196.132 95.8043C195.934 95.6108 195.783 95.5374 195.725 95.2523C195.586 94.5762 195.907 94.0977 196.285 93.5806Z" fill="#444444"/>
<path d="M210.172 98.8503C210.491 98.9081 210.76 98.9953 211.066 99.1002C211.336 99.416 211.554 99.5787 211.514 100.032C211.467 100.557 211.122 100.897 210.765 101.242C210.483 101.195 210.209 101.116 209.932 101.045C209.622 100.752 209.407 100.633 209.419 100.165C209.433 99.6553 209.862 99.2171 210.172 98.8503Z" fill="#444444"/>
<path d="M187.968 95.8447C188.233 95.8516 188.591 95.8297 188.843 95.9059C189.299 96.0436 189.37 96.2016 189.593 96.5823C189.598 97.1514 189.417 97.445 189.138 97.915C188.807 97.9608 188.392 98.009 188.073 97.8839C187.646 97.7161 187.6 97.4795 187.455 97.0919C187.498 96.5297 187.65 96.2829 187.968 95.8447Z" fill="#444444"/>
<path d="M202.679 88.2561C202.937 88.318 203.326 88.3925 203.544 88.5388C203.961 88.8177 203.973 88.992 204.076 89.4466C203.932 90.0311 203.705 90.2987 203.298 90.7334C203.055 90.7037 202.655 90.6589 202.442 90.5229C202.11 90.3113 201.95 90.0495 201.951 89.6503C201.951 89.1051 202.36 88.6553 202.679 88.2561Z" fill="#444444"/>
<path d="M211.049 105.691C211.351 105.729 211.734 105.803 211.985 105.983C212.316 106.219 212.453 106.572 212.446 106.969C212.438 107.494 212.06 107.886 211.736 108.255C211.432 108.207 211.171 108.128 210.879 108.036C210.566 107.716 210.353 107.572 210.364 107.083C210.377 106.53 210.723 106.102 211.049 105.691Z" fill="#444444"/>
<path d="M128.351 108.587C131.85 108.436 135.701 109.358 138.753 111.069C144.153 114.096 148.031 119.509 149.726 125.411C147.808 126.799 145.894 128.202 144.133 129.789C137.98 135.336 134.519 141.93 134.1 150.226L130.065 150.208C128.634 150.089 127.013 150.096 125.643 149.668C123.594 149.029 115.746 143.942 113.858 142.43C111.008 140.149 109.247 136.336 108.867 132.749C108.278 127.203 110.532 121.219 113.982 116.936C117.67 112.359 122.437 109.225 128.351 108.587Z" fill="white"/>
<path d="M114.234 129.139C114.357 129.128 114.484 129.107 114.607 129.144C115.071 129.281 115.134 129.408 115.295 129.816C115.189 130.466 114.901 130.829 114.512 131.349C114.198 131.295 113.833 131.176 113.6 130.95C113.341 130.699 113.208 130.329 113.304 129.974C113.436 129.493 113.845 129.361 114.234 129.139Z" fill="#444444"/>
<path d="M125.391 140.486C125.569 140.523 125.95 140.571 126.122 140.669C126.519 140.897 126.52 141.077 126.607 141.485C126.463 142.04 126.236 142.334 125.869 142.768C125.547 142.68 125.263 142.546 124.961 142.406C124.662 142.001 124.612 141.934 124.565 141.437C124.787 140.925 124.948 140.789 125.391 140.486Z" fill="#444444"/>
<path d="M114.147 120.568C114.363 120.579 114.627 120.577 114.841 120.636C115.281 120.759 115.419 120.96 115.632 121.337C115.643 121.971 115.388 122.318 115.059 122.843C114.753 122.872 114.543 122.836 114.244 122.783C113.91 122.511 113.709 122.403 113.656 121.938C113.591 121.361 113.831 121.015 114.147 120.568Z" fill="#444444"/>
<path d="M121.24 112.924C121.576 112.906 121.953 112.874 122.286 112.923C122.741 112.992 122.927 113.205 123.198 113.545C123.292 114.102 123.211 114.382 123 114.901C122.804 114.938 122.481 115.026 122.273 115.01C121.791 114.975 121.67 114.828 121.336 114.519C121.123 113.943 121.171 113.527 121.24 112.924Z" fill="#444444"/>
<path d="M120.454 132.337C120.721 132.411 120.71 132.402 120.998 132.512C121.383 132.659 121.722 132.941 121.829 133.358C121.988 133.98 121.631 134.481 121.279 134.939C120.965 134.952 120.713 134.908 120.407 134.837C120.209 134.639 120.03 134.53 119.956 134.247C119.767 133.526 120.062 132.923 120.454 132.337Z" fill="#444444"/>
<path d="M130.293 131.033C130.602 131.04 131.101 131.042 131.385 131.163C131.846 131.359 131.904 131.478 132.083 131.907C132.034 132.468 131.79 132.768 131.473 133.207C131.183 133.186 130.846 133.181 130.567 133.096C130.135 132.965 129.996 132.675 129.801 132.305C129.821 131.726 129.952 131.493 130.293 131.033Z" fill="#444444"/>
<path d="M123.721 122.788C123.966 122.836 124.375 122.89 124.583 123.042C124.902 123.275 125.104 123.565 125.111 123.97C125.121 124.539 124.775 124.988 124.456 125.421C124.11 125.387 123.828 125.295 123.502 125.178C123.311 124.968 123.143 124.861 123.091 124.569C122.967 123.87 123.35 123.336 123.721 122.788Z" fill="#444444"/>
<path d="M132.068 111.499C132.36 111.601 132.638 111.702 132.859 111.929C133.566 112.655 134.168 113.525 134.856 114.28C136.057 115.6 137.386 116.816 138.677 118.046C139.797 117.507 140.584 117.266 141.799 117.685C142.103 117.989 142.134 117.977 142.167 118.4C141.957 118.891 141.77 119.123 141.385 119.494C140.971 119.669 140.548 119.815 140.114 119.932C139.065 120.222 137.907 120.355 136.93 119.785C135.206 118.779 131.966 115.838 131.503 113.899C131.296 113.03 131.631 112.232 132.068 111.499Z" fill="#444444"/>
<path d="M129.685 115.381C130.205 115.356 130.684 115.391 131.177 115.572C134.731 116.873 132.529 120.31 133.213 121.881C133.676 122.054 134.064 122.178 134.421 122.54C134.589 123.137 134.666 123.628 134.319 124.2C134.07 124.61 133.734 124.8 133.267 124.864C132.667 124.945 131.981 124.685 131.535 124.298C130.157 123.103 130.648 120.87 130.425 119.315C130.371 118.939 130.312 118.936 130.018 118.723C127.133 118.125 124.174 119.399 121.505 118.837C120.834 118.695 120.524 118.471 120.169 117.891C120.143 117.325 120.174 117.022 120.377 116.493C121.881 115.227 123.421 117.093 125.008 117.076C126.373 117.061 128.249 115.708 129.685 115.381Z" fill="#444444"/>
<path d="M293.049 142.253C293.505 142.542 293.926 142.863 294.347 143.2C302.687 149.866 310.4 161.088 311.543 171.777C312.461 180.366 309.424 188.57 304.013 195.177C292.075 209.753 270.299 219.048 252.718 224.254C244.262 226.686 235.7 228.658 227.031 230.171C220.69 231.325 214.31 232.38 207.892 232.998C166.887 236.945 119.406 234.543 81.2038 218.29C71.7501 214.268 62.5212 209.338 54.5703 202.77C46.6403 196.218 39.2917 187.452 38.3261 176.803C37.5164 167.876 41.0577 160.123 46.6888 153.414C48.4836 151.338 50.4561 149.453 52.4416 147.563C52.2382 148.775 52.1976 150.035 52.1043 151.261C46.6745 156.178 42.2492 164.093 41.7266 171.473C41.1599 179.472 44.341 186.584 49.5353 192.549C55.3124 199.183 62.808 204.317 70.4895 208.494C95.0353 221.839 124.887 227.633 152.521 229.577C195.544 232.604 261.222 227.081 294.739 197.873C300.873 192.527 307.26 184.584 307.802 176.128C308.321 168.038 304.079 160.358 298.936 154.406C297.257 152.464 295.361 150.736 293.672 148.807C293.281 146.658 293.124 144.434 293.049 142.253Z" fill="white"/>
<path d="M160.228 125.341C161.683 125.243 163.165 125.397 164.619 125.486C164.402 125.652 164.202 125.837 164.02 126.04C163.838 126.244 163.677 126.463 163.537 126.698C162.401 128.561 165.161 128.966 165.554 130.524C163.72 130.703 162.338 129.044 159.3 129.908C158.065 130.259 156.412 130.937 155.776 132.127C155.787 132.342 155.736 132.46 155.91 132.617C156.125 132.811 156.346 132.874 156.624 132.922C159.127 133.349 161.759 132.145 164.28 132.108C166.102 132.082 168.095 132.958 169.844 132.719C170.301 132.657 170.703 132.371 170.947 131.972C171.201 131.555 171.129 131.399 171.02 130.962C170.358 130.196 169.852 130.01 168.856 129.823L168.627 129.782C167.695 128.468 166.87 127.101 166.042 125.72C170.247 126.224 173.772 127.486 177.059 130.227C182.137 134.459 186.1 141.481 186.632 148.118C187.133 154.366 183.601 159.236 179.755 163.798C177.678 166.099 176.119 167.295 172.949 167.717C172.664 167.524 172.374 167.339 172.078 167.162C171.783 166.985 171.482 166.817 171.177 166.657C170.872 166.498 170.562 166.347 170.248 166.206C169.934 166.064 169.617 165.931 169.295 165.807C168.974 165.684 168.649 165.569 168.321 165.464C167.993 165.359 167.662 165.264 167.328 165.178C166.995 165.092 166.659 165.015 166.321 164.948C165.983 164.881 165.644 164.824 165.303 164.777C163.434 164.503 161.568 164.677 159.704 164.908C155.058 165.485 151.905 166.479 148.148 169.277C146.816 168.614 145.607 167.729 144.495 166.745C140.103 162.858 137 157.596 136.637 151.671C136.228 145.005 138.935 138.916 143.34 133.995C147.86 128.946 153.426 125.748 160.228 125.341Z" fill="white"/>
<path d="M178.03 150.816C178.209 150.879 178.516 150.962 178.68 151.076C179.066 151.343 179.088 151.49 179.191 151.917C179.048 152.467 178.802 152.788 178.451 153.229L177.774 153.018C177.484 152.716 177.267 152.567 177.28 152.108C177.294 151.569 177.687 151.183 178.03 150.816Z" fill="#444444"/>
<path d="M172.693 144.849C172.92 144.892 173.208 144.927 173.424 145.021C173.841 145.203 173.952 145.447 174.105 145.846C174.037 146.447 173.821 146.721 173.45 147.187C173.2 147.157 172.943 147.088 172.698 147.037C172.387 146.748 172.141 146.592 172.116 146.128C172.087 145.582 172.367 145.241 172.693 144.849Z" fill="#444444"/>
<path d="M176.225 137.446C176.405 137.514 176.588 137.583 176.76 137.671C177.11 137.848 177.353 138.158 177.419 138.55C177.532 139.218 177.158 139.678 176.761 140.148C176.68 140.112 176.598 140.08 176.519 140.041C175.94 139.75 175.754 139.472 175.563 138.864C175.653 138.239 175.844 137.942 176.225 137.446Z" fill="#444444"/>
<path d="M166.008 149.86C166.267 149.845 166.546 149.818 166.804 149.847C167.264 149.899 167.428 150.057 167.725 150.389C167.816 150.974 167.666 151.317 167.453 151.844C167.184 151.879 166.79 151.968 166.527 151.92C166.078 151.839 166.001 151.63 165.779 151.281C165.732 150.725 165.821 150.382 166.008 149.86Z" fill="#444444"/>
<path d="M142.053 149.798C142.312 149.88 142.651 149.956 142.883 150.094C143.269 150.325 143.288 150.476 143.403 150.878C143.297 151.432 143.025 151.728 142.676 152.146L141.845 152.057C141.446 151.749 141.435 151.758 141.324 151.27C141.451 150.672 141.708 150.296 142.053 149.798Z" fill="#444444"/>
<path d="M165.583 141.07L166.182 141.356C166.341 141.593 166.477 141.711 166.493 142.01C166.537 142.789 165.99 143.382 165.524 143.946C165.374 143.847 165.22 143.752 165.078 143.641C164.822 143.441 164.619 143.126 164.61 142.794C164.59 142.079 165.125 141.554 165.583 141.07Z" fill="#444444"/>
<path d="M160.215 156.134C160.599 156.207 160.881 156.315 161.23 156.49C161.521 156.907 161.562 156.964 161.586 157.468C161.365 158.031 161.162 158.224 160.669 158.567C160.469 158.488 160.213 158.406 160.033 158.28C159.665 158.022 159.579 157.739 159.474 157.326C159.602 156.748 159.788 156.535 160.215 156.134Z" fill="#444444"/>
<path d="M157.849 148.497C158.185 148.474 158.526 148.479 158.863 148.472C159.3 148.7 159.344 148.728 159.584 149.156C159.581 149.767 159.478 150.087 159.194 150.625C158.954 150.639 158.622 150.686 158.39 150.631C157.914 150.518 157.845 150.366 157.603 149.984C157.54 149.41 157.661 149.038 157.849 148.497Z" fill="#444444"/>
<path d="M149.866 153.7C150.146 153.743 150.42 153.821 150.695 153.889C151.022 154.192 151.249 154.332 151.269 154.817C151.292 155.341 150.936 155.737 150.624 156.111C150.301 156.068 150.015 155.998 149.701 155.914C149.395 155.622 149.189 155.489 149.182 155.026C149.174 154.5 149.554 154.08 149.866 153.7Z" fill="#444444"/>
<path d="M173.167 158.359C173.47 158.436 173.828 158.542 174.041 158.789C174.279 159.063 174.402 159.427 174.279 159.782C174.093 160.324 173.657 160.458 173.198 160.708C172.882 160.631 172.701 160.538 172.422 160.38C172.186 160.003 172.036 159.848 172.161 159.378C172.301 158.852 172.736 158.614 173.167 158.359Z" fill="#444444"/>
<path d="M157.305 138.007C157.473 138.056 157.642 138.102 157.806 138.163C158.319 138.355 158.511 138.606 158.716 139.098C158.643 139.704 158.396 140.003 158.026 140.477C157.656 140.414 157.367 140.336 157.026 140.179C156.763 139.812 156.544 139.608 156.592 139.124C156.643 138.605 156.95 138.331 157.305 138.007Z" fill="#444444"/>
<path d="M144.29 141.756C144.654 141.74 144.869 141.822 145.203 141.961C145.357 142.184 145.498 142.29 145.495 142.574C145.485 143.322 145.06 143.747 144.574 144.251C144.359 144.183 144.032 144.109 143.852 143.977C143.462 143.691 143.465 143.49 143.39 143.05C143.568 142.438 143.827 142.184 144.29 141.756Z" fill="#444444"/>
<path d="M181.804 141.585C182.102 141.605 182.385 141.66 182.679 141.713C183.024 141.996 183.245 142.131 183.312 142.611C183.388 143.159 183.069 143.648 182.803 144.094C182.479 144.084 182.227 144.035 181.913 143.964C181.702 143.765 181.491 143.642 181.405 143.355C181.199 142.669 181.469 142.161 181.804 141.585Z" fill="#444444"/>
<path d="M151.156 144.306C151.489 144.346 151.897 144.387 152.173 144.603C152.485 144.847 152.662 145.187 152.657 145.587C152.651 146.165 152.305 146.56 151.945 146.965C151.686 146.922 151.428 146.843 151.174 146.779C150.829 146.426 150.673 146.304 150.609 145.788C150.542 145.255 150.874 144.724 151.156 144.306Z" fill="#444444"/>
<path d="M175.243 131.218C175.683 131.199 176.152 131.164 176.537 131.432C176.891 131.679 177.073 131.995 177.081 132.428C177.09 132.97 176.72 133.356 176.388 133.733C176.027 133.706 175.646 133.639 175.338 133.434C174.986 133.201 174.782 132.874 174.733 132.454C174.676 131.964 174.98 131.589 175.243 131.218Z" fill="#444444"/>
<path d="M148.857 130.314C149.241 130.413 149.508 130.573 149.846 130.773C150.595 131.993 149.282 132.79 149.424 134.062C149.95 134.721 150.976 134.895 151.694 135.306C152.103 135.539 152.22 135.709 152.353 136.149C152.066 136.872 151.501 137.166 150.83 137.495C150.786 137.49 150.742 137.486 150.698 137.48C149.469 137.303 148.348 136.752 147.597 135.733C147.047 134.988 146.804 134.063 146.963 133.146C147.162 132.003 147.948 130.993 148.857 130.314Z" fill="#444444"/>
<path d="M260.897 101.824C265.79 102.487 276.83 107.058 281.654 109.096C303.981 118.529 331.863 135.09 341.354 158.68C346.421 171.276 346.182 184.481 340.868 196.968C330.521 221.274 304.366 236.545 280.928 245.941C268.351 250.983 255.17 254.59 241.924 257.382C237.953 258.214 233.967 258.971 229.968 259.655C225.968 260.339 221.958 260.948 217.936 261.483C213.914 262.018 209.883 262.478 205.844 262.863C201.805 263.249 197.76 263.559 193.709 263.794C189.659 264.029 185.605 264.189 181.549 264.273C177.492 264.358 173.435 264.367 169.378 264.301C165.321 264.235 161.267 264.094 157.215 263.878C153.164 263.661 149.118 263.369 145.077 263.003C125.174 261.308 105.675 258.023 86.5639 252.09C80.3094 250.149 74.1372 248.052 68.1154 245.473C45.5404 235.805 17.6769 219.607 8.17094 195.577C3.19828 183.007 3.94196 169.433 9.28814 157.153C19.7788 133.056 47.2214 118.401 70.452 109.289C73.7903 107.991 77.1074 106.678 80.5425 105.655C79.487 107.779 78.3034 109.752 77.4192 111.971C74.8417 111.73 73.2318 112.313 70.8925 112.329C70.6991 112.006 70.5812 111.82 70.2561 111.622C68.2645 111.768 64.8615 113.677 62.9895 114.56C50.1444 120.622 37.5585 127.999 27.2333 137.86C17.0685 147.567 9.0752 160.122 8.80258 174.605C8.54237 188.428 15.204 201.244 24.6309 211.014C26.6211 213.077 28.7981 214.938 30.9742 216.799C55.3709 237.667 90.8378 248.516 122.065 253.486C129.575 254.663 137.116 255.573 144.691 256.216C152.265 256.859 159.852 257.234 167.452 257.34C208.568 258.122 253.44 252.424 290.923 234.695C301.855 229.524 312.99 222.859 321.738 214.416C332.331 204.193 341.472 191.38 341.715 176.08C342.187 146.409 309.443 124.823 285.669 113.883C282.025 112.206 278.315 110.586 274.558 109.181C271.799 108.149 267.033 106.821 264.686 105.362C263.257 104.474 262.064 103.029 260.897 101.824Z" fill="white"/>
<path d="M293.929 153.04C294.78 153.627 295.526 154.687 296.199 155.484C299.316 159.173 301.997 162.948 303.672 167.521C305.655 172.936 305.292 178.059 302.831 183.244C294.955 199.845 271.464 210.269 255.11 215.986C248.028 218.461 240.615 220.289 233.286 221.864C185.947 232.039 120.776 230.073 76.6956 208.702C65.0297 203.046 49.9394 193.62 45.5627 180.777C43.1824 173.792 44.6631 167.513 47.8093 161.083C48.0797 160.57 48.2078 160.086 48.7215 159.802C49.1057 160 49.4926 160.2 49.8908 160.369C50.8376 160.77 51.4792 160.45 52.3856 160.076C53.4452 163.712 54.9986 165.614 57.7945 168.076C58.8903 169.04 59.8641 169.937 60.6297 171.203C62.0157 173.493 62.6067 176.239 63.3792 178.777C64.5242 182.538 66.1901 185.674 68.5574 188.822C72.2324 193.707 76.8152 197.661 82.7871 199.268C85.2125 199.921 87.6502 200.492 89.7802 201.887C91.6704 203.126 93.2549 204.782 94.847 206.368C98.5309 210.035 102.573 213.559 107.839 214.549C115.84 216.053 121.682 212.073 130.743 215.074C133.439 215.967 136.044 217.295 138.513 218.697C141.647 220.478 145.979 223.924 149.55 224.337C150.138 224.405 150.873 224.35 151.306 223.892C151.621 223.56 151.646 223.204 151.659 222.773C151.496 222.422 151.477 222.298 151.12 222.113C150.462 221.772 149.623 221.58 148.917 221.34C147.006 220.69 145.346 219.889 143.76 218.63C151.19 213.762 162.23 219.236 170.042 220.827C178.037 222.455 182.454 220.337 189.711 217.594C191.917 216.76 194.153 216.005 196.509 215.745C203.678 214.952 210.754 218.416 218.196 217.865C225.515 217.323 230.552 213.447 236.363 209.546C239.096 207.712 242.02 205.924 244.977 204.478C251.644 201.216 258.849 199.154 265.919 196.971C269.935 195.732 273.997 194.63 277.77 192.733C281.482 190.865 285.055 188.143 287.744 184.966C289.754 182.591 290.897 179.84 291.908 176.931C295.13 167.657 294.776 162.545 293.929 153.04Z" fill="white"/>
<path d="M59.9128 187.809C60.3414 187.756 60.97 187.76 61.3695 187.969C61.7745 188.18 61.7564 188.35 61.8429 188.758C61.4857 190.17 60.1619 191.174 59.1485 192.137C59.0104 192.2 58.9575 192.236 58.7876 192.25C58.3183 192.288 57.9222 192.22 57.6094 191.89C57.457 191.296 57.4942 190.908 57.7577 190.365C57.7902 190.298 57.8254 190.232 57.8582 190.165C58.3248 189.209 59.1506 188.53 59.9128 187.809Z" fill="#444444"/>
<path d="M295.756 181.636C296.882 181.605 298.779 181.932 299.759 182.506C300.256 182.797 300.396 183.058 300.535 183.604C300.425 184.145 300.154 184.418 299.8 184.816C298.813 185.077 297.08 184.585 296.191 184.127C295.603 183.824 295.321 183.503 295.114 182.881C295.193 182.303 295.375 182.069 295.756 181.636Z" fill="#444444"/>
<path d="M80.645 200.434C81.8806 200.385 82.6879 201.062 83.6063 201.803C84.267 202.336 85.2719 203.379 85.237 204.308C85.2179 204.824 84.8782 205.056 84.5521 205.399C84.3959 205.444 84.24 205.492 84.0807 205.524C83.756 205.589 83.5906 205.527 83.325 205.336C82.3598 204.641 80.2413 203.054 80.1453 201.751C80.105 201.203 80.3459 200.853 80.645 200.434Z" fill="#444444"/>
<path d="M296.821 161.824C297.171 161.909 297.472 161.991 297.758 162.224C298.913 163.169 300.603 165.365 300.81 166.873C300.633 167.474 300.444 167.604 300.008 168.036C299.228 167.809 298.874 167.513 298.339 166.928C297.33 165.824 295.851 164.293 295.921 162.716C296.112 162.225 296.394 162.084 296.821 161.824Z" fill="#444444"/>
<path d="M189.125 220.724C190.675 220.908 192.389 221.99 193.782 222.713C194.7 223.189 195.971 223.752 196.302 224.787C196.194 225.455 195.932 225.895 195.585 226.47C194.509 226.491 189.668 223.848 188.808 223.076C188.518 222.817 188.454 222.642 188.422 222.261C188.369 221.632 188.753 221.18 189.125 220.724Z" fill="#444444"/>
<path d="M225.326 218.59C225.529 218.632 225.634 218.645 225.836 218.735C226.295 218.939 226.483 219.233 226.688 219.665C226.684 219.951 226.677 220.17 226.519 220.424C225.473 222.113 220.89 222.538 218.997 222.931C218.808 222.882 218.625 222.843 218.446 222.76C217.98 222.543 217.838 222.255 217.64 221.82C217.653 221.472 217.613 221.293 217.793 220.983C217.989 220.643 218.28 220.43 218.641 220.284C219.424 219.967 220.456 219.891 221.287 219.7C222.643 219.387 223.987 218.972 225.326 218.59Z" fill="#444444"/>
<path d="M55.972 169.859C56.4406 169.975 56.8528 170.101 57.1252 170.535C57.3778 170.938 57.277 171.299 57.1898 171.728C56.5189 172.735 55.1917 173.307 54.3334 174.185C53.0527 175.495 52.0167 177.861 50.4841 178.758C50.4096 178.744 50.3344 178.734 50.2606 178.718C49.658 178.585 49.4525 178.395 49.1261 177.88C49.0444 177.442 49.0239 177.14 49.1801 176.716C50.1409 174.109 53.4731 170.943 55.972 169.859Z" fill="#444444"/>
<path d="M272.215 197.978C272.918 198.008 281.844 199.442 282.319 199.62C282.768 199.789 282.899 200.035 283.096 200.449C283.133 201.021 283.014 201.312 282.759 201.819C280.199 202.079 274.853 201.746 272.613 200.466C272.185 200.221 271.786 199.89 271.712 199.369C271.636 198.841 271.953 198.403 272.215 197.978Z" fill="#444444"/>
<path d="M255.072 208.21C255.654 208.125 255.967 208.094 256.51 208.341C256.872 208.7 256.956 208.898 257.091 209.372C257.005 209.783 256.997 209.945 256.684 210.249C255.266 211.628 248.92 211.721 246.929 211.72C246.203 211.636 245.489 211.44 245.082 210.764C244.872 210.417 244.95 210.192 245.033 209.834C245.403 209.359 245.735 209.144 246.316 209C247.475 208.714 248.793 208.965 249.985 208.895C251.68 208.795 253.393 208.469 255.072 208.21Z" fill="#444444"/>
<path d="M36.7131 233.926C39.1942 235.002 41.5745 236.984 43.8854 238.422C47.2405 240.509 50.7012 242.352 54.2425 244.099C74.4369 254.066 95.6874 260.547 117.858 264.382C168.859 273.205 230.514 269.853 279.077 251.515C291.074 246.985 303.109 241.357 313.615 233.946C310.767 238.958 306.402 243.523 302.498 247.721C296.721 253.806 290.255 258.991 283.29 263.662C247.803 287.463 200.318 296.353 158.148 293.22C153.616 292.863 149.099 292.366 144.597 291.73C140.096 291.094 135.618 290.32 131.165 289.407C102.9 283.804 71.3973 270.808 50.4332 250.547C45.1982 245.488 40.7539 239.961 36.7131 233.926Z" fill="white"/>
<path d="M267.761 109.621C270.144 110.346 272.517 111.372 274.85 112.257C290.444 118.171 305.696 126.321 318.223 137.436C328.561 146.608 338.287 158.911 339.079 173.273C339.786 186.092 333.33 198.024 324.997 207.328C295.737 239.996 236.704 251.712 194.609 254.052C149.795 256.543 97.0565 251.024 56.677 230.448C47.6611 225.855 38.9952 220.559 31.4414 213.78C20.8541 204.278 12.3204 192.217 11.5695 177.522C10.9188 164.788 16.8523 152.794 25.2302 143.545C37.6581 130.725 49.2846 124.231 65.1252 116.405C63.4213 117.961 62.0706 119.882 60.7806 121.784C55.6164 129.398 54.443 135.226 52.7296 143.938C49.8349 146.135 47.1057 148.735 44.7254 151.484C38.7836 158.346 34.9278 167.129 35.6302 176.317C36.4966 187.658 43.6358 196.967 52.0204 204.108C87.437 234.272 153.897 240.081 198.974 236.429C229.732 233.936 266.416 227.191 292.13 209.293C296.952 205.937 301.674 202.065 305.474 197.56C311.547 190.359 315.063 181.681 314.184 172.167C312.828 157.486 303.505 147.301 292.766 138.387C291.761 133.833 290.798 129.241 287.745 125.55C284.155 121.212 279.709 119.956 274.335 119.438C272.242 116.039 270.135 112.838 267.761 109.621Z" fill="white"/>
<path d="M108.872 85.6785L109.114 85.6884C109.85 86.4024 110.605 92.9929 110.786 94.3297C110.138 94.8516 109.829 95.271 109.659 96.093C109.749 96.3401 109.747 96.4892 109.976 96.645C110.331 96.887 110.642 96.8986 111.061 96.8617C112.843 96.7048 114.696 96.0879 116.445 95.6952C120.439 94.7709 124.447 93.9149 128.47 93.1269C128.537 94.3051 128.507 95.4921 128.502 96.672C128.344 96.8668 128.177 97.0548 128.02 97.2497C126.907 98.6257 125.571 98.1766 124.414 100.067C122.951 100.64 121.629 101.341 120.633 102.59C117.004 101.893 110.058 100.529 107.59 97.7723C106.637 96.7072 105.828 94.9282 104.592 94.2025C104.141 94.1902 103.843 94.2842 103.453 94.4979C102.579 94.977 100.883 96.3415 100.726 97.3983C100.395 99.6108 104.845 105.489 106.169 107.379C105.706 107.454 104.948 107.648 104.511 107.507C104.019 107.348 103.707 106.912 103.472 106.488C103.297 106.173 103.217 106.009 102.887 105.828C101.231 105.941 99.64 108.03 98.1132 108.778C98.053 108.808 97.9922 108.836 97.932 108.864C96.3023 108.438 94.6661 107.319 93.0641 107.067C92.5408 106.985 92.3207 107.126 91.9383 107.428C91.7903 107.861 91.714 108.173 91.915 108.612C92.4441 109.767 94.4522 110.361 95.5558 110.889C91.8815 112.418 89.3102 115.963 87.3271 119.271C86.7368 118.804 86.0768 118.206 85.3576 117.964C83.8407 117.456 82.1724 117.94 80.7947 118.616C78.3809 119.8 76.246 122.062 75.4038 124.632C74.6727 126.863 75.0959 128.659 76.082 130.69C73.8975 130.915 71.9278 131.444 69.9611 132.425C68.976 132.915 67.2202 133.731 66.97 134.903C66.8763 135.341 67.0387 135.616 67.2674 135.969C67.497 136.119 67.8108 136.348 68.0962 136.37C69.042 136.443 72.8595 133.777 74.938 133.467C84.8135 131.991 83.7239 140.594 89.0391 144.542C87.1237 146.332 82.1536 149.833 81.7233 152.289C81.8207 152.576 81.831 152.718 82.1396 152.844C83.4969 153.401 85.4017 152.223 86.7101 151.86C91.4635 150.539 97.1804 150.337 101.526 152.97C105.213 155.204 109.217 160.015 110.234 164.247C109.655 165.185 109.155 166.081 109.07 167.201C108.953 168.739 109.433 170.783 110.481 171.959C110.89 172.419 111.379 172.658 112.007 172.652C112.463 172.648 112.791 172.494 113.099 172.164C113.418 171.024 112.378 169.872 111.906 168.883C111.596 168.234 111.398 167.541 111.662 166.843C112.348 165.024 114.702 163.713 116.405 162.96C119.575 161.557 123.03 161.254 126.46 161.38C138.394 161.817 139.54 167.624 145.448 176.113C146.113 177.068 146.621 178.039 147.743 178.478L148.135 178.216L147.909 178.517C148.231 178.545 148.126 178.57 148.402 178.481C148.67 178.394 148.669 178.245 148.796 178.009C148.795 176.532 148.053 175.467 147.348 174.217C147.593 173.761 147.842 173.294 148.151 172.876C150.854 169.219 155.114 168.198 159.376 167.589C163.771 166.962 168.999 167.184 172.319 170.592C174.271 172.596 175.762 175.287 177.362 177.59C179.688 180.937 182.746 184.438 186.032 186.867C186.73 187.384 187.506 187.977 188.416 187.841C188.745 187.506 188.834 187.323 188.862 186.846C188.881 186.526 188.844 186.043 188.666 185.769C188.168 185.002 185.541 183.11 184.691 182.277C182.983 180.602 181.503 178.761 180.02 176.89C183.48 171.621 189.753 169.238 195.672 167.956C198.366 170.079 201.54 171.278 204.167 173.572C206.785 175.857 209.049 178.532 211.439 181.049C215.947 185.798 219.778 189.07 225.358 192.557C228.118 194.28 231.369 196.062 234.563 196.807C235.334 196.987 235.88 196.981 236.573 196.572C236.811 196.223 236.936 196.059 236.852 195.604C236.707 194.809 235.684 194.308 235.003 194.07C227.13 191.317 220.279 186.585 214.429 180.671C211.188 177.394 208.22 173.661 204.569 170.835C202.793 169.46 200.859 168.374 198.905 167.278C205.113 165.532 214.155 163.249 220.546 162.904C228.942 162.45 234.695 169.714 240.363 174.829C248.505 182.177 260.051 189.089 271.385 188.457C272.36 188.402 273.18 188.301 273.839 187.493C274.115 187.154 274.225 186.852 274.184 186.415C273.917 185.869 273.247 185.706 272.691 185.617C271.044 185.355 269.283 185.497 267.612 185.409C263.796 185.209 260.308 184.2 256.81 182.687C245.426 177.766 239.751 169.218 229.988 162.675C233.314 160.292 236.989 157.8 240.913 156.569C247.911 154.374 254.12 157.195 259.294 161.971C263.006 165.398 266.178 169.352 270.741 171.726C273.408 173.114 279.12 174.787 282.012 173.682C282.371 173.545 282.639 173.325 282.745 172.939C282.847 172.571 282.728 171.985 282.501 171.668C282.218 171.272 281.962 171.185 281.505 171.084C278.758 171.116 275.876 170.822 273.315 169.776C270.13 168.474 267.547 166.033 265.079 163.708C260.819 159.695 256.73 155.9 251.111 153.887C253.988 151.706 258.445 147.786 261.872 146.766C263.313 146.338 264.81 146.435 266.205 146.986C269.248 148.188 272.068 150.879 274.685 152.851C276.972 154.574 279.308 156.094 281.902 157.314C282.789 157.731 283.984 158.41 284.973 158.423C285.496 158.43 285.993 158.092 286.264 157.662C286.486 157.31 286.543 156.864 286.394 156.473C286.007 155.458 282.605 154.488 281.528 153.893C278.873 152.402 276.315 150.76 273.856 148.965C271.287 147.075 268.81 144.801 265.87 143.52C268.205 140.503 269.633 137.554 270.242 133.791C274.058 133.365 277.601 134.167 280.813 136.328C281.668 136.903 282.354 137.724 283.234 138.248C283.764 138.565 284.252 138.704 284.865 138.546C285.13 138.279 285.253 138.189 285.208 137.774C285.05 136.334 282.467 134.306 281.322 133.515C278.526 131.582 274.135 130.198 270.75 130.868C270.377 130.942 270.571 130.963 270.195 130.782C269.419 129.612 269.068 128.026 269.154 126.636C268.918 126.252 268.679 125.868 268.385 125.525C267.455 124.439 266.396 123.957 264.98 123.868C264.223 123.096 263.539 122.412 262.437 122.203C260.462 121.828 258.584 123.134 257.019 124.167C253.861 122.122 250.673 119.757 247.882 117.234C247.899 117.197 247.916 117.161 247.932 117.125C249.573 113.329 253.279 113.584 254.619 110.871C254.952 110.197 254.815 109.603 254.595 108.925C254.306 108.634 254.305 108.67 253.889 108.656C253.046 109.019 252.554 109.757 251.811 110.269C249.266 112.025 247.3 112.883 245.567 115.6C243.312 113.775 241.081 111.95 239.026 109.898C239.454 108.599 239.82 107.877 241.041 107.141C243.509 105.654 247.248 105.292 250.067 105.14C253.064 104.977 257.103 105.168 259.741 106.784C261.34 107.764 267.18 116.423 268.56 118.58C269.525 120.086 270.33 121.862 271.821 122.922C273.645 124.22 276.729 123.751 278.886 124.375C282.143 125.316 284.802 128.069 286.324 131.012C287.151 132.61 287.669 134.338 288.019 136.098C288.871 140.375 288.994 144.775 289.368 149.11C289.843 154.638 290.612 160.1 290.325 165.666C290.261 166.849 290.123 168.024 289.911 169.189C289.698 170.355 289.413 171.503 289.055 172.632C286.927 179.258 285.506 182.725 279.731 186.917C273.992 191.084 267.484 192.144 260.903 194.255C254.911 196.177 248.727 198.331 243.028 200.989C240.06 202.373 237.2 204.218 234.519 206.096C230.141 209.162 226.351 212.369 220.87 213.209C213.229 214.38 206.011 211.29 198.445 211.362C190.627 211.437 184.141 216.359 176.359 216.673C162.618 217.228 156.087 208.703 141.461 216.123C135.714 211.969 129.092 209.437 121.943 209.75C119.44 209.86 116.953 210.317 114.463 210.58C106.028 211.472 101.609 207.068 95.9479 201.69C94.215 200.044 92.4192 198.375 90.3007 197.235C85.5566 194.683 80.984 195.158 76.3964 191.419C71.6441 187.546 68.894 182.727 67.0247 176.985C66.1401 174.268 65.3041 171.56 63.9178 169.045C60.9045 163.578 56.9031 164.678 56.1272 156.547C55.851 153.655 56.0503 150.696 56.1949 147.8C56.7243 137.191 58.8041 128.16 65.7952 119.852C67.9455 117.297 71.575 114.064 75.1964 114.549C76.2556 114.691 77.6303 115.38 78.6673 115.219C79.0481 115.16 79.3458 114.741 79.5269 114.43C79.9812 113.647 80.256 112.676 80.5769 111.826C81.2387 110.075 82.0573 108.462 83.1941 106.967C85.5152 103.913 89.5173 101.359 93.3639 100.863C94.6771 100.694 96.0381 101.016 97.3417 100.795C97.7304 100.729 97.9402 100.605 98.1644 100.291C99.13 98.9402 97.7355 97.8064 97.5304 96.4786C97.2296 94.5324 98.1648 92.1473 99.3112 90.6157C101.574 87.5925 105.256 86.2062 108.872 85.6785Z" fill="white"/>
<path d="M262.78 117.344C263.216 117.355 263.752 117.322 264.077 117.669C264.362 117.973 264.476 118.263 264.426 118.678C264.364 119.206 264.054 119.482 263.698 119.826C263.371 119.822 262.952 119.8 262.666 119.627C262.323 119.42 262.151 119.103 262.142 118.708C262.13 118.184 262.488 117.745 262.78 117.344Z" fill="#444444"/>
<path d="M244.74 107.767C245.221 107.939 245.491 108.062 245.879 108.413C246.004 108.722 246.111 108.867 246.078 109.208C246.009 109.923 245.459 110.397 244.942 110.828C244.475 110.684 244.213 110.578 243.829 110.257C243.698 109.972 243.554 109.794 243.588 109.469C243.668 108.688 244.175 108.249 244.74 107.767Z" fill="#444444"/>
<path d="M256.941 114.817L257.707 114.908C258.061 115.175 258.078 115.175 258.192 115.599C257.991 116.54 257.428 117.131 256.665 117.681C256.132 117.53 255.916 117.427 255.522 117.038C255.433 116.745 255.332 116.609 255.427 116.302C255.675 115.502 256.258 115.206 256.941 114.817Z" fill="#444444"/>
<path d="M258.923 110.374C259.309 110.348 259.712 110.346 260.069 110.518C260.842 110.892 261.569 111.628 261.795 112.471C261.951 113.05 261.756 113.236 261.463 113.701C261.154 113.694 260.874 113.649 260.587 113.528C259.574 113.103 258.89 112.589 258.459 111.586C258.493 110.988 258.606 110.864 258.923 110.374Z" fill="#444444"/>
<path d="M150.402 178.231C150.955 178.246 151.53 178.307 152.008 178.611C153.01 179.247 154.517 181.949 155.226 183.016C161.013 191.718 167.372 200.493 176.702 205.687C178.548 206.715 180.611 207.155 182.478 208.095C182.987 208.351 183.16 208.559 183.342 209.091C183.256 209.65 183.075 209.929 182.739 210.378C182.636 210.387 182.533 210.398 182.43 210.405C178.742 210.673 171.51 205.624 168.77 203.315C166.736 201.586 164.847 199.71 163.104 197.688C161.119 195.412 149.784 180.691 149.797 179.035C149.799 178.786 150.234 178.419 150.402 178.231Z" fill="#444444"/>
<path d="M70.7351 140.468C71.0335 140.51 71.4109 140.532 71.6908 140.638C72.1003 140.793 72.2889 140.959 72.4161 141.377C72.4971 141.644 71.8255 150.365 71.8641 152.088C72.0832 161.832 74.2515 170.141 78.8135 178.743C79.4773 179.995 80.555 180.887 81.3513 182.042C81.6788 182.517 81.8459 182.886 81.7389 183.476C81.4446 183.97 81.1507 184.173 80.6671 184.474C80.2217 184.267 79.8283 184.081 79.4547 183.758C77.6452 182.189 76.3854 179.932 75.3179 177.826C71.5172 170.327 69.7634 162.236 69.3081 153.886C69.1601 151.172 68.9561 142.449 70.7351 140.468Z" fill="#444444"/>
<path d="M122.477 169.981C122.981 170.016 123.271 170.087 123.729 170.3C124.604 171.315 124.275 173.979 124.441 175.336C124.689 177.371 125.368 179.586 126.01 181.528C128.866 190.165 133.95 197.92 141.209 203.496C142.189 204.249 143.225 205.042 144.307 205.644C145.52 206.318 147.21 206.768 148.236 207.682C148.54 207.953 148.73 208.25 148.699 208.677C148.663 209.172 148.235 209.572 147.914 209.912C144.809 209.845 139.58 205.797 137.333 203.772C129.392 196.619 122.014 183.855 121.632 172.903C121.59 171.699 121.652 170.886 122.477 169.981Z" fill="#444444"/>
<path d="M90.6596 157.01C91.1251 157.016 91.5015 157.077 91.9513 157.18C92.9397 158.092 93.0033 161.879 93.2053 163.327C94.7085 174.11 98.996 185.302 105.725 193.901C108.218 197.088 111.141 200.302 114.555 202.503C115.146 202.884 117.357 204.107 117.475 204.83C117.583 205.494 117.133 206.087 116.781 206.603C115.331 206.284 114.024 205.429 112.825 204.58C100.497 195.86 93.3861 179.41 90.9132 164.941C90.5478 162.803 89.357 158.847 90.6596 157.01Z" fill="#444444"/>
</g>
<defs>
<clipPath id="clip0_177_20368">
<rect width="350" height="350" fill="white"/>
</clipPath>
</defs>
</svg>
