<svg width="375" height="415" viewBox="0 0 375 415" fill="none" xmlns="http://www.w3.org/2000/svg">
<g opacity="0.9" clip-path="url(#clip0_177_19865)">
<path d="M-20 0H173.954H183.161H395.406V415.406H280.989H184.567H175.298H-20V0Z" fill="black" fill-opacity="0.01"/>
<path d="M175.246 415.203C178.237 415.158 181.619 414.891 184.567 415.406H175.298L175.246 415.203Z" fill="white"/>
<path d="M294.909 322.965L295.122 323.101C294.943 323.498 294.767 323.909 294.552 324.289C294.304 324.723 294.087 325.162 293.606 325.313L293.311 324.98C292.802 324.529 292.245 324.117 291.714 323.69C292.767 323.396 293.839 323.187 294.909 322.965Z" fill="white"/>
<path d="M75.181 317.522C77.374 318.638 84.2364 322.248 85.3552 324.013L85.1877 324.36C82.4628 323.306 76.8722 320.988 74.7721 319.178C74.6086 318.61 74.9713 318.067 75.181 317.522Z" fill="white"/>
<path d="M286.139 325.558C287.126 325.514 288.091 325.437 289.049 325.737C291.063 326.367 291.959 327.754 292.892 329.522L290.547 329.084C288.097 328.48 285.654 327.849 283.219 327.19C284.175 326.531 285.067 326.013 286.139 325.558Z" fill="white"/>
<path d="M141.355 359.294C142.435 359.806 145.925 364.133 147.066 365.336C146.797 365.65 146.078 365.609 145.661 365.66C143.802 365.35 141.865 365.312 139.985 365.186C140.328 363.206 140.625 361.174 141.355 359.294Z" fill="white"/>
<path d="M186.948 144.562C188.295 145.146 189.515 147.664 190.23 148.925C188.482 149.17 186.699 149.186 184.936 149.254C184.126 149.273 182.987 149.43 182.246 149.051C181.943 148.896 181.988 148.81 181.886 148.516C182.333 147.019 185.629 145.347 186.948 144.562Z" fill="white"/>
<path d="M266.428 334.549C266.537 334.541 266.646 334.528 266.756 334.527C269.036 334.486 270.174 335.184 271.818 336.683L271.745 339.542C270.615 338.999 269.442 338.558 268.277 338.098C265.889 337.365 263.552 336.408 261.239 335.467C262.958 335.067 264.684 334.805 266.428 334.549Z" fill="white"/>
<path d="M203.185 366.747C204.793 366.85 206.391 367.035 207.98 367.299C210.139 367.665 221.491 369.808 222.164 370.754C215.398 372.084 209.175 369.715 203.185 366.747Z" fill="white"/>
<path d="M363.388 324.656C366.846 325.814 370.243 327.003 373.561 328.523C372.806 328.749 372.042 328.946 371.282 329.155C368.519 329.63 365.772 330.256 362.979 330.521C363.405 328.479 363.57 326.738 363.388 324.656Z" fill="white"/>
<path d="M222.53 69.1272C222.883 69.1459 223.322 69.1641 223.655 69.2976C224.283 69.5487 224.649 69.9746 224.853 70.6022C225.28 71.9117 225.079 73.4476 224.487 74.667L224.165 74.7697C223.599 74.4119 222.934 73.9441 222.253 73.8545C221.244 73.7218 220.291 74.4362 219.515 74.9895L219.271 75.1668C218.47 75.8268 217.787 76.4301 217.169 77.2787C217.353 75.5997 217.464 73.8046 218.032 72.2066C219.389 70.8773 220.829 69.9535 222.53 69.1272Z" fill="white"/>
<path d="M313.722 299.203C314.14 299.825 313.898 302.067 313.897 302.916C309.436 302.785 307.695 303.428 304.636 306.66C303.997 307.336 303.344 308.19 302.574 308.714C302.479 308.778 302.382 308.84 302.285 308.902C302.495 305.849 304.956 302.526 306.579 300.026C309.351 300.58 311.195 300.604 313.722 299.203Z" fill="white"/>
<path d="M344.17 310.16C345.256 310.067 346.362 310.11 347.397 310.474C349.152 311.092 350.155 312.342 350.914 313.981C348.916 314.093 347.161 314.28 345.253 314.913C343.893 315.434 342.609 316.139 341.317 316.806C340.935 316.395 340.343 315.872 340.143 315.342C339.872 314.626 339.928 313.89 340.227 313.192C340.889 311.644 342.682 310.71 344.17 310.16Z" fill="white"/>
<path d="M336.53 323.091C336.618 323.09 336.707 323.069 336.793 323.087C336.928 323.114 337.08 323.131 337.182 323.224C337.184 323.225 337.186 325.611 337.278 326.259C337.61 328.594 338.549 330.411 339.859 332.344C338.272 332.451 336.673 332.489 335.083 332.56C334.612 332.606 334.243 332.623 333.777 332.53C333.26 331.973 333.072 330.788 332.968 330.035C332.837 329.083 332.543 328.408 332.114 327.56L331.938 327.217C333.219 325.201 334.316 324.052 336.53 323.091Z" fill="white"/>
<path d="M344.437 290.941C344.866 291.193 345.189 291.511 345.515 291.883C347.281 293.904 348.34 296.689 348.118 299.382C347.907 301.929 346.797 304.145 344.834 305.767C343.728 306.139 342.587 306.289 341.438 306.467C344.417 301.503 344.095 296.537 344.437 290.941Z" fill="white"/>
<path d="M223.744 76.3105L223.95 76.4972C224.087 78.9965 220.751 85.1708 219.154 87.1306C218.39 88.0693 216.402 90.2984 215.148 90.3159C214.875 90.3195 214.889 90.2323 214.646 90.0206C214.112 88.604 214.892 86.761 215.281 85.3517C215.723 83.3599 215.936 79.6727 217.18 78.1085L217.537 78.0833C217.801 78.4001 217.967 78.5981 218.076 79.0066C218.319 79.9182 217.279 81.3413 216.84 82.1205C217.382 82.3571 218.195 82.8175 218.795 82.7412C219.322 82.6739 219.769 82.3433 220.089 81.9416C221.033 80.7587 220.733 78.493 220.571 77.0874L223.744 76.3105Z" fill="white"/>
<path d="M131.642 349.348C131.768 349.329 131.894 349.297 132.022 349.292C133.109 349.245 135.045 351.874 135.854 352.719C127.965 352.859 119.746 354.24 112.384 357.06C111.953 357.246 111.519 357.426 111.083 357.599C110.368 357.876 109.981 357.919 109.272 357.607C109.205 357.187 109.192 357.116 109.448 356.744C112.109 352.884 126.549 350.172 131.642 349.348Z" fill="white"/>
<path d="M356.968 316.234C362.661 317.399 368.303 318.703 373.813 320.568C376.149 321.359 381.018 322.695 382.148 324.984C382.136 325.603 382.029 325.608 381.606 326.075C380.718 326.475 379.798 326.752 378.871 327.045C373.85 322.995 367.177 322.013 361.115 320.38C359.824 318.893 358.425 317.554 356.968 316.234Z" fill="white"/>
<path d="M125.74 391.626C127.787 391.505 131.526 393.428 133.817 393.884C139.619 395.037 145.799 395.665 151.715 395.736C157.193 395.8 162.796 395.533 168.224 394.768C169.415 394.6 176.404 392.877 176.582 392.912C176.865 392.968 176.859 393.151 176.972 393.384C176.767 394.006 176.608 394.094 176.126 394.512C175.703 394.71 175.272 394.887 174.831 395.043C164.602 398.757 135.864 398.271 126.207 393.308C125.672 393.034 125.373 392.772 125.208 392.195L125.74 391.626Z" fill="white"/>
<path d="M258.75 337.553C260.42 338.074 262.047 338.849 263.688 339.463C266.317 340.447 268.96 341.319 271.541 342.431C271.537 343.994 271.899 347.505 271.172 348.733L270.821 348.731C266.282 347.459 261.936 345.532 257.463 344.051C257.564 341.685 257.939 339.781 258.75 337.553Z" fill="white"/>
<path d="M297.763 314.881C298.719 314.709 299.858 314.757 300.835 314.711L299.582 317.982C293.814 318.49 284.483 319.895 279.98 323.455C279.295 323.996 278.818 324.781 278.235 325.433C277.532 325.099 276.772 324.722 276.125 324.284C275.51 323.869 274.944 323.233 274.852 322.467C274.783 321.901 275.014 321.387 275.365 320.959C278.556 317.073 292.686 315.262 297.763 314.881Z" fill="white"/>
<path d="M209.898 389.406C211.251 389.82 212.699 390.915 214.07 391.495C208.331 395.748 202.554 400.462 196.305 403.919C195.429 404.334 194.524 404.694 193.631 405.07C193.484 403.329 193.421 401.584 193.345 399.839C198.907 396.432 204.425 392.954 209.898 389.406Z" fill="white"/>
<path d="M158.577 348.173C162.228 348.774 165.958 348.981 169.624 349.526C174.965 350.321 190.921 353.368 194.24 357.298C194.38 357.918 194.237 357.994 193.945 358.538C193.714 358.697 193.438 358.925 193.179 359.026C192.613 359.246 192.286 358.947 191.773 358.711C186.123 356.102 181.298 354.609 175.182 353.647C170.339 352.885 165.761 352.55 161.108 350.79C159.557 350.203 159.234 349.624 158.577 348.173Z" fill="white"/>
<path d="M168.367 355.632C170.35 356.162 172.472 356.369 174.498 356.709C179.548 357.556 184.967 358.732 189.492 361.169C188.417 361.632 187.289 361.983 186.182 362.362C181.38 363.735 176.429 364.48 171.49 365.163C171.156 361.23 170.714 358.906 168.367 355.632Z" fill="white"/>
<path d="M152.612 42.6074L152.799 42.7121C152.956 42.9563 153.029 43.1502 153.079 43.4382C153.463 45.6775 152.643 48.1517 151.299 49.948C150.069 51.5918 148.196 52.8356 146.127 53.0449C144.136 53.2465 141.494 52.4834 139.908 51.2453C138.146 49.2267 137.712 47.6402 137.341 45.0305C142.922 45.4828 147.375 44.4358 152.612 42.6074Z" fill="white"/>
<path d="M137.721 355.682C138.24 355.735 138.288 355.788 138.698 356.121C139.13 357.028 137.078 363.416 136.859 365.066C130.402 364.268 124.199 363.181 117.86 361.73C116.1 361.266 114.374 360.718 112.642 360.163C120.203 357.066 129.637 356.327 137.721 355.682Z" fill="white"/>
<path d="M326.136 312.216C326.358 312.195 326.581 312.175 326.804 312.158C329.557 311.94 332.964 312.63 335.062 314.522C336.745 316.04 336.853 317.515 336.928 319.63C333.929 320.672 331.835 322.173 329.899 324.695C326.34 322.896 322.427 322.393 318.9 320.656C319.205 319.193 319.58 317.682 320.328 316.376C321.629 314.106 323.673 312.891 326.136 312.216Z" fill="white"/>
<path d="M122.828 330.068C124.613 331.112 127.463 334.555 129.066 336.17C134.642 341.717 140.118 347.361 145.496 353.1C149.264 357.093 153.103 361.089 156.479 365.423L156.252 365.677L151.286 365.667C149.047 362.811 146.294 360.323 143.934 357.559C136.584 348.948 129.695 340.891 122.009 332.513L122.828 330.068Z" fill="white"/>
<path d="M312.742 321.724C313.223 321.717 313.726 321.687 314.186 321.854C315.657 322.388 317.097 323.58 318.59 324.22C321.256 325.364 324.118 325.928 326.706 327.28C327.212 327.544 327.915 327.854 328.32 328.245C329.551 329.437 329.532 330.97 329.61 332.557C327.053 332.612 324.499 332.498 321.944 332.41C316.232 332.372 310.231 332.019 304.588 331.155C306.998 328.028 308.565 322.885 312.742 321.724Z" fill="white"/>
<path d="M153.171 347.694L153.368 347.674C155.847 347.444 155.659 350.568 157.26 351.822C159.537 353.605 162.615 354.069 164.854 355.95C167.702 358.343 168.547 361.869 168.869 365.399C167.088 365.583 165.304 365.673 163.516 365.767C162.385 365.863 161.231 365.866 160.096 365.905C158.405 362.593 155.844 359.794 153.343 357.074C152.228 355.862 147.992 351.954 147.535 350.795C147.585 350.61 147.602 350.494 147.719 350.324C148.612 349.027 151.674 348.054 153.171 347.694Z" fill="white"/>
<path d="M310.7 306.112C316.21 305.439 316.572 308.881 320.588 311.062C320.671 311.108 320.756 311.151 320.84 311.196C320.684 311.496 319.435 312.163 319.098 312.483C317.513 313.989 316.455 316.764 315.73 318.778C314.15 318.482 312.814 318.296 311.21 318.723C307.269 319.774 305.215 323.853 303.36 327.129C302.616 328.366 301.794 329.594 301.304 330.958C299.681 330.724 297.85 330.568 296.337 329.92C294.988 326.335 300.41 322.475 302.127 319.898C303.132 318.39 303.582 316.495 304.144 314.79C305.413 310.943 306.928 308.022 310.7 306.112Z" fill="white"/>
<path d="M347.917 317.289C349.65 317.076 351.298 317.128 352.945 317.768C355.844 318.896 358.297 321.702 359.434 324.573C360.366 326.928 359.956 328.751 359.011 330.982C356.495 331.335 353.968 331.563 351.44 331.803C348.773 332.014 346.144 332.139 343.469 332.056C342.406 329.92 339.891 327.432 339.502 325.242C339.28 323.987 339.687 322.762 340.4 321.731C342.074 319.31 345.088 317.799 347.917 317.289Z" fill="white"/>
<path d="M202.975 377.794C207.603 379.42 212.389 380.521 217.072 381.975C223.736 384.044 230.223 386.637 236.666 389.305C240.955 391.082 245.41 392.819 249.411 395.194C248.75 396.965 247.339 398.521 246.192 400.009L244.892 401.423C241.729 400.245 238.611 398.841 235.499 397.529C226.871 393.964 218.386 390.086 210.045 385.894C207.436 384.611 204.065 383.405 201.813 381.614C201.429 381.31 201.15 380.941 201.159 380.425C201.178 379.315 202.226 378.474 202.975 377.794Z" fill="white"/>
<path d="M172.188 151.919C175.503 151.913 178.847 151.819 182.156 152.01C181.502 160.387 179.933 168.736 178.856 177.065C178.581 179.191 177.795 187.653 177.332 188.947C177.284 189.082 177.149 189.168 177.057 189.278L176.37 189.279C173.06 189.596 169.659 189.372 166.337 189.289C167.828 182.131 169.35 174.979 170.31 167.724C170.845 163.681 171.082 155.27 172.188 151.919Z" fill="white"/>
<path d="M173.616 170.547C174.265 170.537 174.762 170.495 175.256 170.992C176.34 172.084 176.515 173.586 176.483 175.054C176.437 177.185 175.932 178.722 174.406 180.205C173.802 180.337 173.309 180.296 172.799 179.901C172.054 179.323 171.836 178.261 171.776 177.373C171.623 175.151 172.126 172.246 173.616 170.547Z" fill="#444444"/>
<path d="M201.058 113.113C202.158 113.884 202.924 117.739 203.288 119.117C204.216 122.632 204.779 126.161 205.072 129.782C206 141.263 202.766 148.298 197.116 157.986C195.489 152.942 194.047 148.706 190.659 144.55C190.616 144.495 190.575 144.44 190.53 144.387C189.588 143.277 188.55 142.264 187.015 142.213C183.868 142.107 180.254 145.945 178.19 147.968C179.362 145.588 180.098 142.734 181.545 140.535C183.262 137.927 191.057 134.256 194.218 130.767C197.391 127.265 198.776 120.172 198.614 115.56C199.39 114.71 200.237 113.919 201.058 113.113Z" fill="white"/>
<path d="M147.621 102.316C148.754 103.128 150.418 106.325 151.268 107.607C155.826 114.485 162.552 121.804 170.866 123.593C173.329 124.123 175.824 124.257 178.339 124.223C186.041 124.117 189.111 121.699 195.285 117.682C194.865 119.637 194.262 121.591 193.583 123.47C191.738 128.577 189.332 130.151 185.115 133.216C183.03 134.535 180.675 135.822 179.021 137.69C176.922 140.062 175.777 145.717 173.783 147.377C172.474 145.461 173.302 140.634 171.072 137.983C169.253 135.821 166.112 134.172 163.796 132.531C158.252 128.605 152.749 123.349 149.107 117.617C147.682 115.374 145.273 111.485 145.777 108.716C146.163 106.599 147.135 104.464 147.621 102.316Z" fill="white"/>
<path d="M316.735 274.909C319.328 274.716 325.714 274.634 327.9 276.147C329.443 277.217 329.806 278.721 331.855 279.081C332.02 279.11 332.186 279.132 332.35 279.168C333.92 279.507 335.196 281.731 336.487 282.683C337.153 283.176 338.015 283.51 338.761 283.869C339.54 284.244 340.807 284.703 341.174 285.53C342.324 288.114 341.09 296.996 340.334 299.767C339.465 302.95 336.85 307.314 333.902 308.908C332.531 309.65 331.393 309.115 330.018 308.692C330.935 306.814 331.917 304.945 332.71 303.013C334.645 298.302 337.19 288.678 335.061 283.827C334.762 283.147 334.467 282.639 333.763 282.358C333.096 282.664 332.818 283.238 332.672 283.943C332.347 285.518 332.447 287.328 332.266 288.944C331.705 293.951 330.214 302.369 327.456 306.525C327.059 307.123 326.492 307.723 325.728 307.77C325.177 307.804 324.857 307.636 324.456 307.292C323.291 305.055 325.77 296.709 326.142 293.754C326.798 290.686 327.246 281.185 325.777 278.529C325.523 278.07 325.355 277.891 324.85 277.776C324.792 277.819 324.727 277.855 324.675 277.906C324.138 278.443 323.969 279.631 323.85 280.355C323.254 283.993 323.223 287.805 322.79 291.48C322.175 296.705 320.996 302.089 320.952 307.342C320.265 306.82 319.575 306.298 318.962 305.689C315.511 302.26 317.409 297.03 317.299 292.735C317.256 291.036 316.758 289.217 315.457 288.045C314.092 286.818 312.064 286.173 310.248 286.388C309.694 286.454 309.465 286.539 309.142 286.986C309.607 288.723 312.796 289.469 313.735 291.37C314.165 292.242 314.474 293.495 314.077 294.426C313.682 295.35 312.737 295.963 311.841 296.331C309.2 297.415 306.528 296.83 303.993 295.77C302.103 294.979 299.627 293.585 298.879 291.582C298.595 290.824 298.591 289.937 298.977 289.212C300.405 286.527 304.041 285.718 306.335 283.899C309.476 281.41 313.141 275.997 316.735 274.909Z" fill="white"/>
<path d="M72.8595 218.045C73.3447 218.563 73.6517 221.756 73.8181 222.599C74.7819 227.491 77.005 231.955 79.1392 236.414C75.7998 245.338 75.4351 245.546 79.3307 254.301C77.0269 261.837 77.2679 263.613 78.9259 271.278C75.4951 268.932 72.2631 266.23 68.9598 263.705C66.0337 261.306 63.0341 258.954 60.332 256.301C60.3583 256.235 60.3859 256.169 60.4115 256.103C61.035 254.466 61.3575 252.878 60.9044 251.143C60.2164 248.511 58.1235 245.809 56.8051 243.424C55.0834 240.31 53.4847 237.17 52.0847 233.898C53.9824 232.06 55.496 229.888 57.0051 227.733C62.6885 224.912 67.9213 222.107 72.8595 218.045Z" fill="white"/>
<path d="M143.856 97.946C143.912 99.9091 140.942 102.722 141.528 107.628C142.736 117.727 150.882 126.29 158.464 132.47C161.572 135.004 164.913 137.253 168.057 139.741C168.799 142.552 169.179 145.452 169.756 148.301C166.455 148.307 163.059 147.921 159.796 147.435C161.4 145.181 164.058 143.693 165.514 141.474C165.861 140.947 166.004 140.499 165.876 139.865C165.548 139.481 165.392 139.254 164.844 139.193C163.472 139.04 161.849 140.5 160.819 141.255C154.925 145.855 151.124 151.619 147.563 158.072C147.398 157.896 147.239 157.715 147.084 157.529C140.609 149.742 132.46 123.679 133.517 113.607C134.162 107.464 139.224 101.658 143.856 97.946Z" fill="white"/>
<path d="M273.239 326.489C273.667 326.719 274.099 326.941 274.535 327.155C283.456 331.511 294.034 332.847 303.797 333.972C324.211 336.325 345.036 336.984 365.425 333.87C371.488 332.945 377.214 331.365 383.011 329.4C382.91 331.601 383.145 334.873 381.685 336.62C372.225 343.382 342.909 344.52 330.907 344.401C319.223 344.284 307.303 343.616 295.772 341.695C289.09 340.581 277.179 338.4 273.146 332.753C273.127 330.659 273.128 328.581 273.239 326.489Z" fill="white"/>
<path d="M281.976 242.675C282.903 242.664 283.836 242.651 284.763 242.703C288.975 242.938 295.036 244.065 297.978 247.333C298.501 249.865 297.956 252.551 298.803 255.021C299.751 257.784 301.878 259.778 302.586 262.678C302.029 264.279 301.466 265.383 300.261 266.597C298.895 264.647 298.025 262.305 296.456 260.502C294.12 257.817 290.426 256.9 287.016 256.638C286.648 256.609 286.28 256.588 285.911 256.577C285.542 256.565 285.174 256.563 284.805 256.569C284.436 256.576 284.068 256.592 283.699 256.617C283.331 256.641 282.964 256.675 282.598 256.718C282.231 256.761 281.866 256.813 281.502 256.874C281.138 256.935 280.776 257.005 280.416 257.084C280.056 257.163 279.697 257.251 279.341 257.347C278.985 257.444 278.632 257.549 278.281 257.663C277.93 257.777 277.582 257.9 277.237 258.031C276.892 258.162 276.551 258.301 276.213 258.449C275.875 258.597 275.541 258.753 275.211 258.918C274.88 259.082 274.554 259.255 274.233 259.436C273.911 259.616 273.594 259.805 273.281 260.001C272.969 260.197 272.662 260.401 272.359 260.612C272.057 260.823 271.76 261.042 271.468 261.268C271.177 261.494 270.891 261.727 270.611 261.967C264.438 267.274 258.411 275.608 257.806 283.939C257.798 284.817 257.751 285.843 257.969 286.692C258.542 288.926 261.622 289.027 263.282 290.106C263.367 290.162 263.45 290.221 263.534 290.278C264.681 291.052 265.588 292.135 266.525 293.143C266.159 293.233 265.793 293.308 265.422 293.377C259.337 294.512 256.405 291.846 253.457 287.043C252.744 285.882 252.047 284.576 251.049 283.635C249.872 282.525 248.066 282.303 246.79 281.348C246.172 280.885 245.959 280.404 245.891 279.653C245.117 271.084 251.558 261.294 256.967 255.078C263.972 247.027 271.322 243.418 281.976 242.675Z" fill="white"/>
<path d="M42.3827 234.559C44.5915 234.304 46.5603 234.364 48.6868 235.036C50.1504 237.587 51.2952 240.343 52.666 242.95C54.4489 246.341 57.1133 249.88 58.1531 253.551C57.5154 252.906 56.9669 252.176 56.3507 251.51C54.87 249.908 53.167 249.158 50.9886 249.078C44.3019 248.831 37.4595 253.981 32.8657 258.334C28.123 262.829 21.825 271.031 21.7629 277.897C21.7442 279.931 22.4469 282.181 23.9543 283.61C24.3896 284.022 24.7592 284.296 25.3648 284.298C25.6403 283.981 25.8914 283.726 26.2305 283.478C27.3185 283.493 30.6584 285.686 31.8884 286.285C30.2698 287.378 28.8203 287.998 26.9433 288.525C23.9774 287.734 21.6497 286.159 19.1541 284.416C18.1625 283.652 17.2148 282.837 16.3111 281.97C15.4073 281.104 14.5528 280.192 13.7474 279.233C12.3445 277.561 11.1062 275.555 9.36937 274.216L8.9484 274.339L8.80123 274.783C9.86461 279.168 14.6707 283.058 17.8181 286.011C13.7977 284.809 8.40424 283.631 5.14006 280.934C4.81402 279.882 4.56157 278.839 4.43943 277.744C3.4201 268.608 7.1549 257.514 12.9068 250.431C19.2542 242.615 32.29 235.563 42.3827 234.559Z" fill="white"/>
<path d="M286.093 259.932C288.566 260.117 290.714 260.535 293.02 261.46C297.282 267.821 300.886 274.666 304.659 281.326C301.804 283.529 298.498 283.703 296.479 287.2C296.366 287.393 296.264 287.591 296.173 287.794C296.081 287.997 296 288.204 295.93 288.416C295.86 288.628 295.8 288.842 295.752 289.06C295.704 289.278 295.667 289.498 295.642 289.719C295.616 289.941 295.602 290.163 295.6 290.386C295.598 290.609 295.607 290.832 295.627 291.054C295.648 291.276 295.68 291.496 295.723 291.715C295.767 291.934 295.821 292.15 295.887 292.363C296.89 295.696 299.937 297.465 302.806 298.978C301.227 301.875 299.705 304.645 298.894 307.865C296.649 306.35 294.2 305.136 291.814 303.859C281.332 298.369 269.049 292.363 261.736 282.745C261.852 277.56 266.762 271.133 270.086 267.422C274.663 262.312 279.283 260.323 286.093 259.932Z" fill="white"/>
<path d="M206.387 117.88C207.582 118.197 209.08 118.505 209.97 119.412C211.749 121.226 212.67 124.157 213.469 126.512C217.962 139.751 218.269 153.903 218.313 167.741C218.375 173.348 218.353 178.954 218.248 184.561C207.812 186.511 197.515 188.224 186.907 188.974C185.122 189.1 182.92 189.513 181.177 189.141C180.891 188.597 181.178 187.621 181.267 186.994C182.884 175.655 184.277 164.306 186.077 152.991C187.978 152.721 189.84 152.718 191.757 152.741C193.656 156.256 193.463 161.259 195.035 164.193C195.495 164.566 195.718 164.652 196.308 164.706C196.92 164.503 197.256 164.243 197.615 163.716C199.909 160.341 201.883 156.482 203.643 152.794C209.981 139.51 209.607 132.013 206.387 117.88Z" fill="white"/>
<path d="M73.138 322.645C75.4532 323.466 77.6057 324.69 79.8182 325.747C82.3285 326.947 84.81 327.879 87.4768 328.663C88.2358 329.48 88.9997 330.13 89.9757 330.676C91.121 331.318 99.3861 334.791 100.178 334.853C102.002 334.994 103.939 334.323 105.672 333.841C106.442 335.643 107.446 337.381 108.964 338.658C110.478 339.932 112.372 340.616 114.356 340.386C116.9 340.092 119.246 338.192 120.781 336.223C124.179 339.383 127.204 342.911 130.401 346.268C124.793 347.067 119.244 348.061 113.912 350.032C111.37 351.101 107.3 352.781 105.914 355.331C104.779 357.419 105.64 359.681 106.211 361.797C101.193 361.897 96.1691 361.51 91.1538 361.366L64.367 360.719C64.2149 351.397 65.234 341.869 68.6103 333.116C69.9791 329.567 71.794 326.202 73.138 322.645Z" fill="white"/>
<path d="M109.916 362.707C110.408 362.918 110.907 363.114 111.41 363.296C130.969 370.468 165.13 371.465 185.295 366.122C188.486 365.277 191.475 364.05 194.464 362.67C192.856 368.509 190.961 373.598 187.466 378.6C181.736 385.975 173.736 390.549 164.488 391.782C156.668 392.824 142.435 392.954 135.078 390.663C130.922 389.368 127.038 387.138 123.595 384.5C116.946 379.404 111.024 371.175 109.916 362.707Z" fill="white"/>
<path d="M175.999 3.32684C176.579 3.29582 177.158 3.27646 177.738 3.26878C186.785 3.17719 199.761 7.4534 206.255 13.8913C208.761 16.3759 211.379 19.6204 211.331 23.3221C211.291 26.3988 209.797 29.3695 207.567 31.4491C205.006 33.8381 201.357 35.2518 198.128 36.4544C179.41 43.4257 174.772 30.5554 164.293 32.7549C160.809 33.4863 158.072 36.0026 155.21 37.948C151.298 40.6063 145.54 43.0371 140.718 42.7823C139.757 42.7316 138.111 42.5487 137.488 41.7296C136.043 39.8331 137.382 35.1246 137.83 32.978C139.389 33.8143 140.924 34.5678 142.629 35.0611C147.117 36.1469 151.822 35.5575 155.721 33.0192C157.612 31.7881 159.358 30.3293 161.293 29.1667C166.592 25.9836 172.71 24.7726 178.77 26.1015C180.138 26.4016 181.434 27.1968 182.774 27.4198C183.235 27.4965 183.446 27.385 183.798 27.1135L183.823 26.7938C183.615 26.201 183.185 25.7558 182.74 25.3253C181.258 23.8925 178.992 23.2484 176.998 22.925C163.291 20.7028 157.955 32.3347 147.11 32.4535C143.869 32.4891 140.748 31.4083 138.414 29.1167L138.228 28.9306C139.113 28.7586 140.028 28.6043 140.835 28.1834C145.444 25.7801 148.564 18.7015 152.003 14.7861C158.15 7.78901 166.769 3.89261 175.999 3.32684Z" fill="white"/>
<path d="M129.749 110.585L130.199 110.52C130.324 110.577 130.478 110.592 130.573 110.69C130.759 110.882 130.527 111.222 130.504 111.488C130.252 114.49 130.081 117.579 130.479 120.574C132.157 133.213 136.516 145.956 142.63 157.113C143.578 158.844 144.466 160.782 145.631 162.374C146.116 163.038 146.689 163.666 147.549 163.764C148.623 163.887 152.094 157.093 152.915 155.949C154.235 154.108 155.819 152.404 157.507 150.897C161.158 151.344 164.815 151.734 168.478 152.064C167.933 155.8 167.749 159.621 167.34 163.379C166.695 169.618 165.728 175.807 164.44 181.946C163.887 184.382 163.359 186.827 162.678 189.232C150.196 189.381 131.974 186.005 119.861 182.599C119.704 169.035 120.622 155.492 120.89 141.941C121.078 132.456 120.712 122.754 120.56 113.252C123.589 112.108 126.599 111.297 129.749 110.585Z" fill="white"/>
<path d="M50.0434 252.37C50.2848 252.383 50.5185 252.428 50.7481 252.505C51.9894 252.921 62.061 262.341 63.9502 263.932C66.682 266.218 69.4693 268.434 72.3122 270.58C79.1466 275.784 83.7383 278.963 91.5487 282.825C95.9457 284.999 100.842 286.787 105.01 289.342C108.668 291.584 111.475 295.364 114.823 298.065C116.581 299.482 118.778 300.194 120.552 301.518C121.101 301.929 121.202 302.192 121.336 302.864C121.741 304.886 121.559 307.142 121.604 309.203C121.693 313.216 121.808 317.198 122.292 321.186C120.698 317.873 118.788 314.637 117.346 311.263C115.812 307.675 115.522 303.268 112.904 300.205C112.454 299.678 112.018 299.275 111.305 299.209C111.177 299.306 110.994 299.357 110.921 299.501C110.812 299.719 111.163 301.054 111.22 301.341C111.821 304.357 112.411 306.817 111.562 309.863C115.002 312.504 118.131 319.031 119.255 323.177C119.906 325.579 119.856 327.834 118.548 330.015C116.812 332.91 114.029 334.647 110.795 335.396C107.619 332.544 107.663 327.04 106.647 323.097C106.014 320.645 105.163 318.265 104.324 315.878C104.638 315.219 105.04 314.497 105.218 313.788C105.371 313.173 105.36 312.577 105.037 312.045L104.612 312.103C103.981 312.605 103.666 313.19 103.267 313.881C102.906 312.4 102.456 310.937 102.032 309.472C101.83 309.015 101.572 308.481 101.171 308.174C100.914 307.978 100.956 308.053 100.593 308.109C100.086 308.734 100.113 309.576 100.072 310.345C100.006 311.562 99.8726 312.997 100.118 314.196C100.439 315.769 101.368 317.437 101.948 318.949C102.81 321.195 105.15 327.74 104.585 330.095C104.222 330.583 103.848 330.782 103.27 330.938C101.933 331.299 99.0844 331.506 97.9137 330.657C96.1409 329.37 95.7084 322.232 95.3896 319.862C95.1003 317.714 94.0432 314.299 92.169 312.996C91.6951 312.667 91.1106 312.52 90.5414 312.64C90.0368 312.747 89.9982 312.802 89.7183 313.2C89.7053 314.039 92.0436 318.13 92.4894 319.385C93.5852 322.468 94.2699 325.643 94.9441 328.837C88.8327 327.56 90.6769 325.28 87.4174 321.152C83.512 316.206 74.0741 315.307 71.9216 309.587C70.6129 306.109 70.7094 302.2 70.1375 298.562C69.744 296.06 68.9338 293.735 68.1201 291.349C67.7529 290.272 67.3765 288.808 66.5067 288.03C66.1891 287.746 66.3424 287.82 65.8978 287.844C64.8702 289.322 65.3092 292.125 65.4333 293.82C54.1942 290.915 43.2408 287.154 32.839 281.959C30.4484 280.765 27.8204 279.531 25.717 277.878C25.9458 273.6 27.8638 269.866 30.3048 266.43C34.8182 260.076 42.1406 253.707 50.0434 252.37Z" fill="white"/>
<path d="M214.658 299.606C215.094 300.178 215.286 301.139 215.518 301.84C216.102 303.605 216.559 305.419 216.662 307.283C216.932 312.119 215.486 319.989 214.603 324.89C214.273 326.725 213.512 328.564 213.502 330.431C213.669 330.824 213.833 330.951 214.178 331.192L214.662 331.104C216.969 328.933 218.166 319.959 218.846 316.602C224.671 331.802 226.638 347.992 228.127 364.107C218.029 364.284 207.952 363.477 197.879 362.921C198.094 360.962 198.557 359.091 198.447 357.103C197.747 355.953 197.043 355.043 195.969 354.209C189.299 349.026 173.87 346.569 165.408 345.721C162.644 345.444 158.355 345.661 155.878 344.848C153.11 343.941 151.375 345.293 148.74 345.58C146.905 345.78 144.939 345.643 143.09 345.63C142.321 345.297 125.852 328.894 124.437 326.988C124.148 326.599 124.455 325.408 124.53 324.914C129.243 327.076 134.493 328.089 139.633 328.529C141.419 328.681 148.225 329.322 149.535 328.027C149.766 327.797 149.691 327.827 149.7 327.466C148.484 326.537 144.037 326.827 142.344 326.624C139.199 326.246 128.122 324.412 126.185 322.488C124.929 321.24 125.096 313.728 125.011 311.724C157.95 318.649 184.815 315.275 214.658 299.606Z" fill="white"/>
<path d="M209.116 311.656C209.33 311.736 209.62 311.831 209.809 311.958C210.189 312.213 210.383 312.716 210.362 313.16C210.309 314.265 209.132 315.226 208.365 315.915C201.162 322.395 183.33 327.807 173.856 329.085C170.213 329.577 166.596 329.56 162.937 329.366C162.32 329.265 161.917 329.217 161.431 328.781L161.453 328.434C162.685 327.35 174.191 326.137 176.741 325.539C186.223 323.316 196.705 320.366 205.01 315.157C206.484 314.232 207.5 312.723 208.958 311.757C209.01 311.723 209.063 311.69 209.116 311.656Z" fill="#444444"/>
<path d="M216.242 123.851C230.501 128.507 239.782 130.098 252.239 139.554C253.83 140.762 255.861 141.891 257.046 143.51C260.874 148.743 263.527 161.036 264.197 167.529C264.495 170.422 263.948 175.938 265.798 178.204C266.78 179.407 268.214 180.259 269.289 181.398C272.078 184.352 269.857 187.61 269.911 191.032C269.964 194.419 273.366 200.988 274.682 204.359C276.063 207.833 277.294 211.359 278.376 214.937C278.991 217.058 279.539 219.197 280.018 221.352C280.527 223.753 280.614 226.76 281.783 228.922C282.765 230.736 285.161 231.324 286.569 232.796C288.461 234.776 288.599 237.2 288.487 239.769C284.947 239.239 281.465 239.214 277.929 239.756C275.998 240.051 274.028 240.504 272.084 240.674C270.46 240.816 268.762 240.553 267.13 240.528C260.184 240.422 249.076 244.364 244.033 249.22C248.688 248.725 253.039 246.564 257.438 245.067C260.373 244.069 263.314 243.476 266.364 242.985C257.607 247.853 250.898 255.786 246.237 264.56C245.311 262.684 244.399 260.463 242.909 258.958C242.001 258.041 240.026 257.341 239.44 256.243C238.43 254.351 240.676 250.375 240.162 248.027C239.603 245.473 237.797 242.81 236.668 240.452C235.358 237.674 234.115 234.867 232.939 232.03C233.321 230.29 233.958 228.582 234.448 226.867C235.6 222.712 236.84 218.583 238.167 214.481C244.87 213.428 251.767 211.449 257.054 206.989C259.38 205.027 264.047 199.925 264.246 196.777C264.266 196.461 264.285 196.144 264.297 195.828L264.034 195.676C262.221 196.397 260.405 199.268 259.012 200.675C254.138 205.598 248.929 208.16 242.348 210.08C241.559 210.257 240.207 210.63 239.484 210.207C239.758 209.266 241.583 208.649 242.437 208.192C243.47 207.65 244.483 207.072 245.475 206.458C246.468 205.844 247.437 205.195 248.383 204.512C249.33 203.829 250.25 203.113 251.146 202.365C252.041 201.616 252.909 200.837 253.749 200.027C256.151 197.675 264.138 187.656 263.953 184.158C263.931 183.753 263.972 183.91 263.617 183.612C262.994 183.809 262.62 184.251 262.21 184.737C260.787 186.425 259.613 188.437 258.347 190.25C256.889 192.335 255.174 194.394 253.426 196.246C249.722 200.17 245.16 203.335 240.454 205.947C241.434 201.755 243.094 197.577 244.463 193.5C248.848 180.441 253.556 167.095 255.069 153.345C255.313 151.126 255.612 148.749 255.444 146.523C255.374 145.583 255.218 144.916 254.463 144.29C254.008 143.913 253.571 143.686 252.964 143.762C252.317 144.176 252.147 144.709 252.027 145.433C251.673 147.57 251.853 149.892 251.637 152.076C251.115 157.344 250.218 162.385 248.959 167.524C247.899 171.845 246.721 176.338 245.316 180.559C243.448 186.17 241.343 191.728 239.586 197.38C238.152 201.991 236.571 206.591 235.251 211.233C234.064 215.41 233.172 219.715 231.662 223.791C230.627 226.584 229.295 229.262 228.177 232.022C225.594 238.485 223.088 244.978 220.657 251.5C219.822 248.443 219.463 244.705 219.554 241.549C219.7 236.487 220.887 231.251 221.634 226.237C222.911 217.663 224.067 208.997 224.865 200.363C225.115 197.661 226.605 186.547 225.11 184.896C224.34 184.047 223.059 183.935 221.99 183.878C222.027 164 223.187 142.819 216.242 123.851Z" fill="white"/>
<path d="M214.009 19.5056C214.61 19.6538 215.201 19.8179 215.753 20.105C220.55 22.6017 224.089 28.7466 225.563 33.7635C228.67 44.3376 226.406 56.0724 221.223 65.5878C220.206 66.1987 219.317 66.8892 218.399 67.6352C218.82 64.7306 219.971 60.0877 218.021 57.5815C217.484 56.8918 216.735 56.5016 215.861 56.4513C215.27 56.4172 214.623 56.5292 214.214 56.9981C213.121 58.2521 214.98 60.5745 215.063 62.039C215.167 63.8791 214.955 65.8162 214.858 67.6567C214.743 69.8445 214.72 72.0724 214.43 74.244C212.912 85.606 208.194 100.072 200.385 108.653C195.85 113.637 186.755 120.494 179.756 120.793C175.657 120.968 170.226 120.456 166.516 118.563C159.446 114.955 150.554 102.102 148.45 94.7704C147.443 91.2598 146.598 74.2225 145.252 72.9799C144.512 73.1174 144.24 73.9693 143.425 74.2087C143.358 74.1657 143.285 74.13 143.223 74.0801C142.394 73.4164 142.225 71.6112 142.009 70.614C142.052 70.0542 142.216 69.4944 142.235 68.9317C142.253 68.4121 142.136 68.1622 141.816 67.7719L141.411 67.7812C141.199 68.0027 141.15 68.036 140.968 68.3232C140.275 69.4157 140.39 71.2655 140.762 72.4416C141.299 74.1409 142.172 74.9097 143.694 75.7149C143.704 77.6382 143.661 79.5339 143.544 81.4539C142.968 81.2154 142.385 80.9764 141.866 80.6292C139.219 78.8593 137.789 75.1214 137.139 72.1337C136.394 68.7102 135.967 63.0637 138.036 60.0171C138.562 59.2419 139.264 58.7283 140.203 58.5989C141.819 58.3762 143.339 59.3392 144.593 60.2358C144.542 61.3339 144.41 62.3708 144.219 63.4519C143.633 63.1079 143.037 62.7404 142.386 62.5347C141.401 62.2236 140.045 62.3181 139.133 62.8203C138.502 63.1684 138.104 63.6986 137.908 64.3898C137.741 64.9785 137.669 65.6896 137.971 66.2381C138.8 66.3598 139.733 65.5995 140.581 65.3906C143.297 64.7209 143.354 68.0246 145.065 69.1033C145.393 69.1114 145.543 69.1885 145.818 68.969C147.332 67.7614 148.085 58.6115 148.448 56.2525C150.955 55.4821 153.547 55.2128 155.214 52.8932C157.285 50.0105 156.539 44.9157 156.034 41.6253C158.293 39.4661 160.8 37.0655 163.822 36.0369C167.984 34.6205 171.18 36.9821 174.735 38.729C188.079 45.2869 196.171 40.055 208.727 35.7232C209.351 40.152 210.145 44.9834 213.127 48.516C214.656 50.3269 217.763 52.4591 220.203 52.5796C221.041 52.621 221.543 52.3731 222.159 51.8352C222.597 50.1439 218.655 48.9582 217.512 48.0328C216.001 46.8093 214.579 44.9964 213.628 43.3011C211.907 40.2345 210.47 35.5653 211.394 32.068C211.863 30.2947 212.697 28.6147 213.045 26.807C213.494 24.4777 213.295 21.972 213.951 19.6944C213.969 19.6311 213.99 19.5685 214.009 19.5056Z" fill="white"/>
<path d="M162.866 87.4124C163.155 87.4582 163.478 87.4931 163.761 87.5803C164.24 87.728 164.427 87.8578 164.649 88.2971C164.245 89.3985 162.493 90.0411 161.651 90.8666C160.871 91.6313 160.373 93.2544 159.731 94.2049C159.387 94.2816 159.282 94.3611 158.939 94.2349C158.603 94.1116 158.068 93.9124 157.941 93.5473C157.757 93.0203 157.938 92.3887 158.151 91.8905C159.028 89.8492 160.862 88.2545 162.866 87.4124Z" fill="#444444"/>
<path d="M192.217 71.053C193.42 71.1739 195.563 72.8586 197.253 73.2063C199.652 73.7 202.471 72.971 203.931 73.2639L203.965 73.5973L203.398 74.2452C201.892 74.9527 200.444 75.2383 198.779 75.164C196.765 75.074 193.995 74.4387 192.635 72.8744C192.105 72.2635 192.174 71.8043 192.217 71.053Z" fill="#444444"/>
<path d="M193.921 91.4502C194.552 91.4526 195.191 91.438 195.785 91.6814C197.028 92.1905 197.931 93.3629 198.393 94.5917C198.956 96.087 199.108 98.1969 198.451 99.6796C198.221 99.7048 197.875 99.7697 197.637 99.7376C195.51 99.4537 196.317 96.5653 195.8 95.1008C195.497 94.2412 194.601 93.541 194.082 92.7995C193.71 92.2676 193.792 92.0749 193.921 91.4502Z" fill="#444444"/>
<path d="M171.117 103.378C173.034 103.531 174.903 104.308 176.835 104.45C178.615 104.58 180.456 104.032 182.206 104.477C182.603 104.823 182.63 104.784 182.671 105.302C182.405 105.909 182.208 106.084 181.688 106.453C178.697 107.526 175.914 107.636 172.916 106.424C172.083 106.088 171.15 105.616 170.857 104.697C170.663 104.092 170.844 103.91 171.117 103.378Z" fill="#444444"/>
<path d="M196.976 65.7748C199.401 65.6908 201.155 66.0182 203.139 67.5464C204.434 68.5427 206.149 70.2692 206.275 71.9678C206.307 72.401 206.353 72.2327 206.068 72.5515C204.454 72.3394 203.367 69.7674 201.994 68.9386C201.629 68.7179 201.795 68.7549 201.381 68.868C201.354 69.1078 201.32 69.3475 201.296 69.5873C201.205 70.4863 201.014 71.0944 200.623 71.9146C200.042 72.5722 199.434 72.926 198.564 73.0391C197.556 73.1702 196.438 72.9698 195.651 72.2931C194.453 71.2643 194.651 69.8311 194.481 68.4056C192.839 68.2044 192.064 70.0343 190.572 70.3589C190.108 70.1642 190.118 70.1698 189.891 69.7204C189.947 69.438 190.009 69.2076 190.198 68.9808C191.723 67.1553 194.708 66.075 196.976 65.7748Z" fill="#444444"/>
<path d="M185.45 68.9878C185.767 69.0377 186.092 69.0705 186.353 69.2807C188.359 70.894 186.493 81.3408 187.046 83.6686C187.952 83.8434 188.77 83.9286 189.332 84.729C189.477 85.3647 189.396 85.6462 189.21 86.2474C187.966 87.6283 185.143 88.8753 183.359 89.423C180.248 90.3775 177.76 89.4709 175.001 88.0685C174.756 87.917 174.514 87.7604 174.276 87.5987C173.004 86.7419 172.204 85.832 171.907 84.2819C172.016 83.942 171.981 83.7465 172.358 83.5834C174.331 82.7315 177.407 86.0718 179.374 86.5646C181.437 87.0815 183.359 86.217 185.107 85.2117C184.781 81.0415 184.254 72.8526 185.45 68.9878Z" fill="#444444"/>
<path d="M163.502 54.0437C167.019 54.0315 171.996 54.4818 174.753 56.9361C175.497 57.5986 175.866 58.2278 175.917 59.2204C175.808 59.5563 175.733 59.8403 175.448 60.0768C173.66 61.5624 169.983 59.3154 168.119 58.6935C167.053 58.3377 165.941 58.1823 164.833 58.0176C161.181 57.9057 159.335 58.4472 156.1 60.1466C155.161 60.6399 154.284 61.1742 153.234 61.39C152.743 61.2318 152.743 61.2723 152.502 60.8232C152.54 59.7064 153.095 58.7369 153.828 57.9126C156.216 55.2278 160.053 54.2425 163.502 54.0437Z" fill="#444444"/>
<path d="M163.463 62.127C164.155 62.0978 164.839 62.0889 165.529 62.1619C167.884 62.411 170.592 63.6057 172.056 65.5265C172.484 66.0884 172.814 66.709 172.727 67.4112C171.812 67.6372 169.35 65.7241 168.432 65.2024C168.553 66.3155 168.601 67.3293 168.161 68.3861C167.802 69.2514 167.125 69.8546 166.25 70.1767C166.128 70.2217 166.004 70.2623 165.882 70.3053C166.346 70.8684 170.509 68.6031 171.683 69.0205C171.683 69.1422 171.703 69.2656 171.685 69.3865C171.598 69.9779 171.154 70.4623 170.699 70.8075C168.731 72.2975 165.387 72.8882 162.987 72.519C161.678 72.1551 160.53 71.7698 159.585 70.7438C159.234 70.3633 158.977 70.1426 159.003 69.6019C160.067 69.1877 163.203 70.6355 164.958 70.5215C165.05 70.5154 165.142 70.5077 165.233 70.5008C165.03 70.4408 164.828 70.3778 164.626 70.3118C163.517 69.9459 162.521 69.4055 162.02 68.298C161.579 67.3216 161.637 66.1188 162.007 65.1289C162.054 65.0028 162.106 64.8778 162.156 64.7521L162.051 64.5647C159.733 64.4998 157.829 67.5995 155.629 67.6275C155.08 67.6344 154.966 67.4149 154.647 67.0384C154.666 66.649 154.666 66.4985 154.922 66.1776C156.617 64.047 160.832 62.4442 163.463 62.127Z" fill="#444444"/>
<path d="M163.65 92.4313C166.391 92.3831 169.216 94.2297 171.745 95.2126C173.845 96.0288 176.122 96.7286 178.365 96.9964C180.215 97.217 182.079 97.1992 183.935 97.0515C185.806 96.9022 190.848 95.6649 192.329 96.1761C192.568 96.4941 192.659 96.499 192.647 96.927C192.622 97.7838 192.226 98.1128 191.628 98.6357C187.417 100.933 181.092 101.217 176.452 100.346C172.676 99.6381 166.044 97.6779 163.847 94.2605C163.4 93.5656 163.493 93.1891 163.65 92.4313Z" fill="#444444"/>
<path d="M194.429 57.4692C198.475 57.3036 202.47 57.7913 206.187 59.4748C209.028 60.7616 212.222 63.2199 213.283 66.2665C213.587 67.1391 213.656 67.8896 213.235 68.7322C212.929 68.9443 212.825 69.0997 212.433 69.0981C211.424 69.0928 210.832 68.2961 210.17 67.6381C206.25 63.5822 201.159 60.9405 195.402 61.5291C194.086 61.6638 191.89 62.4402 190.72 61.7502C190.29 61.497 189.966 60.9129 189.879 60.437C189.787 59.9316 189.889 59.3936 190.21 58.9843C191.113 57.8294 193.081 57.6647 194.429 57.4692Z" fill="#444444"/>
<path d="M37.4124 363.308C40.7771 363.701 44.3863 363.57 47.7765 363.65L65.1014 364.098L106.946 365.12C107.47 367.676 108.487 370.124 109.608 372.472C113.017 379.61 117.586 384.367 124.121 388.722C122.937 389.563 121.736 390.442 121.528 392.004C121.426 392.78 121.701 393.517 122.18 394.12C124.968 397.633 133.177 399.029 137.338 399.617C148.77 401.23 162.092 401.544 173.383 398.924C175.431 398.448 177.856 397.919 179.536 396.58C180.367 395.918 180.982 395.024 181.034 393.939C181.103 392.483 180.235 391.386 179.295 390.381C188.442 384.791 193.046 377.881 196.506 367.885C203.432 370.167 210.88 374.616 218.272 374.628C221.554 374.633 225.843 372.938 228.691 373.379C231.522 373.817 237.73 375.894 239.381 378.358C239.689 378.819 239.874 379.436 239.684 379.981C239.142 381.54 234.563 383.706 233.113 384.569C230.235 383.543 227.467 382.166 224.597 381.097C220.265 379.482 215.824 378.359 211.409 377.016C208.902 376.253 206.2 375.071 203.627 374.711C202.657 374.576 201.672 374.674 200.769 375.065C199.461 375.631 198.472 376.747 197.978 378.075C197.303 379.89 197.629 381.431 198.431 383.119C200.283 385.613 203.515 386.528 206.284 387.67C202.127 390.646 197.356 393.322 192.857 395.747C191.148 396.668 189.283 397.408 187.645 398.439C186.857 398.936 186.556 399.875 186.383 400.748C186.05 402.43 185.78 405.397 186.733 406.854C187.169 407.122 187.487 407.244 188.007 407.118C190.309 406.578 188.73 403.711 189.661 402.316L189.939 402.57C190.712 405.479 189.267 406.611 187.734 408.704C187.136 409.515 186.733 410.436 186.321 411.357C179.92 411.3 173.51 410.96 167.109 410.818L102.338 409.203L38.6193 407.601C22.945 407.317 7.27482 406.883 -8.39136 406.298C-2.86857 400.561 3.11311 395.257 8.94221 389.835L37.4124 363.308Z" fill="white"/>
<path d="M86.3634 366.588C86.649 366.631 86.9529 366.772 87.1796 366.951C88.6303 368.095 88.5573 370.932 88.6246 372.586C90.9426 373.43 92.6176 374.494 94.6075 375.953C95.2362 375.87 95.9076 375.768 96.5405 375.8C99.2313 375.933 101.387 378.777 102.959 380.675C106.404 381.741 110.519 383.684 112.963 386.412C114.235 387.833 115.311 389.694 115.134 391.67C114.948 393.744 113.502 395.528 111.958 396.821C101.005 405.998 75.8619 406.148 62.1758 404.96C57.0003 404.397 51.746 403.458 46.7522 401.972C42.2586 400.634 36.1862 398.156 33.8945 393.732C33.2536 392.494 32.8382 391.017 33.3298 389.655C33.9521 387.93 35.6158 387.088 37.146 386.322C37.251 386.137 37.3541 385.951 37.4705 385.773C40.7775 380.738 49.0252 378.329 54.5707 377.146C55.9816 375.19 57.7033 372.136 59.8262 370.97C62.3121 369.604 66.4921 370.641 69.0373 371.445C74.8603 367.749 79.7851 367.835 86.3634 366.588Z" fill="#444444"/>
<path d="M87.8654 375.562C87.9721 375.587 88.0797 375.608 88.1851 375.637C89.1202 375.891 90.2277 376.18 90.7303 377.049C90.4954 377.603 90.1976 377.622 89.6691 377.88L86.947 379.173C87.2221 377.962 87.549 376.763 87.8654 375.562Z" fill="white"/>
<path d="M84.6324 379.999L84.6973 380.033L84.7342 380.244L81.9521 382.763C81.3091 382.365 80.6929 381.916 80.0706 381.486C79.7173 381.265 79.3007 381.112 78.9206 380.939L78.8123 380.571C80.7647 380.45 82.6973 380.294 84.6324 379.999Z" fill="white"/>
<path d="M61.5608 373.013C63.5064 372.989 65.0706 373.109 66.9476 373.661C66.5627 374.662 66.5022 375.851 65.8418 376.706C65.1903 377.011 64.923 376.869 64.2268 376.749C62.454 376.443 60.4784 376.618 58.6846 376.688C59.4184 375.252 60.4212 374.132 61.5608 373.013Z" fill="white"/>
<path d="M103.765 384.698C104.933 385 106.231 385.395 107.193 386.147C107.852 386.663 108.258 387.27 108.309 388.116C108.399 389.575 106.96 390.826 106.03 391.761C105.237 392.411 104.375 392.866 103.476 393.346C103.416 391.185 102.943 388.725 103.466 386.609C103.625 385.963 103.707 385.361 103.765 384.698Z" fill="white"/>
<path d="M76.7947 383.136C78.7821 384.001 83.2854 387.28 85.2375 388.65C83.212 388.902 81.1613 388.954 79.1228 389.012C76.1022 389.04 73.2398 388.822 70.3088 388.087C72.2033 385.989 74.2556 384.384 76.7947 383.136Z" fill="white"/>
<path d="M100.82 388.656C101.495 389.489 101.151 393.172 101.141 394.376C97.2102 395.654 93.2261 396.548 89.1605 397.27C88.5029 396.273 88.9394 392.478 88.9573 391.158C93.1365 390.878 96.8853 390.082 100.82 388.656Z" fill="white"/>
<path d="M110.78 389.526C110.868 389.622 110.963 389.712 111.043 389.815C111.469 390.365 111.57 391.268 111.379 391.913C110.851 393.707 108.672 395.147 107.129 396.06C93.3551 404.22 65.5055 403.644 50.3018 399.752C45.0926 398.418 39.2798 396.587 36.387 391.689C36.4446 391.254 36.5553 390.945 36.7403 390.548C36.8693 390.48 36.9817 390.352 37.1277 390.342C37.2993 390.332 40.7828 394.301 41.5219 394.851C44.9093 397.367 50.1347 398.604 54.1918 399.471C68.1363 402.453 94.4513 402.955 106.726 394.87C108.805 393.5 110.27 392.026 110.78 389.526Z" fill="white"/>
<path d="M70.3345 390.809C75.525 391.908 80.8685 391.787 86.13 391.425C86.0526 393.482 85.8412 395.682 85.3982 397.69C81.1411 398.721 76.353 398.384 72.0087 398.147C71.5434 395.686 70.9231 393.243 70.3345 390.809Z" fill="white"/>
<path d="M49.8766 381.518C50.1793 381.457 50.032 381.435 50.3139 381.612C50.0024 382.232 49.7269 382.831 49.6645 383.531C49.4913 385.472 50.092 387.672 50.2823 389.621C50.4677 391.525 50.4738 393.459 50.4961 395.372C48.1237 394.7 45.8301 393.95 43.5855 392.922C42.1365 392.115 40.0886 391.167 39.4882 389.508C39.2558 388.866 39.3288 388.231 39.6164 387.626C41.0505 384.605 46.8852 382.566 49.8766 381.518Z" fill="white"/>
<path d="M95.3202 378.714C95.8553 378.64 96.231 378.623 96.7437 378.824C99.0471 379.727 100.63 383.171 101.504 385.33C98.2488 387.211 94.2882 388.248 90.5926 388.792C90.3268 388.822 90.0019 388.88 89.7305 388.868C88.7188 388.823 88.7366 388.095 88.189 387.357C87.4855 386.409 85.3424 385.428 84.2183 384.198C87.6989 381.736 91.1828 379.781 95.3202 378.714Z" fill="white"/>
<path d="M53.1792 388.277C57.674 389.679 62.2792 390.369 66.9436 389.391L68.7143 397.506L68.477 397.692C64.57 398.231 57.6176 396.831 53.6628 396.007C53.6214 393.42 53.4048 390.852 53.1792 388.277Z" fill="white"/>
<path d="M85.0898 369.84L85.3786 369.846C85.4135 369.9 85.4557 369.95 85.4837 370.008C86.2642 371.637 84.9839 375.47 84.3466 377.06C81.6067 377.978 78.7167 377.648 75.9801 378.341C74.8475 378.628 73.8933 379.544 72.7737 379.827C71.8451 380.062 71.3498 379.809 70.5336 379.396C69.908 378.89 69.362 378.286 68.8018 377.711C69.1149 376.723 69.4273 375.78 70.0228 374.916C73.0288 370.552 80.2672 370.665 85.0898 369.84Z" fill="white"/>
<path d="M58.9055 379.166C61.7115 378.845 65.1175 379.24 67.584 380.702C68.4513 381.216 69.5933 382.145 69.7608 383.216C69.8614 383.856 69.7369 384.421 69.3223 384.929C68.0379 386.501 65.6976 386.945 63.7991 387.184C60.7752 387.244 57.1688 387.353 54.3222 386.184C53.6581 385.911 52.8614 385.519 52.5815 384.818C52.5685 383.611 53.1989 382.613 53.8975 381.666C55.3895 379.643 56.5469 379.536 58.9055 379.166Z" fill="white"/>
<path d="M274.818 338.827C277.74 340.137 280.671 341.367 283.743 342.288C304.683 348.563 336.285 348.732 357.889 346.361C362.439 345.861 367.112 345.274 371.551 344.135C372.974 343.769 376.601 342.254 377.87 342.689C378.489 344.456 375.818 392.378 375.253 398.111C374.932 398.636 374.476 399.018 374.03 399.433C364.042 406.404 341.346 407.856 329.378 407.917C315.306 407.986 284.772 405.52 274.288 395.15C273.837 388.886 274.274 382.374 274.312 376.082C274.389 363.679 274.428 351.222 274.818 338.827Z" fill="white"/>
<path d="M115.458 117.291C115.666 117.305 115.533 117.281 115.834 117.445C116.552 120.328 116.256 124.505 116.411 127.547C116.694 133.129 117.179 138.761 117.268 144.347C117.343 149.062 116.96 153.879 116.843 158.601C116.653 166.316 116.64 174.032 116.303 181.743C115.711 182.293 114.162 181.966 113.295 182.425C112.635 182.775 112.256 183.432 112.151 184.153C111.937 185.623 112.037 187.259 111.996 188.747C111.912 191.388 111.8 194.028 111.662 196.667C111.26 205.46 110.484 214.219 109.336 222.945C108.764 227.2 108.175 231.63 107.012 235.762C98.3622 231.427 93.9461 219.582 89.2663 211.539C88.8367 210.801 88.132 209.835 87.2339 209.672C87.1438 209.656 87.0513 209.659 86.9601 209.652L87.2554 209.641L86.7252 209.793C86.612 209.947 86.5451 210.019 86.4733 210.215C86.0915 211.254 86.4307 212.609 86.872 213.578C88.3053 216.721 89.9636 219.866 91.6244 222.894C95.1883 229.394 99.0587 236.091 106.303 238.903C106.154 239.766 105.965 240.62 105.734 241.466C103.827 248.624 99.6802 257.315 92.951 261.117C88.7726 263.478 85.1999 263.298 80.7164 262.058C80.961 260.768 81.245 259.528 81.6283 258.272C82.0803 258.781 82.5464 259.287 83.0555 259.74C83.5106 260.145 84.1232 260.577 84.7577 260.535C86.4461 258.535 80.2194 248.986 79.9955 245.824C79.8758 244.136 80.9927 241.654 81.5147 240.029C84.1723 244.501 86.6319 248.918 89.7604 253.095C90.734 254.396 91.8849 256.113 93.6009 256.36C94.2369 256.216 94.3984 256.083 94.8126 255.618C94.9164 255.333 95.0106 255.068 94.996 254.757C94.9736 254.269 94.7952 253.849 94.5201 253.452C93.3871 251.818 91.9798 250.326 90.7608 248.749C89.1308 246.641 87.6448 244.306 86.2359 242.042C81.2855 234.09 76.9932 224.708 76.125 215.308C77.5988 213.598 79.4487 212.108 81.0758 210.536C85.5788 206.188 90.7032 200.681 92.8836 194.755C95.3558 188.037 95.3302 174.197 94.6848 166.809C94.3144 162.568 93.5327 158.199 92.6877 154.023C92.3052 152.132 92.033 149.544 91.1575 147.86C90.9101 147.384 90.775 147.209 90.2728 147.026C89.2407 147.759 90.0675 150.37 90.2715 151.441C92.0407 160.728 92.9457 172.44 92.0228 181.861C91.6845 185.318 90.9583 188.694 90.3519 192.108C89.616 189.429 89.2083 186.588 88.6858 183.854C85.7556 168.522 84.1054 149.154 73.7206 136.765C73.0898 136.013 72.1981 134.812 71.1264 134.837C70.4278 134.854 70.0599 135.204 69.6595 135.725C69.5726 136.212 69.5073 136.347 69.7471 136.8C70.5037 138.229 71.7661 139.57 72.6922 140.918C73.5563 142.185 74.3497 143.496 75.0723 144.849C75.7947 146.203 76.4421 147.591 77.0147 149.014C81.5074 159.945 83.3918 171.213 85.4688 182.774C86.2108 186.904 86.8761 191.084 87.8927 195.156L88.3844 196.012C88.3986 196.245 88.3767 196.422 88.2846 196.639C86.4976 200.872 71.6428 214.846 67.6692 217.797C64.4223 220.208 61.0167 222.133 57.3145 223.748C55.2403 220.741 53.4972 217.464 52.7114 213.882C52.58 213.283 52.3905 212.561 51.8498 212.213L51.6652 212.304C51.4899 212.613 51.3516 212.882 51.2786 213.233C50.5123 216.923 52.3771 222.192 54.4176 225.187C53.1491 227.097 51.1634 229.822 49.1634 230.982C48.7164 231.242 48.2791 231.274 47.7845 231.125C46.6718 230.789 45.5136 227.111 44.981 226.036C42.8386 221.713 39.2659 218.651 34.6867 217.144C32.9232 216.564 25.022 214.736 23.5194 215.637C23.2452 215.802 23.3247 215.794 23.2334 216.139C24.246 217.167 29.5509 217.742 31.3107 218.252C33.0064 218.742 34.666 219.38 36.1791 220.299C39.8922 222.555 42.2841 226.301 43.3323 230.457C42.1648 230.756 41.0476 230.943 39.8488 231.065C37.9884 228.979 36.1609 227.033 33.737 225.591C28.6398 222.559 22.7734 221.982 16.9696 221.963C15.1788 221.958 13.0957 221.917 11.3601 222.414C10.6904 222.606 9.77342 222.949 9.41197 223.575L9.59168 223.932C11.6811 224.89 15.3941 224.342 17.7477 224.446C24.4768 224.743 31.6961 226.674 36.3544 231.761C30.89 228.836 27.0751 228.008 20.8294 228.522C18.6915 228.699 12.7514 229.375 11.4515 231.187C11.2728 231.435 11.3433 231.399 11.4323 231.718C12.4691 232.488 14.9036 231.842 16.162 231.717C21.9008 231.147 27.5019 231.313 32.8352 233.732C30.088 235.081 27.1984 236.135 24.4581 237.509C13.6355 242.939 8.50919 249.301 3.48116 260.062C2.75408 258.473 2.28374 254.952 0.881547 253.988C0.608937 253.8 0.512306 253.892 0.214666 253.945C-0.965954 255.713 0.847389 263.862 1.21712 266.12C-0.128693 264.844 -1.24027 263.057 -2.3563 261.569C-6.69547 255.782 -10.6281 250.171 -12.306 242.997C-13.1474 239.399 -14.0729 232.73 -11.6041 229.571C-10.4505 228.094 -8.70946 227.181 -7.13534 226.223C-5.46463 225.207 -3.73927 224.181 -2.58036 222.56C-0.769164 220.026 0.329675 216.938 1.79451 214.193C3.94212 210.168 6.78858 206.319 9.67829 202.798C17.4629 193.313 27.3076 185.6 34.7784 175.87C36.2246 173.986 37.4424 171.939 38.6915 169.922C38.5345 169.137 38.3288 168.313 38.2602 167.516C38.1949 166.759 38.2408 165.639 38.7592 165.032C39.0704 164.669 39.0549 164.652 39.5503 164.6C41.3393 165.91 40.8013 169.818 42.6297 171.22C42.8796 171.412 43.1583 171.514 43.467 171.46C44.1765 171.333 44.5777 170.827 44.9737 170.28C44.8223 168.507 43.8646 166.626 43.4844 164.829C44.1696 162.853 45.2864 160.958 46.2535 159.104C50.0928 151.742 58.9429 136.26 66.1877 132.45C66.4977 132.463 66.8044 132.471 67.1139 132.478C69.2165 132.528 78.7911 127.495 81.9606 126.433C92.8877 122.772 104.25 119.967 115.458 117.291Z" fill="white"/>
<path d="M61.8113 176.76C63.1297 176.791 64.1106 177.94 65.0059 178.82C67.9515 181.716 70.8131 184.997 74.0516 187.565C76.23 189.293 78.5833 191 80.9593 192.448C82.8375 193.593 84.762 194.592 86.5811 195.841C86.5985 195.936 86.6216 196.031 86.6334 196.127C86.6926 196.616 86.6111 197.098 86.2646 197.473C85.8115 197.963 85.0379 198.15 84.3974 198.199C82.4368 198.35 80.3098 197.978 78.3614 197.71C69.3677 196.475 62.9159 193.512 56.0171 187.692C54.6123 186.335 51.7823 183.981 51.2107 182.082C51.0943 181.695 51.1645 181.738 51.3483 181.421C51.6773 181.399 51.8038 181.32 52.0886 181.518C54.0346 182.869 55.6634 184.904 57.5006 186.433C63.5557 191.474 71.2565 194.245 79.0819 194.833C73.9664 190.952 69.5182 187.012 65.1925 182.262C64.0494 181.007 62.6624 179.667 61.8433 178.17C61.5379 177.612 61.6454 177.351 61.8113 176.76Z" fill="#444444"/>
<path d="M115.486 185.351C115.865 185.567 116.095 185.896 116.434 186.163C117.546 187.041 118.261 186.119 119.445 186.221C121.948 186.435 124.72 187.315 127.172 187.897C131.014 188.809 134.839 189.897 138.724 190.614C160.169 194.571 181.858 193.812 203.358 190.822C207.233 190.274 211.078 189.564 214.894 188.694C217.313 188.161 219.816 187.391 222.281 187.16C222.36 187.153 222.439 187.147 222.519 187.141C221.91 198.259 220.552 209.579 218.913 220.587C217.857 227.673 216.008 235.149 216.024 242.317C216.038 248.471 218.277 254.292 218.747 260.143C218.944 262.593 218.314 264.005 216.783 265.816C215.867 264.629 214.866 262.055 213.384 261.721L213.071 262.019C212.821 264.683 216.946 271.366 218.169 274.083C217.698 277.681 216.963 281.281 216.369 284.863C215.886 287.767 215.709 291.16 214.661 293.89C214.369 294.653 214.039 295.278 213.433 295.831C210.425 298.581 201.758 301.997 197.903 303.673C196.71 304.13 195.51 304.567 194.304 304.986C193.098 305.404 191.885 305.804 190.666 306.185C189.447 306.566 188.222 306.928 186.992 307.27C185.762 307.613 184.527 307.936 183.287 308.24C182.047 308.545 180.802 308.829 179.553 309.094C178.303 309.36 177.05 309.605 175.794 309.831C174.537 310.058 173.277 310.264 172.014 310.451C170.75 310.638 169.484 310.805 168.216 310.952C166.947 311.1 165.677 311.227 164.405 311.335C163.132 311.442 161.858 311.53 160.583 311.598C159.308 311.666 158.032 311.714 156.755 311.742C155.478 311.77 154.202 311.779 152.924 311.767C151.648 311.755 150.371 311.723 149.095 311.672C147.819 311.62 146.545 311.549 145.271 311.457C143.997 311.366 142.725 311.255 141.455 311.123C140.184 310.993 138.916 310.842 137.651 310.671C133.402 310.087 129.042 309.47 124.943 308.177C124.952 305.902 125.446 303.311 124.677 301.13C124.044 299.333 122.653 298.653 121.043 297.895C115.529 295.298 111.368 289.228 106.12 285.968C103.768 284.508 100.906 283.553 98.3948 282.351C92.9097 279.725 87.533 277.02 82.2726 273.968C82.0649 271.057 81.6775 268.306 81.0435 265.462C81.557 265.612 82.0741 265.749 82.5947 265.873C82.8622 265.939 83.1312 265.999 83.4016 266.051C83.6721 266.104 83.9437 266.149 84.2166 266.188C84.4895 266.227 84.763 266.258 85.0373 266.284C85.3118 266.309 85.5867 266.326 85.862 266.337C86.1373 266.348 86.4128 266.352 86.6884 266.349C86.9639 266.346 87.2392 266.336 87.5143 266.319C87.7893 266.303 88.0637 266.279 88.3374 266.248C88.6111 266.217 88.884 266.179 89.156 266.135C89.4278 266.09 89.6984 266.039 89.9678 265.98C90.2371 265.922 90.5048 265.857 90.7706 265.785C91.0367 265.713 91.3008 265.635 91.5629 265.549C91.8247 265.464 92.0843 265.372 92.3418 265.274C92.5992 265.175 92.854 265.071 93.106 264.959C93.3581 264.848 93.6072 264.73 93.8533 264.607C94.0994 264.482 94.3421 264.352 94.5815 264.216C94.8211 264.08 95.057 263.938 95.2894 263.79C111.517 253.611 113.805 219.981 114.569 202.717C114.718 199.537 114.84 196.356 114.937 193.174C115.008 190.806 114.792 187.985 115.385 185.706C115.416 185.587 115.452 185.469 115.486 185.351Z" fill="white"/>
<path d="M135.522 230.11C137.92 230.546 142.542 232.927 145.465 233.75C146.252 233.974 147.042 234.186 147.836 234.387C148.629 234.588 149.425 234.778 150.224 234.956C151.023 235.134 151.824 235.301 152.628 235.457C153.431 235.612 154.237 235.756 155.044 235.888C155.852 236.021 156.661 236.142 157.472 236.251C158.283 236.361 159.096 236.458 159.91 236.545C160.723 236.631 161.538 236.705 162.355 236.768C163.171 236.831 163.987 236.883 164.805 236.922C165.622 236.962 166.44 236.99 167.258 237.006C168.076 237.023 168.895 237.027 169.714 237.02C170.532 237.013 171.35 236.994 172.168 236.964C172.986 236.934 173.803 236.892 174.62 236.838C175.436 236.785 176.252 236.719 177.067 236.642C177.882 236.566 178.695 236.477 179.508 236.377C180.32 236.277 181.13 236.165 181.94 236.042C182.749 235.919 183.556 235.784 184.361 235.638C188.166 234.945 191.896 233.965 195.55 232.697C196.981 232.203 200.621 230.448 201.987 230.574C202.306 230.604 202.226 230.632 202.436 230.92C202.077 231.601 201.322 232 200.703 232.428C186.59 240.108 167.457 242.405 151.808 238.887C148.966 238.248 136.671 234.452 135.401 231.624C135.135 231.032 135.349 230.689 135.522 230.11Z" fill="#444444"/>
<path d="M125.441 261.536C125.798 261.59 126.116 261.621 126.358 261.918C127.015 262.723 127.46 263.844 128.035 264.727C128.61 265.609 129.385 266.419 130.083 267.209C136.575 274.557 146.132 280.125 155.014 284.088C160.414 286.498 166.096 288.488 171.781 290.109C174.558 290.901 177.494 291.483 180.224 292.369C180.76 292.543 181.13 292.706 181.504 293.146C181.533 293.743 181.435 293.74 181.044 294.208C176.858 293.924 172.756 293.103 168.673 292.171C154.464 288.925 141.451 282.98 131.146 272.442C129.178 270.429 124.403 266.084 124.543 263.179C124.581 262.399 124.912 262.039 125.441 261.536Z" fill="#444444"/>
<path d="M344.416 260.576C344.905 260.921 345.17 261.012 345.39 261.579C344.408 262.669 343.073 263.894 342.435 265.208C340.01 270.203 341.917 272.294 343.658 276.97C343.574 277.639 343.436 277.617 342.923 278.016C341.895 277.694 341.34 276.931 340.76 276.063C339.237 273.781 338.762 270.295 339.344 267.643C340.015 264.586 341.815 262.23 344.416 260.576Z" fill="white"/>
<path d="M363.351 276.04C363.766 276.157 364.156 276.273 364.501 276.54C367.595 278.93 370.315 286.158 370.836 289.985C371.678 296.171 369.285 300.428 365.622 305.198C365.097 305.506 365.091 305.601 364.51 305.466C364.132 304.346 367.821 298.221 368.29 296.24C368.977 293.34 368.793 290.248 368.075 287.373C367.232 283.998 365.686 281.086 364.018 278.071C363.626 277.364 363.232 276.858 363.351 276.04Z" fill="white"/>
<path d="M353.126 214.118C353.54 214.11 353.979 214.12 354.326 214.385C354.387 214.432 354.689 214.761 354.73 214.859C354.868 215.189 354.783 215.738 354.629 216.049C354.247 216.825 353.507 217.395 353.107 218.192C351.532 221.33 351.718 225.274 353.075 228.448C356.429 236.3 365.787 240.311 366.165 249.687C366.436 256.425 361.36 260.174 356.375 263.596C354.783 264.689 353.054 265.746 351.778 267.217C350.714 268.445 350.15 269.929 350.303 271.56C350.609 274.837 353.374 278.177 355.71 280.341C356.35 280.935 357.14 281.388 357.758 281.991C358.31 282.529 358.266 282.958 358.326 283.677C358.095 283.699 358.004 283.716 357.791 283.714C356.281 283.705 354.118 281.425 353.127 280.368C350.728 277.812 348.086 273.999 348.286 270.323C348.593 264.713 355.997 261.592 359.609 258.16C361.837 256.044 363.335 253.483 363.435 250.333C363.797 238.835 348.875 235.066 349.352 222.483C349.476 219.221 350.725 216.339 353.126 214.118Z" fill="white"/>
</g>
<defs>
<clipPath id="clip0_177_19865">
<rect width="415" height="415" fill="white" transform="translate(-20)"/>
</clipPath>
</defs>
</svg>
