<svg width="163" height="163" viewBox="0 0 163 163" fill="none" xmlns="http://www.w3.org/2000/svg">
<g clip-path="url(#clip0_243_39486)">
<path d="M0 0H163V80.0031V82.4455V163H0V85.8571V77.4694V0Z" fill="#1C1C1C"/>
<path d="M0 0H163V80.0031C162.814 79.1327 162.868 78.0883 162.814 77.1867C162.717 75.5403 162.573 73.903 162.308 72.2744C162.207 71.642 162.096 71.0111 161.976 70.3819C161.857 69.7527 161.728 69.1255 161.59 68.5003C161.451 67.875 161.303 67.2519 161.146 66.631C160.988 66.0102 160.822 65.3919 160.646 64.7759C160.47 64.1601 160.284 63.5471 160.09 62.9368C159.897 62.3264 159.694 61.7191 159.481 61.115C159.269 60.5107 159.047 59.9098 158.817 59.3123C158.587 58.7147 158.347 58.1207 158.099 57.5302C157.851 56.9398 157.594 56.3532 157.328 55.7705C157.062 55.1879 156.788 54.6094 156.505 54.0348C156.221 53.4604 155.93 52.8903 155.63 52.3246C155.329 51.7589 155.021 51.1978 154.704 50.6413C154.386 50.0848 154.061 49.5332 153.727 48.9864C153.394 48.4398 153.052 47.8982 152.702 47.3617C152.352 46.8253 151.995 46.2942 151.629 45.7685C151.263 45.2427 150.89 44.7226 150.508 44.208C140.754 30.772 126.483 21.4495 110.863 16.2212C108.597 15.4499 106.302 14.7736 103.98 14.1923C101.657 13.6109 99.3145 13.1266 96.9519 12.7392C96.313 12.6323 95.6729 12.5322 95.0319 12.4387C94.3908 12.3453 93.7488 12.2586 93.1059 12.1787C92.4631 12.0987 91.8194 12.0255 91.1749 11.9591C90.5305 11.8927 89.8854 11.833 89.2398 11.7801C88.5941 11.7272 87.9479 11.6812 87.3013 11.6419C86.6546 11.6026 86.0076 11.57 85.3603 11.5443C84.7129 11.5186 84.0654 11.4997 83.4178 11.4876C82.77 11.4755 82.1222 11.4702 81.4744 11.4717C80.8265 11.4732 80.1788 11.4815 79.5311 11.4966C78.8835 11.5117 78.236 11.5336 77.5888 11.5623C76.9416 11.591 76.2948 11.6265 75.6484 11.6688C75.0019 11.7111 74.356 11.7602 73.7105 11.8161C73.0651 11.872 72.4203 11.9346 71.7762 12.004C71.132 12.0734 70.4887 12.1496 69.8463 12.2325C69.2037 12.3155 68.5621 12.4051 67.9215 12.5015C67.2808 12.5979 66.6413 12.7011 66.0029 12.8109C65.3645 12.9207 64.7272 13.0373 64.0912 13.1605C63.4552 13.2837 62.8205 13.4136 62.1872 13.5502C61.554 13.6867 60.9222 13.8299 60.2919 13.9798C59.6616 14.1296 59.033 14.286 58.4061 14.4491C57.779 14.6121 57.1538 14.7817 56.5304 14.9579C55.907 15.1341 55.2854 15.3168 54.6658 15.506C54.0463 15.6952 53.4288 15.891 52.8133 16.0932C52.1978 16.2954 51.5845 16.504 50.9735 16.7191C50.3623 16.9342 49.7535 17.1557 49.147 17.3835C48.5407 17.6114 47.9367 17.8456 47.3351 18.0862C46.7336 18.3267 46.1347 18.5736 45.5384 18.8268C44.9421 19.0799 44.3484 19.3393 43.7575 19.6049C43.1667 19.8705 42.5787 20.1423 41.9935 20.4202C41.4083 20.6982 40.826 20.9823 40.2468 21.2725C39.6676 21.5627 39.0916 21.859 38.5186 22.1613C37.9456 22.4636 37.3758 22.7719 36.8093 23.0861C34.1331 24.5992 31.4576 26.2194 28.9731 28.0325C16.1704 37.3744 6.01324 50.2659 1.95696 65.7759C1.33249 68.1638 0.790475 70.6564 0.470174 73.1057C0.28075 74.5542 0.22681 76.0279 0 77.4694V0Z" fill="#1C1C1C"/>
<path d="M163 82.4455V163H0V85.8571C0.238919 86.8956 0.228985 88.0876 0.361815 89.1543C0.575527 90.8706 0.908913 92.5873 1.25949 94.2802C1.38954 94.8794 1.52832 95.4765 1.67583 96.0715C1.82333 96.6665 1.9795 97.2593 2.14433 97.8498C2.30916 98.4403 2.48258 99.0282 2.66459 99.6135C2.84661 100.199 3.03714 100.782 3.23619 101.361C3.43524 101.941 3.64271 102.518 3.85861 103.092C4.07452 103.666 4.29876 104.236 4.53134 104.803C4.76392 105.371 5.00474 105.934 5.25381 106.495C5.50286 107.055 5.76004 107.611 6.02536 108.164C6.29069 108.717 6.56403 109.265 6.8454 109.81C7.12675 110.355 7.41601 110.895 7.71316 111.431C8.01032 111.968 8.31524 112.499 8.62794 113.027C8.94064 113.554 9.26098 114.077 9.58895 114.595C9.91693 115.112 10.2524 115.625 10.5954 116.134C10.9383 116.642 11.2887 117.145 11.6463 117.643C12.004 118.141 12.3689 118.633 12.7409 119.12C13.113 119.608 13.4921 120.089 13.8783 120.566C27.8275 138.068 49.5367 148.279 71.5147 150.734C94.6602 153.32 119.112 146.74 137.356 132.13C149.154 122.682 158.332 109.499 161.51 94.5868C161.984 92.3621 162.427 90.0997 162.632 87.832C162.793 86.0743 162.788 84.2826 162.989 82.5355L163 82.4455Z" fill="#1C1C1C"/>
<path d="M79.1075 13.3267L79.2382 13.3213C100.427 12.4803 124.14 20.3612 139.771 34.8694C152.643 46.8171 160.506 62.0548 161.149 79.7341C161.185 80.8044 161.19 81.8749 161.165 82.9455C161.138 84.0161 161.081 85.0849 160.993 86.1522C160.904 87.2195 160.784 88.2833 160.633 89.3436C160.483 90.4039 160.302 91.459 160.09 92.5087C157.809 104.3 152.14 114.722 143.981 123.487C130.938 137.499 112.463 146.131 93.614 148.712C90.4498 149.146 87.2853 149.349 84.0963 149.463C79.0454 149.526 74.0268 149.345 69.0171 148.654C68.549 148.592 68.0814 148.525 67.6144 148.455C67.1475 148.384 66.6811 148.31 66.2152 148.232C65.7495 148.154 65.2843 148.073 64.8198 147.987C64.3554 147.902 63.8916 147.813 63.4286 147.72C62.9656 147.627 62.5034 147.53 62.0418 147.429C61.5804 147.329 61.1199 147.225 60.6602 147.117C60.2003 147.009 59.7415 146.897 59.2836 146.782C58.8256 146.666 58.3686 146.547 57.9126 146.424C57.4566 146.301 57.0016 146.175 56.5478 146.045C56.0938 145.914 55.6409 145.78 55.1892 145.643C54.7373 145.505 54.2867 145.364 53.8372 145.219C53.3877 145.074 52.9394 144.925 52.4923 144.773C52.0452 144.621 51.5994 144.465 51.1549 144.306C50.7104 144.146 50.2672 143.983 49.8253 143.817C49.3834 143.65 48.9429 143.48 48.5038 143.306C48.0646 143.132 47.627 142.955 47.1907 142.774C46.7544 142.593 46.3197 142.409 45.8864 142.221C45.4532 142.033 45.0215 141.841 44.5913 141.646C44.1612 141.451 43.7327 141.253 43.3058 141.051C42.8788 140.849 42.4536 140.644 42.0301 140.435C41.6065 140.226 41.1846 140.014 40.7644 139.798C40.3443 139.582 39.9259 139.363 39.5093 139.141C39.0928 138.918 38.6781 138.692 38.2652 138.463C37.8523 138.234 37.4412 138.001 37.0322 137.766C36.623 137.53 36.2157 137.29 35.8105 137.048C35.4053 136.805 35.0021 136.56 34.6008 136.311C34.1995 136.061 33.8003 135.809 33.4032 135.554C33.006 135.298 32.6109 135.039 32.2181 134.777C31.8251 134.515 31.4343 134.25 31.0456 133.982C30.657 133.714 30.2705 133.442 29.8863 133.168C29.502 132.893 29.12 132.615 28.7403 132.335C28.3606 132.054 27.9832 131.77 27.6081 131.483C26.3178 130.475 25.0004 129.469 23.7889 128.367C10.9314 116.671 2.6595 102.024 1.8631 84.4334C1.1029 67.6428 7.1149 52.1532 18.3948 39.7905C30.146 26.9111 46.689 18.3471 63.724 15.0216C68.8264 14.0256 73.9236 13.5677 79.1075 13.3267Z" fill="#1C1C1C"/>
<path d="M82.7478 24.467C84.6677 24.3419 86.496 24.9692 88.1173 25.9515C89.0131 25.7265 89.8885 25.5447 90.816 25.5394C93.2612 25.5257 95.0849 26.6074 96.7762 28.2787C98.2397 28.1148 99.5559 28.0681 100.976 28.5285C103.585 29.3739 104.805 31.2675 106.003 33.5745C108.883 33.2628 111.879 33.2337 114.768 33.3894C120.036 33.673 129.132 35.0221 132.766 39.1189C133.295 39.7152 133.692 40.3761 133.824 41.1728C133.997 42.2256 133.915 43.3486 133.893 44.4127L133.806 48.8067C133.736 53.842 133.745 58.9001 133.531 63.9301C133.446 65.9211 133.258 67.8959 133.126 69.8829C136.607 71.9599 139.901 74.3625 142.645 77.364C146.074 81.114 148.77 85.8123 149.437 90.9115C149.679 92.7626 149.637 94.6649 149.552 96.5264C149.271 102.682 145.85 108.029 141.394 112.082C128.742 123.585 109.582 128.92 92.8624 130.441C89.7449 130.718 86.6215 130.883 83.4921 130.936C80.3628 130.988 77.2356 130.928 74.1106 130.756C72.5993 130.572 71.057 130.54 69.5394 130.381C65.5542 129.967 61.5956 129.375 57.6636 128.604C43.7623 125.765 25.7376 119.011 17.6081 106.64C14.3506 101.683 12.7608 95.4906 13.9823 89.6174C15.7015 81.3515 21.5419 75.3783 28.3851 70.9106C28.6985 70.1825 29.0299 69.4813 29.4003 68.7798C27.6729 66.1172 24.7037 62.8679 25.2572 59.4523C25.407 58.5286 25.8094 57.6503 26.5122 57.0161C28.5115 55.2115 33.793 54.6048 36.3117 52.7821C39.3936 50.552 38.5021 45.5426 41.6077 43.4272C43.6786 42.0164 46.2656 42.8411 48.2682 43.9253C49.2201 44.4406 50.1161 45.0782 51.0962 45.5383C51.9843 45.9553 52.8766 46.183 53.8366 46.3697C55.3506 44.2852 56.3733 42.6773 59.0448 42.1266C59.0899 41.4176 59.1859 40.7072 59.3788 40.0224C60.0591 37.6072 61.7369 36.0064 63.8643 34.8016C63.9137 34.6441 63.968 34.4884 64.0273 34.3344C64.5553 32.9631 65.1183 32.1691 66.2692 31.2498C66.6196 30.9702 67.0267 30.6902 67.3313 30.3616C67.666 30.0003 67.9073 29.518 68.1964 29.1165C68.9208 28.1103 70.0465 27.2941 71.1786 26.8066C73.1652 25.9512 75.2985 25.956 77.2879 26.7629C79.0022 25.3829 80.5446 24.6939 82.7478 24.467Z" fill="#1C1C1C"/>
<path d="M90.2283 64.1766C90.3949 64.1454 90.5213 64.1426 90.6897 64.1614C90.9041 64.7818 90.9622 67.2052 91.0281 67.9848L90.683 67.2053C90.1711 66.2173 89.6127 65.3086 88.9523 64.4127C89.3735 64.3029 89.7985 64.2411 90.2283 64.1766Z" fill="#444444"/>
<path d="M74.9375 57.245L75.4137 57.2877C76.8308 57.4112 78.0627 58.1977 79.211 58.9756C78.3889 58.9589 77.5667 58.9546 76.7445 58.9625C75.4026 58.9802 74.0889 59.1728 72.764 59.3669C73.5528 58.7152 74.2471 57.9978 74.9375 57.245Z" fill="#444444"/>
<path d="M53.5073 57.8983C54.1463 57.9939 54.7968 58.1794 55.4047 58.3965C56.2215 58.6881 58.9681 59.9835 59.3034 60.69L59.1552 60.7218C57.4591 60.7029 55.1862 61.0099 53.6103 60.6779C53.6834 60.4861 53.7521 60.2927 53.8163 60.0977C54.0839 59.2642 53.8876 58.6405 53.5073 57.8983Z" fill="#444444"/>
<path d="M45.3245 48.2467C45.3654 48.244 45.4065 48.2408 45.4476 48.2388C47.1109 48.1541 48.2385 49.0032 49.3887 50.0627C48.1232 50.2245 47.0426 50.4904 45.8696 50.9977C44.8927 51.5198 44.2488 52.1107 43.5532 52.9693C43.5217 51.757 43.3603 50.2215 44.0212 49.1405C44.3435 48.6132 44.7396 48.3959 45.3245 48.2467Z" fill="#444444"/>
<path d="M59.5024 48.5627C60.2578 48.4807 60.8903 48.5856 61.4955 49.0767C62.7939 50.1305 63.2103 52.2998 63.4034 53.8627C63.037 53.4972 62.6589 53.144 62.2691 52.8034C60.7962 51.5023 59.0508 50.8845 57.2003 50.3425C57.7928 49.4546 58.4523 48.8561 59.5024 48.5627Z" fill="#444444"/>
<path d="M92.4027 77.0122C92.7632 77.9259 92.8269 79.1024 93.0057 80.0763C93.4463 82.4756 93.8429 84.9134 94.4408 87.2787L93.5539 86.2058C92.5615 85.1061 91.4634 84.1226 90.4319 83.0619C91.3814 81.1022 91.9783 79.14 92.4027 77.0122Z" fill="#444444"/>
<path d="M54.2332 51.6452C54.9076 51.6433 55.5547 51.6731 56.2202 51.7874C58.2566 52.1371 60.9709 53.2741 62.2074 55.0114C61.7943 55.4109 61.4172 55.8434 61.0349 56.2721C60.7064 56.6782 60.4483 57.1275 60.1798 57.5742C58.7504 54.998 56.8429 53.0226 54.2332 51.6452Z" fill="#444444"/>
<path d="M127.801 107.605L127.857 107.647C127.846 107.668 127.837 107.69 127.823 107.71C127.674 107.931 127.328 108.125 127.109 108.277C125.21 109.591 122.907 110.231 120.672 110.703C113.546 112.21 102.679 112.167 96.3816 108.083L96.0349 107.789C96.4717 107.818 97.2724 108.37 97.7069 108.556C98.9295 109.09 100.187 109.523 101.479 109.855C109.049 111.824 120.91 111.646 127.801 107.605Z" fill="#444444"/>
<path d="M72.2797 57.5751C72.4126 57.5599 72.3437 57.5501 72.4823 57.6256C72.0221 58.9032 68.241 60.3609 66.9952 61.0028C66.4313 61.2934 65.922 61.6293 65.4131 62.0067C64.6952 61.6675 63.9465 61.4294 63.1824 61.2199C62.7424 61.1269 62.2982 61.078 61.8523 61.0247C63.7583 58.7841 69.4466 57.9694 72.2797 57.5751Z" fill="#444444"/>
<path d="M90.4085 56.1129C90.61 56.6686 90.6605 61.7786 90.6726 62.6819C89.7032 62.7813 88.733 62.9373 87.7669 63.0683C87.2712 62.5944 86.7598 62.1442 86.2394 61.6977C85.7355 61.2605 85.1807 60.8773 84.6432 60.4824C86.8101 59.2144 88.7067 58.0022 90.4085 56.1129Z" fill="#444444"/>
<path d="M70.1686 54.2348C71.7899 54.0937 74.4982 54.3092 76.0258 54.8896C76.4577 55.0537 77.0178 55.3204 77.1888 55.7844C77.2375 55.9166 77.2198 55.8794 77.1487 56.0168C76.8295 56.1398 75.4185 55.7805 74.7949 55.8509C74.1403 55.9248 73.4883 56.0809 72.8363 56.1825C70.7124 56.5134 68.6369 56.8666 66.5398 57.348C64.5541 57.9078 62.8752 58.5805 61.1433 59.708C61.4044 58.7927 61.6866 57.9567 62.3161 57.2222C64.1639 55.0661 67.4866 54.4342 70.1686 54.2348Z" fill="#444444"/>
<path d="M35.6048 80.7716C36.7044 80.9437 37.8419 81.8663 38.8397 82.3664C39.3909 83.8867 40.1255 85.2735 41.0981 86.5657C39.708 87.0406 38.3438 87.6026 36.9736 88.1324C36.1335 88.3783 35.2908 88.5467 34.4312 88.7053C33.5828 87.6388 32.7214 86.5856 32.0056 85.4231C33.113 83.9218 33.8925 81.6684 35.6048 80.7716Z" fill="#444444"/>
<path d="M49.3233 51.6869C50.6367 51.5892 51.8995 51.9266 53.0694 52.507C55.7765 53.8502 58.4749 56.2691 59.4505 59.2005C58.3951 58.4298 57.3399 57.8371 56.1311 57.3387C54.8583 56.8066 53.5053 56.4528 52.1718 56.1102C49.4919 55.4219 46.928 54.9281 44.1565 54.8272C44.3236 54.4078 44.4994 54.0253 44.7899 53.6725C45.8908 52.3359 47.6683 51.8388 49.3233 51.6869Z" fill="#444444"/>
<path d="M48.2349 61.7143C49.3782 61.5564 50.6707 61.6498 51.8142 61.7385C48.6934 62.6797 45.9727 64.0811 43.5441 66.289C39.9353 69.5698 38.5044 73.5354 38.2916 78.3245C38.2964 78.9138 38.3537 79.5101 38.3897 80.0987C37.3975 78.5389 36.7536 77.0232 36.5443 75.1723C36.1659 71.8284 37.0206 68.5681 39.1246 65.927C41.8232 62.539 44.1857 62.1656 48.2349 61.7143Z" fill="#444444"/>
<path d="M42.703 56.2224C44.9055 55.8643 48.9476 56.4961 50.9316 57.5363C51.4319 57.7986 52.2498 58.2852 52.3805 58.8637C52.4417 59.1346 52.323 59.3759 52.1643 59.587C51.6111 60.3226 48.3667 60.3398 47.3921 60.4821C46.5475 60.6051 45.6688 60.8698 44.8196 60.9006C44.1954 60.9232 43.4381 60.6498 42.8246 60.5306C41.5069 60.2745 40.2605 60.4835 38.9508 60.6887C36.8007 61.2278 35.0999 62.1251 33.354 63.468C32.8864 63.2862 32.3837 63.05 31.9935 62.733C31.6567 62.4596 31.3956 62.1135 31.3598 61.6692C31.3197 61.1734 31.6081 60.6946 31.9185 60.3331C34.1509 57.734 39.3639 56.5118 42.703 56.2224Z" fill="#444444"/>
<path d="M59.0436 43.7068C59.2549 43.6902 59.4665 43.6788 59.6783 43.6725C62.3125 43.616 63.6003 47.3639 65.2402 48.935C68.0147 51.5933 72.0745 50.4334 75.5092 50.3726C77.0295 50.3455 78.9041 50.4329 80.0455 51.5897C81.5667 53.1315 81.5566 56.7877 81.5733 58.8713C80.6284 58.2206 79.704 57.5005 78.8344 56.7525C78.8148 56.4201 78.7953 56.0876 78.7267 55.761C78.5395 54.8713 78.1033 54.2687 77.3482 53.7768C75.0284 52.5925 70.46 52.5756 67.8972 52.9411C66.7761 53.1011 65.7046 53.401 64.624 53.7279C64.5578 53.2856 64.5051 52.8402 64.4255 52.4002C64.1248 50.7361 63.4702 48.8526 61.99 47.8774C61.9385 47.8433 61.886 47.8105 61.8326 47.7791C61.7793 47.7475 61.7253 47.7174 61.6704 47.6886C61.6156 47.6599 61.5601 47.6326 61.5039 47.6067C61.4477 47.5808 61.3908 47.5563 61.3334 47.5333C61.276 47.5103 61.218 47.4887 61.1594 47.4685C61.1009 47.4484 61.0419 47.4299 60.9824 47.4128C60.9229 47.3957 60.863 47.3801 60.8027 47.366C60.7424 47.352 60.6818 47.3395 60.6209 47.3286C60.56 47.3175 60.4988 47.3081 60.4374 47.3002C60.3761 47.2924 60.3145 47.2861 60.2527 47.2813C60.1911 47.2765 60.1293 47.2733 60.0673 47.2718C60.0054 47.2702 59.9436 47.2701 59.8817 47.2716C59.8198 47.2732 59.7581 47.2763 59.6964 47.281C59.6346 47.2857 59.573 47.2919 59.5116 47.2996C59.4503 47.3075 59.3891 47.3169 59.3281 47.3278C59.2672 47.3386 59.2066 47.351 59.1463 47.365C57.7194 47.7106 56.5509 48.9008 55.8113 50.1188C54.9182 50.0322 54.0143 50.0537 53.1177 50.0509C54.2211 48.6006 56.2026 45.5077 57.4816 44.481C57.969 44.0897 58.4484 43.878 59.0436 43.7068Z" fill="#444444"/>
<path d="M43.596 44.1848C46.3605 44.0387 47.9309 45.5345 50.2414 46.7231C51.0989 47.1641 51.9819 47.4523 52.9015 47.7275C52.384 48.5151 51.7926 49.2343 51.182 49.9496C50.6696 49.4805 50.1631 48.9946 49.6154 48.567C48.3515 47.5801 46.7461 46.771 45.0939 47.0075C44.2894 47.1228 43.6353 47.5221 43.1536 48.1754C41.8038 50.0061 42.2304 52.7964 42.5422 54.8866C40.7051 54.9773 38.8405 55.3918 37.0933 55.9572C34.6897 56.7351 31.2855 58.1762 30.0676 60.5601C29.8709 61.192 29.7975 61.8311 29.9914 62.4752C30.3438 63.6455 31.3111 64.2153 32.3192 64.7554C31.5042 65.5645 30.8388 66.3822 30.1996 67.3329C28.9338 65.512 27.4676 63.6385 26.8893 61.4645C26.6513 60.5698 26.5504 59.3524 27.1115 58.5582C28.4781 56.6245 35.6069 55.7285 37.9535 53.3287C39.9621 51.2745 40.0366 48.2093 41.449 45.8426C41.9695 44.9705 42.6067 44.4323 43.596 44.1848Z" fill="#444444"/>
<path d="M41.1996 61.9572L41.5689 61.9624C41.5283 62.1447 40.6251 62.6474 40.4207 62.8171C38.771 64.1867 37.4512 65.7598 36.5184 67.6961C36.4343 67.8685 36.3538 68.0427 36.2771 68.2187C36.2005 68.3946 36.1276 68.5721 36.0585 68.7511C35.9894 68.9302 35.9241 69.1106 35.8628 69.2923C35.8014 69.4742 35.744 69.6573 35.6904 69.8415C35.6368 70.0259 35.5872 70.2112 35.5415 70.3977C35.496 70.584 35.4544 70.7713 35.4167 70.9594C35.3792 71.1477 35.3456 71.3366 35.3161 71.5263C35.2865 71.7159 35.2611 71.9061 35.2397 72.0968C35.2183 72.2875 35.201 72.4785 35.1878 72.67C35.1746 72.8614 35.1654 73.0531 35.1605 73.2449C35.1555 73.4368 35.1546 73.6287 35.1577 73.8205C35.1609 74.0124 35.1682 74.2041 35.1796 74.3956C35.1909 74.5872 35.2064 74.7784 35.226 74.9693C35.2456 75.1602 35.2692 75.3507 35.297 75.5406C35.3247 75.7305 35.3565 75.9197 35.3922 76.1083C35.4281 76.2967 35.4679 76.4844 35.5118 76.6713C35.7168 77.542 36.0394 78.3909 36.3346 79.2344C36.303 79.2328 36.2714 79.2322 36.24 79.2296C36.208 79.2272 36.1762 79.2228 36.1443 79.2197C36.0964 79.2151 36.0484 79.212 36.0004 79.207C35.7529 79.1809 35.5231 79.1438 35.2765 79.2061C33.1705 79.738 32.1233 82.1842 31.1598 83.9117L31.0148 83.9221C29.9631 81.8752 29.1384 79.7673 28.9774 77.4497C28.6984 73.4352 30.2706 69.2492 32.9262 66.2515C35.0546 63.8489 37.9566 62.1428 41.1996 61.9572Z" fill="#444444"/>
<path d="M75.612 60.3759C78.3757 60.1556 81.7461 60.4428 84.123 62.0182C84.7032 62.4027 85.2116 62.9379 85.3326 63.6475C85.4165 64.1392 85.281 64.6209 84.9915 65.0224C83.724 66.7786 78.808 67.7986 76.727 68.1061C75.513 68.2531 74.3048 68.3533 73.081 68.3556C72.2912 67.4358 71.4364 66.603 70.4605 65.8802C69.8935 65.4603 69.2816 65.0911 68.7334 64.648C68.1501 64.1765 67.6912 63.6037 67.0658 63.1714C69.1044 61.2748 72.9104 60.6234 75.612 60.3759Z" fill="#444444"/>
<path d="M57.0279 62.5103C60.2476 62.3357 63.6493 62.8723 66.3509 64.7494C66.7523 65.0282 67.1854 65.3985 67.2587 65.9123C67.2897 66.1302 67.208 66.3176 67.0782 66.487C65.8036 68.1478 59.7206 69.5088 57.5581 69.7783L57.45 69.7952C54.8356 70.1885 50.0903 70.1233 47.9257 68.4616C47.5134 68.1451 47.1715 67.7001 47.1306 67.1662C47.0861 66.5895 47.3615 66.0637 47.731 65.6397C49.5557 63.5455 54.3006 62.7415 57.0279 62.5103Z" fill="#444444"/>
<path d="M68.6865 66.6762C68.756 66.7027 68.825 66.7304 68.8934 66.7595C69.9489 67.2136 70.7006 68.4715 71.4462 69.3064C72.1146 70.0548 72.9388 70.6037 73.6698 71.2811C75.1856 72.6861 75.96 74.8789 76.712 76.7669C72.8739 75.8601 68.792 76.3017 65.0333 77.3386C63.9173 77.6966 62.8034 78.0612 61.6743 78.3771C60.622 75.4391 59.5827 73.5296 57.6147 71.1041C60.4255 70.6478 64.9779 69.5429 67.346 67.9688C67.8911 67.6065 68.299 67.2018 68.6865 66.6762Z" fill="#444444"/>
<path d="M86.9037 64.527C87.8672 65.3837 89.2258 68.1162 89.6989 69.3592C91.3684 73.7465 90.8576 77.8527 88.98 82.0586C86.749 80.6084 84.545 79.3651 82.0766 78.3586C80.8978 77.8718 79.6651 77.5016 78.4479 77.1251C77.4936 74.4491 76.4061 71.7319 74.4966 69.5789C77.3909 69.3567 80.3899 68.7901 83.1017 67.7203C84.782 67.0573 86.1567 66.2332 86.9037 64.527Z" fill="#444444"/>
<path d="M94.9095 58.4207C97.4541 58.56 98.9544 59.464 100.744 61.2426C100.606 63.8409 100.702 66.4548 100.811 69.0525C100.972 72.9091 101.241 76.7999 101.76 80.6261C102.387 85.2455 103.419 89.7539 103.252 94.4482C103.164 96.903 102.44 99.1015 102.059 101.494L101.93 102.396C101.391 102.194 100.864 101.967 100.347 101.714C99.8306 101.462 99.3275 101.184 98.8379 100.883C99.0505 98.4041 99.2528 95.9936 99.1101 93.5047C98.8786 89.4704 98.0666 85.5285 97.319 81.5691C95.9158 74.1367 94.3745 65.9957 94.9095 58.4207Z" fill="#444444"/>
<path d="M92.3293 57.3653C92.6889 57.6705 93.06 57.9175 93.4602 58.166C93.0302 65.2027 94.0771 72.4127 95.385 79.3208C96.1766 83.5023 97.0989 87.6294 97.5067 91.8752C97.6502 93.3705 97.7552 94.9009 97.7254 96.4034C97.7012 97.6292 97.1988 100.531 97.4506 101.452C97.5794 101.923 98.0531 102.214 98.4528 102.439C99.5325 103.047 100.837 103.502 102.015 103.871C108.06 105.768 115.052 105.821 121.158 104.147C123.033 103.633 126.115 102.66 127.136 100.878C127.138 99.5056 126.904 98.1578 126.758 96.7972C126.671 96.0464 126.621 95.2932 126.606 94.5376C126.592 93.7819 126.614 93.0274 126.672 92.2739C127.113 86.4524 128.567 80.6887 129.448 74.9186C130.246 69.7019 130.392 64.4464 130.281 59.1809C130.727 58.5503 131.249 57.9857 131.799 57.4451C131.819 59.4772 131.742 61.5145 131.697 63.5463C131.576 65.3132 131.521 67.0755 131.355 68.8404C131.114 71.3989 130.703 73.9509 130.246 76.4793C128.968 83.5502 126.701 91.0221 127.339 98.2651C127.541 100.557 128.077 102.772 128.599 105.006C128.269 105.404 127.891 105.712 127.465 106C121.802 109.824 110.512 110.027 104.012 108.794C101.333 108.286 97.0043 107.243 95.4267 104.922C96.369 101.677 97.0825 98.4036 97.1396 95.0093C97.1985 91.5111 96.3943 87.9332 95.727 84.5149C94.9743 80.8044 94.2748 77.0839 93.6284 73.3535C92.7604 68.0756 92.4287 62.7087 92.3293 57.3653Z" fill="#444444"/>
<path d="M45.4369 66.9367C45.4418 66.9467 45.4488 66.9558 45.4517 66.9666C45.6574 67.7402 45.8168 68.4 46.4088 68.985C48.6213 71.1716 53.1684 71.184 56.0863 71.1914C58.3018 73.6905 59.4539 75.6778 60.4472 78.8715C57.5215 80.1191 54.5541 81.2636 51.5984 82.4384C48.6955 83.6141 45.742 84.7216 42.8052 85.8112C40.8633 83.6602 39.977 80.9882 40.0353 78.1018C40.0996 74.9111 41.3691 71.599 43.3535 69.1093C43.9829 68.3196 44.7082 67.632 45.4369 66.9367Z" fill="#444444"/>
<path d="M125.615 59.1485C126.785 59.0458 127.754 59.2384 128.837 59.6688C129.173 65.8759 128.445 72.117 127.436 78.2298C126.552 83.5778 125.133 89.0273 125.201 94.4743C125.226 96.4634 125.53 98.4891 125.835 100.452C125.062 101.01 124.254 101.451 123.395 101.863C122.768 102.145 122.113 102.356 121.463 102.578C121.092 101.252 120.734 99.9321 120.52 98.57C119.381 91.3434 121.05 83.9974 121.644 76.7946C122.07 71.6124 122.139 66.4555 122.081 61.2589C123.034 60.1551 124.211 59.4928 125.615 59.1485Z" fill="#444444"/>
<path d="M105.098 60.431C105.319 60.3971 105.564 60.3968 105.787 60.3896C107.7 60.3288 109.357 61.2636 110.712 62.5341L110.867 103.89C109.633 103.875 108.414 103.743 107.189 103.609C105.854 103.403 104.57 103.15 103.271 102.776C103.591 99.9445 104.504 97.5434 104.582 94.5922C104.73 89.0209 103.424 84.0537 102.821 78.5884C102.199 72.9584 102.181 67.1993 102.125 61.5385C103.116 60.9778 103.974 60.6193 105.098 60.431Z" fill="#444444"/>
<path d="M115.955 60.5941C117.851 60.4272 119.126 61.1218 120.744 62.0086C120.832 67.1644 120.69 72.3139 120.318 77.4572C120.051 80.7187 119.503 83.9417 119.168 87.1942C118.656 92.1719 118.545 98.1706 120.186 102.959C119.343 103.153 118.505 103.32 117.651 103.459C115.844 103.773 114.028 103.862 112.197 103.903C112.234 96.5621 112.212 89.2212 112.132 81.8804C112.042 75.4491 111.779 68.9445 112.147 62.521C113.287 61.4691 114.415 60.8343 115.955 60.5941Z" fill="#444444"/>
<path d="M92.0888 45.1621C95.238 47.6902 99.5741 48.8206 103.507 49.435C111.906 50.7476 124.823 50.5838 131.952 45.3769C131.993 48.7757 131.848 52.1888 131.792 55.5884C131.116 56.0779 130.52 56.6591 129.931 57.248C129.668 57.5307 129.433 57.8317 129.196 58.1362C128.19 57.8604 127.18 57.6423 126.131 57.6463C123.937 57.6546 122.364 58.7129 120.866 60.2253C119.48 59.5373 118.132 59.0092 116.56 59.0095C116.441 59.0089 116.323 59.0111 116.204 59.0163C116.086 59.0217 115.967 59.0298 115.849 59.0409C115.731 59.052 115.613 59.066 115.496 59.0829C115.378 59.0998 115.261 59.1195 115.145 59.1423C115.028 59.165 114.912 59.1905 114.797 59.2188C114.682 59.2473 114.567 59.2785 114.454 59.3126C114.34 59.3466 114.227 59.3835 114.115 59.4231C114.003 59.4627 113.893 59.5051 113.783 59.5502C113.673 59.5953 113.564 59.6431 113.457 59.6935C113.35 59.744 113.243 59.7971 113.139 59.8528C113.034 59.9085 112.93 59.9668 112.829 60.0276C112.727 60.0884 112.626 60.1517 112.528 60.2174C112.429 60.2832 112.332 60.3513 112.236 60.4219C112.141 60.4925 112.047 60.5653 111.955 60.6405C111.863 60.7157 111.774 60.7931 111.686 60.8727C111.598 60.9524 111.512 61.0342 111.428 61.118C110.512 60.3106 109.513 59.641 108.354 59.237C106.009 58.4201 103.828 58.9361 101.662 59.9735C99.1537 57.7227 97.8144 56.8822 94.4068 56.9026C93.6394 56.4779 92.9503 55.9542 92.255 55.424C92.2307 52.0026 92.0823 48.5839 92.0888 45.1621Z" fill="#444444"/>
<path d="M109.189 35.225C114.711 34.7979 126.309 35.931 130.636 39.6052C131.297 40.1661 131.925 40.9646 131.967 41.8649C131.997 42.5102 131.576 43.0977 131.15 43.5414C127.954 46.874 119.186 48.0831 114.677 48.1681C108.854 48.5267 98.4503 47.7351 93.709 44.1023C92.9738 43.5391 92.1744 42.7727 92.0766 41.802C92.0071 41.1112 92.3084 40.4885 92.7578 39.9818C95.9008 36.437 104.637 35.4854 109.189 35.225Z" fill="#444444"/>
<path d="M107.168 45.1491C107.362 45.1395 107.561 45.1282 107.754 45.155C108.014 45.191 108.372 45.3836 108.503 45.622C108.591 45.7829 108.612 45.9323 108.535 46.1043C108.426 46.3476 108.16 46.447 107.934 46.548C107.72 46.5672 107.437 46.6199 107.227 46.569C106.979 46.509 106.695 46.316 106.58 46.0808C106.567 46.0542 106.557 46.0268 106.548 45.9983C106.541 45.9698 106.535 45.9407 106.533 45.9112C106.53 45.8817 106.53 45.8522 106.533 45.8227C106.536 45.7933 106.542 45.7644 106.55 45.736C106.646 45.4162 106.883 45.2801 107.168 45.1491Z" fill="#1C1C1C"/>
<path d="M127.483 42.3662C127.703 42.3576 127.95 42.3318 128.167 42.3716C128.479 42.4289 128.677 42.6807 128.833 42.9327C128.854 43.1366 128.875 43.2442 128.745 43.4242C128.596 43.63 128.349 43.698 128.118 43.7668C127.888 43.772 127.641 43.7838 127.416 43.7298C127.205 43.6794 126.905 43.4497 126.831 43.2405C126.757 43.0314 126.779 42.908 126.892 42.7207C127.017 42.5132 127.269 42.4332 127.483 42.3662Z" fill="#1C1C1C"/>
<path d="M98.5596 38.4527C98.7343 38.4344 98.9098 38.4182 99.0856 38.419C99.4106 38.4204 99.8213 38.5269 100.025 38.808C100.099 38.9102 100.14 39.0445 100.121 39.1689C100.07 39.4936 99.8606 39.6899 99.6156 39.8849C99.1696 39.8993 98.5638 39.9524 98.2438 39.5568C98.1534 39.445 98.0999 39.3486 98.1069 39.2045C98.1227 38.8741 98.3252 38.6612 98.5596 38.4527Z" fill="#1C1C1C"/>
<path d="M124.085 38.2117C124.262 38.2053 124.446 38.195 124.62 38.2278C124.87 38.2747 125.129 38.422 125.262 38.646C125.365 38.8201 125.408 38.9919 125.326 39.1861C125.198 39.4899 124.927 39.5956 124.643 39.7043C124.455 39.7099 124.249 39.7261 124.064 39.6875C123.73 39.6173 123.546 39.4035 123.379 39.1281C123.356 38.9855 123.33 38.8693 123.389 38.7297C123.517 38.4239 123.8 38.3206 124.085 38.2117Z" fill="#1C1C1C"/>
<path d="M120.004 45.141C120.225 45.1276 120.467 45.1013 120.685 45.1473C120.941 45.2013 121.275 45.4184 121.391 45.6596C121.446 45.7745 121.452 45.8926 121.415 46.0112C121.311 46.3461 121.054 46.4349 120.762 46.5712C120.58 46.5811 120.396 46.5936 120.213 46.5871C119.945 46.5776 119.654 46.4179 119.493 46.2016C119.381 46.0508 119.318 45.9085 119.373 45.7188C119.464 45.4062 119.73 45.2662 120.004 45.141Z" fill="#1C1C1C"/>
<path d="M109.372 39.8127C109.469 39.8121 109.566 39.8175 109.663 39.8276C109.984 39.8608 110.208 39.9326 110.41 40.1965C110.53 40.3535 110.59 40.5442 110.532 40.7404C110.439 41.0515 110.18 41.1927 109.906 41.3186C109.657 41.3501 109.366 41.3975 109.127 41.3022C108.895 41.2094 108.69 41.0015 108.606 40.7648C108.541 40.5833 108.562 40.3971 108.659 40.2312C108.827 39.9418 109.071 39.8799 109.372 39.8127Z" fill="#1C1C1C"/>
<path d="M115.692 41.7313C115.863 41.7375 116.042 41.7374 116.21 41.7627C116.476 41.8028 116.733 41.976 116.865 42.2141C116.965 42.3929 117.002 42.5374 116.918 42.7326C116.779 43.0546 116.512 43.1313 116.204 43.2206C115.992 43.2192 115.747 43.2335 115.541 43.1804C115.325 43.1246 115.071 42.8824 114.979 42.6783C114.898 42.4968 114.873 42.3359 114.971 42.1533C115.124 41.867 115.402 41.7961 115.692 41.7313Z" fill="#1C1C1C"/>
<path d="M118.157 36.8671C118.34 36.8458 118.525 36.8221 118.71 36.8194C119.03 36.8147 119.558 36.9859 119.755 37.2544C119.827 37.3523 119.869 37.4734 119.853 37.5935C119.81 37.9105 119.606 38.0622 119.365 38.2383C118.905 38.3101 118.381 38.3682 117.993 38.0481C117.838 37.9201 117.747 37.7991 117.753 37.59C117.761 37.2729 117.943 37.0718 118.157 36.8671Z" fill="#1C1C1C"/>
<path d="M110.519 35.4272C111.138 35.3934 111.577 35.3868 112.09 35.7764C112.148 35.8941 112.216 35.9649 112.192 36.101C112.137 36.4122 111.87 36.5965 111.628 36.7672C111.397 36.803 111.154 36.8294 110.92 36.8065C110.638 36.7789 110.183 36.607 110.037 36.3484C109.98 36.2468 109.942 36.1169 109.972 36.0025C110.05 35.6954 110.261 35.5708 110.519 35.4272Z" fill="#1C1C1C"/>
<path d="M104.314 36.1425C104.536 36.1365 104.784 36.1166 105 36.1712C105.275 36.2411 105.632 36.5031 105.739 36.7735C105.808 36.9499 105.778 37.1256 105.679 37.284C105.551 37.4906 105.333 37.5683 105.118 37.6454C104.906 37.6533 104.647 37.6837 104.44 37.6323C104.187 37.5693 103.864 37.3808 103.743 37.1368C103.682 37.0133 103.675 36.8888 103.716 36.7611C103.82 36.4372 104.037 36.3028 104.314 36.1425Z" fill="#1C1C1C"/>
<path d="M99.4483 41.6344C99.6398 41.6258 99.8348 41.6144 100.026 41.6255C100.312 41.6422 100.754 41.8264 100.917 42.0745C101.026 42.2401 101.048 42.3685 100.993 42.5599C100.925 42.7966 100.696 42.9637 100.504 43.0912C100.283 43.1133 100.058 43.1409 99.8359 43.1442C99.5422 43.1484 99.1892 43.0046 98.9937 42.7762C98.8893 42.6543 98.7997 42.4746 98.8393 42.3089C98.9159 41.9884 99.1779 41.7875 99.4483 41.6344Z" fill="#1C1C1C"/>
<path d="M132.819 71.7354C135.98 73.5498 138.799 75.8773 141.334 78.4826C145.256 82.5121 148.19 87.9624 148.082 93.7056C147.963 100.026 144.388 105.469 139.957 109.69C137.455 112.074 134.681 114.032 131.735 115.824C116.592 125.035 96.193 128.442 78.6509 128.003C76.329 127.959 74.0102 127.849 71.6946 127.673C69.3789 127.497 67.0702 127.255 64.7685 126.947C50.1724 124.908 32.5192 119.418 22.1391 108.47C18.0719 104.18 15.0399 98.7536 15.2296 92.6816C15.4229 86.4928 18.9485 80.72 23.3765 76.5794C24.7756 75.3221 26.2384 74.2069 27.7759 73.1264C27.5985 73.959 27.524 74.8133 27.427 75.6584C25.386 77.3543 23.4781 79.2056 21.9065 81.3516C18.8187 85.5685 17.3164 90.4817 18.1448 95.6955C19.2509 102.658 24.2223 108.137 29.7518 112.125C48.1826 125.418 78.744 127.951 100.605 124.413C113.885 122.264 132.952 116.258 141.134 104.815C144.219 100.501 145.787 95.5489 144.892 90.2315C144.106 85.5632 141.248 80.9925 137.882 77.7155C136.266 76.1423 134.443 74.7761 132.61 73.4686C132.66 72.8871 132.735 72.3129 132.819 71.7354Z" fill="#444444"/>
<path d="M82.2108 26.3676C84.4148 26.0907 86.1249 26.8098 87.8601 28.1027C89.0514 27.6283 90.1567 27.2898 91.4531 27.427C93.5863 27.6528 95.0038 28.9471 96.3036 30.538C97.7493 29.8845 99.1561 29.793 100.653 30.361C102.281 30.9789 103.332 32.266 104.031 33.8144C99.8498 34.5033 94.8796 35.4087 91.6858 38.4088C91.0814 38.9764 90.5685 39.6687 90.3315 40.4724C89.9116 41.8966 90.3589 47.0747 90.2946 48.9793C89.4444 48.333 88.4288 47.8289 87.3478 47.7633C85.9495 47.6784 84.8853 48.2693 83.8928 49.1755C84.4407 49.1174 84.9859 49.0335 85.5343 48.9762C87.5545 48.7652 88.7604 49.1179 90.3357 50.396C90.3864 51.6929 90.4069 52.9902 90.3972 54.2881C89.6071 55.2172 88.8112 56.0935 87.894 56.9021C86.5279 58.0496 85.0364 58.9488 83.4081 59.6712C83.3039 57.3889 83.2507 54.9552 82.5027 52.7784C80.9038 48.1249 76.0174 48.7163 72.0367 49.0445C70.5843 49.1642 69.0622 49.407 67.692 48.7639C64.9796 47.4911 64.585 43.9753 60.8788 42.1899C60.8705 41.4876 60.9928 40.8302 61.2312 40.1712C62.0173 37.9992 63.5502 36.9692 65.5582 36.0227C65.6588 35.6413 65.743 35.2519 65.8694 34.878C66.3648 33.4123 67.3934 32.6423 68.7163 31.9727C69.4756 30.3201 70.4788 29.0178 72.2302 28.3454C74.1972 27.5905 75.8867 28.0979 77.7248 28.9139C78.9785 27.5344 80.3712 26.706 82.2108 26.3676Z" fill="#444444"/>
<path d="M70.5718 42.3654C71.2548 42.2816 72.0138 42.3391 72.6755 42.5312C74.1511 42.96 75.1302 43.9718 75.8472 45.2853C74.2103 44.2187 72.7086 43.513 70.7354 43.4763C70.5796 43.4912 70.4255 43.5094 70.271 43.5356C68.541 43.8301 67.3637 45.0669 66.3906 46.4345C66.4863 45.6282 66.712 44.9616 67.1841 44.2973C68.0057 43.1414 69.2032 42.5783 70.5718 42.3654Z" fill="#1C1C1C"/>
<path d="M78.926 33.2132C79.3447 33.1638 79.7913 33.1594 80.2117 33.1826C81.895 33.2762 83.5763 34.0533 84.6996 35.3158C85.7558 36.5028 86.0308 37.7531 85.9446 39.3151C85.3696 37.6519 84.6371 36.4964 83.2293 35.4226C82.2783 34.819 81.2787 34.4006 80.1447 34.3144C77.9429 34.1467 76.0872 35.2608 74.4685 36.6288C74.579 36.1419 74.7184 35.75 75.0073 35.3385C75.9175 34.042 77.4133 33.4489 78.926 33.2132Z" fill="#1C1C1C"/>
<path d="M132.404 74.7105C137.832 78.87 142.632 83.6329 143.745 90.7563C144.514 95.6786 142.896 100.36 140.005 104.308C137.556 107.652 134.205 110.323 130.73 112.533C121.196 118.595 110.089 121.731 99.0031 123.451C96.766 123.798 94.511 124.007 92.2566 124.204C72.4767 125.933 46.6462 122.973 30.265 110.974C25.1254 107.21 20.3535 101.899 19.3798 95.3824C18.6205 90.3007 20.3379 85.5982 23.345 81.5384C24.4899 80.0328 25.8931 78.6458 27.3372 77.4287C27.8372 82.0348 29.8334 85.4173 32.653 88.9525C30.31 89.5946 28.1465 90.9419 26.6335 92.8562C24.8424 95.1224 24.1319 97.9617 24.4763 100.818C24.8231 103.696 26.5451 106.526 28.811 108.304C30.0276 109.259 31.5235 110.041 33.004 110.491C34.8511 111.053 36.89 111.294 38.7905 111.641C42.3136 112.307 45.8442 112.931 49.3825 113.511L61.9099 115.502C64.3399 115.878 66.7908 116.348 69.2417 116.547C70.7224 116.667 72.226 116.593 73.6987 116.407C81.4312 115.431 89.482 109.408 94.1562 103.378C93.8775 104.056 93.5483 104.758 93.4197 105.484C93.2546 106.416 93.5222 107.29 94.0562 108.056C95.9659 110.796 100.879 112.187 104.054 112.765C110.59 113.954 122.665 113.646 128.266 109.713C129.418 108.904 130.216 107.892 130.369 106.445C130.576 104.495 129.76 102.438 129.379 100.539C129.114 99.2124 129.004 97.8841 128.996 96.5325C128.949 89.1236 131.111 81.953 132.404 74.7105Z" fill="#444444"/>
<path d="M69.6352 78.1189C69.9243 78.105 70.2135 78.0952 70.5027 78.0897C70.7921 78.0842 71.0815 78.0829 71.3709 78.0858C71.6603 78.0887 71.9496 78.0959 72.2388 78.1072C72.5279 78.1185 72.8168 78.134 73.1055 78.1539C73.3942 78.1736 73.6826 78.1976 73.9706 78.2258C74.2586 78.254 74.5462 78.2863 74.8332 78.3229C75.1204 78.3594 75.4069 78.4002 75.6928 78.4452C75.9786 78.4901 76.2637 78.5392 76.5482 78.5924C76.8327 78.6456 77.1163 78.7029 77.399 78.7645C77.6818 78.8259 77.9637 78.8915 78.2446 78.9612C78.5255 79.031 78.8053 79.1048 79.084 79.1827C79.3626 79.2605 79.6401 79.3425 79.9165 79.4284C80.1928 79.5144 80.4679 79.6043 80.7416 79.6982C81.0153 79.7923 81.2876 79.8902 81.5584 79.9921C81.8292 80.0941 82.0986 80.1999 82.3664 80.3097C82.6341 80.4195 82.9002 80.5331 83.1647 80.6506C87.6892 82.6391 93.2747 87.1558 95.061 91.8134C95.9446 94.1171 95.1213 97.8385 94.1366 100.008C91.7293 105.314 83.3602 111.584 77.9043 113.588C77.5992 113.7 77.2916 113.806 76.9815 113.904C76.6714 114.002 76.3592 114.093 76.0449 114.176C75.7305 114.26 75.4142 114.336 75.0962 114.404C74.7782 114.472 74.4588 114.533 74.1379 114.586C73.817 114.639 73.4951 114.684 73.172 114.722C72.849 114.76 72.5252 114.79 72.2007 114.812C71.8762 114.835 71.5514 114.85 71.2262 114.857C70.9011 114.863 70.5759 114.863 70.2508 114.854C68.2515 114.797 66.2439 114.425 64.2693 114.126C61.3402 113.693 58.4145 113.238 55.4921 112.762C50.2473 111.965 45.0184 111.075 39.8054 110.091C37.2562 109.629 34.3034 109.452 31.9513 108.342C29.4697 107.171 27.4825 105.139 26.5621 102.534C25.7694 100.29 25.8497 97.73 26.8915 95.5786C28.166 92.9468 30.3977 91.265 33.2241 90.5895C34.1592 90.366 35.1217 90.2759 36.0583 90.0538C37.0245 89.8248 37.9594 89.48 38.8949 89.1506C39.9753 89.5212 41.245 89.5476 42.3688 89.7984C48.6735 91.2045 54.36 95.8373 57.9331 101.119C59.3052 103.147 60.3495 105.34 61.6552 107.398C61.3494 103.744 58.6733 99.9144 56.337 97.1887C52.3938 92.5888 46.678 88.9439 40.5403 88.4751C41.5023 88.0039 42.6024 87.6859 43.6096 87.3116C45.1858 86.7039 46.7655 86.1053 48.3487 85.5159C49.9431 85.8665 51.5565 86.1622 53.1211 86.6319C61.443 89.1304 66.3754 95.6191 70.3218 102.959L70.3168 102.893L70.3071 102.784C70.0437 99.5642 67.2886 95.5884 65.1978 93.165C61.3095 88.6586 55.9602 85.3619 49.9312 84.8999C52.1544 83.7736 55.2266 82.7782 57.6203 81.8263C59.0116 82.0767 60.4135 82.3737 61.7652 82.79C67.7679 84.6384 72.534 89.3856 75.8638 94.5671C76.9156 96.2037 77.8 97.909 78.7112 99.625C78.3715 96.8003 76.9449 94.1613 75.3595 91.8335C72.7777 88.0431 68.5372 83.9448 64.2949 82.1327C62.8774 81.5272 61.3731 81.1902 59.8651 80.9045C63.0826 79.5459 66.7173 78.8086 70.1535 79.6976C75.8848 81.1804 81.2759 87.4969 84.4348 92.2973C85.5404 93.9775 86.4664 95.751 87.4778 97.4866C87.0039 94.6318 85.9301 92.4511 84.3448 90.0634C81.1921 85.3151 75.731 79.392 69.9356 78.2559C69.9061 78.2502 69.785 78.2306 69.7543 78.2128C69.7107 78.1873 69.6748 78.1502 69.6352 78.1189Z" fill="#444444"/>
</g>
<defs>
<clipPath id="clip0_243_39486">
<rect width="163" height="163" fill="white"/>
</clipPath>
</defs>
</svg>
