<svg width="50" height="49" viewBox="0 0 50 49" fill="none" xmlns="http://www.w3.org/2000/svg">
<path d="M0 20C0 8.9543 8.95431 0 20 0H50V49H20C8.9543 49 0 40.0457 0 29V20Z" fill="#C68448"/>
<path fill-rule="evenodd" clip-rule="evenodd" d="M26.5 41.625C35.4056 41.625 42.625 34.4056 42.625 25.5C42.625 16.5944 35.4056 9.375 26.5 9.375C17.5944 9.375 10.375 16.5944 10.375 25.5C10.375 34.4056 17.5944 41.625 26.5 41.625ZM22.9078 17.5321L35.6765 24.6258C36.3623 25.0068 36.3623 25.9932 35.6765 26.3742L22.9078 33.4679C22.1079 33.9123 21.125 33.3339 21.125 32.4189V18.5811C21.125 17.6661 22.1079 17.0877 22.9078 17.5321Z" fill="#141414"/>
</svg>
