<svg width="80" height="49" viewBox="0 0 80 49" fill="none" xmlns="http://www.w3.org/2000/svg">
<path d="M0 20C0 8.9543 8.95431 0 20 0H80V49H20C8.95431 49 0 40.0457 0 29V20Z" fill="#EAEAEA"/>
<path d="M42.25 28.625L36.75 34.125L42.25 39.625" stroke="#141414" stroke-width="2"/>
<path d="M31.1645 29.3125C30.1051 27.4776 29.6808 25.3444 29.9573 23.2437C30.2339 21.143 31.1959 19.1923 32.6941 17.6941C34.1923 16.1959 36.143 15.2339 38.2437 14.9573C40.3444 14.6808 42.4776 15.1051 44.3125 16.1645C46.1474 17.2239 47.5815 18.8592 48.3923 20.8167C49.2032 22.7742 49.3454 24.9445 48.797 26.9911C48.2487 29.0377 47.0403 30.8462 45.3593 32.136C43.6784 33.4259 41.6188 34.125 39.5 34.125" stroke="#141414" stroke-width="2" stroke-linecap="round"/>
</svg>
