<svg width="50" height="49" viewBox="0 0 50 49" fill="none" xmlns="http://www.w3.org/2000/svg">
<path d="M0 20C0 8.9543 8.95431 0 20 0H50V49H20C8.9543 49 0 40.0457 0 29V20Z" fill="#EAEAEA"/>
<path d="M29.25 28.625L23.75 34.125L29.25 39.625" stroke="#141414" stroke-width="2"/>
<path d="M18.1645 29.3125C17.1051 27.4776 16.6808 25.3444 16.9573 23.2437C17.2339 21.143 18.1959 19.1923 19.6941 17.6941C21.1923 16.1959 23.143 15.2339 25.2437 14.9573C27.3444 14.6808 29.4776 15.1051 31.3125 16.1645C33.1474 17.2239 34.5815 18.8592 35.3923 20.8167C36.2032 22.7742 36.3454 24.9445 35.797 26.9911C35.2487 29.0377 34.0403 30.8462 32.3593 32.136C30.6784 33.4259 28.6188 34.125 26.5 34.125" stroke="#141414" stroke-width="2" stroke-linecap="round"/>
</svg>
