<svg width="39" height="39" viewBox="0 0 39 39" fill="none" xmlns="http://www.w3.org/2000/svg">
<path d="M21.0141 0.981675L25.7954 11.0473C25.9041 11.3028 26.0752 11.524 26.2915 11.6891C26.5079 11.8542 26.7619 11.9572 27.0283 11.988L37.5832 13.6185C37.8888 13.6595 38.1769 13.7903 38.4139 13.9956C38.6509 14.201 38.827 14.4724 38.9216 14.7782C39.0162 15.084 39.0254 15.4115 38.9481 15.7225C38.8709 16.0336 38.7104 16.3153 38.4853 16.5347L30.8774 24.4054C30.6832 24.5945 30.5375 24.8313 30.4535 25.0942C30.3694 25.3571 30.3498 25.6377 30.3962 25.9105L32.2306 36.9795C32.2837 37.2976 32.2501 37.6248 32.1337 37.9239C32.0172 38.2231 31.8226 38.4821 31.572 38.6716C31.3213 38.8611 31.0247 38.9735 30.7158 38.9958C30.407 39.0182 30.0983 38.9497 29.8249 38.7982L20.3225 33.5616C20.0792 33.437 19.8117 33.3723 19.5407 33.3723C19.2696 33.3723 19.0021 33.437 18.7588 33.5616L9.25642 38.7982C8.98304 38.9497 8.67436 39.0182 8.3655 38.9958C8.05664 38.9735 7.76001 38.8611 7.50935 38.6716C7.25869 38.4821 7.06407 38.2231 6.94764 37.9239C6.83121 37.6248 6.79764 37.2976 6.85075 36.9795L8.68508 25.7851C8.73157 25.5122 8.7119 25.2316 8.62787 24.9688C8.54384 24.7059 8.39811 24.4691 8.20394 24.2799L0.505799 16.5347C0.278049 16.3093 0.117884 16.0198 0.0447037 15.7013C-0.0284763 15.3829 -0.0115306 15.0491 0.0934877 14.7405C0.198506 14.4319 0.387091 14.1616 0.636398 13.9625C0.885706 13.7634 1.18504 13.6439 1.49814 13.6185L12.053 11.988C12.3194 11.9572 12.5735 11.8542 12.7898 11.6891C13.0061 11.524 13.1772 11.3028 13.2859 11.0473L18.0672 0.981675C18.1974 0.688514 18.4053 0.440314 18.6664 0.26637C18.9275 0.0924264 19.2308 0 19.5407 0C19.8505 0 20.1538 0.0924264 20.4149 0.26637C20.676 0.440314 20.8839 0.688514 21.0141 0.981675Z" fill="#444444"/>
</svg>
