<svg width="33" height="33" viewBox="0 0 33 33" fill="none" xmlns="http://www.w3.org/2000/svg">
<path fill-rule="evenodd" clip-rule="evenodd" d="M7.46079 6.08579C6.875 6.67157 6.875 7.61438 6.875 9.5V24.875C6.875 26.7606 6.875 27.7034 7.46079 28.2892C8.04657 28.875 8.98938 28.875 10.875 28.875H22.125C24.0106 28.875 24.9534 28.875 25.5392 28.2892C26.125 27.7034 26.125 26.7606 26.125 24.875V9.5C26.125 7.61438 26.125 6.67157 25.5392 6.08579C24.9534 5.5 24.0106 5.5 22.125 5.5H10.875C8.98938 5.5 8.04657 5.5 7.46079 6.08579ZM12.375 11.375C11.8227 11.375 11.375 11.8227 11.375 12.375C11.375 12.9273 11.8227 13.375 12.375 13.375H20.625C21.1773 13.375 21.625 12.9273 21.625 12.375C21.625 11.8227 21.1773 11.375 20.625 11.375H12.375ZM12.375 16.875C11.8227 16.875 11.375 17.3227 11.375 17.875C11.375 18.4273 11.8227 18.875 12.375 18.875H20.625C21.1773 18.875 21.625 18.4273 21.625 17.875C21.625 17.3227 21.1773 16.875 20.625 16.875H12.375ZM12.375 22.375C11.8227 22.375 11.375 22.8227 11.375 23.375C11.375 23.9273 11.8227 24.375 12.375 24.375H17.875C18.4273 24.375 18.875 23.9273 18.875 23.375C18.875 22.8227 18.4273 22.375 17.875 22.375H12.375Z" fill="white"/>
</svg>
